<?xml version="1.0" encoding="UTF-8" standalone="no"?>
<!-- Created with Inkscape (http://www.inkscape.org/) -->

<svg
   xmlns:dc="http://purl.org/dc/elements/1.1/"
   xmlns:cc="http://creativecommons.org/ns#"
   xmlns:rdf="http://www.w3.org/1999/02/22-rdf-syntax-ns#"
   xmlns:svg="http://www.w3.org/2000/svg"
   xmlns="http://www.w3.org/2000/svg"
   xmlns:sodipodi="http://sodipodi.sourceforge.net/DTD/sodipodi-0.dtd"
   xmlns:inkscape="http://www.inkscape.org/namespaces/inkscape"
   width="210mm"
   height="297mm"
   viewBox="0 0 210 297"
   version="1.1"
   id="svg8"
   inkscape:version="0.92.5 (0.92.5+69)"
   sodipodi:docname="cook.svg">
  <defs
     id="defs2" />
  <sodipodi:namedview
     id="base"
     pagecolor="#ffffff"
     bordercolor="#666666"
     borderopacity="1.0"
     inkscape:pageopacity="0.0"
     inkscape:pageshadow="2"
     inkscape:zoom="0.51445126"
     inkscape:cx="557.22098"
     inkscape:cy="568.36952"
     inkscape:document-units="mm"
     inkscape:current-layer="layer1"
     showgrid="false"
     inkscape:window-width="1299"
     inkscape:window-height="713"
     inkscape:window-x="67"
     inkscape:window-y="27"
     inkscape:window-maximized="1" />
  <metadata
     id="metadata5">
    <rdf:RDF>
      <cc:Work
         rdf:about="">
        <dc:format>image/svg+xml</dc:format>
        <dc:type
           rdf:resource="http://purl.org/dc/dcmitype/StillImage" />
        <dc:title></dc:title>
      </cc:Work>
    </rdf:RDF>
  </metadata>
  <g
     inkscape:label="Layer 1"
     inkscape:groupmode="layer"
     id="layer1">
    <g
       id="g1244"
       transform="matrix(0.90040215,0,0,0.90040215,-92.489629,-55.492812)">
      <path
         style="fill:#f1d396"
         d="m 205.38048,371.73556 c -0.16399,-0.16399 -2.52937,-0.51746 -5.25639,-0.78549 -8.85994,-0.87082 -14.21703,-2.2609 -16.92647,-4.39215 -1.4612,-1.14938 -4.1418,-2.5799 -5.9569,-3.17893 -3.99849,-1.31962 -7.66383,-8.05071 -5.91215,-10.85716 0.68886,-1.10366 0.74174,-4.03464 0.15638,-8.66755 -0.48644,-3.85 -0.63896,-8.32262 -0.33893,-9.93915 0.43731,-2.35624 -0.0783,-3.58273 -2.59961,-6.18409 -3.5183,-3.62996 -3.42996,-7.0033 0.1536,-5.86592 1.79101,0.56844 1.96386,0.32942 1.39652,-1.93105 -0.45724,-1.8218 -0.24836,-2.58429 0.71092,-2.5951 1.04992,-0.0118 1.01776,-0.23546 -0.14159,-0.98469 -2.38405,-1.54069 -4,-1.16054 -4,0.94098 0,4.58952 -4.45698,2.46358 -8.60247,-4.1033 -1.42686,-2.2603 -3.95772,-4.59162 -5.83704,-5.37685 -4.28733,-1.79136 -5.16985,-4.16769 -2.75099,-7.40749 1.97177,-2.64097 10.34468,-5.87996 15.49016,-5.99225 3.39643,-0.0741 8.62389,2.4276 10.79442,5.16589 1.50516,1.89888 2.05785,1.94864 9.909,0.89204 4.57321,-0.61546 10.43828,-1.11902 13.03348,-1.11902 2.5952,0 5.17109,-0.5625 5.72419,-1.25 3.08639,-3.83635 4.51877,-27.61789 1.88074,-31.22561 -1.4505,-1.98369 -0.7953,-2.89511 -12.38614,17.22962 -3.16386,5.4933 -6.74266,8.25489 -10.64021,8.21055 -4.71889,-0.0537 -6.84929,-1.72578 -13.57839,-10.65743 -5.23225,-6.94485 -6.30235,-9.07746 -7.02492,-14 -0.46883,-3.19392 -2.43616,-11.20713 -4.37184,-17.80713 -1.93567,-6.6 -4.63944,-16.275 -6.00837,-21.5 -1.36893,-5.225 -4.1032,-15.0733 -6.07616,-21.88511 -3.81505,-13.17178 -3.8152,-13.34413 -0.0198,-22.61489 0.67549,-1.65 1.76735,-4.69095 2.42635,-6.75768 0.65899,-2.06672 2.03255,-4.20422 3.05234,-4.75 3.165,-1.69385 13.69269,-1.17926 17.7755,0.86887 2.04059,1.02365 4.19619,1.68664 4.79022,1.47331 0.64945,-0.23323 0.96717,-2.66969 0.7969,-6.11119 l -0.28315,-5.72331 0.98116,4.5 c 0.53965,2.475 1.69476,6.525 2.56691,9 0.9812,2.78441 1.55379,7.54993 1.50192,12.5 -0.0461,4.4 0.69548,14.975 1.64797,23.5 1.9427,17.38767 0.89077,15.96535 10.59518,14.3257 l 4.88695,-0.8257 5.32168,-12.35137 c 8.74621,-20.29955 11.51126,-22.61328 25.71906,-21.52118 6.99232,0.53747 8.77819,0.35783 11.01533,-1.108 2.5105,-1.64494 2.66901,-2.20565 2.65296,-9.38446 l -0.0171,-7.63499 -5.31519,-2.29954 c -6.78344,-2.93475 -12.18426,-7.39268 -14.58958,-12.04249 l -1.89224,-3.65797 -1.15914,3 c -1.11409,2.88343 -1.21451,2.92458 -2.58442,1.05887 -1.50296,-2.0469 -1.69464,-3.99738 -1.97125,-20.05887 -0.22742,-13.20459 0.92652,-20.77066 4.51129,-29.57947 5.41219,-13.299301 14.90907,-19.920531 28.57217,-19.920531 6.43827,0 6.46249,-0.01068 6.46249,-2.849962 0,-3.143403 -4.26257,-9.638217 -8.52722,-12.99279 -3.14999,-2.477786 -2.35626,-2.653326 4.14049,-0.915709 3.36236,0.899292 5.69026,2.432447 8.44473,5.561687 l 3.80274,4.320148 3.31896,-1.716302 c 4.3999,-2.275276 10.52344,-2.074326 16.4318,0.539226 5.86014,2.592216 8.3885,4.764975 8.3885,7.20869 0,2.344283 -0.50282,2.315404 -4.68457,-0.269056 -1.88134,-1.162737 -3.66378,-1.870918 -3.96096,-1.573736 -0.29718,0.297182 0.83399,1.251019 2.51371,2.119637 9.2505,4.783622 14.0376,27.311898 9.07088,42.687898 -2.39422,7.41201 -1.67425,11.90151 2.54412,15.86447 1.38425,1.30043 2.51682,2.73599 2.51682,3.19011 0,1.43933 -5.70166,0.89009 -7,-0.67431 -1.95339,-2.35369 -2.5201,-1.86015 -4.30607,3.75 -3.00065,9.42576 -9.71411,14.70496 -8.15909,6.41599 0.53814,-2.86857 0.29003,-3.29362 -2.54785,-4.3648 -2.31689,-0.87453 -3.77743,-0.89817 -5.5515,-0.0898 -4.69652,2.13988 -5.66463,5.15409 -6.20517,19.31998 -0.4768,12.49502 -0.39011,13.30888 1.63308,15.33207 1.69252,1.69252 3.34593,2.1366 7.9551,2.1366 7.65,0 15.23259,2.33183 18.68956,5.7475 4.40738,4.35473 6.25772,9.83525 8.02452,23.76784 0.90562,7.14156 3.01795,19.50966 4.69407,27.48466 1.67611,7.975 3.47101,16.525 3.98867,19 1.92,9.17985 2.01981,21.17757 0.22876,27.5 -0.93483,3.3 -1.76058,8.50378 -1.83498,11.56396 -0.0814,3.34727 -0.81222,6.59709 -1.83442,8.15716 -0.93452,1.42627 -2.23346,4.77249 -2.88653,7.43605 -1.66639,6.79648 -6.32289,15.75303 -9.48181,18.23784 -4.48648,3.52907 -9.92071,4.48374 -18.89614,3.31964 -4.39439,-0.56995 -8.31206,-0.83711 -8.70593,-0.59368 -0.39387,0.24342 -1.25351,3.17404 -1.91031,6.51248 -0.68704,3.49215 -2.18947,7.25272 -3.53783,8.85516 -5.47822,6.5105 -22.274,11.1427 -41.59974,11.47302 -7.00898,0.1198 -12.87778,0.0836 -13.04177,-0.0804 z m 31.25117,-10.4452 c -1.4886,-2.78147 0.42277,-5.12765 3.53998,-4.34528 2.26397,0.56822 2.27776,0.50626 2.42357,-10.88809 0.1619,-12.65154 0.13581,-12.70271 -6.47594,-12.70271 -4.70679,0 -5.4534,1.98097 -5.4534,14.46944 0,11.41185 1.36583,15.53056 5.15019,15.53056 1.63012,0 1.75332,-0.31177 0.8156,-2.06392 z m 1.93682,-32.05197 c 2.98655,-1.04112 3.18083,-1.39293 2.89923,-5.25 l -0.30184,-4.13411 h -5 -5 l -0.31453,3.81979 c -0.31936,3.87861 1.05948,6.68021 3.28775,6.68021 0.67558,0 2.66881,-0.50215 4.42939,-1.11589 z m -69.5549,-25.43524 c 1.45876,-0.36613 2.65229,-1.32223 2.65229,-2.12467 0,-0.92501 -0.64048,-1.26474 -1.75,-0.92827 -0.9625,0.2919 -3.9816,1.02021 -6.7091,1.61849 -7.22694,1.58522 -8.30227,2.80336 -4.88211,5.53049 l 2.76939,2.20824 2.63361,-2.8193 c 1.4485,-1.55062 3.82716,-3.11886 5.28592,-3.48498 z m 113.33784,-10.62318 c 1.44188,-1.35458 2.31677,-3.33388 2.32061,-5.25 0.003,-1.69163 0.70808,-4.42186 1.56599,-6.06719 1.02726,-1.97011 1.34615,-4.18939 0.93399,-6.5 -1.1841,-6.63826 -5.71002,-26.50962 -6.23274,-27.36526 -0.85263,-1.3957 -2.24157,1.61827 -2.25809,4.89999 -0.008,1.67378 -1.19119,7.07378 -2.62839,12 -2.24416,7.69225 -2.52637,10.1127 -1.99896,17.14441 0.98697,13.15859 3.11138,16.01024 8.29759,11.13805 z m -96.68555,-43.20485 c 0,-0.20853 -1.14758,-2.88579 -2.55017,-5.94946 -2.13355,-4.66027 -2.87216,-8.88685 -4.52107,-25.87084 -2.58541,-26.63 -2.88458,-28.80054 -3.96971,-28.80054 -1.57953,0 -4.73981,7.32216 -5.40518,12.52347 -0.35014,2.73709 -1.13579,6.65118 -1.74588,8.69797 -0.98496,3.30444 -0.69449,4.97171 2.59226,14.87932 4.24757,12.80388 8.77881,22.32254 11.33485,23.8108 1.75074,1.01937 4.2649,1.4375 4.2649,0.70928 z m 84.75452,-5.10641 c -0.27808,-2.46707 -1.24698,-5.61707 -2.15311,-7 -2.48443,-3.79172 -9.87487,-3.55829 -16.50507,0.52131 -5.69724,3.50555 -14.34741,5.61762 -18.63358,4.54967 -1.62952,-0.40601 -4.98776,-2.89513 -7.46276,-5.53138 -4.4982,-4.79126 -8.70085,-7.68651 -9.70292,-6.68445 -0.29239,0.2924 -0.76073,2.56429 -1.04075,5.04867 l -0.50914,4.51703 7.87641,3.61448 c 10.46062,4.80038 12.60558,5.04568 21.22575,2.42738 8.5934,-2.61017 15.73225,-2.37751 21.68443,0.7067 5.60415,2.90388 5.78414,2.82908 5.22074,-2.16941 z m -24.25452,-14.51443 c 0.3695,-0.59786 -0.91373,-1.01413 -3.19098,-1.03513 -2.09496,-0.0193 -6.73402,-0.67851 -10.30902,-1.46487 -8.09867,-1.78139 -10.21847,-1.85836 -7.5,-0.27233 5.86268,3.42043 19.48778,5.21916 21,2.77233 z m 23.5,-8.5 c 0,-1.4631 -0.57435,-2.5 -1.38478,-2.5 -0.9345,0 -1.61642,-1.85407 -2.09719,-5.70201 -0.79274,-6.34485 -1.55677,-5.8058 -3.49185,2.46363 -1.58951,6.7927 -0.98543,8.23838 3.44244,8.23838 3.10014,0 3.53138,-0.30529 3.53138,-2.5 z m -41.29102,-5.22599 c 0.66493,-0.84923 1.477,-3.6208 1.80459,-6.15904 0.32759,-2.53823 0.80463,-5.62747 1.06008,-6.86497 0.67451,-3.26757 -0.68373,-2.7309 -3.85031,1.52135 -1.52716,2.05076 -4.30376,5.74221 -6.17022,8.20322 -1.86646,2.46102 -3.15829,4.85527 -2.87072,5.32056 0.80505,1.3026 8.66465,-0.28171 10.02658,-2.02112 z m 51.34091,-67.06387 c -1.08603,-2.38357 -3.04989,-2.18923 -3.04989,0.30182 0,0.76666 0.53897,2.57685 1.19772,4.02264 l 1.19772,2.62871 0.85642,-2.31512 c 0.51947,-1.40425 0.44,-3.22906 -0.20197,-4.63805 z"
         id="path1258"
         inkscape:connector-curvature="0" />
      <path
         style="fill:#daac6d"
         d="m 206.66586,371.23455 c -9.81303,-1.24351 -20.43363,-4.24333 -23.32673,-6.5887 -1.55469,-1.26036 -3.48765,-2.29157 -4.29545,-2.29157 -2.02168,0 -6.37782,-4.5276 -6.37782,-6.62886 0,-1.52607 0.25341,-1.48795 2.25,0.33846 1.61414,1.47656 2.81521,1.82829 4.25,1.2446 1.88825,-0.76817 1.87248,-0.81756 -0.28222,-0.88391 -3.08556,-0.095 -4.04473,-3.00004 -3.98535,-12.07029 0.0847,-12.94405 0.14062,-12.73941 -4.23243,-15.5 -2.47791,-1.56423 -4,-3.28136 -4,-4.51254 0,-2.3355 -0.18351,-2.29599 3.95816,-0.8522 3.6123,1.25925 4.99776,0.22511 5.02653,-3.75193 0.0116,-1.602 -1.20046,-2.62193 -4.98469,-4.19459 l -5,-2.0779 v 2.94458 c 0,1.61952 -0.36173,2.94458 -0.80383,2.94458 -1.05813,0 -6.38219,-5.76728 -8.53913,-9.25 -0.93673,-1.5125 -2.50277,-2.75 -3.48009,-2.75 -4.09976,0 -5.63892,-5.36696 -2.38394,-8.31268 0.98615,-0.89245 4.6675,-2.35906 8.18076,-3.25911 7.53791,-1.93112 12.53556,-0.94854 16.40601,3.22556 l 2.38877,2.57618 11.41868,-1.11498 c 6.28027,-0.61323 13.95579,-1.11497 17.05671,-1.11497 6.12389,0 8.04347,-1.24063 4.69354,-3.03346 -2.02328,-1.08283 -2.08681,-1.59928 -1.41292,-11.48619 0.67317,-9.87631 -0.48399,-19.71921 -2.46198,-20.94167 -1.38758,-0.85757 -9.53424,11.54273 -13.61908,20.73004 -4.46298,10.03779 -15.6031,10.25599 -19.85431,0.38889 -0.74825,-1.73668 -3.04831,-4.95761 -5.11125,-7.15761 -3.71108,-3.95764 -6.14887,-9.6054 -4.96964,-11.51344 0.33536,-0.54261 1.75267,-0.98656 3.14959,-0.98656 6.34901,0 12.34162,-5.31545 12.86546,-11.41167 0.24016,-2.79496 0.56038,-3.06422 3.37101,-2.83452 2.49659,0.20403 3.10564,-0.12759 3.10564,-1.69099 0,-1.06963 -0.41559,-2.20164 -0.92354,-2.51557 -2.29349,-1.41745 -4.30833,-12.02747 -6.5512,-34.49817 -1.33293,-13.35437 -2.64147,-24.49863 -2.90786,-24.76501 -1.92097,-1.92097 -7.59287,9.27397 -7.60763,15.01559 -0.005,2.08981 -0.73324,5.19869 -1.61748,6.90863 -1.27463,2.46486 -1.39428,3.853 -0.57755,6.70034 4.77783,16.65663 5.14456,18.43548 4.06815,19.73248 -0.83775,1.00943 -0.71466,1.48622 0.50449,1.95405 3.46541,1.3298 1.34247,2.33285 -3.88738,1.83672 -3.49056,-0.33113 -5.5,-0.13998 -5.5,0.52318 0,5.18418 -5.54376,-7.46609 -8.0876,-18.45506 -0.6366,-2.75 -2.45232,-8.74836 -4.03493,-13.32968 -1.58261,-4.58132 -2.87747,-8.85904 -2.87747,-9.50605 0,-0.7532 2.24832,-1.25446 6.25,-1.39345 3.4375,-0.1194 7.6,-0.59663 9.25,-1.06052 2.64382,-0.74329 3.03651,-1.34011 3.3075,-5.02686 0.25559,-3.47733 0.002,-4.18602 -1.5,-4.19875 -0.99413,-0.008 -2.4825,-0.45842 -3.3075,-1 -1.33333,-0.87528 -1.33333,-1.0941 0,-1.96938 2.36049,-1.54956 6.15616,-1.18157 7.57793,0.73469 1.22599,1.6524 1.38375,1.63845 2.82844,-0.25 0.84151,-1.1 1.54433,-3.22167 1.56183,-4.71482 0.0269,-2.29596 2.29922,-4.78518 4.36823,-4.78518 1.20733,0 2.96453,7.18704 3.30069,13.5 0.65295,12.26189 3.55643,38.97007 4.32712,39.80362 0.40865,0.442 2.4018,0.0126 4.42921,-0.9542 3.06135,-1.45986 4.21269,-1.5591 6.7921,-0.58548 3.01213,1.13695 7.20857,0.21571 5.06162,-1.11118 -1.38582,-0.85648 1.03352,-7.8597 6.98119,-20.20829 6.23965,-12.95483 9.04604,-14.88454 18.02164,-12.39189 4.40067,1.22213 4.76056,3.12502 1.81711,9.60767 -2.53478,5.5826 -11.2836,17.9356 -14.48748,20.45578 -3.13155,2.46327 -3.24122,3.97673 -0.46949,6.47898 1.86595,1.68455 2.03766,2.61501 1.48386,8.04067 l -0.62628,6.13568 3.76614,0.681 c 2.07138,0.37454 6.83168,2.08053 10.57846,3.79108 l 6.81232,3.11008 7.18768,-2.35046 c 10.36904,-3.39081 18.86313,-3.26236 25.07702,0.37922 2.62222,1.53672 5.03393,2.52778 5.35936,2.20236 0.32542,-0.32543 1.16973,-3.39672 1.87623,-6.82509 1.58969,-7.71411 0.31345,-14.09859 -3.29028,-16.45985 -2.38028,-1.55962 -2.3825,-1.57788 -0.36478,-2.99115 1.79955,-1.26045 2.03284,-2.52293 2.05399,-11.11525 0.0262,-10.66433 1.123,-17.03666 3.15382,-18.32428 2.10338,-1.33361 10.66561,-1.00142 13.62434,0.5286 4.44524,2.29873 6.28648,5.0919 8.43043,12.78909 2.24978,8.07709 2.4947,9.50494 3.74175,21.81329 0.8534,8.42307 2.14401,14.76421 3.42769,16.84125 0.36614,0.59243 1.04627,3.90801 1.5114,7.36795 0.46513,3.45994 1.83162,10.08497 3.03665,14.72229 2.53417,9.75228 2.43897,19.98821 -0.27313,29.3673 -0.92225,3.18933 -1.67681,7.63622 -1.67681,9.88197 0,2.24574 -0.84524,5.48629 -1.87832,7.20121 -1.03307,1.71491 -2.18802,4.85648 -2.56655,6.98126 -0.96907,5.43957 -5.3362,14.26399 -8.74721,17.67501 -3.63161,3.6316 -7.72648,4.40013 -19.36967,3.63532 -9.91576,-0.65134 -10.37953,-0.44523 -10.48162,4.65823 -0.076,3.79737 -4.47896,10.07796 -9.04084,12.89615 -2.42869,1.50037 -7.8103,3.57227 -11.95914,4.60422 -4.14884,1.03195 -8.50574,2.39134 -9.68201,3.02086 -2.56741,1.37403 -18.59354,2.0006 -26.27464,1.02725 z m 32.3635,-5.81643 c 0.47492,-0.0351 0.66536,-1.41384 0.42319,-3.06384 -0.483,-3.29089 1.10989,-4.03447 3.21331,-1.5 1.22027,1.47033 5,2.12063 5,0.86024 0,-0.35186 -0.72401,-1.16916 -1.60891,-1.81621 -1.34728,-0.98516 -1.58391,-3.23894 -1.45523,-13.86025 l 0.15368,-12.68378 h -6.48575 c -4.09046,0 -6.78454,0.46165 -7.29477,1.25 -0.44496,0.6875 -0.81018,6.425 -0.8116,12.75 -10e-4,6.325 -0.36548,12.0625 -0.80902,12.75 -0.4617,0.71565 -0.36187,1.25 0.23353,1.25 0.57198,0 1.3085,1.06993 1.63671,2.37762 0.49546,1.97406 1.13519,2.32436 3.76905,2.06384 1.74477,-0.17258 3.56088,-0.34251 4.03581,-0.37762 z m 2.71943,-36.61509 c 0.50439,-0.31173 0.91707,-2.54484 0.91707,-4.96245 0,-4.17036 -0.16712,-4.42703 -3.26041,-5.00733 -6.98637,-1.31065 -11.08042,2.86418 -8.76946,8.94248 1.02606,2.69873 1.3129,2.8116 5.63839,2.21873 2.50654,-0.34356 4.97002,-0.8797 5.47441,-1.19143 z m 6.91707,-2.94875 c 0,-0.825 -0.45,-1.5 -1,-1.5 -0.55,0 -1,0.675 -1,1.5 0,0.825 0.45,1.5 1,1.5 0.55,0 1,-0.675 1,-1.5 z m 8.5,-4.5 c 0.33992,-0.55 -0.11008,-1 -1,-1 -0.88992,0 -1.33992,0.45 -1,1 0.33992,0.55 0.78992,1 1,1 0.21008,0 0.66008,-0.45 1,-1 z m -94.2737,-12.9127 c 0.73684,-1.05199 3.01235,-2.71033 5.0567,-3.68521 4.47617,-2.13454 5.16503,-4.96147 0.967,-3.96834 -8.0701,1.90915 -13.25,3.74025 -13.25,4.68389 0,1.09351 3.95872,4.78985 5.1933,4.84909 0.38131,0.0183 1.29616,-0.82745 2.033,-1.87943 z m 120.08661,-14.89202 c 2.02831,-2.1171 2.68709,-3.81574 2.68709,-6.92857 0,-2.26812 0.65027,-4.77412 1.44505,-5.5689 1.25728,-1.25729 1.26023,-2.6753 0.0226,-10.91345 -0.78231,-5.20762 -2.10481,-10.77699 -2.93888,-12.37638 -0.83408,-1.59939 -1.51927,-4.6096 -1.52266,-6.68936 -0.004,-2.54056 -0.53149,-3.98298 -1.60708,-4.39572 -2.06924,-0.79404 -3.19012,1.09311 -3.9659,6.6771 -0.34385,2.475 -1.5534,7.425 -2.6879,11 -2.33418,7.35541 -2.7087,24.30365 -0.62451,28.26168 2.42156,4.59873 5.39171,4.90039 9.19214,0.9336 z m -49.84763,-54.1468 c -1.11909,-0.45362 -2.69409,-1.62263 -3.5,-2.59781 -1.35931,-1.64484 -1.24832,-1.72558 1.53472,-1.11651 1.65,0.36111 6.15,0.96043 10,1.33183 6.80864,0.65682 6.91799,0.71038 4,1.95954 -3.39585,1.45372 -9.00537,1.65086 -12.03472,0.42295 z m -0.96528,-13.02446 c -5.04615,-1.29729 -8.5,-2.92234 -8.5,-3.99927 0,-0.56361 0.8449,-1.02475 1.87755,-1.02475 1.03266,0 2.30162,-0.5625 2.81991,-1.25 1.29939,-1.7236 8.20016,-18.79151 9.47968,-23.44643 1.74566,-6.35074 5.36277,-7.45873 4.32653,-1.3253 -1.32319,7.83187 1.6958,13.04536 6.64465,11.47466 2.92579,-0.92861 9.69547,-7.25018 11.49901,-10.73784 0.83483,-1.61437 1.03069,-2.63413 0.43527,-2.26614 -0.59543,0.368 -1.6451,0.31921 -2.3326,-0.10841 -0.6875,-0.42763 -4.3037,-0.63804 -8.03599,-0.4676 l -6.78599,0.30991 0.28599,-10.34143 c 0.28111,-10.16488 0.32844,-10.34741 2.77289,-10.69202 2.82959,-0.3989 7.0239,-3.07488 11.76505,-7.50613 1.99818,-1.86757 3.59371,-2.67386 4.1384,-2.09132 0.50562,0.54075 0.53532,4.81462 0.0691,9.94805 -1.33774,14.73043 -1.19785,19.5 0.57191,19.5 4.56666,0 2.0233,5.71912 -5.95103,13.3818 -5.29395,5.08706 -5.09493,6.90242 0.50253,4.58387 1.63969,-0.67918 3.22287,-0.99326 3.51818,-0.69794 0.29531,0.29531 0.01,4.14038 -0.63395,8.54461 -0.99897,6.83198 -1.48627,8.0923 -3.31899,8.58402 -3.05945,0.82084 -21.57317,0.54673 -25.14812,-0.37234 z m 7.94026,-18.40602 c -0.36139,-1.4399 -1.05829,-2.618 -1.54867,-2.618 -1.3776,0 -1.05342,4.77554 0.35841,5.27976 1.77654,0.63448 1.93092,0.28925 1.19026,-2.66176 z m -6.69026,-43.73309 c -4.85242,-3.62031 -3.58823,-4.38491 7.25,-4.38491 11.02719,0 12.51631,0.99517 6.75,4.51096 -4.24767,2.58986 -10.43444,2.53415 -14,-0.12605 z m 45.67266,-3.63491 c 1.85747,-10.17837 1.83112,-10.63779 -0.83404,-14.54441 -1.42374,-2.08693 -2.65198,-4.56192 -2.72942,-5.5 -0.0774,-0.93807 -0.45511,0.76941 -0.83927,3.79441 -0.58593,4.61379 -0.40212,5.78825 1.1408,7.28895 1.0116,0.98393 1.83927,2.44643 1.83927,3.25 0,1.63643 -2.09581,1.95241 -3.55,0.53522 -0.58562,-0.57072 -2.45684,-0.18716 -4.87856,1 -2.16071,1.05921 -4.25539,1.92583 -4.65484,1.92583 -0.39946,0 -0.48207,-1.9125 -0.18359,-4.25 l 0.54271,-4.25 -2.45231,2.25 c -3.26576,2.99634 -5.63093,2.8651 -6.43971,-0.35734 -0.62894,-2.5059 1.042,-4.86563 2.71377,-3.83242 0.86607,0.53526 1.90253,-2.06032 1.90253,-4.76447 0,-1.78483 -0.20732,-1.8686 -1.65369,-0.66822 -0.90954,0.75485 -1.92204,1.37245 -2.25,1.37245 -0.32797,0 -0.59822,0.63813 -0.60055,1.41808 -0.0102,3.41444 -6.85637,1.57934 -8.62995,-2.31325 -0.61028,-1.33943 -1.96328,-2.65856 -3.00667,-2.93142 -1.63941,-0.42871 -1.74112,-0.83833 -0.74891,-3.016 1.42559,-3.12882 9.469,-5.48815 12.74074,-3.73717 3.19918,1.71215 4.36004,1.3364 3.61544,-1.17024 -1.59616,-5.37339 -6.03433,-6.00447 -15.41655,-2.19213 -7.31002,2.97032 -13.73251,3.57364 -15.06644,1.4153 -0.71688,-1.15993 -1.15292,-1.20367 -2.14178,-0.21481 -0.6829,0.6829 -2.27664,1.24164 -3.54164,1.24164 -4.13061,0 -2.41351,1.60522 1.81662,1.69825 8.01128,0.17621 10.57269,7.31479 3.83133,10.67783 -3.63677,1.81426 -5.77905,1.19835 -6.9998,-2.01247 -1.50683,-3.96326 -3.20781,-2.85997 -2.45553,1.59272 0.6034,3.57147 -0.0429,7.05367 -2.51386,13.54367 -0.69432,1.82366 -0.86717,1.73549 -1.96051,-1 -0.8343,-2.08741 -1.06492,-8.17136 -0.75811,-20 0.40352,-15.55696 0.67263,-17.59419 3.17023,-24 1.50111,-3.85 3.63397,-8.46882 4.7397,-10.26405 4.23322,-6.872923 16.08488,-12.235951 27.04003,-12.235951 3.82394,0 4.7899,-0.339662 4.7899,-1.684276 0,-3.169472 -4.17725,-10.316171 -7.83979,-13.412804 -2.42593,-2.05109 -2.98578,-2.909736 -1.66021,-2.546278 1.1,0.301611 3.24029,0.844236 4.7562,1.205834 1.51591,0.361598 4.74627,2.870895 7.17859,5.576216 l 4.42239,4.918765 3.32141,-2.02499 c 1.89743,-1.156823 5.03632,-2.017178 7.32141,-2.006767 6.41902,0.02924 16.5,5.313884 16.5,8.649611 0,1.043519 -0.93343,0.889135 -3.96016,-0.654987 -2.17809,-1.111178 -5.21559,-2.005881 -6.75,-1.988228 -2.41095,0.02774 -2.04288,0.401217 2.71016,2.75 8.71891,4.308575 12.6517,12.272815 13.68725,27.717905 0.43861,6.54188 0.15146,9.08727 -1.57544,13.96534 -1.16149,3.28094 -2.11181,7.01578 -2.11181,8.29966 0,2.74877 2.21816,7.34124 4.43406,9.18028 4.23879,3.51788 -0.2479,5.56219 -4.63453,2.11167 l -2.47019,-1.94305 -1.679,5.32641 c -2.85803,9.0667 -8.6324,14.50713 -7.22768,6.80969 z m -42.42266,-4.25 c 0,-0.55 0.675,-1 1.5,-1 0.825,0 1.5,0.45 1.5,1 0,0.55 -0.675,1 -1.5,1 -0.825,0 -1.5,-0.45 -1.5,-1 z m -14.27745,-2.61078 c -0.3974,-0.39741 -0.72255,-1.80555 -0.72255,-3.12921 0,-1.70911 0.4832,-2.31295 1.66713,-2.08334 0.91693,0.17783 1.82299,0.79153 2.01348,1.36377 0.47705,1.43308 -2.06554,4.74129 -2.95806,3.84878 z"
         id="path1256"
         inkscape:connector-curvature="0" />
      <path
         style="fill:#f8b73c"
         d="m 204.16586,370.70536 c -11.84579,-1.8914 -18.24671,-3.66922 -20.18331,-5.60582 -1.63427,-1.63427 -1.62214,-1.80159 0.22881,-3.15813 1.75234,-1.28428 2.03274,-1.22276 2.71094,0.59473 0.50071,1.34186 1.30431,1.81694 2.37706,1.40529 0.95919,-0.36808 2.17585,0.0994 2.98105,1.14548 1.27908,1.66167 1.47606,1.61961 3.29379,-0.70342 l 1.93334,-2.47078 1.23968,2.72078 c 1.42774,3.13356 2.56818,3.35499 5.76114,1.11856 2.02052,-1.41524 2.42581,-1.42824 3.4725,-0.1114 0.65175,0.81996 2.83777,1.77984 4.85783,2.13307 3.19384,0.55848 3.76377,0.35569 4.37019,-1.55499 l 0.69737,-2.19722 1.7855,2.3671 c 1.5052,1.99548 2.03052,2.16375 3.34618,1.07184 0.85838,-0.71239 2.13832,-1.08852 2.84431,-0.83584 0.70599,0.25268 2.04381,0.069 2.97293,-0.40816 1.02002,-0.52385 1.9355,-0.46924 2.31069,0.13783 0.37519,0.60707 1.29067,0.66168 2.31069,0.13783 0.92912,-0.47717 2.26694,-0.66084 2.97293,-0.40816 1.84872,0.66166 4.21107,-1.61946 4.24818,-4.10211 0.0296,-1.98149 0.12301,-2.00741 1.36025,-0.37756 1.64129,2.16213 7.18871,2.32156 8.35356,0.24008 0.72352,-1.29286 1.11498,-1.31251 2.723,-0.13669 1.73089,1.26566 1.45318,1.5301 -3.5453,3.37582 -2.98282,1.10142 -7.20776,2.32651 -9.38876,2.72242 -2.18099,0.39591 -5.19563,1.35598 -6.69918,2.13351 -3.73449,1.93117 -19.46514,2.3419 -29.33537,0.76594 z m 10.19098,-4.10108 c -0.44496,-0.6875 -1.85931,-1.25 -3.14301,-1.25 -1.2837,0 -2.59905,-0.69074 -2.92302,-1.53497 -0.52438,-1.36652 -0.94147,-1.35271 -3.80075,0.12588 -3.16801,1.63824 -3.24161,1.62337 -5.40718,-1.09252 -2.17954,-2.73339 -4.41702,-2.70269 -4.41702,0.0606 0,2.1534 -1.68901,1.7382 -2.29083,-0.56315 -0.3587,-1.37168 -1.04547,-1.80405 -2.17629,-1.37012 -1.14898,0.44091 -1.82183,-0.0147 -2.20917,-1.49587 -0.64107,-2.45147 -3.11231,-2.84434 -3.96208,-0.62988 -0.80457,2.09666 -2.10987,1.86859 -2.86163,-0.5 -0.35104,-1.10602 -1.51303,-2 -2.59961,-2 -2.73739,0 -3.72536,-3.23222 -3.66796,-12 0.0847,-12.94405 0.14062,-12.73941 -4.23243,-15.5 -2.47791,-1.56423 -4,-3.28136 -4,-4.51254 0,-2.3355 -0.18351,-2.29599 3.95816,-0.8522 3.6123,1.25925 4.99776,0.22511 5.02653,-3.75193 0.0116,-1.602 -1.20046,-2.62193 -4.98469,-4.19459 l -5,-2.0779 v 2.94458 c 0,1.61952 -0.36173,2.94458 -0.80383,2.94458 -1.05813,0 -6.38219,-5.76728 -8.53913,-9.25 -0.93673,-1.5125 -2.50277,-2.75 -3.48009,-2.75 -4.09976,0 -5.63892,-5.36696 -2.38394,-8.31268 0.98615,-0.89245 4.6675,-2.35906 8.18076,-3.25911 7.52776,-1.92852 12.53518,-0.94896 16.38769,3.20581 l 2.37045,2.55642 13.38405,-1.24175 c 16.01415,-1.48577 44.92209,-0.67845 58.88404,1.64447 5.225,0.86932 10.85,1.77323 12.5,2.00871 2.95248,0.42135 2.9604,0.4106 0.5,-0.67897 -5.5092,-2.43972 -23.52645,-4.9229 -35.71908,-4.9229 -9.08012,0 -13.15788,-0.40213 -15.29753,-1.50859 l -2.91728,-1.50858 0.57329,-12.74142 c 0.51842,-11.52181 0.37378,-13.17215 -1.51109,-17.24141 -1.14641,-2.475 -2.1287,-4.275 -2.18286,-4 -0.0542,0.275 -0.24684,1.27127 -0.42818,2.21393 -0.18135,0.94266 -1.27416,3.04029 -2.42849,4.6614 -2.67383,3.75503 -5.72556,3.52878 -10.64334,-0.78909 -3.43794,-3.01855 -3.71992,-3.09688 -5.01235,-1.39236 -0.75322,0.99336 -1.3838,2.31521 -1.40129,2.93743 -0.0397,1.41096 -5.91642,5.96569 -8.56394,6.63741 -1.43006,0.36283 -1.52148,0.53098 -0.33449,0.61528 2.06184,0.14643 2.92114,3.24414 1.58782,5.72397 -0.77999,1.45069 -0.3451,1.30887 1.86439,-0.60797 4.62776,-4.01482 7.07286,-6.66753 7.73418,-8.39091 0.33961,-0.885 1.19409,-1.59412 1.89885,-1.57582 1.95766,0.0508 5.43759,3.30814 6.24203,5.84272 0.57005,1.79608 0.278,2.3796 -1.41225,2.82161 -1.2264,0.32071 -2.03207,1.24599 -1.89802,2.17982 0.70387,4.90341 -4.33323,10.12258 -9.76945,10.12258 -4.44261,0 -10.43313,-5.02724 -8.60926,-7.22487 0.97107,-1.17006 0.71749,-1.90642 -1.31362,-3.81455 -1.38434,-1.30052 -2.30983,-2.90444 -2.05663,-3.56426 0.27842,-0.72555 -0.88118,-1.45135 -2.93415,-1.83648 -2.86345,-0.53719 -3.55577,-1.21746 -4.42531,-4.34833 -1.43128,-5.15349 -1.40912,-5.21151 1.99017,-5.21151 7.03589,0 12.88578,-4.65623 15.08908,-12.0102 0.87801,-2.93054 1.52684,-3.63309 2.99958,-3.24797 1.38932,0.36332 1.87922,-0.045 1.87922,-1.56618 0,-1.13169 -0.41559,-2.31447 -0.92354,-2.6284 -2.29097,-1.41589 -4.30702,-12.01441 -6.53898,-34.37579 -1.32622,-13.28707 -2.65974,-24.56027 -2.96339,-25.05157 -0.30364,-0.4913 0.15227,-1.47783 1.01314,-2.19228 2.2432,-1.8617 3.38007,0.34203 3.39058,6.57239 0.0122,7.22148 3.11627,35.85432 3.98989,36.80362 0.40675,0.442 2.39834,0.0126 4.42575,-0.9542 2.92775,-1.39615 4.26839,-1.53808 6.51572,-0.68981 3.19515,1.20604 10.23978,0.39353 10.78562,-1.24398 0.22394,-0.67182 -0.77997,-0.90997 -2.66787,-0.63289 -3.25465,0.47768 -3.76812,-0.52927 -1.97675,-3.87649 0.5776,-1.07925 1.51082,-1.67757 2.07383,-1.32962 0.56301,0.34796 0.453,-0.28109 -0.24445,-1.39789 -1.57175,-2.51677 0.19183,-7.17874 2.71564,-7.17874 1.12452,0 1.48024,-0.60356 1.13463,-1.92518 -0.35479,-1.35672 -0.0906,-1.76676 0.89471,-1.38866 0.96636,0.37083 1.20628,0.0365 0.77686,-1.08254 -0.34171,-0.89048 0.12189,-2.7533 1.03022,-4.13959 0.90833,-1.38628 1.38248,-2.95582 1.05366,-3.48786 -0.78377,-1.26817 4.21042,-5.86169 7.18456,-6.60815 1.27913,-0.32104 3.1142,-0.23921 4.07793,0.18185 0.96373,0.42106 2.36,0.66447 3.10283,0.54091 1.06327,-0.17686 1.24985,1.2559 0.87707,6.73502 -0.43181,6.34669 -0.88827,7.54089 -5.18262,13.55887 -4.44238,6.22545 -6.83783,8.62921 -11.18346,11.22227 -1.72282,1.02801 -1.61503,1.30892 1.51195,3.9401 3.22548,2.71406 3.34392,3.05717 2.81714,8.16114 -0.66555,6.44851 -3.66224,11.62319 -7.69951,13.29548 -2.70397,1.12002 -4.11333,3.00193 -2.24116,2.9926 1.64812,-0.008 7.18868,-4.01316 8.22136,-5.94275 1.55871,-2.91247 5.78176,-2.63075 14.18816,0.94649 8.33818,3.54821 8.48459,3.55635 16.84048,0.93531 10.3615,-3.25015 20.45643,-2.54719 25.21092,1.75557 2.81941,2.55153 4.57951,0.86279 5.85432,-5.61697 0.65311,-3.31967 1.58061,-5.79279 2.06111,-5.49582 1.33188,0.82315 0.97654,-1.77413 -0.62635,-4.57809 -0.78602,-1.375 -1.44508,-3.49838 -1.46456,-4.71862 -0.0221,-1.38178 -0.51774,-2.03353 -1.31413,-1.72793 -0.70329,0.26987 -2.08684,-0.10025 -3.07457,-0.8225 -1.68504,-1.23213 -1.63699,-1.39821 0.77869,-2.69104 2.4567,-1.31479 2.57457,-1.76777 2.57457,-9.89444 0,-7.41446 0.29117,-8.84451 2.25,-11.05076 1.2728,-1.43357 1.47946,-1.94255 0.47583,-1.17195 -2.54813,1.95651 -3.12139,0.74284 -1.30668,-2.76642 1.97314,-3.81563 3.15111,-4.54158 7.90221,-4.86986 4.48184,-0.30967 8.66995,1.61571 11.59034,5.3284 2.66789,3.39167 2.6326,4.36602 -0.1617,4.46407 -1.2375,0.0434 -1.71217,0.2977 -1.05482,0.56506 0.81719,0.33237 1.00947,2.05414 0.60797,5.44417 -0.50079,4.22838 -0.35705,4.86973 0.97668,4.35793 2.26533,-0.86929 5.72017,1.29842 5.72017,3.58907 0,1.08065 -0.48214,1.96482 -1.07143,1.96482 -0.58928,0 -0.36428,0.70714 0.5,1.57143 1.79898,1.79898 2.20609,10.42857 0.49197,10.42857 -1.51332,0 -0.0488,6.28438 1.70116,7.29969 0.75806,0.43983 1.3783,1.48028 1.3783,2.3121 0,0.83183 0.73208,3.75063 1.62685,6.48623 0.97256,2.97342 1.413,6.56819 1.09513,8.93812 -0.29245,2.18037 -0.19135,3.75395 0.22467,3.49683 0.81512,-0.50377 2.19159,3.71397 4.06866,12.46703 1.45076,6.76511 0.87522,17.57897 -1.34647,25.29879 -0.91786,3.18933 -1.66884,7.63622 -1.66884,9.88197 0,2.24574 -0.84524,5.48629 -1.87832,7.20121 -1.03307,1.71491 -2.18802,4.85648 -2.56655,6.98126 -0.96907,5.43957 -5.3362,14.26399 -8.74721,17.67501 -3.63722,3.63721 -7.72577,4.40018 -19.45187,3.62992 -9.07029,-0.59581 -9.34439,-0.55071 -9.78118,1.60943 -0.24716,1.22232 -0.6949,3.395 -0.99498,4.82818 -0.75961,3.62792 -7.42917,8.01468 -9.8798,6.49822 -1.44518,-0.89428 -2.11303,-0.6717 -3.51578,1.17173 -1.5096,1.98383 -1.96709,2.1036 -3.56692,0.93378 -1.6286,-1.19087 -1.8179,-2.7698 -1.68153,-14.02572 l 0.15368,-12.68378 h -6.48575 c -4.09046,0 -6.78454,0.46165 -7.29477,1.25 -0.44496,0.6875 -0.84146,6.425 -0.88111,12.75 -0.0783,12.49483 -1.22957,17 -4.34414,17 -1.08116,0 -2.24385,0.45 -2.58377,1 -1.0025,1.62209 -2.07513,1.16239 -3.5,-1.5 -1.85914,-3.47383 -3.81314,-3.12379 -4.18664,0.75 -0.2019,2.09396 -0.60113,2.80537 -1.12238,2 z m 27.39195,-37.80125 c 0.50439,-0.31173 0.91707,-2.54484 0.91707,-4.96245 0,-4.17036 -0.16712,-4.42703 -3.26041,-5.00733 -6.98637,-1.31065 -11.08042,2.86418 -8.76946,8.94248 1.02606,2.69873 1.3129,2.8116 5.63839,2.21873 2.50654,-0.34356 4.97002,-0.8797 5.47441,-1.19143 z m 6.91707,-2.94875 c 0,-0.825 -0.45,-1.5 -1,-1.5 -0.55,0 -1,0.675 -1,1.5 0,0.825 0.45,1.5 1,1.5 0.55,0 1,-0.675 1,-1.5 z m 8.5,-4.5 c 0.33992,-0.55 -0.11008,-1 -1,-1 -0.88992,0 -1.33992,0.45 -1,1 0.33992,0.55 0.78992,1 1,1 0.21008,0 0.66008,-0.45 1,-1 z m -73.48745,-6.4477 c -1.3681,-0.75726 -2.87864,-1.13506 -3.35676,-0.83956 -1.20114,0.74234 1.40921,2.26101 3.84421,2.23651 1.77052,-0.0178 1.71459,-0.1781 -0.48745,-1.39695 z m 37.2772,-5.5523 c 0.30728,-1.17503 0.0307,-2 -0.67056,-2 -0.65647,0 -1.26138,0.9 -1.34424,2 -0.0829,1.1 0.2189,2 0.67057,2 0.45167,0 1.05657,-0.9 1.34423,-2 z m -58.06345,-0.9127 c 0.73684,-1.05199 3.01235,-2.71033 5.0567,-3.68521 4.47617,-2.13454 5.16503,-4.96147 0.967,-3.96834 -8.0701,1.90915 -13.25,3.74025 -13.25,4.68389 0,1.09351 3.95872,4.78985 5.1933,4.84909 0.38131,0.0183 1.29616,-0.82745 2.033,-1.87943 z m 107.7737,-8.31673 c 0,-0.58531 -0.63541,-0.48812 -1.5,0.22943 -0.825,0.68469 -1.5,1.40067 -1.5,1.59106 0,0.19039 0.675,0.0872 1.5,-0.22943 0.825,-0.31659 1.5,-1.03256 1.5,-1.59106 z m 33,-3.40249 c 0,-0.89756 -1.60704,-3.14756 -3.5712,-5 -2.94829,-2.7806 -4.3001,-3.3494 -7.75,-3.26099 l -4.1788,0.10709 4.3084,0.96331 c 2.38933,0.53423 4.58847,1.69317 4.93718,2.60188 0.5158,1.34415 5.10598,6.07546 6.00442,6.18903 0.1375,0.0174 0.25,-0.70277 0.25,-1.60032 z m -19.5,-3.36808 c 2.14824,-2.2 3.36457,-4 2.70295,-4 -0.66162,0 -1.20295,-0.675 -1.20295,-1.5 0,-0.825 0.45,-1.5 1,-1.5 0.55,0 1,-0.47656 1,-1.05902 0,-0.58246 -0.45,-0.7809 -1,-0.44098 -1.15295,0.71257 -1.32693,-1.51255 -0.23469,-3.00159 0.40408,-0.55088 2.05155,-1.67588 3.66105,-2.5 l 2.92637,-1.49841 -2.79458,-0.32783 c -2.58114,-0.30279 -2.75216,-0.58919 -2.23923,-3.75 0.30544,-1.88219 0.13363,-3.42217 -0.38179,-3.42217 -0.51542,0 -0.93713,-0.675 -0.93713,-1.5 0,-0.825 0.41373,-1.5 0.91939,-1.5 1.34111,0 -0.86528,-7.34617 -2.48602,-8.27719 -1.67356,-0.96136 -2.92575,-7.12194 -1.81061,-8.90792 1.62208,-2.59787 1.19108,-3.81489 -1.351,-3.81489 -1.4032,0 -3.05088,-0.68065 -3.66152,-1.51255 -0.86451,-1.17778 -1.15987,-0.17731 -1.33447,4.52037 -0.12333,3.3181 -1.41378,10.39935 -2.86767,15.73611 -2.24138,8.22736 -2.54187,10.84795 -1.97564,17.22963 0.36729,4.13954 1.16648,9.21394 1.77596,11.27644 1.54854,5.24027 5.01264,5.15612 10.29158,-0.25 z m 15.18933,-34.75 c -0.25153,-0.9625 -0.45733,-0.175 -0.45733,1.75 0,1.925 0.2058,2.7125 0.45733,1.75 0.25152,-0.9625 0.25152,-2.5375 0,-3.5 z m -4.68933,-13.25 c 0,-0.55 -0.47656,-1 -1.05902,-1 -0.58246,0 -0.7809,0.45 -0.44098,1 0.33992,0.55 0.81648,1 1.05902,1 0.24254,0 0.44098,-0.45 0.44098,-1 z m -12,-1.44098 c 0,-0.24254 -0.45,-0.7191 -1,-1.05902 -0.55,-0.33992 -1,-0.14148 -1,0.44098 0,0.58246 0.45,1.05902 1,1.05902 0.55,0 1,-0.19844 1,-0.44098 z m 12.33658,-10.44387 c -1.00504,-0.89079 -1.2649,-0.96486 -0.57944,-0.16515 0.68357,0.7975 1.31028,2.8225 1.39269,4.5 l 0.14983,3.05 0.42961,-2.88485 c 0.2892,-1.94205 -0.16594,-3.4127 -1.39269,-4.5 z M 176.10699,360.91078 c -1.83617,-1.36545 -1.78315,-1.43221 0.98063,-1.23473 1.60696,0.11483 3.10696,0.7644 3.33333,1.4435 0.55987,1.6796 -1.93709,1.55876 -4.31396,-0.20877 z m 56.05887,-122.29992 c -3.89696,-2.16067 -2.07136,-2.51101 7.5,-1.4393 6.99727,0.78348 7.3113,0.9183 4.6849,2.01125 -3.8973,1.62182 -8.6288,1.39972 -12.1849,-0.57195 z m 0.5,-11.94222 c -1.375,-0.28379 -2.81866,-1.02919 -3.20812,-1.65643 -0.38947,-0.62725 -1.28947,-1.18834 -2,-1.24687 -3.25991,-0.26856 -3.79188,-0.48245 -3.79188,-1.52456 0,-0.66505 1.19207,-0.93854 2.95988,-0.67908 2.5827,0.37906 3.03912,0.0736 3.58171,-2.39679 0.34201,-1.55716 1.28887,-3.49823 2.10413,-4.3135 1.30973,-1.30972 1.85321,-1.28255 4.66829,0.23342 2.39061,1.28738 5.68249,1.72242 13.18599,1.74258 l 10,0.0269 -0.16108,3.37537 c -0.27356,5.73207 -2.02171,6.57144 -14.10946,6.77463 -5.9012,0.0992 -11.85446,-0.0519 -13.22946,-0.33567 z m 10.94558,-14.06436 c -0.55271,-1.5125 -1.15927,-3.2 -1.34793,-3.75 -0.19784,-0.57678 1.71921,-1 4.52967,-1 2.67997,0 4.871,0.225 4.86894,0.5 -0.002,0.275 -0.89544,1.9625 -1.9853,3.75 -2.42282,3.97372 -4.7266,4.16363 -6.06538,0.5 z M 175.86953,177.3088 c -0.67134,-1.07499 -0.81495,-1.95452 -0.31913,-1.95452 0.89777,0 2.44391,3.00488 1.85114,3.59765 -0.17126,0.17127 -0.86067,-0.56814 -1.53201,-1.64313 z m 62.95131,-13.83758 c -1.78722,-1.13268 2.9662,-2.39141 5.44244,-1.44118 1.62825,0.62481 1.61581,0.72903 -0.17053,1.42882 -2.59865,1.01801 -3.68114,1.02054 -5.27191,0.0124 z m 39.84502,-0.54065 c 0,-0.78304 0.50039,-3.59554 1.11197,-6.25 0.98096,-4.25767 0.82878,-5.65101 -1.29168,-11.82629 -1.87433,-5.45851 -2.83396,-7 -4.35775,-7 -1.6376,0 -2.07669,0.97182 -2.71092,6 -0.41956,3.32631 -0.34513,7.19123 0.16701,8.67324 0.72626,2.10157 0.58413,2.80359 -0.66463,3.28278 -2.54224,0.97555 -3.71342,-1.13712 -3.73442,-6.73644 -0.0181,-4.81186 -0.19533,-5.20097 -2.26958,-4.98137 -1.67049,0.17686 -2.25,-0.28294 -2.25,-1.78518 0,-1.80134 -0.24693,-1.88648 -2.25,-0.77576 -1.2375,0.6862 -2.60002,1.14786 -3.02783,1.02591 -0.4278,-0.12195 -1.03745,0.45486 -1.35478,1.2818 -0.31733,0.82694 -0.94871,1.27378 -1.40308,0.99296 -0.45436,-0.28081 -1.10877,-0.0532 -1.45423,0.50575 -1.24228,2.01006 -3.52428,0.94849 -5.8765,-2.73369 -3.02495,-4.73528 -2.09171,-6.82786 3.46366,-7.76643 3.38498,-0.57189 4.66195,-0.2984 7.13142,1.52736 2.43978,1.80381 3.17156,1.96564 3.8732,0.85653 0.87822,-1.38822 0.23889,-7.13186 -1.09836,-9.86746 -0.40328,-0.825 -0.53222,-2.06049 -0.28653,-2.74554 0.55373,-1.54391 -2.5918,-11.25446 -3.64565,-11.25446 -1.1425,0 -4.24659,8.44158 -3.22883,8.78083 0.48064,0.16021 1.7252,0.93576 2.7657,1.72343 1.73365,1.3124 1.5156,1.43663 -2.60819,1.4859 -2.475,0.0296 -6.3522,0.89488 -8.616,1.92291 -4.15418,1.8865 -10.384,3.5901 -10.384,2.83961 0,-0.22343 2.025,-2.61187 4.5,-5.30766 3.90015,-4.24807 5.62424,-7.44502 4.01502,-7.44502 -1.3228,0 -10.70566,6.43408 -11.92818,8.17948 -0.96815,1.38222 -2.70415,2.0676 -5.61614,2.21728 -6.34651,0.3262 -6.96803,1.7981 -6.98601,16.54437 -0.0162,13.29473 -1.03052,17.69873 -2.92727,12.70988 -1.15099,-3.02731 -1.44482,-26.54547 -0.42465,-33.9884 0.37871,-2.76304 1.04298,-4.36301 1.65451,-3.98507 0.58969,0.36446 0.71664,0.13782 0.30022,-0.53597 -0.8249,-1.33471 2.58203,-11.04731 5.57928,-15.90562 4.24156,-6.875228 16.08958,-12.235951 27.04332,-12.235951 3.82394,0 4.7899,-0.339662 4.7899,-1.684276 0,-3.169472 -4.17725,-10.316171 -7.83979,-13.412804 -2.42593,-2.05109 -2.98578,-2.909736 -1.66021,-2.546278 1.1,0.301611 3.24029,0.844236 4.7562,1.205834 1.51591,0.361598 4.74627,2.870895 7.17859,5.576216 l 4.42239,4.918765 3.32141,-2.02499 c 1.89743,-1.156823 5.03632,-2.017178 7.32141,-2.006767 6.41902,0.02924 16.5,5.313884 16.5,8.649611 0,1.043519 -0.93343,0.889135 -3.96016,-0.654987 -2.17809,-1.111178 -5.21559,-2.005881 -6.75,-1.988228 -2.41095,0.02774 -2.04288,0.401217 2.71016,2.75 8.71891,4.308575 12.6517,12.272815 13.68725,27.717905 0.43861,6.54188 0.15146,9.08727 -1.57544,13.96534 -1.16149,3.28094 -2.11181,7.01578 -2.11181,8.29966 0,2.74877 2.21816,7.34124 4.43406,9.18028 4.23879,3.51788 -0.2479,5.56219 -4.63453,2.11167 l -2.47019,-1.94305 -1.679,5.32641 c -2.33532,7.40849 -7.65034,13.75564 -7.65034,9.13598 z m -62.2702,-35.30399 c -0.21648,-2.07476 -0.39722,-0.6223 -0.40166,3.2277 -0.004,3.85 0.17268,5.54754 0.39359,3.7723 0.22091,-1.77523 0.22454,-4.92523 0.008,-7 z M 230.51149,112.517 c 1.4599,-1.0105 3.50628,-2.14609 4.5475,-2.52353 1.04122,-0.37745 1.64026,-0.93913 1.33121,-1.24818 -0.73769,-0.73769 -7.30288,2.39624 -8.80079,4.2011 -1.6275,1.96103 -0.23602,1.75655 2.92208,-0.42939 z m 43.26448,42.46996 c -0.86554,-1.04292 -0.75788,-1.68011 0.45377,-2.6857 1.3221,-1.09724 1.74093,-1.07757 2.49702,0.11732 2.14311,3.38685 -0.42,5.61778 -2.95079,2.56838 z m -47.61719,-9.62123 c 0.34596,-0.55976 -0.0405,-0.73857 -0.89089,-0.41223 -2.10369,0.80726 -5.10613,-6.2869 -3.48665,-8.23825 1.66639,-2.00787 6.59199,-1.6536 8.88462,0.63903 2.92696,2.92696 2.51204,5.59808 -1.15364,7.42676 -3.68327,1.83745 -4.18136,1.9243 -3.35344,0.58469 z"
         id="path1254"
         inkscape:connector-curvature="0" />
      <path
         style="fill:#a2a1a1"
         d="m 214.35684,366.60428 c -0.44496,-0.6875 -1.85931,-1.25 -3.14301,-1.25 -1.2837,0 -2.59905,-0.69074 -2.92302,-1.53497 -0.52438,-1.36652 -0.94147,-1.35271 -3.80075,0.12588 -3.16801,1.63824 -3.24161,1.62337 -5.40718,-1.09252 -2.17954,-2.73339 -4.41702,-2.70269 -4.41702,0.0606 0,2.1534 -1.68901,1.7382 -2.29083,-0.56315 -0.3587,-1.37168 -1.04547,-1.80405 -2.17629,-1.37012 -1.14898,0.44091 -1.82183,-0.0147 -2.20917,-1.49587 -0.64107,-2.45147 -3.11231,-2.84434 -3.96208,-0.62988 -0.80457,2.09666 -2.10987,1.86859 -2.86163,-0.5 -0.35104,-1.10602 -1.51303,-2 -2.59961,-2 -2.73739,0 -3.72536,-3.23222 -3.66796,-12 0.0847,-12.94405 0.14062,-12.73941 -4.23243,-15.5 -2.47791,-1.56423 -4,-3.28136 -4,-4.51254 0,-2.3355 -0.18351,-2.29599 3.95816,-0.8522 3.6123,1.25925 4.99776,0.22511 5.02653,-3.75193 0.0116,-1.602 -1.20046,-2.62193 -4.98469,-4.19459 l -5,-2.0779 v 2.94458 c 0,1.61952 -0.36173,2.94458 -0.80383,2.94458 -1.05813,0 -6.38219,-5.76728 -8.53913,-9.25 -0.93673,-1.5125 -2.50277,-2.75 -3.48009,-2.75 -4.09976,0 -5.63892,-5.36696 -2.38394,-8.31268 0.98615,-0.89245 4.6675,-2.35906 8.18076,-3.25911 7.52776,-1.92852 12.53518,-0.94896 16.38769,3.20581 l 2.37045,2.55642 13.38405,-1.24175 c 20.80482,-1.93024 51.17992,-0.49629 67.63116,3.19274 4.63585,1.03955 5.65519,0.95686 8.75,-0.70981 1.92658,-1.03754 3.50288,-2.41095 3.50288,-3.05204 0,-1.50594 2.34192,-2.37958 6.37884,-2.37958 2.43349,0 4.16496,-0.97258 7.12116,-4 2.14824,-2.2 3.36457,-4 2.70295,-4 -0.66162,0 -1.20295,-0.675 -1.20295,-1.5 0,-0.825 0.45,-1.5 1,-1.5 0.55,0 1,-0.47656 1,-1.05902 0,-0.58246 -0.45,-0.7809 -1,-0.44098 -1.15295,0.71257 -1.32693,-1.51255 -0.23469,-3.00159 0.40408,-0.55088 2.05155,-1.67588 3.66105,-2.5 l 2.92637,-1.49841 -2.79458,-0.32783 c -2.58114,-0.30279 -2.75216,-0.58919 -2.23923,-3.75 0.30544,-1.88219 0.13363,-3.42217 -0.38179,-3.42217 -0.51542,0 -0.93713,-0.60277 -0.93713,-1.33948 0,-1.51097 2.89142,-3.01565 8.90821,-4.6358 3.61233,-0.9727 4.09179,-1.44659 4.09179,-4.04421 0,-3.91359 -3.47332,-4.83527 -9.51968,-2.52614 -2.43811,0.93112 -4.87617,1.41902 -5.4179,1.08421 -0.54172,-0.33481 -1.29217,-2.24635 -1.66766,-4.24787 -0.57199,-3.04897 -0.31558,-3.93641 1.58113,-5.47227 1.2451,-1.00822 4.00989,-2.11234 6.14397,-2.4536 2.13408,-0.34125 3.88014,-1.06109 3.88014,-1.59964 0,-0.53855 -0.64461,-0.73182 -1.43248,-0.42948 -0.78786,0.30233 -4.18169,0.86073 -7.54184,1.24088 -5.30076,0.59972 -6.29816,0.44186 -7.53572,-1.1927 -0.7845,-1.03614 -1.44066,-2.91875 -1.45816,-4.18356 -0.0175,-1.26481 -0.7911,-3.73981 -1.71913,-5.5 -1.22113,-2.3161 -1.80569,-6.54343 -2.11571,-15.29999 l -0.42839,-12.09965 4.77618,-6.15035 c 5.06186,-6.51823 6.61473,-7.15348 11.41661,-4.67033 2.7484,1.42125 7.03864,6.00317 7.03864,7.51716 0,0.4001 -2.39071,1.00844 -5.31268,1.35186 -8.71382,1.02414 -11.43846,2.36687 -12.72733,6.27219 -1.82274,5.52295 -1.0064,6.27198 6.22452,5.71127 3.47352,-0.26935 7.51216,-0.94204 8.97476,-1.49485 1.84729,-0.69822 3.29766,-0.66348 4.75,0.11379 2.1485,1.14984 2.93565,5.04856 1.0193,5.04856 -0.58928,0 -0.36428,0.70714 0.5,1.57143 1.79898,1.79898 2.20609,10.42857 0.49197,10.42857 -1.51332,0 -0.0488,6.28438 1.70116,7.29969 0.75806,0.43983 1.3783,1.48028 1.3783,2.3121 0,0.83183 0.73208,3.75063 1.62685,6.48623 0.97256,2.97342 1.413,6.56819 1.09513,8.93812 -0.29245,2.18037 -0.19135,3.75395 0.22467,3.49683 0.81512,-0.50377 2.19159,3.71397 4.06866,12.46703 1.45076,6.76511 0.87522,17.57897 -1.34647,25.29879 -0.91786,3.18933 -1.66884,7.63622 -1.66884,9.88197 0,2.24574 -0.84524,5.48629 -1.87832,7.20121 -1.03307,1.71491 -2.18802,4.85648 -2.56655,6.98126 -0.96907,5.43957 -5.3362,14.26399 -8.74721,17.67501 -3.63722,3.63721 -7.72577,4.40018 -19.45187,3.62992 -9.07029,-0.59581 -9.34439,-0.55071 -9.78118,1.60943 -0.24716,1.22232 -0.6949,3.395 -0.99498,4.82818 -0.75961,3.62792 -7.42917,8.01468 -9.8798,6.49822 -1.44518,-0.89428 -2.11303,-0.6717 -3.51578,1.17173 -1.5096,1.98383 -1.96709,2.1036 -3.56692,0.93378 -1.6286,-1.19087 -1.8179,-2.7698 -1.68153,-14.02572 l 0.15368,-12.68378 h -6.48575 c -4.09046,0 -6.78454,0.46165 -7.29477,1.25 -0.44496,0.6875 -0.84146,6.425 -0.88111,12.75 -0.0783,12.49483 -1.22957,17 -4.34414,17 -1.08116,0 -2.24385,0.45 -2.58377,1 -1.0025,1.62209 -2.07513,1.16239 -3.5,-1.5 -1.85914,-3.47383 -3.81314,-3.12379 -4.18664,0.75 -0.2019,2.09396 -0.60113,2.80537 -1.12238,2 z m 27.39195,-37.80125 c 0.50439,-0.31173 0.91707,-2.54484 0.91707,-4.96245 0,-4.17036 -0.16712,-4.42703 -3.26041,-5.00733 -6.98637,-1.31065 -11.08042,2.86418 -8.76946,8.94248 1.02606,2.69873 1.3129,2.8116 5.63839,2.21873 2.50654,-0.34356 4.97002,-0.8797 5.47441,-1.19143 z m 6.91707,-2.94875 c 0,-0.825 -0.45,-1.5 -1,-1.5 -0.55,0 -1,0.675 -1,1.5 0,0.825 0.45,1.5 1,1.5 0.55,0 1,-0.675 1,-1.5 z m 8.5,-4.5 c 0.33992,-0.55 -0.11008,-1 -1,-1 -0.88992,0 -1.33992,0.45 -1,1 0.33992,0.55 0.78992,1 1,1 0.21008,0 0.66008,-0.45 1,-1 z m -72.28387,-5.84526 c -0.74148,-0.47048 -0.99886,-1.55735 -0.60924,-2.57269 0.54466,-1.41936 0.21405,-1.69293 -1.71613,-1.42005 -4.17031,0.58959 -2.75843,4.80737 1.60924,4.80737 1.41395,0 1.62379,-0.23871 0.71613,-0.81463 z m 10.78387,-1.13389 c 1.31241,-0.8299 1.28204,-1.16654 -0.24286,-2.69183 -2.02504,-2.02556 -4.4368,-0.54257 -3.42131,2.10376 0.68875,1.79485 1.53977,1.93143 3.66417,0.58807 z m 25.28975,-5.02085 c 0.30728,-1.17503 0.0307,-2 -0.67056,-2 -0.65647,0 -1.26138,0.9 -1.34424,2 -0.0829,1.1 0.2189,2 0.67057,2 0.45167,0 1.05657,-0.9 1.34423,-2 z m -58.06345,-0.9127 c 0.73684,-1.05199 3.01235,-2.71033 5.0567,-3.68521 4.47617,-2.13454 5.16503,-4.96147 0.967,-3.96834 -8.0701,1.90915 -13.25,3.74025 -13.25,4.68389 0,1.09351 3.95872,4.78985 5.1933,4.84909 0.38131,0.0183 1.29616,-0.82745 2.033,-1.87943 z m 140.7737,-11.71922 c 0,-0.89756 -1.60704,-3.14756 -3.5712,-5 -2.94829,-2.7806 -4.3001,-3.3494 -7.75,-3.26099 l -4.1788,0.10709 4.3084,0.96331 c 2.38933,0.53423 4.58847,1.69317 4.93718,2.60188 0.5158,1.34415 5.10598,6.07546 6.00442,6.18903 0.1375,0.0174 0.25,-0.70277 0.25,-1.60032 z m -16,-54.48935 c 1.925,-0.46543 4.7375,-1.08712 6.25,-1.38154 2.2338,-0.43481 2.75,-1.07187 2.75,-3.3938 0,-4.41061 -2.0683,-5.452 -9.62368,-4.84553 -8.22755,0.66043 -10.49057,2.39264 -8.03063,6.14698 0.90987,1.38864 1.65431,3.26377 1.65431,4.16697 0,1.18093 0.49153,1.43305 1.75,0.89766 0.9625,-0.40948 3.325,-1.12532 5.25,-1.59074 z m 2.75,-19.45037 c 4.2445,-0.87996 2.24972,-2.42835 -3,-2.32868 -6.45505,0.12256 -9.96421,1.04294 -10.53784,2.76385 -0.34171,1.02512 0.83292,1.17013 5.42586,0.66983 3.22409,-0.3512 6.87448,-0.84844 8.11198,-1.105 z m -113.95007,66.68418 c -2.79112,-2.49386 -3.0492,-3.10726 -1.89333,-4.5 0.73606,-0.8869 1.84665,-1.61254 2.46799,-1.61254 1.51028,0 10.05739,-8.03921 10.89757,-10.25 0.36579,-0.9625 1.24169,-1.73503 1.94645,-1.71673 1.95766,0.0508 5.43759,3.30814 6.24203,5.84272 0.57006,1.79608 0.278,2.3796 -1.41225,2.82161 -1.2264,0.32071 -2.03207,1.24599 -1.89802,2.17982 0.70387,4.90341 -4.33323,10.12258 -9.76945,10.12258 -2.27971,0 -4.38142,-0.92214 -6.58099,-2.88746 z m -10.02167,-13.73926 c -1.42274,-0.42064 -3.75127,-5.74298 -3.77268,-8.62328 -0.003,-0.4125 1.35887,-0.75 3.02654,-0.75 7.03589,0 12.88578,-4.65623 15.08908,-12.0102 0.87801,-2.93054 1.52684,-3.63309 2.99958,-3.24797 1.38932,0.36332 1.87922,-0.045 1.87922,-1.56618 0,-1.13169 -0.41559,-2.31447 -0.92354,-2.6284 -2.29097,-1.41589 -4.30702,-12.01441 -6.53898,-34.37579 -1.32622,-13.28707 -2.65974,-24.56027 -2.96339,-25.05157 -0.30364,-0.4913 0.15227,-1.47783 1.01314,-2.19228 2.2432,-1.8617 3.38007,0.34203 3.39058,6.57239 0.0122,7.22148 3.11627,35.85432 3.98989,36.80362 0.40675,0.442 2.39834,0.0126 4.42575,-0.9542 2.92775,-1.39615 4.26839,-1.53808 6.51572,-0.68981 1.55624,0.58742 4.57581,0.78575 6.71017,0.44075 4.77709,-0.77219 5.76501,-3.99789 2.34073,-7.64286 -2.65932,-2.83072 -2.01399,-7.36913 1.16609,-8.20074 1.3603,-0.35573 1.87941,-1.12745 1.5656,-2.32747 -0.40762,-1.55873 -0.12569,-1.66457 2.13966,-0.80329 2.09375,0.79605 2.86191,0.6463 3.88886,-0.75813 1.70938,-2.33773 1.62364,-3.11519 -0.6644,-6.02396 -2.3977,-3.04818 -1.83303,-4.70049 2.52731,-7.39533 5.6903,-3.51679 7.53584,-2.49117 9.49042,5.27407 l 1.69214,6.72266 -4.92105,6.98479 c -4.62476,6.56425 -7.05279,9.03324 -11.48312,11.67684 -1.72282,1.02801 -1.61503,1.30892 1.51195,3.9401 3.22548,2.71406 3.34392,3.05717 2.81714,8.16114 -0.66308,6.42463 -3.65939,11.62201 -7.65402,13.27664 -2.60802,1.08028 -2.87742,1.58091 -2.3503,4.36766 0.32744,1.73113 0.96716,3.87776 1.42159,4.77028 1.13014,2.21964 0.39567,5.36124 -2.05948,8.80919 -2.63146,3.69553 -5.71055,3.44994 -10.60302,-0.84571 -3.43794,-3.01855 -3.71992,-3.09688 -5.01236,-1.39236 -0.75321,0.99336 -1.38379,2.31521 -1.40128,2.93743 -0.0175,0.62222 -1.62138,2.34374 -3.56419,3.8256 -3.5022,2.67126 -11.49391,4.15677 -15.68935,2.91637 z m 66.05637,-49.03022 c -3.5229,-0.60743 -4.0698,-2.42507 -2.26704,-7.53463 1.89272,-5.36454 3.08069,-6.05802 6.87328,-4.01228 2.24844,1.21282 5.7092,1.65723 13.05913,1.67698 l 10,0.0269 -0.16108,3.37537 c -0.27377,5.73648 -2.0199,6.57317 -14.10946,6.76077 -5.9012,0.0916 -11.92887,-0.0403 -13.39483,-0.29308 z m 11.11095,-14.09306 c -0.55271,-1.5125 -1.15927,-3.2 -1.34793,-3.75 -0.19784,-0.57678 1.71921,-1 4.52967,-1 2.67997,0 4.871,0.225 4.86894,0.5 -0.002,0.275 -0.89544,1.9625 -1.9853,3.75 -2.42282,3.97372 -4.7266,4.16363 -6.06538,0.5 z M 175.86953,177.3088 c -0.67134,-1.07499 -0.81495,-1.95452 -0.31913,-1.95452 0.89777,0 2.44391,3.00488 1.85114,3.59765 -0.17126,0.17127 -0.86067,-0.56814 -1.53201,-1.64313 z m 62.95131,-13.83758 c -1.78722,-1.13268 2.9662,-2.39141 5.44244,-1.44118 1.62825,0.62481 1.61581,0.72903 -0.17053,1.42882 -2.59865,1.01801 -3.68114,1.02054 -5.27191,0.0124 z m 39.84502,-0.54065 c 0,-0.78304 0.50039,-3.59554 1.11197,-6.25 0.98096,-4.25767 0.82878,-5.65101 -1.29168,-11.82629 -1.87433,-5.45851 -2.83396,-7 -4.35775,-7 -1.6376,0 -2.07669,0.97182 -2.71092,6 -0.41956,3.32631 -0.34513,7.19123 0.16701,8.67324 0.72626,2.10157 0.58413,2.80359 -0.66463,3.28278 -2.54224,0.97555 -3.71342,-1.13712 -3.73442,-6.73644 -0.0181,-4.81186 -0.19533,-5.20097 -2.26958,-4.98137 -1.67049,0.17686 -2.25,-0.28294 -2.25,-1.78518 0,-1.80134 -0.24693,-1.88648 -2.25,-0.77576 -1.2375,0.6862 -2.60002,1.14786 -3.02783,1.02591 -0.4278,-0.12195 -1.03745,0.45486 -1.35478,1.2818 -0.31733,0.82694 -0.94871,1.27378 -1.40308,0.99296 -0.45436,-0.28081 -1.10877,-0.0532 -1.45423,0.50575 -1.24228,2.01006 -3.52428,0.94849 -5.8765,-2.73369 -3.02495,-4.73528 -2.09171,-6.82786 3.46366,-7.76643 3.38498,-0.57189 4.66195,-0.2984 7.13142,1.52736 2.43978,1.80381 3.17156,1.96564 3.8732,0.85653 0.87822,-1.38822 0.23889,-7.13186 -1.09836,-9.86746 -0.40328,-0.825 -0.53222,-2.06049 -0.28653,-2.74554 0.55373,-1.54391 -2.5918,-11.25446 -3.64565,-11.25446 -1.1425,0 -4.24659,8.44158 -3.22883,8.78083 0.48064,0.16021 1.7252,0.93576 2.7657,1.72343 1.73365,1.3124 1.5156,1.43663 -2.60819,1.4859 -2.475,0.0296 -6.3522,0.89488 -8.616,1.92291 -4.15418,1.8865 -10.384,3.5901 -10.384,2.83961 0,-0.22343 2.025,-2.61187 4.5,-5.30766 3.90015,-4.24807 5.62424,-7.44502 4.01502,-7.44502 -1.3228,0 -10.70566,6.43408 -11.92818,8.17948 -0.96815,1.38222 -2.70415,2.0676 -5.61614,2.21728 -6.34651,0.3262 -6.96803,1.7981 -6.98601,16.54437 -0.0162,13.29473 -1.03052,17.69873 -2.92727,12.70988 -1.15099,-3.02731 -1.44482,-26.54547 -0.42465,-33.9884 0.37871,-2.76304 1.04298,-4.36301 1.65451,-3.98507 0.58969,0.36446 0.71664,0.13782 0.30022,-0.53597 -0.8249,-1.33471 2.58203,-11.04731 5.57928,-15.90562 4.24156,-6.875228 16.08958,-12.235951 27.04332,-12.235951 3.82394,0 4.7899,-0.339662 4.7899,-1.684276 0,-3.169472 -4.17725,-10.316171 -7.83979,-13.412804 -2.42593,-2.05109 -2.98578,-2.909736 -1.66021,-2.546278 1.1,0.301611 3.24029,0.844236 4.7562,1.205834 1.51591,0.361598 4.74627,2.870895 7.17859,5.576216 l 4.42239,4.918765 3.32141,-2.02499 c 1.89743,-1.156823 5.03632,-2.017178 7.32141,-2.006767 6.41902,0.02924 16.5,5.313884 16.5,8.649611 0,1.043519 -0.93343,0.889135 -3.96016,-0.654987 -2.17809,-1.111178 -5.21559,-2.005881 -6.75,-1.988228 -2.41095,0.02774 -2.04288,0.401217 2.71016,2.75 8.71891,4.308575 12.6517,12.272815 13.68725,27.717905 0.43861,6.54188 0.15146,9.08727 -1.57544,13.96534 -1.16149,3.28094 -2.11181,7.01578 -2.11181,8.29966 0,2.74877 2.21816,7.34124 4.43406,9.18028 4.23879,3.51788 -0.2479,5.56219 -4.63453,2.11167 l -2.47019,-1.94305 -1.679,5.32641 c -2.33532,7.40849 -7.65034,13.75564 -7.65034,9.13598 z m -62.2702,-35.30399 c -0.21648,-2.07476 -0.39722,-0.6223 -0.40166,3.2277 -0.004,3.85 0.17268,5.54754 0.39359,3.7723 0.22091,-1.77523 0.22454,-4.92523 0.008,-7 z M 230.51149,112.517 c 1.4599,-1.0105 3.50628,-2.14609 4.5475,-2.52353 1.04122,-0.37745 1.64026,-0.93913 1.33121,-1.24818 -0.73769,-0.73769 -7.30288,2.39624 -8.80079,4.2011 -1.6275,1.96103 -0.23602,1.75655 2.92208,-0.42939 z m 43.26448,42.46996 c -0.86554,-1.04292 -0.75788,-1.68011 0.45377,-2.6857 1.3221,-1.09724 1.74093,-1.07757 2.49702,0.11732 2.14311,3.38685 -0.42,5.61778 -2.95079,2.56838 z m -47.61719,-9.62123 c 0.34596,-0.55976 -0.0405,-0.73857 -0.89089,-0.41223 -2.10369,0.80726 -5.10613,-6.2869 -3.48665,-8.23825 1.66639,-2.00787 6.59199,-1.6536 8.88462,0.63903 2.92696,2.92696 2.51204,5.59808 -1.15364,7.42676 -3.68327,1.83745 -4.18136,1.9243 -3.35344,0.58469 z"
         id="path1252"
         inkscape:connector-curvature="0" />
      <path
         style="fill:#a45543"
         d="m 266.01938,343.45179 c -9.72109,-0.94501 -12.37965,-4.78081 -8.68436,-12.52991 1.04054,-2.18206 3.0177,-4.12358 5.25,-5.15538 1.96946,-0.91032 4.70584,-2.66751 6.08084,-3.90486 1.375,-1.23735 3.7375,-2.54127 5.25,-2.8976 1.54129,-0.36311 2.75,-1.33042 2.75,-2.20077 0,-1.29469 -0.89436,-1.44116 -5.37875,-0.88087 -3.48883,0.4359 -6.16198,0.25286 -7.60782,-0.52093 -1.67144,-0.89453 -3.76561,-0.92585 -8.37125,-0.12519 -3.3782,0.58727 -8.61718,1.27663 -11.64218,1.5319 -3.025,0.25528 -11.125,0.96793 -18,1.58369 -10.25025,0.91805 -14.85613,0.84437 -25.59105,-0.40941 -15.5746,-1.81903 -16.68166,-2.15357 -15.84541,-4.78839 0.51516,-1.62311 0.21705,-1.90174 -1.7202,-1.60783 -1.28883,0.19554 -2.22667,0.91986 -2.08407,1.60961 0.50013,2.41905 -2.73037,2.35828 -8.21925,-0.15462 -7.76043,-3.55284 -7.21684,-5.47851 2.3087,-8.17862 1.97145,-0.55883 2.2535,-0.36577 1.75594,1.20193 -0.56651,1.7849 0.3712,1.86686 21.15128,1.84872 20.15983,-0.0176 21.72265,0.10852 21.45022,1.73102 -0.16161,0.9625 0.17589,1.75 0.75,1.75 0.57411,0 1.04384,-0.64844 1.04384,-1.44098 0,-2.55627 2.3463,-3.1346 14.5,-3.57406 1.1,-0.0398 6.95,0.62655 13,1.48073 l 11,1.55303 2,-2.29907 c 1.1,-1.26449 3.6875,-3.17104 5.75,-4.23677 2.0625,-1.06573 3.75,-2.46221 3.75,-3.1033 0,-1.50594 2.34192,-2.37958 6.37884,-2.37958 4.78432,0 10.33349,-6.10021 10.46119,-11.5 0.0694,-2.93302 0.75384,-4.57333 2.56606,-6.14938 2.20854,-1.92071 2.28112,-2.19915 0.68216,-2.61729 -1.24265,-0.32496 -1.96706,-1.79314 -2.37112,-4.8056 -0.31999,-2.38572 -0.36435,-4.68953 -0.0986,-5.11956 0.26578,-0.43004 2.93533,-1.49474 5.93234,-2.36599 4.98752,-1.44991 5.4491,-1.83059 5.4491,-4.49409 0,-3.83505 -3.54681,-4.8223 -9.26091,-2.57774 -4.6654,1.83262 -5.26756,1.42772 -6.3657,-4.28043 -0.78072,-4.05822 0.99457,-5.80531 6.85055,-6.74172 2.07683,-0.3321 3.77606,-1.02663 3.77606,-1.5434 0,-0.51676 -0.7875,-0.71712 -1.75,-0.44524 -0.9625,0.27189 -3.6625,0.79177 -6,1.15529 -3.39424,0.52786 -4.25,0.36091 -4.25,-0.82913 0,-1.59869 4.8513,-3.68572 8.56744,-3.68572 1.24794,0 2.98079,-0.27314 3.85077,-0.60699 2.02885,-0.77854 2.073,-5.74045 0.0659,-7.4062 -2.05916,-1.70895 -14.16739,-0.73211 -16.20701,1.30752 -1.34311,1.34311 -1.30516,1.84959 0.34837,4.64879 1.58532,2.68372 1.64547,3.27139 0.41286,4.03319 -1.99891,1.2354 -3.03833,0.35107 -3.03833,-2.58499 0,-1.36985 -0.7593,-3.93079 -1.68733,-5.69098 -1.22099,-2.31583 -1.80567,-6.54284 -2.11552,-15.29426 l -0.4282,-12.09392 4.36553,-5.65227 c 5.35967,-6.93945 8.20015,-7.20388 14.61552,-1.36061 3.30314,3.00857 2.77166,4.36445 -2,5.1022 -8.28787,1.2814 -10.55353,2.47319 -11.78285,6.19807 -1.83035,5.546 -1.01906,6.29408 6.21736,5.73295 3.47352,-0.26935 7.57803,-0.96932 9.12112,-1.55548 4.79297,-1.82066 5.4544,-0.0863 6.11443,16.03266 0.16462,4.02033 0.81245,7.82283 1.43962,8.45 0.62718,0.62718 1.14032,2.2049 1.14032,3.50606 0,1.30116 0.46354,3.23188 1.03009,4.29049 0.56656,1.05861 1.06361,3.61653 1.10457,5.68426 0.041,2.06773 1.53176,8.25951 3.31291,13.75951 2.65144,8.18738 3.22159,11.50203 3.14544,18.28647 -0.0512,4.55757 -0.56492,8.60757 -1.14169,9 -1.6022,1.09016 -3.45129,8.39338 -3.45129,13.63143 0,2.66226 -0.82695,6.28291 -1.91488,8.38398 -1.05318,2.03397 -2.64137,6.25451 -3.5293,9.37898 -2.2685,7.9824 -7.19818,15.02667 -11.55582,16.5127 -3.67651,1.25375 -12.31901,1.40791 -22.64648,0.40395 z m -70.35352,-29.07666 c 1.31241,-0.8299 1.28204,-1.16654 -0.24286,-2.69183 -2.02504,-2.02556 -4.4368,-0.54257 -3.42131,2.10376 0.68875,1.79485 1.53977,1.93143 3.66417,0.58807 z m 104.45081,-22.74982 c -3.02326,-2.61339 -4.60499,-3.2495 -7.86742,-3.16394 l -4.08339,0.10709 4.3084,0.96331 c 2.38933,0.53423 4.58847,1.69317 4.93718,2.60188 0.34583,0.90121 1.78205,2.63757 3.1916,3.85857 2.23897,1.93947 2.60925,2.01049 2.93024,0.56206 0.21644,-0.97664 -1.18754,-3.00209 -3.41661,-4.92897 z m -9.70081,-68.84267 c 4.2445,-0.87996 2.24972,-2.42835 -3,-2.32868 -6.45505,0.12256 -9.96421,1.04294 -10.53784,2.76385 -0.34171,1.02512 0.83292,1.17013 5.42586,0.66983 3.22409,-0.3512 6.87448,-0.84844 8.11198,-1.105 z m -138.40055,80.0399 c -1.0032,-2.6143 0.37897,-4.13404 4.80951,-5.28823 7.51889,-1.95872 12.84104,-1.84208 12.84104,0.28143 0,0.8906 -1.66007,1.86507 -4.25,2.49476 -2.3375,0.56833 -6.1821,1.69639 -8.54356,2.50681 -3.77396,1.29518 -4.36175,1.29581 -4.85699,0.005 z m 26.51912,-12.97811 c -3.89672,-2.11727 -4.94606,-6.49015 -1.55741,-6.49015 1.55817,0 10.10196,-7.98959 10.961,-10.25 0.85035,-2.23753 2.63945,-2.17431 5.47784,0.19356 2.56523,2.14 2.97964,5.83922 0.75,6.69481 -0.825,0.31659 -1.5,1.47246 -1.5,2.56862 0,2.79911 -6.27512,8.80195 -9.15,8.75297 -1.2925,-0.022 -3.53414,-0.68343 -4.98143,-1.46981 z m -12.33824,-15.80352 c -2.53141,-3.86341 -1.6752,-6.98149 2.12943,-7.75485 6.05329,-1.23043 9.71092,-4.21074 11.91456,-9.70825 1.57612,-3.93201 2.35351,-4.8957 3.23676,-4.01245 0.88324,0.88324 1.7707,0.59099 3.69505,-1.21684 2.08798,-1.96156 3.62542,-2.38936 8.75712,-2.43676 4.86498,-0.0449 6.23831,0.27014 6.28777,1.44252 0.0348,0.825 0.30684,2.175 0.60452,3 2.83389,7.85396 2.83622,8.05164 0.1453,12.34855 -2.50019,3.99235 -4.05992,5.60351 -5.45623,5.63614 -0.36046,0.008 -2.55315,-1.57023 -4.87263,-3.5081 -3.9405,-3.2922 -4.30555,-3.40704 -5.56281,-1.75 -0.74006,0.97537 -1.35988,2.2825 -1.37737,2.90472 -0.0712,2.53175 -7.09445,6.51966 -12.45674,7.0731 -4.94578,0.51045 -5.49038,0.35446 -7.04473,-2.01778 z m 39.46967,-49.85789 c 0,-1.19419 -0.72834,-2.97606 -1.61852,-3.9597 -1.82015,-2.01125 -1.30388,-5.80378 1.12002,-8.22768 0.82418,-0.82418 1.4985,-2.02943 1.4985,-2.67834 0,-0.76058 0.89244,-0.95585 2.51145,-0.5495 2.0308,0.5097 2.731,0.14846 3.65866,-1.88753 0.94504,-2.07414 0.84086,-2.85638 -0.59115,-4.43874 -2.18861,-2.41839 -0.86284,-5.37197 3.40102,-7.5769 5.41483,-2.80011 6.61334,-2.13893 8.00434,4.41574 l 1.2576,5.9261 -5.58903,7.93086 c -4.78586,6.79116 -11.14807,13.21695 -13.08617,13.21695 -0.3117,0 -0.56672,-0.97707 -0.56672,-2.17126 z m 26.5,1.45819 c -3.31411,-0.79714 -3.60792,-1.72961 -1.98993,-6.31548 1.95293,-5.53517 3.11761,-6.23492 6.9308,-4.16405 2.29035,1.24384 5.53653,1.64662 12.91723,1.60272 l 9.85809,-0.0586 -0.53227,3.96838 c -0.29275,2.18261 -1.12889,4.34664 -1.85809,4.80895 -1.37823,0.87379 -21.81987,1.00142 -25.32583,0.15812 z m 11.44558,-13.03693 c -0.55271,-1.5125 -1.15927,-3.2 -1.34793,-3.75 -0.19784,-0.57678 1.71921,-1 4.52967,-1 2.67997,0 4.871,0.225 4.86894,0.5 -0.002,0.275 -0.89544,1.9625 -1.9853,3.75 -2.42282,3.97372 -4.7266,4.16363 -6.06538,0.5 z m -4.7906,-49.13306 c -1.78722,-1.13268 2.9662,-2.39141 5.44244,-1.44118 1.62825,0.62481 1.61581,0.72903 -0.17053,1.42882 -2.59865,1.01801 -3.68114,1.02054 -5.27191,0.0124 z m 41.91483,-5.36034 c 1.43734,-5.01173 1.10943,-9.25551 -0.91732,-11.87174 -1.01613,-1.31168 -2.15454,-3.64163 -2.5298,-5.17768 -0.7356,-3.01103 -3.16535,-4.56452 -4.71517,-3.0147 -0.52693,0.52693 -1.09213,4.52418 -1.25601,8.88278 -0.26474,7.04096 -0.51182,7.92474 -2.21556,7.92474 -1.65657,0 -1.91883,-0.74865 -1.92677,-5.5 -0.009,-5.10529 -0.17065,-5.48291 -2.25918,-5.26179 -1.63812,0.17343 -2.25,-0.28642 -2.25,-1.69098 0,-1.06106 -0.45122,-2.20806 -1.0027,-2.5489 -0.66887,-0.41338 -0.66423,-1.25217 0.014,-2.51935 0.69545,-1.29947 0.67274,-3.2549 -0.0719,-6.18931 -0.59873,-2.35932 -1.0658,-5.18967 -1.03798,-6.28967 0.068,-2.68937 -2.86638,-11.5 -3.8301,-11.5 -1.1425,0 -4.24659,8.44158 -3.22883,8.78083 0.48064,0.16021 1.7252,0.93576 2.7657,1.72343 1.73365,1.3124 1.5156,1.43663 -2.60819,1.4859 -2.475,0.0296 -6.3522,0.89488 -8.616,1.92291 -4.15418,1.8865 -10.384,3.5901 -10.384,2.83961 0,-0.22343 2.025,-2.61187 4.5,-5.30766 3.90015,-4.24807 5.62424,-7.44502 4.01502,-7.44502 -1.3228,0 -10.70566,6.43408 -11.92818,8.17948 -0.96815,1.38222 -2.70415,2.0676 -5.61614,2.21728 -6.09878,0.31347 -6.957,2.02533 -7.04099,14.04437 -0.0387,5.53238 -0.40996,10.92597 -0.82513,11.98575 -1.66307,4.24529 -2.23773,-2.08984 -1.5808,-17.42688 0.53838,-12.56904 1.13722,-16.95966 3.16689,-23.2192 4.51584,-13.926945 12.91839,-20.376055 28.03779,-21.519533 4.91138,-0.371447 7.62696,-1.023901 7.96875,-1.914601 0.78986,-2.058327 -0.37203,-5.588387 -3.22129,-9.787012 -1.41612,-2.086776 -2.34157,-4.027335 -2.05655,-4.312355 0.94185,-0.941851 5.5635,2.753916 7.841,6.270172 1.2318,1.901774 2.57876,3.463341 2.99325,3.470149 0.4145,0.0068 2.43283,-0.887621 4.4852,-1.987621 4.23879,-2.271859 7.46481,-2.498545 12.36196,-0.868652 5.43422,1.808647 6.6049,3.48781 2.13895,3.06801 -4.09998,-0.3854 -9.23973,1.158733 -9.23973,2.775891 0,0.566538 2.29456,1.024751 5.13158,1.024751 4.70528,0 5.48528,0.353705 9.38931,4.257736 7.53504,7.535045 10.4803,23.795125 6.61511,36.520435 -2.75282,9.06305 -2.69118,12.12464 0.33386,16.58228 2.69748,3.97496 1.24085,5.18734 -1.96986,1.63955 -0.99549,-1.1 -2.11862,-2 -2.49586,-2 -0.37723,0 -1.22199,2.39557 -1.87722,5.32349 -1.19623,5.34528 -3.48518,9.67651 -5.11382,9.67651 -0.48633,0 -0.4612,-1.43758 0.0567,-3.2434 z M 230.51149,112.517 c 1.4599,-1.0105 3.50628,-2.14609 4.5475,-2.52353 1.04122,-0.37745 1.64026,-0.93913 1.33121,-1.24818 -0.73769,-0.73769 -7.30288,2.39624 -8.80079,4.2011 -1.6275,1.96103 -0.23602,1.75655 2.92208,-0.42939 z m 19.90437,31.75718 c -0.9625,-0.56061 -1.75,-2.12192 -1.75,-3.46959 0,-1.56871 -0.56967,-2.45031 -1.58333,-2.45031 -3.16781,0 -0.64664,-2.52332 3.3826,-3.38549 6.8398,-1.46357 12.08784,3.29489 6.44759,5.84611 -1.16807,0.52835 -2.33433,1.76585 -2.59169,2.75 -0.52894,2.0227 -1.38365,2.17793 -3.90517,0.70928 z m -26.08333,-0.58657 c -0.36667,-0.36666 -0.66667,-1.67916 -0.66667,-2.91666 0,-1.2375 -0.52967,-2.42656 -1.17705,-2.64235 -0.64738,-0.2158 -0.84582,-0.9283 -0.44098,-1.58334 1.20747,-1.95373 6.43419,-1.37482 8.78168,0.97267 l 2.16364,2.16364 -2.91364,2.33139 c -2.98429,2.38791 -4.57128,2.85035 -5.74698,1.67465 z m 22.14583,-70.016445 c 0.72187,-0.288871 1.58437,-0.253344 1.91667,0.07895 0.33229,0.332292 -0.25834,0.56864 -1.3125,0.525219 -1.16495,-0.04798 -1.4019,-0.28494 -0.60417,-0.604166 z"
         id="path1250"
         inkscape:connector-curvature="0" />
      <path
         style="fill:#529c41"
         d="m 274.16586,343.39475 c -1.65,-0.44211 -5.0824,-0.85708 -7.62756,-0.92216 -5.52177,-0.14117 -8.186,-2.34495 -4.93701,-4.08375 3.02321,-1.61798 2.55006,-3.98746 -0.93543,-4.68456 -1.65,-0.33 -3,-1.14031 -3,-1.80069 0,-1.82018 4.03389,-5.16549 8.39751,-6.96407 2.14364,-0.88355 4.4013,-2.29542 5.01704,-3.13749 0.61573,-0.84206 2.23685,-2.10111 3.60248,-2.79788 1.36563,-0.69677 2.42047,-2.02803 2.34408,-2.95836 -0.18964,-2.30963 2.3285,-2.14 3.60371,0.24275 0.56935,1.06384 1.03518,3.98884 1.03518,6.5 0,4.90208 0.53274,5.37012 3.55887,3.12664 1.64558,-1.21998 1.75235,-1.74835 0.70125,-3.47023 -1.05586,-1.72966 -0.95491,-2.18365 0.68016,-3.05871 1.05602,-0.56517 2.06397,-2.04106 2.23988,-3.27977 0.24524,-1.72691 1.07784,-2.32528 3.56984,-2.56555 1.7875,-0.17235 3.25,-0.49781 3.25,-0.72325 0,-0.22544 -0.98067,-2.4284 -2.17927,-4.89548 -1.82131,-3.7488 -1.98798,-4.90541 -1.01473,-7.04148 1.70324,-3.73819 5.66754,-5.31285 8.01868,-3.18509 4.78864,4.33366 5.73457,-0.49586 1.12534,-5.74549 -3.34182,-3.80612 -8.77828,-6.10675 -12.32621,-5.21628 -2.04294,0.51274 -2.22604,0.27031 -1.83063,-2.4238 0.24165,-1.64644 1.50751,-3.83373 2.81302,-4.86065 2.16899,-1.70613 2.21497,-1.90862 0.5332,-2.34841 -1.30057,-0.34011 -2.01113,-1.75373 -2.42227,-4.81898 -0.31999,-2.38572 -0.36435,-4.68953 -0.0986,-5.11956 0.26578,-0.43004 2.93533,-1.49474 5.93234,-2.36599 4.98752,-1.44991 5.4491,-1.83059 5.4491,-4.49409 0,-3.83505 -3.54681,-4.8223 -9.26091,-2.57774 -4.6654,1.83262 -5.26756,1.42772 -6.3657,-4.28043 -0.78072,-4.05822 0.99457,-5.80531 6.85055,-6.74172 2.07683,-0.3321 3.77606,-1.02663 3.77606,-1.5434 0,-0.51676 -0.7875,-0.71712 -1.75,-0.44524 -0.9625,0.27189 -3.6625,0.79177 -6,1.15529 -3.39424,0.52786 -4.25,0.36091 -4.25,-0.82913 0,-1.59869 4.8513,-3.68572 8.56744,-3.68572 1.24794,0 2.98079,-0.27314 3.85077,-0.60699 2.02885,-0.77854 2.073,-5.74045 0.0659,-7.4062 -2.1158,-1.75596 -14.00314,-0.73206 -16.3701,1.41001 -1.65243,1.49543 -1.91188,1.48401 -3.39001,-0.1493 -1.19384,-1.31919 -1.77793,-4.95984 -2.29829,-14.32558 l -0.69768,-12.5569 4.38599,-5.67871 c 5.38146,-6.9676 8.2143,-7.23606 14.63598,-1.38705 3.30314,3.00857 2.77166,4.36445 -2,5.1022 -8.28787,1.2814 -10.55353,2.47319 -11.78285,6.19807 -1.83035,5.546 -1.01906,6.29408 6.21736,5.73295 3.47352,-0.26935 7.57803,-0.96932 9.12112,-1.55548 4.79297,-1.82066 5.4544,-0.0863 6.11443,16.03266 0.16462,4.02033 0.81245,7.82283 1.43962,8.45 0.62718,0.62718 1.14032,2.2049 1.14032,3.50606 0,1.30116 0.46354,3.23188 1.03009,4.29049 0.56656,1.05861 1.06361,3.61653 1.10457,5.68426 0.041,2.06773 1.53176,8.25951 3.31291,13.75951 2.65144,8.18738 3.22159,11.50203 3.14544,18.28647 -0.0512,4.55757 -0.56492,8.60757 -1.14169,9 -1.65218,1.12415 -3.87503,9.25696 -3.92831,14.37264 -0.0295,2.83418 -0.68858,5.38017 -1.6826,6.5 -0.89874,1.01249 -2.36423,4.76589 -3.25666,8.34089 -2.21061,8.85551 -7.90003,17.13024 -12.58375,18.30187 -5.42346,1.35668 -10.21492,1.61883 -13.5,0.7386 z m 5.5,-11.48145 c 0,-0.24254 -0.45,-0.7191 -1,-1.05902 -0.55,-0.33992 -1,-0.14148 -1,0.44098 0,0.58246 0.45,1.05902 1,1.05902 0.55,0 1,-0.19844 1,-0.44098 z m 10.75,-109.13066 c 4.2445,-0.87996 2.24972,-2.42835 -3,-2.32868 -6.45505,0.12256 -9.96421,1.04294 -10.53784,2.76385 -0.34171,1.02512 0.83292,1.17013 5.42586,0.66983 3.22409,-0.3512 6.87448,-0.84844 8.11198,-1.105 z M 168.41523,311.2339 c -3.726,-2.08518 -1.70745,-4.19433 6.1519,-6.42797 1.98275,-0.5635 2.28776,-0.38664 1.75,1.01474 -0.3582,0.93345 -0.65127,2.11038 -0.65127,2.6154 0,0.50501 -0.52707,0.91821 -1.17126,0.91821 -0.64419,0 -1.88197,0.64319 -2.75063,1.42931 -1.12252,1.01587 -2.08538,1.14612 -3.32874,0.45031 z m -16.42573,-8.4786 c -1.02564,-2.67278 0.49959,-4.03867 5.82429,-5.21584 8.74616,-1.93357 11.85207,-1.86117 11.85207,0.27628 0,0.89289 -1.6534,1.85776 -4.25,2.48015 -2.3375,0.56028 -6.19372,1.65808 -8.56937,2.43956 -3.69864,1.21667 -4.39663,1.21953 -4.85699,0.0198 z m 26.54493,-12.91087 c -3.89672,-2.11727 -4.94606,-6.49015 -1.55741,-6.49015 1.55817,0 10.10196,-7.98959 10.961,-10.25 0.85035,-2.23753 2.63945,-2.17431 5.47784,0.19356 2.56523,2.14 2.97964,5.83922 0.75,6.69481 -0.825,0.31659 -1.5,1.47246 -1.5,2.56862 0,2.79911 -6.27512,8.80195 -9.15,8.75297 -1.2925,-0.022 -3.53414,-0.68343 -4.98143,-1.46981 z m -12.33824,-15.80352 c -2.53141,-3.86341 -1.6752,-6.98149 2.12943,-7.75485 6.05329,-1.23043 9.71092,-4.21074 11.91456,-9.70825 1.57612,-3.93201 2.35351,-4.8957 3.23676,-4.01245 0.88324,0.88324 1.76064,0.60045 3.65313,-1.17746 2.02159,-1.89918 3.65029,-2.35814 8.64734,-2.43676 6.13065,-0.0965 6.15793,-0.0842 6.46381,2.90314 0.16895,1.65 0.83208,4.61612 1.47362,6.59137 1.23852,3.81332 -0.004,7.72051 -3.5971,11.31389 -2.20122,2.20122 -2.68652,2.07608 -7.4799,-1.92867 -3.9405,-3.2922 -4.30555,-3.40704 -5.56281,-1.75 -0.74006,0.97537 -1.35988,2.2825 -1.37737,2.90472 -0.0712,2.53175 -7.09445,6.51966 -12.45674,7.0731 -4.94578,0.51045 -5.49038,0.35446 -7.04473,-2.01778 z m 112.46967,-32.10484 c 0,-0.78002 -0.28554,-2.24252 -0.63453,-3.25 -0.55763,-1.60979 -0.44029,-1.5894 0.96819,0.16821 1.82137,2.27283 2.15116,4.5 0.66634,4.5 -0.55,0 -1,-0.6382 -1,-1.41821 z m -73,-17.75305 c 0,-1.19419 -0.72834,-2.97606 -1.61852,-3.9597 -1.82015,-2.01125 -1.30388,-5.80378 1.12002,-8.22768 0.82418,-0.82418 1.4985,-2.02943 1.4985,-2.67834 0,-0.76058 0.89244,-0.95585 2.51145,-0.5495 2.0308,0.5097 2.731,0.14846 3.65866,-1.88753 0.94504,-2.07414 0.84086,-2.85638 -0.59115,-4.43874 -2.18861,-2.41839 -0.86284,-5.37197 3.40102,-7.5769 5.41483,-2.80011 6.61334,-2.13893 8.00434,4.41574 l 1.2576,5.9261 -5.58903,7.93086 c -4.78586,6.79116 -11.14807,13.21695 -13.08617,13.21695 -0.3117,0 -0.56672,-0.97707 -0.56672,-2.17126 z m 26.5,1.45819 c -3.31411,-0.79714 -3.60792,-1.72961 -1.98993,-6.31548 1.95293,-5.53517 3.11761,-6.23492 6.9308,-4.16405 2.29035,1.24384 5.53653,1.64662 12.91723,1.60272 l 9.85809,-0.0586 -0.53227,3.96838 c -0.29275,2.18261 -1.12889,4.34664 -1.85809,4.80895 -1.37823,0.87379 -21.81987,1.00142 -25.32583,0.15812 z m 48.79973,-66.78693 c 1.70834,-6.64234 1.69509,-7.889 -0.12586,-11.84544 -1.05168,-2.28501 -2.46943,-5.6021 -3.15055,-7.37131 -0.68113,-1.76921 -2.09002,-3.48703 -3.13087,-3.81739 -1.33047,-0.42227 -1.89597,-1.54574 -1.90432,-3.78325 -0.0178,-4.78157 -2.50876,-13.20066 -4.89866,-16.55696 -1.35909,-1.90867 -3.9001,-3.56631 -7.09194,-4.62647 -2.7357,-0.90866 -5.22341,-2.05565 -5.52825,-2.54888 -0.30483,-0.49323 -2.13868,-1.64865 -4.07522,-2.56759 -4.64067,-2.20215 -18.83853,-1.36133 -24.52566,1.45244 -8.72642,4.31749 -1.92938,-5.94811 6.99842,-10.569742 5.4134,-2.802344 7.33074,-3.265409 13.52055,-3.265409 10.08417,0 11.57008,-2.090888 7.63956,-10.75 -2.43662,-5.367984 -0.89365,-5.516817 2.59177,-0.25 2.83783,4.288253 4.71805,4.910205 7.42853,2.457256 2.13318,-1.930497 7.95458,-2.926215 11.64848,-1.992406 2.69923,0.682356 2.61711,0.771222 -2.19199,2.372032 -3.06548,1.020408 -5.12042,2.327735 -5.31751,3.382924 -0.27516,1.473169 0.48065,1.698708 5.27031,1.57269 6.2831,-0.165311 9.44651,1.54507 13.28302,7.18182 3.18023,4.672505 4.38659,9.293705 4.9718,19.045395 0.41244,6.87268 0.10391,9.83863 -1.59596,15.34214 -2.17459,7.04051 -2.04434,10.27171 0.58349,14.47491 2.04434,3.26992 0.77725,3.95916 -2.17672,1.18405 -2.71735,-2.55282 -2.44867,-2.88444 -4.43917,5.47919 -0.65449,2.75 -1.8892,5.675 -2.7438,6.5 -1.38914,1.34101 -1.49931,1.28802 -1.03945,-0.5 z m -64.06773,-13.5 c 0,-1.925 0.2058,-2.7125 0.45733,-1.75 0.25152,0.9625 0.25152,2.5375 0,3.5 -0.25153,0.9625 -0.45733,0.175 -0.45733,-1.75 z m 8.23916,-3.04666 c -0.33014,-0.53418 -0.30756,-1.89344 0.0502,-3.02059 0.77031,-2.42701 4.78918,-2.32078 5.25744,0.13897 0.34917,1.83418 -4.3711,4.39693 -5.30761,2.88162 z m 25.40384,0.54666 c -0.0687,-0.275 -0.18125,-1.87046 -0.25,-3.54546 -0.11857,-2.88869 0.0547,-3.03025 3.36668,-2.75 2.38342,0.20168 3.59695,0.85091 3.82333,2.04546 0.20418,1.07742 -0.2851,1.75 -1.27307,1.75 -0.88259,0 -1.86373,0.675 -2.18031,1.5 -0.53067,1.3829 -3.19954,2.14836 -3.48663,1 z"
         id="path1248"
         inkscape:connector-curvature="0" />
      <path
         style="fill:#52422b"
         d="m 274.16586,343.39475 c -1.65,-0.44211 -5.0824,-0.85708 -7.62756,-0.92216 -5.52177,-0.14117 -8.186,-2.34495 -4.93701,-4.08375 3.02321,-1.61798 2.55006,-3.98746 -0.93543,-4.68456 -1.65,-0.33 -3,-1.14031 -3,-1.80069 0,-1.82018 4.03389,-5.16549 8.39751,-6.96407 2.14364,-0.88355 4.4013,-2.29542 5.01704,-3.13749 0.61573,-0.84206 2.23685,-2.10111 3.60248,-2.79788 1.36563,-0.69677 2.42047,-2.02803 2.34408,-2.95836 -0.18964,-2.30963 2.3285,-2.14 3.60371,0.24275 0.56935,1.06384 1.03518,3.98884 1.03518,6.5 0,4.90208 0.53274,5.37012 3.55887,3.12664 1.64558,-1.21998 1.75235,-1.74835 0.70125,-3.47023 -1.05586,-1.72966 -0.95491,-2.18365 0.68016,-3.05871 1.05602,-0.56517 2.06397,-2.04106 2.23988,-3.27977 0.24524,-1.72691 1.07784,-2.32528 3.56984,-2.56555 1.7875,-0.17235 3.25,-0.49781 3.25,-0.72325 0,-0.22544 -0.98067,-2.4284 -2.17927,-4.89548 -1.82131,-3.7488 -1.98798,-4.90541 -1.01473,-7.04148 0.6405,-1.40574 2.29434,-3.07066 3.67521,-3.69982 2.07368,-0.94483 2.85299,-0.83414 4.47748,0.63601 1.84391,1.66871 5.04587,1.55352 5.03757,-0.18124 -0.0129,-2.70342 -4.61378,-7.65949 -8.99479,-9.68924 -5.3951,-2.49959 -5.50878,-3.59214 -0.37376,-3.59214 6.06921,0 11.015,7.51392 9.79541,14.88171 -0.42046,2.54006 -0.8206,6.95613 -0.88921,9.81348 -0.0767,3.19321 -0.74185,5.89069 -1.72615,7 -0.88078,0.99265 -2.33158,4.72981 -3.22401,8.30481 -2.21061,8.85551 -7.90003,17.13024 -12.58375,18.30187 -5.42346,1.35668 -10.21492,1.61883 -13.5,0.7386 z m 5.5,-11.48145 c 0,-0.24254 -0.45,-0.7191 -1,-1.05902 -0.55,-0.33992 -1,-0.14148 -1,0.44098 0,0.58246 0.45,1.05902 1,1.05902 0.55,0 1,-0.19844 1,-0.44098 z M 152.19263,302.39759 c -1.74301,-2.82024 6.77442,-6.51449 13.53539,-5.87068 6.16427,0.58699 4.1933,2.6698 -4.56216,4.82103 -2.75,0.67568 -5.73671,1.44272 -6.63714,1.70454 -0.90043,0.26182 -1.95167,-0.0329 -2.33609,-0.65489 z m 154.73229,-11.77167 c -1.23252,-2.20644 -2.92002,-4.5753 -3.75,-5.26412 -1.91102,-1.586 -1.93935,-3.00752 -0.06,-3.00752 2.38737,0 6.73612,6.53751 6.37318,9.58085 -0.3165,2.65399 -0.36252,2.63049 -2.56323,-1.30921 z M 178.688,288.38913 c -1.19281,-0.75428 -0.52082,-1.81318 3.48401,-5.49002 2.72903,-2.50552 5.41907,-4.40382 5.97786,-4.21845 0.55879,0.18538 1.43806,1.53125 1.95393,2.99083 1.82905,5.17505 -6.29511,9.95572 -11.4158,6.71764 z m 130.27755,-9.40804 c -0.80913,-1.3894 -10.74177,-6.80041 -11.4279,-6.22558 -0.20448,0.17132 -1.93273,0.60956 -3.84054,0.97388 -2.72738,0.52082 -3.20829,0.40193 -2.25012,-0.55624 1.09168,-1.09168 9.54524,-3.7804 13.10446,-4.16799 1.53661,-0.16732 4.40848,4.34964 5.46731,8.59912 0.73648,2.9558 0.24244,3.60164 -1.05321,1.37681 z m -137.77769,-5.59121 c -0.32781,-0.53042 1.55813,-2.05678 4.19099,-3.39191 2.63285,-1.33514 5.64425,-3.37616 6.692,-4.5356 2.72868,-3.01961 3.90058,-2.59967 2.15661,0.77279 -3.0365,5.87194 -11.09849,10.29549 -13.0396,7.15472 z m 24.42228,-6.55678 c -3.62494,-2.65342 -5.82375,-6.46601 -5.89918,-10.22882 -0.0577,-2.87746 1.37988,-2.83649 8.33047,0.23739 3.76938,1.667 5.6232,3.06874 5.62069,4.25 -0.003,1.56972 -3.47612,8.26261 -4.28728,8.26261 -0.17623,0 -1.87035,-1.13453 -3.7647,-2.52118 z m 103.9122,-12.20432 c -1.58421,-0.36642 -3.11888,-4.67877 -2.04665,-5.751 1.46619,-1.46619 4.20963,-0.29416 4.7979,2.04972 0.72499,2.8886 -0.30044,4.26813 -2.75125,3.70128 z m -24.18981,-22.94117 c -0.36667,-0.36666 -0.66667,-1.13166 -0.66667,-1.7 0,-0.6266 0.46577,-0.56756 1.18333,0.15 0.65084,0.65084 0.95084,1.41584 0.66667,1.7 -0.28417,0.28417 -0.81667,0.21667 -1.18333,-0.15 z m 20,-2 c -1.25798,-1.25797 -0.66657,-4.33333 0.83333,-4.33333 0.93333,0 1.5,0.94444 1.5,2.5 0,2.42787 -0.97373,3.19294 -2.33333,1.83333 z m -87.07827,-9.1903 c -0.9073,-1.46804 0.44093,-4.14303 2.08814,-4.14303 0.93253,0 1.34676,0.78701 1.14301,2.17167 -0.34608,2.35195 -2.27035,3.52597 -3.23115,1.97136 z m 72.71133,-61.64303 c 1.70834,-6.64234 1.69509,-7.889 -0.12586,-11.84544 -1.05168,-2.28501 -2.46943,-5.6021 -3.15055,-7.37131 -0.68113,-1.76921 -2.09002,-3.48703 -3.13087,-3.81739 -1.33047,-0.42227 -1.89597,-1.54574 -1.90432,-3.78325 -0.0178,-4.78157 -2.50876,-13.20066 -4.89866,-16.55696 -1.35909,-1.90867 -3.9001,-3.56631 -7.09194,-4.62647 -2.7357,-0.90866 -5.22341,-2.05565 -5.52825,-2.54888 -0.30483,-0.49323 -2.13868,-1.64865 -4.07522,-2.56759 -4.64067,-2.20215 -18.83853,-1.36133 -24.52566,1.45244 -8.72642,4.31749 -1.92938,-5.94811 6.99842,-10.569742 5.4134,-2.802344 7.33074,-3.265409 13.52055,-3.265409 10.08417,0 11.57008,-2.090888 7.63956,-10.75 -2.43662,-5.367984 -0.89365,-5.516817 2.59177,-0.25 2.83783,4.288253 4.71805,4.910205 7.42853,2.457256 2.13318,-1.930497 7.95458,-2.926215 11.64848,-1.992406 2.69923,0.682356 2.61711,0.771222 -2.19199,2.372032 -3.06548,1.020408 -5.12042,2.327735 -5.31751,3.382924 -0.27516,1.473169 0.48065,1.698708 5.27031,1.57269 6.2831,-0.165311 9.44651,1.54507 13.28302,7.18182 3.18023,4.672505 4.38659,9.293705 4.9718,19.045395 0.41244,6.87268 0.10391,9.83863 -1.59596,15.34214 -2.17459,7.04051 -2.04434,10.27171 0.58349,14.47491 2.04434,3.26992 0.77725,3.95916 -2.17672,1.18405 -2.71735,-2.55282 -2.44867,-2.88444 -4.43917,5.47919 -0.65449,2.75 -1.8892,5.675 -2.7438,6.5 -1.38914,1.34101 -1.49931,1.28802 -1.03945,-0.5 z m -64.06773,-13.5 c 0,-1.925 0.2058,-2.7125 0.45733,-1.75 0.25152,0.9625 0.25152,2.5375 0,3.5 -0.25153,0.9625 -0.45733,0.175 -0.45733,-1.75 z m 8.23916,-3.04666 c -0.33014,-0.53418 -0.30756,-1.89344 0.0502,-3.02059 0.77031,-2.42701 4.78918,-2.32078 5.25744,0.13897 0.34917,1.83418 -4.3711,4.39693 -5.30761,2.88162 z m 25.40384,0.54666 c -0.0687,-0.275 -0.18125,-1.87046 -0.25,-3.54546 -0.11857,-2.88869 0.0547,-3.03025 3.36668,-2.75 2.38342,0.20168 3.59695,0.85091 3.82333,2.04546 0.20418,1.07742 -0.2851,1.75 -1.27307,1.75 -0.88259,0 -1.86373,0.675 -2.18031,1.5 -0.53067,1.3829 -3.19954,2.14836 -3.48663,1 z"
         id="path1246"
         inkscape:connector-curvature="0" />
    </g>
  </g>
</svg>
