<?xml version="1.0" encoding="UTF-8" standalone="no"?>
<!-- Created with Inkscape (http://www.inkscape.org/) -->

<svg
   xmlns:dc="http://purl.org/dc/elements/1.1/"
   xmlns:cc="http://creativecommons.org/ns#"
   xmlns:rdf="http://www.w3.org/1999/02/22-rdf-syntax-ns#"
   xmlns:svg="http://www.w3.org/2000/svg"
   xmlns="http://www.w3.org/2000/svg"
   xmlns:sodipodi="http://sodipodi.sourceforge.net/DTD/sodipodi-0.dtd"
   xmlns:inkscape="http://www.inkscape.org/namespaces/inkscape"
   width="210mm"
   height="297mm"
   viewBox="0 0 210 297"
   version="1.1"
   id="svg8"
   inkscape:version="0.92.5 (0.92.5+69)"
   sodipodi:docname="cow.svg">
  <defs
     id="defs2" />
  <sodipodi:namedview
     id="base"
     pagecolor="#ffffff"
     bordercolor="#666666"
     borderopacity="1.0"
     inkscape:pageopacity="0.0"
     inkscape:pageshadow="2"
     inkscape:zoom="1.3232369"
     inkscape:cx="304.20499"
     inkscape:cy="355.9096"
     inkscape:document-units="mm"
     inkscape:current-layer="layer1"
     showgrid="false"
     inkscape:window-width="1299"
     inkscape:window-height="713"
     inkscape:window-x="67"
     inkscape:window-y="27"
     inkscape:window-maximized="1" />
  <metadata
     id="metadata5">
    <rdf:RDF>
      <cc:Work
         rdf:about="">
        <dc:format>image/svg+xml</dc:format>
        <dc:type
           rdf:resource="http://purl.org/dc/dcmitype/StillImage" />
        <dc:title></dc:title>
      </cc:Work>
    </rdf:RDF>
  </metadata>
  <g
     inkscape:label="Layer 1"
     inkscape:groupmode="layer"
     id="layer1">
    <g
       id="g1205">
      <path
         style="fill:#d6d3c9;stroke-width:0.41496527"
         d="m 50.936812,292.43021 c -1.216808,-1.20183 -0.245695,-4.97129 2.758461,-10.7072 1.665616,-3.1802 6.210602,-18.2788 7.743645,-25.72464 0.886339,-4.30487 0.89017,-4.38408 0.914547,-18.91303 0.0224,-13.35596 0.09667,-15.26919 0.877902,-22.61932 0.829777,-7.80679 1.138685,-14.78874 0.706742,-15.9739 -0.117016,-0.32107 -1.028833,-0.58511 -2.026258,-0.58677 -4.044502,-0.007 -5.029793,-1.25456 -10.136173,-12.83707 -6.354877,-14.41442 -7.598131,-19.4568 -7.40845,-30.04717 l 0.116675,-6.51433 -2.139298,-0.15651 c -2.264608,-0.16567 -5.643931,-1.96218 -5.703199,-3.03193 -0.21937,-3.9594 1.478844,-11.5382 3.322605,-14.82814 0.97545,-1.74056 0.981084,-1.78279 0.443644,-3.32561 -0.895724,-2.57133 -0.709651,-4.77601 0.570963,-6.76512 0.613425,-0.95281 1.115318,-2.20602 1.115318,-2.78492 0,-0.5789 -0.658617,-2.77325 -1.463593,-4.87633 -1.092699,-2.85479 -1.897452,-4.26968 -3.175663,-5.58334 -1.664013,-1.71016 -1.759347,-1.74178 -3.396009,-1.12629 -1.69653,0.63802 -2.2776,0.94796 -5.189216,2.7679 -1.930127,1.20645 -3.568303,1.28905 -5.171813,0.26075 -0.660787,-0.42374 -2.70711,-0.87927 -4.547384,-1.01228 -3.046629,-0.2202 -3.480414,-0.12711 -4.849005,1.04064 -0.826679,0.70536 -1.973863,1.27867 -2.549298,1.27403 -1.696745,-0.0137 -4.7121043,-1.41099 -5.6896382,-2.63655 -0.4990639,-0.62569 -1.3211646,-1.13762 -1.8268904,-1.13762 -1.4497198,0 -2.0860797,-1.66436 -2.2327258,-5.83958 C 1.9328302,98.756568 1.7473034,96.897941 1.590419,96.615597 0.47321432,94.604969 2.1877193,89.241489 4.8334476,86.47045 5.3899182,85.887621 6.4386664,82.902594 8.0997352,77.173687 9.4453889,72.53263 10.546378,68.405743 10.546378,68.002836 c 0,-1.336362 -0.9686171,-4.689285 -1.4440493,-4.998659 -0.257987,-0.167877 -0.4679236,-0.98639 -0.4679236,-1.824361 0,-1.356529 -0.1798036,-1.618669 -1.6729766,-2.439092 C 5.1905848,57.767735 3.4662653,55.422203 2.7015264,52.946125 2.064875,50.88477 1.6229675,46.535857 1.9461151,45.51195 c 0.329442,-1.043851 3.309784,-2.690403 4.8697645,-2.690403 0.6340122,0 2.4620507,0.636873 4.0623074,1.415273 l 2.909558,1.415273 1.247276,-2.065313 c 1.424103,-2.358112 1.493695,-2.721268 0.612373,-3.195605 C 14.114836,39.566335 11.861478,35.798166 10.89418,32.442628 9.234201,26.684199 8.8172602,17.700039 10.081458,14.93025 c 0.454773,-0.996383 0.475352,-0.995722 0.942914,0.03032 0.262896,0.576912 0.479394,1.671166 0.481106,2.431674 0.0086,3.818766 3.029663,10.818349 5.855523,13.566809 2.055051,1.998763 2.673044,2.02174 2.942443,0.109401 0.288485,-2.04783 0.715057,-2.836954 1.533555,-2.836954 0.383202,0 0.975085,-0.345365 1.315296,-0.767478 0.458292,-0.568621 1.196531,-0.689047 2.8492,-0.46478 2.421689,0.328624 4.401371,1.689408 4.939821,3.395511 0.187291,0.593436 0.469218,1.078977 0.626505,1.078977 0.687166,0 0.60158,-2.516942 -0.323913,-9.525791 -0.73332,-5.5535 -0.961869,-8.487663 -0.881981,-11.323063 0.175715,-6.236528 1.764434,-7.5117783 2.292089,-1.8398391 0.124064,1.3336051 1.366712,6.2676681 2.761442,10.9645831 2.114442,7.120641 2.533993,8.961592 2.524576,11.07763 -0.0062,1.395781 -0.216225,3.145701 -0.4667,3.888713 -1.269834,3.766848 0.04601,3.57469 1.533336,-0.223919 0.925952,-2.364879 1.544967,-3.259201 3.228892,-4.664969 2.655785,-2.217094 5.793257,-2.728804 7.506267,-1.224246 1.054131,0.925859 1.114272,1.127819 1.096284,3.681459 -0.01287,1.826563 -0.402308,4.277398 -1.202125,7.565211 -0.650698,2.674842 -1.215725,5.084917 -1.255615,5.355722 -0.09387,0.637274 4.78428,2.05921 12.163923,3.545671 3.224759,0.649556 6.953107,1.670777 8.285217,2.26938 4.109809,1.846806 4.535548,1.979559 8.635927,2.692834 4.549142,0.791338 30.44949,0.776019 31.03619,-0.01836 0.58347,-0.78999 18.42676,-1.29819 21.85524,-0.622465 4.43832,0.874754 9.4737,2.675558 11.53022,4.123543 2.1591,1.52022 8.21488,3.404018 11.10129,3.453327 1.13922,0.01945 3.79208,-0.263453 5.89525,-0.628696 2.23063,-0.387382 8.40474,-0.663604 14.81779,-0.662934 8.94222,0.0011 11.57784,0.173735 14.12319,0.925955 3.73568,1.104002 6.63751,2.669347 8.24546,4.447874 2.19381,2.426541 5.3324,8.43307 6.48138,12.403827 1.61272,5.573399 1.86779,10.450998 1.44545,27.641323 -0.84341,34.32885 -0.21593,51.09007 2.57619,68.81511 1.39145,8.83324 1.5603,10.42069 1.75308,16.48136 0.14632,4.6 0.0751,5.83431 -0.47907,8.29879 -1.22261,5.43742 -2.89221,8.22533 -3.36316,5.61579 -0.57972,-3.21232 -1.46559,-18.55605 -1.46559,-25.38479 0,-7.25211 -0.12804,-8.95791 -1.72921,-23.03803 -2.58195,-22.70462 -3.1527,-30.12035 -2.89633,-37.63145 0.13698,-4.01324 0.10276,-6.02289 -0.0966,-5.67391 -0.50758,0.88846 -1.55874,9.1188 -2.45003,19.18321 -0.46061,5.20109 -1.18328,12.61769 -1.60595,16.48136 -1.45056,13.25981 -2.1461,22.65166 -2.18102,29.45028 -0.041,7.98402 0.0976,8.68946 4.23596,21.55023 3.17988,9.88223 3.32827,11.18088 2.07582,18.16712 -0.81653,4.5547 -0.8865,5.75501 -1.10266,18.91303 -0.15133,9.2123 -0.41353,15.72415 -0.76153,18.91303 -0.44768,4.10236 -0.58633,8.72081 -0.45988,15.31936 0.0141,0.7357 -0.4021,2.01576 -0.98964,3.0437 -0.8435,1.47578 -1.05857,2.38381 -1.27924,5.40115 -0.1812,2.47763 -0.47584,4.00723 -0.92973,4.82652 -0.36546,0.65967 -0.66447,1.49737 -0.66447,1.86156 0,0.36419 -0.2882,1.62013 -0.64045,2.79099 -1.0001,3.32429 -1.82943,3.77221 -6.98427,3.77221 -4.38665,0 -4.47922,-0.0245 -4.97915,-1.31836 -0.46977,-1.21578 -0.46548,-1.47533 0.0551,-3.33569 0.31049,-1.10953 1.37777,-3.49507 2.37174,-5.3012 2.53691,-4.6098 4.9493,-11.08416 5.40191,-14.49769 0.57077,-4.30458 0.80437,-25.10312 0.3344,-29.77265 -1.00741,-10.00948 -2.67146,-17.37399 -4.78345,-21.16983 -0.83936,-1.50858 -1.98489,-4.4505 -2.57753,-6.61956 -0.58669,-2.14731 -1.16436,-3.9042 -1.28369,-3.9042 -0.11934,0 -0.31302,1.01859 -0.43042,2.26354 -0.31345,3.32398 -1.8397,7.79494 -4.70406,13.77995 -6.23986,13.03803 -9.36127,22.05524 -10.94003,31.60388 -0.76391,4.62027 -1.64735,6.50881 -3.51279,7.50935 -1.50856,0.80912 -1.64,1.0393 -2.77719,4.86335 -0.65653,2.20772 -1.33816,4.89417 -1.51473,5.96989 -0.78338,4.77257 -2.34746,6.01761 -7.66132,6.09856 -3.73489,0.0569 -5.08538,-0.76053 -5.08538,-3.07808 0,-1.81196 1.40982,-4.9865 3.37764,-7.60554 2.57989,-3.43368 5.67089,-9.98718 6.32703,-13.41448 0.62026,-3.23988 0.80108,-3.78008 4.72975,-14.13022 3.75026,-9.88008 5.85301,-19.84803 6.04668,-28.66382 0.0667,-3.03684 0.0209,-3.29061 -0.56471,-3.12691 -0.35053,0.098 -1.1442,1.16446 -1.7637,2.36992 -0.90591,1.7628 -1.26453,2.1174 -1.8323,1.81182 -0.59847,-0.3221 -0.79448,-0.94357 -0.7786,-2.4686 0.002,-0.1486 0.10676,-1.10019 0.23381,-2.11463 l 0.23101,-1.84445 -0.87638,1.16898 c -2.2054,2.94174 -3.57502,-0.1851 -1.90575,-4.35082 0.43816,-1.09344 0.79666,-2.24593 0.79666,-2.56109 0,-0.50418 -2.40215,-6.6925 -4.27059,-11.00172 -0.7851,-1.81071 -2.41883,-3.61777 -3.25559,-3.601 -0.32984,0.007 -0.95821,0.50969 -1.39637,1.11795 -4.51694,6.27058 -9.42843,9.56917 -14.97712,10.05877 -5.10863,0.45076 -7.43657,-0.0754 -31.38823,-7.09474 -2.453695,-0.71908 -5.268581,-1.47244 -6.2553,-1.67412 l -1.794036,-0.3667 -0.350082,3.43148 c -2.025169,19.85045 -2.414979,29.12481 -1.809215,43.04471 0.267632,6.14996 0.605854,12.4222 0.751597,13.93829 0.304189,3.16427 0.04182,4.84243 -0.830488,5.31192 -0.726253,0.39087 -1.261427,2.21719 -1.551678,5.29519 -0.344355,3.65176 -1.497964,8.07556 -2.405533,9.22459 -0.719064,0.91039 -1.357211,1.07016 -4.293772,1.07507 -3.803979,0.006 -5.621071,-0.84611 -5.918794,-2.77672 -0.28524,-1.84966 1.136375,-5.44484 3.376545,-8.53907 1.656591,-2.28817 3.559349,-9.30543 3.992318,-14.72343 0.5121,-6.40823 -0.282239,-16.2907 -2.024177,-25.18306 -0.781494,-3.98941 -1.152636,-7.1685 -1.418044,-12.14644 -0.197723,-3.70849 -0.481263,-6.9492 -0.630084,-7.20156 -0.502852,-0.85272 -1.585536,2.65485 -3.484998,11.2903 -2.464798,11.20563 -3.203075,15.51116 -3.553744,20.72497 -0.158435,2.35565 -0.863842,7.39946 -1.567575,11.20847 -1.64452,8.90112 -1.861854,10.63394 -2.588726,20.64028 -0.778658,10.71923 -0.959737,11.60586 -2.729469,13.36459 -1.611029,1.60099 -2.038887,2.66445 -2.038887,5.06768 0,1.15387 -0.286959,2.14716 -0.907904,3.14267 -0.512383,0.82146 -1.083767,2.56196 -1.311594,3.99527 -0.45332,2.85192 -0.956927,3.78387 -2.52832,4.6788 -1.337247,0.76156 -7.63435,0.78649 -8.396998,0.0332 z m -8.842876,-167.4402 c 0,-0.27966 -0.143398,-0.65877 -0.318662,-0.84245 -0.175264,-0.18368 -0.318662,0.0451 -0.318662,0.50848 0,0.46335 0.143398,0.84245 0.318662,0.84245 0.175264,0 0.318662,-0.22882 0.318662,-0.50848 z"
         id="path1219"
         inkscape:connector-curvature="0" />
      <path
         style="fill:#b1a396;stroke-width:0.41496527"
         d="m 51.414805,292.45665 c -1.313324,-0.89517 -0.753534,-3.72612 1.796159,-9.0835 1.112192,-2.33692 1.122427,-2.34439 2.738433,-2.00201 1.373648,0.29103 1.790143,0.1516 2.719495,-0.91043 0.603585,-0.68976 1.504255,-2.28132 2.001495,-3.5368 0.875999,-2.21182 0.957446,-2.2827 2.623234,-2.2827 3.391831,0 3.890757,-2.72534 3.215078,-17.5621 -0.338361,-7.42979 -0.07488,-9.21106 2.200812,-14.87836 2.746897,-6.8408 2.662397,-6.33411 2.616332,-15.68886 -0.04275,-8.68112 0.243897,-11.61862 1.954055,-20.0245 0.60325,-2.96514 0.603916,-3.07674 0.02753,-4.59316 -0.324911,-0.85481 -1.780796,-3.26818 -3.235295,-5.36304 -1.454501,-2.09488 -2.923257,-4.67975 -3.263907,-5.74417 -0.595965,-1.86221 -0.598036,-1.9905 -0.05482,-3.39636 1.223946,-3.16763 4.673777,-4.37757 7.622941,-2.67353 2.471997,1.42832 2.445474,0.6581 -0.126085,-3.6617 -4.065116,-6.82873 -4.814106,-11.32233 -2.906155,-17.43565 0.960088,-3.07625 0.980052,-3.26523 0.455751,-4.31414 -1.545368,-3.09165 -3.330476,-3.32653 -6.120013,-0.80528 -3.204795,2.89658 -3.816875,4.06967 -4.218762,8.08549 -0.396273,3.95973 -0.03809,8.28864 1.675102,20.24488 0.511032,3.56646 0.968666,7.33555 1.016966,8.37577 l 0.08782,1.8913 -2.650668,-0.0586 c -3.658178,-0.0808 -4.318003,-0.94795 -9.347892,-12.28438 -6.516215,-14.6863 -7.280513,-17.76747 -7.280513,-29.35029 v -7.7508 h -2.003872 c -2.187186,0 -5.291134,-1.55834 -5.793575,-2.90866 -0.720218,-1.93562 2.355414,-13.77897 3.826973,-14.73654 0.6522,-0.4244 0.57929,-1.59026 -0.213111,-3.40773 -0.870041,-1.99555 -0.628358,-3.78593 0.849298,-6.29167 0.607007,-1.02934 1.103651,-2.01176 1.103651,-2.18315 0,-0.74603 -2.027797,-6.66923 -2.891512,-8.4461 -1.299718,-2.67383 -4.348783,-5.61008 -5.052143,-4.86521 -0.28897,0.30602 -1.145499,0.73406 -1.903395,0.9512 -0.757897,0.21713 -2.114664,0.9591 -3.015037,1.64882 -2.292719,1.7563 -4.235986,2.14294 -5.78885,1.15177 -0.695997,-0.44425 -2.87075,-0.94366 -4.832783,-1.10982 -3.375111,-0.28582 -3.641258,-0.23043 -4.939264,1.02796 -0.754562,0.73153 -1.873824,1.32919 -2.487249,1.32812 -1.776342,-0.003 -4.6357421,-1.33538 -5.5858057,-2.60265 -0.4866074,-0.64908 -1.3309953,-1.165 -1.9067118,-1.165 -1.3715674,0 -1.7558749,-0.92254 -2.0741018,-4.97892 C 2.1078406,99.197906 1.8163519,96.939615 1.606655,96.047752 1.0863911,93.835015 1.9647588,90.78945 3.749422,88.618132 c 1.1822612,-1.438401 1.6534941,-1.648227 4.269734,-1.901181 3.873939,-0.374564 4.519214,0.211691 6.856243,6.229141 0.972431,2.503841 1.845536,4.894826 1.940233,5.313301 0.449768,1.987557 2.462459,-0.05182 2.835282,-2.872905 0.109013,-0.824873 0.693026,-2.238886 1.297807,-3.142248 l 1.099602,-1.642477 -0.870999,-2.6805 c -0.47905,-1.474276 -1.489609,-3.861846 -2.245688,-5.305709 -1.703254,-3.252663 -1.770777,-5.012471 -0.463612,-12.082679 0.891039,-4.819461 0.897927,-4.950139 0.313202,-5.941689 -0.328832,-0.557616 -0.706935,-2.097179 -0.840231,-3.421253 -0.137683,-1.367661 -0.410583,-2.384068 -0.631864,-2.35337 -0.21423,0.02972 -1.161543,0.09051 -2.10514,0.135093 l -1.715632,0.08106 -0.722346,3.10714 c -0.933733,4.016403 -1.379575,4.875724 -2.044311,3.940205 -0.271692,-0.382368 -0.493986,-0.997392 -0.493986,-1.366731 0,-0.369334 -0.2961145,-1.309878 -0.6580326,-2.090106 C 9.2077657,61.842999 8.9910898,60.986671 9.0881817,60.720273 9.3490433,60.004528 8.6833175,59.250758 6.6521216,57.962039 5.5645135,57.271993 4.4944634,56.120228 3.9825817,55.088639 2.8985701,52.904045 1.9424989,49.14717 1.9424989,47.072151 c 0,-1.342527 0.1946695,-1.741819 1.1946134,-2.45031 2.189714,-1.551479 4.4477578,-1.538533 7.5054807,0.04303 2.737717,1.416046 3.497424,2.556626 2.176447,3.26759 -0.97164,0.522948 -1.715294,2.256561 -1.488276,3.469483 0.112478,0.600952 0.708548,1.620893 1.3246,2.266536 1.471028,1.541685 2.904857,1.195806 5.310162,-1.280953 2.456081,-2.529044 2.6392,-2.813842 3.930664,-6.113221 0.61223,-1.564099 2.073177,-4.546334 3.246549,-6.627189 2.52028,-4.469454 3.780138,-5.241153 5.59392,-3.426431 0.594442,0.594751 1.888904,1.479733 2.87658,1.966627 1.013792,0.499767 1.9664,1.348556 2.1876,1.949188 0.633309,1.719648 1.046018,1.275435 2.433868,-2.619656 0.721869,-2.02597 1.706258,-4.323024 2.18753,-5.104564 2.778626,-4.512208 9.410544,-5.607306 10.286897,-1.698629 0.313303,1.397386 -0.95577,8.340258 -2.423834,13.260346 l -0.74696,2.503385 1.181409,0.03766 c 0.649777,0.02071 1.898401,0.411354 2.774722,0.868093 0.876321,0.456739 2.289805,0.833066 3.141076,0.836283 2.449253,0.0093 11.609201,2.178492 14.064299,3.330673 4.005657,1.87986 6.298222,2.519891 11.314892,3.158859 8.838826,1.125792 11.266305,2.625625 15.717197,9.710953 2.992248,4.763337 4.776445,9.159249 5.325575,13.121171 0.79626,5.744972 1.4866,6.889129 4.15663,6.889129 1.31254,0 2.33479,-0.534687 4.88055,-2.552761 3.19439,-2.532265 3.24711,-2.55281 6.5662,-2.558808 4.97066,-0.009 8.64035,2.447286 11.55761,7.735979 4.23336,7.67463 4.85659,18.180996 1.81374,30.575686 -0.55921,2.27785 -0.93504,4.28009 -0.83519,4.4494 0.37579,0.63726 7.32286,-7.38337 8.49555,-9.8084 0.29951,-0.61938 0.48886,-2.21851 0.50709,-4.28279 0.0487,-5.50946 1.13619,-7.85455 5.54749,-11.962297 3.80815,-3.546112 4.69865,-4.7983 5.08351,-7.148232 0.54708,-3.340408 0.42104,-4.866246 -0.48515,-5.873106 -0.76017,-0.844628 -0.9868,-0.848081 -3.16071,-0.04809 -1.28801,0.473977 -3.4398,1.607316 -4.78178,2.518534 -1.34197,0.911214 -2.75176,1.655398 -3.13286,1.653739 -1.39719,-0.0061 -3.065,-1.157347 -5.95171,-4.108412 -2.30227,-2.353585 -3.66477,-3.320878 -6.17675,-4.385109 -4.09004,-1.732795 -4.58254,-2.177387 -7.67904,-6.93211 -1.40494,-2.157301 -3.62632,-5.477829 -4.93639,-7.378945 -2.69206,-3.906588 -4.50918,-8.710117 -3.76324,-9.948055 0.59914,-0.994333 17.52164,-1.613866 21.73441,-0.795697 6.61541,1.284787 9.25057,2.507268 14.04636,6.51628 4.88451,4.083168 7.18456,5.420173 9.32437,5.420173 1.36547,0 1.39648,-0.03842 1.20762,-1.496539 -0.36883,-2.847605 0.10488,-3.140059 6.19778,-3.826365 11.44134,-1.288752 23.71291,-0.63264 29.25152,1.563967 4.04135,1.602793 5.71792,3.195399 8.4284,8.006289 4.79052,8.502805 5.28556,12.381991 4.715,36.946675 -0.72105,31.0437 -0.3052,48.71315 1.45955,62.01705 0.68423,5.15825 2.36203,15.24138 2.73387,16.42993 0.17712,0.56613 0.39307,2.87622 0.47989,5.13354 0.14909,3.87625 0.0956,4.31431 -0.96403,7.88682 -1.31497,4.43363 -1.99336,6.08373 -2.29256,5.57636 -0.58092,-0.9851 -1.48799,-15.24041 -1.48949,-23.40864 -0.002,-8.28065 -0.0799,-9.34234 -1.85418,-25.12731 -1.01892,-9.06474 -1.95161,-17.81877 -2.07265,-19.4534 -0.12104,-1.63462 -0.43344,-4.55262 -0.69421,-6.48446 -0.36529,-2.70602 -0.43466,-5.68348 -0.30216,-12.96893 0.0946,-5.20108 0.0937,-8.97018 -0.002,-8.37577 -0.0956,0.59441 -0.51263,2.9045 -0.92663,5.13354 -0.84378,4.54294 -1.62443,11.47703 -2.85578,25.36634 -0.45958,5.18395 -0.96667,9.84064 -1.12685,10.3482 -0.52333,1.65818 -2.24228,23.72099 -2.2639,29.05727 -0.0313,7.72143 0.64524,11.09205 4.51567,22.49829 2.93877,8.66063 2.95519,8.9049 1.30409,19.40474 -0.58035,3.69063 -0.67214,5.7937 -0.67219,15.40061 -5e-5,8.92519 -0.13549,12.46254 -0.6846,17.88094 -0.41444,4.08952 -0.68002,8.99251 -0.67309,12.42641 0.0111,5.48835 -0.0182,5.72895 -0.90411,7.44002 -0.93562,1.80703 -1.05939,2.39059 -1.39667,6.58499 -0.10635,1.32268 -0.31646,2.6601 -0.4669,2.97206 -0.15044,0.31195 -0.43472,1.58958 -0.63173,2.83918 -0.47664,3.02326 -1.71069,5.40695 -3.15021,6.08495 -1.27476,0.60037 -7.33462,0.76763 -8.16786,0.22543 -1.63018,-1.06079 -0.96634,-4.83985 1.62087,-9.22711 1.11723,-1.89454 1.5885,-2.35696 2.12901,-2.08901 2.33949,1.15976 2.71621,1.05678 4.11877,-1.12599 0.74544,-1.1601 1.89086,-2.79836 2.54538,-3.64058 0.65452,-0.84222 1.51491,-2.41721 1.91197,-3.49997 0.70474,-1.92175 0.72625,-2.42564 0.90312,-21.15187 0.16717,-17.70083 0.23489,-19.47538 0.87632,-22.96409 0.82348,-4.47893 0.9151,-9.00804 0.20654,-10.2096 -0.32354,-0.54863 -1.06372,-0.8169 -2.1909,-0.79407 -2.99409,0.0606 -3.4911,-1.11151 -3.81268,-8.99182 -0.45014,-11.03109 -4.883,-24.87834 -8.31354,-25.96968 -3.80347,-1.20998 -4.86526,5.48475 -2.61418,16.48281 0.98409,4.80801 1.09131,5.76805 0.72414,6.48447 -0.23704,0.4625 -0.50327,1.99557 -0.59162,3.40683 -0.2151,3.43579 -1.54477,7.03033 -5.81714,15.7257 -4.81168,9.79299 -8.16224,19.67757 -9.84926,29.05658 -0.9254,5.14474 -1.55501,6.43582 -3.62651,7.43647 -1.27738,0.61705 -1.43898,0.91884 -2.43639,4.54988 -0.58754,2.13895 -1.15534,4.74007 -1.26177,5.7803 -0.54012,5.27901 -2.0443,6.61972 -7.52088,6.70347 -3.72402,0.057 -4.77993,-0.52364 -4.77993,-2.62824 0,-1.95101 2.37139,-6.43347 4.46068,-8.43169 1.38787,-1.32739 5.06651,-9.13333 5.45792,-11.58149 0.49876,-3.11965 1.28557,-5.54783 4.60528,-14.2125 2.25108,-5.87548 3.19323,-8.9158 3.93515,-12.69874 2.02635,-10.33199 2.84697,-20.02243 1.7557,-20.73254 -0.757,-0.49259 -1.92366,0.63647 -2.56751,2.48477 -0.38811,1.11413 -0.82648,1.65602 -1.33969,1.65602 -0.81628,0 -0.81855,-0.0614 -0.19405,-5.26863 0.26051,-2.17218 0.0388,-2.19446 -1.34438,-0.1351 -1.23062,1.83227 -1.47192,1.93578 -1.9995,0.85778 -0.38894,-0.79469 -0.0194,-2.65844 1.13458,-5.7215 0.49539,-1.31498 0.45884,-1.47401 -1.35997,-5.91772 -2.47373,-6.04381 -4.50538,-9.66078 -5.76298,-10.25985 -0.93498,-0.4454 -1.21762,-0.24807 -3.18662,2.22475 -5.06115,6.35618 -9.09099,8.54947 -15.70833,8.54947 -5.04732,0 -7.06427,-0.44222 -23.47977,-5.14802 -6.71111,-1.92387 -12.686452,-3.49793 -13.278526,-3.49793 -1.234784,0 -0.970582,-1.55236 -2.272995,13.35514 -1.332435,15.25107 -1.583599,22.57545 -1.148708,33.49804 0.210572,5.28864 0.540952,11.42721 0.734173,13.64126 0.287022,3.28885 0.272912,4.06986 -0.0771,4.26771 -1.002562,0.5667 -1.855748,2.74666 -2.067754,5.28329 -0.36874,4.41193 -1.42907,9.37239 -2.1732,10.16671 -1.004643,1.07241 -4.545362,1.52742 -6.909884,0.88796 -2.233267,-0.60395 -3.244469,-1.91263 -2.950554,-3.81854 0.235011,-1.52394 2.454228,-5.66654 3.77986,-7.05585 1.755258,-1.83957 3.556375,-8.74036 4.113435,-15.76018 0.418247,-5.27062 -0.917521,-19.26341 -2.387991,-25.01526 -0.47829,-1.87087 -0.833219,-5.0955 -1.154006,-10.48449 -0.465238,-7.81562 -0.763152,-9.78262 -1.480594,-9.77577 -0.392034,0.004 -1.821097,3.17954 -1.821097,4.04702 0,0.25928 -0.278004,1.46007 -0.617788,2.66842 -2.179407,7.75051 -4.752607,21.33432 -5.141885,27.14381 -0.165182,2.46514 -0.733337,6.73618 -1.262565,9.49122 -1.847725,9.61879 -2.290248,13.2276 -3.198464,26.08366 -0.434562,6.15141 -0.922081,8.21513 -2.05453,8.69711 -1.25151,0.53265 -2.383229,3.20785 -2.383229,5.63357 0,1.49856 -0.186029,2.31035 -0.657869,2.87077 -0.40522,0.4813 -0.817059,1.94267 -1.072388,3.80525 -0.488531,3.5638 -0.868975,4.45607 -2.346236,5.50276 -1.237569,0.87685 -6.765909,1.03126 -7.953006,0.22212 z m 60.418125,-121.6115 c 1.08115,-0.91615 2.11113,-2.12641 2.28883,-2.68948 0.45381,-1.4379 -0.45777,-2.84454 -2.60078,-4.01322 -5.96041,-3.25045 -10.31913,-7.44617 -15.760827,-15.17142 l -3.852311,-5.4689 -2.262852,-0.35663 c -1.244567,-0.19614 -2.338251,-0.14975 -2.430405,0.1031 -0.09215,0.25285 0.264885,1.45687 0.793421,2.67561 0.528533,1.21873 1.327955,3.74739 1.776491,5.61925 2.769283,11.55697 5.20267,15.70585 11.261943,19.20142 2.52723,1.45794 3.50579,1.74804 5.92402,1.75621 2.60451,0.009 3.09503,-0.15826 4.86247,-1.65594 z M 45.276208,131.84786 c -0.0074,-2.07707 -0.368867,-3.64751 -0.839474,-3.64751 -0.739169,0 -0.843508,1.45465 -0.230549,3.21425 0.680503,1.95352 1.076037,2.11367 1.070023,0.43326 z m -2.717331,-5.75858 c 0.59231,-0.3928 0.578815,-0.49108 -0.26362,-1.91964 -1.083677,-1.83765 -1.823324,-1.2043 -1.219227,1.044 0.390763,1.45434 0.506842,1.52289 1.482847,0.87564 z M 180.95966,111.719 c 1.0401,-3.56646 2.6416,-9.52406 3.5589,-13.239119 1.25486,-5.0822 1.95662,-7.199211 2.83424,-8.550131 1.34093,-2.064108 4.72671,-4.864517 7.61933,-6.30202 1.0954,-0.544365 1.99164,-1.291603 1.99164,-1.660531 0,-2.480952 -7.83108,-10.798647 -10.51157,-11.164743 l -1.11102,-0.151742 -0.40158,6.445278 c -0.62361,10.009206 -1.60743,12.353854 -6.53187,15.566923 -1.05006,0.685143 -3.0441,2.789493 -4.53033,4.780975 -3.26188,4.37075 -4.23095,5.08878 -6.86788,5.08878 -1.67585,0 -2.4888,-0.33529 -4.25805,-1.75621 -1.20271,-0.965913 -2.36742,-1.756207 -2.58824,-1.756207 -0.22233,0 -0.49291,0.96946 -0.60635,2.172557 -0.24441,2.59185 0.28168,4.61304 1.74374,6.69922 1.4833,2.11649 2.70705,2.82089 7.04967,4.05783 2.15444,0.61365 4.4353,1.36213 5.06858,1.66328 1.41327,0.67206 3.61823,3.12866 4.3088,4.80056 0.69654,1.68633 0.92705,1.20884 3.23199,-6.6947 z m -116.811253,2.43167 c 0.299625,-1.04021 0.78258,-3.46815 1.073232,-5.39542 0.814118,-5.39825 0.474054,-8.848554 -1.540442,-15.629328 l -1.670873,-5.624145 0.05415,-5.048205 c 0.06142,-5.725779 -0.368944,-6.606845 -1.458367,-2.985659 -0.341281,1.134397 -0.855544,2.393319 -1.142806,2.797593 -0.935037,1.315925 -1.436258,3.672412 -1.436258,6.752555 0,1.987268 -0.225444,3.769777 -0.659092,5.211193 -0.568936,1.891113 -0.614046,2.534934 -0.329803,4.706728 0.181109,1.383768 0.46316,4.398918 0.62678,6.700328 0.351622,4.94577 1.132293,7.78264 2.610325,9.48561 1.623788,1.87091 3.16588,1.48421 3.873151,-0.97125 z M 46.986953,79.306185 c 0.0997,-0.440571 -0.02836,-1.808561 -0.284569,-3.039983 -0.256211,-1.231422 -0.465839,-2.582466 -0.465839,-3.002324 0,-0.419858 -0.645291,-3.150586 -1.43398,-6.068277 -0.788689,-2.917691 -1.43398,-5.833988 -1.43398,-6.480662 0,-0.646674 -0.202153,-1.307322 -0.449231,-1.468099 -0.656368,-0.42711 -2.22779,1.115517 -2.624824,2.576727 -0.961305,3.537892 -1.387216,5.42886 -1.387216,6.158994 0,0.976042 2.180676,8.882433 2.449878,8.882433 0.104617,0 0.100283,-1.459005 -0.0096,-3.242233 -0.314972,-5.110111 0.336013,-4.136619 1.437619,2.149827 0.375138,2.140777 0.589534,2.527089 1.858052,3.347941 1.793549,1.1606 2.117294,1.186247 2.343719,0.185656 z M 44.005909,55.039194 c 0,-0.340425 0.375678,-1.556463 0.834838,-2.702308 0.45916,-1.145845 0.710107,-1.978653 0.557659,-1.850685 -0.152448,0.127968 -1.460212,1.171884 -2.906142,2.319813 -1.44593,1.14793 -2.628963,2.289042 -2.628963,2.535805 0,0.246763 0.537742,0.452384 1.194983,0.456935 0.657241,0.0045 1.405272,0.233808 1.662289,0.509461 0.511711,0.548812 1.285336,-0.214994 1.285336,-1.269021 z M 15.326311,39.5245 C 13.701811,37.876404 11.856999,34.741348 11.155342,32.436394 9.8945086,28.294532 9.2628618,20.618613 9.8755195,16.883682 c 0.3516375,-2.143681 1.1011605,-1.649456 1.3573125,0.894994 0.559221,5.554942 3.75377,12.079489 7.138719,14.580119 1.120255,0.827588 2.11123,1.833497 2.202167,2.235354 0.231279,1.022032 -0.61233,3.594143 -1.619399,4.937452 -1.073071,1.431346 -2.212353,1.429117 -3.628008,-0.0071 z m 17.99669,-2.848038 c -1.37077,-1.031219 -1.84642,-3.03768 -1.272389,-5.367389 0.478164,-1.940633 0.532806,-1.22144 -0.993348,-13.07446 -0.611519,-4.749426 -0.479006,-11.2348786 0.254988,-12.4795497 0.591419,-1.0028997 0.660442,-0.7880751 1.058118,3.2932224 0.115837,1.1888193 1.34724,6.0299503 2.736454,10.7580703 2.076502,7.067274 2.525841,9.047769 2.525841,11.13281 0,5.010353 -1.90495,7.546341 -4.309664,5.737296 z"
         id="path1217"
         inkscape:connector-curvature="0" />
      <path
         style="fill:#a88a79;stroke-width:0.41496527"
         d="m 51.919767,292.65999 c -0.467143,-0.1372 -0.934247,-0.62462 -1.03801,-1.08315 -0.251106,-1.10966 1.28056,-5.83202 2.738057,-8.44184 1.057105,-1.89287 1.239389,-2.03031 1.898924,-1.43175 0.401259,0.36416 1.95432,0.94323 3.451245,1.28683 l 2.721678,0.62472 -0.06975,1.99199 c -0.08977,2.5639 -0.836485,4.98836 -1.900483,6.17056 -0.629689,0.69965 -1.611098,0.95996 -3.89698,1.03363 -1.68043,0.0542 -3.437537,-0.0138 -3.904683,-0.15099 z m 130.332353,-1.12967 c -2.95809,-0.30931 -3.19696,-2.17637 -0.90695,-7.0891 1.6349,-3.50732 2.27339,-4.09646 3.62179,-3.34183 0.57043,0.31924 2.31955,0.89437 3.88694,1.27807 3.29285,0.80611 3.459,1.16161 2.35325,5.03499 -0.48363,1.69413 -1.02107,2.69391 -1.69778,3.15832 -1.13285,0.77745 -4.60644,1.23672 -7.25725,0.95955 z m -38.43234,-14.71245 c -1.11941,-0.81875 -1.18517,-2.00562 -0.23934,-4.32004 0.80154,-1.96135 3.48735,-5.9622 4.00247,-5.9622 0.12423,0 0.89744,0.50375 1.71825,1.11946 0.86721,0.6505 2.31921,1.17456 3.46613,1.25099 l 1.97373,0.13154 -0.0353,1.97128 c -0.0435,2.43101 -0.83557,4.57448 -1.973,5.33946 -1.15261,0.77521 -8.0017,1.136 -8.91294,0.46951 z m -64.807569,-9.01455 c -0.463756,-0.13634 -1.09211,-0.71431 -1.396343,-1.28437 -0.477133,-0.89405 -0.497961,-1.26242 -0.151559,-2.68056 0.380378,-1.55722 3.5927,-7.02946 4.126446,-7.02946 0.137503,0 0.61946,0.4928 1.071011,1.09512 0.838177,1.11802 3.07612,2.88927 3.258911,2.5793 0.05562,-0.0943 -0.055,-1.16346 -0.245839,-2.37586 -0.287663,-1.82755 -0.229131,-3.00112 0.342415,-6.86544 1.115054,-7.53906 0.910342,-16.77051 -0.613504,-27.66601 -0.688884,-4.92553 -0.771204,-9.26377 -0.24863,-13.10282 0.347374,-2.55192 0.313691,-2.81489 -0.928215,-7.24759 -0.708768,-2.52977 -1.731359,-5.35027 -2.272425,-6.26779 -0.541066,-0.91751 -0.983754,-2.0462 -0.983754,-2.5082 0,-0.46199 1.096828,-2.60842 2.437396,-4.76982 2.162833,-3.48715 4.25451,-7.98515 4.25451,-9.14901 0,-0.22793 -0.656011,0.66675 -1.457803,1.98816 -1.911151,3.14974 -4.045889,4.31213 -6.398345,3.48398 -4.116246,-1.44907 -9.351611,-11.0007 -9.351611,-17.0615 0,-1.68891 1.952924,-7.87361 3.447568,-10.91807 1.78448,-3.63483 2.382277,-5.83878 2.150928,-7.92998 -0.30133,-2.72376 -2.455113,-5.89714 -5.900693,-8.69406 -3.59428,-2.91764 -4.626459,-4.41155 -5.608566,-8.11754 -1.677852,-6.33139 -1.786714,-12.65793 -0.314115,-18.25484 0.45967,-1.74708 1.056282,-4.78668 1.3258,-6.75465 0.725365,-5.29651 0.398217,-8.448496 -1.572203,-15.147836 -1.648034,-5.60326 -1.654605,-5.646171 -1.654605,-10.807444 0,-4.858356 -0.04193,-5.191998 -0.671613,-5.344443 -0.49682,-0.120276 -0.779865,0.280583 -1.087559,1.54025 -0.228767,0.936562 -0.89544,2.676069 -1.481495,3.865569 -1.182919,2.400954 -1.298915,3.020399 -1.462105,7.807967 -0.08888,2.607442 -0.301933,3.743817 -0.98778,5.268629 -1.123753,2.498378 -2.293163,2.59725 -3.820629,0.323018 -0.598843,-0.891614 -1.150635,-1.621117 -1.226203,-1.621117 -0.07556,0 -0.138178,3.22197 -0.139143,7.159927 -0.0019,8.09308 -0.513923,12.60667 -1.993704,17.57764 -0.88721,2.98038 -0.907837,3.20815 -0.45266,4.99844 0.983137,3.86685 1.446574,7.39503 1.461213,11.12434 0.01415,3.59987 -0.107756,4.2885 -1.912942,10.80745 -2.408133,8.69631 -2.746569,10.50363 -2.565447,13.70003 0.221961,3.91716 1.317719,7.10157 4.327165,12.57526 5.838573,10.6194 7.015944,10.64889 7.509746,0.18813 0.129466,-2.74263 0.470808,-5.26125 0.952054,-7.02484 0.779454,-2.8564 3.185848,-7.84748 3.518802,-7.29833 0.104815,0.17288 -0.184011,1.87506 -0.641836,3.78261 -1.275099,5.31277 -1.295646,8.1579 -0.12846,17.78815 0.558328,4.60667 1.289964,9.70476 1.62586,11.32908 0.335892,1.62433 0.610716,3.66313 0.610716,4.53068 v 1.57736 l -2.194831,-0.26629 c -3.182941,-0.38619 -4.223485,-1.7841 -8.559588,-11.4993 -4.45826,-9.98889 -5.856177,-13.90145 -6.94965,-19.45102 -0.802688,-4.07379 -0.839334,-4.69691 -0.635741,-10.81001 0.118823,-3.56786 0.132745,-6.85512 0.03094,-7.30502 -0.148783,-0.65749 -0.659213,-0.77741 -2.601064,-0.61113 -2.076384,0.17781 -2.54404,0.0463 -3.32726,-0.93564 -0.501227,-0.62839 -1.203919,-1.14253 -1.561544,-1.14253 -0.947312,0 -0.837234,-1.70913 0.447931,-6.95479 1.166297,-4.76049 1.50653,-5.69469 2.646123,-7.26567 0.394344,-0.54362 0.71699,-1.5863 0.71699,-2.31707 0,-0.73077 0.216923,-1.46983 0.48205,-1.64235 0.656845,-0.42743 1.397152,0.71357 1.217758,1.87687 -0.08051,0.52204 0.196611,2.15448 0.615815,3.62764 0.419203,1.47317 0.909831,3.2864 1.090286,4.02941 l 0.328101,1.35093 0.224641,-1.71777 c 0.123552,-0.94477 0.07468,-3.09337 -0.108603,-4.77466 -0.301126,-2.76226 -0.525104,-3.36268 -2.323806,-6.22934 l -1.990562,-3.17245 0.869486,-1.53897 c 0.478217,-0.84643 0.869483,-1.85861 0.869483,-2.24927 0,-0.87931 -2.004478,-6.52726 -3.100357,-8.73578 -0.908528,-1.83094 -3.997758,-5.35502 -4.694248,-5.35502 -0.249149,0 -0.531398,0.21511 -0.62722,0.47802 -0.09582,0.26291 -0.853756,0.65083 -1.684303,0.86203 -0.830546,0.2112 -2.046456,0.84802 -2.70202,1.41515 -2.08988,1.80798 -4.205249,2.31501 -5.753842,1.37913 -0.750348,-0.45346 -2.97519,-0.94064 -4.988533,-1.09233 -3.434411,-0.25876 -3.722726,-0.19768 -5.246101,1.11135 -1.412511,1.21378 -1.867801,1.34466 -3.679605,1.05775 -1.2181605,-0.19289 -2.7416567,-0.88661 -3.7082025,-1.68851 -0.9023096,-0.7486 -2.0173086,-1.3611 -2.477776,-1.3611 -1.1016252,0 -1.7146093,-1.66888 -1.9847927,-5.40372 -0.1182512,-1.634626 -0.4136201,-3.51062 -0.6563753,-4.168874 -0.611909,-1.659251 -0.5605179,-2.307757 0.3661303,-4.620231 1.1557145,-2.884112 2.8635773,-4.176007 6.019957,-4.553733 2.2385972,-0.2679 2.8004002,-0.159977 3.6659912,0.704229 0.875836,0.874431 3.502997,6.87909 4.761272,10.882399 0.210181,0.668711 0.64456,1.21584 0.965286,1.21584 0.936814,0 2.19536,-2.030192 2.432728,-3.924288 0.285092,-2.274913 1.016835,-3.640925 1.950363,-3.640925 0.953105,0 0.995528,1.484548 0.04911,1.718627 -0.48828,0.120767 -0.781124,0.71843 -0.974153,1.988142 -0.151799,0.998505 -0.199372,1.945405 -0.105719,2.104215 0.262716,0.445504 3.626415,-1.371978 5.813703,-3.141264 1.080404,-0.873939 2.475632,-1.588976 3.100508,-1.588976 0.624875,0 1.729422,-0.40255 2.454549,-0.894548 1.22739,-0.832795 1.42034,-0.832611 2.794742,0.0027 0.811984,0.493473 1.716838,0.896023 2.010791,0.894554 0.650749,-0.0032 2.322961,-3.333324 3.028295,-6.030592 0.373207,-1.427182 0.768393,-2.060552 1.424496,-2.283072 0.870598,-0.295265 0.907999,-0.434632 0.907999,-3.383568 0,-1.691586 0.1065,-2.895016 0.236671,-2.674285 0.130167,0.220731 0.246762,4.942233 0.259101,10.492228 0.01804,8.11191 0.135759,10.726752 0.600289,13.333132 0.793714,4.45335 1.477484,7.29502 1.755348,7.29502 0.916444,0 1.623976,-7.60064 1.886337,-20.263957 l 0.201518,-9.7267 0.796656,0.0361 c 0.43816,0.01989 1.240638,0.213345 1.783285,0.429958 l 0.986629,0.393834 0.221358,-7.995163 C 51.39927,63.87 51.904028,59.700316 53.430614,54.31816 c 1.644036,-5.796236 1.761804,-5.876065 7.070219,-4.792567 4.802229,0.980181 8.502847,2.18899 10.061733,3.286674 1.309829,0.922311 4.705484,1.732702 10.248823,2.445934 7.807431,1.004542 10.525986,2.738372 14.728319,9.393372 3.069032,4.860264 4.378479,8.187222 5.362482,13.624647 0.97937,5.411844 1.50588,6.287717 3.9607,6.588823 1.72037,0.211021 2.15975,0.0094 5.15731,-2.366728 2.87601,-2.27976 3.58958,-2.624193 5.83503,-2.816544 6.43887,-0.551558 11.82846,4.370044 14.38265,13.133789 2.14728,7.36758 1.81123,16.18464 -1.02509,26.89544 -1.54902,5.84961 -2.65561,8.52616 -5.40883,13.08252 -3.75289,6.21076 -7.99446,9.86646 -12.03894,10.37606 -3.56017,0.44858 -4.69843,-0.32576 -7.68277,-5.22649 -1.4068,-2.31017 -2.88887,-4.49087 -3.29349,-4.84601 -1.396911,-1.22604 -2.499609,-0.22255 -4.690804,4.26872 -1.128475,2.31303 -2.48814,4.51201 -3.021475,4.88663 -0.627264,0.44059 -1.782533,0.58179 -3.271444,0.39983 -3.413187,-0.41713 -5.329032,1.48604 -5.329032,5.29374 0,1.04576 0.59838,2.50872 2.169506,5.30416 1.193231,2.12305 3.132475,6.08424 4.309432,8.80263 3.540362,8.17709 6.672617,11.41855 13.437457,13.90596 6.008,2.20912 8.56294,2.70091 13.8618,2.66821 8.07222,-0.0498 14.16436,-2.43947 20.87238,-8.18722 6.40644,-5.48936 11.15784,-6.44386 18.30305,-3.67687 5.52822,2.14081 8.29027,4.68083 11.62789,10.69319 3.3667,6.06475 6.50774,13.9489 8.17213,20.5124 1.12794,4.44804 1.24821,5.30658 0.97568,6.96474 -0.17096,1.04022 -0.48193,2.98556 -0.69104,4.32298 -0.60677,3.88077 -2.09653,7.10636 -8.93541,19.34675 -4.95527,8.86906 -6.58669,11.47381 -7.10742,11.34781 -1.08908,-0.26352 -1.05678,-4.10156 0.0859,-10.20781 1.77477,-9.48401 2.75301,-18.52639 2.30891,-21.34243 -0.45537,-2.88742 -2.39549,-2.41065 -3.69014,0.90683 -0.63559,1.62868 -0.9658,2.06995 -1.22281,1.63412 -0.25701,-0.43582 -0.22097,-1.29236 0.13348,-3.17187 0.79897,-4.23676 0.28428,-4.99208 -1.54538,-2.26791 -1.92616,2.86784 -2.60715,1.10484 -1.06454,-2.75601 0.99127,-2.48097 1.20765,-3.98697 0.65594,-4.56519 -0.17426,-0.18262 -1.3309,-2.7574 -2.57033,-5.72172 -2.21812,-5.30508 -3.75048,-7.64274 -5.47695,-8.35523 -0.73516,-0.3034 -1.2461,0.1194 -3.18662,2.63686 -4.88645,6.33923 -9.94704,8.80391 -16.96954,8.26473 -2.27844,-0.17492 -6.36528,-0.93853 -9.08188,-1.69689 -11.05148,-3.0851 -25.219686,-6.74767 -26.102543,-6.74767 -0.619718,0 -0.997989,0.32273 -1.108374,0.94565 -0.258266,1.4574 -2.063268,23.16404 -2.280417,27.42388 -0.10605,2.08044 -0.349011,4.32812 -0.539909,4.99484 -0.370168,1.29285 0.07414,16.16009 0.774524,25.91677 l 0.357042,4.97375 -0.987027,1.56352 c -0.542867,0.85993 -1.075218,2.26926 -1.183002,3.13184 -0.107787,0.86257 -0.331096,2.58787 -0.496246,3.834 -0.165147,1.24612 -0.300269,2.99553 -0.300269,3.88757 0,0.93068 -0.324319,2.26124 -0.761007,3.12214 -0.73341,1.44588 -0.880725,1.50383 -4.062943,1.59849 -1.816065,0.054 -3.681374,-0.0134 -4.145132,-0.14968 z M 194.18842,211.01239 c -0.83461,-1.24195 -1.05847,-2.10733 -1.3629,-5.26863 -0.25661,-2.66472 -0.82979,-5.28517 -1.93947,-8.86684 -0.86636,-2.79634 -1.48712,-5.22801 -1.37946,-5.40373 0.10765,-0.17571 0.9792,1.1368 1.93675,2.91669 2.23583,4.15593 4.30099,11.10765 4.49829,15.14205 0.17072,3.49103 -0.1947,3.79961 -1.75321,1.48046 z M 73.646468,201.97341 c -0.539896,-1.33068 -2.206076,-4.15367 -3.702619,-6.27332 -1.496546,-2.11965 -2.877194,-4.43526 -3.068108,-5.14579 -0.906221,-3.37275 1.848148,-6.49545 5.313265,-6.02379 4.431055,0.60316 7.687362,5.74664 6.562654,10.36601 -0.222417,0.9135 -0.617306,2.99833 -0.877535,4.63296 -0.575052,3.6122 -1.180835,4.86335 -2.354739,4.86335 -0.697067,0 -1.105194,-0.52722 -1.872918,-2.41942 z m 131.498222,-1.90356 c -0.92466,-6.38544 -1.51981,-25.26548 -0.85169,-27.01861 0.26614,-0.69836 0.30957,-0.68395 0.31378,0.10412 0.003,0.50308 0.49649,3.66425 1.09734,7.02484 0.88534,4.95173 1.01015,6.18832 0.65828,6.5224 -0.33503,0.3181 -0.39729,1.49035 -0.27263,5.13353 0.11214,3.27762 0.0223,5.46486 -0.29396,7.15298 -0.41354,2.20772 -0.47351,2.30726 -0.65112,1.08074 z m -16.05442,-19.31831 c -2.26924,-5.94559 -6.01146,-12.32747 -8.53761,-14.55976 l -1.91197,-1.68957 -1.06184,1.51399 c -2.30031,3.27981 -4.01198,2.54413 -10.41,-4.47423 -8.24878,-9.04856 -10.85382,-11.52532 -13.71118,-13.03604 -4.30783,-2.27759 -5.58205,-4.90034 -6.99081,-14.38938 -0.44617,-3.00533 -0.91065,-4.35265 -3.07375,-8.91614 -3.29654,-6.95469 -4.39262,-10.24795 -4.80055,-14.42354 -0.65956,-6.75135 0.49451,-9.88817 5.29095,-14.38101 4.23898,-3.970666 4.8434,-4.92686 5.29964,-8.383993 0.84993,-6.440291 -1.28562,-7.543531 -7.42352,-3.835043 -5.3584,3.237515 -5.34532,3.239536 -10.41832,-1.613714 -2.78583,-2.665158 -4.30446,-3.74326 -6.45624,-4.583399 -3.35729,-1.310807 -4.81748,-2.506078 -6.31221,-5.166995 -0.61342,-1.092022 -2.54929,-4.010221 -4.30194,-6.484882 -3.24051,-4.575488 -4.08765,-6.141427 -5.07634,-9.383607 -0.41327,-1.355237 -0.46248,-1.974507 -0.19324,-2.431675 0.51843,-0.880294 18.70174,-1.162019 22.54818,-0.349352 5.58579,1.18015 9.30538,2.927562 12.3847,5.818162 4.39209,4.122905 6.95995,5.700176 9.37282,5.75712 l 2.07131,0.0489 v -2.1512 c 0,-2.133698 0.0117,-2.154253 1.43398,-2.526645 3.76133,-0.984807 13.09514,-1.426767 20.87237,-0.988309 13.66628,0.770458 16.80882,2.267537 21.22924,10.113438 4.55377,8.082596 4.92353,10.822936 4.54038,33.648954 -0.15215,9.06475 -0.26209,22.62133 -0.2443,30.12575 0.0264,11.12884 -0.047,13.6444 -0.39833,13.6444 -0.49552,0 -0.52938,1.00375 -0.13674,4.05279 0.38892,3.02021 0.71,11.73669 0.36476,9.90261 -0.14961,-0.79486 -0.79125,-6.38771 -1.42584,-12.42856 -0.6346,-6.04084 -1.52679,-13.62404 -1.98266,-16.85155 -0.76224,-5.39667 -0.82217,-6.67755 -0.74584,-15.94097 0.0967,-11.73794 0.0905,-11.96412 -0.32829,-11.96412 -0.17527,0 -0.31867,1.07259 -0.31867,2.38354 0,1.31094 -0.28401,3.92499 -0.63114,5.809 -0.85158,4.6218 -1.71876,12.27955 -2.71326,23.95961 -0.48836,5.7357 -1.07623,10.61358 -1.43273,11.88819 -1.08819,3.89064 -2.70918,25.07821 -2.4702,32.28723 0.0862,2.60055 0.0998,4.72826 0.0303,4.72826 -0.0696,0 -0.93855,-2.12771 -1.93109,-4.72826 z m -6.69982,-47.01237 c 2.483,-5.17304 5.02636,-14.40054 5.99492,-21.74998 0.40602,-3.08086 1.99957,-10.15324 3.16267,-14.036285 1.33123,-4.444367 2.58156,-6.239651 4.30175,-6.176654 0.76625,0.02804 1.78102,0.481952 2.25504,1.008637 l 0.86186,0.957615 -0.17068,-3.710498 c -0.27373,-5.950697 -1.51202,-9.632383 -4.51553,-13.425676 -3.11369,-3.93244 -8.56859,-7.703671 -9.08671,-6.28207 -0.14107,0.387063 -0.35575,2.996742 -0.47706,5.799285 -0.42868,9.903093 -1.28676,12.150317 -6.05654,15.861469 -1.56667,1.21895 -3.80019,3.536617 -4.96339,5.150379 -4.13048,5.730418 -6.74883,6.515988 -10.78516,3.235788 -1.28,-1.040213 -2.74579,-1.891299 -3.2573,-1.891299 -0.83825,0 -0.92933,0.173297 -0.92302,1.756209 0.009,2.30995 0.96098,5.7194 2.10379,7.53624 1.45518,2.31344 3.53227,3.56166 7.90715,4.75181 4.95576,1.34816 6.73245,2.57661 8.58565,5.93626 1.63607,2.96602 1.98994,4.72404 2.45005,12.17163 0.33417,5.409 0.47931,6.75465 0.72857,6.75465 0.0732,0 0.92102,-1.64138 1.88394,-3.64751 z m -63.43964,36.83596 c -0.39592,-0.47026 -1.29055,-2.38736 -1.98807,-4.26023 -1.29694,-3.48234 -1.99692,-4.28385 -5.40044,-6.1838 -2.90203,-1.61999 -3.51782,-4.97813 -1.89935,-10.35785 1.37408,-4.56737 3.98549,-6.11984 6.28865,-3.7386 1.89522,1.95947 1.85063,2.00302 6.60454,-6.45099 3.32986,-5.92157 5.9835,-7.50018 7.70384,-4.58291 0.75243,1.27594 0.81,1.68471 0.66592,4.72845 -0.27513,5.81236 -2.1661,11.99336 -4.56166,14.91065 -1.81456,2.20978 -2.34486,3.99171 -2.67542,8.99005 -0.29189,4.41372 -0.8987,6.49265 -2.12608,7.28397 -1.13094,0.72915 -1.78417,0.64443 -2.61193,-0.33874 z m 84.43651,-6.16984 c 0,-0.74302 0.0723,-1.04697 0.16073,-0.67547 0.0884,0.37151 0.0884,0.97943 0,1.35093 -0.0884,0.37151 -0.16073,0.0676 -0.16073,-0.67546 z M 22.152131,89.443442 c -0.257088,-0.435956 -0.698383,-1.559908 -0.980656,-2.497665 -0.282272,-0.937756 -1.071586,-2.74034 -1.75403,-4.005741 -0.682444,-1.2654 -1.371007,-2.881443 -1.530139,-3.591194 -0.318332,-1.419818 0.143381,-5.423559 1.24651,-10.809119 0.787824,-3.846218 0.786678,-3.800708 0.124092,-4.924287 -0.328708,-0.557411 -0.407244,-1.03336 -0.206994,-1.254437 0.177474,-0.195933 0.42155,-2.41053 0.542393,-4.921324 0.26444,-5.494382 1.032892,-8.067241 4.54941,-15.231893 3.180731,-6.48051 4.602977,-7.594724 6.859493,-5.373855 0.579627,0.57047 1.644112,1.30058 2.365522,1.622466 0.721413,0.321886 1.686303,1.220556 2.144208,1.997045 0.457901,0.776487 1.038548,1.277747 1.290327,1.113909 0.251778,-0.163838 0.978047,-1.875492 1.613931,-3.803675 1.48996,-4.517987 2.751677,-6.569471 4.86507,-7.910338 1.829067,-1.160474 4.913236,-1.435965 6.271585,-0.560205 1.276975,0.823297 1.292137,2.518989 0.07419,8.297539 -1.983006,9.408382 -2.861083,11.203906 -7.297189,14.921577 l -2.944551,2.467676 -0.01644,4.863349 c -0.0096,2.832545 -0.195346,5.552984 -0.44489,6.514884 -0.387615,1.494118 -0.345459,2.003333 0.442271,5.342298 1.196181,5.070274 1.367771,8.695155 0.519687,10.978482 -1.504417,4.050381 -4.05975,4.911518 -7.432076,2.504582 -1.52003,-1.084895 -2.33077,-1.349877 -3.531479,-1.154235 -1.36884,0.223038 -1.744499,0.582877 -3.086876,2.956851 -1.64082,2.901772 -2.918582,3.754209 -3.683377,2.45731 z M 47.036339,75.792863 c -0.106592,-0.292471 -0.407333,-1.75106 -0.668314,-3.241314 -0.260981,-1.490255 -0.970919,-4.466068 -1.577643,-6.612924 -1.232209,-4.360095 -1.405631,-7.334062 -0.61483,-10.543533 0.588713,-2.389292 2.894476,-7.560995 3.694863,-8.287378 0.733914,-0.666056 3.047348,-0.05339 3.64865,0.966269 0.400645,0.679394 0.376063,0.979181 -0.191019,2.329669 -2.028291,4.830304 -3.108517,11.071148 -3.38764,19.571597 -0.19251,5.862681 -0.400307,7.199827 -0.904067,5.817614 z M 10.095629,63.557816 c -0.4531446,-1.374858 -0.8238995,-2.804089 -0.8238995,-3.17607 0,-0.98565 -0.5930899,-1.633858 -2.4181742,-2.642909 C 5.9617202,57.24576 4.8594307,56.180123 4.4040232,55.370755 3.4979052,53.760366 1.9505669,48.506434 1.9456119,47.023308 c -0.00673,-2.013103 4.0130147,-3.948749 6.3803228,-3.07235 1.4931319,0.552771 4.5156783,2.117736 4.7431773,2.455847 0.07302,0.108525 -0.428023,1.019361 -1.113434,2.024078 l -1.246201,1.82676 0.42961,2.090953 c 0.236285,1.150024 0.789778,2.995723 1.229983,4.101553 0.55503,1.394279 0.74064,2.414181 0.605508,3.327185 -0.349969,2.364534 -1.442523,6.280216 -1.752307,6.280216 -0.166509,0 -0.673497,-1.124882 -1.126642,-2.499734 z M 14.767001,38.480969 C 11.745453,35.542513 9.9090539,28.986275 9.9090539,21.137324 c 0,-3.704884 0.1940461,-5.334386 0.6352351,-5.334386 0.136613,0 0.343468,1.075181 0.459678,2.389292 0.244741,2.767551 2.050213,7.719239 3.92224,10.757134 0.701164,1.137838 2.179169,2.84001 3.284454,3.782605 1.105285,0.942595 2.068833,2.024026 2.141216,2.403181 0.203082,1.063764 -2.28224,4.985336 -3.155768,4.979465 -0.414964,-0.0028 -1.508062,-0.73793 -2.429108,-1.633646 z m 18.882387,-2.114361 c -0.350529,-0.243287 -0.901248,-0.940047 -1.223821,-1.548356 -0.520543,-0.981641 -0.540166,-1.323285 -0.1745,-3.038083 0.444413,-2.084085 0.36383,-3.220896 -0.99849,-14.085928 -0.684307,-5.457618 -0.66205,-8.5118959 0.0843,-11.5686263 0.319673,-1.3092419 0.359111,-1.2070287 0.606448,1.5717406 0.17428,1.9579917 1.072675,5.7376527 2.633066,11.0776297 2.718839,9.304437 3.170514,11.447234 2.864598,13.589989 -0.546267,3.826226 -1.934047,5.290884 -3.791601,4.001634 z"
         id="path1215"
         inkscape:connector-curvature="0" />
      <path
         style="fill:#9c726a;stroke-width:0.41496527"
         d="m 51.892799,292.62682 c -0.705761,-0.1813 -0.876057,-0.50736 -0.874957,-1.67524 0.0013,-1.49659 1.130543,-4.75918 2.643844,-7.63929 0.966216,-1.83889 1.084761,-1.89192 2.352976,-1.05245 0.493388,0.32658 1.900852,0.75212 3.127702,0.94565 2.218035,0.34987 2.231186,0.36147 2.328079,2.05327 0.166893,2.91396 -0.697338,5.49527 -2.236419,6.67981 -1.323089,1.0183 -4.790847,1.34341 -7.341225,0.68825 z m 128.383771,-2.04963 c -0.8897,-1.50872 -0.0705,-4.3321 2.31933,-7.9933 l 1.27296,-1.95018 1.36919,0.756 c 0.75306,0.4158 2.44432,1.02437 3.75835,1.35238 1.31404,0.328 2.51052,0.80217 2.65885,1.0537 0.43172,0.73209 -0.92105,5.25085 -1.89665,6.33555 -1.31172,1.4584 -8.68059,1.80488 -9.48203,0.44585 z m -36.20173,-13.79648 c -0.43322,-0.31472 -0.88879,-0.84969 -1.01239,-1.18881 -0.33332,-0.91457 0.45658,-3.10121 2.01348,-5.57382 2.3573,-3.74377 2.27659,-3.69422 3.82523,-2.34827 0.90336,0.78512 2.17501,1.28634 3.68889,1.45398 2.57553,0.28519 2.6226,0.38942 1.78295,3.94791 -0.38949,1.65071 -0.81881,2.44148 -1.64227,3.02493 -1.39647,0.98944 -7.56456,1.4769 -8.65589,0.68408 z m -64.97167,-9.12979 c -0.588993,-0.25458 -1.302086,-0.85491 -1.584647,-1.33406 -0.472557,-0.80134 -0.464304,-1.02688 0.102922,-2.81298 0.339171,-1.06799 1.251698,-2.88967 2.027842,-4.04818 1.392021,-2.07782 2.36794,-2.62918 2.758231,-1.55831 0.339197,0.93068 2.696787,2.74788 4.087248,3.15041 0.908671,0.26304 1.356258,0.68704 1.432326,1.35684 0.163614,1.44069 -0.574905,4.0855 -1.332891,4.77341 -0.835609,0.75834 -6.066608,1.08855 -7.491031,0.47287 z m 89.03701,-47.01817 c -0.47511,-0.89025 -0.52703,-1.63281 -0.33771,-4.8296 l 0.22372,-3.77761 -1.94232,-1.66264 c -1.15381,-0.98769 -1.94231,-2.01202 -1.94231,-2.52324 0,-0.60101 0.16821,-0.74845 0.55766,-0.48879 1.147,0.76475 5.29392,1.90531 6.92746,1.90531 1.60599,0 1.72794,0.10006 2.36957,1.94414 0.46141,1.32614 0.83332,1.84207 1.16994,1.62302 0.34207,-0.22259 0.46196,-0.0435 0.39069,0.58375 -0.0566,0.4977 -0.51206,1.09049 -1.01226,1.31733 -0.5002,0.22684 -1.81422,1.88571 -2.92005,3.68638 -1.10582,1.80066 -2.21588,3.27394 -2.46678,3.27394 -0.2509,0 -0.70882,-0.4734 -1.01761,-1.05199 z m -79.492386,-2.52027 c -0.372841,-0.80377 -0.906409,-2.8213 -1.185707,-4.48338 -0.279298,-1.6621 -0.971725,-4.23783 -1.538731,-5.72385 -0.567005,-1.48603 -1.418904,-4.16087 -1.893111,-5.9441 -0.474205,-1.78323 -1.385069,-4.15302 -2.024139,-5.26621 l -1.161945,-2.02399 0.648838,-1.48843 c 0.35686,-0.81864 1.49667,-2.65202 2.532912,-4.07417 1.963953,-2.69535 3.789085,-7.06289 4.11318,-9.84283 l 0.188996,-1.62112 -0.571725,1.33816 c -2.317241,5.42365 -4.271769,7.32927 -7.075247,6.89819 -2.308893,-0.35503 -3.817918,-1.67186 -6.304047,-5.50115 -2.596839,-3.99981 -3.737876,-7.81618 -3.540942,-11.8432 0.144006,-2.9447 0.284536,-3.37214 4.265159,-12.97323 2.32134,-5.59896 0.971155,-9.65287 -4.767221,-14.31349 -3.966229,-3.22131 -5.295309,-5.49005 -6.233412,-10.64042 -0.974921,-5.35252 -0.888414,-10.50442 0.261399,-15.56798 2.180392,-9.60201 2.164997,-13.74958 -0.07878,-21.22654 -1.694882,-5.647857 -2.185293,-9.120758 -1.783036,-12.626769 0.368845,-3.214825 0.376439,-3.046856 -0.180468,-3.991232 -0.638179,-1.082192 -1.332292,-0.5813 -1.935488,1.396722 -0.267937,0.878623 -0.979625,2.691539 -1.581526,4.028701 -0.97077,2.15662 -1.094366,2.803943 -1.094366,5.731614 0,3.853097 -0.943505,7.731932 -2.097661,8.623676 -0.944872,0.730043 -2.52831,-0.298626 -3.221598,-2.092889 -0.269477,-0.697415 -0.616867,-1.268032 -0.771972,-1.268032 -0.155106,0 -0.28259,2.370883 -0.283294,5.268629 -0.0025,10.7033 -1.562815,20.1813 -4.175437,25.36501 -0.477822,0.94805 -1.009701,2.15077 -1.18195,2.67271 -0.282501,0.85601 -0.487075,0.72634 -2.088315,-1.32374 -2.36622,-3.02948 -2.628313,-3.92177 -1.622567,-5.524 0.431382,-0.68723 0.784333,-1.79666 0.784333,-2.4654 0,-0.66875 -0.75284,-3.11883 -1.672977,-5.44463 -1.513142,-3.82471 -2.898048,-5.97714 -5.331824,-8.28678 -0.410953,-0.38998 -0.38307,-0.63535 0.194425,-1.71103 0.370799,-0.69066 1.07009,-2.289206 1.553985,-3.552326 1.1438,-2.985675 1.562465,-2.948552 1.291589,0.114516 -0.246176,2.78378 -0.07365,3.46629 1.834398,7.25687 0.764191,1.51815 1.722854,4.09777 2.130365,5.73248 0.407512,1.63471 0.830249,2.97221 0.939413,2.97221 0.109168,0 0.658175,-1.58079 1.220015,-3.51285 1.287933,-4.42896 1.68563,-8.74682 1.941032,-21.074088 l 0.201518,-9.726699 0.796656,0.0361 c 0.43816,0.01989 1.240638,0.213344 1.783285,0.429958 l 0.986629,0.393834 0.221358,-7.995163 c 0.259484,-9.372172 0.764242,-13.541857 2.290828,-18.924013 1.660772,-5.855242 1.591781,-5.815838 7.826219,-4.469889 5.443598,1.175216 6.618012,1.572253 9.516697,3.21733 1.63975,0.9306 3.219473,1.279862 12.346851,2.729777 6.132851,0.974226 8.84373,3.043143 12.962496,9.892862 2.444617,4.065517 3.873843,7.770946 4.519426,11.717138 0.80765,4.936749 1.12797,5.956345 2.16199,6.881791 1.81704,1.626234 3.83192,1.183956 7.36402,-1.616426 1.96409,-1.557217 3.86237,-2.660365 4.94804,-2.87545 4.32909,-0.857668 9.85407,2.316473 12.72153,7.30861 4.66941,8.129283 4.99873,19.624488 0.96338,33.627558 -1.57761,5.47449 -3.03857,8.82382 -5.54845,12.72011 -3.93226,6.10439 -8.25449,9.36145 -12.47251,9.39879 -3.08825,0.0273 -4.14028,-0.85445 -7.12675,-5.97351 -2.29576,-3.93512 -2.65601,-4.35236 -3.748465,-4.3415 -1.435487,0.0143 -2.036427,0.76686 -4.241218,5.31151 -2.102263,4.33329 -3.208068,5.18521 -6.102678,4.70154 -1.627217,-0.2719 -2.368164,-0.15868 -3.087027,0.47169 -1.106816,0.97058 -2.277839,3.32423 -2.274452,4.57145 0.0013,0.48003 0.652847,2.80391 1.447877,5.16418 0.79503,2.36028 2.100194,7.4668 2.900365,11.34782 1.671408,8.10673 2.28063,10.28462 3.946739,14.1091 1.295697,2.97421 3.485196,5.22349 7.876739,8.09179 1.27176,0.83064 2.25919,1.60029 2.19429,1.71035 -0.0649,0.11005 -2.2236,-0.32264 -4.797118,-0.96154 -2.573523,-0.63888 -4.763994,-1.01771 -4.867712,-0.84183 -0.3646,0.61828 -2.446886,24.22115 -2.720617,30.8384 -0.108367,2.61978 -0.605882,2.97402 -1.492486,1.06268 z m 70.395166,-8.07764 c 0,-0.46334 0.14574,-0.68971 0.32386,-0.50303 0.17813,0.18668 0.24136,0.56578 0.14053,0.84245 -0.27317,0.74952 -0.46439,0.60976 -0.46439,-0.33942 z m -3.18662,-4.08242 c 0,-1.06504 1.37921,-4.80183 1.77231,-4.80183 0.20916,0 0.56368,0.37472 0.78783,0.83271 0.34298,0.70079 0.2383,1.12879 -0.66082,2.70186 -1.06231,1.85858 -1.89932,2.41706 -1.89932,1.26726 z m 19.3672,-2.55615 c -2.20179,-8.06841 -9.6576,-16.3872 -14.8028,-16.5162 -2.47953,-0.0622 -3.55509,1.13185 -4.27438,4.74511 l -0.50664,2.54503 -0.88041,-2.25601 c -1.33122,-3.41119 -3.26752,-6.77572 -4.32823,-7.52077 -0.52139,-0.36622 -0.95127,-0.81874 -0.9553,-1.00558 -0.004,-0.18685 0.87762,-1.69315 1.95919,-3.34733 l 1.96649,-3.0076 -1.93668,-2.4976 c -3.27512,-4.22371 -3.65719,-4.45613 -7.32528,-4.45613 -2.64885,0 -3.17121,-0.1253 -2.74173,-0.65768 0.82394,-1.02135 4.19633,-2.76142 6.56185,-3.38577 4.045,-1.06762 11.24973,1.20962 15.6433,4.94447 4.51318,3.83651 9.10655,13.05746 12.582,25.25764 1.98986,6.98515 2.04614,7.29598 1.56571,8.64596 -0.87353,2.45451 -1.56192,2.0493 -2.52709,-1.48754 z M 72.621224,199.95828 c -1.463813,-2.46488 -3.338765,-5.50628 -4.166556,-6.75868 -1.735977,-2.62641 -1.980349,-4.63521 -0.78809,-6.4783 1.763642,-2.72638 4.981926,-2.92718 7.82054,-0.48796 2.944318,2.53007 3.957234,6.17703 2.784092,10.02402 -0.257881,0.84565 -0.562525,2.53066 -0.676986,3.74446 -0.241861,2.56485 -0.65341,3.6048 -1.618482,4.08978 -0.565485,0.28418 -1.182893,-0.47657 -3.354518,-4.13332 z m -12.841536,-4.21141 c -0.108319,-0.2972 -0.04508,-0.54037 0.140524,-0.54037 0.185608,0 0.33747,-0.44156 0.33747,-0.98124 0,-0.59711 -0.530184,-1.473 -1.354315,-2.2374 -1.649198,-1.52967 -3.24588,-4.01031 -4.120315,-6.40139 -0.919356,-2.51392 -0.525378,-2.70225 1.075558,-0.51414 1.815562,2.48145 3.924995,4.48049 5.612853,5.31912 1.458182,0.72451 1.766233,1.33779 2.079321,4.13959 l 0.196249,1.7562 h -1.8852 c -1.036859,0 -1.973825,-0.24316 -2.082145,-0.54037 z m 58.962032,-25.72872 c -0.28269,-0.47938 -1.00322,-2.16849 -1.60117,-3.75358 -1.27722,-3.38578 -1.80776,-4.0414 -4.7816,-5.9089 -1.22685,-0.77044 -2.48158,-1.90356 -2.78829,-2.51806 -1.78965,-3.58555 1.04867,-12.87667 3.93581,-12.8837 0.45587,-0.001 1.51164,0.6136 2.34615,1.36603 0.87972,0.79319 1.76853,1.23283 2.11518,1.04626 0.32883,-0.17698 1.85423,-2.63706 3.38977,-5.46684 3.27149,-6.02891 4.79241,-7.75492 6.83343,-7.75492 2.38995,0 3.18238,2.79105 2.34076,8.24441 -0.81107,5.25538 -2.21595,9.31982 -4.07341,11.78477 -1.99502,2.64747 -2.78627,4.85823 -2.78867,7.79156 -0.003,3.02215 -0.57495,6.26952 -1.35896,7.70874 -0.80142,1.47115 -2.79126,1.66308 -3.569,0.34423 z m 52.66655,-4.43983 c -1.28009,-1.13807 -4.04822,-4.09585 -6.15139,-6.57285 -4.32116,-5.08923 -8.77932,-9.2514 -11.18266,-10.44021 -2.45823,-1.21596 -4.10494,-2.82421 -5.20526,-5.08371 -0.94124,-1.93282 -1.27497,-3.38426 -2.39536,-10.41785 -0.36151,-2.26951 -1.00835,-4.05778 -2.73645,-7.56521 -1.24467,-2.52624 -2.86293,-6.2901 -3.59614,-8.36413 -1.19987,-3.39412 -1.34421,-4.18233 -1.44427,-7.88727 -0.17986,-6.65918 0.89914,-9.11189 5.87928,-13.364362 1.06928,-0.913045 2.41521,-2.332236 2.99095,-3.153747 2.668,-3.806928 2.50158,-11.000638 -0.25449,-11.000638 -1.26497,0 -5.54546,1.969009 -7.83871,3.605769 -1.74342,1.244342 -2.08895,1.322723 -3.46189,0.785323 -0.83884,-0.328347 -2.96536,-2.040921 -4.72561,-3.805717 -2.48715,-2.493585 -3.83291,-3.455669 -6.03821,-4.316698 -4.01872,-1.569058 -4.65941,-2.132044 -7.51517,-6.60377 -1.39963,-2.191625 -3.52012,-5.422851 -4.7122,-7.180509 -2.48003,-3.656671 -4.00769,-6.969045 -4.00769,-8.68975 0,-1.14602 0.147,-1.198034 4.35232,-1.54004 6.46556,-0.525823 15.02271,-0.428905 17.85131,0.202184 6.44307,1.437514 8.99504,2.684309 13.3272,6.511156 4.68609,4.139489 7.08923,5.497093 9.30533,5.256849 1.4903,-0.161561 1.53,-0.211124 1.56105,-1.949004 0.0175,-0.980775 0.16093,-1.987094 0.31867,-2.236265 0.51468,-0.813017 10.63704,-1.76558 18.13188,-1.706296 10.21933,0.08084 15.78605,1.159266 20.0946,3.892879 2.53913,1.610979 6.58252,8.370198 8.0464,13.450912 1.63831,5.686115 1.77144,9.090946 1.31999,33.760034 -0.21742,11.88091 -0.30402,24.82958 -0.19244,28.77482 0.17267,6.10551 0.13317,7.17316 -0.26536,7.17316 -0.77322,0 -1.36257,-2.19915 -1.7378,-6.48447 -0.19518,-2.22903 -0.77262,-6.11971 -1.2832,-8.64595 l -0.92834,-4.59317 0.0476,-20.26395 0.0475,-20.263961 -0.99699,-3.27465 c -1.16291,-3.819615 -2.66007,-6.269198 -5.70896,-9.340738 -2.2156,-2.232062 -5.44916,-4.406335 -6.55305,-4.406335 -0.77742,0 -0.82709,0.297053 -1.20274,7.193245 -0.5154,9.46176 -1.3943,11.62112 -6.0666,14.904978 -1.41171,0.992193 -3.36823,3.005371 -4.77994,4.918348 -2.92285,3.960703 -4.13879,4.988503 -6.26372,5.294543 -1.41645,0.204 -2.03592,-0.0702 -4.4905,-1.98756 -3.20274,-2.50178 -4.08532,-2.729795 -4.38425,-1.13266 -0.32838,1.75446 0.76129,6.37425 1.99824,8.4718 1.62274,2.75177 3.21978,3.75863 8.32741,5.25003 2.4831,0.72505 5.15502,1.84388 5.93758,2.48629 1.86628,1.53203 3.56803,4.97292 4.13137,8.35351 1.37704,8.26364 1.63521,26.96449 0.48658,35.24561 -0.61508,4.43441 -0.82449,5.1772 -1.94232,6.88975 -1.71038,2.6203 -3.01383,2.58827 -6.09354,-0.14972 z m 20.55509,-19.14041 c -2.56046,-4.57529 -2.70081,-9.54768 -0.49004,-17.36064 1.7066,-6.03119 1.70498,-6.78506 -0.0176,-8.17194 -3.36895,-2.71247 -3.73364,-9.89758 -0.8482,-16.71095 1.81805,-4.292958 3.9971,-4.803383 6.12653,-1.43509 1.21917,1.92847 1.33829,2.35143 1.33167,4.72826 -0.004,1.43568 -0.3986,4.79884 -0.87687,7.47368 -0.47827,2.67484 -1.42572,10.98307 -2.10545,18.46273 -0.67972,7.47967 -1.33187,13.86281 -1.44921,14.18477 -0.33308,0.91389 -0.61461,0.71662 -1.67087,-1.17082 z M 40.222484,146.08653 c -0.291143,-0.31273 -0.381655,-1.07815 -0.270605,-2.2883 0.361618,-3.94067 1.181708,-9.21102 1.805196,-11.60118 0.360538,-1.38213 0.655523,-2.96839 0.655523,-3.52502 0,-0.55663 0.158739,-1.01205 0.352756,-1.01205 0.194014,0 0.264012,0.39217 0.155546,0.87148 -0.108467,0.47931 0.09236,1.66601 0.446286,2.6371 0.387162,1.06229 0.778941,3.56726 0.983516,6.28845 0.187013,2.48756 0.483445,4.97416 0.658741,5.52578 0.247088,0.77753 0.157646,1.2937 -0.397954,2.29659 -0.575103,1.03808 -1.036178,1.29199 -2.334102,1.28535 -0.889587,-0.004 -1.814294,-0.21974 -2.054903,-0.4782 z M 9.9090539,108.91343 c -1.482899,-0.422 -3.0238949,-1.39992 -3.7827112,-2.40049 -0.4434169,-0.58469 -1.0356789,-0.87706 -1.4339799,-0.70788 -1.173037,0.49825 -1.797922,-0.84888 -2.1055203,-4.53911 -0.156267,-1.874721 -0.5085697,-3.989467 -0.7828949,-4.69943 -0.6734685,-1.74297 -0.6350277,-2.288303 0.3272926,-4.643072 0.6604742,-1.616161 1.1235928,-2.125597 2.310301,-2.541365 0.8163294,-0.285997 1.9502787,-0.39532 2.5198873,-0.242935 0.6461931,0.172876 1.0356522,0.05079 1.0356522,-0.324634 0,-0.902103 2.9298663,-0.738235 3.7269053,0.208449 0.375151,0.44559 1.005128,1.72222 1.399949,2.836953 2.629608,7.424444 3.280772,8.781454 4.213801,8.781454 0.621696,0 1.271783,-0.59608 2.003719,-1.837266 0.795877,-1.349612 1.083451,-1.596664 1.083451,-0.930796 0,1.606315 -0.946315,3.260132 -2.242164,3.918512 -0.877503,0.44582 -1.26312,0.94556 -1.26312,1.63695 0,0.85691 0.298909,1.01138 2.15097,1.1116 3.609027,0.19528 4.495695,-0.002 6.298642,-1.40175 1.971291,-1.53039 2.450845,-1.16264 1.178589,0.90381 -1.613034,2.61996 -2.724379,3.04238 -6.768882,2.57278 -3.625403,-0.42093 -3.670629,-0.41155 -5.408616,1.12266 -1.653425,1.45955 -2.593191,1.70718 -4.4612711,1.17556 z m 0.6540051,-9.425123 c 0.709667,-0.360552 1.269938,-1.02768 1.361452,-1.621116 0.189714,-1.230206 -0.543628,-1.315725 -1.696795,-0.197868 -0.4381604,0.424743 -1.1193009,0.780881 -1.5136453,0.791407 -0.7702413,0.02059 -0.972602,0.834929 -0.3186622,1.28239 0.6262735,0.42853 0.8817657,0.39849 2.1676505,-0.254813 z m 15.597767,8.515473 c 0,-0.17769 0.499728,-0.67714 1.110507,-1.10989 0.610778,-0.43276 1.778583,-1.65186 2.595121,-2.70912 0.816539,-1.05726 1.744044,-1.92228 2.061122,-1.92228 0.50024,0 2.068022,0.93078 2.509239,1.48972 0.278418,0.35271 -0.781538,1.19552 -1.514019,1.20386 -0.399626,0.004 -1.547011,0.59384 -2.549745,1.30952 -1.884053,1.34471 -4.212225,2.30544 -4.212225,1.73819 z M 21.7644,88.145085 c -0.298561,-0.928868 -1.295677,-3.269879 -2.215815,-5.20225 -2.004058,-4.208705 -2.047326,-4.930128 -0.722619,-12.048608 0.815177,-4.380451 0.951159,-5.963774 0.955987,-11.131175 0.0053,-5.642452 0.06637,-6.220127 0.963887,-9.11343 1.862482,-6.004042 5.39974,-12.926167 7.2017,-14.093142 1.259318,-0.815551 1.429039,-0.812443 2.412906,0.04419 0.582068,0.506796 1.840156,1.388145 2.79575,1.958551 0.955593,0.570408 2.059633,1.550375 2.453417,2.177706 0.393787,0.627331 0.926829,1.003396 1.184537,0.835699 0.257712,-0.167697 1.040264,-1.961426 1.73901,-3.986063 1.455091,-4.216167 2.18962,-5.485209 4.198101,-7.253026 1.156144,-1.017612 1.941471,-1.264995 4.053284,-1.276819 2.282851,-0.01278 2.709769,0.138561 3.323551,1.178195 l 0.704247,1.19286 -0.889259,4.481048 c -1.985543,10.005323 -3.837518,13.84273 -8.14781,16.882757 l -2.389967,1.685631 -0.03589,5.155509 c -0.0268,3.851881 -0.172072,5.507959 -0.574456,6.549348 -0.516867,1.337675 -0.503282,1.531977 0.337094,4.822541 1.22864,4.810842 1.279868,10.494692 0.113918,12.639662 -0.937918,1.725468 -2.491463,2.94954 -3.734045,2.942143 -0.487607,-0.0027 -1.618989,-0.583602 -2.514181,-1.290442 -3.334558,-2.632941 -5.67373,-2.185638 -7.166985,1.370498 -0.68882,1.640402 -2.132679,3.167456 -2.994888,3.167456 -0.279752,0 -0.752916,-0.759979 -1.051477,-1.688841 z m 6.617833,-29.091266 c 0.25782,-0.276494 0.39075,-0.635009 0.2954,-0.7967 -0.09535,-0.161692 -0.449693,0.06052 -0.787427,0.493805 -0.67186,0.861937 -0.263609,1.113259 0.492027,0.302895 z m -2.72529,-1.291591 c -0.110123,-0.486639 -0.335559,-0.742962 -0.500968,-0.569607 -0.17931,0.187923 -0.147492,0.628326 0.0788,1.0907 0.466163,0.95249 0.692428,0.673205 0.422168,-0.521093 z m 21.208568,16.535998 c -0.207045,-1.114518 -0.955092,-4.189014 -1.662324,-6.832212 -0.707229,-2.643198 -1.354681,-5.84098 -1.438779,-7.106186 -0.203587,-3.062929 0.911801,-7.169497 2.976203,-10.957574 l 1.567238,-2.875806 1.585258,0.608727 c 1.939155,0.744623 2.218039,1.403554 1.409233,3.329694 -2.001661,4.766888 -3.084077,11.048486 -3.361934,19.51038 -0.114671,3.492155 -0.318732,6.349373 -0.453469,6.349373 -0.13474,0 -0.414382,-0.911878 -0.621426,-2.026396 z M 10.24044,63.81312 C 9.8829134,62.558273 9.5903917,61.229871 9.5903917,60.861115 c 0,-1.183399 -0.9651564,-2.35713 -2.4648177,-2.997478 C 6.183518,57.461383 5.2439155,56.525514 4.477818,55.226403 3.2311685,53.112394 1.8229797,47.761078 2.1421635,46.350586 2.3725185,45.332633 5.1256953,43.902869 6.859935,43.90058 c 1.6238123,-0.0022 5.917771,2.11569 5.915064,2.917383 -0.0011,0.328211 -0.431302,1.01098 -0.955987,1.517266 -0.706886,0.682098 -0.952159,1.311918 -0.946973,2.431675 0.0078,1.684593 1.008366,5.768798 1.553131,6.33973 0.536105,0.561856 0.407698,3.556532 -0.259298,6.047297 -0.846055,3.159421 -1.180457,3.273904 -1.925432,0.659189 z m 5.069889,-24.755568 c -2.819617,-2.52818 -4.928669,-8.675814 -5.301961,-15.454578 -0.1880896,-3.415592 0.06451,-7.259664 0.477038,-7.259664 0.125846,0 0.401906,1.235678 0.613467,2.745952 0.44034,3.143459 2.669369,8.775595 4.316035,10.905414 0.600802,0.777085 1.902135,2.086346 2.891852,2.909468 1.817832,1.511845 2.056638,2.148811 1.484853,3.960537 -0.364978,1.156448 -2.264701,3.266097 -2.909604,3.231123 -0.242209,-0.01314 -0.949465,-0.480349 -1.57168,-1.038252 z m 18.179728,-3.12659 -1.115318,-0.944812 0.10546,-3.931902 c 0.07705,-2.872609 -0.119732,-5.528954 -0.730414,-9.859872 -0.613565,-4.35136 -0.811117,-7.030761 -0.742785,-10.074407 0.10488,-4.6715987 0.690029,-5.9434764 1.019633,-2.2162751 0.113516,1.2836451 1.349613,6.1951371 2.74688,10.9144261 2.753787,9.300941 3.131166,12.112971 2.001301,14.912701 -0.992464,2.459263 -1.555546,2.664995 -3.284757,1.200141 z M 31.418752,5.5358666 c 0.10832,-0.2972047 0.26018,-0.5403722 0.337469,-0.5403722 0.07729,0 0.140525,0.2431675 0.140525,0.5403722 0,0.2972047 -0.151861,0.5403722 -0.337469,0.5403722 -0.185608,0 -0.248844,-0.2431675 -0.140525,-0.5403722 z"
         id="path1213"
         inkscape:connector-curvature="0" />
      <path
         style="fill:#675f5b;stroke-width:0.41496527"
         d="m 52.05213,292.62296 c -0.814705,-0.17144 -1.035015,-0.47003 -1.032663,-1.39954 0.004,-1.57027 1.603342,-6.19728 2.814536,-8.14252 0.964128,-1.54844 0.976731,-1.55234 2.241505,-0.69419 0.699556,0.47466 2.213526,1.0266 3.364372,1.22654 1.99117,0.34594 2.092113,0.43185 2.085452,1.77493 -0.0039,0.77627 -0.273612,2.40691 -0.599473,3.62363 -0.783011,2.92366 -2.353709,4.03496 -5.534226,3.91557 -1.267119,-0.0476 -2.769894,-0.18455 -3.339503,-0.30442 z m 128.36338,-2.17184 -0.77423,-1.06313 0.8269,-2.37494 c 0.45479,-1.30623 1.33715,-3.20664 1.9608,-4.22314 l 1.1339,-1.84818 2.15951,0.88288 c 1.18772,0.48558 2.98404,1.04679 3.99181,1.24712 2.04781,0.40707 2.20626,0.89396 1.38093,4.24355 -0.77054,3.12725 -1.69436,3.73541 -6.04755,3.98116 -3.47391,0.19612 -3.9349,0.11199 -4.63207,-0.84532 z m -35.71235,-13.5036 c -1.06473,-0.33195 -1.59331,-1.13336 -1.59331,-2.4157 0,-1.22522 3.54462,-7.45582 4.24165,-7.45582 0.25778,0 1.09379,0.481 1.8578,1.06888 0.8956,0.68913 2.09002,1.07309 3.36195,1.08074 1.08505,0.007 2.04761,0.21706 2.13902,0.46786 0.30223,0.82925 -0.43382,4.19759 -1.17541,5.37901 -1.06864,1.70242 -6.01619,2.75282 -8.8317,1.87503 z m -64.991626,-9.32891 c -2.190092,-0.56869 -2.743554,-1.63108 -2.044298,-3.9241 0.510242,-1.67319 3.170358,-6.34521 3.612788,-6.34521 0.137946,0 1.065884,0.83229 2.062083,1.84954 0.996198,1.01725 2.375101,2.01108 3.064227,2.20851 0.689126,0.19743 1.335602,0.58573 1.436615,0.86288 0.385196,1.0569 -0.525286,4.15282 -1.389147,4.72354 -1.248777,0.82502 -4.729202,1.14757 -6.742268,0.62484 z m 89.001016,-51.22669 c 0.15644,-2.85442 0.0917,-3.93694 -0.29098,-4.86335 -0.46902,-1.13553 -0.45384,-1.19165 0.32252,-1.19165 0.72876,0 0.97117,0.50327 0.85057,1.76587 -0.0799,0.83678 0.89777,4.17823 1.22254,4.17823 0.18421,0 0.33493,0.25421 0.33493,0.56493 0,0.90266 -1.51274,3.21767 -2.10258,3.21767 -0.47215,0 -0.51353,-0.45087 -0.337,-3.6717 z m -79.873215,1.6529 c -0.307378,-0.52123 -0.84071,-2.55251 -1.185184,-4.51394 -0.344474,-1.96144 -1.051757,-4.56218 -1.571741,-5.77942 -0.519983,-1.21724 -1.357666,-3.7549 -1.861513,-5.63925 -0.503849,-1.88434 -1.369559,-4.30189 -1.923798,-5.37232 -0.554243,-1.07044 -1.007712,-2.18284 -1.007712,-2.47199 0,-0.55787 2.529805,-4.62024 4.738749,-7.6095 0.728908,-0.9864 1.5963,-2.69428 1.927533,-3.79529 0.603285,-2.00528 1.222497,-7.11001 0.86246,-7.11001 -0.105334,0 -0.568777,1.03346 -1.029872,2.29658 -2.003331,5.4879 -3.823634,7.60323 -6.546415,7.60746 -3.360538,0.005 -7.793445,-5.23991 -9.634006,-11.39918 -1.500676,-5.02186 -0.910596,-8.78621 2.499682,-15.94648 0.959307,-2.01418 1.911817,-4.61086 2.116685,-5.77041 0.33862,-1.91654 0.296786,-2.32732 -0.460049,-4.51728 -0.872714,-2.52527 -3.045127,-5.27837 -5.627944,-7.13228 -4.473693,-3.21117 -6.188184,-7.50304 -6.580853,-16.47376 -0.164041,-3.74758 -0.0762,-4.56097 1.166409,-10.80073 1.240533,-6.22932 1.332731,-7.08069 1.19968,-11.07763 -0.130017,-3.905789 -0.297337,-4.823979 -1.708963,-9.378236 l -1.564835,-5.048535 v -5.429605 c 0,-4.511897 -0.0911,-5.527089 -0.539004,-6.006372 -0.41327,-0.44223 -0.69203,-0.341942 -1.194984,0.429914 -0.360789,0.553677 -0.655979,1.307269 -0.655979,1.674652 0,0.367382 -0.573591,1.845036 -1.274648,3.283674 -1.139673,2.338714 -1.276131,2.931465 -1.288635,5.59765 -0.03671,7.827005 -2.322573,11.377774 -4.876593,7.575116 -0.598843,-0.891614 -1.155571,-1.621117 -1.237171,-1.621117 -0.0816,0 -0.243238,3.009463 -0.359199,6.687689 -0.334774,10.61911 -1.76602,17.99673 -4.56837,23.54848 -1.422623,2.81836 -2.22613,2.82204 -3.964311,0.0181 l -1.34399,-2.16802 0.852581,-1.50905 c 0.915695,-1.62077 1.095274,-3.70609 0.48856,-5.67333 -1.094923,-3.55024 -2.745278,-7.08387 -3.982809,-8.5277 -0.813184,-0.94876 -1.310565,-1.88742 -1.184043,-2.23457 0.142305,-0.39045 0.02833,-0.47506 -0.327764,-0.24334 -0.508897,0.33115 -0.507785,0.24575 0.01644,-1.2591 0.706844,-2.02912 0.957714,-2.03063 1.219769,-0.007 0.114476,0.88383 0.839449,2.79767 1.611048,4.25298 0.771602,1.4553 1.769598,3.884 2.217768,5.3971 1.259684,4.25291 1.491775,4.18908 2.976945,-0.81863 1.256214,-4.23572 1.662333,-8.67921 1.917094,-20.975683 l 0.201519,-9.726699 0.796656,0.0361 c 0.43816,0.01989 1.240638,0.213345 1.783284,0.429958 l 0.986629,0.393834 0.221359,-7.995163 c 0.259484,-9.372171 0.764241,-13.541856 2.290828,-18.924012 1.483908,-5.231687 1.888997,-5.641609 4.915689,-4.974322 6.929526,1.527739 9.533545,2.297024 11.744544,3.469603 2.619958,1.389465 5.666942,2.162821 10.720542,2.720983 7.446906,0.822498 10.440148,2.764091 14.630378,9.49013 3.106825,4.986982 4.381277,8.123372 5.140659,12.65101 0.78998,4.710052 1.32841,6.204532 2.54625,7.067409 2.01929,1.430727 2.94653,1.116133 8.03716,-2.726869 2.38953,-1.803898 2.88641,-1.984598 5.41726,-1.970111 11.40316,0.06527 17.50967,15.278062 13.75186,34.259222 -3.20757,16.20183 -11.74825,28.48522 -19.80585,28.48522 -2.62205,0 -3.85072,-1.07404 -6.78539,-5.93146 -1.41664,-2.34481 -2.93131,-4.41463 -3.36593,-4.5996 -1.322425,-0.56283 -2.410178,0.58654 -4.333665,4.57915 -2.424089,5.03171 -3.688725,6.09639 -6.681193,5.62476 -2.440439,-0.38462 -3.779098,0.35626 -4.708262,2.60579 -0.772014,1.86907 -0.603629,3.51502 0.804781,7.86666 1.654453,5.11184 2.656766,9.63258 3.29208,14.84831 0.952109,7.81648 4.091275,14.71135 7.799528,17.13089 2.278308,1.48653 2.135075,2.03571 -0.299972,1.15015 -0.885101,-0.32189 -2.075151,-0.58525 -2.644559,-0.58525 h -1.035286 l -1.185111,14.45496 c -0.65181,7.95022 -1.21851,15.40883 -1.25933,16.57467 -0.08483,2.423 -0.483609,2.89856 -1.287479,1.53539 z m 83.268775,-2.52017 c 0,-0.86841 0.67604,-3.02624 0.9481,-3.02624 0.58574,0 0.34324,2.10832 -0.31077,2.70186 -0.35053,0.31812 -0.63733,0.46409 -0.63733,0.32438 z m -98.060937,-13.4284 c -0.480638,-0.96592 -1.585207,-2.85047 -2.454597,-4.18789 -4.185332,-6.43847 -4.693366,-7.43491 -4.586633,-8.99611 0.127057,-1.85846 1.627019,-3.6863 3.425185,-4.17389 3.563679,-0.96633 8.303187,3.6618 8.307769,8.11255 6.38e-4,0.63625 -0.282455,2.21684 -0.629134,3.51242 -0.346679,1.29557 -0.633475,2.97019 -0.637325,3.72137 -0.01004,1.95637 -0.863495,3.76776 -1.775251,3.76776 -0.48393,0 -1.105127,-0.66118 -1.650014,-1.75621 z m -12.607755,-6.17633 c -0.403987,-0.18465 -0.512052,-0.57541 -0.369607,-1.33646 0.126286,-0.67473 -0.01721,-1.48899 -0.385081,-2.18506 -0.582243,-1.10171 -0.578512,-1.10677 0.528938,-0.71756 1.348301,0.47386 1.825928,1.19925 1.965633,2.98529 0.11019,1.40872 -0.476285,1.83134 -1.739883,1.25379 z m 89.755002,-23.2007 c -2.14992,-2.86577 -3.52264,-3.99096 -4.8689,-3.99096 -1.56366,0 -1.42613,-0.97951 0.20379,-1.45134 2.73889,-0.79286 7.72406,-0.48816 10.20335,0.62365 1.27067,0.56981 2.3103,1.23232 2.3103,1.47223 0,0.23991 -0.19287,0.43621 -0.4286,0.43621 -0.23573,0 -0.67974,0.47056 -0.98667,1.04569 -0.30693,0.57513 -1.17826,1.54005 -1.93628,2.14426 -0.75801,0.60422 -1.46966,1.34949 -1.58143,1.65617 -0.37087,1.01757 -1.02637,0.58232 -2.91556,-1.93591 z m -32.07174,-2.42056 c -0.31102,-0.30703 -1.1518,-2.1325 -1.86841,-4.05662 -1.37433,-3.69013 -2.19158,-4.67846 -5.28961,-6.39699 -1.85044,-1.02647 -2.95333,-2.93569 -2.94855,-5.10424 0.005,-2.08222 1.37931,-6.72732 2.3899,-8.07533 1.14244,-1.52387 3.0384,-1.53258 4.62415,-0.0212 0.76784,0.7318 1.48636,1.03378 1.96998,0.82794 0.41871,-0.1782 2.11073,-2.79786 3.76004,-5.82145 3.07724,-5.64135 4.67838,-7.47166 6.556,-7.4944 0.63617,-0.008 1.23912,0.45567 1.71823,1.32048 0.65017,1.17358 0.71721,1.70481 0.56265,4.45807 -0.31398,5.59281 -1.35545,9.16162 -3.90839,13.39279 -2.71928,4.50686 -2.88969,5.00077 -3.16942,9.18633 -0.29885,4.47167 -0.73309,6.60942 -1.53639,7.56354 -0.78641,0.93405 -2.03981,1.03096 -2.86018,0.22114 z m 54.10075,-3.38309 c -1.53333,-0.84159 -2.88467,-2.25199 -8.19663,-8.55491 -4.41085,-5.23371 -7.77094,-8.27799 -11.24176,-10.18518 -4.07796,-2.2408 -5.78582,-5.27606 -6.66752,-11.84975 -0.72988,-5.44171 -0.8495,-5.82777 -3.61955,-11.6811 -1.39523,-2.94823 -3.02126,-6.81943 -3.61341,-8.60265 -0.97931,-2.94912 -1.07665,-3.64152 -1.07665,-7.65878 0,-6.19746 0.67965,-7.56398 6.51352,-13.096308 3.24723,-3.079392 3.8994,-4.420309 4.09498,-8.419647 0.28635,-5.855327 -1.45395,-6.535391 -7.61924,-2.977413 -5.36615,3.096797 -5.96804,2.978953 -10.9193,-2.137945 -1.97583,-2.041925 -3.3532,-2.991246 -5.83889,-4.024329 -3.85334,-1.601496 -4.57409,-2.185114 -6.46612,-5.235888 -0.78868,-1.271717 -2.79626,-4.282649 -4.46127,-6.690969 -3.04247,-4.400716 -5.20666,-8.924002 -5.02807,-10.508949 0.0827,-0.734196 1.22074,-0.91887 8.2183,-1.333646 9.19082,-0.54478 13.85853,-0.05989 19.79963,2.056813 3.08262,1.09828 4.20413,1.793686 6.62511,4.107967 3.51322,3.358391 5.92834,5.059072 8.41157,5.923273 2.71571,0.945106 3.34059,0.53224 3.46097,-2.286687 l 0.0979,-2.293021 5.57659,-0.705423 c 7.35398,-0.930257 22.21939,-0.556249 26.44896,0.665446 5.93456,1.714174 8.64621,3.947014 11.41057,9.395722 3.58038,7.057147 4.2883,10.484965 4.31693,20.903033 0.0298,10.851881 -0.42651,55.019081 -0.57099,55.264081 -0.382,0.64777 -1.23043,-3.06717 -1.61102,-7.054 -0.23952,-2.5091 -0.83462,-6.11513 -1.32244,-8.01339 l -0.88694,-3.45138 -0.0118,-21.07452 -0.0118,-21.074513 -0.85614,-2.751451 c -1.14345,-3.67479 -3.78818,-7.669756 -6.84084,-10.333332 -3.08281,-2.689881 -5.79346,-4.242462 -6.20085,-3.551644 -0.16359,0.27741 -0.43203,3.102238 -0.59654,6.27739 -0.53507,10.327328 -1.33689,12.505482 -5.72299,15.546502 -1.70406,1.18148 -3.50189,3.029196 -5.31277,5.46018 -4.39997,5.906648 -6.5066,6.441768 -10.99619,2.793232 -2.47752,-2.013405 -3.86596,-2.199244 -4.05144,-0.542274 -0.25394,2.26841 0.71108,6.00841 2.20324,8.53872 1.69913,2.88133 3.14535,3.80076 7.94228,5.04934 5.60348,1.45852 7.60275,2.99132 9.18494,7.0419 1.18072,3.02278 1.48801,5.35989 1.98602,15.10493 0.4498,8.80151 0.2452,18.36003 -0.51418,24.02172 -0.897,6.68776 -3.08135,9.56064 -6.03618,7.93885 z m 18.53664,-21.39269 c -1.32455,-2.48616 -1.95046,-5.84212 -1.6644,-8.92406 0.11151,-1.2013 0.85315,-4.54994 1.6481,-7.44141 0.79496,-2.89148 1.39683,-5.68465 1.3375,-6.20706 -0.0593,-0.5224 -0.71223,-1.51517 -1.4509,-2.20614 -2.89559,-2.70862 -3.62705,-7.77033 -1.92894,-13.34819 2.15444,-7.07678 4.8052,-8.445642 7.2418,-3.7397 1.37256,2.65088 1.44444,3.81766 0.55044,8.93421 -0.43555,2.49271 -0.9501,5.74803 -1.14345,7.23405 -0.27791,2.13585 -2.57308,26.77217 -2.57308,27.61937 0,0.86862 -1.07761,-0.1577 -2.01707,-1.92107 z M 10.705709,108.91038 c -1.7743945,-0.39908 -4.2159234,-1.76824 -4.6179311,-2.58964 -0.2196532,-0.44882 -0.8661459,-0.81602 -1.4366503,-0.81602 -1.3769454,0 -1.8311964,-1.06861 -2.1004721,-4.94128 -0.123426,-1.775093 -0.4541517,-3.657923 -0.734946,-4.184072 -0.7252919,-1.359042 -0.6399858,-2.250283 0.4251183,-4.44146 l 0.9356533,-1.924865 2.3306344,0.227032 c 2.3150028,0.225503 3.1272896,0.745827 3.1272896,2.003236 0,0.418761 0.4897016,0.639076 1.3543144,0.609302 1.2337655,-0.04247 1.3543145,0.07169 1.3543145,1.282767 0,1.756615 -1.8761338,3.971082 -3.1069566,3.667252 -0.9881648,-0.243929 -1.1731543,0.667544 -0.366025,1.803455 0.325111,0.457543 1.1969816,0.672183 2.4025266,0.591443 2.143535,-0.14355 4.274039,0.65939 4.644854,1.75055 0.137251,0.40387 0.536343,0.82429 0.886872,0.93426 0.404487,0.1269 0.667576,0.6918 0.720129,1.54626 0.07224,1.17456 -0.192773,1.57034 -2.077483,3.10251 -1.188158,0.96592 -2.300905,1.71978 -2.472771,1.67525 -0.171866,-0.0445 -0.742678,-0.17772 -1.268471,-0.29598 z m 7.09395,-3.24747 c 0.396388,-0.12925 0.96998,-0.12435 1.274648,0.0109 0.30467,0.13525 -0.01965,0.24101 -0.720705,0.23501 -0.701057,-0.006 -0.950331,-0.11666 -0.553943,-0.24591 z m 12.503776,-0.42369 c 0,-0.0828 0.361639,-0.55239 0.803642,-1.0435 0.534548,-0.59394 0.972979,-0.73223 1.309361,-0.41301 0.391262,0.37131 0.209377,0.60748 -0.803643,1.04351 -0.720148,0.30997 -1.30936,0.49582 -1.30936,0.413 z M 22.021958,88.635499 c -0.352586,-0.641767 -0.641065,-1.447911 -0.641065,-1.791436 0,-0.343525 -0.716096,-2.012265 -1.591324,-3.708309 -0.875228,-1.696045 -1.678527,-3.672899 -1.785109,-4.39301 -0.113483,-0.76674 0.172491,-3.386404 0.690115,-6.321776 0.667236,-3.783811 0.937919,-6.736258 1.104273,-12.044772 0.256814,-8.195182 0.659427,-9.975339 3.741458,-16.542909 2.685282,-5.722128 3.970049,-7.496206 5.428664,-7.496206 0.655961,0 1.476711,0.337387 1.82389,0.749749 0.347179,0.412362 1.275323,1.057644 2.062543,1.433962 0.78722,0.376316 1.959626,1.374965 2.605347,2.219218 1.411482,1.845454 1.559733,1.681778 3.324953,-3.670874 1.783575,-5.408312 4.718119,-8.309365 8.385,-8.2893 3.305187,0.01809 3.801325,2.049031 2.248818,9.205559 -1.877822,8.656126 -2.940047,10.741471 -7.378639,14.485622 l -2.974237,2.508904 0.101924,4.716071 c 0.08098,3.746687 -0.01281,5.045466 -0.456302,6.318572 -0.545929,1.567187 -0.537758,1.688728 0.370757,5.515697 1.119336,4.715018 1.243092,9.095815 0.32322,11.441538 -1.294578,3.301247 -4.074495,4.143396 -6.565029,1.988813 -0.756979,-0.654866 -2.199861,-1.317303 -3.206405,-1.472071 l -1.83008,-0.281404 -1.710152,2.742691 c -2.252988,3.61328 -3.214605,4.247412 -4.07262,2.685671 z m 6.624433,-29.710861 c 0.638857,-1.083343 0.429136,-1.525986 -0.414261,-0.874347 -0.43816,0.338538 -0.796655,0.81966 -0.796655,1.069162 0,0.673417 0.77217,0.549191 1.210916,-0.194815 z m -2.804227,-0.97267 c -0.387319,-1.227238 -0.955987,-1.441531 -0.955987,-0.360249 0,0.923027 0.309479,1.440993 0.860978,1.440993 0.337348,0 0.358862,-0.244716 0.09501,-1.080744 z m 20.839985,15.265514 c -0.290502,-1.708927 -1.008177,-4.731267 -1.594831,-6.716308 -1.588295,-5.374255 -1.674184,-7.244056 -0.521685,-11.357284 0.524916,-1.873411 1.50015,-4.469126 2.167187,-5.768254 1.211362,-2.359267 1.214848,-2.361692 2.957363,-2.056722 2.075501,0.363248 2.463068,1.119543 1.612157,3.145955 -2.001661,4.766888 -3.084077,11.048486 -3.361934,19.51038 -0.114671,3.492155 -0.325848,6.349373 -0.469281,6.349373 -0.143436,0 -0.498474,-1.398213 -0.788976,-3.10714 z M 10.234193,63.377218 C 9.8801022,62.200239 9.5903917,60.890782 9.5903917,60.467319 c 0,-0.941128 -1.1029877,-2.206664 -2.3899665,-2.74218 C 5.3390607,56.95062 4.2251776,55.294077 3.2428466,51.839514 1.8671174,47.001487 1.8761333,46.52075 3.3657149,45.28799 5.29822,43.688672 7.4633094,43.598967 10.229051,45.003624 c 1.313748,0.667221 2.441736,1.289027 2.506642,1.381791 0.06491,0.09276 -0.400229,0.997482 -1.033634,2.010487 l -1.151646,1.841827 0.439795,2.478051 c 0.241888,1.362929 0.742873,3.131426 1.113301,3.929994 0.370428,0.798568 0.673505,1.921196 0.673505,2.494731 0,1.372508 -1.276081,6.376673 -1.626076,6.376673 -0.15012,0 -0.562655,-0.962981 -0.916745,-2.13996 z m 5.047149,-24.614079 c -2.893937,-2.55596 -4.7107,-7.933155 -5.228111,-15.473992 -0.3452797,-5.032168 0.492592,-8.926849 0.92773,-4.312367 0.24879,2.63834 2.35249,8.026106 4.225486,10.821853 0.788295,1.176658 2.213234,2.687579 3.166531,3.357604 1.9829,1.393682 2.161202,2.301817 0.856945,4.364649 -0.771251,1.219822 -2.083217,2.645109 -2.369017,2.57364 -0.05534,-0.01384 -0.766142,-0.612962 -1.579564,-1.331387 z M 33.895739,36.282111 C 32.491324,35.585789 32.042813,34.041116 32.497616,31.466969 32.878381,29.311871 32.758881,27.731598 31.599144,19.585543 30.916036,14.78736 30.738759,8.5353549 31.247159,7.1721271 c 0.333618,-0.8945689 0.273129,-1.0945026 0.957536,3.1649439 0.209404,1.303241 1.394631,5.751932 2.633838,9.88598 2.654475,8.85545 2.977459,11.490938 1.775672,14.489173 -0.840223,2.0962 -1.217506,2.314076 -2.718466,1.569887 z"
         id="path1211"
         inkscape:connector-curvature="0" />
      <path
         style="fill:#20191d;stroke-width:0.41496527"
         d="m 52.530123,292.62022 c -1.592157,-0.28242 -1.586377,-1.65707 0.0247,-5.87195 1.715563,-4.48826 1.938302,-4.73278 3.380398,-3.71101 0.650867,0.46116 2.119951,0.98677 3.26463,1.16804 l 2.081237,0.32956 -0.184719,1.93025 c -0.402677,4.20786 -2.424327,6.6015 -5.454311,6.45792 -1.054319,-0.05 -2.454687,-0.18623 -3.111928,-0.30281 z m 128.046007,-2.48248 c -0.52976,-0.65688 -0.5372,-0.84295 -0.0921,-2.3026 0.26634,-0.87338 1.04877,-2.66669 1.73873,-3.98513 l 1.25448,-2.39715 2.85503,1.18734 c 1.57027,0.65303 3.31415,1.18734 3.87529,1.18734 0.84596,0 1.02006,0.20771 1.01907,1.21583 -0.002,2.18145 -1.14299,4.61611 -2.45186,5.23246 -1.77954,0.83798 -7.48904,0.74181 -8.19866,-0.13809 z m -36.0323,-13.77233 c -1.62374,-0.64581 -1.43678,-2.36634 0.62872,-5.78596 0.98436,-1.62969 1.95316,-2.96308 2.15288,-2.96308 0.19973,0 0.94632,0.47874 1.65911,1.06387 0.71278,0.58512 2.22789,1.17536 3.3669,1.31165 1.94844,0.23314 2.06508,0.32203 1.97216,1.50291 -0.1507,1.91496 -1.11395,3.85059 -2.15346,4.3273 -1.35478,0.62129 -6.50732,0.98837 -7.62631,0.54331 z m -64.976271,-9.29109 c -1.835759,-0.55549 -2.213529,-1.30777 -1.625324,-3.23663 0.391977,-1.28537 3.124028,-5.94802 3.485212,-5.94802 0.08376,0 0.666355,0.59156 1.294645,1.31458 0.965269,1.1108 2.846342,2.48548 4.564183,3.33548 0.517517,0.25607 0.217936,2.25211 -0.533269,3.55306 -0.642114,1.11202 -4.853203,1.68726 -7.185447,0.98153 z m 9.235283,-50.71168 c -0.258209,-0.84672 -0.638038,-2.6747 -0.844066,-4.06218 -0.206028,-1.38749 -0.804061,-3.43035 -1.328961,-4.5397 -0.524901,-1.10935 -1.420972,-3.71917 -1.991269,-5.79961 -0.570297,-2.08043 -1.494743,-4.55948 -2.054323,-5.50899 -0.847556,-1.43817 -0.960834,-1.90569 -0.678499,-2.80027 0.514283,-1.62954 2.876484,-4.64621 4.450092,-5.68304 1.701478,-1.12108 5.278955,-1.77283 5.556162,-1.01223 0.107883,0.296 -0.302193,6.34249 -0.911281,13.43662 -0.609088,7.09414 -1.107431,13.93579 -1.107431,15.20366 0,2.66877 -0.420127,2.9638 -1.090424,0.76574 z M 73.944937,201.11801 c -0.563618,-1.20674 -2.214677,-3.87943 -3.669023,-5.93931 -3.502894,-4.96137 -3.848974,-7.02122 -1.497543,-8.91339 3.090386,-2.48679 8.146379,0.3359 9.337717,5.21313 0.326004,1.33463 0.282245,1.96697 -0.293042,4.23468 -0.371945,1.46618 -0.676268,3.39362 -0.676268,4.28321 0,1.82741 -0.713389,3.31575 -1.589296,3.31575 -0.323283,0 -1.048927,-0.98733 -1.612545,-2.19407 z m 5.85515,-16.2239 c -1.886601,-0.60231 -2.978663,-1.68342 -5.16032,-5.10855 -2.138004,-3.3566 -3.547571,-7.54549 -3.547571,-10.54254 0,-2.48436 1.174455,-6.26329 3.257212,-10.48042 0.889183,-1.8004 1.822257,-4.10306 2.0735,-5.11702 1.123523,-4.53426 -0.820478,-8.96597 -5.627813,-12.82964 -1.676868,-1.34771 -3.456567,-3.09617 -3.954888,-3.88547 -1.755042,-2.77986 -3.077241,-9.08356 -3.077241,-14.67099 0,-1.07788 0.572072,-4.74153 1.271271,-8.14144 1.077097,-5.23746 1.271787,-6.85311 1.274648,-10.57776 0.0033,-4.237882 -0.05684,-4.59736 -1.669598,-9.987448 L 62.96631,87.961493 v -5.567692 c 0,-4.355908 -0.104033,-5.681743 -0.477993,-6.091713 -0.928693,-1.018131 -1.738825,-0.291109 -2.562742,2.299846 -0.445554,1.401125 -1.157862,3.175227 -1.582904,3.942452 -0.629036,1.135436 -0.813254,2.193139 -0.990242,5.685532 -0.260911,5.148423 -1.008292,7.735287 -2.309186,7.992645 -0.484736,0.09589 -1.214173,-0.195458 -1.620971,-0.647453 -1.104757,-1.227493 -2.162327,-5.291994 -1.941612,-7.46208 0.100216,-0.985336 0.314893,-6.778121 0.47706,-12.872854 0.32545,-12.231557 0.90392,-16.73153 2.908044,-22.621919 l 0.987378,-2.902036 2.281934,0.364738 c 4.388759,0.701486 10.268994,2.458517 12.712028,3.798391 1.763307,0.96708 3.755969,1.51202 7.010568,1.917205 11.521391,1.434369 13.139972,2.396723 18.125917,10.777051 2.586001,4.346532 3.759828,7.626478 4.538141,12.680633 0.55453,3.60098 1.4201,5.420273 2.99933,6.304084 1.70842,0.956118 3.55188,0.321786 6.9938,-2.406564 3.02184,-2.395351 3.28284,-2.503879 6.00688,-2.497746 4.75478,0.0107 8.0518,2.088085 10.90897,6.87347 2.49109,4.172262 3.35676,7.745294 3.51245,14.497447 0.16087,6.97728 -0.35568,10.53856 -2.69806,18.60125 -1.59124,5.47721 -2.1247,6.74532 -4.54644,10.80744 -4.0695,6.82602 -7.82335,10.12762 -12.13636,10.67423 -3.37387,0.42759 -4.42207,-0.34716 -7.47577,-5.52547 -4.01765,-6.81295 -5.121891,-6.77015 -8.57669,0.33236 -2.156868,4.43417 -3.425838,5.53963 -5.785207,5.03975 -2.393997,-0.50722 -3.686759,0.0199 -4.87338,1.98726 -1.41284,2.34237 -1.351848,4.428 0.275706,9.42777 2.736075,8.40507 3.771992,16.88509 2.71925,22.25979 -1.355153,6.91864 -4.402854,10.42795 -8.046122,9.2648 z m 39.049763,-16.03075 c -0.43902,-0.81732 -1.058,-2.21553 -1.37551,-3.10714 -1.04904,-2.94586 -2.17048,-4.55289 -3.81253,-5.46336 -2.66561,-1.478 -3.98445,-2.81176 -4.19642,-4.24393 -0.27326,-1.84624 0.69392,-6.42679 1.76913,-8.37865 1.11147,-2.01765 2.64692,-2.17826 4.64524,-0.48588 0.88128,0.74635 1.64222,1.03165 2.1618,0.81051 0.44933,-0.19123 2.0965,-2.71473 3.74684,-5.74023 3.93198,-7.20829 6.36089,-9.1629 7.97822,-6.42031 0.97592,1.65493 0.68351,6.07923 -0.74938,11.33826 -0.87287,3.20364 -1.45168,4.50682 -2.82353,6.35714 -2.30574,3.10991 -2.82071,4.63774 -3.05333,9.05867 -0.21478,4.08207 -0.74529,6.35454 -1.68191,7.20455 -1.00585,0.91285 -1.76404,0.64266 -2.60862,-0.92963 z m 54.99116,-2.26872 c -1.48852,-0.59523 -3.75789,-2.85598 -7.78748,-7.75792 -2.01554,-2.45187 -4.41492,-5.23668 -5.33195,-6.18847 -1.67658,-1.7401 -5.21048,-4.45413 -5.79967,-4.45413 -0.17397,0 -1.11261,-0.50523 -2.08588,-1.12272 -3.20705,-2.03475 -4.44881,-4.68424 -5.45795,-11.64539 -0.71381,-4.92391 -0.97251,-5.71461 -3.61426,-11.0468 -3.00415,-6.06368 -4.79658,-12.03768 -4.79658,-15.98654 0,-3.06531 0.72034,-6.20413 1.7984,-7.83644 0.32537,-0.49264 1.95159,-2.145138 3.61384,-3.67223 1.66225,-1.527092 3.36565,-3.312536 3.78535,-3.967651 1.70152,-2.655961 2.23009,-8.561029 0.95922,-10.71612 -0.58686,-0.99516 -0.9393,-1.112972 -2.62897,-0.87878 -1.07318,0.148748 -3.24183,1.069099 -4.81921,2.045227 -1.97731,1.223619 -3.4682,1.790199 -4.8008,1.824432 -1.80902,0.04647 -2.12542,-0.147425 -4.93926,-3.026879 -3.49453,-3.576021 -3.80011,-3.791753 -7.45682,-5.264457 -3.43082,-1.381731 -3.62008,-1.557147 -6.38975,-5.922252 -1.24551,-1.962972 -3.31149,-5.12884 -4.59107,-7.035262 -2.32569,-3.465034 -4.16651,-7.19059 -4.16651,-8.432437 0,-0.961253 16.95881,-1.620769 21.02521,-0.817655 6.70972,1.32517 9.43703,2.59001 13.59246,6.30374 4.23021,3.780552 6.69127,5.395076 9.02364,5.919739 2.10417,0.473334 2.88337,-0.31742 2.88337,-2.926131 v -2.030017 l 5.81559,-0.661183 c 15.57166,-1.770356 28.46268,0.0027 33.44416,4.600551 2.06422,1.905157 5.43409,8.148812 6.64868,12.318594 1.44857,4.973056 1.64396,9.610325 1.22148,28.989851 -0.19859,9.10956 -0.30538,21.57189 -0.23731,27.69408 0.0681,6.12218 0.0899,11.13124 0.0485,11.13124 -0.31567,0 -0.79136,-2.76991 -1.07997,-6.28861 -0.21072,-2.56913 -0.72894,-5.5676 -1.33676,-7.73458 l -0.99262,-3.5389 -0.0172,-21.07452 c -0.0171,-21.049343 -0.0181,-21.07762 -0.77213,-23.674768 -1.01682,-3.502082 -3.27273,-7.145006 -6.29963,-10.172868 -3.03424,-3.035195 -6.94327,-5.31476 -7.4987,-4.372886 -0.20422,0.346308 -0.47693,3.13906 -0.60603,6.206115 -0.43769,10.398949 -1.23709,12.69131 -5.42375,15.553138 -1.74716,1.194287 -3.46075,2.953966 -5.33518,5.478698 -3.02139,4.069611 -5.32217,5.678711 -7.24506,5.066991 -0.59622,-0.18968 -2.14907,-1.20254 -3.45077,-2.250814 -1.59716,-1.28621 -2.71248,-1.849759 -3.43003,-1.733131 -0.95289,0.154882 -1.07406,0.364098 -1.16693,2.014859 -0.16458,2.925496 0.77604,6.244156 2.52604,8.912266 1.87432,2.85763 3.25375,3.69177 8.56844,5.18133 4.52797,1.26906 6.17881,2.41807 7.77282,5.41002 1.83465,3.44365 2.41213,9.47284 2.42171,25.28423 0.008,12.76308 -0.81488,19.45534 -2.62994,21.39566 -1.0223,1.09285 -1.84936,1.3442 -2.96073,0.89978 z M 192.112,145.35717 c -1.42816,-3.1959 -1.60762,-4.17818 -1.44765,-7.92373 0.11561,-2.70698 0.44086,-4.52958 1.35838,-7.61197 2.05636,-6.90829 2.03874,-7.82667 -0.18715,-9.7523 -2.54159,-2.19875 -3.26005,-7.25954 -1.74864,-12.31732 1.83402,-6.13738 3.87001,-7.62681 6.02981,-4.41111 1.82575,2.71834 1.97327,4.01869 1.05015,9.25691 -0.96845,5.49551 -1.51679,10.26321 -2.60242,22.62754 -1.18538,13.5004 -1.10171,13.15471 -2.45248,10.13198 z M 8.3157429,107.16819 C 7.7023182,106.96263 6.8058271,106.35443 6.3235404,105.81663 5.8412541,105.27882 5.1667782,104.96291 4.8247051,105.1146 3.7146187,105.60687 3.1267901,104.26636 2.876921,100.67279 2.7127174,98.311242 2.4437524,96.994311 1.9741072,96.252348 1.6061942,95.671107 1.3073703,95.022645 1.3100541,94.811316 c 0.00739,-0.581581 0.6219529,-2.077142 0.6275652,-1.527189 0.00268,0.262983 0.3148609,-0.190103 0.6937269,-1.006865 0.6712071,-1.446987 0.7466906,-1.475362 2.9476253,-1.10792 1.2423279,0.207401 2.3023548,0.450687 2.3556154,0.540637 0.053261,0.08996 -0.1971499,0.981268 -0.5564677,1.980702 -0.8555793,2.379772 -0.8262159,3.852535 0.1137392,5.70472 0.6968826,1.373209 0.9420849,1.503669 2.6007116,1.383709 2.50885,-0.18145 4.087134,0.6143 4.536654,2.2873 0.315058,1.17258 0.268831,1.45442 -0.35162,2.1438 -1.001333,1.11258 -3.362166,2.46798 -4.169618,2.39386 -0.3723089,-0.0342 -1.1788184,-0.23033 -1.7922431,-0.43588 z M 7.7746089,96.50441 c -0.2767568,-1.223003 1.0601872,-2.986826 2.1069543,-2.779696 1.1891538,0.23531 1.2243458,1.814332 0.063132,2.832609 -1.2354307,1.08336 -1.9167155,1.066749 -2.1700861,-0.0529 z M 21.887463,86.894512 c -0.251883,-1.02227 -1.022141,-2.906818 -1.711685,-4.187884 -1.994374,-3.705246 -2.054298,-4.087197 -1.35257,-8.621292 0.338358,-2.186249 0.82929,-5.00121 1.09096,-6.255468 0.310669,-1.489125 0.479139,-4.384369 0.485488,-8.343378 0.01173,-7.314293 0.415583,-9.008747 3.878031,-16.271192 2.943997,-6.175 4.599215,-7.593714 6.454526,-5.532279 0.398759,0.443062 1.416971,1.158703 2.262692,1.590314 0.845722,0.431611 1.935416,1.43093 2.421544,2.22071 1.196089,1.943206 1.671138,1.401653 3.648606,-4.159387 1.41175,-3.970124 1.801652,-4.663904 3.395314,-6.041497 2.017202,-1.743709 5.261925,-2.470121 6.723801,-1.50529 1.196392,0.789613 1.152219,2.594115 -0.214221,8.751079 -1.776624,8.005204 -3.412308,11.070264 -7.184201,13.462282 -1.023562,0.649113 -2.181255,1.686118 -2.572649,2.304455 -0.660427,1.043365 -0.698138,1.448376 -0.524142,5.629319 0.152165,3.656336 0.08601,4.804887 -0.351134,6.096511 -0.470132,1.389086 -0.484105,1.818304 -0.109897,3.375511 1.130917,4.706096 1.289703,5.802846 1.302726,8.998029 0.01303,3.19602 -0.06032,3.557372 -1.069465,5.268628 -0.900874,1.527659 -1.317044,1.836844 -2.469632,1.834764 -0.762399,-0.0016 -2.246569,-0.603526 -3.298154,-1.338108 -2.041054,-1.425766 -4.222907,-1.73748 -5.358541,-0.765545 -0.382822,0.327644 -1.289934,1.665065 -2.015803,2.972047 -1.694063,3.050298 -2.767659,3.212253 -3.431594,0.517671 z m 7.141323,-27.321428 c 0.704453,-1.194577 0.838933,-2.967158 0.27032,-3.563083 -0.201853,-0.211548 -0.524498,-0.02245 -0.71699,0.420215 -0.192492,0.442666 -0.697129,1.118523 -1.121414,1.501903 -0.668801,0.604322 -0.827777,0.56638 -1.194983,-0.285201 -0.232956,-0.540242 -0.423555,-1.178948 -0.423555,-1.419348 0,-0.794965 -0.884098,-0.45345 -1.081224,0.417663 -0.343893,1.519682 -0.209889,2.119851 0.682896,3.058497 1.197586,1.25911 2.799833,1.200718 3.58495,-0.130646 z m -1.666338,-3.681285 c 0.06938,-0.352931 -0.100909,-0.641692 -0.378411,-0.641692 -0.277502,0 -0.504549,0.385015 -0.504549,0.855589 0,0.954258 0.686003,0.788073 0.88296,-0.213897 z M 45.42886,66.487568 c -1.905291,-6.884925 -1.599027,-10.290139 1.493401,-16.604617 0.873654,-1.783931 1.268961,-2.178839 2.182243,-2.180039 1.952052,-0.0025 2.055458,0.527817 0.794849,4.076901 -1.514155,4.262904 -2.405482,9.25768 -2.620213,14.683016 -0.09705,2.451939 -0.277016,4.458071 -0.399936,4.458071 -0.122921,0 -0.775576,-1.995 -1.450344,-4.433332 z M 10.410387,62.732294 c -0.275733,-0.937275 -0.5013331,-1.993838 -0.5013331,-2.347922 0,-1.105418 -1.1049844,-2.405216 -2.7481842,-3.232706 C 5.2011806,56.164797 4.0435425,54.166497 3.0499194,50.055396 2.3385306,47.112035 2.3209065,46.823491 2.8140599,46.193864 c 1.4381616,-1.836156 4.5088374,-2.230885 6.9585623,-0.894508 0.8637268,0.471181 1.7845728,0.972603 2.0463258,1.114272 0.383427,0.207522 0.34423,0.434837 -0.201701,1.169703 -1.585468,2.134168 -1.552311,5.271536 0.0992,9.38629 0.812618,2.024647 0.816648,2.565632 0.04456,5.980789 -0.434751,1.923017 -0.734989,1.87453 -1.350614,-0.218116 z M 15.116151,37.970123 C 13.346601,36.249104 12.473114,34.510422 11.495762,30.763716 10.854995,28.307317 10.13023,21.37094 10.42875,20.551864 c 0.09292,-0.254945 0.538318,0.793431 0.989779,2.329723 1.179426,4.013504 3.985694,8.652168 6.374096,10.536159 1.093577,0.862622 1.989814,1.722484 1.991639,1.910805 0.0045,0.459516 -2.484138,4.252119 -2.785894,4.245692 -0.130943,-0.0028 -0.977942,-0.724643 -1.882219,-1.60412 z m 18.035637,-3.172422 c -0.686244,-0.942306 -0.704764,-1.136931 -0.326305,-3.42912 0.359786,-2.179087 0.31409,-3.038775 -0.442369,-8.322413 -0.98617,-6.888096 -1.426795,-13.5687674 -0.855437,-12.969965 0.202988,0.212737 0.369069,0.746818 0.369069,1.186845 0,0.440028 1.055613,4.280984 2.345806,8.53546 2.718804,8.965385 3.04064,10.956747 2.250816,13.926891 -0.474035,1.782608 -0.694594,2.071309 -1.582425,2.071309 -0.567391,0 -1.359012,-0.449552 -1.759155,-0.999007 z"
         id="path1209"
         inkscape:connector-curvature="0" />
      <path
         style="fill:#171215;stroke-width:0.41496527"
         d="m 52.928451,292.47349 c -1.408748,-0.3714 -1.414357,-0.3809 -0.318662,-0.54018 1.009461,-0.14673 1.032143,-0.18348 0.238996,-0.38723 -0.481976,-0.12382 -0.876321,-0.46911 -0.876321,-0.76733 0,-0.74236 1.685086,-4.82683 2.512206,-6.08931 0.849448,-1.29657 0.852606,-0.60163 0.01192,2.6212 -0.827506,3.17227 -0.647003,4.08211 0.809838,4.08211 0.948839,0 1.270379,-0.34426 2.070097,-2.21632 0.520726,-1.21898 1.033179,-2.67798 1.13879,-3.24224 0.139466,-0.74514 0.491371,-1.02591 1.285859,-1.02591 1.22244,0 1.222796,0.002 0.751403,2.88008 -0.274697,1.67754 -0.59123,2.2638 -1.671199,3.09527 -0.732773,0.56417 -1.188916,1.04819 -1.013651,1.0756 0.175264,0.0274 0.03187,0.25883 -0.318663,0.51426 -0.739557,0.53891 -2.576482,0.53891 -4.620602,0 z m 127.903119,-2.95287 c -0.19643,-0.86804 0.63111,-3.07121 1.91932,-5.10981 1.03934,-1.64479 1.29908,-1.26379 0.64776,0.95019 -0.74154,2.52063 -0.50405,3.5698 0.85172,3.76281 0.95607,0.13611 1.43442,-0.23967 2.92348,-2.29658 1.25109,-1.72819 2.07097,-2.45932 2.75785,-2.45932 1.14354,0 1.22077,0.6677 0.35554,3.07398 -0.80184,2.23 -2.16226,2.86323 -6.15963,2.8671 -2.44427,0.002 -3.1556,-0.16778 -3.29604,-0.78837 z m -35.94278,-13.7275 c -1.24982,-0.45889 -1.32847,-1.23279 -0.32981,-3.24537 0.95479,-1.92419 1.71108,-2.3092 0.95891,-0.48816 -0.71988,1.74283 -0.62679,2.04125 0.63674,2.04125 1.23583,0 3.96579,-1.8692 3.96579,-2.71537 0,-0.28978 0.86039,-0.52686 1.91198,-0.52686 2.16027,0 2.40739,0.60795 1.19498,2.93991 -0.56549,1.08766 -1.18833,1.49141 -2.94763,1.91073 -2.44561,0.58291 -3.96728,0.60658 -5.39096,0.0839 z m -64.236728,-9.07428 c -2.814067,-0.51664 -3.117587,-1.16479 -1.77975,-3.80059 0.876678,-1.72723 1.420723,-1.36062 0.893385,0.60201 -0.265971,0.98989 -0.25644,1.44747 0.0388,1.86298 0.615116,0.86569 2.825039,-0.22773 3.620569,-1.79137 0.76789,-1.5093 1.39844,-1.6827 2.897207,-0.79671 0.901505,0.53291 0.955155,0.69502 0.630247,1.90425 -0.195327,0.72697 -0.653203,1.42472 -1.017501,1.55057 -1.203106,0.41562 -4.148918,0.67705 -5.282961,0.46886 z m -2.444789,-83.33755 c -1.607118,-1.2731 -2.15785,-2.64183 -2.634469,-6.54744 -0.368989,-3.02367 -2.109882,-11.06719 -2.660138,-12.29076 -0.346683,-0.7709 -0.0093,-1.76906 1.959157,-5.79565 2.527243,-5.16971 2.897742,-8.39339 1.374374,-11.95826 -1.220572,-2.85629 -2.584777,-4.51833 -5.799983,-7.06622 -4.393823,-3.4819 -6.099121,-8.08585 -6.129856,-16.54933 -0.01502,-4.13433 1.039963,-10.1037 1.785646,-10.1037 0.42195,0 2.561148,-2.8169 5.436064,-7.15819 3.127068,-4.72207 5.290615,-7.381323 6.445214,-7.921933 2.333831,-1.092746 4.834214,1.749373 8.622811,9.801333 5.624866,11.9546 7.631074,14.14648 14.918347,16.29901 6.05566,1.78874 9.79799,2.48524 13.22448,2.46126 2.96857,-0.0208 9.11755,-1.19572 10.75485,-2.05505 0.56961,-0.29895 1.03565,-0.35015 1.03565,-0.11377 0,1.46172 -4.0779,8.68891 -6.47892,11.48249 -2.73788,3.18551 -4.93243,4.71273 -7.74475,5.38968 -3.75929,0.9049 -4.73607,0.27919 -7.84895,-5.02794 -2.63813,-4.49773 -3.43066,-5.32461 -5.10339,-5.32461 -0.852728,0 -1.441306,0.77443 -3.901551,5.13354 -2.051187,3.63432 -3.12453,5.14551 -3.675303,5.17454 -0.427884,0.0225 -1.737846,0.007 -2.911027,-0.0353 -2.274085,-0.0813 -3.085134,0.38822 -4.479186,2.59307 -1.355892,2.1445 -1.198906,4.62408 0.706395,11.15732 2.012246,6.89995 2.656785,11.12727 2.509009,16.45575 -0.137318,4.95137 -1.109537,8.65316 -2.908593,11.07467 -1.583952,2.13199 -4.456252,2.5412 -6.495881,0.92547 z M 119.8243,169.45495 c -0.27566,-0.12578 -1.04817,-1.68461 -1.7167,-3.46409 -1.60549,-4.27349 -2.5074,-5.47302 -5.19761,-6.91279 -1.23647,-0.66174 -2.42569,-1.566 -2.64274,-2.00948 -0.8587,-1.75455 0.0726,-7.47516 1.53434,-9.42496 1.04663,-1.39608 2.11671,-1.32977 4.01708,0.24894 2.1599,1.79429 2.82495,1.25184 6.31946,-5.15446 3.10668,-5.69532 5.06359,-7.8907 6.49175,-7.28286 1.21728,0.51807 1.59077,2.44743 1.13798,5.87842 -0.6779,5.13673 -2.00314,9.03241 -4.13918,12.16757 -1.0775,1.58149 -2.10868,3.34943 -2.29152,3.92874 -0.18283,0.57932 -0.46508,3.05446 -0.62722,5.50033 -0.24979,3.76792 -0.42058,4.6327 -1.1184,5.66286 -0.45297,0.66871 -0.92313,1.18763 -1.04481,1.15316 -0.12167,-0.0345 -0.44677,-0.1656 -0.72243,-0.29138 z m 51.80582,-5.21885 c -1.05158,-0.97116 -3.83469,-4.134 -6.18468,-7.02852 -4.49409,-5.53548 -7.3313,-8.11086 -11.02308,-10.00585 -4.20943,-2.16071 -5.53565,-4.47959 -6.57511,-11.4965 -0.8437,-5.69539 -1.04578,-6.35006 -3.48372,-11.28603 -2.40633,-4.87198 -3.83012,-8.59506 -4.58538,-11.99028 l -0.5633,-2.5323 5.05446,-8.47914 c 8.7413,-14.664027 12.60833,-18.632055 14.55025,-14.930252 0.64161,1.223062 1.37752,5.914358 1.25035,7.970652 -0.0822,1.329062 -0.30152,1.751498 -1.12221,2.161489 -0.93843,0.468805 -1.02777,0.712599 -1.11647,3.046759 -0.0686,1.805462 0.12665,3.363882 0.67702,5.403722 0.62519,2.31715 0.70909,3.12546 0.43776,4.21747 -0.18461,0.74302 -0.33628,4.26894 -0.33704,7.8354 -0.004,20.31157 5.96839,27.91187 13.31587,16.94456 1.49294,-2.22845 4.15904,-8.67665 4.72423,-11.42599 1.28037,-6.22829 2.71533,8.97581 2.36066,25.01246 -0.37891,17.13303 -2.24439,21.32485 -7.37961,16.58235 z m 20.33093,-20.72993 c -0.75487,-1.67977 -0.8911,-2.49239 -0.88326,-5.26863 0.008,-2.76631 0.24587,-4.13774 1.51365,-8.72049 2.01758,-7.29312 1.99665,-7.90252 -0.34044,-9.91186 -1.61033,-1.38449 -2.61484,-3.89764 -2.61216,-6.53526 0.004,-3.91086 2.64413,-10.80744 4.13732,-10.80744 1.09031,0 2.42707,1.60346 3.14659,3.77438 l 0.65638,1.98042 -0.9165,5.40021 c -0.85993,5.06681 -1.99821,15.61128 -2.9229,27.07632 -0.22173,2.74914 -0.51182,4.99844 -0.64464,4.99844 -0.13283,0 -0.64314,-0.89374 -1.13404,-1.98609 z m 10.0332,-5.4935 c -0.12509,-1.58753 -0.69868,-4.61888 -1.27465,-6.73632 -1.19533,-4.39446 -1.14558,-2.75923 -0.88273,-29.01386 l 0.15419,-15.400611 -0.8966,-2.972047 c -1.10169,-3.651851 -3.69196,-8.235569 -5.71564,-10.11433 -1.72667,-1.603008 -1.91377,-2.31423 -0.60881,-2.31423 0.65272,0 1.00465,0.371484 1.26306,1.333233 0.21286,0.792235 1.13037,1.994206 2.2611,2.962121 3.56265,3.049677 4.32516,6.262405 4.81602,20.29158 0.18717,5.349684 0.55735,11.550454 0.82262,13.779494 0.37287,3.13323 0.46036,7.11798 0.3856,17.56209 -0.0605,8.44572 -0.18197,12.42741 -0.32416,10.62288 z M 3.4101113,102.71563 c -0.090842,-0.99224 -0.2228404,-2.53358 -0.2933288,-3.425191 -0.070488,-0.891614 -0.2279866,-2.013535 -0.349996,-2.493158 -0.1795349,-0.705759 0.039735,-0.926214 1.1499151,-1.156137 0.7544628,-0.156254 1.639245,-0.469335 1.9661825,-0.695729 0.4992287,-0.345698 0.5600039,-0.227681 0.3794684,0.736894 -0.3071413,1.641008 0.65725,4.751971 1.6774206,5.411081 0.4696797,0.30344 1.9678229,0.65438 3.3292069,0.77986 2.644394,0.24374 3.129938,0.55633 2.507077,1.61408 -0.266854,0.45317 -1.961911,0.72501 -5.2966129,0.84942 L 3.5752794,104.5197 Z M 53.802532,95.192235 c -1.421463,-1.403736 -2.259267,-7.458309 -1.518942,-10.976947 0.196067,-0.931862 0.275334,-0.882531 0.86831,0.540372 0.358903,0.861218 1.180191,3.348848 1.82509,5.528066 0.927935,3.135656 1.094331,4.12203 0.797631,4.728257 -0.437148,0.893208 -1.181262,0.961219 -1.972089,0.180252 z M 33.25106,83.779839 c -1.589314,-1.379764 -1.723388,-2.051496 -0.409464,-2.051496 1.451104,0 3.863947,-1.54139 5.189397,-3.315129 l 1.194983,-1.59915 v 2.240993 c 0,1.82808 -0.199629,2.57951 -1.083451,4.078254 -1.316489,2.23244 -2.833697,2.432977 -4.891465,0.646528 z m 0.451439,-24.567005 c -0.364807,-0.618618 -0.233178,-3.206215 0.266195,-5.232916 0.263247,-1.068401 0.640941,-3.793063 0.839315,-6.054806 0.198373,-2.261742 0.520729,-4.180534 0.716346,-4.263981 1.948415,-0.831167 2.231206,-1.233903 3.435287,-4.892376 0.684712,-2.080432 1.664114,-4.438912 2.17645,-5.241064 1.172565,-1.835869 3.708791,-3.134704 6.121109,-3.134704 2.654615,0 2.841444,0.901446 1.511306,7.291997 -1.66675,8.007784 -3.211713,11.001554 -7.120637,13.798095 -2.672238,1.911783 -3.37788,2.940469 -3.37788,4.924272 0,1.247758 -0.212994,1.681026 -1.154233,2.347923 -1.191035,0.843883 -3.039327,1.091655 -3.413258,0.45756 z M 5.7327006,52.683339 C 4.9684409,51.271617 4.0539403,49.866222 3.7004771,49.56024 3.3214367,49.232117 3.0578166,48.463404 3.0578166,47.686251 c 0,-2.400628 3.4461854,-3.396855 6.4747376,-1.871723 0.9081318,0.457321 1.6511488,0.966093 1.6511488,1.130605 0,0.164512 -0.286796,0.917387 -0.637325,1.673056 -0.350528,0.755669 -0.6373241,2.178448 -0.6373241,3.161731 0,1.234874 -0.219036,2.047948 -0.7082287,2.628987 -1.1870361,1.409904 -1.9858508,1.012452 -3.4681246,-1.725568 z"
         id="path1207"
         inkscape:connector-curvature="0" />
    </g>
  </g>
</svg>
