<?xml version="1.0" encoding="UTF-8" standalone="no"?>
<!-- Created with Inkscape (http://www.inkscape.org/) -->

<svg
   xmlns:dc="http://purl.org/dc/elements/1.1/"
   xmlns:cc="http://creativecommons.org/ns#"
   xmlns:rdf="http://www.w3.org/1999/02/22-rdf-syntax-ns#"
   xmlns:svg="http://www.w3.org/2000/svg"
   xmlns="http://www.w3.org/2000/svg"
   xmlns:sodipodi="http://sodipodi.sourceforge.net/DTD/sodipodi-0.dtd"
   xmlns:inkscape="http://www.inkscape.org/namespaces/inkscape"
   width="210mm"
   height="297mm"
   viewBox="0 0 210 297"
   version="1.1"
   id="svg8"
   inkscape:version="0.92.5 (0.92.5+69)"
   sodipodi:docname="dog.svg">
  <defs
     id="defs2" />
  <sodipodi:namedview
     id="base"
     pagecolor="#ffffff"
     bordercolor="#666666"
     borderopacity="1.0"
     inkscape:pageopacity="0.0"
     inkscape:pageshadow="2"
     inkscape:zoom="1.0074671"
     inkscape:cx="382.68389"
     inkscape:cy="938.78511"
     inkscape:document-units="mm"
     inkscape:current-layer="layer1"
     showgrid="false"
     inkscape:window-width="1299"
     inkscape:window-height="713"
     inkscape:window-x="67"
     inkscape:window-y="27"
     inkscape:window-maximized="1" />
  <metadata
     id="metadata5">
    <rdf:RDF>
      <cc:Work
         rdf:about="">
        <dc:format>image/svg+xml</dc:format>
        <dc:type
           rdf:resource="http://purl.org/dc/dcmitype/StillImage" />
        <dc:title></dc:title>
      </cc:Work>
    </rdf:RDF>
  </metadata>
  <g
     inkscape:label="Layer 1"
     inkscape:groupmode="layer"
     id="layer1">
    <g
       id="g1122"
       transform="matrix(1,0,0,1.0714158,-4.2333335,-20.354833)">
      <path
         style="fill:#cdcead;stroke-width:1.10108423"
         d="m 72.701624,284.58385 c -0.320213,-0.51812 -1.807234,-0.94203 -3.304492,-0.94203 -9.462395,0 2.630838,-15.69622 12.341475,-16.01842 2.048083,-0.0679 3.723787,0.37029 3.723787,0.9739 0,0.6036 0.248134,0.84932 0.551407,0.54605 0.303275,-0.30329 0.119501,-2.86331 -0.408385,-5.68894 -0.614018,-3.28667 -0.569306,-5.13753 0.124106,-5.13753 0.632874,0 0.791651,-1.48907 0.38157,-3.57852 -0.386282,-1.96819 -0.780353,-4.85519 -0.875712,-6.41555 -0.141817,-2.32057 -0.627684,-2.75018 -2.668982,-2.35995 -2.370991,0.45324 -9.215931,-1.83804 -9.215931,-3.08495 0,-2.83642 8.723447,-9.60417 10.320701,-8.00691 0.379577,0.37958 0.690142,0.11207 0.690142,-0.59445 0,-0.70654 1.064344,-2.34895 2.365209,-3.64981 2.019004,-2.01901 2.162717,-2.68946 0.981815,-4.58038 -1.412427,-2.26166 -1.856374,-19.64055 -0.555491,-21.74542 1.022135,-1.65385 -0.609809,-7.76211 -1.866326,-6.98553 -0.650361,0.40194 -0.99493,-0.60385 -0.845444,-2.46783 0.576928,-7.19387 -0.122677,-14.70768 -1.369418,-14.70768 -0.709311,0 -2.136152,-0.76607 -3.170759,-1.70237 -1.752503,-1.58599 -1.861179,-1.3331 -1.589648,3.69933 0.1603,2.97094 1.078558,6.60297 2.040573,8.07119 1.626618,2.48254 3.309073,13.71769 2.298963,15.35209 -0.562067,0.90945 -11.28283,-1.53086 -14.880901,-3.38726 -3.261199,-1.68259 -8.733511,-6.67707 -8.733511,-7.97092 0,-0.51762 -1.052123,-2.03526 -2.338052,-3.37252 -2.135111,-2.22036 -2.238751,-2.23771 -1.194006,-0.19998 0.810731,1.58131 0.669323,6.39329 -0.485359,16.51626 -0.896173,7.85667 -1.385646,16.88615 -1.087719,20.06553 0.297928,3.17938 0.142111,5.78069 -0.346257,5.78069 -1.163102,0 -3.073336,4.94216 -4.03179,10.43106 -1.337807,7.66138 -4.559807,15.38105 -7.272158,17.42355 -3.06335,2.30682 -17.701968,3.09249 -19.735248,1.0592 -0.668041,-0.66804 -1.897474,-0.95258 -2.732074,-0.63232 -2.427593,0.93157 -1.757469,-1.31515 1.306008,-4.37863 3.264488,-3.26449 10.656471,-5.99412 15.131399,-5.58755 2.748949,0.24974 3.059134,-0.0469 2.808701,-2.68604 -0.425989,-4.48921 1.312088,-11.32154 2.667057,-10.48413 0.767462,0.47432 0.873699,-5.6e-4 0.310067,-1.38599 -0.471572,-1.15913 -0.996218,-9.78758 -1.165881,-19.17433 -0.211256,-11.68786 -0.871371,-18.99057 -2.094472,-23.1707 -0.982296,-3.35716 -2.030541,-8.52071 -2.329434,-11.47458 -0.298892,-2.95387 -0.757325,-5.58454 -1.01874,-5.84596 -0.261415,-0.26142 -0.03038,-1.64553 0.513413,-3.07582 0.614421,-1.61605 0.581008,-2.85249 -0.08825,-3.26612 -0.592335,-0.36608 -0.73081,-1.22571 -0.307724,-1.91027 1.292438,-2.09122 1.071833,-6.31076 -0.329944,-6.31076 -0.726528,0 -1.605419,-0.61936 -1.953094,-1.37635 -0.347674,-0.757 -0.400276,-0.38538 -0.116892,0.82581 0.283383,1.2112 0.03865,2.9454 -0.543846,3.8538 -0.910816,1.4204 -1.061448,1.38952 -1.075948,-0.22056 -0.0092,-1.0297 -0.646653,-2.26842 -1.4164,-2.75271 -1.465144,-0.92181 -4.105882,-6.20034 -4.105882,-8.20719 0,-0.64189 0.626706,-0.92659 1.392681,-0.63266 1.014658,0.38937 1.282022,-0.62593 0.985003,-3.74048 -0.508524,-5.33237 0.502343,-8.43283 2.196922,-6.73825 0.659538,0.65954 1.882014,0.93712 2.716614,0.61686 1.839875,-0.70602 2.007648,-3.30304 0.251207,-3.88852 -2.239889,-0.74662 0.61562,-6.75629 4.333705,-9.12064 1.904669,-1.2112 3.270295,-2.76329 3.034724,-3.4491 -0.632672,-1.84187 1.777178,-10.73571 3.16314,-11.67395 0.727892,-0.49276 0.441804,-0.81554 -0.731919,-0.82581 -1.059794,-0.009 -1.926898,-0.51235 -1.926898,-1.11795 0,-0.6056 0.758066,-1.10108 1.68459,-1.10108 1.352936,0 1.21535,-0.63468 -0.698846,-3.22377 -1.310889,-1.77308 -2.098408,-3.96655 -1.750039,-4.87438 0.348367,-0.90783 -0.159234,-2.30619 -1.128003,-3.10746 -2.085481,-1.72491 -6.890225,-11.676443 -6.905619,-14.302845 -0.0059,-1.009326 -0.382372,-2.000302 -0.83657,-2.202168 -0.454197,-0.201865 -2.00881,-2.049478 -3.454697,-4.105805 -1.924251,-2.736655 -2.957201,-6.374415 -3.853794,-13.571971 -1.221409,-9.805073 -1.237254,-9.840636 -5.54057,-12.435357 -4.295264,-2.589868 -4.328487,-2.592074 -7.030267,-0.466853 -1.493035,1.174421 -3.0744584,2.135311 -3.5142744,2.135311 -0.4398158,0 -1.1205221,-2.849055 -1.5126803,-6.331234 C 6.486096,47.005059 5.8698025,42.574624 5.5087132,40.641824 4.8568692,37.152705 4.8981623,37.115306 11.29895,35.397497 c 3.54572,-0.95158 7.933227,-2.317456 9.750016,-3.035279 4.6175,-1.824398 15.781398,-1.242727 19.205219,1.000646 2.208164,1.446846 5.993859,1.890118 17.934848,2.100016 8.324732,0.146332 15.3787,-0.126839 15.675485,-0.607047 1.254647,-2.030062 24.01348,5.165606 27.956382,8.838981 3.37203,3.141517 2.92904,7.359691 -1.49387,14.224742 -2.370972,3.680128 -3.853794,7.347891 -3.853794,9.532374 0,3.870479 -1.52013,5.634984 -2.951899,3.426444 -0.496043,-0.76516 -1.955573,-3.827894 -3.2434,-6.806076 -2.219932,-5.133732 -2.408551,-5.289601 -3.632814,-3.002045 -1.072981,2.004883 -0.902922,2.958269 1.005821,5.638851 1.996616,2.803989 2.267937,4.626671 2.073987,13.932658 -0.222665,10.683779 -0.215998,10.712679 3.12254,13.536461 1.840125,1.556402 4.388516,4.811774 5.663091,7.234157 3.170588,6.02584 4.080348,7.00196 12.276768,13.17224 8.24898,6.20985 9.01851,6.96674 14.60793,14.36811 2.28119,3.0207 5.40792,7.03508 6.94828,8.92085 8.34938,10.22169 18.53677,23.88809 22.70686,30.46133 2.60435,4.10519 7.59255,11.24211 11.08489,15.8598 7.0857,9.36897 9.62432,16.24292 9.95432,26.95376 l 0.21223,6.88856 5.12174,3.16456 5.12173,3.16456 6.80385,-1.74306 c 10.36596,-2.65564 13.63636,-2.33903 16.98842,1.64467 4.85936,5.77502 4.48708,6.17052 -10.22296,10.86076 -3.85967,1.23064 -9.97269,2.8479 -13.5845,3.59391 -5.78882,1.19565 -6.95747,1.13221 -9.86318,-0.53544 -4.70032,-2.69761 -6.04992,-2.37113 -6.85586,1.65853 -0.61807,3.09038 -0.20797,4.01029 3.16562,7.1009 6.59984,6.04626 4.85184,8.99385 -7.6857,12.96007 -4.84477,1.53263 -9.72334,2.79294 -10.84127,2.80067 -1.11794,0.008 -5.57733,1.67687 -9.90976,3.70918 -8.03685,3.77005 -12.27194,4.04685 -20.18819,1.31951 -8.75013,-3.01465 3.6377,-14.85854 15.61428,-14.92867 2.42239,-0.0142 5.57018,-0.33789 6.99509,-0.71935 2.38046,-0.63727 2.2464,-0.81344 -1.65162,-2.17056 -2.33331,-0.81235 -5.29656,-1.48445 -6.58501,-1.49357 -1.28843,-0.009 -2.92945,-0.72368 -3.6467,-1.58791 -0.87251,-1.05131 -2.53078,-1.37227 -5.01068,-0.96984 -2.74377,0.44525 -4.59644,-0.0322 -7.13228,-1.83782 -3.17564,-2.26125 -4.08563,-2.37129 -12.46623,-1.5076 l -9.04051,0.93171 -0.55055,4.40434 c -0.3028,2.42238 -1.407342,5.97014 -2.454546,7.88392 -1.047203,1.91376 -2.667087,7.8554 -3.599741,13.20364 -1.10147,6.31629 -2.426238,10.45456 -3.780223,11.80855 -2.278859,2.27886 -17.354607,5.42787 -18.341436,3.83116 z m 17.165107,-32.87348 c 0,-0.60559 -0.218502,-1.10108 -0.48556,-1.10108 -0.267058,0 -0.791787,0.49549 -1.166067,1.10108 -0.374279,0.6056 -0.155777,1.10109 0.48556,1.10109 0.641336,0 1.166067,-0.49549 1.166067,-1.10109 z m -4.404337,-8.80867 c 0,-0.6056 -0.524731,-1.10108 -1.166067,-1.10108 -0.641337,0 -0.859839,0.49548 -0.48556,1.10108 0.37428,0.6056 0.899009,1.10109 1.166067,1.10109 0.267058,0 0.48556,-0.49549 0.48556,-1.10109 z m 18.718436,-10.39531 c 0,-0.26706 -0.49549,-0.79179 -1.10109,-1.16607 -0.60559,-0.37428 -1.10108,-0.15578 -1.10108,0.48555 0,0.64134 0.49549,1.16607 1.10108,1.16607 0.6056,0 1.10109,-0.2185 1.10109,-0.48555 z m 53.4323,-23.69021 c -0.35793,-0.57915 -1.37815,-0.77388 -2.26715,-0.43274 -2.27607,0.87341 -2.00785,1.48574 0.65079,1.48574 1.24693,0 1.9743,-0.47386 1.61636,-1.053 z M 55.320018,183.65629 c -0.08548,-1.69957 -1.056122,-4.46478 -2.156992,-6.14492 -2.694058,-4.11166 -1.682898,-6.18014 3.021095,-6.18014 3.91609,0 6.163175,-1.57015 3.684925,-2.57484 -1.075302,-0.43593 -1.045426,-0.79712 0.134205,-1.62257 0.834582,-0.58399 1.174793,-1.61618 0.756024,-2.29377 -0.418768,-0.67758 0.01325,-1.52922 0.960019,-1.89253 1.7066,-0.65488 2.482117,-4.83309 0.895602,-4.82518 -0.454197,0.002 -2.448124,0.99323 -4.43095,2.20216 -4.21381,2.56916 -7.043766,2.86966 -6.195,0.6578 0.325078,-0.84714 0.06178,-1.86735 -0.585098,-2.26715 -1.188351,-0.73444 -1.527169,1.28899 -1.282843,7.6612 l 0.126656,3.30325 -1.494843,-3.30325 c -0.822164,-1.81679 -1.288364,-3.87249 -1.036001,-4.56823 0.252364,-0.69575 -0.07043,-1.59208 -0.717306,-1.99189 -0.646883,-0.39979 -1.17615,-1.96561 -1.17615,-3.4796 0,-1.51399 -0.46125,-2.46765 -1.025001,-2.11923 -1.816954,1.12294 -2.215879,-1.13621 -0.936646,-5.30433 0.845102,-2.75361 1.534162,-3.61061 2.138005,-2.65912 0.639187,1.00717 0.89577,0.82609 0.907866,-0.64073 0.01167,-1.41508 -0.519448,-1.8389 -1.72482,-1.37636 -0.957926,0.3676 -2.196646,0.66835 -2.752711,0.66835 -0.556066,0 -1.01103,1.70496 -1.01103,3.78881 0,2.08384 -0.495488,4.09504 -1.101084,4.46932 -1.711609,1.05783 -1.392178,10.4603 0.35537,10.4603 2.07627,0 6.186611,8.78912 5.789101,12.37881 -0.394164,3.55946 2.01917,6.30549 3.089729,3.51565 0.375486,-0.9785 0.360661,-2.35375 -0.03294,-3.05608 -0.430289,-0.7678 -0.113421,-0.71723 0.794669,0.12684 1.245769,1.15795 1.260891,1.80324 0.08634,3.684 -1.205286,1.92997 -1.132566,2.60218 0.473498,4.37685 2.745003,3.0332 4.627677,2.61255 4.446323,-0.99342 z m 19.477726,-6.89951 c -0.195094,-2.46632 -1.60848,-7.22522 -3.140856,-10.57533 -1.689726,-3.69412 -2.508286,-6.96656 -2.080076,-8.31573 0.812288,-2.5593 -1.729056,-4.81446 -3.062199,-2.71736 -1.541657,2.4251 -0.894721,6.07559 1.633358,9.21661 4.07914,5.06814 5.495299,8.72411 5.005265,12.9216 -0.286583,2.45479 0.005,3.95442 0.768785,3.95442 0.763179,0 1.095737,-1.7029 0.875723,-4.48421 z m -0.18103,-11.48151 c 0,-0.57532 -0.532649,-1.22358 -1.183665,-1.44059 -0.651017,-0.21701 -1.183666,0.43125 -1.183666,1.44059 0,1.00933 0.532649,1.65759 1.183666,1.44058 0.651016,-0.217 1.183665,-0.86527 1.183665,-1.44058 z M 45.474443,149.10309 c -0.351495,-0.87837 -0.612404,-0.61746 -0.665239,0.66524 -0.04781,1.16072 0.21243,1.81106 0.578312,1.44518 0.36588,-0.36589 0.404998,-1.31558 0.08693,-2.11042 z m 16.969091,-6.0967 c -0.999298,-1.71666 -1.14211,-1.73444 -1.171511,-0.14588 -0.01842,0.995 -0.900586,2.14666 -1.96038,2.55923 -1.723875,0.67112 -1.636865,0.98781 0.825813,3.00569 l 2.752711,2.25553 0.345699,-2.8598 c 0.190133,-1.57288 -0.166416,-3.73953 -0.792332,-4.81477 z m -3.407162,-8.01094 c 0,-1.05021 -3.405703,-2.46675 -4.147418,-1.72504 -0.290933,0.29094 -0.238772,1.28523 0.115916,2.20953 0.635732,1.65669 4.031502,1.24859 4.031502,-0.48449 z m -12.410136,-1.76633 c -0.365882,-0.36588 -1.315567,-0.40499 -2.110412,-0.0869 -0.878371,0.35149 -0.617462,0.6124 0.665239,0.66523 1.160725,0.0478 1.811053,-0.21242 1.445173,-0.57831 z M 40.891907,93.429522 c -1.312509,-3.315835 -1.617485,-7.982861 -0.521657,-7.982861 0.576827,0 1.048774,-0.828089 1.048774,-1.840197 0,-1.012109 0.839324,-2.767639 1.865163,-3.901179 1.726925,-1.908231 1.728577,-2.008569 0.02229,-1.353802 -2.469172,0.947509 -6.291786,7.287987 -6.291786,10.436028 0,1.391708 0.867104,3.409599 1.926898,4.484202 2.471968,2.506512 2.893512,2.54062 1.950322,0.157809 z M 56.756814,40.57748 c 0.04257,-0.756995 -0.418098,-1.376355 -1.023695,-1.376355 -0.605596,0 -1.066259,1.610336 -1.023694,3.578524 0.06485,2.998832 0.230684,3.221791 1.023694,1.376355 0.520468,-1.211193 0.98113,-2.821528 1.023695,-3.578524 z"
         id="path1136"
         inkscape:connector-curvature="0" />
      <path
         style="fill:#abb195;stroke-width:1.10108423"
         d="m 70.402447,283.9763 c -6.122732,-1.19185 -5.128309,-6.16744 2.246752,-11.24163 6.075427,-4.18 9.197351,-4.37249 10.611026,-0.65424 0.575619,1.51399 1.359598,2.75271 1.742178,2.75271 0.382579,0 0.431914,-0.68715 0.109635,-1.527 -0.419635,-1.09354 0.05528,-1.3593 1.673075,-0.93624 2.856156,0.74689 4.725248,-2.31296 4.323705,-7.07827 -0.161539,-1.91706 0.524204,-5.06722 1.523874,-7.00037 1.026545,-1.98513 1.537222,-4.63186 1.173396,-6.08146 -0.354303,-1.41164 -0.215972,-2.83128 0.307404,-3.15475 0.523374,-0.32346 0.277447,-3.187 -0.546502,-6.3634 -1.839224,-7.09039 -1.895306,-13.346 -0.20203,-22.53574 0.994024,-5.39475 0.994024,-7.33601 0,-8.33002 -2.768924,-2.76893 -0.470938,-22.87731 2.614417,-22.87731 3.091384,0 0.210169,-3.18705 -3.17838,-3.51576 -2.655777,-0.25762 -3.441596,-0.83742 -3.303167,-2.43721 0.0999,-1.15456 -0.551599,-2.83242 -1.447783,-3.7286 -1.722575,-1.72258 -1.164452,-9.62356 0.828923,-11.73452 1.611295,-1.70635 1.134912,-2.80777 -1.214408,-2.80777 -1.223427,0 -2.202168,-0.73406 -2.202168,-1.65162 0,-0.9084 -0.495488,-1.65163 -1.101084,-1.65163 -0.605597,0 -1.101085,-0.70784 -1.101085,-1.57298 0,-0.86514 -0.795254,-2.36823 -1.767233,-3.34021 -1.268622,-1.26862 -1.569752,-2.8199 -1.067299,-5.4982 0.389409,-2.07573 0.217785,-4.02897 -0.386846,-4.40264 -0.59773,-0.36942 -0.818,-1.37211 -0.489489,-2.22819 0.497179,-1.29563 0.03478,-1.34419 -2.758777,-0.28975 -4.345865,1.64039 -5.82473,0.1193 -2.502583,-2.57401 2.19701,-1.78116 2.322086,-2.20157 0.825813,-2.77574 -0.96984,-0.37216 -2.569378,-0.36735 -3.55453,0.011 -2.502046,0.96014 -4.808469,-1.28148 -4.851951,-4.71561 -0.04081,-3.22289 -2.741632,-6.99277 -5.867172,-8.18954 -1.524857,-0.58388 -1.929651,-1.605 -1.580175,-3.98613 0.389258,-2.65218 0.03293,-3.28468 -2.077762,-3.68817 -3.460871,-0.66159 -6.344717,1.61389 -5.609333,4.426 0.985409,3.76821 -0.709188,5.21389 -3.405486,2.90525 -2.831894,-2.42475 -2.929468,-4.00488 -0.478314,-7.74581 1.775701,-2.71006 1.762419,-2.92173 -0.275271,-4.38651 -4.882051,-3.50976 -5.994793,-4.91832 -5.994793,-7.58878 0,-1.54524 -1.029618,-3.90366 -2.288041,-5.24093 C 36.574139,97.823484 33.689329,91.654358 33.26781,88.002217 33.115503,86.68259 31.689625,83.89685 30.099191,81.811684 27.183769,77.98937 25.579531,72.786926 24.334604,63.117484 23.745063,58.538488 23.096457,57.484111 19.339986,54.998195 15.380356,52.377836 14.816521,52.2765 12.530509,53.774352 8.9446148,56.12392 8.0066201,55.657955 7.5758777,51.313051 7.3657474,49.193464 6.6828728,45.538149 6.0583785,43.190129 4.6124153,37.753488 5.1561937,37.232433 15.214194,34.416922 c 10.272149,-2.875457 23.305933,-3.152624 25.333011,-0.538714 1.180035,1.52165 3.954842,1.884738 16.286999,2.131175 8.17555,0.163375 16.129886,-0.07191 17.676303,-0.522849 3.848116,-1.122128 23.583323,5.235086 27.067313,8.719072 3.47538,3.475379 3.29167,5.542814 -1.14759,12.914933 -2.062827,3.425665 -4.096359,8.27504 -4.51896,10.776391 -0.91852,5.436672 -1.813881,4.788154 -5.33363,-3.863191 -2.415098,-5.936176 -2.742447,-6.288234 -3.876546,-4.16915 -1.413905,2.641904 -1.63687,5.758414 -0.412887,5.771147 2.293269,0.02386 3.529241,6.319947 2.901675,14.781252 -0.617017,8.319069 -0.476534,9.14891 2.211155,13.061432 1.578516,2.29788 2.877618,5.270807 2.886892,6.6065 0.02092,3.01365 1.460731,5.40641 2.987069,4.96411 0.632773,-0.18337 3.808042,2.18629 7.056142,5.26592 3.24811,3.07962 7.03437,6.20128 8.41393,6.93702 1.37955,0.73574 2.19681,1.84168 1.81611,2.45766 -0.38069,0.61597 0.34308,1.39067 1.60841,1.72156 1.26531,0.33089 2.05679,0.99606 1.75883,1.47815 -0.96503,1.56146 0.75038,4.37852 2.66626,4.37852 2.03587,0 4.50675,2.02535 4.50675,3.69412 0,0.57834 -0.90732,0.23042 -2.01625,-0.77316 -1.10894,-1.00357 -2.31708,-1.52385 -2.68476,-1.15618 -1.01318,1.01318 4.74981,5.94281 6.94745,5.94281 1.81113,0 13.63135,13.73026 23.49665,27.29352 6.08596,8.36725 10.48236,17.35674 9.35685,19.13235 -0.71551,1.12878 -0.93654,1.02272 -0.94947,-0.4556 -0.009,-1.0598 -0.57718,-1.9269 -1.26201,-1.9269 -0.8081,0 -1.02564,1.3527 -0.61977,3.85379 0.34396,2.11959 0.16104,3.8538 -0.40648,3.8538 -0.56752,0 -1.03186,-0.68257 -1.03186,-1.51681 0,-1.97328 -2.01276,-3.5082 -5.78069,-4.4083 -2.89891,-0.69252 -3.02798,-0.54501 -3.02798,3.46056 0,3.58715 -0.44687,4.3526 -3.13301,5.3665 -1.72917,0.65269 -3.42291,2.2911 -3.77997,3.6565 -0.592,2.26381 -0.32592,2.43644 3.13302,2.03262 2.07898,-0.24271 3.77996,-0.0453 3.77996,0.4387 0,0.48399 1.98195,0.87998 4.40434,0.87998 2.42238,0 4.40433,-0.51721 4.40433,-1.14935 0,-0.63214 0.61936,-1.04948 1.37636,-0.92742 1.59335,0.25692 4.5741,-0.75413 8.65417,-2.93546 3.16174,-1.69035 4.93787,-0.95667 3.08595,1.27475 -0.82581,0.99505 -0.83297,2.01394 -0.0239,3.40456 1.10733,1.90335 1.15595,1.90195 1.18806,-0.0341 0.0184,-1.11096 0.65237,-1.81682 1.40984,-1.5698 1.94917,0.63568 3.93624,8.99704 4.04045,17.00176 0.0955,7.33731 0.96624,8.49801 9.47514,12.63058 4.7398,2.302 14.83733,2.65405 14.83733,0.5173 0,-3.84392 8.6391,-1.81408 10.9922,2.5827 0.93214,1.74174 0.7056,2.38116 -1.20612,3.40428 -3.7532,2.00865 -16.75294,6.23042 -23.49403,7.62986 -5.62439,1.16761 -6.54208,1.07614 -10.06678,-1.00349 -5.18613,-3.05988 -5.73456,-2.92894 -6.5787,1.57069 -0.63511,3.38547 -0.23596,4.39903 3.25337,8.26131 2.18751,2.42131 3.97729,4.81965 3.97729,5.32964 0,2.84352 -11.0249,7.74911 -21.47114,9.5537 -2.42239,0.41847 -7.33254,2.19392 -10.91144,3.94545 -7.97869,3.9048 -14.72391,4.19313 -20.11717,0.8599 -3.46079,-2.13888 -3.64186,-2.51291 -2.26532,-4.67961 2.428,-3.82169 14.68034,-9.50933 20.52703,-9.52881 7.19998,-0.024 8.91758,-1.5055 3.59443,-3.10036 -2.36286,-0.70788 -5.31804,-1.28709 -6.56711,-1.28709 -1.24907,0 -3.05294,-0.78188 -4.00857,-1.73752 -1.18138,-1.18138 -2.74323,-1.51663 -4.87961,-1.04741 -2.20474,0.48425 -4.36307,-0.0303 -7.23496,-1.72472 -3.78564,-2.23359 -4.80968,-2.34093 -13.6422,-1.43005 l -9.54933,0.98482 0.34676,3.21816 c 0.20833,1.9334 -0.788159,5.30338 -2.496077,8.44138 -1.751935,3.21889 -3.227329,8.28536 -3.844812,13.20301 -0.608261,4.84421 -1.836724,9.09783 -3.126345,10.82513 -3.210969,4.30075 -12.48287,6.45621 -20.804109,4.83638 z m 89.933673,-36.32467 c 0,-2.22096 -4.83522,-1.40632 -5.27219,0.88826 -0.26106,1.37085 0.3105,1.66008 2.46619,1.24799 1.5433,-0.29501 2.806,-1.25632 2.806,-2.13625 z m -65.312886,-9.36072 c -0.351495,-0.87837 -0.612405,-0.61747 -0.665239,0.66524 -0.04781,1.16072 0.21243,1.81106 0.578311,1.44518 0.365881,-0.36589 0.404999,-1.31558 0.08693,-2.11042 z m 72.599896,-2.206 c 0.44576,-0.72125 0.22418,-1.50681 -0.49242,-1.74567 -0.71658,-0.23887 -0.97078,-0.97167 -0.56486,-1.62846 0.46658,-0.75495 0.0771,-0.94053 -1.05896,-0.50458 -0.98834,0.37926 -2.08985,0.21572 -2.44778,-0.36343 -0.35794,-0.57914 -0.12606,-1.053 0.51528,-1.053 0.64134,0 1.16607,-0.55615 1.16607,-1.2359 0,-0.8586 -0.49994,-0.821 -1.63761,0.12318 -0.90068,0.74751 -2.44082,1.05087 -3.42253,0.67415 -1.64436,-0.631 -1.64347,-0.90085 0.0113,-3.42644 1.60085,-2.44322 1.61007,-2.74149 0.0848,-2.74149 -0.94136,0 -1.99568,-0.74039 -2.34293,-1.64531 -0.34725,-0.90491 -1.07493,-1.37115 -1.61706,-1.03609 -0.54214,0.33506 -1.48194,0.30252 -2.08843,-0.0724 -1.29074,-0.79772 2.10966,-5.96726 3.96004,-6.02036 0.66314,-0.0191 2.10252,-1.02557 3.19864,-2.23677 1.09612,-1.21119 3.15486,-2.20216 4.57499,-2.20216 1.42009,3e-5 2.58202,-0.24206 2.58202,-0.53793 0,-1.23877 -3.90292,-4.96746 -5.19958,-4.96746 -0.77381,0 -1.40692,-0.70985 -1.40692,-1.57743 0,-0.86758 -0.99817,-1.89424 -2.21816,-2.28144 -1.21999,-0.38721 -1.93398,-1.16383 -1.58664,-1.72583 0.34733,-0.56199 0.14311,-1.02181 -0.45382,-1.02181 -0.59693,0 -1.31689,0.86711 -1.5999,1.9269 -0.43578,1.63187 -0.63639,1.54759 -1.31024,-0.55054 -0.98409,-3.06409 -2.75326,-3.31269 -1.95896,-0.27527 0.87451,3.3441 -4.90053,3.08987 -6.25315,-0.27527 -0.9443,-2.3493 -0.99942,-2.31472 -1.0656,0.66834 -0.0505,2.27868 -0.50952,2.97705 -1.66506,2.53363 -0.97953,-0.37589 -1.87135,0.25773 -2.31058,1.64163 -0.56638,1.78448 -1.45036,2.16798 -4.24526,1.84168 -3.20898,-0.37462 -3.55193,-0.12345 -3.77183,2.76251 -0.25853,3.3929 -3.37418,10.07821 -3.44816,7.39879 -0.0289,-1.04278 -0.41841,-1.22224 -1.12327,-0.51738 -1.4272,1.4272 0.60658,8.7836 3.62853,13.1248 3.67363,5.27735 6.25933,6.47018 6.25933,2.88753 0,-2.7001 2.54924,-4.75939 4.81531,-3.8898 1.28625,0.49357 1.79119,0.0665 1.79119,-1.51483 0,-2.18446 2.48234,-3.99275 3.74614,-2.72894 0.36202,0.362 0.6582,1.54978 0.6582,2.63949 0,1.08971 0.80563,3.67072 1.7903,5.73559 1.63165,3.42161 2.23004,3.76312 6.75276,3.85389 2.72937,0.0548 5.22698,0.36412 5.55027,0.68741 1.03287,1.03287 3.36727,0.63113 4.20452,-0.72358 z m -12.06838,-2.59752 c 0.3076,-0.80161 1.26151,-1.18801 2.11979,-0.85866 2.06802,0.79357 1.97068,1.10019 -0.55929,1.76179 -1.44717,0.37844 -1.94232,0.0918 -1.5605,-0.90313 z m -15.03814,-13.15792 c 0,-0.90839 0.49548,-1.65162 1.10108,-1.65162 0.6056,0 1.10108,0.74323 1.10108,1.65162 0,0.9084 -0.49548,1.65163 -1.10108,1.65163 -0.6056,0 -1.10108,-0.74323 -1.10108,-1.65163 z m 13.81058,-7.08096 c -0.75213,-1.21695 0.98481,-2.531 2.00156,-1.51426 1.0469,1.0469 0.85179,2.53926 -0.33198,2.53926 -0.56985,0 -1.32117,-0.46125 -1.66958,-1.025 z m -50.14636,18.09181 c -0.7539,-0.9084 -1.80555,-1.65163 -2.33699,-1.65163 -0.53145,0 -0.96627,0.74323 -0.96627,1.65163 0,0.94933 0.99373,1.65162 2.33699,1.65162 1.95248,0 2.11147,-0.27174 0.96627,-1.65162 z m 44.59391,-32.48199 c 0.37428,-0.60559 0.15578,-1.10108 -0.48556,-1.10108 -0.64134,0 -1.16607,0.49549 -1.16607,1.10108 0,0.6056 0.2185,1.10109 0.48556,1.10109 0.26705,0 0.79179,-0.49549 1.16607,-1.10109 z m -10.75851,-1.76632 c -0.36588,-0.36588 -1.31557,-0.40499 -2.11041,-0.0869 -0.87837,0.35149 -0.61747,0.6124 0.66524,0.66523 1.16072,0.0478 1.81105,-0.21243 1.44517,-0.57831 z m -0.0508,-3.94555 c -0.35149,-0.87837 -0.6124,-0.61747 -0.66523,0.66524 -0.0478,1.16072 0.21243,1.81105 0.57831,1.44517 0.36588,-0.36589 0.40499,-1.31557 0.0869,-2.11041 z m 28.62819,0 c -0.35149,-0.87837 -0.6124,-0.61747 -0.66523,0.66524 -0.0478,1.16072 0.21242,1.81105 0.57831,1.44517 0.36588,-0.36589 0.40499,-1.31557 0.0869,-2.11041 z m -22.7738,-5.97793 c 0,-2.15869 -1.44521,-1.88707 -2.9726,0.55868 -1.12843,1.8069 -1.01798,2.00808 0.83622,1.52319 1.17501,-0.30726 2.13638,-1.24411 2.13638,-2.08187 z m -18.71843,-7.51418 c 0,-0.26706 -0.49549,-0.79179 -1.10109,-1.16607 -0.60559,-0.37428 -1.10108,-0.15579 -1.10108,0.48555 0,0.64134 0.49549,1.16607 1.10108,1.16607 0.6056,0 1.10109,-0.2185 1.10109,-0.48555 z M 123.7021,169.5649 c -0.36589,-0.36588 -1.31558,-0.40499 -2.11042,-0.0869 -0.87837,0.35148 -0.61747,0.6124 0.66524,0.66523 1.16072,0.0478 1.81105,-0.21243 1.44518,-0.57831 z m -5.20722,-40.56043 c 0,-0.26706 -0.49549,-0.79179 -1.10108,-1.16607 -0.6056,-0.37428 -1.10109,-0.15577 -1.10109,0.48556 0,0.64134 0.49549,1.16607 1.10109,1.16607 0.60559,0 1.10108,-0.2185 1.10108,-0.48556 z M 44.248525,100.63733 c -2.030045,-2.89829 -2.267998,-1.231264 -0.454031,3.18081 0.986838,2.40027 1.376829,2.66951 1.728414,1.19326 0.249719,-1.04852 -0.323755,-3.01685 -1.274383,-4.37407 z m -2.016308,-7.207808 c -1.00463,-3.553696 -1.074513,-4.114853 -0.943584,-7.576938 0.08772,-2.319773 1.289473,-4.581089 3.672961,-6.91139 2.885116,-2.820736 3.138627,-3.401871 1.365996,-3.131348 -2.816571,0.429839 -6.209167,2.908679 -8.453929,6.176962 -1.871166,2.724343 -1.580197,9.312112 0.52972,11.993256 1.663125,2.113389 4.467917,1.710092 3.828836,-0.550542 z M 57.334652,73.83949 c 2.045187,-1.54655 2.056881,-1.722546 0.235451,-3.543505 -1.677184,-1.676753 -2.047097,-1.709797 -2.961027,-0.264502 -1.250174,1.977031 -1.41357,5.519645 -0.252312,5.470403 0.454197,-0.01926 1.794247,-0.767338 2.977888,-1.662396 z M 56.817343,42.229107 c 0.01094,-1.964977 -0.56296,-3.027982 -1.634766,-3.027982 -1.858654,0 -1.941455,0.477756 -0.945686,5.456599 0.822505,4.112522 2.553099,2.483756 2.580452,-2.428617 z M 86.563478,262.72122 c 0,-0.6056 0.495488,-1.10109 1.101084,-1.10109 0.605597,0 1.101085,0.49549 1.101085,1.10109 0,0.60559 -0.495488,1.10108 -1.101085,1.10108 -0.605596,0 -1.101084,-0.49549 -1.101084,-1.10108 z m -62.761801,-1.09281 c -0.908395,-0.5825 -2.561257,-0.77577 -3.673027,-0.42949 -1.754161,0.54636 -1.858216,0.32469 -0.787073,-1.67676 1.278464,-2.38884 3.359015,-3.13537 3.359015,-1.20528 0,1.77871 1.833255,1.28506 6.178508,-1.66369 4.172469,-2.83152 6.154027,-2.90721 3.863738,-0.14757 -1.038265,1.25103 -0.701297,1.65676 1.769992,2.13116 2.958019,0.56783 5.80511,-0.71828 5.80511,-2.62233 0,-0.51244 -0.743232,-0.64651 -1.651626,-0.29792 -0.908395,0.34859 -1.651627,0.11453 -1.651627,-0.52011 0,-2.02397 2.237447,-2.62415 4.11339,-1.1034 1.294041,1.04903 1.577494,1.07622 0.987869,0.0948 -0.520348,-0.86613 -0.190515,-1.37636 0.889722,-1.37636 1.057188,0 1.716609,-0.97284 1.716609,-2.5325 0,-1.39287 0.559276,-3.09176 1.242836,-3.77533 1.614324,-1.61432 2.445732,-11.30952 0.969843,-11.30952 -0.611377,0 -1.111595,-0.54849 -1.111595,-1.21889 0,-0.67038 0.717999,-0.94336 1.595551,-0.60662 1.879733,0.72132 1.162268,-2.08823 -1.255102,-4.91491 -0.931902,-1.08969 -1.715981,-5.38076 -2.011938,-11.01084 -0.266721,-5.07392 -0.919101,-11.84163 -1.449733,-15.03938 -0.530634,-3.19774 -0.58744,-6.0473 -0.126236,-6.33233 1.027592,-0.63509 0.06714,-4.89575 -1.591181,-7.05866 -0.925727,-1.20739 -0.887633,-1.38964 0.159031,-0.76082 1.921328,1.15429 1.723559,-1.00075 -0.275271,-2.99958 -2.357495,-2.3575 -2.039817,-3.19525 0.66311,-1.74869 1.273103,0.68136 3.226364,1.00042 4.340578,0.70905 2.863184,-0.74874 9.861348,6.45539 9.859614,10.1498 -7.35e-4,1.56446 -0.757377,9.34215 -1.681427,17.28377 -1.201353,10.32484 -1.357849,15.28687 -0.549207,17.41375 1.453043,3.8218 1.439013,3.93218 -0.499763,3.93218 -0.896857,0 -1.955087,1.36259 -2.351622,3.02798 -4.958488,20.82492 -5.532427,22.43421 -8.759694,24.56166 -3.522246,2.32189 -15.05876,2.98955 -18.088394,1.04683 z m 25.324937,-52.86032 c 0,-1.22342 -0.734057,-2.20217 -1.651626,-2.20217 -0.91757,0 -1.651627,0.97875 -1.651627,2.20217 0,1.22343 0.734057,2.20217 1.651627,2.20217 0.917569,0 1.651626,-0.97874 1.651626,-2.20217 z m 0,-6.6065 c 0,-1.22343 -0.734057,-2.20217 -1.651626,-2.20217 -1.676303,0 -2.258613,2.32923 -0.91757,3.67027 1.395945,1.39595 2.569196,0.72552 2.569196,-1.4681 z m 27.802377,42.54599 c -1.362592,-0.67485 -2.47744,-1.81677 -2.47744,-2.5376 0,-1.74975 5.343889,-5.87913 7.58081,-5.85793 1.550408,0.0148 1.566661,0.1537 0.12678,1.08423 -1.101084,0.71158 -1.192841,1.07298 -0.275271,1.08423 0.83571,0.01 1.376355,1.53066 1.376355,3.87065 0,4.18268 -1.509442,4.74447 -6.331234,2.35642 z M 76.65372,204.06973 c -2.725184,-0.55873 -5.874003,-1.836 -6.997377,-2.83837 -1.123374,-1.00236 -2.349706,-1.66145 -2.725184,-1.46463 -0.375476,0.19682 -0.877567,-0.22679 -1.115756,-0.94136 -0.292432,-0.8773 0.35064,-1.05047 1.980233,-0.53326 1.696639,0.53849 2.869364,0.16407 3.949049,-1.26081 2.091422,-2.76011 2.084606,-6.2999 -0.01057,-5.4959 -0.889,0.34113 -1.914213,0.13833 -2.278251,-0.45071 -0.364038,-0.58903 -1.123138,-0.78589 -1.686889,-0.43746 -0.563761,0.34842 -1.025012,0.0965 -1.025012,-0.55984 0,-0.65633 1.23872,-1.66428 2.75271,-2.2399 3.050142,-1.15966 3.408465,-2.20707 1.43141,-4.18412 -0.877685,-0.87768 -0.918808,-1.3213 -0.12248,-1.3213 0.659351,0 3.21091,2.31514 5.670131,5.14475 3.60395,4.14676 4.614705,6.29244 5.210521,11.06119 0.406566,3.25405 0.555416,6.05621 0.330778,6.22703 -0.224638,0.17082 -2.638129,-0.14656 -5.363313,-0.70531 z m 72.12102,-20.62658 c -0.37428,-0.60559 0.1212,-1.10108 1.10108,-1.10108 0.97988,0 1.47537,0.49549 1.10109,1.10108 -0.37428,0.6056 -0.86977,1.10109 -1.10109,1.10109 -0.23131,0 -0.7268,-0.49549 -1.10108,-1.10109 z m -67.067661,-8.99237 c -1.456948,-4.71885 -1.467685,-6.86252 -0.04151,-8.28869 2.420422,-2.42043 3.786586,-0.70947 3.44977,4.32041 -0.295083,4.40666 -2.485491,6.95698 -3.408255,3.96828 z M 41.851763,172.8928 c 0.36759,-0.95792 0.668346,-2.00957 0.668346,-2.33699 0,-0.32742 0.743231,0.0215 1.651626,0.77542 2.328195,1.93222 2.050797,3.30325 -0.668346,3.30325 -1.663138,0 -2.130749,-0.49311 -1.651626,-1.74168 z m 27.094367,0.42304 c 0,-0.19114 -0.484489,-2.07846 -1.076642,-4.19405 l -1.076644,-3.84652 2.153244,2.75271 c 2.459169,3.1438 2.649044,3.99821 1.101127,4.95487 -0.605597,0.37429 -1.101085,0.52413 -1.101085,0.33299 z M 47.011373,153.07159 c 0.05283,-1.28271 0.313744,-1.54361 0.665239,-0.66525 0.318071,0.79484 0.278953,1.74453 -0.08693,2.11042 -0.365881,0.36588 -0.626122,-0.28446 -0.578311,-1.44517 z m 7.620662,-0.52378 c 0,-0.64134 0.495488,-0.85984 1.101084,-0.48556 0.605597,0.37429 1.101085,0.89902 1.101085,1.16608 0,0.26705 -0.495488,0.48555 -1.101085,0.48555 -0.605596,0 -1.101084,-0.52473 -1.101084,-1.16607 z m -5.872449,-1.77016 c -1.152677,-1.15267 -0.857691,-5.87244 0.367028,-5.87244 0.605596,0 1.101084,-1.18572 1.101084,-2.63491 0,-3.19892 2.616495,-4.41914 5.548951,-2.5878 2.703059,1.6881 2.732689,2.61358 0.105671,3.30056 -1.32025,0.34525 -2.320521,1.96303 -2.802604,4.53276 -0.690049,3.67826 -2.521153,5.06082 -4.32013,3.26183 z"
         id="path1134"
         inkscape:connector-curvature="0" />
      <path
         style="fill:#9ea055;stroke-width:1.10108423"
         d="m 70.322486,283.4827 c -2.3234,-0.65246 -3.578524,-1.69346 -3.578524,-2.968 0,-2.56581 3.969329,-6.78264 6.384535,-6.78264 1.041928,0 2.487797,-0.95016 3.213042,-2.11146 1.932409,-3.09428 5.523171,-1.73567 6.439526,2.43645 0.664966,3.02758 0.898597,3.19796 2.111177,1.53966 0.749907,-1.02556 2.37522,-1.86465 3.611806,-1.86465 2.383551,0 5.062699,-5.39245 4.023991,-8.09928 -0.570411,-1.48646 1.463864,-7.96209 2.253257,-7.1727 0.246738,0.24674 -0.0081,4.08609 -0.566357,8.53189 -1.245834,9.92187 -4.086651,14.97325 -9.033225,16.06237 -6.050422,1.33218 -11.12031,1.47833 -14.859228,0.42836 z m 54.286874,-16.80448 -3.89248,-2.34922 2.87699,-3.1027 c 3.68944,-3.9789 10.32018,-6.78023 18.20541,-7.69133 9.78917,-1.1311 10.59056,-1.7914 5.1374,-4.23285 -2.60253,-1.16519 -5.57515,-1.898 -6.60583,-1.62847 -1.03067,0.26953 -2.93456,-0.25284 -4.23087,-1.1608 -1.4272,-0.99965 -3.56914,-1.4084 -5.43004,-1.03622 -2.97786,0.59558 -7.77068,-2.30466 -7.77068,-4.70219 0,-0.51721 -0.76897,-1.23546 -1.70882,-1.59612 -0.93984,-0.36065 -1.42814,-0.20159 -1.0851,0.35347 0.83868,1.357 -1.66831,1.95765 -11.79545,2.82605 l -8.533401,0.73175 v 4.72612 c 0,2.85771 -0.652944,5.268 -1.651626,6.09683 -2.009328,1.66759 -1.92239,2.34765 -1.829942,-14.31409 0.04607,-8.30352 -0.252399,-11.71488 -0.867041,-9.90976 -0.886114,2.60238 -0.943294,2.55085 -1.047056,-0.94362 -0.0802,-2.70088 0.295442,-3.54083 1.39484,-3.11895 2.344316,0.8996 4.237766,-6.72343 2.836918,-11.42144 -0.620729,-2.08173 -1.365877,-5.49603 -1.655884,-7.58731 -0.290006,-2.09131 -1.085789,-4.14754 -1.768407,-4.56942 -1.695287,-1.04774 -0.337963,-8.89355 1.810346,-10.46444 2.006937,-1.46751 2.190259,-4.98426 0.355467,-6.81905 -1.027679,-1.02768 -0.878811,-1.32131 0.669908,-1.32131 1.51205,0 1.84409,-0.59616 1.379836,-2.47743 -0.336257,-1.3626 -0.915758,-7.96217 -1.287781,-14.6657 -0.598539,-10.78516 -0.39662,-13.00338 1.753992,-19.26897 1.336721,-3.8944 3.596711,-8.26313 5.022211,-9.7083 1.42549,-1.44518 2.59181,-3.551 2.59181,-4.67961 0,-3.15605 1.49384,-2.47481 5.49725,2.50689 4.05668,5.048 5.38177,10.06006 5.49012,20.76602 0.0724,7.15233 0.0738,7.15533 2.08082,4.5454 1.77358,-2.3063 2.09254,-2.39233 2.72823,-0.73576 1.52697,3.97924 0.82019,6.10012 -2.03287,6.10012 -1.51399,0 -2.77333,-0.61936 -2.79855,-1.37636 -0.0647,-1.944 -7.60732,6.83209 -8.32319,9.68435 -0.35079,1.39765 0.51675,4.33777 2.13544,7.23713 3.05347,5.46928 3.40354,13.61468 0.65975,15.35083 -0.87076,0.55097 -1.15092,1.00936 -0.62258,1.01863 1.87611,0.0329 -2.11776,3.68466 -5.64023,5.15707 -3.17145,1.32569 -4.95826,3.69617 -2.75272,3.65188 1.42099,-0.0285 9.00528,-2.84097 9.79745,-3.63314 0.41503,-0.41504 2.18102,-0.75461 3.9244,-0.75461 2.00016,0 4.26863,-1.11595 6.14772,-3.02431 5.25802,-5.33989 12.81414,-8.2276 7.93281,-3.03166 -2.06766,2.20093 -2.22952,2.75271 -0.80746,2.75271 2.11367,0 3.70077,2.15113 2.32489,3.15109 -1.41623,1.02928 -3.7196,5.40211 -3.7196,7.06146 0,0.78856 -0.97393,3.34405 -2.16428,5.67886 -2.06231,4.04509 -2.07506,4.38032 -0.2706,7.11459 1.04153,1.57822 2.7719,4.60369 3.84528,6.72328 2.9585,5.84205 14.00478,11.47064 14.00478,7.13607 0,-1.27045 0.72804,-1.49424 3.02798,-0.93074 1.66539,0.40802 3.19315,1.1607 3.39501,1.6726 0.20187,0.51191 1.47139,0.93074 2.82117,0.93074 1.34977,0 4.50522,0.99098 7.0121,2.20217 2.50688,1.21119 4.98803,2.20217 5.51368,2.20217 0.52563,0 2.10651,1.36259 3.51305,3.02798 1.40655,1.66539 3.27477,3.85957 4.1516,4.87597 3.88566,4.50409 -0.58766,7.51092 -17.65024,11.86399 -4.72216,1.20472 -10.94582,3.37581 -13.83036,4.82464 -6.58193,3.30592 -13.09183,3.40749 -18.26557,0.28502 z m 42.83678,-13.94285 c -0.34841,-0.56374 0.10978,-1.025 1.01815,-1.025 2.35295,0 3.3803,-2.1641 1.74433,-3.67446 -1.05603,-0.97495 -1.21273,-0.97022 -0.65685,0.0198 0.40152,0.71516 0.27838,1.57941 -0.27363,1.92058 -0.55202,0.34116 -1.31959,-0.20294 -1.70569,-1.20912 -1.08421,-2.82538 -2.74877,-0.24869 -2.07083,3.20559 0.32545,1.65834 1.03865,2.73894 1.58487,2.40136 0.54623,-0.33759 0.70808,-1.07504 0.35965,-1.6388 z m -6.94446,-5.74749 c -2.39468,-2.40158 -5.67098,-1.43938 -5.67098,1.66547 0,1.67032 0.5396,2.07168 2.20107,1.63719 1.2106,-0.31658 2.51125,-0.0737 2.89034,0.53967 0.42991,0.6956 1.03818,0.55312 1.61648,-0.37864 0.59283,-0.95515 0.21888,-2.20427 -1.03691,-3.46369 z m -11.72694,-8.49052 c -0.37428,-0.60559 -1.14676,-1.10108 -1.71661,-1.10108 -0.56986,0 -1.0361,0.49549 -1.0361,1.10108 0,0.6056 0.77247,1.10109 1.71661,1.10109 0.94413,0 1.41038,-0.49549 1.0361,-1.10109 z m -43.49283,-7.70759 c -3.50218,-2.73944 -4.40434,-2.73944 -4.40434,0 0,1.75546 0.7259,2.19721 3.57853,2.17769 l 3.57852,-0.0245 z m -1.88313,-46.24553 c 0.68076,-2.60323 0.10232,-2.78082 -2.04931,-0.62919 -1.979728,1.97972 -1.994699,2.83136 -0.0498,2.83136 0.83776,0 1.78235,-0.99098 2.09908,-2.20217 z M 23.975259,261.5482 c -1.418521,-0.56838 -3.028857,-0.75548 -3.578524,-0.41576 -0.549667,0.33971 -0.999395,0.12217 -0.999395,-0.48343 0,-1.58021 2.318839,-2.79249 3.151086,-1.64739 1.205797,1.6591 4.276755,1.63246 4.919564,-0.0427 0.337496,-0.8795 1.575339,-2.11378 2.75076,-2.74286 1.742204,-0.93239 2.109775,-0.7931 1.989095,0.7538 -0.202191,2.59169 4.81776,3.06838 9.083391,0.86254 3.880725,-2.00676 4.532125,-2.0986 4.532125,-0.63896 0,0.59329 -1.962212,2.07975 -4.360472,3.30325 -4.638109,2.36619 -12.958086,2.86647 -17.48763,1.05153 z m 13.039428,-6.53457 c 0,-0.6056 0.524731,-1.10109 1.166067,-1.10109 0.641337,0 0.859839,0.49549 0.48556,1.10109 -0.37428,0.60559 -0.899009,1.10108 -1.166067,1.10108 -0.267058,0 -0.48556,-0.49549 -0.48556,-1.10108 z m 8.895602,-5.04664 c 0.05283,-1.2827 0.313744,-1.54361 0.665238,-0.66524 0.318072,0.79484 0.278953,1.74453 -0.08693,2.11042 -0.365882,0.36588 -0.626122,-0.28446 -0.578312,-1.44518 z m 31.736214,-5.69619 c -3.735604,-2.50646 -2.877247,-4.67235 1.851684,-4.67235 3.445986,0 3.762038,0.2775 3.762038,3.30325 0,3.78793 -1.473237,4.14722 -5.613722,1.3691 z m 98.407957,-7.09233 c -4.05672,-2.07012 -4.57074,-2.73615 -4.01865,-5.20703 1.74549,-7.81183 2.76123,-11.0522 3.63347,-11.59127 0.52756,-0.32605 2.54845,0.89174 4.49086,2.70622 1.9424,1.81448 4.12905,3.29905 4.8592,3.29905 0.73016,0 2.39124,0.99097 3.69132,2.20217 3.01938,2.81299 9.60375,2.97516 11.1763,0.27527 1.06888,-1.83515 1.12391,-1.83515 1.15579,0 0.0188,1.08101 0.87937,1.93504 1.96039,1.94545 3.6649,0.0352 -4.45281,4.15646 -11.83666,6.00921 -3.93638,0.9877 -7.90028,2.00708 -8.80867,2.26526 -0.9084,0.25817 -3.7449,-0.59877 -6.30335,-1.90433 z m -126.505352,-5.0309 c -0.327377,-1.04959 -1.248982,-3.14706 -2.048011,-4.66105 -1.194109,-2.26258 -1.197117,-2.98833 -0.01689,-4.07601 0.83963,-0.7738 1.743209,-5.3461 2.175971,-11.01085 0.407047,-5.32814 0.945299,-10.43777 1.196115,-11.35471 0.250816,-0.91695 -0.583093,-2.31612 -1.853128,-3.10927 -1.270036,-0.79314 -1.983829,-0.91569 -1.586206,-0.27233 0.44193,0.71505 0.05871,0.91487 -0.985863,0.51403 -0.99948,-0.38354 -1.708818,-1.97803 -1.708818,-3.84119 0,-3.3606 0.957977,-3.9892 2.987096,-1.96008 0.673949,0.67394 1.839084,0.84606 2.589189,0.38246 1.03954,-0.64246 0.950308,-1.14526 -0.375271,-2.11455 -0.998273,-0.72996 -1.383644,-1.8468 -0.904663,-2.62181 0.600112,-0.971 1.675144,-0.50944 3.828218,1.64364 3.301064,3.30107 3.271371,1.86424 0.517593,25.04605 -0.640124,5.38868 -0.866998,11.65408 -0.504163,13.92312 0.499466,3.1235 0.24975,4.28284 -1.028121,4.77321 -1.033022,0.3964 -1.91874,-0.0927 -2.283048,-1.26066 z m 25.452986,-30.77113 c -3.007601,-0.72343 -4.786945,-2.51811 -2.496586,-2.51811 0.988705,0 2.112168,-0.99097 2.496586,-2.20217 0.384417,-1.21119 1.161039,-2.20216 1.725826,-2.20216 0.564786,0 1.042643,-0.86711 1.061902,-1.9269 0.03127,-1.72073 0.212631,-1.69186 1.695064,0.26985 2.399056,3.17469 1.155641,9.80117 -1.730082,9.22005 -0.302798,-0.061 -1.541518,-0.34923 -2.75271,-0.64056 z M 143.52111,178.213 c -0.95762,-1.05979 -2.74484,-5.14756 -3.97156,-9.08394 -2.44743,-7.8533 -5.64956,-26.6404 -4.46055,-26.1703 2.7411,1.08374 23.04495,29.55794 23.04495,32.31832 0,4.64867 -11.05773,6.87032 -14.61284,2.93592 z M 89.379279,156.55662 c 2.306291,-1.6864 3.35143,-1.50111 2.184354,0.38726 -0.399181,0.64588 -1.534476,1.17434 -2.522877,1.17434 -1.502941,0 -1.44753,-0.25561 0.338523,-1.5616 z m -4.905011,-0.91584 c -0.06212,-1.05979 -0.484574,-1.92702 -0.938772,-1.92717 -0.454197,-1.6e-4 -0.870968,-2.13024 -0.926158,-4.73351 -0.05519,-2.60328 -0.426617,-6.03321 -0.825394,-7.62207 -0.646692,-2.57662 -0.300633,-3.02889 3.202102,-4.1849 2.159932,-0.71284 3.650506,-1.57272 3.312386,-1.91084 -0.33812,-0.33811 -0.06291,-1.27972 0.61159,-2.09243 2.418895,-2.91459 -3.643263,-1.58813 -6.416212,1.40393 -4.892098,5.27865 -15.827641,2.90626 -14.270001,-3.0958 0.290605,-1.11978 -0.783341,-2.91593 -2.6859,-4.49209 -2.274438,-1.88424 -3.25187,-3.77078 -3.459471,-6.67713 -0.181877,-2.54622 -0.766738,-3.86865 -1.574586,-3.56029 -2.319109,0.88521 -2.567141,-2.67505 -0.341422,-4.90077 3.317352,-3.31735 2.612137,-3.50707 -1.830253,-0.49239 -2.204096,1.49574 -5.103749,2.71953 -6.443674,2.71953 -4.03438,0 -9.872746,-4.6265 -10.279645,-8.1459 -0.19839,-1.71594 -1.797248,-5.10298 -3.553017,-7.52675 C 36.300071,95.97843 34.53287,92.23277 34.128729,90.078511 33.724587,87.924252 31.94705,84.108975 30.178643,81.600118 26.660014,76.608199 24.969608,70.875854 24.929029,63.798128 24.907701,60.07825 24.282517,58.694498 21.60545,56.441895 16.904468,52.486281 14.137704,51.850395 11.604092,54.143281 10.432586,55.20348 9.2367798,55.833614 8.9467443,55.54358 8.1727381,54.769573 5.7077838,38.209558 6.2812235,37.636118 6.5496116,37.36773 10.725381,36.008853 15.560711,34.616391 c 10.917274,-3.143919 23.004595,-3.333718 25.153462,-0.394968 1.211884,1.657351 3.582489,1.952718 17.093332,2.129755 8.627473,0.113049 15.955858,-0.230589 16.285302,-0.763641 0.699128,-1.131214 3.23052,-0.606698 15.223382,3.154356 4.84477,1.519356 10.00073,3.6672 11.457691,4.772986 3.67976,2.792823 3.30335,7.702551 -1.118846,14.593949 -1.962501,3.058291 -3.902552,7.363623 -4.311225,9.567405 l -0.743043,4.006876 -3.236739,-6.892923 c -2.532506,-5.393194 -3.526646,-6.603014 -4.569186,-5.560475 -1.785733,1.785733 -1.626952,5.364926 0.354197,7.98424 2.846022,3.762776 1.150603,24.839215 -1.998101,24.839215 -0.90321,0 -0.904458,0.325603 -0.0047,1.225362 1.496881,1.496881 3.909492,0.230122 3.002939,-1.576715 -0.358816,-0.71515 0.376334,-0.130533 1.633665,1.299149 1.257368,1.429682 2.286093,3.452924 2.286093,4.496093 0,1.04317 0.351432,2.248105 0.780961,2.677635 0.429527,0.42953 0.639382,2.7418 0.466343,5.13839 -0.185712,2.5721 0.171018,4.35743 0.870666,4.35743 0.651906,0 1.185283,-0.39464 1.185283,-0.87697 0,-0.48234 1.362592,-0.835 3.027982,-0.78369 1.844191,0.0568 2.911011,0.64295 2.728801,1.49924 -0.16455,0.77327 0.75884,2.89181 2.05198,4.70785 2.2778,3.19888 2.28543,3.3191 0.24461,3.85278 -1.1586,0.30298 -2.75589,1.59064 -3.549522,2.86146 -1.254336,2.00851 -1.153286,2.53908 0.772942,4.05836 1.70972,1.34852 1.99704,2.31372 1.25775,4.22522 -0.52699,1.36259 -1.42323,2.47744 -1.991641,2.47744 -0.568416,0 -0.774337,0.99097 -0.457603,2.20217 0.448456,1.71489 0.03378,2.20216 -1.874076,2.20216 -2.007779,0 -2.335055,0.4578 -1.813333,2.53651 0.439573,1.7514 -0.06136,3.13413 -1.618403,4.46731 -1.855441,1.58868 -2.125057,2.70009 -1.521557,6.27218 0.480405,2.84349 0.320178,4.34135 -0.4644,4.34135 -0.66753,0 -1.197867,-1.99057 -1.197867,-4.49609 0,-6.18741 -2.048347,-5.10696 -4.447736,2.34604 -1.063068,3.30212 -1.983684,5.13674 -2.045811,4.07695 z M 57.103554,106.727 c 1.684943,-0.99134 3.164616,-4.76408 1.868475,-4.76408 -0.683599,0 -1.502054,0.99098 -1.818787,2.20217 -0.443749,1.6969 -1.493795,2.1983 -4.576525,2.18531 -4.876063,-0.0206 -5.700059,-0.58157 -8.061315,-5.48856 -1.515629,-3.14967 -1.867321,-3.410609 -1.924875,-1.428165 -0.110165,3.794745 2.205398,7.875255 4.760045,8.388195 2.33413,0.46867 8.218171,-0.19187 9.752982,-1.09487 z M 43.120454,93.429522 C 40.842848,84.324697 40.980731,83.392418 45.172853,79.552585 l 3.998224,-3.66223 5.746697,1.945449 c 3.160683,1.069997 5.850562,1.841586 5.977506,1.714641 0.126945,-0.126944 -0.304002,-2.337796 -0.957658,-4.913003 -1.724404,-6.793612 -4.332707,-7.740961 -8.016279,-2.911549 -1.616047,2.118745 -3.423248,3.55253 -4.016003,3.186187 -1.438624,-0.889119 -6.354362,2.356102 -9.933258,6.557635 -2.781259,3.265127 -2.838144,3.593861 -1.43099,8.269481 1.469256,4.881968 3.025334,6.669996 5.832107,6.701446 1.092606,0.01224 1.297264,-0.81244 0.747255,-3.01112 z m 13.71375,-50.439585 c 0,-2.633777 -0.503505,-3.788812 -1.651627,-3.788812 -1.734805,0 -2.067704,2.189203 -0.960866,6.31885 0.94852,3.538961 2.612493,1.927505 2.612493,-2.530038 z M 126.86316,149.74998 c -0.40306,-1.05037 -0.23736,-2.40524 0.36824,-3.01084 0.73406,-0.73406 1.34537,-0.4645 1.83393,0.80867 0.40306,1.05037 0.23736,2.40524 -0.36824,3.01084 -0.73406,0.73406 -1.34537,0.4645 -1.83393,-0.80867 z m -32.04155,-0.44044 c -0.439502,-0.71113 -0.303608,-1.78844 0.301989,-2.39404 0.734055,-0.73406 1.367448,-0.6701 1.900179,0.19188 0.439502,0.71113 0.303608,1.78844 -0.301989,2.39404 -0.734055,0.73406 -1.367448,0.6701 -1.900179,-0.19188 z M 49.860671,147.4744 c -1.266945,-1.26694 -0.801855,-2.56919 0.917569,-2.56919 0.908395,0 1.651627,0.74323 1.651627,1.65162 0,1.71942 -1.302253,2.18452 -2.569196,0.91757 z m 55.696509,-19.70316 c -1.90679,-2.06634 -1.72211,-6.58683 0.35392,-8.66286 0.95165,-0.95165 1.81875,-1.72771 1.9269,-1.72457 0.65537,0.019 0.57152,9.30607 -0.0945,10.46706 -0.65244,1.1373 -1.07764,1.12182 -2.18632,-0.0796 z m 6.41817,-3.32785 c 0.0528,-1.2827 0.31374,-1.54361 0.66523,-0.66524 0.31807,0.79485 0.27896,1.74453 -0.0869,2.11042 -0.36589,0.36588 -0.62612,-0.28445 -0.57831,-1.44518 z m -65.050904,-2.4505 c 0,-0.48985 0.727473,-1.85244 1.616608,-3.02798 1.650392,-2.18202 2.222034,-0.95995 1.018298,2.17693 -0.690361,1.79905 -2.634906,2.42712 -2.634906,0.85105 z"
         id="path1132"
         inkscape:connector-curvature="0" />
      <path
         style="fill:#798645;stroke-width:1.10108423"
         d="m 70.322486,283.07867 c -4.133614,-1.77047 -4.398194,-2.75809 -1.452935,-5.42351 2.039154,-1.84541 2.101236,-1.83051 1.526704,0.3665 -1.043701,3.99112 2.658209,4.1388 6.452972,0.25742 3.917289,-4.00669 5.772796,-4.43678 4.711207,-1.09202 -0.656907,2.06973 -0.399998,2.28757 2.12797,1.80432 1.58129,-0.30228 2.875074,-0.0936 2.875074,0.46377 0,0.55736 0.495488,0.70715 1.101084,0.33287 0.605597,-0.37428 1.101085,-0.14351 1.101085,0.51281 0,3.16343 -12.978846,5.11825 -18.443161,2.77784 z m 57.741194,-14.85203 c -0.76158,-0.3028 -2.56178,-1.39569 -4.00043,-2.42864 -2.29003,-1.64425 -2.4249,-2.10802 -1.08321,-3.72467 1.40756,-1.696 1.58146,-1.6393 2.1326,0.69538 0.69991,2.96486 3.29204,4.27298 3.29204,1.66133 0,-0.97787 0.74039,-2.06205 1.64531,-2.4093 0.90491,-0.34725 1.37115,-1.07493 1.03609,-1.61706 -0.33506,-0.54214 0.12198,-0.98572 1.01565,-0.98572 0.89368,0 1.81739,-0.57759 2.05271,-1.28355 0.32558,-0.97676 1.31133,-0.97557 4.1241,0.005 4.31768,1.50515 5.36537,0.97389 3.22078,-1.63321 -1.3992,-1.70097 -1.22038,-1.80197 2.04527,-1.15522 1.96819,0.3898 3.57851,0.34949 3.57849,-0.0896 -5e-5,-1.0679 8.99182,-0.96366 10.7356,0.12446 0.757,0.47237 1.37636,1.57283 1.37636,2.44549 0,1.85126 1.74728,2.11237 2.79468,0.41764 0.39737,-0.64296 1.88716,-1.61181 3.31065,-2.15303 3.28948,-1.25065 6.26597,-5.7317 5.36565,-8.07788 -0.37999,-0.99025 -1.03425,-1.58825 -1.4539,-1.32889 -0.41966,0.25936 -1.47844,0.0294 -2.35286,-0.51101 -1.1183,-0.69115 -1.24422,-1.32822 -0.42456,-2.14788 1.31511,-1.31511 9.2766,5.8844 9.2766,8.38877 0,2.45947 -5.22496,5.03466 -16.81902,8.28946 -6.12941,1.7207 -13.39978,4.24008 -16.15638,5.59861 -4.67212,2.30256 -11.50618,3.1942 -14.71222,1.91952 z m 10.3915,-6.02844 c 0.0423,-1.85824 -2.0403,-1.85376 -2.75394,0.006 -0.47073,1.22673 -0.1533,1.66799 1.02359,1.42289 0.93826,-0.19539 1.71691,-0.83836 1.73035,-1.42882 z M 27.104929,261.7485 c 0,-1.27998 5.140005,-2.24072 6.274544,-1.1728 0.485377,0.45687 1.87348,1.06904 3.084672,1.36037 1.211193,0.29133 -0.399143,0.58717 -3.578523,0.65742 -3.179381,0.0703 -5.780693,-0.31 -5.780693,-0.84499 z m -7.157047,-2.33054 c 0.374279,-0.60559 1.146753,-1.10108 1.716609,-1.10108 0.569856,0 1.036101,0.49549 1.036101,1.10108 0,0.6056 -0.772474,1.10109 -1.716609,1.10109 -0.944134,0 -1.410381,-0.49549 -1.036101,-1.10109 z m 22.572227,-0.41572 c 0,-0.22864 0.867103,-1.09575 1.926897,-1.9269 1.746381,-1.3696 1.785327,-1.33066 0.41572,0.41573 -1.438422,1.83413 -2.342617,2.4174 -2.342617,1.51117 z m 56.177467,-10.04458 c -0.800763,-7.2956 -0.807246,-17.0668 -0.01132,-17.0668 0.465052,0 0.822547,0.61936 0.794434,1.37635 -0.02811,0.757 0.05835,2.36734 0.192136,3.57853 0.225573,2.04211 0.316721,2.01916 1.254114,-0.31596 0.90519,-2.25489 1.59782,-2.47182 6.62588,-2.0753 5.33631,0.42083 10.98116,3.2571 11.33348,5.69451 0.0875,0.6056 -1.57504,1.22467 -3.69463,1.37572 -2.11959,0.15104 -6.42819,0.55495 -9.57468,0.89757 l -5.720891,0.62294 -0.417979,4.60785 c -0.347638,3.83241 -0.478993,4.05195 -0.780542,1.30459 z m 46.939744,-0.92539 c -2.33118,-1.41116 -4.17213,-2.92892 -4.09099,-3.37281 0.11824,-0.64697 -9.45351,-6.14021 -10.7292,-6.15748 -1.08009,-0.0147 1.71025,2.77735 5.57028,5.57353 3.469,2.51293 3.96369,3.23053 2.22705,3.23053 -1.2279,0 -2.86765,-0.76527 -3.64391,-1.70058 -0.96702,-1.16519 -2.39605,-1.4843 -4.53915,-1.01359 -2.09684,0.46053 -3.12781,0.24609 -3.12781,-0.6506 0,-1.89126 -4.47293,-5.80413 -9.19805,-8.04634 -2.20822,-1.04787 -4.01496,-2.43048 -4.01496,-3.07245 0,-0.64198 -0.71124,-0.89429 -1.58055,-0.56071 -1.92917,0.74029 -8.98781,-3.94325 -8.60448,-5.70924 0.1514,-0.6975 -0.25818,-1.26818 -0.91017,-1.26818 -0.68249,0 -1.0455,-1.62434 -0.8556,-3.82852 0.18141,-2.10569 -0.24426,-4.40263 -0.94594,-5.10432 -0.96699,-0.96698 -0.89315,-1.65841 0.30506,-2.85662 0.86946,-0.86947 1.58084,-2.79969 1.58084,-4.28939 0,-2.36478 0.4542,-2.68194 3.57853,-2.49879 8.26555,0.4845 13.26801,-1.30704 17.69602,-6.33752 4.48978,-5.10066 7.18806,-6.41734 5.08037,-2.47906 -0.68733,1.28427 -0.80499,2.06019 -0.26145,1.72427 0.54353,-0.33592 1.55363,-0.26133 2.24469,0.16576 1.40008,0.8653 -1.40499,7.88685 -3.15075,7.88685 -0.52996,0 -0.96356,1.7342 -0.96356,3.85379 0,2.11959 -0.49548,3.8538 -1.10108,3.8538 -1.92433,0 -1.18586,4.99917 1.10108,7.45393 1.2112,1.30006 2.20217,2.85664 2.20217,3.45905 0,3.98705 3.18572,7.04177 11.74597,11.26295 5.04605,2.48829 9.17463,5.22128 9.17463,6.07331 0,0.85203 0.70942,1.82138 1.57649,2.1541 2.09052,0.80221 1.72764,4.83291 -0.43444,4.82571 -0.93092,-0.003 -3.59992,-1.16022 -5.93109,-2.57138 z m 15.29637,-1.75123 c -0.75213,-1.21695 0.98481,-2.53101 2.00156,-1.51427 1.0469,1.0469 0.85179,2.53927 -0.33197,2.53927 -0.56986,0 -1.32117,-0.46126 -1.66959,-1.025 z m -81.64937,-1.15483 c -1.278353,-0.51653 -2.649383,-1.78635 -3.046734,-2.82184 -0.677753,-1.76619 -0.549042,-1.76905 2.080109,-0.0464 1.54141,1.00997 3.284056,1.53873 3.872547,1.17502 0.588491,-0.36372 1.069983,0.11117 1.069983,1.0553 0,1.91108 -0.590455,2.0058 -3.975905,0.63787 z m 74.99584,-4.42668 c -1.79224,-1.9804 -1.80942,-2.20217 -0.17066,-2.20217 1.00226,0 1.82228,0.70195 1.82228,1.55988 0,0.85792 0.61936,1.80978 1.37636,2.11523 0.79449,0.32059 0.86663,0.59212 0.17066,0.6423 -0.66314,0.0478 -2.10252,-0.90404 -3.19864,-2.11524 z m 21.57974,-3.72294 c -0.81363,-0.98036 -2.2149,-1.78248 -3.11393,-1.78248 -0.96901,0 -1.3873,-0.6445 -1.02725,-1.58275 0.33405,-0.87052 1.15475,-3.71957 1.8238,-6.33124 2.01784,-7.87691 1.90022,-7.75491 4.93348,-5.11753 1.5294,1.32979 2.78072,3.07169 2.78072,3.87088 0,0.79917 1.11485,1.48788 2.47744,1.53045 2.36392,0.0739 2.37654,0.12074 0.27527,1.02369 -2.14439,0.92147 -2.14583,0.94833 -0.0551,1.02369 1.54273,0.0556 1.81104,0.41346 0.95317,1.27133 -0.65666,0.65666 -0.94656,2.13988 -0.64422,3.29603 0.46448,1.7762 1.25559,2.00704 5.10279,1.48901 3.75349,-0.50542 4.19607,-0.38745 2.52019,0.67178 -1.11808,0.70669 -4.84858,1.54019 -8.28998,1.85225 -4.91441,0.44562 -6.57454,0.18488 -7.73643,-1.21511 z m 3.33129,-13.08695 c -1.08746,-1.07935 -1.21393,-0.95287 -0.61639,0.61639 0.41349,1.08591 1.02917,1.69701 1.36819,1.358 0.33901,-0.33901 7e-4,-1.22748 -0.7518,-1.97439 z m 8.1215,9.1023 c 0.37428,-0.60559 1.3945,-1.10108 2.26715,-1.10108 0.87265,0 1.58664,0.49549 1.58664,1.10108 0,0.6056 -1.02022,1.10109 -2.26715,1.10109 -1.24694,0 -1.96092,-0.49549 -1.58664,-1.10109 z M 51.059291,228.03706 c -0.289418,-1.51399 -0.09944,-2.75271 0.422181,-2.75271 0.521617,0 0.948395,1.23872 0.948395,2.75271 0,1.514 -0.189981,2.75271 -0.422181,2.75271 -0.232199,0 -0.658977,-1.23871 -0.948395,-2.75271 z m 0.830401,-17.87016 c 0.0075,-6.05699 0.423182,-8.51686 1.499896,-8.87577 1.202879,-0.40096 1.333102,0.85343 0.676681,6.51821 -1.235625,10.6632 -2.18813,11.69491 -2.176577,2.35756 z m 48.528668,-4.55429 c -0.47431,-0.76745 -0.565026,-1.69272 -0.20159,-2.05617 0.98543,-0.98543 2.05988,0.46389 1.52763,2.06062 -0.37296,1.11889 -0.63231,1.11802 -1.32604,-0.004 z m -1.084765,-4.26095 c -1.13266,-1.13265 -0.717391,-8.93328 0.51615,-9.69565 1.885425,-1.16526 2.578205,0.3823 1.373675,3.0686 -1.235966,2.75643 -0.71521,5.59306 0.84928,4.62614 0.55387,-0.34231 1.00704,-0.15066 1.00704,0.42588 0,1.28719 -2.83996,2.48122 -3.746145,1.57503 z m -48.280084,-3.25234 c -1.059793,-0.27694 -1.926897,-0.98014 -1.926897,-1.56263 0,-0.60995 1.050637,-0.51246 2.47744,0.22988 4.129375,2.14845 3.977519,2.51607 -0.550543,1.33275 z m 44.318641,-1.86374 c 0,-0.90839 0.495488,-1.95785 1.101084,-2.33213 0.605597,-0.37428 1.101084,0.0628 1.101084,0.97113 0,0.90839 -0.495487,1.95785 -1.101084,2.33213 -0.605596,0.37428 -1.101084,-0.0628 -1.101084,-0.97113 z m -43.492827,-5.08484 c -1.096114,-1.21119 -1.539841,-2.20216 -0.986059,-2.20216 0.553782,0 1.625751,0.99097 2.382153,2.20216 0.756402,1.2112 1.200129,2.20217 0.986058,2.20217 -0.214069,0 -1.286038,-0.99097 -2.382152,-2.20217 z m 51.705685,-3.3765 c -1.29116,-2.08915 0.59196,-2.60466 2.5096,-0.68703 1.71653,1.71654 1.71955,1.86137 0.0388,1.86137 -1.00242,0 -2.14919,-0.52846 -2.54837,-1.17434 z m -3.686305,-6.93654 c -0.646435,-0.7789 -1.290339,-7.50798 -1.444015,-15.09059 -0.299762,-14.79073 1.10738,-20.8848 6.48905,-28.10288 1.39719,-1.87396 2.54034,-4.22753 2.54034,-5.23015 0,-2.89832 1.57009,-2.15087 5.34242,2.54328 3.82858,4.76415 5.66842,11.81139 5.66842,21.71195 0,5.68162 -0.25548,6.2136 -5.50542,11.46353 -3.02798,3.02798 -5.51301,6.34893 -5.52228,7.37989 -0.0214,2.38402 -1.02954,3.73966 -4.01831,5.40368 -1.88197,1.04779 -2.62904,1.03123 -3.550205,-0.0787 z m 43.635845,-2.6247 c -2.61327,-2.91454 -5.92512,-13.99039 -7.4262,-24.8355 -0.73808,-5.33258 -1.14946,-9.88811 -0.91415,-10.12341 1.17671,-1.17672 22.93975,29.21269 22.93975,32.03253 0,4.63923 -11.07345,6.85885 -14.5994,2.92638 z m -23.92169,-14.31409 c 0.009,-1.05979 0.50476,-2.67013 1.10109,-3.57852 0.96375,-1.46811 1.20469,-1.46811 2.16845,0 1.83976,2.80255 1.30747,5.50542 -1.08423,5.50542 -1.36967,0 -2.19579,-0.72844 -2.18531,-1.9269 z M 83.667509,147.10284 c -0.144056,-6.63871 0.138744,-7.27109 2.562576,-5.73023 0.869396,0.55268 0.968863,1.39046 0.292131,2.46057 -0.564355,0.89242 -1.033688,3.48065 -1.042961,5.75164 -0.02799,6.85417 -1.657601,4.6217 -1.811746,-2.48198 z m 43.636081,1.59118 c 0,-0.94414 0.49549,-1.41038 1.10109,-1.0361 0.6056,0.37428 1.10108,1.14676 1.10108,1.71661 0,0.56986 -0.49548,1.0361 -1.10108,1.0361 -0.6056,0 -1.10109,-0.77248 -1.10109,-1.71661 z m -77.075892,-2.68773 c 0,-0.60559 0.495488,-1.10108 1.101084,-1.10108 0.605597,0 1.101085,0.49549 1.101085,1.10108 0,0.6056 -0.495488,1.10109 -1.101085,1.10109 -0.605596,0 -1.101084,-0.49549 -1.101084,-1.10109 z m 41.841201,-5.50542 c 0,-0.6056 0.743232,-1.10108 1.651627,-1.10108 0.908394,0 1.651626,0.49548 1.651626,1.10108 0,0.6056 -0.743232,1.10109 -1.651626,1.10109 -0.908395,0 -1.651627,-0.49549 -1.651627,-1.10109 z m -17.602175,-4.37166 c -1.36778,-0.86481 -1.416117,-1.61841 -0.294419,-4.59014 1.45142,-3.84525 0.860679,-5.74279 -0.970767,-3.11824 -0.840442,1.2044 -0.956232,0.82475 -0.451554,-1.48052 0.644158,-2.94238 0.508518,-3.07343 -2.663651,-2.57349 -3.748111,0.59071 -4.13635,-0.50841 -1.690745,-4.78655 2.029025,-3.54941 2.027296,-4.40434 -0.0089,-4.40434 -0.913297,0 -2.452107,-1.97831 -3.419575,-4.39625 l -1.759034,-4.39626 -2.947254,3.15504 c -4.457214,4.77147 -9.196633,5.38258 -14.504192,1.8702 -3.122984,-2.06669 -4.33759,-3.63958 -4.33759,-5.6171 0,-1.51064 -1.474986,-4.78278 -3.277746,-7.271417 -3.247205,-4.482636 -5.128569,-10.521639 -4.140203,-13.28966 0.281903,-0.789496 1.088383,0.648077 1.792179,3.194609 1.403678,5.078901 3.750819,8.032411 6.383323,8.032411 1.288876,0 1.534405,-0.734085 1.012764,-3.027981 -2.127654,-9.356284 -1.997307,-10.230649 2.082183,-13.967316 l 3.899553,-3.571851 5.207918,1.775233 c 2.864356,0.976378 5.827279,2.164814 6.584275,2.640968 0.874142,0.549839 1.376355,0.263077 1.376355,-0.785892 0,-0.908395 -0.430404,-1.917631 -0.956455,-2.242748 -0.526049,-0.325116 -1.275137,-2.584054 -1.664638,-5.019862 -0.389502,-2.435807 -1.197816,-4.42874 -1.796257,-4.42874 -0.598439,0 -1.088071,-2.245662 -1.088071,-4.99036 0,-4.168268 0.408123,-5.14207 2.477439,-5.91128 1.362592,-0.506505 3.07142,-0.695009 3.797395,-0.418899 1.654271,0.62917 3.688374,-6.359953 2.352796,-8.084145 -0.526919,-0.680237 -0.64873,-2.042828 -0.270692,-3.027982 0.378039,-0.985152 0.179368,-1.791186 -0.44149,-1.791186 -0.620858,0 -1.912589,-0.300756 -2.870515,-0.668346 -1.164859,-0.446998 -1.741681,-0.05195 -1.741681,1.192842 0,1.023652 -0.61936,1.647656 -1.376355,1.386673 -0.756995,-0.260982 -1.356823,-1.788736 -1.332949,-3.395009 0.03066,-2.062666 -0.52194,-2.920497 -1.881318,-2.920497 -1.743007,0 -1.89079,1.215682 -1.565307,12.876341 0.370504,13.273578 -0.624415,18.203178 -4.287422,21.243203 -1.264015,1.049039 -2.098695,1.125464 -2.953711,0.270448 -0.855015,-0.855015 -1.987512,-0.45398 -4.007607,1.419157 -4.352123,4.035516 -5.021677,2.593359 -2.900208,-6.246781 0.580236,-2.417841 0.256371,-3.049168 -1.884432,-3.673419 -1.421797,-0.41459 -3.651703,-2.021338 -4.955345,-3.57055 -2.835586,-3.36973 -5.887873,-2.718943 -5.887873,1.255371 0,4.442277 -2.036956,4.352753 -2.409598,-0.105902 -0.281066,-3.362961 -1.206289,-4.762039 -5.116441,-7.73684 L 14.805561,51.300657 11.87987,53.602006 8.95418,55.903355 7.6173,49.479136 C 5.0429646,37.108472 4.6423575,37.717265 17.470442,34.505531 27.9527,31.881114 36.290537,31.336598 39.12932,33.091061 c 0.653741,0.404034 1.196208,2.563445 1.205481,4.798692 0.0092,2.235246 0.380889,3.51386 0.825813,2.841364 2.93489,-4.436036 18.50724,-6.541076 24.366426,-3.293805 2.226361,1.23389 3.312701,1.195932 6.97795,-0.243819 3.401855,-1.336287 4.787305,-1.426548 6.403542,-0.417191 1.134357,0.708417 2.701415,1.050262 3.482351,0.759655 1.715807,-0.638497 14.875721,3.734346 18.466757,6.136228 3.19525,2.137159 3.32202,7.809109 0.26726,11.957616 -3.341243,4.537566 -5.008723,8.067861 -5.762252,12.199513 l -0.702852,3.853795 -2.321893,-4.954879 c -1.277042,-2.725183 -2.609089,-5.877787 -2.960104,-7.005785 -0.522142,-1.677916 -0.936216,-1.803583 -2.276808,-0.690991 -2.07026,1.718162 -2.048578,5.41051 0.04805,8.182497 1.978393,2.615669 2.099268,10.641539 0.240254,15.952367 -1.45024,4.143041 -5.65078,9.200274 -6.738386,8.112668 -0.352393,-0.352393 -1.364243,-0.04024 -2.248555,0.693674 -0.884311,0.733914 -3.002109,1.758457 -4.706217,2.276763 -3.004691,0.913881 -3.023467,0.965394 -0.620937,1.703649 1.362591,0.4187 2.485027,1.570588 2.4943,2.559749 0.01474,1.572879 0.164846,1.591299 1.196599,0.146851 0.970248,-1.358341 1.087199,-1.260578 0.658604,0.550542 -0.286625,1.211196 -0.865544,3.193146 -1.286486,4.404336 l -0.765352,2.20217 1.8169,-2.20217 c 0.999296,-1.21119 2.307223,-2.9454 2.906506,-3.853794 0.837298,-1.269181 1.225698,-1.326432 1.677338,-0.247248 0.389954,0.931792 1.810772,0.06913 4.222222,-2.563557 3.905543,-4.26386 5.192489,-3.838088 5.529651,1.829428 0.124956,2.100451 -0.436236,3.182891 -1.840574,3.550131 -2.422501,0.6335 -2.711678,2.93667 -0.36872,2.93667 0.908394,0 1.651626,-0.59459 1.651626,-1.3213 0,-1.01511 0.301039,-1.02027 1.299053,-0.0223 0.962697,0.9627 0.985801,1.94628 0.08923,3.79874 -1.901536,3.92889 -2.551905,9.48812 -1.207231,10.31918 0.665504,0.4113 1.664871,-0.065 2.220816,-1.05839 1.083175,-1.93553 4.204636,-2.49747 4.204636,-0.75694 0,0.5771 -0.575021,2.31131 -1.277824,3.85379 -0.951768,2.0889 -0.962362,3.49689 -0.04152,5.51791 0.787006,1.72729 0.846538,2.95428 0.163808,3.37623 -0.589872,0.36456 -1.376355,-0.85646 -1.74774,-2.71339 -0.371385,-1.85692 -1.323152,-3.37623 -2.115036,-3.37623 -0.791886,0 -1.785485,-1.08918 -2.207999,-2.4204 l -0.768208,-2.42041 -2.131663,2.63249 c -1.172413,1.44787 -1.907168,3.49096 -1.632786,4.5402 0.336815,1.28798 0.0029,1.71735 -1.028125,1.32173 -0.839849,-0.32228 -1.527,0.048 -1.527,0.82274 0,0.77478 -0.867103,3.29245 -1.926897,5.59482 -1.937814,4.20983 -3.839016,5.08878 -6.866604,3.17452 z m -1.414467,-26.02285 c -0.365881,-0.36588 -1.315566,-0.405 -2.110412,-0.0869 -0.878371,0.35149 -0.617461,0.6124 0.665239,0.66524 1.160726,0.0478 1.811054,-0.21243 1.445173,-0.57831 z m -14.800309,-4.66747 c 1.154962,-1.15496 1.902889,-3.0289 1.662061,-4.16431 -0.358265,-1.68907 -0.783244,-1.413801 -2.337656,1.51416 -1.475161,2.77868 -2.613919,3.57852 -5.094845,3.57852 -3.057787,0 -5.146413,-1.80473 -8.389448,-7.2491 -1.688641,-2.834874 -2.525019,-0.554384 -1.365315,3.7227 0.565817,2.08679 2.018778,4.06882 3.416877,4.66109 3.450302,1.46162 9.63791,0.40735 12.108326,-2.06306 z m 9.199142,-3.20069 c 1.398109,-1.79548 1.460388,-1.77671 0.913144,0.27527 -0.48109,1.80391 -0.351586,1.75413 0.716101,-0.27527 0.716872,-1.3626 1.723172,-2.477444 2.236225,-2.477444 0.513052,0 0.932823,-0.495488 0.932823,-1.101084 0,-2.275579 -3.239744,-0.979681 -5.505421,2.202168 -2.479799,3.48256 -1.864898,4.6794 0.707128,1.37636 z M 48.02553,68.865416 c 0,-0.569857 -0.743232,-1.036102 -1.651627,-1.036102 -1.702727,0 -2.187528,1.299239 -0.947505,2.539262 0.879691,0.87969 2.599132,-0.114717 2.599132,-1.50316 z m 1.499265,-8.193149 c 0.348584,-0.908395 0.153852,-1.651626 -0.432739,-1.651626 -0.586589,0 -1.066526,0.743231 -1.066526,1.651626 0,0.908394 0.194732,1.651626 0.432738,1.651626 0.238006,0 0.717943,-0.743232 1.066527,-1.651626 z m 0.405408,-5.973582 c -0.388878,-1.487073 -0.09856,-1.944888 0.972664,-1.533823 2.277527,0.873969 1.888886,-2.657962 -0.764972,-6.951995 -3.012624,-4.874528 -6.242527,-4.830953 -10.770821,0.145305 -1.928782,2.119587 -3.972914,3.853795 -4.542517,3.853795 -0.569603,0 -1.586068,1.028481 -2.258811,2.285514 -1.146086,2.14148 -1.061789,2.199588 1.337614,0.922065 1.408432,-0.749897 3.917284,-2.362541 5.575225,-3.583654 2.815373,-2.073588 4.506562,-1.909808 4.830785,0.467832 0.0757,0.55513 0.199572,1.317741 0.275272,1.694692 0.0757,0.376949 0.880867,0.06854 1.789261,-0.685365 1.408139,-1.168651 1.651627,-0.863876 1.651627,2.067346 0,1.890942 0.553277,3.438075 1.229505,3.438075 0.676228,0 0.980054,-0.953904 0.675168,-2.119787 z m 41.52886,81.301915 c -0.406891,-0.65837 -0.167757,-1.76907 0.531409,-2.46824 0.960892,-0.96089 1.511072,-0.88311 2.253793,0.31863 1.049461,1.69807 0.520266,3.34663 -1.074282,3.34663 -0.534115,0 -1.304029,-0.53866 -1.71092,-1.19702 z m -1.04179,-10.91491 c -0.37428,-0.60559 -0.155777,-1.10108 0.485559,-1.10108 0.641337,0 1.166067,0.49549 1.166067,1.10108 0,0.6056 -0.218501,1.10109 -0.485559,1.10109 -0.267058,0 -0.791788,-0.49549 -1.166067,-1.10109 z m 11.163207,-8.25813 c 0.34858,-0.90839 0.82852,-1.65163 1.06652,-1.65163 0.23801,0 0.43274,0.74324 0.43274,1.65163 0,0.9084 -0.47994,1.65163 -1.06653,1.65163 -0.58659,0 -0.78132,-0.74323 -0.43273,-1.65163 z m -40.066668,-1.32761 c -3.112759,-0.59955 -3.16969,-2.07822 -0.142396,-3.69838 1.748978,-0.93603 2.139724,-0.93364 1.556834,0.009 -0.428015,0.69254 -0.179395,1.9807 0.552489,2.86256 0.731884,0.88187 1.146156,1.53592 0.920606,1.45345 -0.225552,-0.0824 -1.524942,-0.36466 -2.887533,-0.6271 z"
         id="path1130"
         inkscape:connector-curvature="0" />
      <path
         style="fill:#88752c;stroke-width:1.10108423"
         d="m 70.873028,282.80694 c -3.37214,-2.09073 -3.800533,-3.75974 -1.462982,-5.69974 1.283485,-1.06519 1.459078,-0.89378 0.976162,0.95289 -1.033685,3.95282 2.689186,4.07897 6.463019,0.21899 3.801542,-3.8883 5.778301,-4.45413 4.800758,-1.37416 -0.727467,2.29204 2.143885,4.14149 3.36424,2.16691 0.480948,-0.77819 1.040729,-0.6698 1.670028,0.32337 1.53475,2.42214 1.183112,2.8624 -2.897698,3.62797 -2.799799,0.52524 -4.355162,0.25037 -5.594191,-0.98866 -1.950378,-1.95039 -4.19207,-1.15683 -3.299892,1.16814 0.772201,2.01233 -0.306883,1.9061 -4.019444,-0.39571 z m 60.284362,-14.28188 c -2.84822,-0.27967 -5.2954,-1.38136 -6.92634,-3.11816 -1.93562,-2.06125 -2.12762,-2.68568 -0.82581,-2.68568 0.9329,0 1.69619,0.47805 1.69619,1.06234 0,0.58429 0.93628,1.56342 2.08063,2.17586 1.67583,0.89687 2.1914,0.6899 2.65002,-1.06386 0.36972,-1.41384 0.12276,-1.95516 -0.70427,-1.54366 -0.70053,0.34853 -0.41427,-0.0713 0.63611,-0.93317 1.05038,-0.86179 1.58716,-1.88951 1.19284,-2.28383 -0.39432,-0.39431 0.0676,-0.71694 1.02644,-0.71694 0.95886,0 1.93826,-0.58463 2.17645,-1.29918 0.24586,-0.73758 1.25404,-0.98413 2.33229,-0.57037 1.77409,0.68078 1.77953,0.91151 0.0826,3.50135 -1.62251,2.47625 -1.63245,2.77254 -0.0931,2.77254 0.94796,0 2.11979,-0.65673 2.60408,-1.45939 0.48429,-0.80267 1.81507,-1.80397 2.9573,-2.22512 1.9696,-0.72622 1.97897,-0.87381 0.18175,-2.85973 -1.84196,-2.03534 -1.73052,-2.08638 3.97918,-1.82235 3.23083,0.1494 6.43078,-0.14525 7.11102,-0.65477 1.81646,-1.36058 4.81917,0.14308 4.81917,2.41329 0,1.17771 -1.10291,2.24181 -2.75272,2.65588 -1.51399,0.38 -2.75271,1.17694 -2.75271,1.771 0,0.59405 -0.96173,1.08011 -2.13718,1.08011 -1.17545,0 -2.44341,0.49548 -2.81769,1.10108 -0.37429,0.6056 -1.56643,1.10108 -2.64922,1.10108 -1.08279,0 -3.11132,0.99098 -4.50783,2.20217 -1.39652,1.2112 -3.08267,2.11887 -3.747,2.01708 -0.66433,-0.10185 -3.18983,-0.37971 -5.61222,-0.61757 z m 23.44136,-10.04153 c 0.91303,-0.57927 0.20991,-0.90071 -1.97022,-0.90071 -2.18012,0 -2.88324,0.32144 -1.97021,0.90071 0.78081,0.4954 1.66741,0.90071 1.97021,0.90071 0.3028,0 1.1894,-0.40531 1.97022,-0.90071 z m -126.392736,3.26502 c 0,-0.53496 0.990975,-1.2318 2.202168,-1.54854 1.431259,-0.37428 2.202168,-0.0338 2.202168,0.97266 0,0.8517 -0.990975,1.54855 -2.202168,1.54855 -1.211193,0 -2.202168,-0.43771 -2.202168,-0.97267 z m 6.400052,0.2205 c 0.794845,-0.31807 1.74453,-0.27895 2.110411,0.0869 0.365881,0.36588 -0.284447,0.62612 -1.445173,0.57831 -1.2827,-0.0528 -1.54361,-0.31374 -0.665238,-0.66523 z m -14.658184,-2.55109 c 0.374279,-0.60559 0.899009,-1.10108 1.166067,-1.10108 0.267058,0 0.485559,0.49549 0.485559,1.10108 0,0.6056 -0.52473,1.10109 -1.166067,1.10109 -0.641336,0 -0.859839,-0.49549 -0.485559,-1.10109 z M 170.02182,253.9195 c 1.94314,-3.41482 4.26159,-4.60972 3.10718,-1.60139 -0.37601,0.97987 -0.19142,1.42185 0.43274,1.0361 0.59866,-0.36999 1.08848,-0.22752 1.08848,0.31661 0,0.83232 -4.63454,3.54498 -6.05656,3.54498 -0.24614,0 0.39653,-1.48333 1.42816,-3.2963 z m -19.28087,-3.99184 c 1.05556,-1.05554 -1.65662,-3.26809 -5.05013,-4.11981 -1.79772,-0.45119 -2.75794,-1.2607 -2.32547,-1.96045 0.40515,-0.65555 0.0538,-1.61982 -0.78078,-2.1428 -0.96984,-0.60775 -0.19553,-0.78706 2.14573,-0.49691 3.90881,0.48443 8.63229,4.64781 8.63229,7.60869 0,0.9861 -0.74323,1.79291 -1.65162,1.79291 -0.9084,0 -1.3449,-0.30673 -0.97002,-0.68163 z m -72.954258,-5.88187 c -0.890856,-0.56339 -1.250675,-1.39342 -0.799597,-1.84449 0.451078,-0.45108 1.657752,0.0175 2.681498,1.04121 1.990081,1.99009 0.798767,2.49859 -1.881901,0.80328 z m 20.822838,-2.24152 c 0.460216,-0.30481 1.33473,-2.04066 1.94336,-3.85745 1.05362,-3.14507 1.36403,-3.28612 6.48242,-2.94537 2.95669,0.19685 5.62981,0.74942 5.94027,1.22796 0.31045,0.47853 1.67931,1.21797 3.0419,1.64321 2.70126,0.84299 3.28857,2.6292 1.10109,3.34878 -2.05735,0.67677 -19.479162,1.2254 -18.50904,0.58287 z m 29.79515,-0.004 c -1.10109,-0.71158 -1.19284,-1.07299 -0.27527,-1.08423 0.75699,-0.009 1.37635,-0.51235 1.37635,-1.11794 0,-0.6056 -1.17805,-1.10109 -2.61789,-1.10109 -1.43983,0 -3.23471,-0.74323 -3.98861,-1.65162 -0.7539,-0.9084 -2.20633,-1.65163 -3.22763,-1.65163 -1.02129,0 -2.8187,-0.72747 -3.99424,-1.61661 -1.17554,-0.88913 -2.88058,-1.65018 -3.78897,-1.69122 -0.9084,-0.0411 -3.09386,-1.25376 -4.8566,-2.69495 -2.69313,-2.20186 -3.28848,-3.6274 -3.72792,-8.92638 -0.31978,-3.8562 -0.11454,-6.05366 0.5283,-5.65636 0.61297,0.37883 0.85267,-0.70321 0.57496,-2.59539 -0.54726,-3.72877 -0.19972,-3.85729 4.23268,-1.56521 1.8621,0.96293 3.24858,1.19791 3.24858,0.55055 0,-0.62115 0.53087,-1.12936 1.17973,-1.12936 0.64885,0 1.92297,-0.74324 2.83136,-1.65163 0.9084,-0.9084 2.48625,-1.65163 3.50636,-1.65163 1.0201,0 2.51271,-1.48646 3.3169,-3.30325 2.74553,-6.20261 5.30936,-2.33078 2.71073,4.0937 -1.87257,4.62951 -1.79526,10.08878 0.19151,13.52365 0.87572,1.51399 1.89556,3.49594 2.26632,4.40433 0.37076,0.9084 1.13342,2.51201 1.69481,3.56359 0.56139,1.05158 1.02071,2.60889 1.02071,3.46071 0,0.85183 0.77463,1.84603 1.72141,2.20934 0.94678,0.36331 1.4264,1.13792 1.06583,1.72134 -0.36058,0.58343 -1.46898,0.74865 -2.46312,0.36716 -1.36654,-0.52439 -1.62657,-0.24403 -1.06582,1.14917 0.40794,1.01354 1.04245,2.58602 1.41004,3.49441 0.76194,1.88292 -0.44931,2.11524 -2.87051,0.55055 z m -20.9206,-18.10291 c 0,-0.26705 -0.49549,-0.79179 -1.10109,-1.16607 -0.60559,-0.37428 -1.10108,-0.15578 -1.10108,0.48556 0,0.64134 0.49549,1.16607 1.10108,1.16607 0.6056,0 1.10109,-0.2185 1.10109,-0.48556 z m 4.95488,-8.32311 c -0.37428,-0.6056 -1.17599,-1.10109 -1.78159,-1.10109 -0.6056,0 -0.79486,0.49549 -0.42058,1.10109 0.37428,0.60559 1.17599,1.10108 1.78159,1.10108 0.60559,0 0.79486,-0.49549 0.42058,-1.10108 z m 26.5999,23.72938 c -0.40841,-1.06431 -0.0831,-1.3925 0.97695,-0.98571 0.87407,0.33541 1.31509,1.05342 0.98003,1.59555 -0.8439,1.36547 -1.24722,1.23978 -1.95698,-0.60984 z m 37.42028,-2.25824 c -0.90839,-0.9084 -2.18251,-1.65163 -2.83136,-1.65163 -0.64885,0 -1.17973,-0.49549 -1.17973,-1.10108 0,-0.6056 0.64758,-1.10109 1.43907,-1.10109 0.79149,0 1.99662,-1.36259 2.67807,-3.02798 l 1.23899,-3.02798 -0.59526,3.02798 c -0.38706,1.96886 -0.12718,3.02798 0.74299,3.02798 0.73604,0 1.06533,0.71123 0.73177,1.58049 -0.39017,1.01675 0.45147,1.96759 2.35963,2.66578 l 2.96612,1.0853 -2.94933,0.0869 c -1.62214,0.0478 -3.69256,-0.6563 -4.60096,-1.5647 z m -76.812004,-57.5313 c -0.07114,-0.4542 -0.27663,-5.53295 -0.456634,-11.28611 -0.353521,-11.29901 0.580202,-16.79383 4.022748,-23.67331 6.12889,-12.24777 6.67474,-12.57384 10.83207,-6.47046 2.28432,3.35362 2.77812,5.59096 3.15972,14.31607 l 0.4523,10.34127 -5.63717,5.462 c -3.10044,3.00411 -5.63718,6.45082 -5.63718,7.65935 0,2.8765 -6.32055,6.30257 -6.735854,3.65119 z m 44.021994,-2.20217 c -2.09686,-2.53619 -4.9566,-12.15231 -6.46714,-21.74641 -0.66744,-4.23918 -1.38704,-8.5747 -1.59908,-9.63449 -0.21206,-1.05979 -0.26419,-1.9269 -0.11584,-1.9269 0.61815,0 14.92372,18.64987 18.71738,24.40143 3.47087,5.26219 3.91976,6.59191 2.88071,8.5334 -1.63792,3.06046 -10.97936,3.32015 -13.41603,0.37297 z m -22.37447,-12.31111 c -0.34843,-0.56376 -0.12992,-1.33623 0.48555,-1.71661 0.61548,-0.38038 1.11905,0.0808 1.11905,1.025 0,1.93408 -0.66072,2.21886 -1.6046,0.69161 z m -47.541687,-39.4692 c 0.102995,-1.32023 -0.573564,-1.82344 -2.223764,-1.65397 -3.457104,0.35502 -3.929734,-2.38563 -0.870172,-5.04589 2.478964,-2.15543 5.994683,-2.19608 5.994683,-0.0693 0,0.5218 0.740385,0.66461 1.645302,0.31736 0.904916,-0.34724 1.371162,-1.07492 1.036101,-1.61706 -0.77047,-1.24665 0.707298,-1.24665 2.675055,1e-5 1.189313,0.75348 0.844898,1.69074 -1.651627,4.49464 -4.175793,4.68991 -6.803543,6.11177 -6.605578,3.57423 z m 8.406168,-1.28202 c 0,-0.56986 0.495488,-1.34233 1.101084,-1.71661 0.605597,-0.37428 1.101085,0.092 1.101085,1.0361 0,0.94414 -0.495488,1.71661 -1.101085,1.71661 -0.605596,0 -1.101084,-0.46624 -1.101084,-1.0361 z M 77.218157,109.3526 c 0.258885,-5.35495 1.031122,-7.26223 2.390139,-5.90321 0.413824,0.41382 0.166081,1.33873 -0.550543,2.05536 -1.588244,1.58824 -1.713146,4.16576 -0.201865,4.16576 0.605597,0 1.101085,-0.74323 1.101085,-1.65162 0,-2.07835 0.818292,-2.09172 2.863223,-0.0468 0.882663,0.88267 2.333735,1.32514 3.224604,0.98328 1.160551,-0.44534 1.619762,0.16212 1.619762,2.14269 0,2.52003 -0.472711,2.79795 -5.35066,3.14578 l -5.350661,0.38154 z m -32.580579,0.40261 c -1.770204,-1.7702 -3.218554,-3.96698 -3.218554,-4.88171 0,-0.91474 -1.459047,-4.04966 -3.242329,-6.966479 -3.053786,-4.994921 -6.209445,-16.34804 -3.463422,-12.46036 0.641635,0.908395 1.174196,2.788997 1.183469,4.179116 0.0092,1.390119 1.131709,3.652315 2.494301,5.027104 1.362591,1.374789 3.220671,4.66062 4.129066,7.301849 1.228255,3.57124 2.442955,5.0631 4.738701,5.81992 5.013679,1.65282 10.425143,0.0704 12.325364,-3.60426 1.940554,-3.75262 2.027205,-4.409634 0.581558,-4.409634 -0.590044,0 -1.856647,1.515774 -2.814673,3.368394 -2.452786,4.74317 -7.652237,4.25471 -11.217277,-1.05379 -3.126861,-4.65603 -3.13094,-5.345594 -0.03515,-5.94187 2.471618,-0.476054 2.471779,-0.477528 0.06843,-0.627123 -1.505421,-0.0937 -2.407025,-0.872702 -2.40372,-2.076845 0.0029,-1.059794 -0.328968,-3.94399 -0.737505,-6.409326 -0.83447,-5.035659 0.852868,-7.650007 5.726979,-8.873331 4.353474,-1.092652 11.122276,1.443334 12.977937,4.862289 1.440728,2.654463 1.626707,2.730549 1.665869,0.681527 0.06381,-3.338683 -4.024743,-15.198988 -5.397192,-15.656471 -0.640877,-0.213625 -1.165232,-2.592782 -1.165232,-5.287014 0,-4.073112 0.417487,-5.053792 2.477439,-5.819522 1.362592,-0.506505 3.07142,-0.695009 3.797395,-0.418899 1.654271,0.62917 3.688374,-6.359953 2.352796,-8.084145 -0.526919,-0.680237 -0.64873,-2.042828 -0.270692,-3.027982 0.378039,-0.985152 0.179368,-1.791186 -0.44149,-1.791186 -0.620858,0 -1.912589,-0.300756 -2.870515,-0.668346 -1.164859,-0.446998 -1.741681,-0.05195 -1.741681,1.192842 0,1.023652 -0.61936,1.646911 -1.376355,1.385019 -0.817357,-0.282773 -1.235948,-1.885234 -1.030648,-3.945551 0.286103,-2.871217 -0.04166,-3.469385 -1.901024,-3.469385 -2.16151,0 -2.231262,0.51163 -1.838899,13.488281 0.362901,12.00222 0.158903,13.93758 -1.851592,17.56635 -2.357158,4.254469 -4.688201,5.922417 -5.788589,4.141952 -0.35454,-0.57366 -1.947088,0.164698 -3.538993,1.640795 -4.433296,4.110786 -5.110219,2.70777 -2.978777,-6.173926 0.580236,-2.417841 0.256371,-3.049168 -1.884432,-3.673419 -1.421797,-0.41459 -3.651703,-2.021338 -4.955345,-3.57055 -2.835586,-3.36973 -5.887873,-2.718943 -5.887873,1.255371 0,4.762147 -2.05896,4.197588 -2.412902,-0.661608 -0.309208,-4.245035 -0.812728,-4.956844 -5.591443,-7.904438 l -5.251634,-3.2393 -2.509851,2.357883 -2.5098514,2.357883 -1.3224595,-7.711989 C 5.8352288,38.225545 5.8204641,38.479587 8.1112262,37.573403 16.859496,34.112751 28.17241,31.859036 33.711435,32.473429 c 5.629429,0.624422 6.080954,0.889689 6.410796,3.766299 0.195157,1.702011 -0.246541,3.819178 -0.981555,4.704814 -1.095528,1.320032 -1.010643,1.485248 0.47098,0.916696 0.994052,-0.381453 1.807368,-1.075915 1.807368,-1.543248 0,-3.017156 16.746511,-5.137327 23.122769,-2.927432 3.147569,1.090891 4.62809,1.038971 8.079034,-0.283316 3.380706,-1.295375 4.655133,-1.350499 6.376023,-0.275784 1.182931,0.738752 2.6198,1.053319 3.193041,0.699036 1.37207,-0.847986 16.478605,4.626323 18.957739,6.869909 2.84996,2.579173 2.36195,6.904804 -1.458639,12.929249 -1.864913,2.940663 -3.771432,7.373189 -4.236709,9.850058 l -0.845958,4.503399 -2.369797,-5.321435 c -1.303388,-2.92679 -2.369796,-6.023589 -2.369796,-6.881777 0,-1.929167 -1.55684,-2.023082 -3.049945,-0.183985 -1.918139,2.36262 -2.057693,5.725379 -0.293386,7.069527 2.229679,1.698695 2.099426,10.812527 -0.217626,15.227428 -2.87766,5.483076 -9.829348,11.750608 -12.371608,11.154042 -1.793862,-0.420947 -3.205217,1.000075 -7.146318,7.195266 -2.701047,4.245895 -6.33135,8.914955 -8.067342,10.375695 -4.502224,3.78838 -9.949533,3.57074 -14.082928,-0.56266 z M 64.541793,88.264354 c 0,-0.267058 -0.495488,-0.791787 -1.101084,-1.166066 -0.605596,-0.37428 -1.101084,-0.155777 -1.101084,0.485559 0,0.641336 0.495488,1.166067 1.101084,1.166067 0.605596,0 1.101084,-0.218502 1.101084,-0.48556 z M 48.02553,68.865416 c 0,-0.569857 -0.743232,-1.036102 -1.651627,-1.036102 -1.702727,0 -2.187528,1.299239 -0.947505,2.539262 0.879691,0.87969 2.599132,-0.114717 2.599132,-1.50316 z m 1.499265,-8.193149 c 0.348584,-0.908395 0.153852,-1.651626 -0.432739,-1.651626 -0.586589,0 -1.066526,0.743231 -1.066526,1.651626 0,0.908394 0.194732,1.651626 0.432738,1.651626 0.238006,0 0.717943,-0.743232 1.066527,-1.651626 z m -11.66435,-9.798056 c 4.350186,-2.954292 6.10272,-3.109324 6.448925,-0.570487 0.0757,0.55513 0.199572,1.317741 0.275272,1.694692 0.0757,0.376949 0.880867,0.06854 1.789261,-0.685365 1.408139,-1.168651 1.651627,-0.863876 1.651627,2.067346 0,1.890942 0.553277,3.438075 1.229505,3.438075 0.676228,0 0.980054,-0.953904 0.675168,-2.119787 -0.388878,-1.487073 -0.09856,-1.944888 0.972664,-1.533823 2.277527,0.873969 1.888886,-2.657962 -0.764972,-6.951995 -3.012624,-4.874528 -6.242527,-4.830953 -10.770821,0.145305 -1.928782,2.119587 -3.977623,3.853795 -4.552982,3.853795 -0.575358,0 -1.826048,1.610336 -2.77931,3.578524 -1.051662,2.171353 -1.171025,2.92906 -0.303547,1.926897 0.786312,-0.908394 3.544456,-3.087824 6.12921,-4.843177 z m 36.292897,1.97577 c -0.365882,-0.36588 -1.315567,-0.404999 -2.110412,-0.08693 -0.878372,0.351495 -0.617462,0.612405 0.665238,0.665239 1.160726,0.04781 1.811054,-0.21243 1.445174,-0.578311 z M 66.22511,109.72179 c -0.772515,-1.24996 0.477729,-4.45561 1.73774,-4.45561 0.540804,0 0.98328,0.20722 0.98328,0.46048 0,0.25327 0.27622,1.18031 0.613823,2.06009 0.666225,1.73615 -2.369211,3.49747 -3.334843,1.93504 z m 4.546525,-3.849 c -0.408415,-1.06431 -0.08314,-1.3925 0.976957,-0.9857 0.874075,0.33541 1.315087,1.05341 0.980026,1.59555 -0.8439,1.36546 -1.247217,1.23977 -1.956983,-0.60985 z"
         id="path1128"
         inkscape:connector-curvature="0" />
      <path
         style="fill:#645f20;stroke-width:1.10108423"
         d="m 73.350467,283.57683 c 0,-0.64134 0.495488,-0.85984 1.101084,-0.48556 0.605597,0.37428 1.101085,0.89902 1.101085,1.16607 0,0.26706 -0.495488,0.48556 -1.101085,0.48556 -0.605596,0 -1.101084,-0.52473 -1.101084,-1.16607 z m 5.505421,-0.90128 c 0,-2.44063 3.057796,-3.50269 6.097352,-2.11778 l 3.040572,1.38537 -2.642064,0.73959 c -3.896645,1.09076 -6.49586,1.08789 -6.49586,-0.007 z m -1.531934,-2.80239 c 0.330615,-0.86158 1.402132,-1.87387 2.381148,-2.24956 1.46237,-0.56116 1.416722,-0.2816 -0.255789,1.5665 -2.398384,2.65018 -2.947997,2.82681 -2.125359,0.68306 z m 53.408636,-11.53662 c -3.50227,-0.47899 -5.31749,-1.41494 -6.6065,-3.40646 l -1.77737,-2.74602 3.1574,2.45574 c 3.18585,2.47788 5.10073,2.42531 5.10073,-0.14 0,-1.41739 4.492,-6.18292 5.82805,-6.18292 0.40218,0 0.19149,1.18463 -0.46822,2.63252 -0.86024,1.88802 -0.86303,3.21144 -0.01,4.6796 0.65428,1.12591 1.20466,1.42774 1.22307,0.67074 0.0184,-0.757 0.99521,-1.37636 2.17066,-1.37636 2.56112,0 3.94883,-1.78554 1.99875,-2.57173 -0.76078,-0.30672 -0.32904,-0.59678 0.9594,-0.64459 1.28844,-0.0478 2.90192,-0.76085 3.58552,-1.58452 0.68359,-0.82369 2.42295,-1.27203 3.86522,-0.99632 1.44229,0.27571 3.79271,-0.0927 5.22316,-0.81882 2.42397,-1.23034 2.39818,-1.12514 -0.3791,1.54686 -1.63895,1.57683 -3.71553,2.86696 -4.61462,2.86696 -0.89908,0 -1.94093,0.49548 -2.31521,1.10108 -0.37428,0.6056 -1.56642,1.10108 -2.64922,1.10108 -1.08278,0 -3.11131,0.99098 -4.50783,2.20217 -1.39651,1.2112 -3.08267,2.12775 -3.747,2.0368 -0.66433,-0.091 -3.38099,-0.46258 -6.03701,-0.82581 z M 29.85764,261.62013 c 0.374279,-0.60559 1.175995,-1.10108 1.781592,-1.10108 0.605596,0 0.794856,0.49549 0.420576,1.10108 -0.374279,0.6056 -1.175995,1.10109 -1.781591,1.10109 -0.605597,0 -0.794857,-0.49549 -0.420577,-1.10109 z m -9.909758,-2.20217 c 0.374279,-0.60559 0.899009,-1.10108 1.166067,-1.10108 0.267058,0 0.485559,0.49549 0.485559,1.10108 0,0.6056 -0.52473,1.10109 -1.166067,1.10109 -0.641336,0 -0.859839,-0.49549 -0.485559,-1.10109 z M 170.02182,253.9195 c 1.94314,-3.41482 4.26159,-4.60972 3.10718,-1.60139 -0.37601,0.97987 -0.19142,1.42185 0.43274,1.0361 0.59866,-0.36999 1.08848,-0.22752 1.08848,0.31661 0,0.83232 -4.63454,3.54498 -6.05656,3.54498 -0.24614,0 0.39653,-1.48333 1.42816,-3.2963 z m -21.79762,-8.81563 c -1.41148,-0.91217 -1.37146,-1.06981 0.27527,-1.08423 1.05979,-0.009 1.92689,0.47863 1.92689,1.08423 0,1.34289 -0.12419,1.34289 -2.20216,0 z m -70.469396,-1.10108 c -0.908394,-0.58706 -1.156138,-1.06736 -0.550542,-1.06736 0.605596,0 1.844316,0.4803 2.752711,1.06736 0.908394,0.58705 1.156138,1.06735 0.550542,1.06735 -0.605597,0 -1.844316,-0.4803 -2.752711,-1.06735 z m 22.832606,-4.80473 c 1.87714,-3.72378 2.10675,-3.83147 6.89667,-3.23471 2.72518,0.33952 5.42559,1.04856 6.00091,1.57566 0.57531,0.52709 1.9792,0.95835 3.11973,0.95835 1.17118,0 1.87275,0.59903 1.61197,1.37636 -0.30899,0.92101 -3.21886,1.42449 -8.7956,1.52185 -4.58362,0.08 -8.88322,0.48503 -9.554666,0.90001 -0.671446,0.41497 -0.347005,-0.97891 0.720986,-3.09752 z m 24.78929,-1.47776 c -1.36259,-0.26246 -2.47744,-0.88306 -2.47744,-1.37915 0,-0.49608 -1.73421,-1.2273 -3.8538,-1.62493 -2.11958,-0.39764 -3.85379,-1.13408 -3.85379,-1.63653 0,-0.50246 -1.36259,-1.21217 -3.02798,-1.57715 -1.66539,-0.36497 -4.19205,-1.58101 -5.61481,-2.70231 -2.41214,-1.90107 -2.46316,-2.16239 -0.75561,-3.86994 1.00717,-1.00717 1.47625,-2.40556 1.0424,-3.10755 -0.55045,-0.89064 -1.23713,-0.66323 -2.27237,0.75255 -1.28557,1.75811 -1.48356,1.78768 -1.48356,0.22152 0,-0.99405 0.61936,-2.2036 1.37636,-2.68789 1.80044,-1.15184 5.07627,-5.39496 3.37933,-4.37719 -0.71515,0.42893 -1.64419,0.2234 -2.06453,-0.45673 -0.54169,-0.87647 -1.04439,-0.80154 -1.72617,0.25732 -0.58602,0.91013 -0.68557,-0.012 -0.25475,-2.35989 0.38894,-2.11959 0.83769,-4.0142 0.99722,-4.21026 0.15954,-0.19605 1.82257,0.43603 3.69564,1.40463 1.91661,0.99113 3.40558,1.26732 3.40558,0.63174 0,-0.62115 0.53087,-1.12936 1.17973,-1.12936 0.64885,0 1.92297,-0.74324 2.83136,-1.65163 0.9084,-0.9084 2.48625,-1.65163 3.50636,-1.65163 1.0201,0 2.51271,-1.48646 3.3169,-3.30325 2.74553,-6.20261 5.30936,-2.33078 2.71073,4.0937 -1.87257,4.62951 -1.79526,10.08878 0.19151,13.52365 1.57134,2.71662 1.88375,3.38635 4.10906,8.80867 0.62134,1.51399 1.57158,3.61981 2.11166,4.67961 0.72237,1.41752 0.54287,1.9269 -0.67901,1.9269 -0.91353,0 -1.66096,0.49548 -1.66096,1.10108 0,0.6056 -0.37161,1.03361 -0.82581,0.95114 -0.4542,-0.0825 -1.94066,-0.36468 -3.30325,-0.62712 z m -12.93774,-22.3457 c -0.37428,-0.6056 -1.17599,-1.10109 -1.78159,-1.10109 -0.6056,0 -0.79486,0.49549 -0.42058,1.10109 0.37428,0.60559 1.17599,1.10108 1.78159,1.10108 0.60559,0 0.79486,-0.49549 0.42058,-1.10108 z m 64.02018,21.47114 c -0.90839,-0.9084 -2.18251,-1.65163 -2.83136,-1.65163 -0.64885,0 -1.17973,-0.49549 -1.17973,-1.10108 0,-0.6056 0.64758,-1.10109 1.43907,-1.10109 0.79149,0 1.99662,-1.36259 2.67807,-3.02798 l 1.23899,-3.02798 -0.59526,3.02798 c -0.38706,1.96886 -0.12718,3.02798 0.74299,3.02798 0.73604,0 1.06533,0.71123 0.73177,1.58049 -0.39017,1.01675 0.45147,1.96759 2.35963,2.66578 l 2.96612,1.0853 -2.94933,0.0869 c -1.62214,0.0478 -3.69256,-0.6563 -4.60096,-1.5647 z M 99.647136,179.31409 c -0.07114,-0.4542 -0.27663,-5.53295 -0.456634,-11.28611 -0.353521,-11.29901 0.580202,-16.79383 4.022748,-23.67331 6.12889,-12.24777 6.67474,-12.57384 10.83207,-6.47046 2.28432,3.35362 2.77812,5.59096 3.15972,14.31607 l 0.4523,10.34127 -5.63717,5.462 c -3.10044,3.00411 -5.63718,6.11039 -5.63718,6.90285 0,2.66739 -6.35689,6.82709 -6.735854,4.40769 z m 44.021994,-2.20217 c -2.09686,-2.53619 -4.9566,-12.15231 -6.46714,-21.74641 -0.66744,-4.23918 -1.38704,-8.5747 -1.59908,-9.63449 -0.21206,-1.05979 -0.26419,-1.9269 -0.11584,-1.9269 0.61815,0 14.92372,18.64987 18.71738,24.40143 3.47087,5.26219 3.91976,6.59191 2.88071,8.5334 -1.63792,3.06046 -10.97936,3.32015 -13.41603,0.37297 z m -22.37447,-12.31111 c -0.34843,-0.56376 -0.12992,-1.33623 0.48555,-1.71661 0.61548,-0.38038 1.11905,0.0808 1.11905,1.025 0,1.93408 -0.66072,2.21886 -1.6046,0.69161 z M 74.451551,124.65295 c 0,-0.8436 0.743232,-1.81902 1.651627,-2.16761 1.846435,-0.70854 1.93753,-0.52698 0.98328,1.95976 -0.825483,2.15117 -2.634907,2.29391 -2.634907,0.20785 z m 7.70759,-0.60336 c 0,-0.56986 0.495488,-1.34233 1.101084,-1.71661 0.605597,-0.37428 1.101085,0.092 1.101085,1.0361 0,0.94414 -0.495488,1.71661 -1.101085,1.71661 -0.605596,0 -1.101084,-0.46624 -1.101084,-1.0361 z m -12.111926,-3.91878 c 0,-0.90839 0.479937,-1.65162 1.066526,-1.65162 0.586591,0 0.781323,0.74323 0.432738,1.65162 -0.348583,0.9084 -0.82852,1.65163 -1.066526,1.65163 -0.238006,0 -0.432738,-0.74323 -0.432738,-1.65163 z m 11.561384,-1.65162 c -0.374279,-0.6056 -0.155777,-1.10109 0.485559,-1.10109 0.641337,0 1.166067,0.49549 1.166067,1.10109 0,0.60559 -0.218501,1.10108 -0.485559,1.10108 -0.267058,0 -0.791788,-0.49549 -1.166067,-1.10108 z m -4.179088,-6.27138 c 1.320127,-3.48487 3.405313,-4.93289 5.529448,-3.83982 1.074091,0.55272 2.613946,0.76897 3.421901,0.48055 1.014096,-0.362 1.355072,0.28078 1.101084,2.07569 -0.31939,2.2571 -1.056315,2.64429 -5.586486,2.93521 -4.641434,0.29806 -5.135329,0.11541 -4.465947,-1.65163 z m -32.791933,-2.4526 c -1.770204,-1.7702 -3.218554,-3.96698 -3.218554,-4.88171 0,-0.91474 -1.447286,-4.04966 -3.216191,-6.966479 -3.429611,-5.655228 -5.67391,-13.321158 -3.508056,-11.982586 0.670354,0.414302 1.218826,1.985276 1.218826,3.491053 0,1.505777 1.114848,3.862604 2.47744,5.237393 1.362591,1.374789 3.220671,4.686903 4.129066,7.360249 1.904446,5.60468 5.061156,7.29785 11.391728,6.11023 2.96821,-0.55684 4.471411,-1.63063 5.753526,-4.10997 0.954557,-1.84591 1.454316,-3.63744 1.110576,-3.98118 -0.936198,-0.936199 -5.088279,3.16853 -4.374054,4.32417 0.3474,0.56211 -0.746095,0.70813 -2.503404,0.3343 -1.716133,-0.36507 -4.150142,-0.86854 -5.408911,-1.11882 -1.258769,-0.25028 -2.869104,-1.72897 -3.578524,-3.28597 -1.675174,-3.676609 -1.698057,-3.596601 1.187586,-4.1524 2.471618,-0.476054 2.471779,-0.477528 0.06843,-0.627123 -1.505421,-0.0937 -2.407025,-0.872702 -2.40372,-2.076845 0.0029,-1.059794 -0.328969,-3.94399 -0.737505,-6.409326 -0.83447,-5.035659 0.852868,-7.650007 5.726979,-8.873331 4.316709,-1.083425 11.111465,1.445784 13.062603,4.862289 l 1.706449,2.988049 -0.509206,-3.853794 c -0.679931,-5.145867 -3.250697,-15.056611 -4.134924,-15.940838 -1.021888,-1.021887 2.111968,-6.850838 4.091699,-7.610532 0.922232,-0.353893 2.197247,-2.13644 2.833368,-3.961215 1.142507,-3.277398 3.473417,-4.35497 4.794949,-2.216689 0.374279,0.605597 1.329131,1.101085 2.121892,1.101085 0.792762,0 -0.227456,-1.769488 -2.267151,-3.932194 -2.039694,-2.162707 -3.708536,-4.404666 -3.708536,-4.982132 0,-0.577466 -1.347864,-1.562395 -2.995253,-2.188731 -2.445963,-0.929954 -3.253659,-0.7854 -4.404337,0.788245 -1.252929,1.713483 -1.409084,1.53765 -1.409084,-1.586664 0,-2.779647 -0.460061,-3.513703 -2.202169,-3.513703 -1.880891,0 -2.21485,0.763031 -2.289095,5.23015 -0.04781,2.876582 -0.360076,4.541099 -0.693923,3.698925 -1.244283,-3.138869 -4.192219,-5.625823 -6.668628,-5.625823 -2.903364,0 -14.064667,10.052172 -14.959129,13.472598 -0.525147,2.008165 -0.433019,2.029459 1.441374,0.333156 1.101308,-0.99667 3.048799,-1.890952 4.327758,-1.987293 1.475243,-0.111127 2.32538,-0.92814 2.32538,-2.234776 0,-3.138048 2.702471,-1.580119 3.101158,1.787766 0.191648,1.618919 1.306495,3.45622 2.47744,4.082892 2.672207,1.430121 2.712971,3.495369 0.115394,5.846144 -3.161301,2.86094 -7.629979,2.257861 -11.430457,-1.542617 -3.985563,-3.985562 -5.747324,-3.644656 -6.942345,1.343365 l -0.880009,3.67316 -0.652908,-4.363595 C 24.445843,58.076216 23.59916,56.985829 19.100584,54.210024 L 13.84895,50.969549 11.339099,53.327432 8.8292476,55.685315 7.5067881,47.973326 C 6.7794354,43.731733 6.1843288,39.835159 6.1843288,39.314274 c 0,-1.179345 4.2150422,-2.861173 12.2036832,-4.869348 5.003918,-1.257878 6.147721,-1.27786 6.147721,-0.1074 0,0.790903 -0.468989,1.34166 -1.042198,1.223905 -0.573209,-0.117755 -1.24824,1.015348 -1.500069,2.518006 -0.431293,2.573525 -0.213653,2.493636 3.749576,-1.376355 3.489724,-3.407624 4.986708,-4.108462 8.775648,-4.108462 2.51251,0 4.814775,0.398967 5.116145,0.886593 0.301369,0.487625 0.137566,2.706151 -0.364005,4.930058 l -0.91195,4.043465 4.734987,-2.774886 c 6.36157,-3.728129 16.247923,-4.522383 21.464949,-1.724462 3.636906,1.950494 3.83806,1.946965 7.356673,-0.129068 3.596266,-2.121847 3.645514,-2.120844 8.379313,0.170749 5.265082,2.548782 6.741337,2.859634 5.718134,1.204056 -0.904325,-1.463228 -0.792309,-1.444481 6.632635,1.110075 11.399749,3.922088 12.959239,7.690168 7.04342,17.018452 -1.864913,2.940663 -3.771432,7.373189 -4.236709,9.850058 l -0.845958,4.503399 -2.369797,-5.321435 c -1.303388,-2.92679 -2.369796,-6.023589 -2.369796,-6.881777 0,-1.929167 -1.55684,-2.023082 -3.049945,-0.183985 -1.918139,2.36262 -2.057693,5.725379 -0.293386,7.069527 2.234446,1.702327 2.097673,10.822686 -0.228359,15.227428 -2.674902,5.065389 -8.680914,10.680353 -10.824557,10.119778 -2.579073,-0.674443 -3.0669,-0.198692 -9.044913,8.821035 -2.890665,4.36149 -6.545833,8.94475 -8.122595,10.18503 -4.254323,3.34645 -9.742392,2.95951 -13.665398,-0.9635 z M 76.94627,85.721933 c -0.584292,-1.522642 -0.792123,-1.473635 -1.508787,0.355776 -1.302277,3.324294 -1.11964,4.153901 0.600245,2.726523 0.872398,-0.724025 1.281242,-2.11106 0.908542,-3.082299 z m -12.404477,2.542421 c 0,-0.267058 -0.495488,-0.791787 -1.101084,-1.166066 -0.605596,-0.37428 -1.101084,-0.155777 -1.101084,0.485559 0,0.641336 0.495488,1.166067 1.101084,1.166067 0.605596,0 1.101084,-0.218502 1.101084,-0.48556 z M 79.956973,80.4268 c 0,-1.598078 -0.476596,-2.523141 -1.101085,-2.137186 -1.592807,0.984409 -1.351396,-0.804259 0.457016,-3.38613 1.110686,-1.585725 1.301141,-3.316026 0.663252,-6.02569 -0.776117,-3.296829 -0.909805,-3.417312 -1.00756,-0.908031 -0.06199,1.591238 -0.850484,3.50546 -1.752211,4.253826 -0.901726,0.748366 -1.367972,1.800013 -1.036102,2.336991 0.331872,0.536978 0.136435,0.976323 -0.434304,0.976323 -1.585757,0 -2.379846,5.932292 -0.918553,6.86211 2.797831,1.780255 5.129547,0.883755 5.129547,-1.972213 z m -7.70759,-1.036102 c 0,-0.908394 -0.495488,-1.651626 -1.101084,-1.651626 -0.605597,0 -1.101084,0.743232 -1.101084,1.651626 0,0.908395 0.495487,1.651626 1.101084,1.651626 0.605596,0 1.101084,-0.743231 1.101084,-1.651626 z m 12.037891,-4.404337 c 0.0022,-0.605596 -0.723474,-0.139278 -1.612609,1.036264 -1.046373,1.383428 -1.616608,1.60999 -1.616608,0.642299 0,-0.822277 -0.228092,-1.266958 -0.50687,-0.988178 -0.278778,0.278778 -0.20502,1.661143 0.163907,3.071922 l 0.670777,2.565054 1.448702,-2.613138 c 0.796786,-1.437227 1.450502,-3.108626 1.452701,-3.714223 z"
         id="path1126"
         inkscape:connector-curvature="0" />
      <path
         style="fill:#191912;stroke-width:1.10108423"
         d="m 79.528096,282.07018 c 0.7811,-2.03552 4.131456,-2.37978 3.457372,-0.35526 -0.252049,0.75699 -1.282578,1.53622 -2.290063,1.73162 -1.277397,0.24774 -1.630686,-0.16882 -1.167309,-1.37636 z m 55.004814,-13.72661 c -0.33453,-0.54128 0.57966,-0.9129 2.03153,-0.82581 1.45187,0.0871 2.41033,0.52995 2.12989,0.98415 -0.70447,1.14102 -3.42228,1.03762 -4.16142,-0.15834 z m -8.94576,-1.82931 c -2.01533,-1.61459 -1.98019,-1.63752 0.61536,-0.40138 3.37045,1.60517 3.99511,2.11376 2.59614,2.11376 -0.59079,0 -2.03596,-0.77056 -3.2115,-1.71238 z m -0.25641,-31.01432 c -1.1132,-0.40697 -1.13531,-0.86581 -0.10174,-2.1112 1.00027,-1.20525 1.01141,-1.90039 0.0459,-2.86585 -0.70098,-0.70105 -1.27457,-2.49684 -1.27457,-3.99064 0,-1.4938 -0.31289,-2.40312 -0.69531,-2.02069 -0.38243,0.38243 -1.68094,0.16783 -2.88559,-0.47688 -1.32867,-0.71108 -1.92391,-0.74123 -1.51318,-0.0766 0.3724,0.60256 -0.0633,1.37967 -0.9682,1.72692 -2.47547,0.94993 -1.97689,3.6461 0.83213,4.49996 1.36259,0.41418 1.94671,0.97921 1.29804,1.25561 -1.59496,0.67961 -9.2809,-2.60712 -9.2809,-3.96878 0,-0.59747 -0.8039,-1.08631 -1.78644,-1.08631 -1.41302,0 -1.51693,-0.32477 -0.49709,-1.5536 0.88143,-1.06206 0.92409,-1.77936 0.13483,-2.26715 -0.635,-0.39245 -1.15455,-1.71325 -1.15455,-2.9351 0,-1.86151 0.61499,-2.16856 3.79473,-1.89461 4.38377,0.37768 5.84895,-0.57808 4.10589,-2.67834 -0.94156,-1.13452 -0.31726,-2.4036 2.72137,-5.53203 2.16879,-2.23287 4.25836,-4.05831 4.6435,-4.05651 0.38512,0.002 0.70023,2.72706 0.70023,6.05618 0,3.32911 -0.37162,6.05283 -0.82581,6.0527 -0.4542,-1.2e-4 -0.82582,1.2385 -0.82582,2.75249 0,1.514 0.62694,2.75272 1.39318,2.75272 1.70781,0 5.75626,10.94082 4.47864,12.10338 -0.50432,0.4589 -1.55698,0.60036 -2.33925,0.31437 z m -20.04883,-22.32751 c 0,-2.05536 0.29362,-2.34898 1.3213,-1.3213 1.02768,1.02767 1.02768,1.61492 0,2.6426 -1.02768,1.02767 -1.3213,0.73406 -1.3213,-1.3213 z m 38.66224,-35.63548 c -1.74529,-2.10293 -5.22282,-13.39692 -6.14874,-19.96927 -0.42659,-3.02799 -0.97467,-6.90703 -1.21797,-8.62008 -0.24329,-1.71307 -0.76791,-3.69502 -1.16584,-4.40434 -2.32737,-4.14873 8.95899,9.80764 16.4336,20.32129 5.29278,7.44472 6.21358,10.50575 3.86637,12.85297 -1.8038,1.80379 -10.22783,1.67454 -11.76742,-0.18057 z M 99.91786,166.99917 c -0.114564,-10.95698 2.68598,-24.29262 5.46184,-26.0082 0.62652,-0.3872 1.6055,-1.93066 2.17551,-3.42988 0.63499,-1.67019 1.74008,-2.58823 2.85339,-2.37048 3.15913,0.61788 5.8857,7.73978 6.62287,17.29911 l 0.69543,9.01822 -5.27428,4.91165 c -2.90086,2.7014 -5.74035,4.91164 -6.30998,4.91164 -0.56964,0 -0.74747,-1.61034 -0.39517,-3.57853 0.82641,-4.61704 -0.80876,-1.15333 -2.59904,5.50543 -0.692,2.57378 -1.67623,4.6796 -2.18718,4.6796 -0.51096,0 -0.980485,-4.92235 -1.04339,-10.93856 z M 47.364506,111.40148 c -1.877555,-0.81734 -3.702139,-2.23765 -4.054634,-3.15624 -0.556422,-1.45001 -0.270656,-1.47807 2.168024,-0.21287 3.27489,1.69904 9.939429,0.98975 12.633635,-1.34456 1.846182,-1.59957 3.668023,-6.75307 2.721812,-7.69928 -0.281805,-0.281805 -1.590449,0.565704 -2.908098,1.88335 -1.436456,1.43646 -3.236291,2.17591 -4.494997,1.84676 -1.1546,-0.30194 -2.370481,-0.11015 -2.701958,0.42619 -0.87101,1.40932 -4.666574,-1.2526 -5.313512,-3.726497 -0.378972,-1.449187 0.129565,-2.280887 1.635406,-2.674673 2.176197,-0.569088 2.176123,-0.580138 -0.01752,-2.623826 -2.907801,-2.709028 -4.76632,-9.444869 -3.340873,-12.108341 1.82842,-3.416433 4.887873,-4.406407 10.040131,-3.248771 2.580971,0.579906 5.325811,1.920241 6.099646,2.978522 1.695101,2.318191 1.887074,11.413007 0.240904,11.413007 -0.641337,0 -0.859839,0.495487 -0.48556,1.101084 0.37428,0.605596 0.155777,1.101084 -0.485559,1.101084 -0.641337,0 -1.166067,0.495488 -1.166067,1.101084 0,1.879119 3.33174,1.208376 4.102013,-0.825813 0.401306,-1.059794 1.417572,-2.622491 2.25837,-3.472661 1.022163,-1.033556 1.299689,-2.76663 0.83753,-5.23015 -0.801985,-4.274947 -0.328966,-4.523029 2.751169,-1.442894 2.093659,2.093659 2.362744,2.120244 4.07991,0.403076 2.384767,-2.384766 3.127555,-0.322453 1.18968,3.303081 -0.800315,1.497296 -4.340291,6.929322 -7.866613,12.071168 -4.57821,6.67564 -7.380049,9.68646 -9.798795,10.52964 -4.112498,1.43362 -3.90906,1.44342 -8.124046,-0.39147 z M 68.94613,88.35595 c 0,-1.398975 -0.508591,-0.774322 -2.113764,2.596132 -1.236127,2.595551 -1.21321,2.630684 0.401396,0.615363 0.941802,-1.17554 1.712368,-2.620713 1.712368,-3.211495 z m -30.034375,9.973239 c -1.962157,-2.99463 -1.502541,-3.735708 1.239253,-1.998156 0.816582,0.51749 1.310069,1.84765 1.096638,2.95591 -0.332668,1.727407 -0.66608,1.590697 -2.335891,-0.957754 z m 37.741965,-8.03909 c 0,-0.326076 1.407876,-2.664093 3.128614,-5.195592 3.706639,-5.453097 5.68006,-10.820034 5.68006,-15.447548 0,-2.290666 0.358436,-3.000727 1.126859,-2.232303 3.059363,3.059362 1.667547,9.670922 -3.720615,17.674092 -2.69837,4.007956 -6.214918,6.951004 -6.214918,5.201351 z M 63.642574,75.298335 c -1.528659,-1.52866 -1.737125,-5.969635 -0.3213,-6.844664 0.539908,-0.333682 1.212819,1.247411 1.49536,3.513541 0.604443,4.847978 0.536258,5.04144 -1.17406,3.331123 z M 91.730259,64.706617 c -1.02494,-2.323078 -1.868892,-5.172133 -1.875446,-6.331234 -0.0066,-1.159099 -0.750674,-4.542715 -1.653598,-7.519146 -0.902923,-2.976432 -1.377433,-5.67594 -1.054466,-5.998905 0.322967,-0.322967 2.537618,-0.06662 4.921449,0.569662 2.383831,0.63628 4.073181,0.734476 3.754114,0.218213 -0.319069,-0.516263 0.316221,-0.946249 1.411755,-0.955522 1.688851,-0.01429 1.740615,-0.17924 0.340253,-1.084223 -0.908394,-0.58705 -1.10808,-1.07495 -0.443748,-1.084223 2.303114,-0.03215 5.949168,4.108343 5.949168,6.755927 0,1.463379 -1.73421,5.352454 -3.853793,8.64239 -2.119587,3.289936 -3.853795,7.113259 -3.853795,8.496272 0,3.765139 -1.546928,3.039136 -3.641893,-1.709211 z m -27.350738,1.192294 c -2.88601,-0.620056 -3.406053,-4.833645 -0.820117,-6.644904 1.222359,-0.856174 2.694896,-2.799253 3.272304,-4.317953 0.748884,-1.969714 1.439156,-2.457121 2.407942,-1.700271 0.746959,0.583552 2.972916,1.604166 4.946571,2.268033 3.298519,1.109503 3.502307,1.046045 2.522151,-0.785392 -0.586471,-1.095833 -2.317285,-2.812093 -3.846253,-3.813911 -1.528967,-1.001818 -3.085837,-3.040278 -3.459712,-4.52991 -0.444247,-1.770027 -2.167038,-3.364605 -4.972361,-4.60231 -2.360925,-1.041638 -4.327415,-2.41789 -4.369979,-3.05834 -0.04256,-0.64045 -0.503228,-0.173478 -1.023695,1.037714 -0.77143,1.795217 -0.960606,1.858094 -1.023694,0.340254 -0.134398,-3.233448 2.290207,-3.507143 7.218665,-0.81486 4.312399,2.355747 4.906873,2.438169 6.170374,0.855508 1.921801,-2.407251 5.602867,-3.102101 7.825178,-1.477107 3.626328,2.651635 10.887502,19.264094 8.420183,19.264094 -0.517582,0 -1.53574,1.644564 -2.262574,3.654586 l -1.321514,3.654585 -2.758079,-2.758079 -2.758079,-2.758078 -1.921407,2.372836 c -1.929622,2.382983 -8.859593,4.54105 -12.245904,3.813505 z M 24.989688,61.487615 C 24.919615,58.59431 24.057134,57.313719 20.540211,54.88111 18.14081,53.221476 16.158858,51.458917 16.135874,50.964314 16.075138,49.65714 21.327516,42.67881 26.44,37.274228 c 2.969435,-3.139092 5.348026,-4.674057 7.225418,-4.662747 3.108011,0.01872 6.732645,2.075389 5.000896,2.837575 -2.880858,1.267937 -4.26252,2.609289 -3.486767,3.385041 0.469587,0.469587 1.279678,0.164702 1.800201,-0.677522 0.601728,-0.973617 0.858163,0.185511 0.70411,3.182695 -0.152616,2.96925 -1.069102,5.585508 -2.476168,7.068626 -1.228629,1.295038 -3.171311,3.841077 -4.31707,5.657866 -1.14576,1.816789 -2.391964,3.550996 -2.769344,3.853794 -0.37738,0.302799 -1.21681,2.037006 -1.865403,3.853795 l -1.179256,3.303253 -0.08693,-3.588989 z m 2.115241,-10.304529 c 0,-0.605596 -0.495488,-0.794856 -1.101084,-0.420577 -0.605596,0.37428 -1.101084,1.175995 -1.101084,1.781592 0,0.605596 0.495488,0.794856 1.101084,0.420577 0.605596,-0.37428 1.101084,-1.175996 1.101084,-1.781592 z m 2.202169,-4.339354 c 0,-0.569856 -0.495488,-1.036102 -1.101084,-1.036102 -0.605597,0 -1.101085,0.772475 -1.101085,1.716609 0,0.944135 0.495488,1.410381 1.101085,1.036102 0.605596,-0.37428 1.101084,-1.146753 1.101084,-1.716609 z m 4.986281,14.134845 c -2.677007,-2.302664 -2.911845,-2.965125 -1.792529,-5.056586 2.460538,-4.597556 9.868963,-2.578702 11.69929,3.188146 0.883147,2.782552 0.667511,3.019518 -3.507574,3.854535 -2.540103,0.508021 -4.041254,0.04212 -6.399187,-1.986095 z m 3.822393,-4.160105 c 0,-0.605596 -0.495488,-1.101084 -1.101085,-1.101084 -0.605596,0 -1.101084,0.495488 -1.101084,1.101084 0,0.605596 0.495488,1.101084 1.101084,1.101084 0.605597,0 1.101085,-0.495488 1.101085,-1.101084 z M 8.0194692,48.376826 c -1.106645,-1.106644 -0.8813831,-9.175701 0.2561558,-9.175701 0.5446169,0 1.1675465,2.229696 1.3842894,4.954879 0.3772136,4.742839 -0.04139,5.819883 -1.6404452,4.220822 z M 90.417273,43.605462 c -2.101261,-0.902943 -2.088648,-0.94985 0.275271,-1.023695 1.362592,-0.04256 2.477439,0.418099 2.477439,1.023695 0,0.605596 -0.123872,1.066259 -0.275271,1.023694 -0.151399,-0.04256 -1.266246,-0.503227 -2.477439,-1.023694 z M 50.930602,41.953836 c -0.349314,-0.910296 -1.983694,-1.651627 -3.641274,-1.651627 -3.70226,0 -2.217889,-1.836655 2.112557,-2.61393 2.738682,-0.491566 3.027982,-0.23486 3.027982,2.686845 0,3.55739 -0.527022,4.112338 -1.499265,1.578712 z M 13.341376,38.100041 c -0.374279,-0.605596 0.09196,-1.101084 1.036102,-1.101084 0.944134,0 1.716609,0.495488 1.716609,1.101084 0,0.605596 -0.466245,1.101084 -1.036102,1.101084 -0.569856,0 -1.342329,-0.495488 -1.716609,-1.101084 z m 40.740117,-1.101084 c 0.37428,-0.605597 1.175995,-1.101084 1.781592,-1.101084 0.605596,0 0.794856,0.495487 0.420577,1.101084 -0.37428,0.605596 -1.175996,1.101084 -1.781592,1.101084 -0.605597,0 -0.794856,-0.495488 -0.420577,-1.101084 z"
         id="path1124"
         inkscape:connector-curvature="0" />
    </g>
  </g>
</svg>
