<?xml version="1.0" encoding="UTF-8" standalone="no"?>
<!-- Created with Inkscape (http://www.inkscape.org/) -->

<svg
   xmlns:dc="http://purl.org/dc/elements/1.1/"
   xmlns:cc="http://creativecommons.org/ns#"
   xmlns:rdf="http://www.w3.org/1999/02/22-rdf-syntax-ns#"
   xmlns:svg="http://www.w3.org/2000/svg"
   xmlns="http://www.w3.org/2000/svg"
   xmlns:sodipodi="http://sodipodi.sourceforge.net/DTD/sodipodi-0.dtd"
   xmlns:inkscape="http://www.inkscape.org/namespaces/inkscape"
   width="210mm"
   height="297mm"
   viewBox="0 0 210 297"
   version="1.1"
   id="svg8"
   inkscape:version="0.92.5 (0.92.5+69)"
   sodipodi:docname="girafle.svg">
  <defs
     id="defs2" />
  <sodipodi:namedview
     id="base"
     pagecolor="#ffffff"
     bordercolor="#666666"
     borderopacity="1.0"
     inkscape:pageopacity="0.0"
     inkscape:pageshadow="2"
     inkscape:zoom="1.0074671"
     inkscape:cx="400"
     inkscape:cy="364.14488"
     inkscape:document-units="mm"
     inkscape:current-layer="layer1"
     showgrid="false"
     inkscape:window-width="1299"
     inkscape:window-height="713"
     inkscape:window-x="67"
     inkscape:window-y="27"
     inkscape:window-maximized="1" />
  <metadata
     id="metadata5">
    <rdf:RDF>
      <cc:Work
         rdf:about="">
        <dc:format>image/svg+xml</dc:format>
        <dc:type
           rdf:resource="http://purl.org/dc/dcmitype/StillImage" />
        <dc:title></dc:title>
      </cc:Work>
    </rdf:RDF>
  </metadata>
  <g
     inkscape:label="Layer 1"
     inkscape:groupmode="layer"
     id="layer1">
    <g
       id="g1025"
       transform="matrix(1.4051754,0,0,1.4051754,-30.15756,-20.32613)">
      <path
         style="fill:#f9d9a8;stroke-width:0.98810631"
         d="m 75.319731,211.93526 c -0.554286,-1.30096 -1.036078,-1.77404 -1.070649,-1.05128 -0.03457,0.72275 -0.689746,1.3141 -1.455945,1.3141 -1.5964,0 -1.787879,-2.94897 -0.546081,-8.41026 0.460157,-2.02372 1.102144,-7.34585 1.426638,-11.82694 0.545352,-7.53104 0.456839,-8.14744 -1.169932,-8.14744 -1.996599,0 -9.117409,11.37677 -13.489121,21.5513 l -2.710244,6.3077 -1.068959,-2.83445 c -0.780452,-2.06944 -1.425944,-2.58471 -2.391637,-1.90911 -2.450106,1.71408 -2.726422,-0.0195 -0.798786,-5.0116 1.972348,-5.10787 4.422436,-15.16533 5.05051,-20.73205 0.292647,-2.59378 -0.125404,-3.46411 -2.354105,-4.90096 -1.49047,-0.9609 -3.889545,-3.76482 -5.331279,-6.23092 -2.234716,-3.82251 -2.594522,-5.42545 -2.439545,-10.86829 0.09998,-3.51147 0.308947,-7.51965 0.464363,-8.90708 0.233462,-2.08417 -0.188401,-2.597 -2.427232,-2.95062 -3.9667,-0.62652 -8.599697,-3.02239 -12.463903,-6.44545 -1.870446,-1.65692 -4.483822,-3.30957 -5.807502,-3.67257 -1.899223,-0.52084 -2.731493,-1.79841 -3.947085,-6.05897 -2.000258,-7.01073 -2.022209,-11.46521 -0.0565,-11.46521 0.816144,0 3.537186,2.48366 6.046761,5.51924 3.366875,4.07257 4.439901,6.11206 4.093747,7.78098 -0.44487,2.14482 0.63774,3.54815 7.622056,9.88001 2.979256,2.70093 5.538209,2.9122 9.624225,0.79456 7.027184,-3.64194 19.517466,-7.92674 28.635946,-9.82359 14.357628,-2.98671 30.278768,-0.34668 40.835008,6.77121 l 5.00467,3.37457 3.81823,-3.44692 c 9.33861,-8.43046 13.46685,-19.19729 13.53677,-35.3052 0.0301,-6.933431 -0.13468,-7.621804 -1.82437,-7.621804 -1.03192,0 -1.85746,0.700856 -1.85746,1.576925 0,0.867309 -0.31344,1.487149 -0.69654,1.377409 -0.3831,-0.10973 -2.99514,1.12363 -5.80454,2.7408 -4.56217,2.62612 -6.15,2.95472 -14.85962,3.0751 l -9.75162,0.13479 -3.22534,-3.40123 c -1.77393,-1.87068 -3.57997,-3.401227 -4.013421,-3.401227 -1.020651,0 -3.441589,-2.74041 -3.441589,-3.895751 0,-0.490646 -1.149299,-2.31965 -2.553997,-4.064452 -3.663641,-4.550679 -6.683572,-19.373159 -3.947085,-19.373159 0.510799,0 0.928726,-0.700604 0.928726,-1.556896 0,-0.856292 1.044816,-1.853733 2.321815,-2.216534 1.767997,-0.502297 2.321815,-1.344877 2.321815,-3.532438 0,-1.580041 0.622367,-5.195105 1.38304,-8.033477 1.792646,-6.689105 1.797577,-8.945515 0.01783,-8.172457 -0.836188,0.363219 -1.635078,-0.170726 -2.01554,-1.347098 -0.984837,-3.045131 -4.024962,-7.17176 -4.05725,-5.507266 -0.01909,0.984561 -0.341038,0.847469 -0.994456,-0.423475 -1.858888,-3.615661 -0.557882,-4.370928 7.592932,-4.407895 6.88115,-0.03121 8.28713,-0.37489 11.65602,-2.849231 4.06056,-2.982352 5.13958,-6.94102 2.55399,-9.370036 -2.48272,-2.332431 -0.97784,-8.301204 2.093,-8.301204 2.21475,0 4.17449,3.319335 3.6457,6.174934 -0.828,4.471363 0.61498,5.835008 5.84214,5.520962 2.90231,-0.174371 5.72422,0.362245 7.56197,1.437993 3.25443,1.90502 5.58457,0.811396 5.58457,-2.621058 0,-4.260693 5.93081,-5.37528 6.72961,-1.264706 0.48538,2.497772 -1.19806,6.521122 -2.72856,6.521122 -2.04468,0 -2.40999,2.767596 -0.74501,5.644015 1.89402,3.272092 6.56233,5.125732 11.7854,4.679618 3.15217,-0.269234 4.00488,0.03108 4.26853,1.503302 0.2065,1.153082 -0.23635,1.839746 -1.18652,1.839746 -0.8338,0 -1.28697,0.419474 -1.00706,0.932165 0.69552,1.273871 -1.94277,3.616731 -3.13418,2.783229 -0.55751,-0.39003 -0.74244,-0.03261 -0.44188,0.854019 0.37567,1.108165 -0.13455,1.482127 -1.86742,1.368705 -1.31139,-0.08583 -2.38464,-0.747408 -2.38499,-1.470165 -3.6e-4,-0.722757 -0.33352,-1.314104 -0.74036,-1.314104 -0.66484,0 -0.71348,1.21314 -0.30878,7.70235 0.0923,1.480367 0.81124,1.877439 3.13811,1.733233 5.25309,-0.325555 5.58682,-0.15231 5.11287,2.654174 -0.3891,2.304105 -0.11878,2.628208 2.19214,2.628208 3.17574,0 5.88942,4.025349 5.25324,7.792445 -0.32196,1.906497 0.11491,2.81195 1.76816,3.664623 2.42562,1.251033 4.26121,5.519248 3.42916,7.973679 -0.3023,0.891735 0.0884,1.847854 0.89906,2.199969 0.78855,0.342528 2.12049,1.809217 2.95987,3.25931 1.25346,2.165487 1.33257,3.165488 0.44275,5.597185 -0.88733,2.424912 -0.8115,3.430347 0.4191,5.556323 1.20662,2.08456 1.29448,3.11245 0.44615,5.22004 -0.77407,1.92307 -0.78264,3.20328 -0.032,4.79079 1.3877,2.93513 1.2892,6.7491 -0.23527,9.10904 -0.9504,1.47127 -1.02996,2.79654 -0.32417,5.39968 0.74046,2.73103 0.61854,3.99721 -0.58514,6.07666 -1.00344,1.73355 -1.3282,3.71519 -0.95499,5.82744 0.3909,2.21246 0.0345,4.09702 -1.15414,6.10395 -0.94581,1.59682 -1.7798,4.91123 -1.85332,7.36534 -0.15641,5.22112 -1.60899,7.62773 -4.60393,7.62773 -1.74595,0 -2.20386,0.64112 -2.44027,3.41667 -0.23922,2.80853 -0.72767,3.47392 -2.74416,3.7383 l -2.45312,0.32163 1.7844,6.51171 c 0.98143,3.58143 1.99868,11.00257 2.26058,16.4914 0.26189,5.48884 1.12703,12.51402 1.92252,15.61154 1.80001,7.00889 0.67661,8.98707 -2.7371,4.81972 l -2.35795,-2.87852 -1.41843,3.84278 c -0.78014,2.11353 -1.84157,3.84277 -2.35875,3.84277 -0.95998,0 -2.24636,-4.57062 -3.4026,-12.08975 -0.80054,-5.20604 -3.74702,-11.99464 -6.29689,-14.50789 -1.90257,-1.87525 -1.93044,-1.83692 -3.0577,4.20513 -0.6257,3.35369 -1.17086,8.93609 -1.21149,12.40532 -0.0927,7.91803 -1.28255,10.57592 -2.91685,6.5157 -1.41599,-3.51789 -2.11155,-3.55969 -3.46065,-0.208 -2.33728,5.80671 -3.98071,1.83056 -3.21163,-7.77028 0.27319,-3.41032 0.20938,-8.36947 -0.1418,-11.02031 l -0.6385,-4.81972 -19.29363,0.003 -19.293626,0.003 -2.064853,5.49431 c -1.135696,3.02187 -2.668215,6.91354 -3.405624,8.64815 -0.73741,1.73462 -1.984071,5.63751 -2.770357,8.67309 -1.568571,6.05571 -2.414216,6.73279 -3.939052,3.15385 z M 123.15718,101.1782 c -0.30862,-0.34933 -1.10964,-0.38668 -1.78006,-0.083 -0.74087,0.3356 -0.52081,0.58471 0.56111,0.63515 0.97902,0.0456 1.52756,-0.20282 1.21895,-0.55215 z m 10.21599,-3.153851 c -0.30862,-0.349332 -1.10965,-0.386681 -1.78007,-0.083 -0.74087,0.335597 -0.52081,0.584706 0.56111,0.635151 0.97903,0.04565 1.52756,-0.202822 1.21896,-0.552155 z m -20.18045,-1.467416 c 0,-0.578205 -0.41793,-1.051283 -0.92873,-1.051283 -0.5108,0 -0.92872,0.473078 -0.92872,1.051283 0,0.578206 0.41792,1.051283 0.92872,1.051283 0.5108,0 0.92873,-0.473077 0.92873,-1.051283 z m 2.78618,0 c 0,-0.578205 -0.41793,-1.051283 -0.92873,-1.051283 -0.5108,0 -0.92872,0.473078 -0.92872,1.051283 0,0.578206 0.41792,1.051283 0.92872,1.051283 0.5108,0 0.92873,-0.473077 0.92873,-1.051283 z m 3.25054,0 c 0.31569,-0.578205 0.1314,-1.051283 -0.40955,-1.051283 -0.54095,0 -0.98354,0.473078 -0.98354,1.051283 0,0.578206 0.1843,1.051283 0.40955,1.051283 0.22525,0 0.66785,-0.473077 0.98354,-1.051283 z m 16.88713,-1.248398 c -0.29647,-0.838644 -0.51654,-0.589535 -0.5611,0.63515 -0.0403,1.108227 0.17917,1.729141 0.48778,1.379809 0.30861,-0.349333 0.3416,-1.256064 0.0733,-2.014959 z m -25.71003,-0.854168 c 0,-0.578206 -0.65156,-1.051283 -1.4479,-1.051283 -0.79635,0 -1.18961,0.473077 -0.87391,1.051283 0.31569,0.578206 0.96725,1.051283 1.4479,1.051283 0.48065,0 0.87391,-0.473077 0.87391,-1.051283 z m -2.8004,-3.942312 c 0.007,-0.722757 -0.35146,-1.314104 -0.79841,-1.314104 -0.44695,0 -0.81264,1.233201 -0.81264,2.740446 0,1.934016 0.23495,2.320717 0.79842,1.314104 0.43913,-0.784488 0.80481,-2.017689 0.81263,-2.740446 z m 13.01639,2.891029 c 0,-0.578206 -0.1843,-1.051283 -0.40955,-1.051283 -0.22525,0 -0.66785,0.473077 -0.98354,1.051283 -0.31569,0.578206 -0.1314,1.051283 0.40955,1.051283 0.54094,0 0.98354,-0.473077 0.98354,-1.051283 z m 18.11016,-3.15385 c 0.31569,-0.578205 0.13139,-1.051283 -0.40955,-1.051283 -0.54095,0 -0.98354,0.473078 -0.98354,1.051283 0,0.578206 0.18429,1.051284 0.40955,1.051284 0.22525,0 0.66784,-0.473078 0.98354,-1.051284 z m -13.46653,-2.102566 c 0.7662,-0.560498 0.97516,-1.019086 0.46436,-1.019086 -0.5108,0 -1.55561,0.458588 -2.32181,1.019086 -0.7662,0.560498 -0.97517,1.019087 -0.46437,1.019087 0.5108,0 1.55562,-0.458589 2.32182,-1.019087 z m -15.99055,-3.955275 c -0.7315,-0.997721 -1.28811,-1.031002 -2.24283,-0.134097 -1.61981,1.521723 -1.66014,1.461164 0.97297,1.461164 1.70065,0 2.00763,-0.320805 1.26986,-1.327067 z m 5.3102,-0.07652 -1.85745,-0.456746 1.85745,-0.925734 c 1.49842,-0.746799 1.37479,-0.820265 -0.63962,-0.380079 -1.3734,0.300111 -2.75633,0.07085 -3.07318,-0.509486 -0.31685,-0.580325 -1.16338,-1.055139 -1.88118,-1.055139 -0.90027,0 -0.66721,0.740102 0.75135,2.385998 1.41193,1.638193 2.78414,2.231161 4.37827,1.891965 2.0228,-0.430406 2.0826,-0.552853 0.46436,-0.950777 z m 11.11571,0.931064 c 0.62273,-1.140557 -5.2858,-2.650686 -7.11878,-1.819452 -0.66592,0.301982 -0.0861,0.586408 1.28843,0.632056 1.37455,0.04565 2.75748,0.556073 3.07317,1.134279 0.72468,1.327286 2.04759,1.352771 2.75718,0.05312 z M 99.261829,71.789736 c 0,-2.63605 -0.327469,-4.563724 -0.727703,-4.283721 -0.70937,0.496268 -0.368212,9.076538 0.360893,9.076538 0.201748,0 0.36681,-2.156768 0.36681,-4.792817 z m 14.587741,-1.765445 c -0.22214,-1.307704 -0.41234,-0.485335 -0.42264,1.827488 -0.0103,2.312823 0.17145,3.382763 0.4039,2.377644 0.23245,-1.005118 0.24088,-2.897428 0.0188,-4.205132 z m 6.98522,3.650447 c 0.23589,-1.021094 0.10505,-2.795134 -0.29078,-3.942312 -0.54817,-1.588759 -0.73521,-1.146366 -0.78493,1.856532 -0.0699,4.224268 0.38008,5.096871 1.07571,2.08578 z M 95.779106,71.681176 c -0.638499,-0.291639 -1.683316,-0.291639 -2.321815,0 -0.638499,0.29164 -0.11609,0.530252 1.160908,0.530252 1.276998,0 1.799407,-0.238612 1.160907,-0.530252 z m 9.340974,-1.333599 c -0.48913,-2.117279 -3.07207,-3.918479 -3.07207,-2.142294 0,0.560058 0.41792,1.018288 0.92872,1.018288 0.5108,0 0.92873,0.709616 0.92873,1.576925 0,0.867309 0.3788,1.576925 0.84178,1.576925 0.46298,0 0.63076,-0.91343 0.37284,-2.029844 z m 31.68675,0.581795 c 2.00542,-1.177721 2.18444,-1.570236 0.95893,-2.102567 -2.10693,-0.915193 -2.28362,-0.849482 -2.28362,0.84929 0,0.827094 -0.94033,1.708824 -2.08963,1.959401 -1.16176,0.253293 -1.41509,0.519164 -0.57052,0.598759 0.83551,0.07874 2.62869,-0.508456 3.98484,-1.304883 z m -6.38365,-1.616011 c -0.28873,-0.52882 5e-5,-1.201089 0.64173,-1.493928 0.64168,-0.29284 -0.92294,-0.531361 -3.47694,-0.530048 l -4.64363,0.0024 2.78618,1.444123 c 3.24553,1.68221 5.44351,1.952687 4.69266,0.577465 z M 109.47782,49.187148 c 0,-1.122288 -0.41793,-2.040523 -0.92873,-2.040523 -0.5108,0 -0.92873,1.210614 -0.92873,2.690251 0,1.525798 0.40199,2.409022 0.92873,2.040523 0.5108,-0.357351 0.92873,-1.567963 0.92873,-2.690251 z m 21.07557,-0.706411 c -0.23547,-1.022865 -0.44362,-0.440521 -0.46255,1.294096 -0.0189,1.734617 0.17373,2.571506 0.42814,1.859753 0.25439,-0.711753 0.26988,-2.130985 0.0344,-3.153849 z M 98.333103,46.733459 c 0,-0.227241 -0.62689,-0.685471 -1.393089,-1.018288 -0.766199,-0.332819 -1.393089,-0.146894 -1.393089,0.413165 0,0.560059 0.62689,1.018289 1.393089,1.018289 0.766199,0 1.393089,-0.185925 1.393089,-0.413166 z m -7.429808,-0.638117 c 0,-0.578206 0.651555,-1.051283 1.447899,-1.051283 0.796345,0 1.189607,0.473077 0.873916,1.051283 -0.315692,0.578206 -0.967246,1.051283 -1.4479,1.051283 -0.480654,0 -0.873915,-0.473077 -0.873915,-1.051283 z"
         id="path1039"
         inkscape:connector-curvature="0" />
      <path
         style="fill:#fbce61;stroke-width:0.98810631"
         d="m 75.563796,212.14273 c -0.488212,-1.74121 -0.86332,-1.91529 -1.942481,-0.90147 -2.33341,2.19211 -2.600091,0.0954 -0.98322,-7.73003 0.864566,-4.18442 1.566582,-10.56477 1.560034,-14.17856 -0.01063,-5.87234 -0.209921,-6.57052 -1.875444,-6.57052 -2.014592,0 -7.773482,9.3145 -12.987,21.00531 -1.645066,3.68891 -3.272989,6.11792 -3.836168,5.72392 -0.538096,-0.37644 -0.77864,-1.54894 -0.534542,-2.60555 0.377564,-1.63433 0.187994,-1.74026 -1.269943,-0.7096 -2.929443,2.07088 -3.108859,-0.006 -0.591273,-6.84409 2.182132,-5.92704 5.294124,-17.96903 5.294124,-20.48583 0,-0.54128 -1.827127,-2.46944 -4.060282,-4.28481 -6.720015,-5.46279 -8.411113,-12.80555 -5.677549,-24.65195 0.623402,-2.70162 0.475523,-2.89103 -2.257168,-2.89103 -3.981057,0 -8.357557,-2.21611 -12.492611,-6.32584 -1.900902,-1.88927 -4.458672,-3.55959 -5.683931,-3.71184 -3.46062,-0.43002 -3.86822,-1.03784 -5.626423,-8.39031 -2.408046,-10.06998 -0.986881,-10.91563 5.673714,-3.37609 4.158726,4.70753 5.084542,6.35323 4.582131,8.14508 -0.769217,2.74342 1.179061,5.45095 6.917244,9.61295 4.446936,3.22544 8.773012,3.84256 11.121938,1.58656 1.915153,-1.83939 9.927553,-5.32518 18.64765,-8.11265 4.478095,-1.43147 10.945205,-2.42798 18.110158,-2.79058 12.985986,-0.65718 19.137146,0.70982 29.381446,6.52952 3.56218,2.02365 7.03298,3.67936 7.71291,3.67936 2.23146,0 12.17884,-11.976 14.4079,-17.34618 1.78811,-4.30786 2.28205,-7.65581 2.73721,-18.55268 0.4229,-10.124744 0.91633,-13.760768 2.06865,-15.243609 4.9658,-6.390163 6.02839,-15.93264 2.31839,-20.82 -1.67087,-2.201122 -3.97694,-3.387048 -9.51944,-4.895492 -13.45223,-3.661159 -32.72348,-4.412659 -38.658898,-1.507542 -1.247131,0.610414 -1.625271,0.295315 -1.625271,-1.35431 0,-2.219198 2.370824,-14.549775 3.356648,-17.457803 0.400271,-1.180732 -0.01368,-1.643005 -1.471269,-1.643005 -1.115549,0 -3.354373,-1.537502 -4.975179,-3.416671 l -2.946919,-3.41667 7.894171,-0.542466 C 110.65242,36.8217 115.86617,31.716897 111.72261,24.558524 c -2.11034,-3.645821 -0.9546,-7.065211 2.24638,-6.646127 1.99608,0.261334 2.52348,0.933472 2.72894,3.477791 0.62815,7.779375 0.83306,8.065286 5.24384,7.316566 3.0445,-0.516799 5.10148,-0.156819 8.3239,1.456712 4.16583,2.08592 4.305,2.090477 5.21265,0.170713 0.51291,-1.084834 0.93255,-2.696497 0.93255,-3.581475 0,-2.459681 3.51173,-4.23391 5.21431,-2.634426 1.99031,1.869786 1.23023,6.530925 -1.26722,7.771209 -2.29046,1.137483 -2.69843,4.285292 -0.8992,6.937974 1.91869,2.828786 5.39864,4.358489 10.09778,4.438734 2.47508,0.04226 4.50013,0.285815 4.50013,0.541224 0,0.255407 -0.8998,1.347752 -1.99956,2.427433 -1.84252,1.808889 -4.13179,2.471294 -7.05552,2.04153 -1.79907,-0.264447 -1.57709,11.079912 0.23218,11.865812 0.7662,0.332819 1.39309,0.146894 1.39309,-0.413166 0,-0.560058 1.25378,-1.018288 2.78618,-1.018288 2.35277,0 2.78617,0.408832 2.78617,2.628208 0,2.044549 0.4762,2.628208 2.14431,2.628208 3.61357,0 5.67048,2.480802 5.56455,6.711296 -0.0524,2.090844 0.20255,3.801535 0.56648,3.801535 1.72763,0 4.72683,4.579029 4.72683,7.216682 0,1.765678 0.92247,3.91062 2.32181,5.398716 2.39928,2.551447 3.1631,7.697626 1.3326,8.978231 -0.64872,0.453833 -0.44671,1.370648 0.58685,2.66342 1.18611,1.483604 1.43014,3.004404 0.98627,6.146534 -0.34215,2.42208 -0.13601,5.30255 0.49095,6.86017 0.84456,2.09821 0.80912,3.31683 -0.16214,5.57604 -0.68359,1.59006 -1.13511,5.2853 -1.00338,8.21163 0.16926,3.76005 -0.17873,5.71349 -1.18641,6.66016 -1.15181,1.08207 -1.21169,1.72787 -0.3115,3.35954 0.91648,1.66115 0.74367,2.81232 -0.97289,6.48086 -1.21282,2.59196 -2.08624,6.31732 -2.08474,8.89188 0.003,4.75136 -2.22247,7.29375 -5.52759,6.31539 -1.33819,-0.39613 -1.60857,0.19084 -1.53032,3.32216 0.0904,3.61639 -0.045,3.79146 -2.75421,3.56244 l -2.84925,-0.24086 2.1527,7.47463 c 1.54301,5.35762 2.15271,9.9291 2.15271,16.14075 0,5.01593 0.58677,10.54868 1.39309,13.13561 1.57196,5.04333 1.82027,9.46154 0.53177,9.46154 -0.47372,0 -1.72178,-1.23826 -2.77346,-2.75169 -1.74633,-2.51306 -1.96008,-2.58143 -2.46478,-0.78846 -0.30395,1.07977 -0.9733,3.14119 -1.48745,4.58093 -0.88158,2.46861 -1.00512,2.50889 -2.169,0.70715 -0.67878,-1.0508 -1.51484,-4.35762 -1.8579,-7.34848 -0.73019,-6.36591 -3.96616,-14.88496 -7.0236,-18.49039 l -2.15366,-2.53965 -1.17414,5.6935 c -0.64578,3.13142 -1.22123,8.53195 -1.27877,12.00119 -0.0576,3.46923 -0.44224,7.25385 -0.85488,8.41026 -0.69956,1.96046 -0.83336,1.90072 -1.9796,-0.88373 l -1.22934,-2.98628 -2.67061,3.51192 -2.67062,3.51194 0.3935,-9.98719 c 0.21642,-5.49295 0.14428,-11.60674 -0.16032,-13.58619 l -0.55382,-3.59902 -19.96761,0.0804 -19.967613,0.0804 -2.519842,6.67244 c -1.385913,3.66984 -3.431946,10.10225 -4.546739,14.29424 -2.096786,7.88462 -3.055954,9.16484 -4.09365,5.46389 z M 131.76724,49.712789 c 0,-1.41139 -0.41793,-2.566164 -0.92873,-2.566164 -0.51079,0 -0.92872,1.447152 -0.92872,3.215893 0,1.876226 0.38689,2.945231 0.92872,2.566164 0.5108,-0.357351 0.92873,-1.804502 0.92873,-3.215893 z m -22.28942,-0.592322 c 0,-2.690817 -0.23386,-3.062883 -1.29722,-2.063913 -0.71347,0.670264 -1.08264,2.147422 -0.8204,3.282574 0.74311,3.216688 2.11762,2.425681 2.11762,-1.218661 z m 0.0674,42.563917 c -3.52768,-5.076536 -2.75666,-5.810138 5.27277,-5.016878 3.95869,0.391096 7.37441,0.886901 7.59049,1.101788 0.21606,0.214888 -1.00851,1.806937 -2.72127,3.537889 -3.95425,3.996218 -7.5346,4.129379 -10.14199,0.377201 z m -9.35468,-18.25568 c 0,-2.102566 0.46436,-3.15385 1.39308,-3.15385 0.92873,0 1.39309,1.051284 1.39309,3.15385 0,2.102566 -0.46436,3.153849 -1.39309,3.153849 -0.92872,0 -1.39308,-1.051283 -1.39308,-3.153849 z m 15.2251,1.664347 c -0.76869,-2.267512 0.30084,-5.092417 1.72464,-4.555192 0.63823,0.240819 1.16041,1.541699 1.16041,2.890845 0,2.881389 -2.06804,4.074413 -2.88505,1.664347 z"
         id="path1037"
         inkscape:connector-curvature="0" />
      <path
         style="fill:#f8b162;stroke-width:0.98810631"
         d="m 75.563796,212.14273 c -0.488212,-1.74121 -0.86332,-1.91529 -1.942481,-0.90147 -2.33341,2.19211 -2.600091,0.0954 -0.98322,-7.73003 0.864566,-4.18442 1.566582,-10.09169 1.560034,-13.12728 l -0.0119,-5.51923 h 6.036719 c 3.320196,0 6.036719,0.40801 6.036719,0.90669 0,0.49868 -1.170947,4.16503 -2.602104,8.14744 -1.431158,3.98242 -3.377997,10.19749 -4.32631,13.81128 -1.808174,6.89051 -2.760077,8.00541 -3.767454,4.4126 z m 74.024784,-0.62463 c -0.54872,-1.1606 -1.29459,-4.67567 -1.6575,-7.81127 -0.82237,-7.1055 -3.34307,-13.92157 -6.7936,-18.37011 l -2.64862,-3.41469 -0.621,4.88801 c -0.34155,2.68841 -0.94447,9.02299 -1.33982,14.07683 -0.39534,5.05386 -0.98572,9.49096 -1.31195,9.86023 -0.32622,0.36927 -1.11104,-0.6153 -1.74404,-2.18792 l -1.15093,-2.85932 -2.57377,3.51192 -2.57377,3.51194 -0.003,-6.3077 c -0.002,-3.46923 0.36112,-8.08174 0.80594,-10.25001 0.44481,-2.16827 0.46132,-3.94231 0.0367,-3.94231 -0.42464,0 -0.90303,-1.5375 -1.0631,-3.41667 l -0.29106,-3.41667 -15.41758,0.39382 -15.417585,0.39382 -0.590262,-2.49639 c -1.086146,-4.59362 -0.638195,-5.8011 3.356927,-9.04879 l 3.97256,-3.22935 4.38206,3.67422 c 3.67042,3.07752 4.29094,4.08522 3.82094,6.20498 -0.41857,1.8878 -0.18162,2.53077 0.93264,2.53077 0.82158,0 1.49377,-0.47308 1.49377,-1.05129 0,-0.5782 0.83585,-1.05128 1.85745,-1.05128 1.0216,0 1.85745,-0.47308 1.85745,-1.05128 0,-0.57821 0.64001,-1.05129 1.42224,-1.05129 0.78223,0 1.6628,-0.70961 1.95681,-1.57692 0.29403,-0.86731 1.01228,-1.5851 1.59613,-1.59509 1.06343,-0.0182 4.26013,-3.48366 5.63911,-6.11323 0.57689,-1.10005 -0.19162,-1.33613 -3.5813,-1.10017 -3.98818,0.27761 -4.45419,0.0428 -6.13876,-3.09276 -2.64926,-4.93123 -2.30962,-7.63353 1.378,-10.96416 1.76049,-1.59007 3.58851,-2.89103 4.06226,-2.89103 0.47375,0 2.79468,1.22314 5.15762,2.71808 4.13213,2.61427 5.1913,4.07144 3.50064,4.81612 -0.43758,0.19273 -1.09965,2.24273 -1.47128,4.55556 l -0.67571,4.20513 2.63757,-4.20513 c 3.70404,-5.90546 5.23805,-9.54645 4.7177,-11.19763 -0.59921,-1.90148 0.92829,-5.09726 2.43636,-5.09726 0.97076,0 3.02779,-3.37434 3.84525,-6.3077 0.37698,-1.35279 1.70582,-5.05648 2.97044,-8.27912 1.44179,-3.67412 0.73671,-5.32952 -2.28784,-5.37147 -0.70646,-0.009 -1.16091,-1.46663 -1.16091,-3.7216 0,-3.03107 0.44315,-3.89624 2.43479,-4.75338 1.62922,-0.70116 2.80996,-0.69539 3.56875,0.0174 1.17773,1.1064 1.99837,-1.0963 4.29523,-11.52885 0.57234,-2.59967 1.27159,-5.67467 1.55387,-6.83334 0.28227,-1.15866 0.55192,-3.880699 0.5992,-6.048971 0.0473,-2.168271 0.35067,-3.942311 0.67419,-3.942311 0.32352,0 0.79295,-0.886183 1.04317,-1.969295 0.32695,-1.415264 0.0308,-1.859755 -1.05259,-1.579938 -2.28201,0.58938 -4.53105,-1.928942 -5.04974,-5.654338 -0.35942,-2.58151 -0.0842,-3.46874 1.22116,-3.937741 3.03255,-1.089509 2.71811,-3.368162 -1.45795,-10.565362 -2.26334,-3.900757 -4.11517,-7.495218 -4.11517,-7.987694 0,-0.492476 1.25378,-0.89541 2.78618,-0.89541 2.35277,0 2.78617,0.408832 2.78617,2.628208 0,2.044549 0.4762,2.628208 2.14431,2.628208 3.61357,0 5.67048,2.480802 5.56455,6.711296 -0.0524,2.090844 0.20255,3.801535 0.56648,3.801535 1.72763,0 4.72683,4.579029 4.72683,7.216682 0,1.765678 0.92247,3.91062 2.32181,5.398716 2.39928,2.551447 3.1631,7.697626 1.3326,8.978231 -0.64872,0.453833 -0.44671,1.370648 0.58685,2.66342 1.18611,1.483604 1.43014,3.004404 0.98627,6.146534 -0.34215,2.42208 -0.13601,5.30255 0.49095,6.86017 0.84456,2.09821 0.80912,3.31683 -0.16214,5.57604 -0.68359,1.59006 -1.13511,5.2853 -1.00338,8.21163 0.16926,3.76005 -0.17873,5.71349 -1.18641,6.66016 -1.15181,1.08207 -1.21169,1.72787 -0.3115,3.35954 0.91648,1.66115 0.74367,2.81232 -0.97289,6.48086 -1.21282,2.59196 -2.08624,6.31732 -2.08474,8.89188 0.003,4.75136 -2.22247,7.29375 -5.52759,6.31539 -1.33819,-0.39613 -1.60857,0.19084 -1.53032,3.32216 0.0912,3.64845 -0.0255,3.79278 -2.86657,3.54519 l -2.96163,-0.25812 2.26508,7.53841 c 1.67529,5.57553 2.26507,9.78281 2.26507,16.15801 0,4.97457 0.5891,10.50964 1.39309,13.08908 1.57196,5.04333 1.82027,9.46154 0.53177,9.46154 -0.47372,0 -1.67202,-1.16665 -2.66288,-2.59255 -1.86799,-2.68815 -2.97688,-2.5152 -2.97688,0.46427 0,0.94953 -0.57187,2.61172 -1.27083,3.69374 -1.23522,1.91217 -1.29882,1.90816 -2.26853,-0.14287 z m -94.552683,-2.94916 c -0.284632,-0.83963 -0.227782,-2.05725 0.126332,-2.70583 0.39537,-0.72413 -0.0942,-0.65749 -1.268555,0.17268 -2.850085,2.01479 -3.310858,0.54115 -1.504698,-4.81231 1.778189,-5.27055 1.967283,-5.40572 4.511931,-3.22502 1.281378,1.0981 2.230198,1.214 3.523641,0.43043 1.49321,-0.9046 1.325784,-0.076 -1.070389,5.29715 -3.004993,6.73841 -3.490933,7.28339 -4.318262,4.8429 z m 19.759915,-34.34748 c -1.356872,-2.13675 -2.467038,-4.16562 -2.467038,-4.5086 0,-0.34297 1.169946,-2.75133 2.59988,-5.3519 1.610516,-2.92898 2.93584,-4.36108 3.482723,-3.76332 0.485563,0.53074 2.28051,1.2064 3.98877,1.50147 1.708262,0.29506 3.228231,0.689 3.377711,0.87539 0.14948,0.1864 0.561816,2.77811 0.916302,5.75934 l 0.64452,5.42044 -3.325686,1.36127 c -1.829127,0.74871 -3.325686,1.63795 -3.325686,1.9761 0,0.33815 -0.770503,0.61482 -1.712229,0.61482 -0.941726,0 -2.822396,-1.74825 -4.179267,-3.88501 z m 15.155343,-20.63242 c -0.656444,-2.74647 -1.578512,-5.55864 -2.049039,-6.24927 -0.911444,-1.3378 -0.24018,-2.15479 6.173967,-7.51424 l 3.637151,-3.03908 4.224356,3.65003 c 2.40074,2.07436 4.37293,3.14551 4.56853,2.48128 0.18929,-0.64281 0.71042,-0.91252 1.15808,-0.59934 0.45508,0.31837 0.39133,1.82756 -0.14461,3.42322 -0.52719,1.56959 -0.87989,2.85381 -0.78376,2.85381 0.0961,0 -0.5014,1.83182 -1.3278,4.07069 -0.82642,2.23889 -1.50257,4.48601 -1.50257,4.9936 0,0.5076 -2.87118,0.9229 -6.380386,0.9229 h -6.380383 z m -30.123414,0.87946 c -1.001374,-1.70254 -2.061118,-2.9273 -2.354983,-2.72172 -0.293866,0.20558 -0.534302,-0.51744 -0.534302,-1.60671 0,-1.08928 1.268707,-3.69059 2.819348,-5.78071 l 2.819346,-3.80021 4.411449,2.14104 c 4.62962,2.24694 4.959496,3.05624 3.836492,9.41223 -0.573302,3.24478 -1.118832,3.6572 -6.390489,4.83113 -2.35494,0.52442 -3.067979,0.14134 -4.606861,-2.47505 z m -10.643798,-4.90937 c 0.04456,-1.22469 0.264632,-1.47379 0.561105,-0.63515 0.268282,0.75889 0.235288,1.66562 -0.07332,2.01496 -0.308609,0.34933 -0.528112,-0.27159 -0.487786,-1.37981 z m 78.868397,-6.76342 c 0,-1.82869 8.67713,-10.58171 9.9443,-10.03128 1.46902,0.6381 1.5331,3.39851 0.18083,7.78952 -0.95661,3.10625 -1.30076,3.31073 -5.57236,3.31073 -2.50402,0 -4.55277,-0.48104 -4.55277,-1.06897 z m -16.71707,-2.05584 c 0,-1.42506 1.65044,-2.30999 2.25231,-1.20764 0.28775,0.52705 -0.10129,1.22954 -0.86455,1.56108 -0.76327,0.33155 -1.38776,0.1725 -1.38776,-0.35344 z m -85.856801,-4.48156 c -0.676392,-0.42518 -1.971386,-3.87418 -2.877762,-7.66448 -2.400819,-10.03976 -0.986677,-10.91781 5.591371,-3.4717 5.502962,6.22914 5.888227,7.22147 3.745405,9.64706 -1.042267,1.17982 -1.099698,1.68002 -0.232181,2.02223 0.633938,0.25008 -0.231055,0.40636 -1.922208,0.3473 -1.691151,-0.0591 -3.628233,-0.45524 -4.304625,-0.88041 z M 146.85904,104.68248 c -3.04749,-1.58653 -2.84463,-6.347376 0.34046,-7.990108 2.06312,-1.064069 2.61966,-0.970483 3.68537,0.619716 2.7993,4.176972 -0.0699,9.429852 -4.02583,7.370392 z M 109.54522,91.684384 c -3.52768,-5.076536 -2.75666,-5.810138 5.27277,-5.016878 3.9587,0.391096 7.37441,0.886901 7.59049,1.101788 0.21607,0.214888 -1.00851,1.806937 -2.72127,3.537889 -3.95425,3.996218 -7.5346,4.129379 -10.14199,0.377201 z m -9.35466,-18.25568 c 0,-2.102566 0.46436,-3.15385 1.39308,-3.15385 0.92873,0 1.39309,1.051284 1.39309,3.15385 0,2.102566 -0.46436,3.153849 -1.39309,3.153849 -0.92872,0 -1.39308,-1.051283 -1.39308,-3.153849 z m 15.31884,2.093158 c -0.72595,-1.329609 0.31797,-5.247008 1.39822,-5.247008 1.08026,0 2.12418,3.917399 1.39823,5.247008 -0.31852,0.58338 -0.94772,1.060691 -1.39823,1.060691 -0.4505,0 -1.07971,-0.477311 -1.39822,-1.060691 z m 16.7222,-9.535774 c -4.59719,-1.066951 -10.76161,-1.957691 -13.69871,-1.979422 -3.11739,-0.02306 -5.34017,-0.502919 -5.34017,-1.152837 0,-0.61233 -0.40088,-0.832878 -0.89083,-0.490107 -0.48996,0.34277 -3.51993,1.013539 -6.73327,1.490595 -3.21333,0.477057 -6.569723,1.219524 -7.458634,1.649928 -1.406129,0.680837 -1.568943,0.25603 -1.252629,-3.268297 0.47718,-5.316721 2.456639,-14.249377 3.491413,-15.755654 0.56239,-0.818647 -0.19418,-1.407097 -2.415614,-1.878836 -1.904519,-0.404439 -4.051866,-1.859525 -5.222392,-3.538802 l -1.987922,-2.851938 7.752217,-0.542466 c 12.173951,-0.851882 17.367771,-5.991664 13.247551,-13.109728 -2.11034,-3.645821 -0.9546,-7.065211 2.24638,-6.646127 1.99608,0.261334 2.52348,0.933472 2.72894,3.477791 0.62815,7.779375 0.83306,8.065286 5.24384,7.316566 3.0445,-0.516799 5.10148,-0.156819 8.3239,1.456712 4.16583,2.08592 4.305,2.090477 5.21265,0.170713 0.51291,-1.084834 0.93255,-2.696497 0.93255,-3.581475 0,-2.459681 3.51173,-4.23391 5.21431,-2.634426 1.99031,1.869786 1.23023,6.530925 -1.26722,7.771209 -2.29046,1.137483 -2.69843,4.285292 -0.8992,6.937974 1.91515,2.823576 5.39587,4.358441 10.06472,4.438169 3.90478,0.06668 4.32509,0.282648 3.33921,1.715817 -1.8456,2.682935 -2.82031,3.183384 -6.23583,3.201638 l -3.25054,0.01738 0.0995,8.671811 c 0.0547,4.769496 -0.0945,9.263157 -0.33154,9.985914 -0.51382,1.566511 -0.34844,1.579727 -10.91266,-0.872096 z m -26.46869,-7.672265 c 0,-0.218306 -0.63645,-0.994835 -1.41435,-1.725623 -1.18259,-1.110979 -1.31849,-1.045939 -0.82936,0.396917 0.49955,1.473623 2.24371,2.506494 2.24371,1.328706 z m 26.00433,-8.601034 c 0,-1.41139 -0.41793,-2.566164 -0.92873,-2.566164 -0.51079,0 -0.92872,1.447152 -0.92872,3.215893 0,1.876226 0.38689,2.945231 0.92872,2.566164 0.5108,-0.357351 0.92873,-1.804502 0.92873,-3.215893 z m -22.28942,-0.592322 c 0,-2.690817 -0.23386,-3.062883 -1.29722,-2.063913 -0.71347,0.670264 -1.08264,2.147422 -0.8204,3.282574 0.74311,3.216688 2.11762,2.425681 2.11762,-1.218661 z m -5.88601,-1.18538 c -0.25764,-0.722757 -0.46844,-0.13141 -0.46844,1.314104 0,1.445515 0.2108,2.036861 0.46844,1.314104 0.25764,-0.722757 0.25764,-1.90545 0,-2.628208 z"
         id="path1035"
         inkscape:connector-curvature="0" />
      <path
         style="fill:#fcc32b;stroke-width:0.98810631"
         d="m 76.480701,212.4609 c -0.737061,-2.66719 -1.429409,-2.9241 -3.021977,-1.12137 -1.822924,2.06349 -2.152599,0.4065 -1.063179,-5.34364 0.744784,-3.93109 1.334687,-5.17628 2.108896,-4.45157 0.59118,0.55339 2.142864,1.1663 3.448185,1.362 l 2.373312,0.35585 -1.595789,5.78206 c -1.347802,4.88353 -1.697368,5.41448 -2.249448,3.41667 z m 73.008899,-1.76666 c -0.59773,-1.69443 -1.34322,-5.24251 -1.65664,-7.88462 -0.75108,-6.33139 -3.40727,-13.23362 -6.75224,-17.54608 -2.27173,-2.92879 -2.78751,-3.19817 -3.21765,-1.68054 -0.46019,1.62369 -2.62311,1.84274 -21.28304,2.15544 l -20.770796,0.34808 -0.61542,-3.48315 c -0.549982,-3.11281 -0.24301,-3.84422 2.887205,-6.87913 1.926451,-1.86778 3.860411,-3.41373 4.297711,-3.43544 0.43729,-0.0218 2.45288,1.44679 4.47908,3.26336 2.96837,2.66123 3.57724,3.78445 3.13432,5.78206 -0.44159,1.99162 -0.18091,2.47922 1.32545,2.47922 1.03133,0 1.87514,-0.47308 1.87514,-1.05129 0,-0.5782 0.83585,-1.05128 1.85745,-1.05128 1.0216,0 1.85745,-0.47308 1.85745,-1.05128 0,-0.57821 0.64001,-1.05129 1.42224,-1.05129 0.78223,0 1.6628,-0.70961 1.95681,-1.57692 0.29403,-0.86731 1.02369,-1.57693 1.62149,-1.57693 0.59781,0 2.28196,-1.5375 3.74256,-3.41667 l 2.65562,-3.41667 -4.59947,-0.31104 c -4.37709,-0.296 -4.65899,-0.49931 -5.8306,-4.20513 -0.67714,-2.14175 -1.40501,-4.42421 -1.6175,-5.07213 -0.21249,-0.64792 1.29231,-2.68301 3.34402,-4.52242 l 3.73036,-3.34438 3.98486,2.53886 c 2.19167,1.39636 3.93162,3.19491 3.86655,3.99677 -0.0651,0.80186 -0.43013,3.35023 -0.81124,5.66306 l -0.69294,4.20513 2.90089,-4.45885 c 1.59548,-2.45237 2.90087,-4.95087 2.90087,-5.55224 0,-0.60135 0.63674,-1.36995 1.41497,-1.70799 1.0233,-0.44451 1.26886,-1.52657 0.88716,-3.90932 -0.45886,-2.86444 -0.15851,-3.52857 2.29994,-5.08555 1.55526,-0.98497 2.87998,-2.52247 2.94383,-3.41667 0.17393,-2.43573 0.76928,-4.40935 3.23388,-10.72061 1.77524,-4.54592 1.64812,-5.29453 -1.02815,-6.05487 -1.80498,-0.51281 -2.32182,-1.33434 -2.32182,-3.69063 0,-2.41212 0.56018,-3.25201 2.74364,-4.11362 2.42961,-0.95873 2.82065,-0.8201 3.41653,1.21126 0.62717,2.13803 0.72004,2.0796 1.36676,-0.85994 0.69573,-3.16234 3.34215,-14.98158 4.23702,-18.92309 0.26255,-1.15641 0.83215,-4.348406 1.26579,-7.093319 0.43363,-2.744912 1.03437,-5.441205 1.33496,-5.99176 0.30059,-0.550556 -0.92782,-1.314102 -2.72981,-1.696768 -3.00441,-0.63801 -3.27635,-0.999613 -3.27635,-4.356672 0,-2.776779 0.44858,-3.793701 1.85745,-4.210746 1.0216,-0.302408 1.85745,-0.986582 1.85745,-1.520385 0,-1.523341 -3.758,-9.48829 -6.16627,-13.069183 -2.38599,-3.547752 -2.1008,-4.638137 1.21307,-4.638137 1.69234,0 2.16702,0.575702 2.16702,2.628208 0,1.817686 0.5091,2.628208 1.6508,2.628208 3.13394,0 5.77901,3.06445 5.77901,6.695249 0,2.583398 0.68289,3.993689 2.78618,5.753918 1.94016,1.62372 2.78618,3.224193 2.78618,5.270865 0,1.775791 0.91899,3.916407 2.32181,5.408197 2.46188,2.618018 2.90117,5.220557 1.4126,8.368988 -0.6605,1.397017 -0.53346,2.276045 0.46437,3.213461 1.52185,1.429696 1.86983,6.869386 0.50071,7.827206 -0.51598,0.36098 -0.31068,2.1337 0.50215,4.33578 1.1886,3.2201 1.19808,4.12661 0.0699,6.68643 -0.82411,1.86995 -1.1437,4.86233 -0.8672,8.11963 0.32542,3.83374 0.068,5.50583 -1.0025,6.51148 -1.15487,1.08495 -1.23511,1.86304 -0.40484,3.92576 0.86297,2.14393 0.69954,3.08699 -0.98077,5.65965 -1.32338,2.02617 -2.02117,4.63711 -2.0305,7.59758 -0.0184,5.82624 -1.02428,7.48915 -4.53025,7.48915 -2.61153,0 -2.83243,0.27166 -2.6357,3.24146 0.1931,2.91506 -0.0738,3.27332 -2.65054,3.55795 l -2.86526,0.31651 2.20835,8.6194 c 1.43902,5.61665 2.16449,10.99994 2.08244,15.45275 -0.0695,3.7688 0.62863,9.99121 1.55657,13.87479 1.91255,8.00433 1.17581,10.13685 -1.96507,5.68796 l -2.1461,-3.03984 -1.83261,4.61676 -1.83262,4.61677 -1.08677,-3.08077 z m -22.35177,-4.47899 c 0.0183,-7.86729 0.68337,-8.96262 5.18831,-8.54506 3.30571,0.30641 3.64503,0.62301 3.90418,3.64272 0.15609,1.81893 -0.1052,4.89393 -0.58064,6.83334 l -0.86444,3.52619 -1.40082,-3.60128 -1.40081,-3.60127 -1.49467,3.27179 c -2.50254,5.478 -3.3665,5.08447 -3.35111,-1.52643 z m -71.633072,2.56616 c -0.05883,-0.72276 -0.04708,-2.26026 0.0261,-3.41667 0.122235,-1.93179 0.05174,-1.95313 -0.867928,-0.26282 -0.550534,1.01186 -1.607094,1.83974 -2.347911,1.83974 -1.676633,0 -1.674314,-0.0826 0.14699,-5.23513 1.435645,-4.06152 3.334292,-5.38855 4.542789,-3.17513 0.315692,0.57821 1.392213,1.05128 2.392271,1.05128 1.733922,0 1.709108,0.24389 -0.534819,5.25642 -2.403807,5.36967 -3.168272,6.2673 -3.357488,3.94231 z m 19.686426,-35.0175 -2.902364,-3.74183 1.635706,-3.35433 c 2.909898,-5.96732 2.726152,-5.85719 7.487268,-4.48749 l 4.383507,1.26106 0.276603,5.32102 0.276603,5.32101 -3.778119,1.71119 c -2.077966,0.94116 -3.935332,1.7112 -4.12748,1.7112 -0.192148,0 -1.655425,-1.68382 -3.251724,-3.74183 z m 14.850113,-21.00276 c -1.058299,-3.20182 -1.92418,-6.19663 -1.92418,-6.65513 0,-0.45849 1.985151,-2.42697 4.411448,-4.37439 2.426297,-1.94742 4.674306,-3.97345 4.995571,-4.50231 0.327775,-0.53956 0.735347,-0.55542 0.928726,-0.0362 0.189535,0.50898 2.293788,2.71497 4.676118,4.90222 l 4.33151,3.97681 -2.0097,6.25426 -2.00969,6.25427 -5.737813,9.4e-4 -5.73781,9.4e-4 -1.92418,-5.82149 z m -30.579971,0.84548 c -2.129371,-3.8091 -2.14467,-4.00155 -0.579651,-7.2911 2.032583,-4.27234 3.465129,-4.87343 7.971953,-3.34496 3.603605,1.22214 3.617694,1.24827 3.617694,6.71116 0,5.1288 -0.165527,5.52519 -2.553997,6.11599 -1.404698,0.34746 -3.38985,0.87688 -4.411449,1.17651 -1.396257,0.40951 -2.400496,-0.42665 -4.04455,-3.3676 z m -10.277383,-4.0475 c 0.04456,-1.22469 0.264632,-1.47379 0.561105,-0.63515 0.268282,0.75889 0.235288,1.66562 -0.07332,2.01496 -0.308609,0.34933 -0.528112,-0.27159 -0.487786,-1.37981 z m 78.868397,-6.60741 c 0,-1.15297 8.34202,-10.65116 9.35465,-10.65116 1.56709,0 1.78052,2.11274 0.68278,6.75872 l -1.13542,4.8054 h -4.451 c -2.44806,0 -4.45101,-0.41084 -4.45101,-0.91296 z M 23.764031,132.54107 c -0.792701,-2.24259 -1.729417,-5.81606 -2.081591,-7.94103 -0.935482,-5.64458 1.619381,-5.12568 7.23523,1.46952 4.248272,4.98914 4.455098,5.48075 3.206592,7.62181 -0.770973,1.32214 -2.513765,2.4235 -4.126772,2.60791 -2.474995,0.28297 -2.95591,-0.14396 -4.233459,-3.75821 z M 146.39468,103.83171 c -2.39382,-1.57827 -2.09482,-5.835829 0.46436,-6.612168 3.08281,-0.935185 3.32603,-0.855797 4.41145,1.439958 0.70628,1.49386 0.70628,2.71127 0,4.20513 -1.09789,2.32213 -2.42217,2.58479 -4.87581,0.96708 z M 111.80621,92.363842 c -0.32537,-0.59593 0.0475,-0.772175 0.87391,-0.413166 1.60894,0.698884 1.90332,1.452408 0.56741,1.452408 -0.48065,0 -1.12925,-0.467659 -1.44132,-1.039242 z m 1.45863,-2.009683 c -2.25894,-0.346811 -4.27891,-1.221913 -4.48884,-1.94467 -0.28125,-0.968268 1.34957,-1.314104 6.19678,-1.314104 3.61816,0 6.57847,0.378462 6.57847,0.841026 0,1.279661 -2.10338,3.384435 -3.2041,3.20621 -0.53634,-0.08685 -2.82338,-0.44165 -5.08231,-0.788462 z M 100.57063,74.084798 c -0.786829,-2.321031 0.25996,-3.505961 1.6786,-1.900112 0.83762,0.948158 0.84119,1.535848 0.015,2.471093 -0.82622,0.935247 -1.22899,0.799453 -1.69357,-0.570981 z m 15.40827,-0.656094 c 0,-1.156412 0.41792,-2.102566 0.92872,-2.102566 0.5108,0 0.92873,0.946154 0.92873,2.102566 0,1.156411 -0.41793,2.102566 -0.92873,2.102566 -0.5108,0 -0.92872,-0.946155 -0.92872,-2.102566 z M 104.98326,56.033066 c -1.38953,-3.452131 -1.3742,-7.079131 0.0367,-8.676184 1.75254,-1.983817 2.50038,-1.493654 2.31091,1.514674 -0.20049,3.18357 1.77151,4.606244 2.42561,1.749916 0.2453,-1.071207 0.48155,-0.442365 0.54236,1.443656 0.0988,3.064885 -1.80022,6.645612 -3.52445,6.645612 -0.39232,0 -1.19833,-1.204954 -1.79112,-2.677674 z m 21.95432,0.0071 c -0.71722,-1.781856 -0.78787,-3.589957 -0.21227,-5.433332 1.00515,-3.219077 3.70056,-4.875814 2.83878,-1.744854 -0.29734,1.080269 -0.1537,2.662355 0.31921,3.515744 0.7011,1.265168 1.02922,1.071086 1.77738,-1.051283 0.86858,-2.463995 0.92069,-2.403738 0.97641,1.129154 0.0971,6.158508 -3.70177,8.547742 -5.69951,3.584571 z m 17.36746,-8.89359 c -1.26754,-0.61656 -1.41501,-0.938801 -0.46436,-1.014646 0.92325,-0.07365 0.6785,-0.560208 -0.72567,-1.442628 -3.2207,-2.023969 -1.69942,-2.55755 3.97336,-1.393634 5.59005,1.146942 6.3995,2.297065 2.72857,3.876928 -2.75503,1.185685 -3.02344,1.184417 -5.5119,-0.02602 z m -23.68251,-3.023367 c 0,-0.57469 -0.41885,-2.291902 -0.93076,-3.816027 l -0.93076,-2.771138 -2.44503,2.177058 c -3.50945,3.124824 -6.50498,2.867779 -7.09206,-0.608567 -0.34334,-2.033104 0.1292,-3.414661 1.74919,-5.114145 2.57217,-2.698387 2.82633,-5.844011 0.76052,-9.412893 -1.90539,-3.291723 -0.35032,-7.156618 2.68283,-6.667825 1.63818,0.263991 2.0453,1.061961 2.12328,4.161712 0.16708,6.64259 0.60631,7.095625 6.78306,6.996488 3.81164,-0.06117 6.35303,0.480379 8.00535,1.705888 2.92799,2.171664 4.58752,1.040891 5.42448,-3.696135 0.48685,-2.75548 0.92276,-3.154782 3.13029,-2.867452 2.01726,0.262564 2.62739,0.950773 2.8585,3.224334 0.23065,2.269019 -0.20183,3.103831 -2.01138,3.882613 -2.81874,1.213103 -3.47168,3.991672 -1.6894,7.189178 1.70845,3.065062 1.18044,3.581122 -4.27066,4.174023 -3.34447,0.36377 -4.77702,0.06436 -5.69724,-1.190765 -1.12045,-1.528204 -1.44632,-1.506869 -3.67886,0.240847 -3.93818,3.082934 -4.77135,3.500766 -4.77135,2.392806 z m -26.907051,-3.09805 -2.743265,-2.967566 7.58357,0.07173 c 4.170966,0.03944 6.904006,0.219866 6.073436,0.400928 -0.83057,0.181062 -2.17869,1.484191 -2.99581,2.895842 -1.954304,3.376238 -4.547651,3.244922 -7.917931,-0.400928 z"
         id="path1033"
         inkscape:connector-curvature="0" />
      <path
         style="fill:#f6b228;stroke-width:0.98810631"
         d="m 76.480701,212.4609 c -0.737061,-2.66719 -1.429409,-2.9241 -3.021977,-1.12137 -1.822924,2.06349 -2.152599,0.4065 -1.063179,-5.34364 0.744784,-3.93109 1.334687,-5.17628 2.108896,-4.45157 0.59118,0.55339 2.142864,1.1663 3.448185,1.362 l 2.373312,0.35585 -1.595789,5.78206 c -1.347802,4.88353 -1.697368,5.41448 -2.249448,3.41667 z m 73.051899,-1.63864 c -0.57408,-1.62402 -1.30392,-4.7943 -1.62188,-7.04506 -0.67681,-4.79107 0.59719,-6.71052 4.67574,-7.04467 1.48997,-0.12208 2.99439,-0.74459 3.34316,-1.38338 0.63146,-1.15654 3.6994,9.6042 3.6994,12.97558 0,2.59852 -1.45065,2.16219 -3.52424,-1.06005 l -1.82172,-2.83082 -1.85335,4.67057 -1.85334,4.67058 z m -22.39477,-4.60701 c 0.0183,-7.86729 0.68337,-8.96262 5.18831,-8.54506 3.30571,0.30641 3.64503,0.62301 3.90418,3.64272 0.15609,1.81893 -0.1052,4.89393 -0.58064,6.83334 l -0.86444,3.52619 -1.40082,-3.60128 -1.40081,-3.60127 -1.49467,3.27179 c -2.50254,5.478 -3.3665,5.08447 -3.35111,-1.52643 z m -71.633072,2.56616 c -0.05883,-0.72276 -0.04708,-2.26026 0.0261,-3.41667 0.122235,-1.93179 0.05174,-1.95313 -0.867928,-0.26282 -0.550534,1.01186 -1.607094,1.83974 -2.347911,1.83974 -1.676633,0 -1.674314,-0.0826 0.14699,-5.23513 1.435645,-4.06152 3.334292,-5.38855 4.542789,-3.17513 0.315692,0.57821 1.392213,1.05128 2.392271,1.05128 1.733922,0 1.709108,0.24389 -0.534819,5.25642 -2.403807,5.36967 -3.168272,6.2673 -3.357488,3.94231 z M 148.0219,193.53708 c 0.38924,-1.56637 -0.0825,-3.43185 -1.3955,-5.51924 -2.15766,-3.43002 -4.29255,-4.28114 -3.29442,-1.31338 0.48471,1.44121 0.37392,1.56473 -0.51139,0.5702 -0.8876,-0.99709 -0.87634,-1.6157 0.0525,-2.8825 1.03187,-1.40741 1.52395,-1.12672 3.86129,2.20256 2.90743,4.14133 3.16374,5.32443 1.67492,7.73155 -0.76345,1.23434 -0.8476,1.0629 -0.38736,-0.78919 z m 4.17731,-1.2339 c 0,-0.4982 0.62689,-1.17811 1.39309,-1.51094 0.7662,-0.33281 1.39309,-0.1975 1.39309,0.3007 0,0.49819 -0.62689,1.17811 -1.39309,1.51094 -0.7662,0.33281 -1.39309,0.1975 -1.39309,-0.3007 z m -7.4298,-1.71845 c 0,-0.90143 0.42474,-1.34182 0.94387,-0.97864 0.51913,0.36318 0.70343,1.10071 0.40955,1.63897 -0.79613,1.45817 -1.35342,1.18628 -1.35342,-0.66033 z m 9.86218,-2.06555 c -0.82701,-0.93615 -1.50365,-1.21006 -1.50365,-0.60869 0,0.60135 -0.65091,0.81063 -1.44646,0.46506 -0.79556,-0.34557 -1.25519,-1.19255 -1.0214,-1.88219 0.23379,-0.68965 -0.36908,-1.8153 -1.33971,-2.50146 -2.25518,-1.59424 -2.23567,-3.8361 0.0652,-7.49383 1.00652,-1.60003 1.52893,-3.27465 1.16091,-3.72135 -0.36801,-0.44671 0.20981,-0.29561 1.28403,0.33578 1.76697,1.03855 1.91131,0.90035 1.51437,-1.45007 -0.24131,-1.42891 -0.80676,-2.85549 -1.25657,-3.17017 -1.00151,-0.70067 -1.09065,-3.60192 -0.11065,-3.60192 0.92455,0 4.86519,15.59016 4.86519,19.24793 0,1.55596 -0.5224,2.83626 -1.1609,2.84511 -0.78619,0.0109 -0.71992,0.3318 0.20528,0.99412 0.75141,0.53791 1.1146,1.26282 0.80711,1.6109 -0.3075,0.34807 -1.23573,-0.13307 -2.06274,-1.06922 z m -59.45284,-6.00107 c -0.531714,-3.00943 -0.199918,-3.78614 2.902269,-6.79387 1.926451,-1.86778 3.860411,-3.41373 4.297711,-3.43544 0.43729,-0.0218 2.44415,1.43897 4.4597,3.24597 3.23997,2.90474 3.59322,3.65343 3.04848,6.46097 -0.54501,2.80887 -0.40162,3.11199 1.24202,2.62545 1.02199,-0.30253 2.42685,-0.1422 3.12189,0.35629 0.7543,0.54098 -2.71404,0.91282 -8.604,0.92243 l -9.867714,0.0161 z m 40.30339,3.00097 c 0,-0.2183 0.63646,-0.99483 1.41435,-1.72562 1.1826,-1.11097 1.3185,-1.04594 0.82936,0.39692 -0.49955,1.47362 -2.24371,2.50649 -2.24371,1.3287 z m 4.17927,-2.75693 c -0.31569,-0.5782 -0.13139,-1.05128 0.40955,-1.05128 0.54095,0 0.98354,0.47308 0.98354,1.05128 0,0.57821 -0.1843,1.05129 -0.40955,1.05129 -0.22525,0 -0.66785,-0.47308 -0.98354,-1.05129 z m -11.89949,-7.65977 c 0.63075,-3.68409 3.96556,-9.37627 4.06419,-6.93715 0.0324,0.80073 0.43684,0.39146 0.8988,-0.9095 0.46196,-1.30097 1.31604,-2.36539 1.89794,-2.36539 0.58191,0 0.85671,-0.59384 0.61067,-1.31964 -0.24605,-0.7258 0.12716,-1.92714 0.82936,-2.66966 0.82274,-0.86997 1.27672,-0.9394 1.27672,-0.19524 0,0.63512 0.42474,0.85763 0.94387,0.49445 0.51913,-0.36318 0.69817,-1.11035 0.39787,-1.66039 -0.30032,-0.55003 -0.72024,-3.01386 -0.93317,-5.47517 -0.37728,-4.36106 -0.28235,-4.53992 3.72407,-7.01734 2.26117,-1.39822 3.90339,-2.92285 3.64938,-3.38808 -0.25401,-0.46523 0.009,-0.84588 0.58428,-0.84588 0.62349,0 0.80795,0.84945 0.45659,2.10257 -0.54948,1.95974 0.28577,2.66061 2.62303,2.20101 0.42107,-0.0827 0.51676,0.30518 0.21265,0.86218 -0.30411,0.557 0.12298,1.44088 0.94908,1.9642 1.36,0.86153 1.31574,1.41427 -0.46805,5.84667 -1.63903,4.07267 -2.39528,4.89789 -4.50082,4.91128 -1.9752,0.0126 -2.22496,0.23983 -1.1377,1.03519 1.13256,0.8285 1.01254,1.0221 -0.64173,1.03519 -1.11915,0.008 -2.29734,0.49689 -2.61817,1.08452 -0.32084,0.58764 -0.93343,0.82352 -1.36129,0.52419 -0.42787,-0.29933 -0.56084,0.39551 -0.29551,1.54407 0.26535,1.14857 0.20044,2.92017 -0.14423,3.9369 -0.56097,1.65476 -0.81667,1.57374 -2.43872,-0.77275 -1.31734,-1.90569 -1.63885,-2.07199 -1.17764,-0.60915 0.389,1.23383 0.27476,1.76061 -0.29533,1.36178 -0.51135,-0.35774 -1.48116,0.94041 -2.15513,2.88477 -0.67396,1.94436 -2.19381,4.03468 -3.37743,4.64514 -2.05533,1.06004 -2.12604,0.9581 -1.57358,-2.26877 z m 3.07659,-2.85306 c 0,-0.57821 -0.18429,-1.05128 -0.40955,-1.05128 -0.22525,0 -0.66784,0.47307 -0.98353,1.05128 -0.3157,0.57821 -0.1314,1.05128 0.40955,1.05128 0.54094,0 0.98353,-0.47307 0.98353,-1.05128 z m -55.647326,1.51459 -2.902364,-3.74183 1.635706,-3.35433 c 2.909898,-5.96732 2.726152,-5.85719 7.487268,-4.48749 l 4.383507,1.26106 0.276603,5.32102 0.276603,5.32101 -3.778119,1.71119 c -2.077966,0.94116 -3.935332,1.7112 -4.12748,1.7112 -0.192148,0 -1.655425,-1.68382 -3.251724,-3.74183 z m 71.435676,2.10285 c 0,-0.90143 0.41792,-1.34658 0.92872,-0.98923 0.5108,0.35735 0.92873,1.09489 0.92873,1.63897 0,0.54408 -0.41793,0.98924 -0.92873,0.98924 -0.5108,0 -0.92872,-0.73754 -0.92872,-1.63898 z m -2.19331,-0.98923 c 0.29403,-0.86731 0.69883,-1.57693 0.89958,-1.57693 0.20075,0 0.365,0.70962 0.365,1.57693 0,0.86731 -0.40481,1.57692 -0.89958,1.57692 -0.49476,0 -0.65902,-0.70961 -0.365,-1.57692 z m -26.52729,-9.6787 c -0.69362,-2.19339 -1.435,-4.5181 -1.64749,-5.16602 -0.21249,-0.64792 1.27747,-2.6697 3.31102,-4.49284 l 3.69736,-3.3148 3.79032,2.23633 c 2.08467,1.22998 3.97376,2.57231 4.19795,2.98293 0.22419,0.41063 -0.11692,3.08182 -0.75804,5.93599 l -1.16566,5.18941 -5.08216,0.30849 -5.08217,0.30849 z m 34.01459,-5.10774 c 0.31857,-2.67587 0.14203,-3.63973 -0.5748,-3.13823 -0.56902,0.39808 -0.84639,1.06849 -0.61635,1.48979 0.23003,0.42131 0.0802,1.38529 -0.33313,2.14217 -0.52761,0.96635 -0.94053,1.02967 -1.38662,0.21262 -0.3494,-0.63994 -0.16801,-1.16352 0.40309,-1.16352 0.57109,0 0.79963,-0.43722 0.50787,-0.97159 -0.29176,-0.53438 0.50772,-3.18183 1.77662,-5.88323 1.94202,-4.13443 2.05402,-4.81204 0.70784,-4.28224 -1.43519,0.56482 -1.44809,0.49432 -0.12567,-0.6873 1.43765,-1.28458 3.63442,-5.25332 3.63442,-6.56603 0,-0.36123 -0.52241,-0.31101 -1.16091,0.11161 -0.6385,0.42261 -0.35924,-0.26599 0.62057,-1.53023 0.97981,-1.26424 1.83545,-3.12791 1.90141,-4.1415 0.0659,-1.01359 0.36719,-2.30765 0.66939,-2.87569 1.33152,-2.50289 2.74646,-13.80021 2.28469,-18.24154 -0.3883,-3.73454 -0.30391,-4.25617 0.36239,-2.24 0.59838,1.81067 0.73095,-0.403 0.42618,-7.11647 -0.47123,-10.380014 -2.06074,-19.469352 -3.25823,-18.631597 -0.3993,0.279343 -2.0227,0.214333 -3.60755,-0.144468 -2.55834,-0.579187 -2.88157,-1.0614 -2.88157,-4.298866 0,-2.762367 0.45036,-3.779814 1.85745,-4.196334 1.0216,-0.302408 1.85745,-0.986582 1.85745,-1.520385 0,-1.523341 -3.758,-9.48829 -6.16627,-13.069183 -2.38599,-3.547752 -2.1008,-4.638137 1.21307,-4.638137 1.69234,0 2.16702,0.575702 2.16702,2.628208 0,1.817686 0.5091,2.628208 1.6508,2.628208 3.13394,0 5.77901,3.06445 5.77901,6.695249 0,2.583398 0.68289,3.993689 2.78618,5.753918 1.94016,1.62372 2.78618,3.224193 2.78618,5.270865 0,1.775791 0.91899,3.916407 2.32181,5.408197 2.46188,2.618018 2.90117,5.220557 1.4126,8.368988 -0.6605,1.397017 -0.53346,2.276045 0.46437,3.213461 1.52185,1.429696 1.86983,6.869386 0.50071,7.827206 -0.51598,0.36098 -0.31068,2.1337 0.50215,4.33578 1.1886,3.2201 1.19808,4.12661 0.0699,6.68643 -0.82411,1.86995 -1.1437,4.86233 -0.8672,8.11963 0.32542,3.83374 0.068,5.50583 -1.0025,6.51148 -1.15487,1.08495 -1.23511,1.86304 -0.40484,3.92576 0.86297,2.14393 0.69954,3.08699 -0.98077,5.65965 -1.32338,2.02617 -2.02117,4.63711 -2.0305,7.59758 -0.0184,5.82624 -1.02428,7.48915 -4.53025,7.48915 -2.61153,0 -2.83243,0.27166 -2.6357,3.24146 0.20024,3.0227 -0.0138,3.26304 -3.17271,3.56131 l -3.38744,0.31985 0.45979,-3.86203 z m -61.879553,-7.32994 c -1.058299,-3.20182 -1.92418,-6.19663 -1.92418,-6.65513 0,-0.71583 5.718782,-5.72279 8.948024,-7.83427 0.579618,-0.37898 3.159629,1.20883 5.733349,3.52849 l 4.67951,4.21756 -2.01845,6.28148 -2.01845,6.28148 -5.737813,9.4e-4 -5.73781,9.4e-4 z m -30.579971,0.84548 c -2.129371,-3.8091 -2.14467,-4.00155 -0.579651,-7.2911 2.032583,-4.27234 3.465129,-4.87343 7.971953,-3.34496 3.603605,1.22214 3.617694,1.24827 3.617694,6.71116 0,5.1288 -0.165527,5.52519 -2.553997,6.11599 -1.404698,0.34746 -3.38985,0.87688 -4.411449,1.17651 -1.396257,0.40951 -2.400496,-0.42665 -4.04455,-3.3676 z m 92.737884,-8.98886 c 0,-0.93495 -0.73137,-2.1821 -1.62527,-2.77145 -1.48253,-0.97745 -1.48803,-1.07436 -0.0626,-1.10352 1.55917,-0.0319 3.27827,3.77457 2.23702,4.95324 -0.30203,0.3419 -0.54916,-0.14333 -0.54916,-1.07827 z m -24.14687,-1.66605 c 0,-1.15297 8.34202,-10.65116 9.35465,-10.65116 1.56709,0 1.78052,2.11274 0.68278,6.75872 l -1.13542,4.8054 h -4.451 c -2.44806,0 -4.45101,-0.41084 -4.45101,-0.91296 z m 18.08133,-2.29369 c -0.853,-1.56231 -0.1746,-2.11539 1.31578,-1.07274 0.79845,0.5586 0.89344,1.10038 0.26946,1.53691 -0.53003,0.37081 -1.2434,0.16193 -1.58524,-0.46417 z m 6.13082,-4.41516 c -0.0359,-1.59006 0.35265,-2.89103 0.86345,-2.89103 1.09005,0 1.09005,0.80804 0,3.67949 -0.70728,1.86314 -0.80561,1.77335 -0.86345,-0.78846 z m -128.500459,-3.7018 c -0.792701,-2.24259 -1.729417,-5.81606 -2.081591,-7.94103 -0.935482,-5.64458 1.619381,-5.12568 7.23523,1.46952 4.248272,4.98914 4.455098,5.48075 3.206592,7.62181 -0.770973,1.32214 -2.513765,2.4235 -4.126772,2.60791 -2.474995,0.28297 -2.95591,-0.14396 -4.233459,-3.75821 z M 147.9236,129.76723 c -0.27633,-0.81513 -1.51699,-1.7703 -2.75703,-2.12259 -1.73482,-0.49288 -2.25462,-1.33934 -2.25462,-3.67154 0,-2.40241 0.56101,-3.25234 2.70521,-4.09845 2.50328,-0.98781 2.79228,-0.82954 3.87173,2.12038 0.93056,2.54303 0.93307,3.61104 0.0125,5.27979 -0.64164,1.16302 -0.716,1.78541 -0.16747,1.40166 0.60312,-0.42194 0.77166,-0.056 0.43357,0.94127 -0.68583,2.02308 -1.19467,2.06433 -1.8438,0.14948 z m 6.13307,-13.69951 c 0,-0.90143 0.41792,-1.63897 0.92872,-1.63897 0.5108,0 0.92873,0.44515 0.92873,0.98923 0,0.54408 -0.41793,1.28162 -0.92873,1.63897 -0.5108,0.35736 -0.92872,-0.0878 -0.92872,-0.98923 z m 1.52159,-11.62616 c 0.29403,-0.86731 0.69883,-1.57693 0.89959,-1.57693 0.20074,0 0.36499,0.70962 0.36499,1.57693 0,0.86731 -0.40481,1.57692 -0.89958,1.57692 -0.49476,0 -0.65901,-0.70961 -0.365,-1.57692 z m -9.18358,-0.60985 c -2.39382,-1.57827 -2.09482,-5.835829 0.46436,-6.612168 3.08281,-0.935185 3.32603,-0.855797 4.41145,1.439958 0.70628,1.49386 0.70628,2.71127 0,4.20513 -1.09789,2.32213 -2.42217,2.58479 -4.87581,0.96708 z m 10.95219,-4.048286 c -0.29388,-0.538252 -0.10958,-1.275787 0.40955,-1.638968 0.51913,-0.363179 0.94388,0.07721 0.94388,0.978642 0,1.846602 -0.5573,2.118502 -1.35343,0.660326 z m -45.54066,-7.419582 c -0.32537,-0.59593 0.0475,-0.772175 0.87391,-0.413166 1.60894,0.698884 1.90332,1.452408 0.56741,1.452408 -0.48065,0 -1.12925,-0.467659 -1.44132,-1.039242 z m 1.45863,-2.009683 c -2.25894,-0.346811 -4.27891,-1.221913 -4.48884,-1.94467 -0.28125,-0.968268 1.34957,-1.314104 6.19678,-1.314104 3.61816,0 6.57847,0.378462 6.57847,0.841026 0,1.279661 -2.10338,3.384435 -3.2041,3.20621 -0.53634,-0.08685 -2.82338,-0.44165 -5.08231,-0.788462 z M 100.57063,74.084798 c -0.786829,-2.321031 0.25996,-3.505961 1.6786,-1.900112 0.83762,0.948158 0.84119,1.535848 0.015,2.471093 -0.82622,0.935247 -1.22899,0.799453 -1.69357,-0.570981 z m 15.40827,-0.656094 c 0,-1.156412 0.41792,-2.102566 0.92872,-2.102566 0.5108,0 0.92873,0.946154 0.92873,2.102566 0,1.156411 -0.41793,2.102566 -0.92873,2.102566 -0.5108,0 -0.92872,-0.946155 -0.92872,-2.102566 z M 104.98326,56.033066 c -1.38953,-3.452131 -1.3742,-7.079131 0.0367,-8.676184 1.75254,-1.983817 2.50038,-1.493654 2.31091,1.514674 -0.20049,3.18357 1.77151,4.606244 2.42561,1.749916 0.2453,-1.071207 0.48155,-0.442365 0.54236,1.443656 0.0988,3.064885 -1.80022,6.645612 -3.52445,6.645612 -0.39232,0 -1.19833,-1.204954 -1.79112,-2.677674 z m 21.95432,0.0071 c -0.71722,-1.781856 -0.78787,-3.589957 -0.21227,-5.433332 1.00515,-3.219077 3.70056,-4.875814 2.83878,-1.744854 -0.29734,1.080269 -0.1537,2.662355 0.31921,3.515744 0.7011,1.265168 1.02922,1.071086 1.77738,-1.051283 0.86858,-2.463995 0.92069,-2.403738 0.97641,1.129154 0.0971,6.158508 -3.70177,8.547742 -5.69951,3.584571 z m 17.36746,-8.89359 c -1.26754,-0.61656 -1.41501,-0.938801 -0.46436,-1.014646 0.92325,-0.07365 0.6785,-0.560208 -0.72567,-1.442628 -3.2207,-2.023969 -1.69942,-2.55755 3.97336,-1.393634 5.59005,1.146942 6.3995,2.297065 2.72857,3.876928 -2.75503,1.185685 -3.02344,1.184417 -5.5119,-0.02602 z m -23.68251,-3.023367 c 0,-0.57469 -0.41885,-2.291902 -0.93076,-3.816027 l -0.93076,-2.771138 -2.44503,2.177058 c -3.50945,3.124824 -6.50498,2.867779 -7.09206,-0.608567 -0.34334,-2.033104 0.1292,-3.414661 1.74919,-5.114145 2.57217,-2.698387 2.82633,-5.844011 0.76052,-9.412893 -1.90539,-3.291723 -0.35032,-7.156618 2.68283,-6.667825 1.63818,0.263991 2.0453,1.061961 2.12328,4.161712 0.16708,6.64259 0.60631,7.095625 6.78306,6.996488 3.81164,-0.06117 6.35303,0.480379 8.00535,1.705888 2.92799,2.171664 4.58752,1.040891 5.42448,-3.696135 0.48685,-2.75548 0.92276,-3.154782 3.13029,-2.867452 2.01726,0.262564 2.62739,0.950773 2.8585,3.224334 0.23065,2.269019 -0.20183,3.103831 -2.01138,3.882613 -2.81874,1.213103 -3.47168,3.991672 -1.6894,7.189178 1.70845,3.065062 1.18044,3.581122 -4.27066,4.174023 -3.34447,0.36377 -4.77702,0.06436 -5.69724,-1.190765 -1.12045,-1.528204 -1.44632,-1.506869 -3.67886,0.240847 -3.93818,3.082934 -4.77135,3.500766 -4.77135,2.392806 z m -26.907051,-3.09805 -2.743265,-2.967566 7.58357,0.07173 c 4.170966,0.03944 6.904006,0.219866 6.073436,0.400928 -0.83057,0.181062 -2.17869,1.484191 -2.99581,2.895842 -1.954304,3.376238 -4.547651,3.244922 -7.917931,-0.400928 z"
         id="path1031"
         inkscape:connector-curvature="0" />
      <path
         style="fill:#9c490d;stroke-width:0.98810631"
         d="m 76.480701,212.4609 c -0.737061,-2.66719 -1.429409,-2.9241 -3.021977,-1.12137 -1.822924,2.06349 -2.152599,0.4065 -1.063179,-5.34364 0.744784,-3.93109 1.334687,-5.17628 2.108896,-4.45157 0.59118,0.55339 2.142864,1.1663 3.448185,1.362 l 2.373312,0.35585 -1.595789,5.78206 c -1.347802,4.88353 -1.697368,5.41448 -2.249448,3.41667 z m 73.008899,-1.76666 c -0.59773,-1.69443 -1.32574,-5.0543 -1.61781,-7.46638 l -0.53104,-4.38562 4.33433,-1.23542 c 2.38387,-0.67948 4.70243,-0.97789 5.15235,-0.66313 1.1639,0.81425 3.24013,11.95591 2.40305,12.89548 -0.38318,0.43009 -1.66242,-0.58594 -2.84278,-2.25785 l -2.1461,-3.03984 -1.83262,4.61676 -1.83261,4.61677 z m -22.35177,-4.47899 c 0.0183,-7.86729 0.68337,-8.96262 5.18831,-8.54506 3.30571,0.30641 3.64503,0.62301 3.90418,3.64272 0.15609,1.81893 -0.1052,4.89393 -0.58064,6.83334 l -0.86444,3.52619 -1.40082,-3.60128 -1.40081,-3.60127 -1.49467,3.27179 c -2.50254,5.478 -3.3665,5.08447 -3.35111,-1.52643 z m -71.633072,2.56616 c -0.05883,-0.72276 -0.04708,-2.26026 0.0261,-3.41667 0.122235,-1.93179 0.05174,-1.95313 -0.867928,-0.26282 -0.550534,1.01186 -1.607094,1.83974 -2.347911,1.83974 -1.67866,0 -1.67621,-0.0773 0.168033,-5.29467 1.150749,-3.25553 1.876411,-4.11275 3.018359,-3.56557 0.826863,0.3962 2.427633,0.94773 3.557265,1.22563 l 2.053879,0.50527 -2.301705,5.1416 c -2.354994,5.26063 -3.117602,6.14351 -3.306088,3.82749 z M 150.2945,183.7383 c -1.98914,-3.16212 -1.9967,-3.3015 -0.36493,-6.73134 2.30897,-4.85329 5.18066,-3.68236 6.37576,2.59971 0.73373,3.85682 0.60924,4.70125 -0.87405,5.92898 -2.41796,2.00138 -2.8401,1.85367 -5.13678,-1.79735 z m -54.656718,-1.13302 c -0.560774,-1.82091 -1.019583,-3.39648 -1.019583,-3.50128 0,-0.10481 1.821148,-1.67099 4.046998,-3.48042 l 4.046993,-3.28986 3.92041,3.26356 c 3.04988,2.53888 3.80384,3.75505 3.39549,5.47703 -0.2887,1.21741 -0.53062,2.80483 -0.5376,3.52759 -0.009,0.92297 -1.92063,1.3141 -6.4229,1.3141 -6.354993,0 -6.41902,-0.0285 -7.429808,-3.31072 z m -20.168125,-8.84832 -2.600968,-3.86005 1.983314,-3.81739 c 1.769094,-3.40507 2.354813,-3.7907 5.422759,-3.57022 4.687959,0.33689 5.984902,1.86017 5.984902,7.02935 0,4.10279 -0.228485,4.49058 -3.482722,5.9109 -1.915498,0.83604 -3.758031,1.66572 -4.094519,1.84375 -0.336488,0.17804 -1.782232,-1.41332 -3.212766,-3.53634 z M 117.92864,164.356 c -1.07236,-2.74414 -1.94974,-5.08658 -1.94974,-5.2054 0,-0.11884 1.66648,-1.732 3.70327,-3.58483 l 3.70328,-3.36876 3.79459,2.40436 c 3.73346,2.36562 3.78587,2.47987 3.25325,7.09265 -0.67519,5.84761 -1.2255,6.46102 -6.38717,7.11959 l -4.16774,0.53175 z m 34.27057,-5.82411 c 0,-3.6182 1.06327,-8.65811 3.17456,-15.04739 5.50178,-16.64984 7.58305,-36.44996 5.15376,-49.030133 -1.9194,-9.939679 -1.91996,-9.94144 -2.71236,-8.490121 -0.56084,1.027206 -1.44847,1.12842 -3.41892,0.389851 -3.45653,-1.295592 -4.3902,-7.073013 -1.32123,-8.175605 1.05071,-0.377489 1.91037,-1.146387 1.91037,-1.708664 0,-1.567082 -3.7213,-9.485486 -6.16627,-13.120951 -2.38599,-3.547752 -2.1008,-4.638137 1.21307,-4.638137 1.69234,0 2.16702,0.575702 2.16702,2.628208 0,1.817686 0.5091,2.628208 1.6508,2.628208 3.13394,0 5.77901,3.06445 5.77901,6.695249 0,2.583398 0.68289,3.993689 2.78618,5.753918 1.94016,1.62372 2.78618,3.224193 2.78618,5.270865 0,1.775791 0.91899,3.916407 2.32181,5.408197 2.46188,2.618018 2.90117,5.220557 1.4126,8.368988 -0.6605,1.397017 -0.53346,2.276045 0.46437,3.213461 1.52185,1.429696 1.86983,6.869386 0.50071,7.827206 -0.51598,0.36098 -0.31068,2.1337 0.50215,4.33578 1.1886,3.2201 1.19808,4.12661 0.0699,6.68643 -0.82411,1.86995 -1.1437,4.86233 -0.8672,8.11963 0.32542,3.83374 0.068,5.50583 -1.0025,6.51148 -1.15487,1.08495 -1.23511,1.86304 -0.40484,3.92576 0.86297,2.14393 0.69954,3.08699 -0.98077,5.65965 -1.32338,2.02617 -2.02117,4.63711 -2.0305,7.59758 -0.0184,5.82624 -1.02428,7.48915 -4.53025,7.48915 -2.61153,0 -2.83243,0.27166 -2.6357,3.24146 0.19531,2.94839 -0.0581,3.27124 -2.80364,3.57088 l -3.01836,0.32943 v -5.44038 z m -9.73959,1.21567 c -3.46408,-0.59805 -3.74338,-0.91047 -4.33097,-4.84441 -0.52976,-3.54673 -0.31353,-4.49046 1.38105,-6.02751 3.67582,-3.33408 5.30421,-3.34323 8.21694,-0.0462 l 2.72688,3.08671 -1.54981,4.38449 c -0.85239,2.41147 -1.81788,4.31735 -2.14551,4.2353 -0.32764,-0.082 -2.262,-0.43685 -4.29858,-0.78847 z m -52.471088,-7.91795 c -1.022185,-3.42507 -1.665727,-6.44563 -1.430094,-6.71235 0.235633,-0.26673 2.417467,-2.00571 4.848519,-3.86441 l 4.420092,-3.37945 4.432301,3.74568 c 2.43776,2.06013 4.39989,4.23605 4.36031,4.83538 -0.0396,0.59934 -0.80246,3.4396 -1.69527,6.31169 l -1.62328,5.22199 -5.727027,0.0344 -5.727034,0.0344 -1.858517,-6.22739 z m -30.649174,0.99432 -1.996197,-3.65614 2.495042,-3.70284 c 2.862746,-4.24854 2.793775,-4.2285 7.269158,-2.11181 3.161311,1.49519 3.363961,1.87674 3.363961,6.33372 0,4.12365 -0.310949,4.87651 -2.382275,5.76795 -4.440894,1.91123 -6.62898,1.25332 -8.749689,-2.63088 z m 68.712982,-9.81461 c 0,-0.53381 1.95294,-3.18121 4.33987,-5.88313 3.63265,-4.11202 4.54318,-4.68244 5.58743,-3.5004 1.04424,1.18205 1.04147,2.08855 -0.017,5.56271 -1.2041,3.95208 -1.47127,4.16585 -5.58742,4.47095 -2.3776,0.17624 -4.32288,-0.11632 -4.32288,-0.65013 z M 23.764031,132.54107 c -0.792701,-2.24259 -1.729417,-5.81606 -2.081591,-7.94103 -0.935482,-5.64458 1.619381,-5.12568 7.23523,1.46952 4.248272,4.98914 4.455098,5.48075 3.206592,7.62181 -0.770973,1.32214 -2.513765,2.4235 -4.126772,2.60791 -2.474995,0.28297 -2.95591,-0.14396 -4.233459,-3.75821 z m 120.308829,-5.14189 c -0.6385,-0.29163 -1.16091,-1.85488 -1.16091,-3.47388 0,-2.16398 0.55347,-3.11152 2.08964,-3.57752 3.08281,-0.93519 3.32602,-0.8558 4.41145,1.43995 1.90847,4.0366 -1.33235,7.44205 -5.34018,5.61145 z m 2.40819,-23.51276 c -2.4679,-1.63068 -0.56132,-7.261227 2.4764,-7.313388 0.51563,-0.0088 1.45951,0.930056 2.09751,2.086468 0.92751,1.68117 0.92751,2.52396 0,4.20513 -1.28108,2.32203 -2.27132,2.54325 -4.57391,1.02179 z M 116.65632,90.152915 c -0.90441,-0.596018 -2.95262,-0.93644 -4.55157,-0.756495 -1.72069,0.193645 -3.07111,-0.209148 -3.30881,-0.986931 -0.29659,-0.970391 1.31901,-1.314104 6.17684,-1.314104 6.55634,0 7.57815,0.550465 5.464,2.943593 -1.33258,1.508437 -1.64989,1.518 -3.78046,0.113937 z m 10.28126,-34.112739 c -0.71722,-1.781856 -0.78787,-3.589957 -0.21227,-5.433332 1.00515,-3.219077 3.70056,-4.875814 2.83878,-1.744854 -0.29734,1.080269 -0.1537,2.662355 0.31921,3.515744 0.7011,1.265168 1.02922,1.071086 1.77738,-1.051283 l 0.91755,-2.602901 0.0589,2.960141 c 0.12856,6.464243 -3.67951,9.374975 -5.69951,4.356485 z m -22.07072,-0.414173 c -1.28995,-2.728362 -1.21608,-6.719303 0.15307,-8.269121 1.77803,-2.012665 2.68168,-1.468358 2.07851,1.251979 -0.63728,2.874232 1.22201,4.843304 2.46899,2.614761 1.12021,-2.001992 1.07868,0.329298 -0.0666,3.739188 -1.07299,3.194601 -3.28728,3.511502 -4.63394,0.663193 z m 15.20831,-15.312718 c -0.68214,-3.076552 -1.12052,-3.187172 -3.89937,-0.983943 -2.54497,2.017796 -5.45436,1.134987 -6.30939,-1.914489 -0.46484,-1.657881 -0.10407,-2.664391 1.34559,-3.753942 2.34641,-1.763554 2.56413,-5.554754 0.52163,-9.083365 -1.90539,-3.291723 -0.35032,-7.156618 2.68283,-6.667825 1.63818,0.263991 2.0453,1.061961 2.12328,4.161712 0.16708,6.64259 0.60631,7.095625 6.78306,6.996488 3.81164,-0.06117 6.35303,0.480379 8.00535,1.705888 2.92799,2.171664 4.58752,1.040891 5.42448,-3.696135 0.48685,-2.75548 0.92276,-3.154782 3.13029,-2.867452 2.01726,0.262564 2.62739,0.950773 2.8585,3.224334 0.2292,2.254814 -0.20244,3.104099 -1.96269,3.861655 -2.32646,1.001244 -3.91364,4.881534 -2.42322,5.924221 3.6874,2.579669 -3.93145,5.761153 -8.78957,3.670357 -2.00898,-0.864602 -3.0251,-0.760319 -4.57643,0.46967 -2.8501,2.259725 -4.24711,1.962043 -4.91434,-1.047174 z"
         id="path1029"
         inkscape:connector-curvature="0" />
      <path
         style="fill:#522108;stroke-width:0.98810631"
         d="m 76.023027,210.35833 -0.02066,-2.89102 -1.773283,2.6125 c -2.416588,3.56025 -3.122548,2.26619 -1.860003,-3.4095 l 1.052678,-4.73224 2.936225,1.16655 c 1.614925,0.6416 3.069675,1.24827 3.232778,1.34816 0.622848,0.38145 -2.022608,8.79658 -2.765369,8.79658 -0.429946,0 -0.791013,-1.30096 -0.802371,-2.89103 z m 73.575703,-0.26282 c -0.48499,-1.44551 -1.16512,-4.54026 -1.51142,-6.8772 l -0.62963,-4.24899 4.70371,-1.09069 4.70371,-1.0907 1.38196,5.26768 c 2.07479,7.90854 1.76471,9.1093 -1.35148,5.23359 -2.72004,-3.383 -3.76764,-3.48678 -3.76764,-0.37325 0,0.94953 -0.59567,2.64472 -1.32371,3.76709 -1.28608,1.98268 -1.34877,1.96598 -2.2055,-0.58753 z m -22.28162,-4.72955 c 0.23292,-3.17947 0.59812,-5.97574 0.81155,-6.21395 0.21342,-0.2382 1.95526,-0.76447 3.87076,-1.1695 l 3.48272,-0.73639 -0.0295,7.21316 c -0.0269,6.5715 -0.15083,7.03162 -1.39309,5.17248 -0.74995,-1.12237 -1.36355,-2.65987 -1.36355,-3.41667 0,-2.4039 -1.36079,-1.48658 -2.63732,1.77786 -1.97137,5.04136 -3.21596,3.84878 -2.74154,-2.62699 z m -71.689568,1.67559 c -0.01556,-3.5164 -0.04874,-3.54591 -1.878983,-1.67098 -2.608549,2.67223 -3.060416,1.54044 -1.301981,-3.26109 1.868852,-5.10302 1.929887,-5.17226 3.374865,-3.82862 0.650843,0.6052 2.111429,1.26396 3.245746,1.46391 2.060538,0.36323 2.059925,0.36828 -0.680708,5.61997 l -2.743102,5.25642 -0.01584,-3.57961 z m 97.170108,-45.51131 c -1.22516,-5.17788 -0.56979,-9.006 3.11432,-18.19121 1.85771,-4.63159 4.71762,-17.58053 5.57655,-25.24906 1.01256,-9.04016 -0.22673,-26.150563 -2.28298,-31.520227 -0.66425,-1.734617 -1.90081,-5.343837 -2.74791,-8.020489 -0.84711,-2.676651 -3.15339,-7.880503 -5.12507,-11.564115 -3.75805,-7.021032 -3.89983,-8.274399 -0.93599,-8.274399 1.28188,0 1.80264,0.726338 1.80264,2.51424 0,1.864806 0.65837,2.701284 2.54881,3.238366 3.74757,1.064702 4.881,2.520256 4.881,6.268171 0,2.522892 0.70523,3.943271 2.84843,5.736904 2.13395,1.78589 2.78384,3.088046 2.59094,5.191297 -0.17552,1.913695 0.54383,3.712616 2.25957,5.650702 2.72151,3.074202 3.07854,5.043292 1.5143,8.351797 -0.789,1.668805 -0.65036,2.561682 0.65041,4.188688 1.40805,1.761195 1.49083,2.554615 0.55829,5.351215 -0.79263,2.37701 -0.81553,3.66443 -0.0829,4.66362 0.61259,0.83555 0.75767,2.94163 0.36763,5.33699 -0.35436,2.17623 -0.60436,6.40058 -0.55555,9.38745 0.0593,3.62906 -0.39209,5.97495 -1.36067,7.07134 -1.10221,1.24766 -1.21627,2.13381 -0.47615,3.69924 1.03617,2.19159 0.0435,6.67936 -1.75588,7.9382 -0.54232,0.37939 -0.98603,2.58529 -0.98603,4.90201 0,5.92957 -1.34395,8.2791 -4.73572,8.2791 -2.6142,0 -2.79231,0.24136 -2.52132,3.41667 0.25648,3.00518 -9.3e-4,3.45514 -2.14102,3.73606 -1.87861,0.24666 -2.56312,-0.23218 -3.00567,-2.10256 z M 23.027579,129.09086 c -1.094296,-4.07816 -1.732586,-7.7058 -1.418422,-8.06142 1.030738,-1.16676 5.210143,2.11604 8.526538,6.69735 l 3.254934,4.49641 -1.891627,2.14124 c -1.040394,1.17769 -2.924413,2.14125 -4.18671,2.14125 -2.035966,0 -2.519713,-0.83713 -4.284713,-7.41483 z M 104.91941,54.738533 c -0.77822,-2.126755 -0.82194,-3.821575 -0.15015,-5.821681 1.12542,-3.35071 2.90672,-3.815003 2.15515,-0.561737 -0.34621,1.498641 0.0672,2.747485 1.22735,3.707771 1.3455,1.113689 1.52439,1.851774 0.77483,3.196892 -1.58143,2.837923 -2.83777,2.6745 -4.00718,-0.521245 z m 22.30185,0.560984 c -0.84285,-2.579093 0.45985,-8.152892 1.90546,-8.152892 0.49098,0 0.63209,0.477311 0.31357,1.060691 -0.31852,0.583379 -0.29022,2.09105 0.0629,3.350378 0.62007,2.211448 0.68559,2.222222 1.91741,0.315302 1.17385,-1.817186 1.2754,-1.82733 1.2754,-0.127415 0,5.249898 -4.05932,7.885023 -5.47471,3.553936 z m 8.41151,-20.885921 c -1.02301,-1.854295 -0.96314,-2.490374 0.39425,-4.188206 0.88025,-1.101024 1.31202,-2.001862 0.95948,-2.001862 -0.35254,0 -0.19364,-0.946155 0.3531,-2.102566 1.40733,-2.976651 4.47565,-2.700565 5.17773,0.465892 0.6587,2.970807 -0.0829,4.790524 -1.95234,4.790524 -0.71974,0 -1.85253,1.175076 -2.5173,2.611281 -1.20351,2.600097 -1.21386,2.601917 -2.41492,0.424937 z m -22.44005,-5.55308 c 0,-1.853678 -0.45331,-3.883454 -1.00735,-4.510614 -1.69701,-1.92094 -0.61963,-6.075915 1.67106,-6.444633 2.0985,-0.337779 2.95831,1.675699 2.83496,6.638768 -0.0287,1.156412 0.21727,2.812183 0.54671,3.679491 0.39796,1.047711 -0.18034,1.984742 -1.7232,2.792119 -2.21743,1.16038 -2.32218,1.063169 -2.32218,-2.155131 z"
         id="path1027"
         inkscape:connector-curvature="0" />
    </g>
  </g>
</svg>
