<?xml version="1.0" encoding="UTF-8" standalone="no"?>
<!-- Created with Inkscape (http://www.inkscape.org/) -->

<svg
   xmlns:dc="http://purl.org/dc/elements/1.1/"
   xmlns:cc="http://creativecommons.org/ns#"
   xmlns:rdf="http://www.w3.org/1999/02/22-rdf-syntax-ns#"
   xmlns:svg="http://www.w3.org/2000/svg"
   xmlns="http://www.w3.org/2000/svg"
   xmlns:sodipodi="http://sodipodi.sourceforge.net/DTD/sodipodi-0.dtd"
   xmlns:inkscape="http://www.inkscape.org/namespaces/inkscape"
   width="210mm"
   height="297mm"
   viewBox="0 0 210 297"
   version="1.1"
   id="svg8"
   inkscape:version="0.92.5 (0.92.5+69)"
   sodipodi:docname="gym.svg">
  <defs
     id="defs2" />
  <sodipodi:namedview
     id="base"
     pagecolor="#ffffff"
     bordercolor="#666666"
     borderopacity="1.0"
     inkscape:pageopacity="0.0"
     inkscape:pageshadow="2"
     inkscape:zoom="0.9983453"
     inkscape:cx="400"
     inkscape:cy="567.94815"
     inkscape:document-units="mm"
     inkscape:current-layer="layer1"
     showgrid="false"
     inkscape:window-width="1299"
     inkscape:window-height="713"
     inkscape:window-x="67"
     inkscape:window-y="27"
     inkscape:window-maximized="1" />
  <metadata
     id="metadata5">
    <rdf:RDF>
      <cc:Work
         rdf:about="">
        <dc:format>image/svg+xml</dc:format>
        <dc:type
           rdf:resource="http://purl.org/dc/dcmitype/StillImage" />
        <dc:title></dc:title>
      </cc:Work>
    </rdf:RDF>
  </metadata>
  <g
     inkscape:label="Layer 1"
     inkscape:groupmode="layer"
     id="layer1">
    <g
       id="layer1-6"
       inkscape:label="Layer 1"
       transform="matrix(1.5175414,0,0,1.1129892,-56.259289,-22.438644)">
      <g
         transform="matrix(1.4889512,0,0,1.4889512,-230.29175,-176.68216)"
         id="g1260">
        <path
           inkscape:connector-curvature="0"
           id="path1274"
           d="m 183.66081,308.33836 c -0.39669,-1.24984 -0.009,-3.07626 0.96909,-4.56954 1.38492,-2.11366 2.13966,-2.39191 5.02146,-1.85128 2.33988,0.43896 4.09979,0.14019 5.67554,-0.9635 1.25618,-0.87987 3.74301,-1.59976 5.52628,-1.59976 3.83919,0 5.5875,2.49015 5.12259,7.29621 l -0.30991,3.20379 -10.67212,0.28304 c -10.05972,0.2668 -10.71005,0.16357 -11.33293,-1.79896 z m 64.17172,1.34925 c -1.021,-1.021 -0.79246,-6.22977 0.36851,-8.39907 1.30288,-2.43444 8.08811,-2.69556 10.00566,-0.38506 0.86495,1.04221 2.60341,1.45129 5.31208,1.25 3.44519,-0.25601 4.23962,0.0751 5.50388,2.29398 2.86127,5.02173 1.33906,5.90682 -10.15875,5.90682 -5.70059,0 -10.66472,-0.3 -11.03138,-0.66667 z m -48.19374,-14.37713 c -0.35481,-0.5741 -0.16027,-1.628 0.4323,-2.34201 0.59258,-0.71402 0.8349,-1.54073 0.53848,-1.83715 -0.29642,-0.29641 0.60749,-5.06156 2.00868,-10.58921 1.40118,-5.52765 2.54761,-10.29336 2.54761,-10.59046 0,-0.2971 -1.4625,-0.91715 -3.25,-1.37788 -4.25785,-1.09748 -4.52005,-3.36413 -1.30456,-11.2775 1.40501,-3.45774 2.55456,-6.89317 2.55456,-7.63427 0,-1.89866 -4.20949,-8.35353 -12.1663,-18.65592 -3.75854,-4.86651 -6.8337,-9.6828 -6.8337,-10.70288 0,-1.02007 1.8,-3.30119 4,-5.06916 2.87939,-2.31394 4,-3.96839 4,-5.90555 0,-2.1553 1.1042,-3.4242 5.54637,-6.37364 3.05051,-2.02542 7.17857,-4.22663 9.17348,-4.89158 4.60363,-1.53449 5.24234,-3.40669 1.61143,-4.72347 -5.53645,-2.00785 -7.70449,-3.52694 -9.59845,-6.72545 -1.05517,-1.78196 -3.07708,-3.80696 -4.49313,-4.5 -2.80967,-1.3751 -7.60507,-12.17866 -7.43934,-16.76007 0.37328,-10.31881 3.28028,-15 9.31494,-15 2.07166,0 4.04478,-0.45 4.3847,-1 0.33992,-0.55 1.79703,-1 3.23802,-1 1.44099,0 4.09813,-0.5345 5.90474,-1.18778 2.75972,-0.99793 3.57057,-0.92914 5.07283,0.43039 0.98344,0.89 2.95906,2.06339 4.39026,2.60753 2.13471,0.81162 3.11672,2.53722 5.4663,9.6055 2.31273,6.9574 2.63887,8.97681 1.69414,10.48957 -1.67656,2.6846 -0.47438,9.23945 1.62213,8.84461 1.12741,-0.21233 1.89016,-2.05959 2.53884,-6.14866 0.91895,-5.79279 0.88077,-5.9386 -4.26232,-16.27993 -3.344,-6.72386 -5.93742,-10.71144 -7.29247,-11.2127 -1.21383,-0.44903 -2.67029,-2.42837 -3.44495,-4.6817 -1.18287,-3.44074 -1.14562,-4.12085 0.3141,-5.73381 1.12893,-1.24747 2.74749,-1.73501 5.08436,-1.53153 3.3908,0.29525 3.5142,0.48016 11.30765,16.94397 l 7.87944,16.64547 -1.36708,6.52177 c -1.27004,6.05888 -1.23567,6.65317 0.48426,8.37311 1.6736,1.67359 1.74376,2.47361 0.73087,8.33276 -0.61626,3.56479 -1.73031,7.68343 -2.47568,9.15253 -1.20059,2.36636 -1.08338,3.39328 1.02735,9.00098 2.136,5.67483 3.27628,10.49185 6.46902,27.32792 0.5215,2.75 3.03453,10.12509 5.58451,16.38909 2.54998,6.264 4.50073,12.3124 4.335,13.44089 -0.2001,1.36257 -1.39306,2.33321 -3.55132,2.88951 -1.7875,0.46073 -3.25,1.00972 -3.25,1.21997 0,0.21026 1.08564,4.58489 2.41254,9.72141 1.3269,5.13652 2.69729,11.02663 3.04531,13.08913 0.61606,3.65092 0.55232,3.75 -2.41254,3.75 -2.34778,0 -3.04531,-0.44458 -3.04531,-1.94098 0,-1.06754 -0.41441,-2.19711 -0.92091,-2.51014 -0.50651,-0.31304 -2.35445,-4.87212 -4.10654,-10.13129 -2.00818,-6.02783 -3.79308,-9.74689 -4.82909,-10.06201 -3.82037,-1.16202 -4.75912,-2.40381 -6.95544,-9.20073 -2.00891,-6.21695 -2.62344,-7.15485 -4.68802,-7.15485 -2.06458,0 -2.67911,0.9379 -4.68802,7.15485 -2.19632,6.79692 -3.13507,8.03871 -6.95544,9.20073 -1.03601,0.31512 -2.82091,4.03418 -4.82909,10.06201 -1.75209,5.25917 -3.60003,9.81825 -4.10654,10.13129 -0.5065,0.31303 -0.92091,1.4426 -0.92091,2.51014 0,1.3912 -0.69141,1.94098 -2.44098,1.94098 -1.34254,0 -2.73128,-0.46971 -3.08609,-1.0438 z m 9.76879,-63.06278 c -0.30594,-6.38854 -2.08555,-14.67887 -3.31395,-15.43806 -0.47921,-0.29617 -2.00552,0.2047 -3.3918,1.11303 -1.38629,0.90833 -3.25604,1.36927 -4.155,1.02431 -1.61105,-0.61822 -4.38097,0.9166 -4.38097,2.42751 0,0.91442 10.93072,15.14454 12.45426,16.21353 2.17628,1.52699 3.03732,-0.12263 2.78746,-5.34032 z m 15.17483,-42.53655 c 0.34679,-0.90372 0.42487,-1.84878 0.17352,-2.10013 -0.79473,-0.79474 -2.59007,0.80111 -2.59007,2.30228 0,1.96152 1.63888,1.82443 2.41655,-0.20215 z"
           style="fill:#f3c7ac" />
        <path
           inkscape:connector-curvature="0"
           id="path1272"
           d="m 183.66081,308.33836 c -0.39669,-1.24984 -0.009,-3.07626 0.96909,-4.56954 1.38492,-2.11366 2.13966,-2.39191 5.02146,-1.85128 2.33988,0.43896 4.09979,0.14019 5.67554,-0.9635 1.25618,-0.87987 3.74301,-1.59976 5.52628,-1.59976 3.83919,0 5.5875,2.49015 5.12259,7.29621 l -0.30991,3.20379 -10.67212,0.28304 c -10.05972,0.2668 -10.71005,0.16357 -11.33293,-1.79896 z m 64.17172,1.34925 c -1.021,-1.021 -0.79246,-6.22977 0.36851,-8.39907 1.30288,-2.43444 8.08811,-2.69556 10.00566,-0.38506 0.86495,1.04221 2.60341,1.45129 5.31208,1.25 3.44519,-0.25601 4.23962,0.0751 5.50388,2.29398 2.86127,5.02173 1.33906,5.90682 -10.15875,5.90682 -5.70059,0 -10.66472,-0.3 -11.03138,-0.66667 z M 199.85971,295.7148 c -1.13344,-1.13345 0.35596,-2.36052 2.86517,-2.36052 1.50309,0 2.44098,0.57634 2.44098,1.5 0,1.49675 -4.01826,2.1484 -5.30615,0.86052 z m 48.30615,-0.86052 c 0,-1 1,-1.5 3,-1.5 2,0 3,0.5 3,1.5 0,1 -1,1.5 -3,1.5 -2,0 -3,-0.5 -3,-1.5 z M 202.1859,290.1776 c 0.011,-0.17782 1.12468,-4.59832 2.47478,-9.82332 2.27358,-8.79892 2.33179,-9.59225 0.78883,-10.75 -0.91625,-0.6875 -2.71902,-1.25 -4.00616,-1.25 -4.46996,0 -4.12606,-3.86447 1.39771,-15.70607 2.86414,-6.14002 3.3913,-4.89931 -8.89951,-20.94527 -4.27663,-5.58324 -7.77569,-10.55746 -7.77569,-11.05383 0,-0.49638 1.58849,-2.44213 3.52999,-4.32389 2.87125,-2.78294 3.41864,-3.92836 2.9333,-6.13806 -0.52135,-2.3737 0.0114,-3.16354 4.22002,-6.25657 2.64918,-1.94696 7.41487,-4.56061 10.59043,-5.80812 3.62772,-1.42514 5.672,-2.78588 5.5,-3.66101 -0.28656,-1.45804 -0.89962,-1.84808 -7.03058,-4.47293 -2.06627,-0.88463 -4.5773,-2.95755 -5.58008,-4.60648 -1.00277,-1.64893 -3.36219,-4.02318 -5.24315,-5.27611 -4.82329,-3.21285 -7.44513,-8.93446 -7.31084,-15.95437 0.06,-3.1365 0.65218,-7.01384 1.31595,-8.61632 1.37701,-3.32439 5.167,-5.74337 7.5599,-4.82512 0.89092,0.34187 2.67362,-0.0689 3.96157,-0.91276 1.4292,-0.93645 3.31465,-1.29015 4.83851,-0.90769 1.39678,0.35057 2.79114,0.15039 3.1649,-0.45437 0.87506,-1.41588 5.839,-1.39211 7.2659,0.0348 0.61369,0.6137 2.11272,1.6262 3.33117,2.25 3.25917,1.66858 6.24628,10.07539 5.55462,15.63273 -0.30814,2.4758 -0.68206,7.49189 -0.83093,11.14686 -0.18869,4.63241 -0.80078,7.23105 -2.02068,8.57874 -1.76188,1.94646 -2.32184,5.37067 -1.08115,6.61137 1.19887,1.19886 4.3308,-2.57872 4.3448,-5.24051 0.0257,-4.87497 1.07818,-6.86338 3.9355,-7.43484 2.28955,-0.45791 2.88137,-1.21627 3.40042,-4.35728 0.34563,-2.09159 0.63337,-4.97402 0.63942,-6.40539 0.0151,-3.56508 -9.56148,-23.59833 -11.87185,-24.83481 -3.06939,-1.64268 -3.35467,-4.99734 -0.53427,-6.2824 1.33407,-0.60784 2.63387,-0.89688 2.88845,-0.6423 0.25458,0.25457 3.56809,7.07311 7.36335,15.15229 6.4266,13.68062 6.8439,14.98199 6.07646,18.94957 -1.25526,6.48956 -1.09896,9.76015 0.46643,9.76015 2.9154,0 3.45561,2.32641 2.20597,9.5 -0.67068,3.85 -1.75427,7.9884 -2.40799,9.19644 -0.96863,1.78998 -0.82687,3.11409 0.76603,7.15531 2.70648,6.86641 4.9562,15.89731 5.96842,23.95869 0.53244,4.24042 2.80232,11.673 6.01598,19.69897 2.8385,7.08903 5.02886,13.78537 4.86747,14.88076 -0.19673,1.33523 -1.44696,2.28408 -3.79344,2.87901 -1.925,0.48806 -3.81809,1.19275 -4.20687,1.56597 -0.38877,0.37322 0.37627,4.93545 1.70011,10.13828 1.32383,5.20283 2.22383,9.64283 1.99999,9.86667 -1.41732,1.41733 -3.36625,-1.72041 -5.87821,-9.46384 -3.06811,-9.45784 -3.90255,-10.59318 -7.18092,-9.77037 -2.70557,0.67906 -3.70831,-0.70489 -6.35364,-8.76911 -3.30152,-10.06458 -5.85695,-10.07117 -9.15306,-0.0236 -2.65342,8.08846 -3.65451,9.47215 -6.3615,8.79273 -3.25778,-0.81765 -4.06291,0.2813 -7.24882,9.89411 -1.99796,6.02843 -3.53326,9.10675 -4.64995,9.32332 -0.91692,0.17783 -1.65811,0.17783 -1.64709,0 z m 7.54183,-57.07332 c -0.79883,-8.31454 -2.41983,-15.54418 -3.65662,-16.30856 -0.46682,-0.28851 -1.93119,0.18468 -3.25417,1.05153 -1.9591,1.28365 -2.88658,1.35685 -4.99863,0.39453 -2.03007,-0.92495 -2.9254,-0.90586 -4.12284,0.0879 -2.43345,2.01959 -1.84098,3.99561 3.13693,10.46234 6.95818,9.03929 9.50023,11.56224 11.64976,11.56224 1.80829,0 1.89412,-0.49959 1.24557,-7.25 z"
           style="fill:#f0bb99" />
        <path
           inkscape:connector-curvature="0"
           id="path1270"
           d="m 183.66081,308.33836 c -0.39669,-1.24984 -0.009,-3.07626 0.96909,-4.56954 1.38492,-2.11366 2.13966,-2.39191 5.02146,-1.85128 2.33988,0.43896 4.09979,0.14019 5.67554,-0.9635 1.25618,-0.87987 3.74301,-1.59976 5.52628,-1.59976 3.83919,0 5.5875,2.49015 5.12259,7.29621 l -0.30991,3.20379 -10.67212,0.28304 c -10.05972,0.2668 -10.71005,0.16357 -11.33293,-1.79896 z m 64.17172,1.34925 c -1.021,-1.021 -0.79246,-6.22977 0.36851,-8.39907 1.30288,-2.43444 8.08811,-2.69556 10.00566,-0.38506 0.86495,1.04221 2.60341,1.45129 5.31208,1.25 3.44519,-0.25601 4.23962,0.0751 5.50388,2.29398 2.86127,5.02173 1.33906,5.90682 -10.15875,5.90682 -5.70059,0 -10.66472,-0.3 -11.03138,-0.66667 z M 199.85971,295.7148 c -1.13344,-1.13345 0.35596,-2.36052 2.86517,-2.36052 1.50309,0 2.44098,0.57634 2.44098,1.5 0,1.49675 -4.01826,2.1484 -5.30615,0.86052 z m 48.30615,-0.86052 c 0,-1 1,-1.5 3,-1.5 2,0 3,0.5 3,1.5 0,1 -1,1.5 -3,1.5 -2,0 -3,-0.5 -3,-1.5 z m -37,-24.53968 c -10.8635,-1.94201 -12.49646,-2.51758 -12.78761,-4.50729 -0.15818,-1.08103 0.99925,-5.11271 2.57208,-8.95927 2.61645,-6.39889 3.12888,-7.02033 6.0246,-7.30615 4.26301,-0.42077 6.57802,-3.63079 4.73787,-6.56958 -0.72942,-1.16492 -1.63119,-5.49303 -2.00393,-9.61803 -0.76463,-8.46212 -2.37141,-15.77591 -3.63776,-16.55856 -0.46682,-0.28851 -1.92306,0.17935 -3.2361,1.03968 -1.31304,0.86034 -3.01438,1.32363 -3.78076,1.02954 -1.56749,-0.6015 -6.88839,-8.60344 -6.88839,-10.35925 0,-1.6313 7.57429,-6.9843 13.92341,-9.84013 5.28796,-2.37851 5.50459,-2.39573 8.6733,-0.68926 2.70542,1.45696 3.51404,1.53095 4.82659,0.44163 0.86719,-0.7197 1.5767,-2.0837 1.5767,-3.03111 0,-0.94741 0.9,-2.53705 2,-3.53254 1.1,-0.99549 2.00614,-2.97773 2.01365,-4.40499 0.008,-1.42725 0.29791,-3.65687 0.64532,-4.95469 0.59082,-2.20711 1.01216,-2.33216 6.51663,-1.934 8.23675,0.59579 8.95863,1.59674 7.42384,10.29368 -0.67943,3.85 -1.77018,7.9884 -2.4239,9.19644 -0.96863,1.78998 -0.82687,3.11409 0.76603,7.15531 2.70648,6.86641 4.9562,15.89731 5.96842,23.95869 0.53244,4.24042 2.80232,11.673 6.01598,19.69897 2.8385,7.08903 5.02886,13.78168 4.86747,14.87255 -0.32932,2.22592 -2.87515,3.13933 -12.79344,4.59013 -7.78283,1.13843 -7.95334,1.01157 -10.93399,-8.13531 -3.28014,-10.06593 -5.84205,-10.07255 -9.13861,-0.0236 -1.20649,3.67776 -2.63882,7.24934 -3.18295,7.93684 -1.085,1.37087 -1.23035,1.37481 -7.74445,0.21032 z m -7.82332,-94.51314 c 0.45227,-2.17211 2.22702,-2.30502 2.63295,-0.19718 0.2108,1.0946 -0.27967,1.75 -1.30963,1.75 -0.96073,0 -1.51197,-0.64684 -1.32332,-1.55282 z m -14.68167,-4.46221 c -1.69522,-5.10382 -1.47932,-10.60483 0.63193,-16.10128 1.17096,-3.04852 5.02795,-5.42197 7.358,-4.52784 0.89092,0.34187 2.67362,-0.0689 3.96157,-0.91276 1.4292,-0.93645 3.31465,-1.29015 4.83851,-0.90769 1.39678,0.35057 2.79114,0.15039 3.1649,-0.45437 0.87506,-1.41588 5.839,-1.39211 7.2659,0.0348 0.61369,0.6137 2.1206,1.6262 3.34866,2.25 2.55102,1.29579 6.51199,10.68955 5.55687,13.17855 -0.47087,1.22707 -1.35898,1.45253 -3.69794,0.93881 -3.83331,-0.84194 -22.92341,5.95941 -22.92341,8.16707 0,1.37482 -3.82323,3.34975 -6.48473,3.34975 -0.745,0 -2.10411,-2.25676 -3.02026,-5.01503 z m 27.00499,1.01503 c -0.81551,-1.31952 0.38021,-3.19207 1.5691,-2.4573 1.21461,0.75068 1.20672,3.4573 -0.0101,3.4573 -0.51754,0 -1.2191,-0.45 -1.55902,-1 z"
           style="fill:#9ea59c" />
        <path
           inkscape:connector-curvature="0"
           id="path1268"
           d="m 184.55747,307.93242 c -0.30009,-0.78202 -0.0367,-2.37285 0.5854,-3.53518 0.93974,-1.75592 1.71454,-2.00385 4.58141,-1.46602 2.42205,0.45438 4.21065,0.14917 6.00122,-1.02406 1.41133,-0.92474 3.94852,-1.53322 5.67967,-1.36212 2.47518,0.24463 3.28598,0.90145 3.88092,3.14385 1.38615,5.22457 0.58794,5.66539 -10.2586,5.66539 -7.65679,0 -10.04907,-0.32488 -10.47002,-1.42186 z m 63.40217,0.17186 c -0.23111,-0.6875 -0.16474,-2.6 0.1475,-4.25 0.49929,-2.63848 1.03089,-3.03811 4.41131,-3.31621 2.51026,-0.20652 4.46573,0.24681 5.63703,1.30681 1.15205,1.04259 3.12466,1.51331 5.51585,1.31622 4.06235,-0.33484 6.30571,1.6369 5.18506,4.55726 -0.52284,1.3625 -2.28648,1.63592 -10.55216,1.63592 -7.04874,0 -10.04615,-0.36219 -10.34459,-1.25 z m -33.29378,-38.24862 c -0.55,-0.20006 -4.2625,-0.88537 -8.25,-1.52291 -8.45521,-1.35187 -8.4414,-1.31818 -4.63,-11.29251 2.2179,-5.80418 2.925,-6.7767 4.60732,-6.33676 2.97817,0.7788 6.652,-0.99024 7.94363,-3.82506 0.94136,-2.06604 0.84063,-2.85386 -0.56318,-4.40506 -1.02252,-1.12987 -2.46229,-6.14399 -3.58257,-12.47662 -2.79112,-15.77739 -3.13718,-16.38506 -7.46633,-13.11066 -1.06762,0.80751 -2.2835,1.4682 -2.70196,1.4682 -0.96146,0 -6.85691,-8.50576 -6.85691,-9.89291 0,-1.48463 10.81209,-8.58586 15.3127,-10.05716 3.30394,-1.0801 4.06021,-1.02243 5.66753,0.43218 2.15725,1.95228 6.01165,1.6867 6.99703,-0.48211 0.37483,-0.825 1.65828,-3.38915 2.85212,-5.69812 1.19384,-2.30896 2.17751,-5.23396 2.18593,-6.5 0.0288,-4.32517 1.33969,-5.15685 7.06037,-4.47932 2.89914,0.34336 5.63749,0.99061 6.08521,1.43833 0.99949,0.99949 -0.94929,12.805 -2.68066,16.23911 -1.09531,2.17252 -0.82551,3.80992 2.05968,12.5 1.82605,5.5 3.9854,14.275 4.79856,19.5 0.99087,6.36686 2.99278,13.21347 6.07,20.75965 2.52534,6.1928 4.59153,12.11464 4.59153,13.15964 0,1.5676 -1.18092,2.09738 -6.75,3.02815 -13.05292,2.18158 -12.11324,2.5515 -15.10759,-5.94744 -2.49425,-7.07947 -2.81062,-7.5 -5.64241,-7.5 -2.8342,0 -3.14453,0.41449 -5.61522,7.5 -2.41161,6.9161 -3.73129,8.46657 -6.38478,7.50138 z m -23.86909,-96.01333 c -2.08384,-2.08384 -3.19935,-10.09819 -1.6632,-11.94915 0.65864,-0.79361 0.9074,-2.35703 0.5528,-3.47426 -0.97326,-3.06648 3.62458,-7.31731 6.99868,-6.47047 1.74103,0.43697 3.17713,0.0856 4.48386,-1.09693 1.10745,-1.00223 2.62883,-1.46874 3.58866,-1.10042 0.9164,0.35166 3.16686,0.0967 5.001,-0.56651 2.78075,-1.00553 3.63158,-0.95072 5.12105,0.32991 0.98243,0.84468 2.59267,1.82232 3.57831,2.17254 1.75365,0.6231 5.64248,7.82754 5.68597,10.53382 0.0152,0.94413 -0.80263,1.20894 -2.64552,0.85665 -3.58887,-0.68605 -20.87343,5.82519 -25.11732,9.46192 -3.84119,3.29165 -3.64202,3.24518 -5.58429,1.3029 z"
           style="fill:#5ba1a4" />
        <path
           inkscape:connector-curvature="0"
           id="path1266"
           d="m 185.16586,306.97672 c 0,-2.14223 2.34538,-3.64711 4.03354,-2.58807 1.71555,1.07624 4.77585,0.33452 7.12803,-1.72761 2.66477,-2.33617 7.07857,-1.28833 7.91896,1.87998 0.39197,1.4777 0.4592,2.9402 0.1494,3.25 -0.30979,0.30979 -4.76326,0.56326 -9.8966,0.56326 -7.26092,0 -9.33333,-0.30588 -9.33333,-1.37756 z m 64.18664,-1.87244 c 0.26378,-2.73578 0.76246,-3.30142 3.15179,-3.57496 1.56114,-0.17872 3.58614,0.31538 4.5,1.098 2.63413,2.25586 5.14198,2.80781 7.36119,1.62013 1.57498,-0.84291 2.25494,-0.7837 2.91224,0.25358 2.13458,3.36859 1.0434,3.85325 -8.67522,3.85325 h -9.56336 z m -36.68664,-36.37584 c -13.29331,-2.61773 -12.74812,-2.38409 -12.17934,-5.21958 0.29287,-1.46002 1.44954,-4.79208 2.57038,-7.40458 1.65098,-3.84819 2.51034,-4.75 4.52637,-4.75 6.29011,0 10.47623,-5.25007 7.13231,-8.94506 -0.85107,-0.94043 -2.01292,-4.37501 -2.58188,-7.6324 -3.59945,-20.60758 -4.56803,-22.55224 -9.40897,-18.89074 -1.06762,0.80751 -2.2889,1.4682 -2.71395,1.4682 -1.00117,0 -5.84492,-7.11908 -5.84492,-8.59055 0,-1.45681 9.41506,-7.57115 14.20901,-9.22765 3.19383,-1.1036 4.05516,-1.05481 6.20104,0.35122 3.37236,2.20966 6.44512,1.05785 8.16609,-3.061 0.76646,-1.83439 1.82438,-3.60152 2.35093,-3.92695 0.52656,-0.32543 1.24831,-2.53175 1.60389,-4.90294 0.98965,-6.59951 1.33526,-6.86417 7.29465,-5.58611 2.84591,0.61034 5.17439,1.43977 5.17439,1.84318 0,2.97712 -2.41829,13.01304 -3.56612,14.79947 -1.2645,1.96799 -1.05449,3.27944 2.00177,12.5 1.87797,5.66573 4.07322,14.57633 4.87834,19.80133 0.99334,6.44653 2.94593,13.11905 6.07493,20.75965 2.53609,6.1928 4.61108,11.88152 4.61108,12.64159 0,1.47769 -2.30645,2.25083 -10.92616,3.66256 -5.59622,0.91654 -8.07384,0.10373 -8.07384,-2.64873 0,-0.73703 -0.93233,-3.83193 -2.07185,-6.87756 -1.93218,-5.16421 -2.29213,-5.53751 -5.33948,-5.53751 -3.58755,0 -4.51838,1.28711 -6.62318,9.15821 -0.63857,2.38799 -1.62214,4.90429 -2.18571,5.59179 -1.03554,1.26326 -1.65964,1.33704 -5.27978,0.62416 z m -22.60814,-98.08007 c -1.71177,-3.95515 -1.88386,-5.3315 -0.98336,-7.86509 0.60032,-1.68905 1.0915,-4.0194 1.0915,-5.17857 0,-3.11121 2.85677,-5.51096 5.87389,-4.93421 1.57829,0.30171 3.43765,-0.20272 4.85405,-1.31686 1.32107,-1.03915 3.16785,-1.57787 4.34966,-1.26882 1.1296,0.2954 3.09161,-0.0183 4.36002,-0.69715 1.97121,-1.05497 2.92731,-0.88877 6.58217,1.14414 3.47275,1.93162 4.5271,3.21844 5.61291,6.85043 1.79079,5.99016 1.78634,6.00585 -1.51678,5.34522 -3.78388,-0.75677 -22.81162,6.35518 -23.44087,8.76144 -0.23977,0.91688 -1.39723,2.18151 -2.57214,2.8103 -1.96058,1.04928 -2.30675,0.74916 -4.21105,-3.65083 z"
           style="fill:#23ae70" />
        <path
           inkscape:connector-curvature="0"
           id="path1264"
           d="m 185.16586,306.97672 c 0,-2.14223 2.34538,-3.64711 4.03354,-2.58807 1.71555,1.07624 4.77585,0.33452 7.12803,-1.72761 2.66477,-2.33617 7.07857,-1.28833 7.91896,1.87998 0.39197,1.4777 0.4592,2.9402 0.1494,3.25 -0.30979,0.30979 -4.76326,0.56326 -9.8966,0.56326 -7.26092,0 -9.33333,-0.30588 -9.33333,-1.37756 z m 64.18664,-1.87244 c 0.26378,-2.73578 0.76246,-3.30142 3.15179,-3.57496 1.56114,-0.17872 3.58614,0.31538 4.5,1.098 2.63413,2.25586 5.14198,2.80781 7.36119,1.62013 1.57498,-0.84291 2.25494,-0.7837 2.91224,0.25358 2.13458,3.36859 1.0434,3.85325 -8.67522,3.85325 h -9.56336 z M 217.57857,240.4115 c -4.74379,-1.13408 -5.17893,-1.67661 -5.86164,-7.30834 -0.34996,-2.88688 -1.34059,-8.28638 -2.2014,-11.99888 -1.66402,-7.17659 -2.92276,-8.14383 -6.7908,-5.2182 -1.06762,0.80751 -2.2889,1.4682 -2.71395,1.4682 -1.00117,0 -5.84492,-7.11908 -5.84492,-8.59055 0,-1.45681 9.41506,-7.57115 14.20901,-9.22765 3.19383,-1.1036 4.05516,-1.05481 6.20104,0.35122 3.37236,2.20966 6.44512,1.05785 8.16609,-3.061 0.76646,-1.83439 1.82438,-3.60152 2.35093,-3.92695 0.52656,-0.32543 1.24831,-2.53175 1.60389,-4.90294 0.98965,-6.59951 1.33526,-6.86417 7.29465,-5.58611 2.84591,0.61034 5.17439,1.43977 5.17439,1.84318 0,2.97712 -2.41829,13.01304 -3.56612,14.79947 -1.26467,1.96825 -1.05397,3.27822 2.01052,12.5 3.23261,9.72765 6.13766,25.05052 5.07522,26.76958 -1.53359,2.4814 -17.80303,3.83506 -25.10691,2.08897 z m -27.52085,-69.76313 c -1.71177,-3.95515 -1.88386,-5.3315 -0.98336,-7.86509 0.60032,-1.68905 1.0915,-4.0194 1.0915,-5.17857 0,-3.11121 2.85677,-5.51096 5.87389,-4.93421 1.57829,0.30171 3.43765,-0.20272 4.85405,-1.31686 1.32107,-1.03915 3.16785,-1.57787 4.34966,-1.26882 1.1296,0.2954 3.09161,-0.0183 4.36002,-0.69715 1.97121,-1.05497 2.92731,-0.88877 6.58217,1.14414 3.47275,1.93162 4.5271,3.21844 5.61291,6.85043 1.79079,5.99016 1.78634,6.00585 -1.51678,5.34522 -3.78388,-0.75677 -22.81162,6.35518 -23.44087,8.76144 -0.23977,0.91688 -1.39723,2.18151 -2.57214,2.8103 -1.96058,1.04928 -2.30675,0.74916 -4.21105,-3.65083 z"
           style="fill:#176099" />
        <path
           inkscape:connector-curvature="0"
           id="path1262"
           d="m 191.59843,174.24518 c -0.80571,-1.30367 1.28373,-2.85364 3.87645,-2.87559 2.09653,-0.0177 1.42295,1.52258 -1.30402,2.98202 -1.30737,0.69967 -2.09435,0.66712 -2.57243,-0.10643 z m -3.09541,-7.45467 c -0.33005,-0.86007 -0.0909,-2.68125 0.53138,-4.04705 0.6223,-1.36581 1.13146,-3.55497 1.13146,-4.8648 0,-3.35733 2.75898,-5.80361 5.87389,-5.20816 1.57829,0.30171 3.43765,-0.20272 4.85405,-1.31686 1.32107,-1.03916 3.16785,-1.57787 4.34966,-1.26882 1.1296,0.2954 3.09161,-0.0183 4.36002,-0.69715 1.97425,-1.05659 2.93638,-0.88458 6.68429,1.19503 2.52077,1.39871 4.50373,3.27466 4.67426,4.42201 0.25567,1.72022 -1.79552,2.77052 -15,7.68059 -8.41289,3.12833 -15.64779,5.68362 -16.07756,5.67843 -0.42976,-0.005 -1.05141,-0.71315 -1.38145,-1.57322 z m 32.66284,-4.43623 c 0,-0.55 0.45,-1 1,-1 0.55,0 1,0.45 1,1 0,0.55 -0.45,1 -1,1 -0.55,0 -1,-0.45 -1,-1 z"
           style="fill:#31404a" />
      </g>
    </g>
  </g>
</svg>
