<?xml version="1.0" encoding="UTF-8" standalone="no"?>
<!-- Created with Inkscape (http://www.inkscape.org/) -->

<svg
   xmlns:dc="http://purl.org/dc/elements/1.1/"
   xmlns:cc="http://creativecommons.org/ns#"
   xmlns:rdf="http://www.w3.org/1999/02/22-rdf-syntax-ns#"
   xmlns:svg="http://www.w3.org/2000/svg"
   xmlns="http://www.w3.org/2000/svg"
   xmlns:sodipodi="http://sodipodi.sourceforge.net/DTD/sodipodi-0.dtd"
   xmlns:inkscape="http://www.inkscape.org/namespaces/inkscape"
   width="210mm"
   height="297mm"
   viewBox="0 0 210 297"
   version="1.1"
   id="svg8"
   inkscape:version="0.92.5 (0.92.5+69)"
   sodipodi:docname="logo-2.svg">
  <defs
     id="defs2" />
  <sodipodi:namedview
     id="base"
     pagecolor="#ffffff"
     bordercolor="#666666"
     borderopacity="1.0"
     inkscape:pageopacity="0.0"
     inkscape:pageshadow="2"
     inkscape:zoom="1.01"
     inkscape:cx="400"
     inkscape:cy="745.07689"
     inkscape:document-units="mm"
     inkscape:current-layer="layer1"
     showgrid="false"
     inkscape:window-width="1299"
     inkscape:window-height="713"
     inkscape:window-x="67"
     inkscape:window-y="27"
     inkscape:window-maximized="1" />
  <metadata
     id="metadata5">
    <rdf:RDF>
      <cc:Work
         rdf:about="">
        <dc:format>image/svg+xml</dc:format>
        <dc:type
           rdf:resource="http://purl.org/dc/dcmitype/StillImage" />
        <dc:title></dc:title>
      </cc:Work>
    </rdf:RDF>
  </metadata>
  <g
     inkscape:label="Layer 1"
     inkscape:groupmode="layer"
     id="layer1">
    <g
       id="g433"
       transform="matrix(2.5227233,0,0,2.5227233,-174.06053,-59.415351)">
      <path
         style="fill:#d1d0d3;stroke-width:0.37836742"
         d="m 69.923347,100.77961 c 0,-2.719239 0.114829,-3.408889 0.598497,-3.59449 0.782238,-0.300174 79.748136,-0.300174 80.530376,0 0.48367,0.185601 0.5985,0.875251 0.5985,3.59449 v 3.36483 H 110.78703 69.923347 Z M 118.35438,85.203734 c 0,-0.90591 -0.15197,-1.441871 -0.37054,-1.306786 -0.20381,0.125954 -0.70487,0.05009 -1.11349,-0.168597 -0.53312,-0.285316 -1.02872,-0.267388 -1.75492,0.06349 -0.90307,0.411467 -1.09043,0.36422 -1.74083,-0.438986 -0.40086,-0.49504 -0.63319,-1.14931 -0.5163,-1.453926 0.1701,-0.443276 -0.0343,-0.506444 -1.02396,-0.316413 -1.39734,0.268319 -2.93914,1.79866 -2.93914,2.917277 0,0.921056 -1.35967,1.483007 -3.58818,1.483007 -2.95513,0 -3.49166,-0.58709 -1.99274,-2.180527 0.9689,-1.030004 1.97725,-5.386821 1.24674,-5.386821 -0.2318,0 -0.71263,0.492933 -1.06852,1.095411 -0.56333,0.953645 -0.57389,1.123491 -0.0816,1.312409 0.76746,0.294503 0.71264,0.619713 -0.32257,1.913473 -0.85382,1.067075 -0.99142,1.103826 -3.992025,1.066197 -2.705088,-0.0339 -3.283412,0.08026 -4.46376,0.88126 -2.601876,1.765681 -4.655743,0.870464 -4.655743,-2.029298 0,-1.274769 0.238012,-1.803666 1.28107,-2.846723 0.704588,-0.704588 1.388576,-1.619795 1.519972,-2.033789 0.574777,-1.810961 3.301774,-3.101826 4.711781,-2.230397 0.733548,0.45336 0.479639,2.10538 -0.458516,2.983246 -1.548235,1.448746 -2.646026,2.158415 -3.338866,2.158415 -0.829708,0 -1.985217,1.681662 -1.687897,2.456468 0.505843,1.318205 1.884679,0.421641 4.869063,-3.166012 0.931975,-1.120369 1.203138,-1.229974 2.799951,-1.131781 1.56309,0.09613 1.80649,0.0048 2.09972,-0.787893 0.44328,-1.198282 1.41031,-1.884516 2.67628,-1.899158 0.89125,-0.01029 1.04051,-0.168215 1.04051,-1.100807 0,-1.401806 -0.89797,-2.227627 -1.69919,-1.562673 -0.32245,0.267612 -1.09233,0.385416 -1.79725,0.275009 -0.67823,-0.106227 -1.97588,-2.27e-4 -2.883646,0.235552 l -1.650492,0.428695 -1.276227,-1.508699 c -1.248888,-1.476382 -1.276349,-1.487404 -1.281857,-0.514519 -0.0079,1.397632 -0.577186,1.711106 -3.634308,2.001246 -2.177769,0.206683 -2.774073,0.144585 -3.16786,-0.329899 -0.726143,-0.874948 -2.18397,-0.705632 -3.11175,0.361409 -1.124479,1.293264 -3.335233,1.356005 -3.333199,0.09459 0.0012,-0.723473 0.980442,-3.590578 2.557672,-7.488307 0.552736,-1.365948 1.394694,-1.949815 2.608692,-1.809035 1.120265,0.129912 1.262027,0.33305 3.121669,4.473158 l 1.104701,2.459388 0.03254,-3.045858 c 0.01947,-1.822516 0.214902,-3.228219 0.486581,-3.499899 0.249723,-0.249722 1.088709,-0.45404 1.864414,-0.45404 1.140146,0 1.596062,0.235609 2.379519,1.229694 0.533031,0.676331 0.971035,1.030786 0.973342,0.787681 0.0023,-0.243108 0.101,-0.694281 0.219316,-1.002609 0.150622,-0.392515 -0.190579,-0.694486 -1.138007,-1.007165 -1.618564,-0.534175 -2.30542,-1.57293 -1.739399,-2.63055 0.215203,-0.40211 0.717406,-0.834618 1.116005,-0.961129 0.687048,-0.218061 0.677232,-0.277514 -0.188782,-1.143529 -1.113315,-1.113315 -1.218752,-3.135682 -0.227314,-4.360056 1.252497,-1.54677 6.40738,-1.395158 7.02201,0.206521 0.10737,0.279817 -0.11771,0.906602 -0.5002,1.392849 -0.68158,0.866488 -0.67734,0.905116 0.21294,1.940125 0.81628,0.948983 0.93356,0.986464 1.15694,0.369752 0.94008,-2.595438 2.061,-4.656379 2.72616,-5.012362 0.64372,-0.344507 0.71719,-0.581827 0.42116,-1.360437 -0.38229,-1.005495 -0.11529,-4.091631 0.44932,-5.193465 0.29564,-0.576955 0.76201,-0.640855 3.55527,-0.487128 1.76824,0.09732 3.3515,0.261308 3.51835,0.364428 0.16686,0.10312 1.20454,1.539461 2.30597,3.191868 2.18905,3.284108 3.22705,4.035735 4.76556,3.450798 1.15389,-0.438713 5.83172,-0.484424 6.49433,-0.06346 0.45704,0.290359 0.65955,1.183987 0.54228,2.392924 -0.033,0.339906 -0.41322,0.710396 -0.84499,0.823305 -0.65549,0.171415 -0.71793,0.3307 -0.37837,0.965173 0.54764,1.023268 0.51355,1.405435 -0.1879,2.10689 -0.54053,0.540524 -0.52754,0.594578 0.14285,0.594578 1.09623,0 1.65449,0.912732 1.54861,2.531898 -0.0518,0.792529 -0.0644,2.723898 -0.028,4.291935 l 0.0662,2.850976 2.04929,0.375413 c 1.75542,0.321574 2.16718,0.279942 2.87145,-0.290337 0.75095,-0.608086 0.77013,-0.717763 0.22148,-1.266415 -1.80883,-1.808827 -0.74249,-4.292052 2.08251,-4.849595 2.26233,-0.446496 4.50466,0.437964 4.50466,1.776817 0,0.505393 -0.25969,1.134421 -0.57709,1.397844 -0.49578,0.411452 -0.50263,0.564611 -0.0486,1.086838 1.17467,1.351192 1.44359,2.3031 1.01636,3.597612 -0.73003,2.21203 -4.09522,2.863624 -6.48632,1.255934 -1.25855,-0.846208 -1.29568,-0.848913 -1.98886,-0.14496 -0.57224,0.581138 -1.03922,0.673566 -2.45939,0.486781 -0.96416,-0.12681 -2.94488,-0.340202 -4.40159,-0.474201 -1.45672,-0.134002 -2.91594,-0.380293 -3.24271,-0.547312 -0.53979,-0.27589 -0.54005,-0.06349 -0.003,2.321818 0.53271,2.365481 0.68228,2.625487 1.51027,2.625487 0.50545,0 1.20151,0.255675 1.54681,0.568164 0.56994,0.515783 0.73848,0.397385 1.82812,-1.28422 1.18708,-1.831964 2.07781,-2.513408 2.74576,-2.100598 0.55151,0.340856 0.4013,1.128572 -0.41251,2.163165 -0.82103,1.043764 -1.03995,1.844783 -0.3027,1.10753 0.62947,-0.629467 2.00723,-0.568081 2.57387,0.114676 0.858,1.033836 0.55287,2.532553 -0.75323,3.699552 -0.89593,0.800512 -1.44252,1.025175 -2.03373,0.835908 -0.73826,-0.23634 -1.26595,-0.270158 -2.60575,-0.167004 -0.26012,0.02002 -0.89862,-0.08778 -1.41887,-0.239575 -0.93761,-0.273567 -0.9397,-0.268943 -0.23789,0.526052 1.12586,1.275189 0.55707,1.965331 -1.6196,1.965331 -1.03476,0 -1.98661,0.170266 -2.11522,0.378368 -0.12862,0.208102 -0.56433,0.378367 -0.96825,0.378367 -0.60634,0 -0.73441,-0.267812 -0.73441,-1.535801 z m 5.76552,-17.44976 0.13155,-2.526582 -1.29516,-0.242973 c -0.71234,-0.133635 -1.44683,-0.09131 -1.6322,0.09406 -0.19714,0.197137 0.25522,1.536652 1.08979,3.227066 0.78476,1.589514 1.46005,2.684146 1.50065,2.432516 0.0406,-0.251629 0.13302,-1.59447 0.20537,-2.984089 z m -19.38675,-2.740428 c 0,-0.322884 -0.32936,-0.429788 -0.95542,-0.31011 -0.88114,0.168441 -0.90353,0.220596 -0.28795,0.670717 0.73879,0.540218 1.24337,0.393876 1.24337,-0.360607 z m -2.94966,0.159047 c 0.2438,0 0.21972,-0.209692 -0.0632,-0.550608 -0.35905,-0.432622 -0.60696,-0.456932 -1.15696,-0.113454 -0.79773,0.498193 -0.583645,1.205153 0.26619,0.879039 0.30813,-0.118236 0.73742,-0.214977 0.95398,-0.214977 z m -3.963425,-3.633905 c -0.125729,-0.125728 -0.452071,-0.139168 -0.725205,-0.02985 -0.301836,0.120783 -0.212179,0.210441 0.228597,0.228595 0.398862,0.01642 0.622336,-0.07299 0.496608,-0.198726 z m -14.66167,20.461841 c -0.891084,-1.07369 -0.277269,-1.87578 1.524686,-1.992351 1.995053,-0.129065 4.559635,0.3394 4.571369,0.835038 0.0095,0.401232 -2.240819,1.179129 -4.267565,1.475228 -0.935171,0.136625 -1.538283,0.03178 -1.82849,-0.317915 z m 51.677245,-0.759354 c -0.40395,-0.305535 -1.31203,-0.555519 -2.01796,-0.555519 -1.37966,0 -1.57843,-0.858341 -0.24316,-1.050079 0.39895,-0.05729 1.3393,-0.289262 2.08964,-0.515499 2.45762,-0.740987 4.24012,1.251499 2.02324,2.261578 -1.1489,0.523475 -0.95442,0.538231 -1.85176,-0.140481 z m -2.71647,-17.062474 -1.1764,-0.48002 0.50417,-2.899282 c 0.64315,-3.698484 0.81431,-4.212712 1.48824,-4.471323 0.82958,-0.318339 1.59579,1.153904 2.04312,3.92574 0.55344,3.429364 0.53111,3.569269 -0.64006,4.011338 -0.76089,0.2872 -1.36061,0.263836 -2.21907,-0.08645 z m -45.0983,-0.02179 c -0.718995,-0.146474 -0.83956,-0.358447 -0.676473,-1.189345 0.109151,-0.556106 0.313245,-1.862427 0.453542,-2.902937 0.140296,-1.04051 0.397929,-2.274934 0.572516,-2.743164 0.418901,-1.123456 1.766466,-1.119335 2.194588,0.0067 0.355277,0.934447 1.257529,6.36943 1.085363,6.538004 -0.252248,0.246979 -2.83053,0.453503 -3.629536,0.29073 z m -4.989764,-7.25098 c 0,-0.47568 1.300757,-1.530239 4.06745,-3.297586 2.237097,-1.429046 4.918777,-3.392335 5.959287,-4.362864 1.927541,-1.7979 4.978081,-3.522122 8.685707,-4.909322 1.22696,-0.459067 2.47335,-1.263994 3.06826,-1.981509 2.34547,-2.828852 6.29997,-6.694712 6.84821,-6.694712 0.32638,0 1.61345,0.944365 2.86015,2.098589 1.2467,1.154223 2.75222,2.195687 3.3456,2.314364 0.59339,0.118677 2.07575,1.11789 3.29415,2.220474 2.19743,1.98856 2.24016,2.006869 5.30826,2.274503 l 3.093,0.269806 1.71179,2.003674 c 1.32711,1.553403 2.15716,2.148631 3.69365,2.648724 2.50938,0.81675 3.00719,1.264838 4.63089,4.16827 2.16263,3.867143 1.50525,4.709124 -1.63524,2.094446 -2.56937,-2.139177 -5.93433,-3.686563 -9.4791,-4.358995 -3.36128,-0.637623 -4.73716,-1.187429 -4.38746,-1.753244 0.12216,-0.197661 1.06339,-0.359384 2.09162,-0.359384 3.43283,0 2.32764,-0.673609 -3.69421,-2.251599 -0.87497,-0.229281 -2.09141,-0.83806 -2.7032,-1.352843 -0.61178,-0.514781 -1.56019,-0.935967 -2.10759,-0.935967 -0.71345,0 -1.09708,-0.267828 -1.35489,-0.945918 -0.1978,-0.520255 -0.55915,-0.945919 -0.80299,-0.945919 -0.24384,0 -1.17061,-0.595928 -2.05947,-1.324286 -0.88887,-0.728357 -1.7669,-1.324286 -1.95118,-1.324286 -0.41071,0 -2.35457,2.050877 -3.4145,3.602467 -0.51448,0.753143 -0.71352,1.495304 -0.58347,2.175612 0.1932,1.01069 0.15821,1.032535 -1.65416,1.032535 -1.57217,0 -2.15545,0.228354 -3.86577,1.513469 -1.687563,1.268008 -2.304213,1.51347 -3.802134,1.51347 -1.379643,0 -1.975743,0.19996 -2.610579,0.875713 -0.45248,0.481642 -0.82269,0.992438 -0.82269,1.135102 0,0.142664 0.837401,0.25939 1.860892,0.25939 2.20827,0 3.057885,0.272062 3.057885,0.979191 0,0.600182 -0.52028,0.73465 -4.959637,1.281822 -1.79134,0.220793 -5.01727,0.994244 -7.168733,1.718784 -2.151462,0.724543 -4.048561,1.317346 -4.215774,1.317346 -0.167213,0 -0.304024,-0.314692 -0.304024,-0.699317 z m -3.213421,-1.054684 c -0.801663,-0.801666 -0.245173,-1.37089 1.180898,-1.207927 0.791317,0.09043 1.119461,0.355522 1.207512,0.975499 0.0977,0.687933 -0.06051,0.851327 -0.824301,0.851327 -0.519864,0 -1.223713,-0.278505 -1.564109,-0.618899 z m 61.546865,-1.530292 c 0.089,-0.46938 0.53143,-0.727086 1.38995,-0.809578 1.04624,-0.100529 1.23734,-0.0045 1.12891,0.567551 -0.089,0.46938 -0.53143,0.727086 -1.38995,0.809578 -1.04624,0.100528 -1.23733,0.0045 -1.12891,-0.567551 z m -59.922899,-2.61423 c -1.909411,-0.585902 -2.505927,-1.130101 -1.901394,-1.734635 0.571565,-0.571564 4.684117,0.809899 4.544969,1.526719 -0.153529,0.790901 -0.623268,0.827846 -2.643575,0.207916 z m 58.174039,-0.830382 c -0.59091,-0.590913 -0.0176,-1.191924 1.66051,-1.740814 1.02758,-0.336106 2.13431,-0.611103 2.45939,-0.611103 0.82179,0 0.74113,1.028155 -0.11668,1.487239 -0.97095,0.519638 -3.74835,1.119545 -4.00322,0.864678 z M 86.098556,49.031195 c -0.986921,-0.519834 -1.410859,-1.263503 -0.720275,-1.263503 0.612098,0 2.706704,1.192656 2.706704,1.541182 0,0.480485 -0.744657,0.37639 -1.986429,-0.277679 z m 47.390524,-0.838807 c 0,-0.509656 0.83964,-1.092858 1.98854,-1.381215 1.36108,-0.341607 1.32779,0.244049 -0.0605,1.064123 -1.20575,0.712253 -1.92805,0.831045 -1.92805,0.317092 z M 86.976827,45.021481 C 85.014676,43.722519 83.3404,42.4469 83.256214,42.186772 c -0.22247,-0.687405 1.071693,-0.576556 2.231971,0.191176 3.651657,2.416224 5.62374,3.979489 5.62374,4.457923 0,0.304399 -0.127699,0.552082 -0.283776,0.550407 -0.156077,-0.0017 -1.889172,-1.065835 -3.851322,-2.364797 z m 43.312003,0.880059 c -0.12058,-0.195101 0.42245,-0.823981 1.20673,-1.39751 0.78428,-0.57353 2.29302,-1.691353 3.35276,-2.48405 1.05973,-0.792698 2.20902,-1.441269 2.55398,-1.441269 1.37344,0 0.48226,1.127408 -2.30516,2.916182 -3.93085,2.522555 -4.5463,2.830595 -4.80831,2.406647 z M 94.267978,41.361879 c -2.972857,-3.446037 -5.047891,-6.249999 -5.047891,-6.82114 0,-0.800048 1.089666,-0.358542 2.06187,0.83542 3.569452,4.383638 6.640582,8.391092 6.640582,8.665156 0,0.976021 -1.363383,-0.02358 -3.654561,-2.679436 z m 29.761912,0.932097 c 0,-0.305216 0.55337,-1.113976 1.2297,-1.797245 0.67633,-0.683268 2.23609,-2.646995 3.46612,-4.363837 1.40979,-1.967729 2.49366,-3.121531 2.93235,-3.121531 1.21223,0 0.77189,0.881886 -2.11208,4.229963 -1.5444,1.792936 -3.08116,3.788117 -3.41503,4.433736 -0.62912,1.216591 -2.10106,1.650182 -2.10106,0.618914 z M 88.529307,40.8381 c -0.927837,-0.987637 -1.070053,-1.772859 -0.321093,-1.772859 0.608853,0 2.146976,1.57611 2.146976,2.199999 0,0.732672 -0.943692,0.511909 -1.825883,-0.42714 z m 42.689573,-0.760986 c 0,-0.608852 1.5761,-2.146975 2.19999,-2.146975 0.79062,0 0.48022,1.055284 -0.54837,1.864375 -1.15237,0.906453 -1.65162,0.991878 -1.65162,0.2826 z M 97.674737,39.238107 c -0.123228,-0.321129 -0.129212,-0.678709 -0.0133,-0.794623 0.33134,-0.331341 1.017835,0.230672 1.017835,0.833271 0,0.726032 -0.721757,0.698263 -1.004537,-0.03865 z M 101.69023,38.8568 c -0.78991,-0.951785 -3.339565,-6.376578 -3.144975,-6.691431 0.559471,-0.905244 1.4312,0.01531 2.792985,2.949413 0.82669,1.781188 1.50308,3.483841 1.50308,3.783674 0,0.713913 -0.54025,0.694362 -1.15109,-0.04166 z m 20.61342,0.170277 c -0.29979,-0.485066 1.19981,-2.127864 1.58801,-1.73966 0.33363,0.333627 -0.48327,2.156192 -0.96643,2.156192 -0.20028,0 -0.47999,-0.18744 -0.62158,-0.416532 z m -3.5709,-1.270369 c 0,-0.338173 0.5108,-1.707385 1.1351,-3.042692 0.62431,-1.335308 1.1351,-2.578808 1.1351,-2.763335 0,-0.378213 1.24775,-1.58789 1.63786,-1.58789 0.66573,0 0.0893,1.98354 -1.36558,4.699537 -1.5585,2.909306 -2.54248,3.952078 -2.54248,2.69438 z m -14.31608,-1.833023 c -0.23967,-0.288781 -0.54318,-1.062192 -0.67448,-1.71869 -0.34321,-1.716015 0.69761,-1.584493 1.3314,0.168244 0.53715,1.485447 0.11535,2.480969 -0.65692,1.550446 z m 2.98893,-2.236827 c -0.99746,-5.117093 -1.08502,-5.725102 -0.89559,-6.218763 0.10777,-0.280836 0.32714,-0.510611 0.4875,-0.510611 0.86124,0 1.16652,1.47059 1.64152,7.907421 0.0369,0.499194 -0.12131,0.973432 -0.35144,1.053863 -0.24868,0.08691 -0.60648,-0.818514 -0.88199,-2.23191 z m 4.68579,-0.770087 c 0.43214,-3.827538 0.62003,-4.445817 1.35103,-4.445817 1.00172,0 1.2139,1.048932 0.6051,2.991411 -0.29961,0.956 -0.64825,2.206411 -0.77473,2.778692 -0.13461,0.60906 -0.48258,1.04051 -0.83919,1.04051 -0.52354,0 -0.57166,-0.332572 -0.34221,-2.364796 z m -17.589982,1.200128 c -0.231448,-0.432465 -0.319021,-1.051571 -0.194607,-1.375789 0.1996,-0.520149 0.314293,-0.509773 0.975054,0.08821 0.875365,0.792194 0.995635,2.073882 0.194608,2.073882 -0.304831,0 -0.743606,-0.353836 -0.975055,-0.786301 z m 21.582772,0.389143 c 0,-0.673349 1.13317,-2.629782 1.52318,-2.629782 0.47049,0 0.47035,0.818365 -3.5e-4,2.056389 -0.35719,0.939478 -1.52283,1.378379 -1.52283,0.573393 z m 8.70245,-0.0061 c 0,-0.769502 0.78628,-1.866963 1.3376,-1.866963 0.65167,0 0.70677,0.521469 0.16256,1.538344 -0.41427,0.774071 -1.50016,1.011941 -1.50016,0.328619 z"
         id="path447"
         inkscape:connector-curvature="0" />
      <path
         style="fill:#a09ea6;stroke-width:0.37836742"
         d="m 69.923347,100.96879 c 0,-2.546726 0.118528,-3.22112 0.598497,-3.405302 0.782238,-0.300174 79.748136,-0.300174 80.530376,0 0.47997,0.184182 0.5985,0.858576 0.5985,3.405302 v 3.17565 H 110.78703 69.923347 Z M 118.93146,85.998215 c -0.14013,-0.226733 -0.1435,-0.918888 -0.007,-1.538117 0.23199,-1.056273 0.17617,-1.12587 -0.90315,-1.12587 -0.68254,0 -1.4524,-0.324136 -1.89292,-0.796974 -0.80319,-0.862121 -1.91467,-0.65722 -1.18753,0.21892 0.60851,0.733219 -0.58608,1.064309 -1.29224,0.358155 -0.37763,-0.377634 -0.49029,-0.945207 -0.33839,-1.704742 l 0.22773,-1.138629 -1.46981,0.631628 c -0.80839,0.347394 -1.7252,0.751415 -2.03735,0.897824 -0.31216,0.146413 -0.86416,0.849382 -1.22668,1.562154 -0.97137,1.909874 -1.69071,2.303236 -3.68383,2.014444 -2.15066,-0.31162 -2.19468,-0.358663 -1.13703,-1.215101 0.88557,-0.717086 0.91683,-0.844452 1.86663,-7.603834 0.36737,-2.614458 0.34304,-2.838925 -0.36117,-3.332168 -0.65374,-0.457893 -0.75508,-0.960157 -0.75508,-3.74233 0,-2.182098 0.19095,-3.582701 0.59493,-4.363924 0.32721,-0.632755 0.49254,-1.417292 0.36739,-1.743422 -0.19419,-0.506036 -0.33903,-0.473296 -0.98804,0.223335 -0.81619,0.876083 -2.21454,1.073251 -2.8815,0.406295 -0.29443,-0.294423 -0.81538,-0.202033 -1.848031,0.327749 -1.405828,0.721233 -1.419221,0.747817 -0.598138,1.187249 0.791019,0.423336 0.833599,0.661447 0.731849,4.091673 l -0.10805,3.642176 -1.105017,0.294695 c -0.959451,0.255879 -1.27097,0.118739 -2.364797,-1.041055 -0.692879,-0.734665 -1.259779,-1.493897 -1.259779,-1.687182 0,-0.193285 -0.160476,-0.351428 -0.356612,-0.351428 -0.196137,0 -0.408969,0.723628 -0.47296,1.608062 -0.113114,1.56338 -0.153145,1.608061 -1.440633,1.608061 h -1.324286 v -3.972857 -3.972858 l 1.362575,-0.114074 c 1.157172,-0.09688 1.540433,0.08849 2.542421,1.229694 1.365406,1.555109 1.581332,1.631872 1.581332,0.562159 0,-0.429886 0.166493,-1.092706 0.369985,-1.472935 0.31643,-0.591252 0.187026,-0.725644 -0.893973,-0.928442 -0.695177,-0.130415 -1.574559,-0.580332 -1.954183,-0.999809 -0.67013,-0.740488 -0.666158,-0.786755 0.136419,-1.589332 0.712039,-0.712039 0.978637,-0.769271 1.922991,-0.412818 1.295372,0.488949 2.506792,0.0057 1.553863,-0.619876 -0.312153,-0.204916 -0.842554,-0.375181 -1.178668,-0.378367 -1.2061,-0.01143 -2.605335,-1.506065 -2.599212,-2.776419 0.0068,-1.414034 0.269206,-1.880879 1.38821,-2.469876 1.02854,-0.54138 3.707829,-0.566163 4.684754,-0.04333 0.91391,0.489112 0.95096,1.734645 0.0657,2.208425 -0.3664,0.196089 -1.175158,0.286428 -1.797249,0.200758 l -1.131076,-0.155766 1.135103,0.430911 c 1.481472,0.562401 2.060402,1.040283 2.871272,2.370116 l 0.66761,1.094897 0.53218,-1.284081 c 0.2927,-0.706245 0.84538,-2.109194 1.22819,-3.117668 0.41618,-1.096387 1.01204,-1.951214 1.48205,-2.126152 0.64554,-0.240267 0.78605,-0.61619 0.78605,-2.103071 0,-2.068571 0.59778,-2.569574 1.27983,-1.072632 0.45741,1.003908 0.47502,1.00827 1.18455,0.293573 0.60429,-0.608701 0.66523,-0.967386 0.37853,-2.228326 -0.18794,-0.826565 -0.28032,-1.564236 -0.20529,-1.639267 0.075,-0.07503 1.04944,-0.02235 2.16534,0.117076 1.81327,0.226553 2.11975,0.400791 2.88342,1.639268 1.71504,2.781339 3.01802,4.366757 3.83817,4.670151 0.72327,0.267555 0.80877,0.505832 0.62047,1.72909 -0.14072,0.914094 -0.0227,1.755254 0.33172,2.364694 0.53284,0.916202 0.55054,0.884362 0.56352,-1.013484 0.019,-2.775033 0.51597,-3.148558 4.18917,-3.148558 2.56552,0 3.04182,0.103185 3.37828,0.731861 0.50656,0.946509 0.50052,0.997082 -0.2029,1.700501 -0.36151,0.361511 -1.25139,0.594578 -2.2702,0.594578 -0.9216,0 -1.67563,0.170265 -1.67563,0.378367 0,0.208102 0.57508,0.378368 1.27796,0.378368 2.46899,0 2.86705,2.12765 0.43791,2.340698 -1.87419,0.164374 -1.69781,0.849389 0.25646,0.996029 1.80695,0.135588 2.56808,0.604476 2.56808,1.582049 0,1.202402 -0.79266,1.445386 -3.50423,1.074193 -1.40707,-0.192616 -2.78388,-0.215144 -3.05956,-0.05006 -0.38799,0.232328 -0.0664,1.197858 1.42321,4.273009 l 1.92446,3.972858 0.10882,-3.276193 c 0.1198,-3.606927 0.52912,-4.356269 2.15647,-3.947833 0.90997,0.22839 0.95083,0.360789 0.95083,3.081069 0,1.950964 0.14833,2.884011 0.47296,2.975035 0.26013,0.07294 1.15402,0.280427 1.98643,0.461086 1.12354,0.243842 1.54299,0.535393 1.62807,1.131636 0.15889,1.113634 -0.49983,1.260974 -3.73896,0.836309 -1.54434,-0.202472 -3.51365,-0.398784 -4.37625,-0.43625 -0.91329,-0.03967 -1.89107,-0.360175 -2.34096,-0.767333 -1.23077,-1.113872 -1.53031,-0.448626 -0.77829,1.72847 0.37953,1.098722 0.69561,2.619971 0.7024,3.38055 l 0.0123,1.382876 1.4674,-0.196819 c 1.34916,-0.180962 1.49626,-0.110222 1.82567,0.878002 l 0.35827,1.074824 1.35906,-2.124552 c 0.74748,-1.168501 1.55478,-2.245512 1.794,-2.393355 0.78123,-0.482831 0.94596,0.20576 0.29839,1.247299 -1.45654,2.342673 -2.22167,3.945275 -1.99284,4.1741 0.13417,0.134181 0.4305,-0.08937 0.65849,-0.496781 0.73397,-1.311516 2.17655,-2.524706 2.84827,-2.395346 0.46983,0.09048 0.6533,0.496252 0.6533,1.444921 0,1.166492 -0.10254,1.304724 -0.88625,1.194809 -0.74475,-0.104445 -0.84655,7.56e-4 -0.63756,0.65929 0.23493,0.740173 0.12682,0.776553 -1.9515,0.656766 -1.21011,-0.06974 -2.37047,-0.173754 -2.57857,-0.231133 -1.2728,-0.350936 -1.84277,0.828931 -0.87025,1.801453 0.35314,0.353141 0.0865,0.45404 -1.1999,0.45404 -0.96979,0 -1.92462,0.244963 -2.30831,0.592198 -0.44513,0.402837 -0.73585,0.460379 -0.90916,0.179952 z m -28.122229,-1.22619 c -0.249723,-0.249723 -0.454041,-1.100558 -0.454041,-1.890748 0,-1.084757 0.305079,-1.784555 1.245375,-2.856674 0.684956,-0.78098 1.451267,-1.896464 1.702914,-2.478851 0.864739,-2.001272 4.240692,-2.549852 4.240692,-0.689098 0,0.951984 -1.340935,2.070544 -2.209797,1.84333 -0.553145,-0.14465 -0.679064,-0.02743 -0.54035,0.503009 0.131825,0.504099 -0.08797,0.759085 -0.810685,0.940474 -1.887275,0.473675 -3.281588,3.290287 -1.892644,3.823274 1.007442,0.386593 2.741741,-0.72275 4.242229,-2.713533 1.202656,-1.595636 1.646067,-1.910222 2.832048,-2.009271 1.160798,-0.09694 1.406138,0.0054 1.406138,0.586469 0,0.387149 -0.20148,0.905384 -0.44773,1.151637 -0.246258,0.246257 -0.359949,0.535526 -0.25265,0.642824 0.2028,0.202801 2.59222,-3.288948 2.59222,-3.788109 0,-0.397634 1.22798,-1.286627 1.79724,-1.301111 0.64617,-0.01646 0.59701,0.927462 -0.0774,1.487215 -0.99974,0.82971 -2.58911,3.872836 -2.16093,4.13747 0.22066,0.136371 0.27556,0.451234 0.122,0.699688 -0.18753,0.303444 -1.32071,0.424377 -3.451833,0.368383 -3.009083,-0.07906 -3.226234,-0.0297 -4.212141,0.957152 -1.108352,1.109434 -2.866702,1.390372 -3.670605,0.58647 z m -7.058584,-3.302308 c -0.136808,-0.22136 0.173966,-0.595074 0.69061,-0.830471 1.118054,-0.509419 3.20727,-0.122519 2.602749,0.482002 -0.566691,0.566692 -2.999405,0.824096 -3.293359,0.348469 z m 51.017313,-0.955124 c -0.49082,-1.279052 1.21642,-1.871341 2.15036,-0.746016 0.4102,0.494258 0.40193,0.655249 -0.0483,0.940122 -0.82089,0.519438 -1.86529,0.422996 -2.1021,-0.194106 z M 82.031106,74.508865 c 0,-0.686582 1.628722,-5.402587 2.505679,-7.255252 0.600625,-1.268885 0.899357,-1.513469 1.848524,-1.513469 1.058927,0 1.249474,0.242348 2.947119,3.748323 0.998247,2.061576 1.727218,3.977061 1.619937,4.256633 -0.263883,0.687668 -2.282106,0.645972 -2.86738,-0.05924 -0.712356,-0.858337 -2.200828,-0.681398 -3.182986,0.378368 -0.936865,1.010895 -2.870893,1.310434 -2.870893,0.444637 z M 133.78179,74.35031 c -1.24639,-0.772906 -1.58887,-1.527953 -1.00964,-2.225878 0.50262,-0.605619 1.70288,-0.688663 2.04122,-0.141226 0.28398,0.459497 1.70265,0.507379 1.70265,0.05746 0,-0.176494 -0.69954,-0.63635 -1.55453,-1.021899 -2.93198,-1.322137 -3.38187,-3.889681 -0.86577,-4.940975 1.6205,-0.677085 2.5691,-0.664985 3.95256,0.05043 1.3095,0.677171 1.44336,1.685029 0.31721,2.388323 l -0.7991,0.499047 1.05134,1.097372 c 1.3367,1.395207 1.4184,3.204412 0.18964,4.199401 -1.0897,0.882384 -3.63287,0.901582 -5.02558,0.03794 z m 3.30178,-5.772411 c -0.12861,-0.208102 -0.40411,-0.378367 -0.61221,-0.378367 -0.2081,0 -0.27314,0.170265 -0.14452,0.378367 0.12861,0.208102 0.4041,0.378368 0.61221,0.378368 0.2081,0 0.27314,-0.170266 0.14452,-0.378368 z m -35.97246,4.415873 c -0.10614,-0.276598 -0.14336,-2.021817 -0.0827,-3.878266 l 0.11026,-3.375362 1.09405,-0.124892 c 0.6214,-0.07093 1.23187,0.09253 1.41308,0.378368 0.36619,0.577627 0.44557,6.006533 0.10096,6.904558 -0.28183,0.734441 -2.36154,0.809873 -2.63564,0.09559 z M 87.589253,63.566306 c -0.565875,-0.416356 -0.601977,-0.817728 -0.293574,-3.263926 0.593815,-4.710039 1.724719,-4.66213 2.393151,0.101387 0.222744,1.587361 0.336098,2.948042 0.251899,3.023731 -0.519572,0.467056 -1.802423,0.542783 -2.351476,0.138808 z m 44.740267,0.101758 c -0.49576,-0.290095 -0.54455,-0.790565 -0.3001,-3.07839 0.34719,-3.249313 0.50734,-3.741165 1.21812,-3.741165 0.71717,0 0.89536,0.555735 1.21353,3.784613 0.21067,2.137965 0.15515,2.798806 -0.25705,3.059838 -0.66238,0.419462 -1.12562,0.41331 -1.8745,-0.0249 z M 82.787841,56.507513 c 0,-0.187549 1.830352,-1.531041 4.06745,-2.985542 2.237097,-1.4545 4.724413,-3.327761 5.527368,-4.162802 1.063399,-1.105893 2.69081,-2.060787 5.991869,-3.515764 4.506842,-1.98644 4.552012,-2.019136 8.152002,-5.901305 1.99102,-2.147089 3.83556,-3.903798 4.09897,-3.903798 0.2634,0 1.41217,0.852943 2.55282,1.895429 1.14064,1.042486 2.71768,2.164418 3.50453,2.493182 0.78684,0.328764 2.37872,1.414441 3.5375,2.412615 2.01491,1.735631 2.23485,1.826412 5.03804,2.079397 2.91981,0.263511 2.93738,0.271662 4.54309,2.107236 1.22645,1.402008 2.24322,2.096555 4.25148,2.904156 2.56249,1.030472 2.68132,1.137907 4.07123,3.680667 0.78743,1.440568 1.291,2.759905 1.11905,2.931858 -0.17196,0.171956 -0.98363,-0.261445 -1.80371,-0.963116 -2.06603,-1.767714 -6.34688,-3.848449 -9.05841,-4.402898 -2.75956,-0.564271 -3.89957,-1.110517 -2.35292,-1.127426 1.16161,-0.0127 1.72371,-0.876651 1.07718,-1.655666 -0.22797,-0.274682 -1.81427,-0.819124 -3.52512,-1.209872 -2.18408,-0.498831 -3.46872,-1.024854 -4.3128,-1.765965 -0.66119,-0.580533 -1.56813,-1.055514 -2.01541,-1.055514 -0.44729,0 -0.91368,-0.261695 -1.03642,-0.581545 -0.12273,-0.31985 -0.75588,-0.855442 -1.407,-1.190204 -0.65111,-0.334762 -1.776,-1.094659 -2.49974,-1.688659 -0.72375,-0.594001 -1.48995,-1.074337 -1.70266,-1.067413 -0.61597,0.02005 -1.85523,1.187553 -3.37779,3.182207 -1.03892,1.36107 -1.35249,2.081489 -1.18919,2.73215 0.20699,0.824688 0.11178,0.883668 -1.42648,0.883668 -1.31847,0 -2.07115,0.30282 -3.7618,1.51347 -1.735632,1.242858 -2.426404,1.51347 -3.863336,1.51347 -1.406187,0 -1.932006,0.196602 -2.677653,1.001169 -1.281624,1.382895 -1.188756,2.017768 0.301843,2.063486 1.678814,0.05149 3.202802,0.507208 2.711533,0.81083 -0.221304,0.136773 -1.851569,0.428762 -3.622813,0.648866 -1.771244,0.220104 -4.727743,0.909686 -6.569999,1.532407 -3.542873,1.197567 -4.342704,1.343295 -4.342704,0.791226 z m 24.724449,-5.918384 c -0.12323,-0.321128 -0.12921,-0.678708 -0.0133,-0.794623 0.33134,-0.331341 1.01784,0.230672 1.01784,0.833271 0,0.726033 -0.72176,0.698264 -1.00454,-0.03865 z M 99.505583,33.580513 c -0.237445,-0.521135 -0.276577,-0.947518 -0.08696,-0.947518 0.372255,0 0.948187,1.465531 0.680947,1.732767 -0.0893,0.08925 -0.356543,-0.264115 -0.593987,-0.785249 z m 21.887327,-0.56915 c 0,-0.312154 0.16505,-0.82295 0.36678,-1.135103 0.32603,-0.504489 0.36678,-0.504489 0.36678,0 0,0.312153 -0.16505,0.822949 -0.36678,1.135103 -0.32603,0.504489 -0.36678,0.504489 -0.36678,0 z m -8.32988,-2.342467 c -0.003,-0.559999 0.16447,-1.12341 0.37257,-1.252024 0.48314,-0.298595 0.48314,0.955054 0,1.702653 -0.28687,0.443914 -0.36804,0.345746 -0.37257,-0.450629 z"
         id="path445"
         inkscape:connector-curvature="0" />
      <path
         style="fill:#e96f67;stroke-width:0.37836742"
         d="m 69.923347,100.92831 v -3.21612 h 40.863683 40.86369 v 3.21612 3.21613 H 110.78703 69.923347 Z M 119.26119,84.67962 c 0.15112,-0.602085 0.056,-1.499614 -0.22665,-2.138102 -0.50818,-1.148065 -1.28613,-1.282854 -1.19516,-0.207076 0.0751,0.888599 -1.03031,0.770556 -1.2672,-0.135316 -0.27815,-1.063644 -1.92928,-1.017797 -2.32972,0.06469 -0.18283,0.494227 -0.40512,0.657591 -0.55807,0.41012 -0.13981,-0.226219 -0.0827,-0.862341 0.12688,-1.413608 0.6138,-1.61444 0.46206,-1.754652 -1.0322,-0.953773 -0.77731,0.416609 -1.68408,0.757469 -2.01507,0.757469 -0.68744,0 -2.24717,1.526989 -2.24717,2.199998 0,1.092124 -1.50983,1.962043 -3.40531,1.962043 -1.04051,0 -1.89184,-0.100407 -1.89184,-0.223127 0,-0.122719 0.36751,-0.520713 0.81668,-0.884433 0.8286,-0.670952 0.89163,-0.937353 1.83564,-7.757649 0.36071,-2.606077 0.33803,-3.043765 -0.17259,-3.329516 -0.77754,-0.435133 -0.80152,-5.803486 -0.0372,-8.322308 0.62537,-2.060816 0.13057,-2.830858 -0.95642,-1.488479 -0.60201,0.743447 -2.62124,1.17703 -2.62124,0.562848 0,-0.277899 1.56678,-4.387786 2.53864,-6.659251 0.39131,-0.914571 0.9364,-1.508789 1.51792,-1.654744 0.6682,-0.167708 0.83386,-0.389946 0.62853,-0.843192 -0.43102,-0.951429 -0.38168,-3.176991 0.0739,-3.333093 0.22427,-0.07684 0.61329,0.311377 0.8645,0.862717 0.44024,0.966214 0.48339,0.978321 1.19418,0.335061 0.71935,-0.650997 0.73255,-1.06872 0.106,-3.353044 -0.18052,-0.658167 -0.0307,-0.690596 2.0216,-0.437515 1.21911,0.150339 2.27661,0.437505 2.34999,0.638147 0.0734,0.200642 0.73515,1.153114 1.47059,2.116605 0.73545,0.963491 1.45307,2.188068 1.59471,2.721285 0.16485,0.620579 0.56948,1.014925 1.12434,1.095755 0.72543,0.105679 0.83292,0.29577 0.659,1.165391 -0.13548,0.677395 0.10956,1.687125 0.70394,2.900663 l 0.91177,1.861549 0.0118,-2.735956 c 0.0139,-3.206902 0.0602,-3.239275 4.37097,-3.05341 2.5341,0.109261 2.64066,0.152028 2.64066,1.059773 0,0.887408 -0.13606,0.952983 -2.19958,1.060106 -1.83083,0.09505 -2.17918,0.221913 -2.07787,0.756735 0.0839,0.443008 0.56791,0.679408 1.55856,0.761237 2.57855,0.213002 2.22229,1.944169 -0.40264,1.956538 -0.82114,0.0039 -1.22969,0.188662 -1.22969,0.5562 0,0.514966 0.83722,0.773168 3.4053,1.050204 0.72952,0.0787 0.94592,0.318438 0.94592,1.047961 0,1.044672 -0.0489,1.052119 -4.08101,0.621135 -1.7711,-0.189312 -2.2319,-0.122647 -2.41291,0.349078 -0.12306,0.320689 0.5641,2.292786 1.52702,4.382433 0.96293,2.089644 1.75078,3.953603 1.75078,4.142132 0,0.633202 -1.64584,0.350331 -2.47078,-0.424657 -0.44929,-0.422087 -1.07323,-0.669063 -1.38653,-0.548837 -0.49488,0.189903 -0.47714,0.405569 0.13521,1.643227 0.38767,0.783554 0.83037,2.426512 0.98378,3.651023 0.27832,2.221527 0.28174,2.226423 1.56981,2.245731 0.73426,0.01101 1.36537,0.240404 1.46364,0.532015 0.12213,0.362408 -0.0465,0.443076 -0.57531,0.275232 -0.84441,-0.268005 -1.82882,0.63565 -1.41749,1.301198 0.17759,0.28734 0.486,0.214451 0.9785,-0.231251 0.61517,-0.556726 0.71917,-0.566991 0.71917,-0.07098 0,0.318925 -0.2554,0.791824 -0.56755,1.050889 -0.73804,0.61252 -0.7164,1.10022 0.0883,1.989372 0.63869,0.705746 0.60605,0.722031 -1.24974,0.623534 -1.04806,-0.05563 -2.13421,0.04017 -2.41366,0.212881 -0.398,0.245977 -0.45166,0.08917 -0.24766,-0.723661 z m -8.66334,-29.722948 c 0.12861,-0.208102 0.0535,-0.378367 -0.16685,-0.378367 -0.22039,0 -0.4007,0.170265 -0.4007,0.378367 0,0.208103 0.0751,0.378368 0.16685,0.378368 0.0918,0 0.27208,-0.170265 0.4007,-0.378368 z M 90.963222,84.2492 c -0.548823,-1.430206 -0.201188,-2.836367 1.044418,-4.224597 0.700746,-0.78098 1.398059,-1.818116 1.549584,-2.304745 0.43432,-1.394825 3.60858,-2.389058 3.60858,-1.130263 0,0.199861 -0.297964,0.26889 -0.662143,0.153397 -0.385058,-0.12211 -1.132488,0.165165 -1.786115,0.686499 -0.966799,0.771116 -1.05364,0.981224 -0.621018,1.502501 0.433473,0.522302 0.373462,0.655253 -0.434401,0.962404 -1.241572,0.472043 -2.611868,2.25611 -2.472436,3.219002 0.06128,0.423193 0.537081,0.984024 1.057336,1.246293 l 0.945919,0.476853 -1.00003,0.0056 c -0.566847,0.003 -1.099513,-0.253673 -1.229694,-0.592921 z m 5.263269,-1.661018 c -0.287271,-0.464816 0.828395,-2.194905 1.724757,-2.674626 0.662311,-0.354458 2.241492,-0.507387 2.241492,-0.217069 0,0.08026 -0.241921,0.612244 -0.537607,1.182182 -0.295686,0.569935 -0.447735,1.270456 -0.337887,1.556717 0.118443,0.308657 -0.04773,0.520475 -0.408307,0.520475 -0.667498,0 -0.832545,-0.951685 -0.229665,-1.324286 0.208102,-0.128615 0.378367,-0.570317 0.378367,-0.981561 0,-1.183794 -1.48978,-0.177397 -1.763524,1.19132 -0.225051,1.125261 -0.650023,1.422544 -1.067626,0.746848 z m 4.196039,0.05501 c -0.18526,-0.299754 2.30171,-4.640381 3.13769,-5.476357 0.91271,-0.912709 0.81254,0.172096 -0.11801,1.277992 -1.36891,1.626859 -2.21168,3.333315 -1.96443,3.977633 0.21694,0.565342 -0.72101,0.761537 -1.05525,0.220732 z m 24.18183,-0.05451 c -0.2277,-0.368424 3.169,-5.85303 3.45052,-5.571513 0.0825,0.0825 -0.44884,1.144474 -1.18076,2.359941 -0.73191,1.215468 -1.33076,2.517926 -1.33076,2.894345 0,0.732228 -0.56462,0.922978 -0.939,0.317227 z m 2.56662,-0.259492 c -0.28946,-0.754306 1.96556,-2.941035 2.61742,-2.538165 0.26654,0.16473 0.11596,0.376745 -0.40426,0.569182 -0.50816,0.187981 -0.91759,0.74961 -1.0579,1.45116 -0.25148,1.257421 -0.78047,1.494525 -1.15526,0.517823 z m 8.24337,-1.622879 c -0.27981,-0.172933 -0.39175,-0.50372 -0.24876,-0.735092 0.31126,-0.50363 1.22278,-0.55494 1.51312,-0.08517 0.32183,0.520736 -0.68848,1.176181 -1.26436,0.820266 z M 82.258655,74.693853 c -0.117977,-0.19089 0.511204,-2.198432 1.398179,-4.461205 1.420639,-3.624215 1.727854,-4.127679 2.579844,-4.227859 0.531939,-0.06254 1.142589,0.107721 1.357,0.378367 0.422812,0.533714 3.139879,6.784658 3.139879,7.223678 0,0.520009 -2.183783,0.260695 -2.662533,-0.316164 -0.60792,-0.732497 -2.566645,-0.407684 -3.412467,0.56589 -0.718325,0.826823 -2.106954,1.311296 -2.399902,0.837293 z m 4.691228,-4.224117 c 0,-0.420407 -0.252245,-0.756734 -0.567552,-0.756734 -0.57603,0 -0.77613,0.800398 -0.315306,1.261223 0.479691,0.47969 0.882858,0.24931 0.882858,-0.504489 z m 48.620217,4.184267 c -1.49864,-0.357111 -2.83775,-1.219622 -2.83775,-1.827768 0,-0.721009 1.13145,-1.027339 1.93682,-0.524376 1.00026,0.624674 2.22522,0.546 2.22522,-0.142916 0,-0.326853 -0.73315,-0.895259 -1.67604,-1.299431 -1.88357,-0.807391 -2.66198,-1.907354 -2.31843,-3.276155 0.41239,-1.643068 3.91873,-2.260242 5.51188,-0.970183 0.78595,0.636421 0.80108,0.72729 0.21811,1.310252 -0.5107,0.510701 -0.80063,0.547028 -1.5696,0.196664 -0.70651,-0.321908 -1.05236,-0.320568 -1.37828,0.0053 -0.32788,0.327878 -0.10088,0.574736 0.92123,1.001799 1.49918,0.626399 2.9397,2.215754 2.9397,3.243442 0,0.866722 -1.12248,2.147541 -2.08102,2.374573 -0.41621,0.09858 -1.26753,0.05752 -1.89184,-0.09125 z m -7.75653,-0.650167 c -3.24149,-0.352189 -3.06661,-0.102455 -2.94592,-4.20686 0.10711,-3.642607 0.11738,-3.678465 1.05408,-3.678465 0.90746,0 0.95054,0.10704 1.0596,2.632798 0.0625,1.448038 0.28861,2.843586 0.50242,3.101216 0.21382,0.257631 1.09912,0.520127 1.96735,0.583326 1.28804,0.09376 1.57859,0.254187 1.57859,0.871641 0,0.811651 -0.72,0.967542 -3.21612,0.696344 z M 92.120905,73.622797 C 91.98217,73.484065 91.86866,71.696279 91.86866,69.649939 v -3.720612 h 1.306456 c 1.069244,0 1.527291,0.274801 2.522713,1.51347 0.668942,0.832408 1.358027,1.51347 1.5313,1.51347 0.173273,0 0.315042,-0.662847 0.315042,-1.472988 0,-0.994134 0.194567,-1.547652 0.598497,-1.702654 0.800047,-0.307007 0.778264,-0.312323 1.442568,0.35198 0.470744,0.47075 0.537084,1.174131 0.347945,3.689083 -0.128535,1.709089 -0.420681,3.232529 -0.649212,3.385419 -0.948785,0.634746 -1.814519,0.187311 -3.100206,-1.602268 -0.747532,-1.040511 -1.513443,-1.891837 -1.702024,-1.891837 -0.188581,0 -0.342875,0.833112 -0.342875,1.851355 0,1.339156 -0.165582,1.914895 -0.598496,2.081021 -0.769359,0.295232 -1.107024,0.28986 -1.419463,-0.02259 z m 9.206945,-4.098979 v -3.644753 l 1.04051,0.119723 1.04051,0.119723 v 3.405307 3.405307 l -1.04051,0.119723 -1.04051,0.119723 z m -6.058336,-5.420424 c -1.283778,-1.048501 -0.540145,-1.768557 1.826465,-1.768557 2.275577,0 2.443456,-0.9226 0.278413,-1.53005 -3.945798,-1.107076 -3.519908,-5.09138 0.544227,-5.09138 2.301361,0 3.030861,0.275361 3.030861,1.144055 0,0.85825 -0.59311,1.078986 -2.226394,0.828594 -1.618414,-0.248114 -1.490113,0.642597 0.16902,1.173393 4.131624,1.321811 3.427194,5.324375 -1.025389,5.826245 -1.291107,0.145528 -1.863069,0.01729 -2.597203,-0.5823 z m 37.469476,-0.818533 c -0.36087,-0.223029 -0.4407,-1.025338 -0.29902,-3.005441 0.1063,-1.485656 0.30354,-2.811463 0.43831,-2.946233 0.52648,-0.526476 0.94478,0.576299 1.19385,3.14732 0.21053,2.173263 0.15511,2.726414 -0.29032,2.897341 -0.30279,0.116193 -0.77206,0.07435 -1.04282,-0.09299 z M 87.613522,63.018619 c -0.246528,-0.457707 0.251891,-5.319925 0.578854,-5.646888 0.581053,-0.581051 0.964066,0.499525 1.08862,3.071269 0.11968,2.471114 0.07363,2.656359 -0.687349,2.764802 -0.448593,0.06393 -0.88965,-0.02119 -0.980125,-0.189183 z m -4.068946,-6.720691 c 0,-0.102651 1.574954,-1.23806 3.499898,-2.523131 1.924945,-1.285073 4.351226,-3.119817 5.391737,-4.077209 1.753177,-1.61313 2.844989,-2.213159 8.524639,-4.684908 1.64716,-0.716837 2.84872,-1.728258 5.64689,-4.753303 1.95497,-2.113489 3.75873,-3.842708 4.00834,-3.842708 0.24962,0 1.47709,0.913025 2.72773,2.028944 1.25063,1.115919 2.74351,2.146814 3.3175,2.290876 0.57399,0.144063 2.05692,1.143277 3.2954,2.220477 2.18855,1.90354 2.33275,1.965166 5.13455,2.194337 l 2.88277,0.235792 1.71701,1.935014 c 1.33443,1.503848 2.26503,2.139006 4.17641,2.850498 2.25779,0.840441 2.56233,1.090858 3.71527,3.054966 0.69074,1.176717 1.19753,2.314578 1.12619,2.528586 -0.0713,0.214005 -0.80675,-0.151109 -1.63425,-0.811364 -1.90606,-1.520808 -5.19063,-3.191403 -7.3788,-3.752993 -2.79762,-0.718004 -2.71613,-0.659984 -2.17464,-1.548329 0.70354,-1.154167 -0.43792,-1.932026 -4.09208,-2.788613 -2.07629,-0.486711 -3.37462,-1.034137 -4.2366,-1.786309 -0.68357,-0.596493 -1.45449,-1.084534 -1.71316,-1.084534 -0.25866,0 -0.76186,-0.34053 -1.11823,-0.756734 -0.35636,-0.416204 -0.88646,-0.756735 -1.17799,-0.756735 -0.29153,0 -1.35423,-0.681062 -2.36157,-1.51347 -1.00732,-0.832408 -2.012,-1.513469 -2.23262,-1.513469 -0.43309,0 -2.94745,2.53154 -4.28679,4.316085 -0.49018,0.653115 -0.73564,1.383226 -0.60424,1.797245 0.18911,0.595826 0.007,0.697283 -1.24932,0.697283 -1.12541,0 -1.94682,0.35528 -3.49914,1.51347 -1.717489,1.281417 -2.311367,1.513469 -3.87334,1.513469 -1.598693,0 -1.994695,0.164066 -2.968078,1.229694 -1.336497,1.463154 -1.292108,2.320537 0.12863,2.48452 1.774438,0.204809 1.141302,0.716681 -1.2164,0.983426 -1.23952,0.140234 -3.410404,0.646089 -4.824185,1.124114 -3.096095,1.046856 -4.651531,1.446457 -4.651531,1.195013 z m 23.967714,-5.708799 c -0.12323,-0.321128 -0.12921,-0.678708 -0.0133,-0.794623 0.33134,-0.331341 1.01784,0.230672 1.01784,0.833271 0,0.726033 -0.72176,0.698264 -1.00454,-0.03865 z"
         id="path443"
         inkscape:connector-curvature="0" />
      <path
         style="fill:#7a7884;stroke-width:0.37836742"
         d="m 69.923347,100.92831 v -3.21612 h 40.863683 40.86369 v 3.21612 3.21613 H 110.78703 69.923347 Z M 119.31436,84.548424 c 0.1452,-0.746938 0.0648,-1.458825 -0.20104,-1.779087 -0.25837,-0.311321 -0.33023,-0.896379 -0.17236,-1.40338 0.26995,-0.866991 0.26838,-0.867384 -0.54964,-0.136624 -0.4512,0.403074 -0.73457,0.956437 -0.62971,1.229694 0.10727,0.279541 -0.0679,0.496834 -0.40044,0.496834 -0.32511,0 -0.68015,-0.340531 -0.78899,-0.756735 -0.27815,-1.063644 -1.92928,-1.017797 -2.32972,0.06469 -0.18283,0.494227 -0.40512,0.657591 -0.55807,0.41012 -0.13981,-0.226219 -0.0827,-0.862341 0.12688,-1.413608 0.6138,-1.61444 0.46206,-1.754652 -1.0322,-0.953773 -0.77731,0.416609 -1.68408,0.757469 -2.01507,0.757469 -0.71569,0 -1.93411,1.30514 -2.53027,2.710348 -0.47231,1.113282 -1.84367,1.746483 -2.45609,1.134058 -0.2715,-0.271502 0.0908,-0.94223 1.17319,-2.171878 1.71074,-1.943504 1.77122,-2.110912 1.13228,-3.134025 -1.05285,-1.685877 0.62647,-3.735429 3.35165,-4.090576 1.79221,-0.233558 3.13595,0.854766 3.13595,2.539875 0,0.974818 0.13762,1.120361 1.05943,1.120361 0.58268,0 1.24453,0.185101 1.47076,0.411334 0.2962,0.296205 0.48249,0.296205 0.66556,0 0.28464,-0.460567 2.09815,-0.570351 2.10718,-0.127559 0.003,0.156077 0.16306,0.532405 0.35527,0.836283 0.30019,0.474586 0.45506,0.456958 1.09811,-0.124997 0.83415,-0.754896 2.36285,-0.705273 2.62341,0.08516 0.11927,0.361825 -0.0511,0.442807 -0.57909,0.275232 -0.8444,-0.268005 -1.82881,0.63565 -1.41748,1.301198 0.17759,0.28734 0.486,0.214451 0.9785,-0.231251 0.59429,-0.537834 0.71917,-0.553566 0.71917,-0.0906 0,0.663781 -1.5506,2.205617 -2.21815,2.205617 -0.2567,0 -0.89295,0.468229 -1.4139,1.04051 l -0.94718,1.040511 z m -6.77715,-5.58485 c 0.93715,-1.430267 0.11029,-2.054528 -0.94475,-0.713264 -0.44299,0.563162 -0.80543,1.171232 -0.80543,1.351271 0,0.698307 1.14905,0.279436 1.75018,-0.638007 z M 90.963222,84.2492 c -0.548823,-1.430206 -0.201188,-2.836367 1.044418,-4.224597 0.700746,-0.78098 1.398059,-1.818116 1.549584,-2.304745 0.43432,-1.394825 3.60858,-2.389058 3.60858,-1.130263 0,0.199861 -0.297964,0.26889 -0.662143,0.153397 -0.385058,-0.12211 -1.132488,0.165165 -1.786115,0.686499 -0.966799,0.771116 -1.05364,0.981224 -0.621018,1.502501 0.433473,0.522302 0.373462,0.655253 -0.434401,0.962404 -1.241572,0.472043 -2.611868,2.25611 -2.472436,3.219002 0.06128,0.423193 0.537081,0.984024 1.057336,1.246293 l 0.945919,0.476853 -1.00003,0.0056 c -0.566847,0.003 -1.099513,-0.253673 -1.229694,-0.592921 z m 5.263269,-1.661018 c -0.287271,-0.464816 0.828395,-2.194905 1.724757,-2.674626 0.662311,-0.354458 2.241492,-0.507387 2.241492,-0.217069 0,0.08026 -0.241921,0.612244 -0.537607,1.182182 -0.295686,0.569935 -0.447735,1.270456 -0.337887,1.556717 0.118443,0.308657 -0.04773,0.520475 -0.408307,0.520475 -0.667498,0 -0.832545,-0.951685 -0.229665,-1.324286 0.208102,-0.128615 0.378367,-0.570317 0.378367,-0.981561 0,-1.183794 -1.48978,-0.177397 -1.763524,1.19132 -0.225051,1.125261 -0.650023,1.422544 -1.067626,0.746848 z m 4.196039,0.05501 c -0.18526,-0.299754 2.30171,-4.640381 3.13769,-5.476357 0.91271,-0.912709 0.81254,0.172096 -0.11801,1.277992 -1.36891,1.626859 -2.21168,3.333315 -1.96443,3.977633 0.21694,0.565342 -0.72101,0.761537 -1.05525,0.220732 z m 24.18183,-0.05451 c -0.2277,-0.368424 3.169,-5.85303 3.45052,-5.571513 0.0825,0.0825 -0.44884,1.144474 -1.18076,2.359941 -0.73191,1.215468 -1.33076,2.517926 -1.33076,2.894345 0,0.732228 -0.56462,0.922978 -0.939,0.317227 z m 2.56662,-0.259492 c -0.28946,-0.754306 1.96556,-2.941035 2.61742,-2.538165 0.26654,0.16473 0.11596,0.376745 -0.40426,0.569182 -0.50816,0.187981 -0.91759,0.74961 -1.0579,1.45116 -0.25148,1.257421 -0.78047,1.494525 -1.15526,0.517823 z m 8.24337,-1.622879 c -0.27981,-0.172933 -0.39175,-0.50372 -0.24876,-0.735092 0.31126,-0.50363 1.22278,-0.55494 1.51312,-0.08517 0.32183,0.520736 -0.68848,1.176181 -1.26436,0.820266 z M 82.258655,74.693853 c -0.117977,-0.19089 0.511204,-2.198432 1.398179,-4.461205 1.420639,-3.624215 1.727854,-4.127679 2.579844,-4.227859 0.531939,-0.06254 1.142589,0.107721 1.357,0.378367 0.422812,0.533714 3.139879,6.784658 3.139879,7.223678 0,0.520009 -2.183783,0.260695 -2.662533,-0.316164 -0.60792,-0.732497 -2.566645,-0.407684 -3.412467,0.56589 -0.718325,0.826823 -2.106954,1.311296 -2.399902,0.837293 z m 4.691228,-4.224117 c 0,-0.420407 -0.252245,-0.756734 -0.567552,-0.756734 -0.57603,0 -0.77613,0.800398 -0.315306,1.261223 0.479691,0.47969 0.882858,0.24931 0.882858,-0.504489 z m 48.620217,4.184267 c -1.49864,-0.357111 -2.83775,-1.219622 -2.83775,-1.827768 0,-0.721009 1.13145,-1.027339 1.93682,-0.524376 1.00026,0.624674 2.22522,0.546 2.22522,-0.142916 0,-0.326853 -0.73315,-0.895259 -1.67604,-1.299431 -1.88357,-0.807391 -2.66198,-1.907354 -2.31843,-3.276155 0.41239,-1.643068 3.91873,-2.260242 5.51188,-0.970183 0.78595,0.636421 0.80108,0.72729 0.21811,1.310252 -0.5107,0.510701 -0.80063,0.547028 -1.5696,0.196664 -0.70651,-0.321908 -1.05236,-0.320568 -1.37828,0.0053 -0.32788,0.327878 -0.10088,0.574736 0.92123,1.001799 1.49918,0.626399 2.9397,2.215754 2.9397,3.243442 0,0.866722 -1.12248,2.147541 -2.08102,2.374573 -0.41621,0.09858 -1.26753,0.05752 -1.89184,-0.09125 z m -7.75653,-0.650167 c -3.24149,-0.352189 -3.06661,-0.102455 -2.94592,-4.20686 0.10711,-3.642607 0.11738,-3.678465 1.05408,-3.678465 0.90746,0 0.95054,0.10704 1.0596,2.632798 0.0625,1.448038 0.28861,2.843586 0.50242,3.101216 0.21382,0.257631 1.09912,0.520127 1.96735,0.583326 1.28804,0.09376 1.57859,0.254187 1.57859,0.871641 0,0.811651 -0.72,0.967542 -3.21612,0.696344 z M 92.120905,73.622797 C 91.98217,73.484065 91.86866,71.696279 91.86866,69.649939 v -3.720612 h 1.306456 c 1.069244,0 1.527291,0.274801 2.522713,1.51347 0.668942,0.832408 1.358027,1.51347 1.5313,1.51347 0.173273,0 0.315042,-0.662847 0.315042,-1.472988 0,-0.994134 0.194567,-1.547652 0.598497,-1.702654 0.800047,-0.307007 0.778264,-0.312323 1.442568,0.35198 0.470744,0.47075 0.537084,1.174131 0.347945,3.689083 -0.128535,1.709089 -0.420681,3.232529 -0.649212,3.385419 -0.948785,0.634746 -1.814519,0.187311 -3.100206,-1.602268 -0.747532,-1.040511 -1.513443,-1.891837 -1.702024,-1.891837 -0.188581,0 -0.342875,0.833112 -0.342875,1.851355 0,1.339156 -0.165582,1.914895 -0.598496,2.081021 -0.769359,0.295232 -1.107024,0.28986 -1.419463,-0.02259 z m 13.629425,-0.594779 c -0.57108,-0.417581 -0.65439,-0.989998 -0.56023,-3.849218 0.15241,-4.628126 0.50377,-4.835184 3.93034,-2.316214 0.34962,0.25701 0.77137,0.108394 1.419,-0.50002 0.66572,-0.625408 1.27438,-0.831958 2.19262,-0.744075 l 1.2711,0.121653 0.10251,2.837755 c 0.14201,3.930821 0.31573,4.230118 1.41586,2.439293 0.50457,-0.821356 0.92271,-1.751814 0.92921,-2.067687 0.007,-0.315868 0.4436,-1.209761 0.97136,-1.986429 0.68199,-1.003634 1.23559,-1.412116 1.91379,-1.412116 0.8365,0 1.16155,0.446719 2.63493,3.621192 0.92439,1.991654 1.68071,3.77944 1.68071,3.972858 0,0.647689 -1.76658,0.360478 -2.45385,-0.398951 -0.7405,-0.818238 -2.15263,-0.716662 -3.25146,0.233884 -0.7481,0.647148 -2.87528,0.677111 -3.1075,0.04377 -0.13874,-0.378367 -0.27369,-0.378367 -0.67476,0 -0.71253,0.6722 -2.49376,0.591442 -2.76889,-0.125538 -0.12632,-0.329172 -0.22967,-1.036621 -0.22967,-1.572113 0,-0.919255 -0.0386,-0.93865 -0.69194,-0.347421 -0.87391,0.790879 -1.35064,0.789956 -2.0049,-0.0039 -0.46247,-0.561149 -0.53998,-0.468407 -0.70847,0.84766 -0.2057,1.606802 -0.89533,2.020494 -2.00976,1.205604 z m -4.42248,-3.5042 v -3.644753 l 1.04051,0.119723 1.04051,0.119723 v 3.405307 3.405307 l -1.04051,0.119723 -1.04051,0.119723 z m -6.058336,-5.420424 c -1.283778,-1.048501 -0.540145,-1.768557 1.826465,-1.768557 2.275577,0 2.443456,-0.9226 0.278413,-1.53005 -3.945798,-1.107076 -3.519908,-5.09138 0.544227,-5.09138 2.301361,0 3.030861,0.275361 3.030861,1.144055 0,0.85825 -0.59311,1.078986 -2.226394,0.828594 -1.618414,-0.248114 -1.490113,0.642597 0.16902,1.173393 4.131624,1.321811 3.427194,5.324375 -1.025389,5.826245 -1.291107,0.145528 -1.863069,0.01729 -2.597203,-0.5823 z m 30.255256,0.546113 c -0.094,-0.09398 -1.32614,-0.247789 -2.73812,-0.34179 -1.41198,-0.09401 -2.68336,-0.287038 -2.82529,-0.428967 -0.45013,-0.450132 -0.083,-7.936578 0.4049,-8.255527 0.24613,-0.160915 1.80963,-0.249018 3.47445,-0.195786 2.95068,0.09435 3.02694,0.120616 3.02694,1.042705 0,0.887408 -0.13606,0.952983 -2.19958,1.060106 -1.83083,0.09505 -2.17918,0.221913 -2.07788,0.756735 0.0839,0.443008 0.56792,0.679408 1.55856,0.761237 2.57856,0.213002 2.2223,1.944169 -0.40263,1.956538 -0.82114,0.0039 -1.2297,0.188662 -1.2297,0.5562 0,0.514966 0.83722,0.773168 3.40531,1.050204 0.72798,0.07853 0.94592,0.318783 0.94592,1.042777 0,0.837634 -0.86186,1.476587 -1.34288,0.995568 z m -23.44019,-0.866106 c 0,-0.277899 1.56678,-4.387786 2.53864,-6.659251 0.91989,-2.149971 3.13968,-2.447814 3.87277,-0.519638 0.19039,0.500773 0.96278,2.209889 1.71642,3.798033 0.75364,1.588144 1.26632,3.055703 1.13929,3.261239 -0.33773,0.546465 -2.11228,0.456217 -2.80508,-0.142655 -0.32854,-0.284003 -1.2406,-0.614602 -2.0268,-0.734665 -1.1522,-0.17596 -1.51844,-0.07581 -1.88826,0.516362 -0.42739,0.684357 -2.54698,1.084291 -2.54698,0.480575 z m 10.50137,-0.598009 c -0.89763,-1.369963 -3.43318,-7.47732 -3.20078,-7.709713 0.11678,-0.116779 0.77793,-0.238761 1.46923,-0.271074 1.14679,-0.0536 1.33215,0.09872 2.11554,1.738496 0.47225,0.988485 1.01241,1.797246 1.20036,1.797246 0.18794,0 0.53891,-0.597484 0.77992,-1.327745 0.59456,-1.801536 1.27052,-2.397215 2.46188,-2.169471 0.93034,0.177844 0.97718,0.28701 0.75046,1.748859 -0.29126,1.877887 -1.64215,5.466482 -2.40297,6.383357 -0.78716,0.948632 -2.49456,0.846439 -3.17364,-0.189955 z m 20.15304,0.09947 c -0.36087,-0.223029 -0.4407,-1.025338 -0.29902,-3.005441 0.1063,-1.485656 0.30354,-2.811463 0.43831,-2.946233 0.52648,-0.526476 0.94478,0.576299 1.19385,3.14732 0.21053,2.173263 0.15511,2.726414 -0.29032,2.897341 -0.30279,0.116193 -0.77206,0.07435 -1.04282,-0.09299 z M 87.613522,63.018619 c -0.246528,-0.457707 0.251891,-5.319925 0.578854,-5.646888 0.581053,-0.581051 0.964066,0.499525 1.08862,3.071269 0.11968,2.471114 0.07363,2.656359 -0.687349,2.764802 -0.448593,0.06393 -0.88965,-0.02119 -0.980125,-0.189183 z m -4.068946,-6.720691 c 0,-0.102651 1.574954,-1.23806 3.499898,-2.523131 1.924945,-1.285073 4.351226,-3.119817 5.391737,-4.077209 1.753177,-1.61313 2.844989,-2.213159 8.524639,-4.684908 1.64716,-0.716837 2.84872,-1.728258 5.64689,-4.753303 1.95497,-2.113489 3.75873,-3.842708 4.00834,-3.842708 0.24962,0 1.47709,0.913025 2.72773,2.028944 1.25063,1.115919 2.74351,2.146814 3.3175,2.290876 0.57399,0.144063 2.05692,1.143277 3.2954,2.220477 2.18855,1.90354 2.33275,1.965166 5.13455,2.194337 l 2.88277,0.235792 1.71701,1.935014 c 1.33443,1.503848 2.26503,2.139006 4.17641,2.850498 2.25779,0.840441 2.56233,1.090858 3.71527,3.054966 0.69074,1.176717 1.19753,2.314578 1.12619,2.528586 -0.0713,0.214005 -0.80675,-0.151109 -1.63425,-0.811364 -1.90606,-1.520808 -5.19063,-3.191403 -7.3788,-3.752993 -2.79762,-0.718004 -2.71613,-0.659984 -2.17464,-1.548329 0.70354,-1.154167 -0.43792,-1.932026 -4.09208,-2.788613 -2.07629,-0.486711 -3.37462,-1.034137 -4.2366,-1.786309 -0.68357,-0.596493 -1.45449,-1.084534 -1.71316,-1.084534 -0.25866,0 -0.76186,-0.34053 -1.11823,-0.756734 -0.35636,-0.416204 -0.88646,-0.756735 -1.17799,-0.756735 -0.29153,0 -1.35423,-0.681062 -2.36157,-1.51347 -1.00732,-0.832408 -2.012,-1.513469 -2.23262,-1.513469 -0.43309,0 -2.94745,2.53154 -4.28679,4.316085 -0.49018,0.653115 -0.73564,1.383226 -0.60424,1.797245 0.18911,0.595826 0.007,0.697283 -1.24932,0.697283 -1.12541,0 -1.94682,0.35528 -3.49914,1.51347 -1.717489,1.281417 -2.311367,1.513469 -3.87334,1.513469 -1.598693,0 -1.994695,0.164066 -2.968078,1.229694 -1.336497,1.463154 -1.292108,2.320537 0.12863,2.48452 1.774438,0.204809 1.141302,0.716681 -1.2164,0.983426 -1.23952,0.140234 -3.410404,0.646089 -4.824185,1.124114 -3.096095,1.046856 -4.651531,1.446457 -4.651531,1.195013 z"
         id="path441"
         inkscape:connector-curvature="0" />
      <path
         style="fill:#9c5a5d;stroke-width:0.37836742"
         d="m 69.923347,100.92831 v -3.21612 h 40.863683 40.86369 v 3.21612 3.21613 H 110.78703 69.923347 Z m 16.458984,-0.18918 c -0.183063,-0.2962 -0.400717,-0.31818 -0.652962,-0.0659 -0.208102,0.20811 -0.254799,0.57831 -0.103772,0.82267 0.183063,0.29621 0.400717,0.31818 0.652961,0.0659 0.208103,-0.2081 0.2548,-0.5783 0.103773,-0.82267 z m -1.702653,0.37837 c 0,-0.20811 -0.297964,-0.38024 -0.662143,-0.38254 -0.364179,-0.002 -1.304056,-0.11025 -2.088617,-0.23992 -1.217315,-0.20119 -1.391685,-0.1451 -1.189213,0.38253 0.174821,0.45558 0.724483,0.61829 2.088617,0.61829 1.018246,0 1.851356,-0.17026 1.851356,-0.37836 z M 105.68797,84.862091 c -0.13797,-0.223233 0.44209,-1.193091 1.289,-2.155241 1.68369,-1.912765 1.74421,-2.082614 1.10614,-3.104323 -1.05285,-1.685877 0.62647,-3.735429 3.35165,-4.090576 1.79221,-0.233558 3.13595,0.854766 3.13595,2.539875 0,0.974818 0.13762,1.120361 1.05943,1.120361 0.58268,0 1.24453,0.185101 1.47076,0.411334 0.2962,0.296205 0.48249,0.296205 0.66556,0 0.44179,-0.714842 2.03008,-0.475343 2.29058,0.345401 0.27551,0.868061 0.60368,0.947617 1.24861,0.302694 0.35314,-0.353142 0.45404,-0.243836 0.45404,0.491877 0,0.520255 0.19287,1.138792 0.42861,1.374526 0.59748,0.597487 0.12211,1.614577 -0.75462,1.614577 -0.40047,0 -0.82614,0.255398 -0.94592,0.567551 -0.35453,0.92389 -1.03489,0.655991 -0.79198,-0.311851 0.14093,-0.561501 0.004,-1.059538 -0.3797,-1.377707 -0.35098,-0.291283 -0.50809,-0.789191 -0.37818,-1.19849 0.18917,-0.596046 0.0932,-0.652457 -0.64529,-0.379268 -1.0657,0.394221 -3.34631,-0.186335 -3.94424,-1.004051 -0.70054,-0.958053 -4.50014,1.137656 -6.02916,3.325448 -1.19848,1.714848 -2.16782,2.277704 -2.63124,1.527863 z m 6.84924,-5.898517 c 0.93715,-1.430267 0.11029,-2.054528 -0.94475,-0.713264 -0.44299,0.563162 -0.80543,1.171232 -0.80543,1.351271 0,0.698307 1.14905,0.279436 1.75018,-0.638007 z m 23.03289,1.343715 c -0.12861,-0.208102 0.0417,-0.378367 0.37837,-0.378367 0.33672,0 0.50698,0.170265 0.37837,0.378367 -0.12862,0.208102 -0.29888,0.378367 -0.37837,0.378367 -0.0795,0 -0.24975,-0.170265 -0.37837,-0.378367 z M 82.409473,74.487643 c 0,-0.240513 1.869549,-5.247468 2.516195,-6.738785 0.93204,-2.149497 2.37167,-2.23452 3.002034,-0.177299 0.137715,0.449436 0.746728,1.826739 1.353363,3.060671 1.465901,2.981732 1.079107,4.131182 -0.832313,2.473414 -0.487917,-0.423166 -1.123824,-0.678564 -1.413125,-0.567551 -0.289302,0.111017 -0.943085,0.201848 -1.452851,0.201848 -0.5374,0 -1.0295,0.278221 -1.17115,0.662143 -0.134366,0.364178 -0.426987,0.787235 -0.650268,0.940125 -0.426849,0.292282 -1.351885,0.391796 -1.351885,0.145434 z m 4.729593,-4.20709 c 0,-1.417679 -0.817621,-1.641476 -1.391935,-0.380994 -0.374333,0.821572 -0.358224,1.065089 0.08916,1.347859 0.850966,0.537849 1.302773,0.202536 1.302773,-0.966865 z m 47.201344,3.7278 c -1.21123,-0.59709 -1.58216,-1.384283 -0.86202,-1.829357 0.20223,-0.124982 0.80351,0.05833 1.3362,0.407354 0.73909,0.484269 1.24997,0.553877 2.15665,0.293844 1.33209,-0.382038 1.87313,-1.258794 0.806,-1.30612 -0.38152,-0.01691 -1.545,-0.485151 -2.58551,-1.040511 -1.52536,-0.814144 -1.91645,-1.226016 -2.01889,-2.12619 -0.0845,-0.742758 0.098,-1.280989 0.54528,-1.608062 1.22494,-0.895694 5.0681,-0.428342 5.0681,0.616315 0,0.575214 -1.1443,0.784568 -1.85667,0.339687 -0.81332,-0.507924 -2.05793,-0.142519 -1.83593,0.539011 0.0847,0.260018 0.65222,0.707623 1.26115,0.994683 2.76137,1.301724 3.69142,3.547262 1.9689,4.753766 -1.06825,0.748226 -2.41931,0.736553 -3.98326,-0.03443 z m -7.56735,-0.401875 -1.60806,-0.153315 v -3.599049 c 0,-3.51593 0.0197,-3.596258 0.85132,-3.478143 0.79608,0.11306 0.84445,0.280507 0.74539,2.580296 -0.0583,1.352663 0.0576,2.705645 0.25742,3.006621 0.19985,0.30098 1.14695,0.64151 2.10467,0.756734 0.95772,0.115228 1.77834,0.379768 1.8236,0.58787 0.09,0.413707 -1.65795,0.538901 -4.17434,0.298986 z M 92.247027,69.890312 c 0,-2.864828 0.1173,-3.651378 0.570472,-3.825279 0.771948,-0.296224 2.389391,0.817372 3.154838,2.172075 0.896746,1.587081 1.734955,1.262998 1.878505,-0.726299 0.103231,-1.430566 0.218003,-1.613806 0.945918,-1.510205 0.782232,0.111331 0.828432,0.307813 0.828432,3.523214 v 3.405307 l -1.00725,0.116514 c -0.835536,0.09665 -1.218299,-0.193614 -2.245233,-1.702653 -2.058563,-3.02498 -2.612212,-3.004847 -2.612212,0.095 0,1.806443 -0.09272,2.05869 -0.756735,2.05869 -0.703806,0 -0.756735,-0.252247 -0.756735,-3.606364 z m 13.617883,3.064137 c -0.44897,-0.447666 -0.52557,-1.27973 -0.37502,-4.07389 0.21549,-3.999699 0.60528,-4.4233 2.55814,-2.780073 1.38519,1.165553 1.66396,1.186068 2.56643,0.188854 0.50783,-0.561145 1.07232,-0.743912 2.04507,-0.662143 l 1.34363,0.112947 0.10251,2.837755 c 0.14201,3.930821 0.31573,4.230118 1.41586,2.439293 0.50457,-0.821356 0.92271,-1.751814 0.92921,-2.067687 0.0227,-1.10484 1.89482,-3.398806 2.76861,-3.392484 0.68107,0.0049 1.12065,0.616414 2.35116,3.270593 0.8324,1.79549 1.56852,3.495415 1.6358,3.777609 0.16816,0.705292 -1.05055,0.646388 -1.86438,-0.09011 -0.76536,-0.692647 -2.64994,-0.448687 -3.3861,0.438335 -0.55414,0.667697 -2.87884,0.720101 -3.11711,0.07027 -0.13874,-0.378367 -0.27369,-0.378367 -0.67476,0 -0.71253,0.6722 -2.49376,0.591442 -2.76889,-0.125538 -0.12632,-0.329172 -0.22967,-1.036621 -0.22967,-1.572113 0,-0.919255 -0.0386,-0.93865 -0.69194,-0.347421 -0.87391,0.790879 -1.35064,0.789956 -2.0049,-0.0039 -0.46247,-0.561149 -0.53998,-0.468407 -0.70847,0.84766 -0.2064,1.612273 -0.9613,2.063192 -1.89518,1.132034 z m 14.38131,-3.120922 c 0,-0.480977 -0.10531,-0.504152 -0.56339,-0.123984 -0.30986,0.257165 -0.46836,0.621321 -0.35222,0.809237 0.2985,0.482975 0.91561,0.02111 0.91561,-0.685253 z m -18.31383,3.006465 c -0.1244,-0.124395 -0.22618,-1.742669 -0.22618,-3.596162 0,-3.005494 0.0716,-3.356297 0.66215,-3.243396 0.55912,0.106896 0.67904,0.633879 0.77079,3.387172 0.0854,2.561403 -0.008,3.305395 -0.43596,3.469572 -0.29955,0.114944 -0.64641,0.10721 -0.7708,-0.01718 z M 95.455158,63.88925 c -0.607634,-0.444313 -0.64229,-0.620455 -0.22177,-1.127149 0.367,-0.44221 0.68089,-0.502885 1.190537,-0.230131 0.917994,0.491295 2.005961,0.467825 3.183464,-0.06869 1.535271,-0.699518 1.131961,-1.266581 -1.250869,-1.758746 -3.053337,-0.630655 -4.104462,-1.946576 -3.08157,-3.857868 0.476273,-0.889924 3.187696,-1.343488 4.664773,-0.780319 1.651097,0.62952 1.042887,1.36921 -1.01643,1.236168 -1.543933,-0.09974 -1.757489,-0.02145 -1.757489,0.644356 0,0.549 0.377353,0.862095 1.369038,1.135912 1.843108,0.508904 2.793008,1.443737 2.793008,2.748703 0,2.017096 -4.007795,3.421406 -5.872692,2.057759 z m 24.347282,-0.597772 c -0.23414,-0.611638 -0.2193,-1.239599 0.0429,-1.815047 0.22049,-0.483921 0.40089,-1.978566 0.40089,-3.321438 v -2.441586 h 3.21612 c 2.93645,0 3.21613,0.06416 3.21613,0.737855 0,0.632853 -0.3096,0.753999 -2.17562,0.851326 -1.90831,0.09953 -2.1901,0.215257 -2.29352,0.941904 -0.1036,0.727915 0.0796,0.842689 1.51021,0.945919 1.16823,0.0843 1.66234,0.298051 1.7493,0.756735 0.096,0.506539 -0.21749,0.663637 -1.5102,0.756734 -1.33637,0.09624 -1.6314,0.253495 -1.6314,0.869546 0,0.611048 0.34409,0.80128 1.83512,1.014561 2.396,0.342733 2.99168,0.59087 2.79898,1.165928 -0.11064,0.330164 -1.16019,0.472759 -3.47966,0.472759 -3.18369,0 -3.33606,-0.03873 -3.67924,-0.935196 z m -17.1345,0.393223 c -0.1482,-0.239791 0.81781,-3.05019 2.36529,-6.881285 0.60283,-1.49244 3.4836,-1.735784 3.4836,-0.294268 0,0.178593 0.69,1.777056 1.53334,3.552136 0.84334,1.77508 1.42922,3.395893 1.30196,3.601812 -0.35619,0.576318 -2.30699,0.443416 -2.8353,-0.193157 -0.25907,-0.312153 -0.96098,-0.567551 -1.5598,-0.567551 -0.59883,0 -1.08877,-0.170265 -1.08877,-0.378367 0,-0.688387 -1.20229,-0.392371 -1.39469,0.343387 -0.19295,0.737835 -1.49148,1.325599 -1.80563,0.817293 z m 9.91801,-0.499309 c -0.79588,-1.214669 -3.4455,-7.464996 -3.24818,-7.662311 0.0907,-0.09071 0.75186,-0.212688 1.46923,-0.271074 1.21842,-0.09916 1.36087,0.01222 2.16294,1.691094 0.47225,0.988485 1.01241,1.797246 1.20036,1.797246 0.18794,0 0.53891,-0.597484 0.77992,-1.327745 0.64756,-1.962149 1.29494,-2.487319 2.4147,-1.95888 0.77668,0.366536 0.88586,0.631658 0.72657,1.764396 -0.23448,1.667442 -1.60152,5.277037 -2.3319,6.157229 -0.78716,0.948632 -2.49456,0.846439 -3.17364,-0.189955 z M 87.993346,62.618613 c -0.275792,-0.574203 0.17014,-5.013369 0.503613,-5.013369 0.189619,0 0.346635,0.553363 0.348925,1.229694 0.0023,0.676332 0.109701,1.86819 0.23869,2.648572 0.187979,1.137267 0.116488,1.418878 -0.360201,1.418878 -0.327101,0 -0.656062,-0.127699 -0.731027,-0.283775 z m 44.739004,-2.153282 c 0,-2.471704 0.48328,-3.550815 0.89773,-2.004503 0.12487,0.465887 0.22936,1.65583 0.2322,2.644315 0.004,1.347601 -0.13683,1.797245 -0.56238,1.797245 -0.44575,0 -0.56755,-0.523029 -0.56755,-2.437057 z M 85.058045,55.5238 c 0,-0.112213 1.234424,-0.996196 2.743164,-1.964407 1.508741,-0.96821 3.692681,-2.624863 4.853201,-3.68145 1.564399,-1.424295 3.129881,-2.347053 6.053879,-3.568395 3.871001,-1.6169 4.018111,-1.724688 7.964571,-5.83571 l 4.02073,-4.188382 2.06035,1.948592 c 1.13319,1.071726 2.72917,2.228028 3.54662,2.569559 0.81745,0.341532 2.49277,1.492884 3.72293,2.558561 2.19376,1.900435 2.29005,1.940291 5.02052,2.078174 l 2.78386,0.140579 1.63421,1.868142 c 1.2257,1.401165 2.26672,2.124359 4.16457,2.893132 2.27015,0.919576 2.6469,1.22902 3.66345,3.008917 1.06986,1.873252 1.04344,2.694543 -0.0445,1.383648 -0.69294,-0.834951 -6.11725,-3.514243 -7.82969,-3.867414 -1.23168,-0.254019 -1.42811,-0.443844 -1.52961,-1.478189 -0.15421,-1.571373 -0.46414,-1.771769 -4.23476,-2.738103 -1.96372,-0.503261 -3.58448,-1.166485 -4.16205,-1.703125 -0.52025,-0.483393 -1.32901,-0.994632 -1.79724,-1.136085 -0.46823,-0.141454 -0.85133,-0.413695 -0.85133,-0.604981 0,-0.191286 -0.60268,-0.599608 -1.33929,-0.907383 -0.73661,-0.307774 -2.0737,-1.161386 -2.97131,-1.896914 -0.89762,-0.735529 -1.80899,-1.337325 -2.02527,-1.337325 -0.72955,0 -4.61957,4.557464 -4.93678,5.783826 -0.27519,1.063902 -0.50655,1.241996 -1.85002,1.424071 -0.84452,0.114454 -1.94068,0.496376 -2.4359,0.848714 -0.49523,0.352339 -1.307276,0.933737 -1.804553,1.291996 -0.497278,0.358259 -1.348605,0.673366 -1.891838,0.700236 -0.543233,0.02687 -1.43277,0.07546 -1.976748,0.107967 -1.292354,0.07724 -3.310706,2.803806 -2.657846,3.590454 0.523663,0.630975 0.187435,1.009065 -0.897339,1.009065 -0.452994,0 -1.744172,0.313985 -2.869287,0.697744 -2.631781,0.897658 -4.126684,1.261537 -4.126684,1.004486 z"
         id="path439"
         inkscape:connector-curvature="0" />
      <path
         style="fill:#585261;stroke-width:0.37836742"
         d="m 69.923347,100.92831 v -3.21612 h 40.863683 40.86369 v 3.21612 3.21613 H 110.78703 69.923347 Z m 16.458984,-0.18918 c -0.183063,-0.2962 -0.400717,-0.31818 -0.652962,-0.0659 -0.208102,0.20811 -0.254799,0.57831 -0.103772,0.82267 0.183063,0.29621 0.400717,0.31818 0.652961,0.0659 0.208103,-0.2081 0.2548,-0.5783 0.103773,-0.82267 z m -1.702653,0.37837 c 0,-0.20811 -0.297964,-0.38024 -0.662143,-0.38254 -0.364179,-0.002 -1.304056,-0.11025 -2.088617,-0.23992 -1.217315,-0.20119 -1.391685,-0.1451 -1.189213,0.38253 0.174821,0.45558 0.724483,0.61829 2.088617,0.61829 1.018246,0 1.851356,-0.17026 1.851356,-0.37836 z M 120.05704,82.577494 c 0.12861,-0.208103 0.39406,-0.378368 0.58988,-0.378368 0.19582,0 0.35603,0.170265 0.35603,0.378368 0,0.208102 -0.26544,0.378367 -0.58988,0.378367 -0.32443,0 -0.48465,-0.170265 -0.35603,-0.378367 z m -10.78348,-2.05869 c 0,-0.324435 0.17027,-0.589882 0.37837,-0.589882 0.2081,0 0.37837,0.160216 0.37837,0.356036 0,0.19582 -0.17027,0.461268 -0.37837,0.589882 -0.2081,0.128615 -0.37837,-0.03159 -0.37837,-0.356036 z m 26.29654,-0.211515 c -0.12861,-0.208102 0.0417,-0.378367 0.37837,-0.378367 0.33672,0 0.50698,0.170265 0.37837,0.378367 -0.12862,0.208102 -0.29888,0.378367 -0.37837,0.378367 -0.0795,0 -0.24975,-0.170265 -0.37837,-0.378367 z m -24.4047,-3.783674 c 0,-0.208102 0.26545,-0.378367 0.58988,-0.378367 0.32444,0 0.48465,0.170265 0.35604,0.378367 -0.12862,0.208102 -0.39406,0.378367 -0.58988,0.378367 -0.19582,0 -0.35604,-0.170265 -0.35604,-0.378367 z M 82.409473,74.487643 c 0,-0.240513 1.869549,-5.247468 2.516195,-6.738785 0.93204,-2.149497 2.37167,-2.23452 3.002034,-0.177299 0.137715,0.449436 0.746728,1.826739 1.353363,3.060671 1.465901,2.981732 1.079107,4.131182 -0.832313,2.473414 -0.487917,-0.423166 -1.123824,-0.678564 -1.413125,-0.567551 -0.289302,0.111017 -0.943085,0.201848 -1.452851,0.201848 -0.5374,0 -1.0295,0.278221 -1.17115,0.662143 -0.134366,0.364178 -0.426987,0.787235 -0.650268,0.940125 -0.426849,0.292282 -1.351885,0.391796 -1.351885,0.145434 z m 4.729593,-4.20709 c 0,-1.417679 -0.817621,-1.641476 -1.391935,-0.380994 -0.374333,0.821572 -0.358224,1.065089 0.08916,1.347859 0.850966,0.537849 1.302773,0.202536 1.302773,-0.966865 z m 47.201344,3.7278 c -1.21123,-0.59709 -1.58216,-1.384283 -0.86202,-1.829357 0.20223,-0.124982 0.80351,0.05833 1.3362,0.407354 0.73909,0.484269 1.24997,0.553877 2.15665,0.293844 1.33209,-0.382038 1.87313,-1.258794 0.806,-1.30612 -0.38152,-0.01691 -1.545,-0.485151 -2.58551,-1.040511 -1.52536,-0.814144 -1.91645,-1.226016 -2.01889,-2.12619 -0.0845,-0.742758 0.098,-1.280989 0.54528,-1.608062 1.22494,-0.895694 5.0681,-0.428342 5.0681,0.616315 0,0.575214 -1.1443,0.784568 -1.85667,0.339687 -0.81332,-0.507924 -2.05793,-0.142519 -1.83593,0.539011 0.0847,0.260018 0.65222,0.707623 1.26115,0.994683 2.76137,1.301724 3.69142,3.547262 1.9689,4.753766 -1.06825,0.748226 -2.41931,0.736553 -3.98326,-0.03443 z m -7.56735,-0.401875 -1.60806,-0.153315 v -3.599049 c 0,-3.51593 0.0197,-3.596258 0.85132,-3.478143 0.79608,0.11306 0.84445,0.280507 0.74539,2.580296 -0.0583,1.352663 0.0576,2.705645 0.25742,3.006621 0.19985,0.30098 1.14695,0.64151 2.10467,0.756734 0.95772,0.115228 1.77834,0.379768 1.8236,0.58787 0.09,0.413707 -1.65795,0.538901 -4.17434,0.298986 z M 92.247027,69.890312 c 0,-2.864828 0.1173,-3.651378 0.570472,-3.825279 0.771948,-0.296224 2.389391,0.817372 3.154838,2.172075 0.896746,1.587081 1.734955,1.262998 1.878505,-0.726299 0.103231,-1.430566 0.218003,-1.613806 0.945918,-1.510205 0.782232,0.111331 0.828432,0.307813 0.828432,3.523214 v 3.405307 l -1.00725,0.116514 c -0.835536,0.09665 -1.218299,-0.193614 -2.245233,-1.702653 -2.058563,-3.02498 -2.612212,-3.004847 -2.612212,0.095 0,1.806443 -0.09272,2.05869 -0.756735,2.05869 -0.703806,0 -0.756735,-0.252247 -0.756735,-3.606364 z m 9.685363,2.94968 c -0.1244,-0.124395 -0.22618,-1.742669 -0.22618,-3.596162 0,-3.005494 0.0716,-3.356297 0.66215,-3.243396 0.55912,0.106896 0.67904,0.633879 0.77079,3.387172 0.0854,2.561403 -0.008,3.305395 -0.43596,3.469572 -0.29955,0.114944 -0.64641,0.10721 -0.7708,-0.01718 z m 3.72776,-0.0794 c -0.19769,-0.19674 -0.30437,-1.81426 -0.23705,-3.59449 0.11605,-3.069124 0.16653,-3.236775 0.97455,-3.236775 0.46869,0 1.25206,0.425664 1.74081,0.945919 0.48876,0.520255 1.08366,0.945918 1.32201,0.945918 0.23835,0 0.80347,-0.425663 1.25583,-0.945918 0.88908,-1.022534 1.92098,-1.214529 2.64363,-0.491878 0.27445,0.274449 0.45404,1.605372 0.45404,3.364825 0,2.311738 -0.12383,2.958304 -0.60169,3.14168 -0.91431,0.350852 -1.1795,0.01495 -1.45886,-1.847932 -0.14081,-0.939021 -0.36231,-1.707307 -0.49222,-1.707307 -0.12992,0 -0.64286,0.382026 -1.13987,0.848947 -0.83851,0.787738 -0.93028,0.801378 -1.27288,0.189184 -0.76672,-1.370046 -1.72981,-0.615914 -1.48852,1.165553 0.0716,0.52898 -0.64941,1.57999 -1.08396,1.57999 -0.141,0 -0.41812,-0.160972 -0.61582,-0.357716 z m 9.87846,0.01495 c -0.1866,-0.30193 0.71258,-2.422112 2.26164,-5.332722 0.71007,-1.33418 1.50043,-1.762821 2.19205,-1.18883 0.56163,0.466114 3.28086,5.874339 3.28086,6.525244 0,0.517259 -1.18961,0.40401 -1.86205,-0.177265 -0.32854,-0.284002 -1.22127,-0.611464 -1.98386,-0.727695 -1.06843,-0.162849 -1.53759,-0.04439 -2.04507,0.516362 -0.70409,0.77801 -1.49815,0.943796 -1.84357,0.384906 z m 4.70761,-2.873353 c 0,-0.732311 -0.74278,-1.111223 -1.22771,-0.626292 -0.2878,0.287805 -0.26585,0.572742 0.0758,0.984459 0.53341,0.642713 1.15187,0.450408 1.15187,-0.358167 z M 95.455158,63.88925 c -0.607634,-0.444313 -0.64229,-0.620455 -0.22177,-1.127149 0.367,-0.44221 0.68089,-0.502885 1.190537,-0.230131 0.917994,0.491295 2.005961,0.467825 3.183464,-0.06869 1.535271,-0.699518 1.131961,-1.266581 -1.250869,-1.758746 -3.053337,-0.630655 -4.104462,-1.946576 -3.08157,-3.857868 0.476273,-0.889924 3.187696,-1.343488 4.664773,-0.780319 1.651097,0.62952 1.042887,1.36921 -1.01643,1.236168 -1.543933,-0.09974 -1.757489,-0.02145 -1.757489,0.644356 0,0.549 0.377353,0.862095 1.369038,1.135912 1.843108,0.508904 2.793008,1.443737 2.793008,2.748703 0,2.017096 -4.007795,3.421406 -5.872692,2.057759 z m 27.250452,0.179225 -2.27021,-0.220168 -0.10739,-4.06745 -0.10739,-4.06745 h 3.22892 c 2.94914,0 3.22893,0.06394 3.22893,0.737855 0,0.632853 -0.3096,0.753999 -2.17562,0.851326 -1.90831,0.09953 -2.1901,0.215257 -2.29352,0.941904 -0.1036,0.727915 0.0796,0.842689 1.51021,0.945919 1.16823,0.0843 1.66234,0.298051 1.7493,0.756735 0.096,0.506539 -0.21749,0.663637 -1.5102,0.756734 -1.33595,0.09621 -1.6314,0.25359 -1.6314,0.869012 0,0.621957 0.35708,0.802911 2.07119,1.049595 2.19514,0.31591 2.90496,0.709953 2.48959,1.382036 -0.2636,0.426526 -0.41928,0.42891 -4.18241,0.06395 z m -20.03767,-0.383774 c -0.14885,-0.240839 0.79718,-2.991018 2.3841,-6.930783 0.30186,-0.749406 0.68619,-1.040511 1.37371,-1.040511 0.8329,0 1.17175,0.455494 2.65794,3.572837 0.93684,1.965058 1.70334,3.752844 1.70334,3.972858 0,0.632384 -1.12009,0.466754 -2.11015,-0.312033 -1.24557,-0.979763 -3.95841,-1.016188 -4.20937,-0.05652 -0.18829,0.720026 -1.49028,1.294595 -1.79957,0.794152 z m 4.58822,-3.27104 c 0.12597,-0.32829 -0.0434,-0.869314 -0.37634,-1.202277 -0.55494,-0.55494 -0.62569,-0.552496 -0.84896,0.02932 -0.29505,0.768918 0.041,1.769844 0.59413,1.769844 0.22116,0 0.50519,-0.268599 0.63117,-0.59689 z m 6.10352,2.737118 c -0.27959,-0.279587 -1.1688,-1.990572 -1.97602,-3.802184 -1.12673,-2.528648 -1.36409,-3.397441 -1.02174,-3.739787 0.71858,-0.718584 1.59925,0.119533 2.43399,2.316388 0.93988,2.473558 1.68356,2.444499 2.59441,-0.101373 0.73332,-2.049699 1.18024,-2.488639 2.24921,-2.209094 0.39317,0.102814 0.71485,0.213528 0.71485,0.24603 0,0.365071 -2.45551,6.309322 -2.86975,6.947037 -0.62729,0.965685 -1.38065,1.087284 -2.12495,0.342983 z M 87.993346,62.618613 c -0.275792,-0.574203 0.17014,-5.013369 0.503613,-5.013369 0.189619,0 0.346635,0.553363 0.348925,1.229694 0.0023,0.676332 0.109701,1.86819 0.23869,2.648572 0.187979,1.137267 0.116488,1.418878 -0.360201,1.418878 -0.327101,0 -0.656062,-0.127699 -0.731027,-0.283775 z m 44.739004,-2.153282 c 0,-2.471704 0.48328,-3.550815 0.89773,-2.004503 0.12487,0.465887 0.22936,1.65583 0.2322,2.644315 0.004,1.347601 -0.13683,1.797245 -0.56238,1.797245 -0.44575,0 -0.56755,-0.523029 -0.56755,-2.437057 z M 85.058045,55.5238 c 0,-0.112213 1.234424,-0.996196 2.743164,-1.964407 1.508741,-0.96821 3.692681,-2.624863 4.853201,-3.68145 1.564399,-1.424295 3.129881,-2.347053 6.053879,-3.568395 3.871001,-1.6169 4.018111,-1.724688 7.964571,-5.83571 l 4.02073,-4.188382 2.06035,1.948592 c 1.13319,1.071726 2.72917,2.228028 3.54662,2.569559 0.81745,0.341532 2.49277,1.492884 3.72293,2.558561 2.19376,1.900435 2.29005,1.940291 5.02052,2.078174 l 2.78386,0.140579 1.63421,1.868142 c 1.2257,1.401165 2.26672,2.124359 4.16457,2.893132 2.27015,0.919576 2.6469,1.22902 3.66345,3.008917 1.06986,1.873252 1.04344,2.694543 -0.0445,1.383648 -0.69294,-0.834951 -6.11725,-3.514243 -7.82969,-3.867414 -1.23168,-0.254019 -1.42811,-0.443844 -1.52961,-1.478189 -0.15421,-1.571373 -0.46414,-1.771769 -4.23476,-2.738103 -1.96372,-0.503261 -3.58448,-1.166485 -4.16205,-1.703125 -0.52025,-0.483393 -1.32901,-0.994632 -1.79724,-1.136085 -0.46823,-0.141454 -0.85133,-0.413695 -0.85133,-0.604981 0,-0.191286 -0.60268,-0.599608 -1.33929,-0.907383 -0.73661,-0.307774 -2.0737,-1.161386 -2.97131,-1.896914 -0.89762,-0.735529 -1.80899,-1.337325 -2.02527,-1.337325 -0.72955,0 -4.61957,4.557464 -4.93678,5.783826 -0.27519,1.063902 -0.50655,1.241996 -1.85002,1.424071 -0.84452,0.114454 -1.94068,0.496376 -2.4359,0.848714 -0.49523,0.352339 -1.307276,0.933737 -1.804553,1.291996 -0.497278,0.358259 -1.348605,0.673366 -1.891838,0.700236 -0.543233,0.02687 -1.43277,0.07546 -1.976748,0.107967 -1.292354,0.07724 -3.310706,2.803806 -2.657846,3.590454 0.523663,0.630975 0.187435,1.009065 -0.897339,1.009065 -0.452994,0 -1.744172,0.313985 -2.869287,0.697744 -2.631781,0.897658 -4.126684,1.261537 -4.126684,1.004486 z"
         id="path437"
         inkscape:connector-curvature="0" />
      <path
         style="fill:#121323;stroke-width:0.37836742"
         d="m 69.923347,101.0229 v -3.121526 h 40.863683 40.86369 v 3.121526 3.12154 H 110.78703 69.923347 Z m 17.026536,0.5648 c 0,-0.38347 0.212831,-0.91244 0.472959,-1.17549 0.38063,-0.3849 0.06671,-0.460172 -1.608062,-0.38557 -1.144561,0.051 -2.810537,-0.03921 -3.702169,-0.200428 -1.002905,-0.181336 -1.801212,-0.143681 -2.093311,0.09874 -0.25969,0.215528 -1.743623,0.379298 -3.297629,0.363928 -3.924545,-0.0388 -4.149752,-0.003 -4.149752,0.65162 0,0.94093 1.131329,1.11699 7.927148,1.23367 6.055096,0.10395 6.450816,0.068 6.450816,-0.58647 z m 62.146857,0.31593 c 0.15607,-0.0162 0.28377,-0.27656 0.28377,-0.57864 0,-0.46718 -1.52626,-0.54518 -10.21592,-0.52211 -8.14255,0.0216 -10.21592,0.12747 -10.21592,0.5215 0,0.2719 0.29796,0.56687 0.66214,0.6555 0.51308,0.12486 18.21309,0.0556 19.48593,-0.0762 z"
         id="path435"
         inkscape:connector-curvature="0" />
    </g>
  </g>
</svg>
