<?xml version="1.0" encoding="UTF-8" standalone="no"?>
<!-- Created with Inkscape (http://www.inkscape.org/) -->

<svg
   xmlns:dc="http://purl.org/dc/elements/1.1/"
   xmlns:cc="http://creativecommons.org/ns#"
   xmlns:rdf="http://www.w3.org/1999/02/22-rdf-syntax-ns#"
   xmlns:svg="http://www.w3.org/2000/svg"
   xmlns="http://www.w3.org/2000/svg"
   xmlns:sodipodi="http://sodipodi.sourceforge.net/DTD/sodipodi-0.dtd"
   xmlns:inkscape="http://www.inkscape.org/namespaces/inkscape"
   width="210mm"
   height="297mm"
   viewBox="0 0 210 297"
   version="1.1"
   id="svg8"
   inkscape:version="0.92.5 (0.92.5+69)"
   sodipodi:docname="sit.svg">
  <defs
     id="defs2" />
  <sodipodi:namedview
     id="base"
     pagecolor="#ffffff"
     bordercolor="#666666"
     borderopacity="1.0"
     inkscape:pageopacity="0.0"
     inkscape:pageshadow="2"
     inkscape:zoom="0.9983453"
     inkscape:cx="400"
     inkscape:cy="935.80519"
     inkscape:document-units="mm"
     inkscape:current-layer="layer1"
     showgrid="false"
     inkscape:window-width="1299"
     inkscape:window-height="713"
     inkscape:window-x="67"
     inkscape:window-y="27"
     inkscape:window-maximized="1" />
  <metadata
     id="metadata5">
    <rdf:RDF>
      <cc:Work
         rdf:about="">
        <dc:format>image/svg+xml</dc:format>
        <dc:type
           rdf:resource="http://purl.org/dc/dcmitype/StillImage" />
        <dc:title></dc:title>
      </cc:Work>
    </rdf:RDF>
  </metadata>
  <g
     inkscape:label="Layer 1"
     inkscape:groupmode="layer"
     id="layer1">
    <g
       id="g1228"
       transform="matrix(2.4461913,0,0,1.4689708,-357.68467,-96.291256)">
      <path
         style="fill:#f2ca9f"
         d="m 176.29354,264.60375 c -1.63064,-1.63064 -1.5074,-5.40189 0.38476,-11.77345 0.87161,-2.93505 1.94498,-7.61521 2.38525,-10.40036 0.92844,-5.87327 -1.51471,-48.95283 -2.97039,-52.37619 -0.87036,-2.04685 -1.63051,-2.25 -8.41917,-2.25 -4.10433,0 -7.72257,0.42093 -8.04053,0.93541 -0.31797,0.51447 -1.26647,13.22697 -2.10779,28.25 -0.84131,15.02302 -1.7186,27.87709 -1.94951,28.56459 -0.23092,0.6875 -1.28583,1.25 -2.34425,1.25 -1.05842,0 -2.09559,-0.5625 -2.30482,-1.25 -0.20924,-0.6875 -0.13169,-13.625 0.17232,-28.75 0.40757,-20.27672 0.23833,-28.16751 -0.64431,-30.04129 -1.42367,-3.02236 -3.36384,-16.1926 -3.35599,-22.78107 0.0102,-8.58272 1.56987,-11.98734 6.62612,-14.4645 4.17103,-2.04347 4.70295,-2.74977 6.93847,-9.21314 1.33161,-3.85 2.42308,-8.65069 2.42548,-10.66821 0.006,-4.94946 0.85149,-6.82317 3.54078,-7.84564 1.46724,-0.55784 3.52236,-3.4776 5.8413,-8.29886 4.14281,-8.61325 6.38798,-10.13177 16.62228,-11.24247 3.575,-0.38798 7.0625,-1.15189 7.75,-1.69756 1.85407,-1.471607 1.51685,-6.303859 -0.75,-10.747257 -2.48838,-4.877619 -2.49741,-8.307486 -0.0362,-13.72934 2.44961,-5.396255 6.70397,-7.968805 14.57184,-8.811381 7.02197,-0.75199 10.20785,0.368394 10.86124,3.819586 0.23128,1.221624 1.17905,5.371135 2.10617,9.221135 2.03575,8.453759 2.62732,18.397319 1.45757,24.499997 -0.81301,4.24158 -0.69164,4.64357 2.1134,7 3.81863,3.20791 4.48276,7.33299 3.00417,18.65943 -1.87827,14.38805 -2.02372,14.98119 -4.60744,18.78851 -2.31012,3.40415 -2.49313,4.60238 -2.72633,17.85058 -0.19424,11.03476 -0.62917,14.93956 -1.95049,17.51147 -1.45167,2.82563 -1.61246,5.2581 -1.09876,16.62287 l 0.60176,13.31288 4.32611,2.10179 c 2.99739,1.45624 4.53272,2.92495 4.99878,4.7819 0.9011,3.59026 -0.37924,5.39342 -5.94354,8.37057 l -4.67251,2.5 -0.003,7.16667 c -0.003,7.4798 -0.85311,8.91159 -4.25289,7.16302 -1.34326,-0.69093 -1.74988,-2.16983 -1.74988,-6.36487 0,-4.73069 -0.25908,-5.46482 -1.92857,-5.46482 -3.0373,0 -4.70261,-2.38701 -7.48859,-10.73397 -1.42564,-4.27132 -3.66908,-9.11193 -4.98541,-10.75692 l -2.39332,-2.99089 -0.75029,5.99089 c -0.41266,3.29499 -0.32227,12.27685 0.20087,19.95969 1.69573,24.90333 -0.18644,29.5312 -12.01045,29.5312 -3.5233,0 -6.76714,-0.5229 -7.44424,-1.2 z m 35.4433,-75.49003 c -1.39615,-1.39615 -2.30472,0.41663 -1.34824,2.69003 l 1.05181,2.5 0.40737,-2.33586 c 0.22405,-1.28473 0.17413,-2.5691 -0.11094,-2.85417 z"
         id="path1242"
         inkscape:connector-curvature="0" />
      <path
         style="fill:#f29e92"
         d="m 176.56237,264.12972 c -1.87708,-1.87707 -1.72049,-3.45441 1.52148,-15.32597 2.0103,-7.36141 2.0198,-7.94349 0.51365,-31.5 -1.96584,-30.74648 -1.62507,-29.24701 -6.82221,-30.01943 -2.29996,-0.34183 -6.43175,-0.4773 -9.18175,-0.30104 l -5,0.32047 -0.32059,8.3986 c -1.10761,29.01705 -2.73484,48.45847 -4.09362,48.90882 -1.20719,0.4001 -1.3186,-3.78513 -0.7611,-28.58972 0.43966,-19.56129 0.31744,-29.17032 -0.37394,-29.40078 -1.60728,-0.53576 -3.95229,-13.53372 -3.93601,-21.81655 0.0175,-8.91469 1.22101,-11.6665 6.23592,-14.25854 3.74112,-1.93366 3.75986,-1.93317 7.36318,0.19284 l 3.61251,2.13143 4.98199,-2.48263 c 2.74009,-1.36545 7.52667,-3.02653 10.63683,-3.69129 6.73781,-1.44014 7.91706,-2.26882 6.19,-4.3498 -1.63244,-1.96697 -4.97574,-1.97273 -7.77309,-0.0134 -2.47543,1.73387 -6.2967,1.17081 -10.26208,-1.51208 -1.375,-0.9303 -3.33419,-1.99347 -4.35376,-2.3626 -1.33922,-0.48487 -1.62893,-1.15455 -1.04377,-2.41273 0.44549,-0.95786 0.82967,-4.19401 0.85375,-7.19143 0.0395,-4.91394 0.28032,-5.5062 2.44914,-6.02275 2.65151,-0.6315 2.88716,-0.95892 6.73304,-9.35517 1.46817,-3.20529 3.68846,-6.4955 4.93398,-7.3116 1.74974,-1.14647 17.19719,-4.23801 21.69906,-4.34268 0.42429,-0.01 1.2988,1.21956 1.94336,2.73206 2.08107,4.88338 3.68424,6.14056 7.12073,5.58398 4.94535,-0.80097 5.96513,3.08322 4.52889,17.24982 -1.25246,12.35391 -0.52588,22.4162 1.61864,22.4162 0.73654,0 2.54714,1.43562 4.02357,3.19026 2.65041,3.14982 2.68005,3.35 2.3389,15.79579 -0.27141,9.90149 -0.72093,13.17807 -2.09553,15.27456 -1.43868,2.1942 -1.74728,4.94351 -1.73469,15.45421 0.008,7.03185 0.34592,13.28723 0.75,13.90085 0.40408,0.61361 2.56479,2.04322 4.80159,3.17691 8.57063,4.34389 8.5397,8.70553 -0.0917,12.93878 l -5.4752,2.68528 v 6.23266 c 0,6.16199 -1.38024,8.93845 -3.09649,6.22882 -0.48009,-0.75797 -0.87978,-3.51562 -0.8882,-6.12812 -0.0149,-4.62719 -0.0943,-4.75 -3.07154,-4.75 -3.26217,0 -3.92926,-1.05742 -8.40487,-13.32264 -0.96789,-2.65246 -2.77975,-6.00841 -4.02636,-7.45768 l -2.26657,-2.63504 -0.72752,4.30614 c -0.40013,2.36838 -0.40281,12.53301 -0.006,22.58808 0.81778,20.71972 0.16497,24.60233 -4.54612,27.03853 -3.96791,2.05189 -12.36511,1.94102 -14.49754,-0.19142 z m 37.0895,-72.87861 c 0.10353,-2.98137 -0.19646,-3.44736 -2.21931,-3.44736 -2.74989,0 -2.90067,1.0132 -0.76528,5.14259 1.85979,3.59644 2.81977,3.05118 2.98459,-1.69523 z m 11.4415,-63.1354 c -1.5599,-5.26969 -2.48003,-16.31196 -1.35925,-16.31196 2.21504,0 5.32966,3.32447 5.88426,6.2807 0.77291,4.12 -0.68283,12.93863 -2.22047,13.45118 -0.65697,0.21899 -1.67425,-1.29065 -2.30454,-3.41992 z M 199.09354,95.515195 c 0,-0.708707 -0.9,-3.053856 -2,-5.211442 -2.54035,-4.982749 -2.53728,-9.526521 0.01,-14.519231 2.50248,-4.905258 6.62003,-7.101091 14.50215,-7.733792 7.42895,-0.59634 9.48785,0.884562 9.48785,6.824452 0,3.792258 -0.11663,3.928571 -3.36133,3.928571 -2.94446,0 -3.30888,0.27904 -2.93841,2.25 0.45267,2.408288 -2.1998,9.75 -3.52255,9.75 -0.4375,0 -1.66896,-0.660688 -2.73658,-1.468197 -2.90121,-2.194362 -4.44113,-1.835853 -4.44113,1.033938 0,1.411158 -0.46583,3.436158 -1.03518,4.5 -1.16246,2.172074 -3.96482,2.628459 -3.96482,0.645701 z"
         id="path1240"
         inkscape:connector-curvature="0" />
      <path
         style="fill:#e18b74"
         d="m 176.56237,264.12972 c -1.87708,-1.87707 -1.72049,-3.45441 1.52148,-15.32597 2.0103,-7.36141 2.0198,-7.94349 0.51365,-31.5 -1.89728,-29.6742 -1.78944,-29.1071 -5.68335,-29.88588 -5.50312,-1.10062 -14.85524,-0.71061 -15.24798,0.63588 -0.20054,0.6875 -0.88493,12.275 -1.52087,25.75 -1.25166,26.52126 -1.72852,31 -3.30062,31 -0.69493,0 -0.78896,-9.24406 -0.29125,-28.63075 0.54495,-21.22684 0.43702,-28.81492 -0.41737,-29.34297 -3.19198,-1.97275 -5.36001,-26.89855 -2.77778,-31.93607 0.67939,-1.32538 2.95495,-3.2987 5.0568,-4.38516 l 3.82154,-1.97538 2.88796,2.13517 c 3.5773,2.64481 3.43868,2.64951 9.28094,-0.3146 2.64659,-1.34277 8.1591,-3.18606 12.25,-4.0962 4.09091,-0.91014 7.42371,-2.17213 7.40622,-2.80442 -0.0803,-2.90251 -3.09739,-5.10416 -6.99463,-5.10416 -2.18546,0 -3.97357,-0.10607 -3.97357,-0.23571 0,-0.12964 0.9,-2.51903 2,-5.30975 2.62776,-6.66667 2.57912,-8.22154 -0.24461,-7.81955 -1.9225,0.2737 -3.91229,2.97145 -5.95679,8.07621 -0.16667,0.41617 -1.77353,0.20162 -3.57079,-0.47677 -1.79726,-0.67839 -3.0631,-1.69389 -2.81298,-2.25666 0.25012,-0.56278 2.41841,-5.52323 4.81841,-11.02323 4.90495,-11.24046 7.05206,-13.06031 16.13086,-13.67218 4.77577,-0.32186 4.88472,-0.26426 6,3.17218 0.62474,1.925 2.07199,3.91131 3.21611,4.41402 1.8113,0.79587 2.0393,1.63611 1.7638,6.5 -0.71043,12.54201 -1.66277,19.66686 -2.81845,21.08598 -2.42249,2.97467 -2.50034,4.90426 -0.26117,6.47264 2.75892,1.93242 3.73561,1.93038 3.73561,-0.008 0,-0.84435 0.76038,-2.69567 1.68973,-4.11405 0.96674,-1.47542 1.79488,-4.99036 1.93546,-8.21481 0.43143,-9.89533 1.91368,-20.07483 3.09516,-21.25631 0.62987,-0.62987 1.91735,-0.84892 2.86107,-0.48678 1.54366,0.59236 1.63252,1.68448 0.88547,10.88278 -1.09496,13.48204 -1.17317,28.78352 -0.15036,29.41806 0.4491,0.27861 1.38339,-0.26864 2.0762,-1.21612 1.61714,-2.21157 5.07661,-1.21712 7.23723,2.08041 2.30399,3.51633 1.64219,25.85472 -0.87996,29.70211 -1.43865,2.19458 -1.74728,4.94419 -1.73469,15.45471 0.008,7.03185 0.34592,13.28723 0.75,13.90085 0.40408,0.61361 2.56479,2.04322 4.80159,3.17691 8.57063,4.34389 8.5397,8.70553 -0.0917,12.93878 l -5.4752,2.68526 v 5.20989 c 0,9.89726 -2.5379,11.58007 -3.57951,2.37347 -0.65757,-5.81217 -0.77046,-6 -3.60589,-6 -3.11186,0 -3.84478,-1.17988 -8.2757,-13.32264 -0.96789,-2.65246 -2.77975,-6.00841 -4.02636,-7.45768 l -2.26657,-2.63504 -0.72752,4.30614 c -0.40013,2.36838 -0.40281,12.53301 -0.006,22.58808 0.81778,20.71972 0.16497,24.60233 -4.54612,27.03853 -3.96791,2.05189 -12.36511,1.94102 -14.49754,-0.19142 z m 37.53117,-72.32597 c 0,-3.6 -0.25,-4 -2.5,-4 -2.89646,0 -3.08372,0.97052 -0.97432,5.04966 2.11718,4.09418 3.47432,3.68416 3.47432,-1.04966 z m -49.7728,-65.49145 c 0.17474,-1.91614 0.90185,-3.11074 2.0228,-3.32332 2.31656,-0.43932 2.21366,1.05206 -0.2728,3.95399 l -2.02279,2.36078 z m 61.9409,-3.63355 c -0.0925,-0.89375 -0.45261,-3.14375 -0.80034,-5 -0.48697,-2.59953 -0.35641,-3.11806 0.56822,-2.25678 0.69172,0.64433 1.0309,2.76329 0.80034,5 -0.22006,2.13498 -0.47576,3.15053 -0.56822,2.25678 z m -28.6388,-31.221488 c -3.0537,-6.454991 -3.18599,-10.44597 -0.51949,-15.67274 2.50248,-4.905258 6.62003,-7.101091 14.50215,-7.733792 7.50404,-0.602353 9.7606,1.00728 9.29099,6.627402 -0.28857,3.453478 -0.46305,3.612785 -3.6749,3.355276 -3.02961,-0.242897 -3.31375,-0.04778 -2.7987,1.921782 0.75041,2.869551 -1.45203,9.848563 -3.10801,9.848563 -0.71044,0 -2.43928,-0.751918 -3.84187,-1.670929 -2.1733,-1.424003 -2.68306,-1.460947 -3.4495,-0.25 -0.49464,0.781511 -0.90624,2.396625 -0.91466,3.589142 -0.0199,2.824557 -1.00416,5.331787 -2.093,5.331787 -0.47505,0 -2.0019,-2.405921 -3.39301,-5.346491 z"
         id="path1238"
         inkscape:connector-curvature="0" />
      <path
         style="fill:#9b9a98"
         d="m 176.56237,264.12972 c -1.87708,-1.87707 -1.72049,-3.45441 1.52148,-15.32597 2.0103,-7.36141 2.0198,-7.94349 0.51365,-31.5 -1.89728,-29.6742 -1.78944,-29.1071 -5.68335,-29.88588 -6.51467,-1.30293 -20.41654,-0.21849 -17.8145,1.38966 0.87376,0.54001 0.93199,4.46642 0.23148,15.60887 l -0.93596,14.88735 -0.15082,-15.17857 c -0.12329,-12.40812 -0.44142,-15.46917 -1.74294,-16.7707 -3.63393,-3.63392 -5.90372,-27.07506 -3.14313,-32.46052 0.67939,-1.32538 2.95495,-3.2987 5.0568,-4.38516 l 3.82154,-1.97538 2.88796,2.13517 c 3.5773,2.64481 3.43868,2.64951 9.28094,-0.3146 2.64659,-1.34277 8.21818,-3.1992 12.3813,-4.12541 7.43882,-1.65498 7.66619,-1.64625 13.18802,0.5064 3.09029,1.20473 8.05758,3.32062 11.03844,4.70198 4.78919,2.21935 5.52212,2.32862 6.29969,0.93918 1.26175,-2.25462 3.50159,-1.94228 6.32602,0.88216 2.30375,2.30375 2.45421,3.11777 2.44897,13.25 -0.009,16.71941 -2.10618,21.73649 -8.97509,21.46734 -2.26027,-0.0886 -4.01933,0.30578 -4.01933,0.90105 0,1.6268 2.06407,5.22829 4.13561,7.21602 1.80811,1.73494 1.86439,1.65193 1.86439,-2.75 0,-2.49643 0.45,-4.53896 1,-4.53896 0.60552,0 1.01255,4.43787 1.0318,11.25 0.0354,12.5367 0.37065,13.38418 6.53848,16.53077 8.70469,4.44081 8.54151,8.61961 -0.51511,13.19138 -3.25021,1.6407 -6.13362,3.34576 -6.40757,3.78903 -0.27395,0.44326 -2.37998,0.62646 -4.68006,0.40711 -4.5338,-0.43236 -4.80529,-0.82082 -9.42864,-13.49093 -0.96789,-2.65246 -2.77975,-6.00841 -4.02636,-7.45768 l -2.26657,-2.63504 -0.72752,4.30614 c -0.40013,2.36838 -0.40281,12.53301 -0.006,22.58808 0.81778,20.71972 0.16497,24.60233 -4.54612,27.03853 -3.96791,2.05189 -12.36511,1.94102 -14.49754,-0.19142 z M 164.32074,126.3123 c 0.17474,-1.91614 0.90185,-3.11074 2.0228,-3.32332 2.31656,-0.43932 2.21366,1.05206 -0.2728,3.95399 l -2.02279,2.36078 z m 33.01772,-35.398635 c -2.77421,-6.047206 -2.83611,-10.030756 -0.23511,-15.129143 2.50248,-4.905258 6.62003,-7.101091 14.50215,-7.733792 7.28914,-0.585102 9.78507,1.06106 9.29204,6.128455 -0.27258,2.801641 -0.61405,3.099699 -3.304,2.883938 -4.63417,-0.371708 -5.78671,0.336385 -4.49031,2.758738 0.81031,1.514076 0.76919,2.951385 -0.15776,5.514836 -1.42343,3.936415 -1.93964,4.110915 -5.41832,1.831598 -2.98914,-1.958561 -3.61045,-1.468308 -4.92631,3.887171 -0.55402,2.254801 -1.45958,4.246346 -2.01238,4.425655 -0.55279,0.179309 -2.01529,-1.876047 -3.25,-4.567456 z"
         id="path1236"
         inkscape:connector-curvature="0" />
      <path
         style="fill:#6788a9"
         d="m 177.03642,263.23493 c -1.08332,-1.30533 -0.83551,-3.42829 1.47542,-12.63976 2.47194,-9.85321 2.70791,-12.18298 2.14536,-21.18118 -1.87155,-29.93627 -2.86611,-40.40181 -4.09687,-43.11024 -0.74979,-1.65 -1.49906,-4.34467 -1.66503,-5.98816 -0.26302,-2.60447 -0.78469,-3.066 -4.06281,-3.59438 -2.06857,-0.33342 -3.87009,-0.78874 -4.00338,-1.01184 -0.13328,-0.22309 -1.23341,-1.82298 -2.44472,-3.5553 -2.81343,-4.02354 -3.67205,-7.50485 -2.8853,-11.6986 0.83307,-4.44061 7.61659,-8.84088 18.036,-11.6994 8.50359,-2.33293 11.04833,-2.211 19.97855,0.9572 5.48378,1.9455 15.5799,7.64834 15.5799,8.80038 0,2.76001 -3.58727,13.24813 -5.08072,14.85455 -1.05561,1.13545 -1.91928,2.45002 -1.91928,2.92126 0,0.47125 -0.74474,1.67974 -1.65499,2.68555 -1.4877,1.6439 -1.50065,2.00562 -0.12804,3.57874 0.83982,0.9625 1.55305,3.16292 1.58497,4.88982 0.0319,1.72689 1.43425,5.8661 3.11631,9.19823 1.80942,3.58444 2.65472,6.30784 2.07001,6.6692 -1.50867,0.93241 -1.17699,2.49275 0.52988,2.49275 1.12652,0 1.46173,-0.96737 1.29944,-3.75 -0.40018,-6.86148 0.16993,-13.25 1.18242,-13.25 0.6058,0 1,4.31765 1,10.95295 0,6.02412 0.49662,12.0429 1.10359,13.37506 0.60698,1.33217 2.93415,3.26584 5.1715,4.29706 7.63274,3.51799 7.56331,7.10112 -0.21475,11.08275 -2.37213,1.21431 -4.9832,3.16473 -5.80238,4.33427 -1.07012,1.52782 -1.79466,1.82121 -2.57369,1.04218 -0.59635,-0.59635 -2.26092,-1.08427 -3.69906,-1.08427 -2.00853,0 -3.00551,-0.81936 -4.3,-3.53393 -0.92686,-1.94366 -1.68521,-4.10279 -1.68521,-4.79806 0,-1.9993 -7.93975,-17.66801 -8.95285,-17.66801 -1.87554,0 -2.1783,4.63576 -1.86677,28.58332 l 0.31962,24.56928 -2.80576,2.4237 c -2.2109,1.90983 -3.93408,2.4237 -8.12756,2.4237 -3.61429,0 -5.73954,-0.50336 -6.6238,-1.56882 z m 44.03688,-36.03976 c 2.21113,-0.88472 4.02024,-2.00972 4.02024,-2.5 0,-1.7688 -3.94845,-0.83865 -6.69424,1.57698 -3.30932,2.91141 -2.76502,3.09929 2.674,0.92302 z m -66.97976,-23.22475 c 0,-10.22548 0.35306,-15.16667 1.08371,-15.16667 0.76136,0 0.87271,4.38738 0.37433,14.75 -0.39015,8.1125 -0.87782,14.9375 -1.08371,15.16667 -0.20588,0.22916 -0.37433,-6.40834 -0.37433,-14.75 z m 1.75,-19.95975 c -1.5125,-0.18687 -2.75103,-0.87237 -2.75228,-1.52334 -0.003,-1.65839 20.18264,-0.67048 20.73901,1.01498 0.37948,1.14962 -10.34351,1.45268 -17.98673,0.50836 z m 53.33333,0.43462 c 1.04267,-0.897 7.90941,-1.43881 7.38006,-0.58231 -0.31978,0.51743 -2.20487,0.94077 -4.18907,0.94077 -1.98421,0 -3.42015,-0.16131 -3.19099,-0.35846 z m 3.62692,-13.64154 c 0.28766,-1.1 0.92053,-2 1.40638,-2 0.48585,0 0.88337,0.9 0.88337,2 0,1.1 -0.63287,2 -1.40638,2 -0.91405,0 -1.22329,-0.70014 -0.88337,-2 z m -56.07577,-2.07758 c -0.34897,-1.74483 -0.63448,-6.05529 -0.63448,-9.5788 0,-6.9252 1.67455,-9.09764 4.68902,-6.08317 1.28398,1.28398 1.33956,2.12291 0.3411,5.14829 -0.65607,1.98789 -1.04373,5.73412 -0.86148,8.32497 0.26091,3.70919 -0.0121,4.77977 -1.28416,5.03588 -1.12434,0.22637 -1.80842,-0.63927 -2.25,-2.84717 z m 42.73796,-74.609035 c -0.33739,-0.99736 -1.48572,-3.697709 -2.55184,-6.000775 -1.70777,-3.68919 -1.78944,-4.684572 -0.68641,-8.36617 2.36791,-7.90337 7.33954,-10.946437 17.88382,-10.946437 5.18404,0 5.98199,0.821865 5.98199,6.161243 0,2.805037 -0.19121,2.95567 -2.9756,2.344116 -3.94384,-0.866212 -5.33737,0.04133 -3.97429,2.588274 0.76045,1.420903 0.70504,2.941486 -0.19818,5.439311 -1.41789,3.921105 -1.94575,4.106917 -5.34314,1.88086 -3.12872,-2.050019 -4.10354,-1.349549 -4.88008,3.506648 -0.71169,4.450684 -2.32854,6.135391 -3.25627,3.39293 z"
         id="path1234"
         inkscape:connector-curvature="0" />
      <path
         style="fill:#87775a"
         d="m 177.03642,263.23493 c -1.08287,-1.30478 -0.85101,-3.36652 1.3776,-12.25 1.47378,-5.87465 2.67959,-11.87054 2.67956,-13.32419 -5e-5,-3.07755 1.50736,-3.85699 7.4593,-3.85699 6.31089,0 6.76905,1.04495 6.37776,14.54618 -0.3281,11.32081 -0.41201,11.69574 -3.14286,14.04259 -3.43126,2.94877 -12.5701,3.47066 -14.75136,0.84241 z m 37.65745,-29.26885 c -0.3951,-0.63928 -1.97346,-1.16233 -3.50747,-1.16233 -2.28651,0 -3.06259,-0.67576 -4.30672,-3.75 -0.83469,-2.0625 -2.51975,-6.225 -3.74458,-9.25 -3.41833,-8.44229 -3.4213,-8.54345 -0.3519,-11.9787 2.90938,-3.25616 5.66505,-3.94131 10.09255,-2.50932 2.133,0.68987 2.26699,0.48479 2.04944,-3.13693 -0.41664,-6.93585 0.14584,-13.37505 1.16835,-13.37505 0.6058,0 1,4.31765 1,10.95295 0,6.02412 0.49662,12.0429 1.10359,13.37506 0.60698,1.33217 2.93415,3.26584 5.1715,4.29706 7.59184,3.49914 7.56015,7.10089 -0.097,11.02473 -2.30737,1.18239 -5.01966,3.16794 -6.02731,4.41233 -1.25527,1.5502 -2.05825,1.89658 -2.55044,1.1002 z m 6.37943,-6.77091 c 2.21113,-0.88472 4.02024,-2.00972 4.02024,-2.5 0,-1.7688 -3.94845,-0.83865 -6.69424,1.57698 -3.30932,2.91141 -2.76502,3.09929 2.674,0.92302 z m -66.97976,-23.22475 c 0,-10.22548 0.35306,-15.16667 1.08371,-15.16667 0.76136,0 0.87271,4.38738 0.37433,14.75 -0.39015,8.1125 -0.87782,14.9375 -1.08371,15.16667 -0.20588,0.22916 -0.37433,-6.40834 -0.37433,-14.75 z m 1.75,-19.95975 c -1.5125,-0.18687 -2.75103,-0.87237 -2.75228,-1.52334 -0.003,-1.65839 20.18264,-0.67048 20.73901,1.01498 0.37948,1.14962 -10.34351,1.45268 -17.98673,0.50836 z m 53.33333,0.43462 c 1.04267,-0.897 7.90941,-1.43881 7.38006,-0.58231 -0.31978,0.51743 -2.20487,0.94077 -4.18907,0.94077 -1.98421,0 -3.42015,-0.16131 -3.19099,-0.35846 z m 3.62692,-13.64154 c 0.28766,-1.1 0.92053,-2 1.40638,-2 0.48585,0 0.88337,0.9 0.88337,2 0,1.1 -0.63287,2 -1.40638,2 -0.91405,0 -1.22329,-0.70014 -0.88337,-2 z m -56.07577,-2.07758 c -0.34897,-1.74483 -0.63448,-6.05529 -0.63448,-9.5788 0,-6.9252 1.67455,-9.09764 4.68902,-6.08317 1.28398,1.28398 1.33956,2.12291 0.3411,5.14829 -0.65607,1.98789 -1.04373,5.73412 -0.86148,8.32497 0.26091,3.70919 -0.0121,4.77977 -1.28416,5.03588 -1.12434,0.22637 -1.80842,-0.63927 -2.25,-2.84717 z m 42.73796,-74.609035 c -0.33739,-0.99736 -1.48572,-3.697709 -2.55184,-6.000775 -1.70777,-3.68919 -1.78944,-4.684572 -0.68641,-8.36617 2.36791,-7.90337 7.33954,-10.946437 17.88382,-10.946437 5.18404,0 5.98199,0.821865 5.98199,6.161243 0,2.805037 -0.19121,2.95567 -2.9756,2.344116 -3.94384,-0.866212 -5.33737,0.04133 -3.97429,2.588274 0.76045,1.420903 0.70504,2.941486 -0.19818,5.439311 -1.41789,3.921105 -1.94575,4.106917 -5.34314,1.88086 -3.12872,-2.050019 -4.10354,-1.349549 -4.88008,3.506648 -0.71169,4.450684 -2.32854,6.135391 -3.25627,3.39293 z"
         id="path1232"
         inkscape:connector-curvature="0" />
      <path
         style="fill:#2b271d"
         d="m 177.38261,262.11468 c -0.35648,-0.92899 0.31473,-5.54149 1.49159,-10.25 1.17685,-4.70851 2.4222,-10.47343 2.76744,-12.81093 l 0.6277,-4.25 h 5.35308 c 2.9442,0 5.64132,0.46637 5.99361,1.03638 1.31026,2.12005 0.94026,21.39302 -0.46004,23.96362 -1.9452,3.57086 -2.87542,3.96755 -9.34383,3.98469 -4.51344,0.012 -5.92354,-0.35513 -6.42955,-1.67376 z m 30.97336,-31.56093 c -0.54036,-0.6875 -1.90961,-3.95 -3.0428,-7.25 -1.13318,-3.3 -2.64075,-7.45167 -3.35013,-9.22593 -1.2097,-3.02558 -1.10987,-3.41374 1.60744,-6.25 1.59348,-1.66324 3.82555,-3.02406 4.96015,-3.02404 1.99467,3e-5 5.96845,4.12166 8.4324,8.74613 0.65822,1.23539 3.31936,3.26039 5.91364,4.5 6.09547,2.91257 6.84314,5.46178 1.45111,4.94757 -3.37502,-0.32186 -4.43031,0.17703 -8.92777,4.22063 -5.6651,5.09342 -5.66319,5.09252 -7.04404,3.33564 z M 198.80526,87.182137 c -1.25126,-1.251259 -0.76474,-6.19934 0.96651,-9.829816 1.21377,-2.54531 2.82698,-3.957996 5.82902,-5.104486 5.32821,-2.034864 11.85034,-1.607793 12.30776,0.805918 0.27067,1.428267 -0.39756,1.75 -3.6347,1.75 -4.42773,0 -5.87986,1.824355 -4.09972,5.150583 1.7933,3.350811 0.49779,4.817535 -3.65931,4.14293 -3.03486,-0.49249 -3.97496,-0.210938 -5.34054,1.599441 -0.91152,1.208431 -1.97758,1.876874 -2.36902,1.48543 z"
         id="path1230"
         inkscape:connector-curvature="0" />
    </g>
  </g>
</svg>
