<?xml version="1.0" encoding="UTF-8" standalone="no"?>
<!-- Created with Inkscape (http://www.inkscape.org/) -->

<svg
   xmlns:dc="http://purl.org/dc/elements/1.1/"
   xmlns:cc="http://creativecommons.org/ns#"
   xmlns:rdf="http://www.w3.org/1999/02/22-rdf-syntax-ns#"
   xmlns:svg="http://www.w3.org/2000/svg"
   xmlns="http://www.w3.org/2000/svg"
   xmlns:sodipodi="http://sodipodi.sourceforge.net/DTD/sodipodi-0.dtd"
   xmlns:inkscape="http://www.inkscape.org/namespaces/inkscape"
   width="210mm"
   height="297mm"
   viewBox="0 0 210 297"
   version="1.1"
   id="svg8"
   inkscape:version="0.92.5 (0.92.5+69)"
   sodipodi:docname="tired.svg">
  <defs
     id="defs2" />
  <sodipodi:namedview
     id="base"
     pagecolor="#ffffff"
     bordercolor="#666666"
     borderopacity="1.0"
     inkscape:pageopacity="0.0"
     inkscape:pageshadow="2"
     inkscape:zoom="0.9983453"
     inkscape:cx="400"
     inkscape:cy="126.51971"
     inkscape:document-units="mm"
     inkscape:current-layer="layer1"
     showgrid="false"
     inkscape:window-width="1299"
     inkscape:window-height="713"
     inkscape:window-x="67"
     inkscape:window-y="27"
     inkscape:window-maximized="1" />
  <metadata
     id="metadata5">
    <rdf:RDF>
      <cc:Work
         rdf:about="">
        <dc:format>image/svg+xml</dc:format>
        <dc:type
           rdf:resource="http://purl.org/dc/dcmitype/StillImage" />
        <dc:title></dc:title>
      </cc:Work>
    </rdf:RDF>
  </metadata>
  <g
     inkscape:label="Layer 1"
     inkscape:groupmode="layer"
     id="layer1">
    <g
       id="layer1-2"
       inkscape:label="Layer 1"
       transform="matrix(1.1142004,0,0,1.8268154,-11.778857,-14.787653)">
      <g
         id="g1276"
         transform="matrix(1.0827141,0,0,1.0827141,-140.07525,-150.64665)">
        <path
           style="fill:#b3b3cd"
           d="m 140.71077,293.42694 c -0.55587,-0.89941 13.6674,-28.05894 19.9384,-38.07266 2.02139,-3.22782 2.0815,-3.76771 0.77288,-6.94244 -0.94845,-2.30095 -1.22798,-5.28529 -0.843,-9 0.31679,-3.05666 0.54011,-10.7879 0.49627,-17.18054 -0.0845,-12.31713 1.19616,-16.95199 5.84562,-21.15666 1.08235,-0.9788 2.77472,-3.56885 3.76084,-5.75565 2.00173,-4.43905 2.473,-2.71588 -4.91317,-17.96471 -5.25067,-10.84008 -4.71815,-14.69578 3.06483,-22.19046 4.70876,-4.53434 7.94374,-5.81403 14.64752,-5.79423 6.24428,0.0184 6.21722,0.002 15.29478,9.02746 6.51857,6.48082 7.30231,7.68337 7.91612,12.14625 0.82949,6.03111 2.20111,6.73251 8.67168,4.43436 6.13753,-2.17985 20.67467,-2.35166 26.30232,-0.31085 4.29031,1.55584 10.49339,5.63625 23.0881,15.18747 4.35154,3.3 9.10645,6.52272 10.56645,7.16159 1.46001,0.63888 2.9802,2.21388 3.37821,3.5 0.39801,1.28613 2.09021,3.49465 3.76044,4.90784 2.74721,2.32442 3.01871,3.08019 2.8472,7.9259 -0.26271,7.42243 -5.3924,22.11248 -10.69959,30.64069 -2.44244,3.92481 -4.44081,7.41231 -4.44081,7.75 0,0.33769 4.6125,0.62087 10.25,0.62929 5.6375,0.008 10.76582,0.34592 11.39627,0.75 1.6808,1.0773 20.35373,37.2095 20.35373,39.38457 0,2.3717 -3.15441,2.44036 -4.59958,0.10012 -0.59437,-0.9625 -3.45881,-6.25 -6.36543,-11.75 -2.90662,-5.5 -6.91607,-13.03449 -8.90988,-16.74331 l -3.62511,-6.74331 -7.125,-0.007 c -3.91875,-0.004 -8.49442,-0.28057 -10.16815,-0.61532 -2.66625,-0.53325 -3.24161,-0.22484 -4.6456,2.49019 -0.88136,1.70435 -3.39319,4.01238 -5.58186,5.12895 -2.18866,1.11658 -3.97939,2.59886 -3.97939,3.29397 0,0.69511 2.475,3.7081 5.5,6.69552 3.025,2.98742 5.5,5.93166 5.5,6.54274 0,0.61109 -3.4875,1.75557 -7.75,2.54331 l -7.75,1.43224 v 3.96658 3.96657 l -5.5,0.86481 c -6.61918,1.04078 -56.25235,0.0952 -60.5,-1.1526 -2.64174,-0.77605 -2.16407,-0.96092 4,-1.54807 11.11525,-1.05878 11.89509,-1.46721 12.67588,-6.63884 0.37173,-2.4622 0.70923,-7.03158 0.75,-10.15416 0.0637,-4.88349 -0.26889,-5.94723 -2.37874,-7.60684 -1.34908,-1.06118 -4.4826,-2.49771 -6.96338,-3.19229 -4.2992,-1.2037 -4.65638,-1.14013 -7.62386,1.35684 -3.74595,3.15201 -3.99003,3.16307 -12.40934,0.56261 -3.66306,-1.1314 -8.26984,-1.9189 -10.23729,-1.75 -3.50518,0.30092 -3.74272,0.60899 -11.80237,15.3071 -7.62899,13.91274 -10.33621,17.2097 -11.96599,14.57266 z m 73.45509,-4.07266 c 1.375,-0.44035 1.91256,-0.8455 1.19458,-0.90032 -0.71798,-0.0548 -2.24048,-2.34968 -3.38332,-5.09968 -1.14285,-2.75 -2.46791,-5 -2.94459,-5 -0.47667,0 -0.86667,2.7 -0.86667,6 0,6.47694 0.3854,6.79811 6,5 z m 34.9705,-1.95225 c 2.21507,-3.5841 -1.30888,-3.84573 -17.7205,-1.31566 -6.1875,0.95389 -11.25,1.9911 -11.25,2.30491 0,0.3138 6.31642,0.54635 14.03648,0.51678 11.1505,-0.0427 14.22103,-0.35237 14.93402,-1.50603 z m -0.17587,-6.22092 c 9.43194,-0.79802 13.20903,-1.47564 13,-2.33226 -0.51218,-2.09897 -9.82076,-9.48949 -12.10545,-9.61107 -1.20405,-0.0641 -5.07042,-0.10144 -8.59195,-0.083 -7.34804,0.0384 -12.37097,-2.60903 -11.87478,-6.25892 0.26348,-1.93804 -0.29917,-2.05597 -11.09551,-2.32547 l -11.37306,-0.2839 0.52462,2.2839 c 0.67965,2.95884 6.25266,18.21628 7.2334,19.80315 0.80068,1.29553 7.7227,1.05477 34.28273,-1.19242 z m -51.30676,-31.84646 c -0.56061,-0.90708 -0.93223,-0.87942 -1.54689,0.11512 -1.05432,1.70594 -0.0185,3.38199 1.28476,2.07877 0.55,-0.55 0.66795,-1.53725 0.26213,-2.19389 z m 51.57787,-4.01555 c 1.90134,-1.01757 2.7254,-3.96482 1.10857,-3.96482 -0.45412,0 -1.88256,1.125 -3.17431,2.5 -2.41681,2.57257 -1.37908,3.30843 2.06574,1.46482 z m -6.95896,-7.8502 c 1.90345,-1.54132 2.10381,-2.15595 1.09792,-3.36797 -0.96083,-1.15774 -0.97349,-2.59572 -0.0578,-6.56284 1.09274,-4.73399 0.98207,-5.5098 -1.62353,-11.38204 -1.5379,-3.46597 -2.94856,-6.47802 -3.13479,-6.69343 -0.18623,-0.21542 -1.25185,0.68458 -2.36804,2 l -2.0294,2.39166 0.22901,-6 c 0.12596,-3.3 0.12795,-9.2625 0.004,-13.25 -0.22278,-7.20592 -0.24104,-7.25 -3.00164,-7.25 -4.59778,0 -7.22251,2.54303 -7.22251,6.99769 0,4.51672 -1.6959,6.26241 -2.47068,2.54321 -0.29113,-1.3975 -0.76289,-3.6659 -1.04837,-5.0409 -0.28548,-1.375 -1.12759,-2.5 -1.87135,-2.5 -1.84256,0 -3.28519,20.86914 -1.6534,23.91816 1.71265,3.20012 3.04045,2.4799 3.0754,-1.66816 l 0.0316,-3.75 2.4679,2.80518 c 1.35734,1.54284 2.97347,4.81299 3.59139,7.267 0.61793,2.454 1.51434,4.70337 1.99202,4.99859 0.47769,0.29523 3.35329,-0.24647 6.39022,-1.20378 3.7372,-1.17805 5.84987,-1.41239 6.53716,-0.7251 1.63455,1.63455 -2.65228,6.1611 -7.09554,7.49233 -4.50686,1.35029 -4.88363,2.81627 -1.95731,7.61578 2.33552,3.83053 6.39612,4.3782 10.11774,1.36462 z m -21.10678,-0.9654 c 0,-2.60099 -2.7668,-8.29591 -6.27927,-12.92466 -2.20175,-2.90148 -4.1463,-5.13233 -4.3212,-4.95743 -0.53219,0.5322 2.68549,11.99661 4.17607,14.87906 1.49228,2.88575 6.4244,5.19123 6.4244,3.00303 z m 50.75,-26.39922 c -0.22917,-0.6875 -1.24167,-1.25 -2.25,-1.25 -1.00833,0 -2.02083,0.5625 -2.25,1.25 -0.26389,0.79167 0.56111,1.25 2.25,1.25 1.68889,0 2.51389,-0.45833 2.25,-1.25 z m -16.75,-6.80902 c 0,-2.53531 0.60537,-2.45082 4.21753,0.58861 2.34977,1.97719 3.30937,2.27801 4.39436,1.37755 0.76346,-0.63362 1.38811,-1.77193 1.38811,-2.52959 0,-1.25445 -0.82425,-2.35544 -5.6834,-7.59149 -0.87481,-0.94267 -2.52863,-1.61767 -3.67516,-1.5 -1.57202,0.16133 -2.36622,-0.63576 -3.22993,-3.24171 -0.62993,-1.90061 -2.10522,-4.093 -3.27842,-4.87198 -1.92262,-1.27657 -2.13163,-1.23161 -2.11831,0.45566 0.0276,3.49752 3.0135,14.61126 4.68642,17.44329 1.79851,3.04463 3.2988,2.98536 3.2988,-0.13034 z m -44.51905,-3.44098 c 0.28548,-1.375 0.72533,-3.51624 0.97744,-4.75831 0.95416,-4.70075 -1.04119,-4.78012 -3.29978,-0.13125 -1.73188,3.56472 -1.97258,4.90878 -1.07318,5.9925 1.71345,2.06458 2.81196,1.70776 3.39552,-1.10294 z m 28.15741,-20.00004 c -0.84407,-2.19962 -4.3923,-1.82825 -5.68943,0.59547 -0.93283,1.743 -0.77055,2.34121 0.96481,3.55671 1.14744,0.8037 2.10945,2.22325 2.13779,3.15456 0.0283,0.93132 0.75148,0.006 1.60697,-2.05674 0.85549,-2.06253 1.29643,-4.42503 0.97986,-5.25 z m -16.63836,2.05906 c 0,-0.79254 -0.4407,-1.71335 -0.97933,-2.04625 -1.34325,-0.83017 -5.21765,1.3595 -4.48966,2.5374 0.94626,1.53108 5.46899,1.12491 5.46899,-0.49115 z"
           id="path1290"
           inkscape:connector-curvature="0" />
        <path
           style="fill:#e2a599"
           d="m 141.16586,292.66791 c 0,-0.45816 4.95927,-9.7597 11.02061,-20.67007 l 11.0206,-19.83705 -1.72772,-5.48097 c -1.61932,-5.13706 -1.62329,-5.77501 -0.0632,-10.16746 1.31403,-3.69973 1.4827,-5.97262 0.80109,-10.79479 -1.34107,-9.48768 -0.0141,-17.5818 3.62476,-22.10987 1.6768,-2.08657 3.98674,-5.63239 5.13319,-7.87962 l 2.08446,-4.08587 -2.24571,-5.39397 c -1.23514,-2.96668 -3.46124,-7.7415 -4.94688,-10.61072 -1.65404,-3.19444 -2.70117,-6.81436 -2.70117,-9.33794 0,-3.62861 0.64912,-4.79666 5.43095,-9.77269 l 5.43094,-5.65151 7.81905,-0.33749 7.81906,-0.3375 7.4663,7.51819 c 7.99755,8.05312 8.8545,9.41677 8.96341,14.26325 0.11474,5.10529 2.18615,6.01698 8.87284,3.90522 3.73595,-1.17987 8.79595,-1.79748 14.69745,-1.79392 9.46622,0.006 13.70434,1.17791 19.74961,5.46247 1.78771,1.26704 3.97845,2.75257 4.8683,3.30119 4.03441,2.48733 19.66182,14.55743 22.18448,17.13457 8.25071,8.4289 8.62152,9.02707 8.08011,13.03419 -1.69157,12.51971 -4.60992,20.74968 -11.01708,31.06904 -2.47249,3.98218 -4.21462,7.69468 -3.87141,8.25 0.358,0.57925 5.25176,1.00969 11.47943,1.00969 h 10.85541 l 10.1321,19.62014 c 5.57265,10.79108 9.90557,19.84667 9.6287,20.12354 -1.20802,1.20803 -3.81984,-1.06469 -7.0795,-6.16037 -1.93058,-3.01798 -3.51015,-5.94283 -3.51015,-6.49966 0,-0.55683 -2.475,-5.54447 -5.5,-11.08365 -3.025,-5.53918 -5.5,-10.45706 -5.5,-10.92863 0,-1.57432 -3.08655,-2.07137 -12.86255,-2.07137 h -9.69897 l -1.10216,2.91995 c -0.68934,1.82625 -2.61883,3.69369 -5.15139,4.98571 -5.27766,2.69246 -5.85719,3.81938 -3.22517,6.27148 1.19486,1.11318 1.91594,2.28049 1.60241,2.59402 -0.31353,0.31353 -1.62122,-0.41746 -2.90599,-1.62443 -3.22672,-3.03135 -7.19258,-3.97327 -14.84716,-3.5263 -5.48835,0.32047 -6.96507,0.0447 -9.20831,-1.71987 -1.79537,-1.41224 -2.48271,-2.69699 -2.09552,-3.9169 0.31689,-0.99844 0.0834,-2.11991 -0.51893,-2.49215 -0.85768,-0.53008 -16.60718,-0.9197 -22.62927,-0.55982 -2.25118,0.13453 -2.30512,3.2622 -0.12168,7.05601 1.92772,3.34949 2.06955,4.29991 1.07233,7.18615 -1.53042,4.42948 -2.55418,15.04921 -1.58211,16.41161 0.42596,0.59701 1.67447,1.60028 2.77447,2.22949 1.59714,0.91358 -0.0143,1.13312 -8,1.08989 -5.5,-0.0298 -11.8,-0.32727 -14,-0.66112 l -4,-0.607 4,-0.76073 c 2.2,-0.4184 5.82649,-0.78666 8.05887,-0.81836 6.38393,-0.0906 7.22208,-1.30718 8.18938,-11.88651 l 0.85297,-9.32888 -2.68413,-2.25855 c -1.47627,-1.2422 -4.74506,-2.83557 -7.26399,-3.54082 -4.38212,-1.22692 -4.71428,-1.16918 -7.6932,1.33742 -3.73403,3.14198 -4.06114,3.15905 -12.1208,0.63261 -3.48651,-1.0929 -7.95402,-1.9929 -9.92781,-2 -3.3364,-0.012 -3.88997,0.45632 -7.87372,6.66109 -2.35676,3.6707 -4.93171,8.0582 -5.72211,9.75 -3.41126,7.30161 -7.16822,13.09945 -8.68266,13.39933 -0.89804,0.17783 -1.6328,-0.0515 -1.6328,-0.50969 z m 58,-40.74853 c 0,-0.2392 -0.47584,-1.68645 -1.05742,-3.21612 -0.84654,-2.22659 -1.24233,-2.48884 -1.98468,-1.3151 -1.61155,2.54803 -1.10413,4.96612 1.0421,4.96612 1.1,0 2,-0.19571 2,-0.4349 z m 25.99341,-0.3151 c -0.004,-0.4125 -0.90066,-2.1 -1.99341,-3.75 -2.08769,-3.1523 -2.64223,-6.5 -1.07673,-6.5 0.50781,0 2.32681,1.18099 4.04224,2.62443 4.2462,3.57295 4.83291,2.43314 0.89421,-1.73718 -1.75952,-1.86299 -4.04473,-5.5874 -5.07825,-8.27648 -1.03352,-2.68908 -3.82734,-7.63908 -6.20848,-11 -2.38115,-3.36093 -5.29332,-8.02327 -6.4715,-10.36077 -2.15536,-4.27623 -4.10149,-5.5644 -4.10149,-2.71482 0,0.84435 0.69669,2.59847 1.5482,3.89803 0.85151,1.29957 2.48183,5.66199 3.62293,9.69428 3.15931,11.16394 14.86847,33.37989 14.82228,28.12251 z m 22.90816,-3.81341 c 4.95372,-1.4711 5.40729,-1.88611 7.6815,-7.02851 1.32931,-3.00581 2.38269,-6.23978 2.34085,-7.18659 -0.0418,-0.94682 -0.63534,-0.17366 -1.31889,1.71814 -1.48234,4.10255 -3.60301,5.21505 -3.60981,1.8937 -0.005,-2.212 -0.17804,-2.15133 -3.33682,1.16667 -1.83262,1.925 -4.98047,4.75668 -6.99522,6.29263 -6.27415,4.78311 -4.2904,5.97371 5.23839,3.14396 z m -4.24368,-8.57207 c 0.63683,-0.52608 1.92219,-2.56718 2.85635,-4.53577 1.31396,-2.76896 1.41855,-3.75226 0.46199,-4.34344 -0.87162,-0.53869 -1.02744,-2.15816 -0.52805,-5.4883 0.63033,-4.20339 0.4302,-5.01472 -1.81565,-7.36056 -2.0864,-2.17929 -2.80944,-4.54386 -4.16975,-13.63645 -1.05068,-7.02296 -1.41563,-13.38274 -1.00941,-17.59036 0.86234,-8.93191 0.22678,-9.39892 -11.57834,-8.50776 -8.50188,0.64181 -13.87503,2.45527 -13.87503,4.68287 0,0.4701 2.05138,1.45288 4.55862,2.18396 5.28222,1.54022 5.51322,3.23129 0.44138,3.23129 h -3.5 l -0.008,7 c -0.005,3.85 -0.37596,9.475 -0.82509,12.5 -0.80043,5.39107 -0.74259,5.58612 2.92064,9.8484 3.68666,4.28955 3.75342,4.31817 4.93258,2.1149 1.2922,-2.41449 1.84261,-1.97458 2.86115,2.2867 0.53086,2.22097 1.21825,2.75 3.57316,2.75 1.60372,0 4.13256,-0.46259 5.61964,-1.02798 1.48708,-0.56539 2.93862,-0.79315 3.22563,-0.50613 0.98896,0.98896 -3.01276,4.4221 -5.89144,5.05437 -1.58667,0.34848 -3.16293,1.08357 -3.50282,1.63352 -1.04503,1.6909 2.52234,9.50138 4.87439,10.6721 2.37407,1.18168 8.46759,0.61724 10.37854,-0.96136 z m -64.65789,-16.99816 c 0,-0.3485 -1.84443,-2.29997 -4.09875,-4.33661 l -4.09874,-3.70297 -1.42004,2.73712 c -1.23058,2.37195 -1.22691,2.95051 0.0275,4.33661 1.3905,1.53648 9.59004,2.36229 9.59004,0.96585 z m 93.60942,-8.94645 c 3.72683,0.14839 6.63008,-2.52303 4.32628,-3.98081 -0.78964,-0.49966 -2.00352,-0.91537 -2.69752,-0.92379 -0.911,-0.0111 -1.08398,-1.1274 -0.62219,-4.01531 0.7228,-4.52012 -0.66758,-5.37696 -2.43404,-1.5 -1.72617,3.78853 -4.18195,3.22445 -4.18195,-0.96057 0,-1.90332 -0.5625,-3.92462 -1.25,-4.49178 -0.6875,-0.56717 -3.6125,-2.84537 -6.5,-5.06268 -2.8875,-2.21731 -5.25,-4.46187 -5.25,-4.9879 0,-1.13899 -7.96542,-5.36499 -8.7096,-4.62081 -0.64807,0.64808 1.24292,8.80385 4.36175,18.81207 2.17866,6.99122 2.77907,7.91661 6.62187,10.20599 3.43516,2.04653 5.06808,2.41326 8.72598,1.95972 2.475,-0.30687 5.89924,-0.50223 7.60942,-0.43413 z m -84.60942,-4.47893 c 0,-0.85746 -0.45734,-1.27636 -1.01631,-0.9309 -0.55897,0.34546 -0.75742,1.04702 -0.44098,1.55902 0.85723,1.38704 1.45729,1.12841 1.45729,-0.62812 z m -13,-3.38196 c 0,-1.17986 -1.95035,-2.442 -2.66666,-1.72569 -0.71632,0.71632 0.54582,2.66667 1.72568,2.66667 0.51754,0 0.94098,-0.42344 0.94098,-0.94098 z m 35.90743,-2.88605 c 1.71153,-3.19803 2.33024,-11.49224 1.09453,-14.67297 l -1.1655,-3 -1.26934,3.5 c -0.69814,1.925 -2.06661,5.4285 -3.04104,7.78556 -1.69651,4.1037 -1.69626,4.36892 0.006,6.25 2.20771,2.43949 3.12775,2.46838 4.37525,0.13741 z m 4.1759,89.41267 c 0.22917,-0.2279 7.84167,-0.65463 16.91667,-0.94831 9.075,-0.29367 17.5125,-0.83469 18.75,-1.20227 1.68108,-0.49934 2.25,-0.25955 2.25,0.94831 0,1.43261 -2.18173,1.61663 -19.16667,1.61663 -10.54166,0 -18.97916,-0.18646 -18.75,-0.41436 z m 4.91667,-6.58564 c 0,-0.55 1.2375,-0.99311 2.75,-0.98469 2.14294,0.0119 2.41887,0.22931 1.25,0.98469 -1.95653,1.26441 -4,1.26441 -4,0 z m 33,-2 c 1.95653,-1.26441 4,-1.26441 4,0 0,0.55 -1.2375,0.99311 -2.75,0.98469 -2.14294,-0.0119 -2.41887,-0.22931 -1.25,-0.98469 z m 12,-2.5 c 0,-0.91667 0.48375,-1.50542 1.075,-1.30833 0.59125,0.19708 1.075,0.78583 1.075,1.30833 0,0.5225 -0.48375,1.11125 -1.075,1.30833 -0.59125,0.19709 -1.075,-0.39166 -1.075,-1.30833 z"
           id="path1288"
           inkscape:connector-curvature="0" />
        <path
           style="fill:#9d98a2"
           d="m 141.16586,292.59458 c 0,-0.41783 4.95927,-9.68637 11.02061,-20.59674 l 11.0206,-19.83705 -1.72772,-5.48097 c -1.61932,-5.13706 -1.62329,-5.77501 -0.0632,-10.16746 1.31403,-3.69973 1.4827,-5.97262 0.80109,-10.79479 -1.34107,-9.48768 -0.0141,-17.5818 3.62476,-22.10987 1.6768,-2.08657 4.06513,-5.78604 5.30738,-8.22105 2.10272,-4.12169 2.15379,-4.63801 0.73979,-7.47983 -0.83536,-1.6789 -3.13984,-6.29177 -5.12106,-10.25082 -2.39693,-4.78978 -3.60222,-8.58339 -3.60222,-11.33794 0,-3.65098 0.64112,-4.80681 5.43095,-9.79117 l 5.43094,-5.65151 7.81905,-0.33274 7.81906,-0.33273 7.67269,7.69234 c 6.89039,6.90803 7.74041,8.18475 8.33692,12.52187 0.94561,6.87543 2.29976,7.67148 9.29294,5.46293 3.73595,-1.17987 8.79595,-1.79748 14.69745,-1.79392 9.46622,0.006 13.70434,1.17791 19.74961,5.46247 1.78771,1.26704 3.97845,2.75257 4.8683,3.30119 4.03441,2.48733 19.66182,14.55743 22.18448,17.13457 5.59543,5.71627 8.69761,9.32292 8.69761,10.112 0,0.44325 -0.61381,1.69353 -1.36402,2.77841 -0.79649,1.15179 -1.06923,2.79719 -0.65553,3.95454 1.47213,4.11828 -3.18599,17.14228 -9.9767,27.89461 -2.28364,3.61589 -3.86715,7.03537 -3.5189,7.59885 0.3693,0.59754 5.15722,1.02451 11.48859,1.02451 h 10.85541 l 10.1321,19.62014 c 5.57265,10.79108 9.86458,19.88766 9.53761,20.21463 -1.50021,1.50021 -4.32283,-2.57358 -13.05174,-18.83713 l -9.39127,-17.49764 -9.77777,-0.60775 c -11.87436,-0.73807 -13.71836,-0.41546 -15.11232,2.64394 -0.59701,1.31029 -2.90347,3.30983 -5.12546,4.44341 -4.60336,2.34845 -5.0333,4.25938 -1.79,7.95595 l 2.25,2.56445 -2.58987,-2.27388 c -3.55399,-3.12036 -7.4514,-4.05896 -15.17597,-3.65475 -5.45152,0.28526 -7.01831,-0.007 -9.18865,-1.71423 -1.75075,-1.37715 -2.42585,-2.65879 -2.04032,-3.87348 0.31689,-0.99844 0.0896,-2.11609 -0.50519,-2.48366 -0.59475,-0.36757 -0.82456,-1.47739 -0.51071,-2.46626 0.79946,-2.51887 -1.92424,-2.74474 -20.98929,-1.74061 l -16,0.8427 -4.6104,4.98618 c -4.08763,4.42079 -4.93805,4.90766 -7.5,4.29375 -4.00446,-0.95957 -6.35484,-2.24454 -10.17439,-5.56241 -1.80664,-1.56934 -3.92252,-2.85335 -4.70196,-2.85335 -1.97299,0 -6.00884,6.21781 -14.44199,22.25 -4.10853,7.8107 -7.84574,13.75 -8.65197,13.75 -0.78061,0 -1.41929,-0.34186 -1.41929,-0.7597 z m 116.26357,-29.4903 c 3.99777,-2.23446 5.73643,-4.02421 5.73643,-5.90499 0,-1.01475 -0.45,-1.84501 -1,-1.84501 -0.55,0 -1,0.39752 -1,0.88337 0,0.48585 -0.83793,1.10249 -1.86206,1.37031 -1.02413,0.26781 -2.56464,1.8953 -3.42335,3.61663 -1.7482,3.50435 -1.62508,3.65376 1.54898,1.87969 z m -68.40587,-11.48942 c 5.86293,-9.83496 8.52219,-17.49047 10.66518,-30.703 1.80416,-11.12352 1.81774,-16.31457 0.051,-19.50469 -1.22549,-2.21284 -15.54726,-11.34385 -16.45116,-10.48864 -0.2075,0.19632 2.38,3.07175 5.75,6.38983 4.19365,4.12903 6.12728,6.80592 6.12728,8.4825 0,3.21418 -5.39059,19.33387 -9.21748,27.56342 -5.28543,11.36607 -5.88479,13.10242 -5.23233,15.15815 0.48852,1.53918 1.20312,1.8696 3.04409,1.40754 3.05173,-0.76593 3.03123,0.19792 -0.0943,4.43431 -2.76099,3.74231 -3.20352,6 -1.17607,6 0.72817,0 3.66836,-3.93274 6.53377,-8.73942 z m 9.59729,-1.51058 c -1.11085,-3.6768 -2.31936,-4.28689 -3.30709,-1.66952 -1.11872,2.96447 -0.63663,3.91952 1.9785,3.91952 1.61751,0 1.87608,-0.43789 1.32859,-2.25 z m 26.53842,1.5 c -0.004,-0.4125 -0.90066,-2.1 -1.99341,-3.75 -2.08769,-3.1523 -2.64223,-6.5 -1.07673,-6.5 0.50781,0 2.32681,1.18099 4.04224,2.62443 4.2462,3.57295 4.83291,2.43314 0.89421,-1.73718 -1.75952,-1.86299 -4.04473,-5.5874 -5.07825,-8.27648 -1.03352,-2.68908 -3.82734,-7.63908 -6.20848,-11 -2.38115,-3.36093 -5.29332,-8.02327 -6.4715,-10.36077 -2.15536,-4.27623 -4.10149,-5.5644 -4.10149,-2.71482 0,0.84435 0.69669,2.59847 1.5482,3.89803 0.85151,1.29957 2.48183,5.66199 3.62293,9.69428 3.15931,11.16394 14.86847,33.37989 14.82228,28.12251 z m 22.90816,-3.81341 c 4.95372,-1.4711 5.40729,-1.88611 7.6815,-7.02851 1.32931,-3.00581 2.38269,-6.23978 2.34085,-7.18659 -0.0418,-0.94682 -0.63534,-0.17366 -1.31889,1.71814 -1.48234,4.10255 -3.60301,5.21505 -3.60981,1.8937 -0.005,-2.212 -0.17804,-2.15133 -3.33682,1.16667 -1.83262,1.925 -4.98047,4.75668 -6.99522,6.29263 -6.27415,4.78311 -4.2904,5.97371 5.23839,3.14396 z m 22.40591,-3.32503 c 4.58069,-6.9219 12.4696,-28.51327 10.79592,-29.54766 -0.97169,-0.60053 -9.44813,6.21247 -10.28311,8.26513 -0.37385,0.91903 -0.71135,2.88709 -0.75,4.37346 -0.0387,1.48637 -1.82965,6.04308 -3.97998,10.12603 -3.60793,6.85057 -3.78434,7.54888 -2.28571,9.04751 2.43921,2.43921 3.67488,2.00892 6.50288,-2.26447 z m -26.64959,-5.24704 c 0.63683,-0.52608 1.92219,-2.56718 2.85635,-4.53577 1.31396,-2.76896 1.41855,-3.75226 0.46199,-4.34344 -0.87162,-0.53869 -1.02744,-2.15816 -0.52805,-5.4883 0.63033,-4.20339 0.4302,-5.01472 -1.81565,-7.36056 -2.0864,-2.17929 -2.80944,-4.54386 -4.16975,-13.63645 -1.05068,-7.02296 -1.41563,-13.38274 -1.00941,-17.59036 0.86234,-8.93191 0.22678,-9.39892 -11.57834,-8.50776 -8.50188,0.64181 -13.87503,2.45527 -13.87503,4.68287 0,0.4701 2.05138,1.45288 4.55862,2.18396 5.28222,1.54022 5.51322,3.23129 0.44138,3.23129 h -3.5 l -0.008,7 c -0.005,3.85 -0.37596,9.475 -0.82509,12.5 -0.80043,5.39107 -0.74259,5.58612 2.92064,9.8484 3.68666,4.28955 3.75342,4.31817 4.93258,2.1149 1.2922,-2.41449 1.84261,-1.97458 2.86115,2.2867 0.53086,2.22097 1.21825,2.75 3.57316,2.75 1.60372,0 4.13256,-0.46259 5.61964,-1.02798 1.48708,-0.56539 2.93862,-0.79315 3.22563,-0.50613 0.98896,0.98896 -3.01276,4.4221 -5.89144,5.05437 -1.58667,0.34848 -3.16293,1.08357 -3.50282,1.63352 -1.04503,1.6909 2.52234,9.50138 4.87439,10.6721 2.37407,1.18168 8.46759,0.61724 10.37854,-0.96136 z m -64.65789,-16.99816 c 0,-0.3485 -1.84443,-2.29997 -4.09875,-4.33661 l -4.09874,-3.70297 -1.42004,2.73712 c -1.23058,2.37195 -1.22691,2.95051 0.0275,4.33661 1.3905,1.53648 9.59004,2.36229 9.59004,0.96585 z m 93.60942,-8.94645 c 3.72683,0.14839 6.63008,-2.52303 4.32628,-3.98081 -0.78964,-0.49966 -2.00352,-0.91537 -2.69752,-0.92379 -0.911,-0.0111 -1.08398,-1.1274 -0.62219,-4.01531 0.7228,-4.52012 -0.66758,-5.37696 -2.43404,-1.5 -1.72617,3.78853 -4.18195,3.22445 -4.18195,-0.96057 0,-1.90332 -0.5625,-3.92462 -1.25,-4.49178 -0.6875,-0.56717 -3.6125,-2.84537 -6.5,-5.06268 -2.8875,-2.21731 -5.25,-4.46187 -5.25,-4.9879 0,-1.13899 -7.96542,-5.36499 -8.7096,-4.62081 -0.64807,0.64808 1.24292,8.80385 4.36175,18.81207 2.17866,6.99122 2.77907,7.91661 6.62187,10.20599 3.43516,2.04653 5.06808,2.41326 8.72598,1.95972 2.475,-0.30687 5.89924,-0.50223 7.60942,-0.43413 z m -84.60942,-4.47893 c 0,-0.85746 -0.45734,-1.27636 -1.01631,-0.9309 -0.55897,0.34546 -0.75742,1.04702 -0.44098,1.55902 0.85723,1.38704 1.45729,1.12841 1.45729,-0.62812 z m -13,-3.38196 c 0,-1.17986 -1.95035,-2.442 -2.66666,-1.72569 -0.71632,0.71632 0.54582,2.66667 1.72568,2.66667 0.51754,0 0.94098,-0.42344 0.94098,-0.94098 z m 35.90743,-2.88605 c 1.71153,-3.19803 2.33024,-11.49224 1.09453,-14.67297 l -1.1655,-3 -1.26934,3.5 c -0.69814,1.925 -2.06661,5.4285 -3.04104,7.78556 -1.69651,4.1037 -1.69626,4.36892 0.006,6.25 2.20771,2.43949 3.12775,2.46838 4.37525,0.13741 z m -6.09286,-18.74411 c -0.46231,-7.26053 -1.34731,-8.77741 -3.45816,-5.92729 -1.46256,1.97479 -1.49708,1.97546 -2.91824,0.0573 -1.40997,-1.90307 -1.43817,-1.8998 -1.43817,0.16667 0,1.15928 -0.5625,2.3179 -1.25,2.5747 -1.26907,0.47403 -1.06801,0.59227 3.56895,2.0989 1.2863,0.41794 1.63261,1.17812 1.18261,2.59593 -0.39518,1.24512 -0.18224,2.00493 0.56189,2.00493 0.80593,0 1.01627,1.12135 0.64244,3.42495 l -0.55579,3.42495 2.03447,-2.03447 c 1.7243,-1.7243 1.97281,-3.0029 1.63,-8.38657 z m -14.73234,-5.67886 c 0.0452,-0.6875 0.28562,-2.4875 0.53421,-4 0.38899,-2.36673 0.11481,-2.75 -1.96722,-2.75 -1.49863,0 -3.06416,0.98433 -4.11411,2.58676 -0.9322,1.42272 -1.54646,2.68429 -1.36501,2.80349 0.9008,0.59177 5.42374,2.48286 6.0799,2.54207 0.4125,0.0372 0.787,-0.49482 0.83223,-1.18232 z m 10.91777,-6.03759 c 0,-0.70818 -2.27805,-3.52068 -5.06234,-6.25 -4.85524,-4.75939 -5.12116,-4.883 -6.5,-3.02128 -1.87485,2.53142 -1.8409,5.55887 0.0623,5.55887 0.825,0 1.5,0.3876 1.5,0.86133 0,0.47373 1.02507,0.66537 2.27793,0.42587 1.44968,-0.27712 2.96042,0.31869 4.15499,1.63867 2.13534,2.35954 3.56708,2.67523 3.56708,0.78654 z m 4.17398,109.03759 c 0.30296,-11.38369 0.1669,-12.47308 -1.92398,-15.40437 -2.8722,-4.02666 -2.82779,-4.76134 0.37604,-6.22111 2.44696,-1.11491 2.58711,-1.0476 2.05505,0.98701 -0.34425,1.3164 0.29208,3.68315 1.60238,5.95984 1.88501,3.27529 2.01945,4.21765 1.01322,7.10248 -0.63809,1.82938 -1.46406,6.32403 -1.83549,9.98811 -0.66744,6.58408 -0.64193,6.68007 2.18173,8.20997 l 2.85707,1.54799 -3.32602,0.04 -3.32603,0.04 0.32603,-12.25 z m 9.88606,10.85893 c 0.24198,-0.2407 7.86496,-0.65345 16.93996,-0.91721 9.075,-0.26375 16.95,-0.63979 17.5,-0.83564 0.55,-0.19584 1.225,0.0939 1.5,0.64392 0.32191,0.64382 -6.06796,1.09734 -17.93996,1.27329 -10.14198,0.15031 -18.24198,0.0763 -18,-0.16436 z m 4.93996,-6.60893 c 0,-0.55 1.2375,-0.99311 2.75,-0.98469 2.14294,0.0119 2.41887,0.22931 1.25,0.98469 -1.95653,1.26441 -4,1.26441 -4,0 z m -9.91667,-26.36562 c 0.22917,-0.20109 4.20813,-0.61395 8.84215,-0.91746 5.17527,-0.33897 7.87558,-0.20384 7,0.3503 -1.31677,0.83335 -16.77625,1.38682 -15.84215,0.56716 z"
           id="path1286"
           inkscape:connector-curvature="0" />
        <path
           style="fill:#c38579"
           d="m 142.16586,292.00936 c 0,-0.81608 7.10605,-13.11773 8.17668,-14.15508 0.56765,-0.55 -0.57868,2.22902 -2.5474,6.1756 -3.02439,6.06283 -5.62928,9.75525 -5.62928,7.97948 z m 165.20818,-2.90508 c -1.07521,-1.7875 -5.2029,-9.44635 -9.17264,-17.01966 -3.96975,-7.57331 -7.88387,-14.43581 -8.69806,-15.25 -1.04725,-1.04725 -3.70242,-1.48034 -9.07558,-1.48034 -4.17738,0 -7.33178,-0.26345 -7.00978,-0.58545 0.48112,-0.48112 13.29954,-0.85777 17.37313,-0.51048 0.89012,0.0759 20.37475,36.1186 20.37475,37.68927 0,1.49427 -2.15443,-0.12125 -3.79182,-2.84334 z m -153.70818,-17.75 c 0.85325,-1.65 1.77636,-3 2.05136,-3 0.275,0 -0.19811,1.35 -1.05136,3 -0.85325,1.65 -1.77636,3 -2.05136,3 -0.275,0 0.19811,-1.35 1.05136,-3 z m 52.96223,-1.5 c -0.42384,-1.1 -0.98962,-2.45 -1.25729,-3 -0.26767,-0.55 0.30395,-0.2567 1.27026,0.65179 0.96632,0.90848 1.5321,2.25848 1.2573,3 -0.35209,0.95005 -0.72723,0.75756 -1.27027,-0.65179 z m 26.80195,-4.31298 c -1.58262,-1.20251 -2.0504,-2.32973 -1.62878,-3.92487 0.39205,-1.48323 0.0847,-2.43233 -0.91144,-2.81458 -0.90547,-0.34746 -1.30174,-1.34614 -0.99682,-2.51215 0.33152,-1.26773 -0.003,-1.93542 -0.96854,-1.93542 -1.48038,0 -7.24497,-9.84696 -6.31123,-10.78071 0.27401,-0.274 1.97294,0.62217 3.77541,1.9915 5.23958,3.98047 12.3446,5.36652 19.60798,3.82513 3.66874,-0.77856 6.80521,-2.12241 7.9597,-3.41039 3.50067,-3.90546 6.46376,-14.03797 4.63885,-15.86289 -1.12531,-1.1253 -5.49884,2.03326 -8.44296,6.09751 -1.64939,2.27692 -3.44607,4.13985 -3.99262,4.13985 -1.38982,0 -1.27707,-0.52428 1.12561,-5.23392 1.72664,-3.38451 1.89878,-4.50742 0.92901,-6.06026 -0.73597,-1.17848 -0.93789,-3.40014 -0.529,-5.82033 0.59358,-3.51339 0.33726,-4.21701 -2.50252,-6.86977 -3.46121,-3.23325 -3.97553,-7.75769 -0.82241,-7.23465 1.50085,0.24897 1.63645,-0.55072 1.18697,-7 -0.63504,-9.1118 -1.21247,-12.00351 -2.26679,-11.3519 -0.45472,0.28104 -0.60928,2.77444 -0.34345,5.5409 0.57331,5.96657 -1.35192,7.04111 -2.29323,1.27993 -0.33699,-2.0625 -0.84718,-5.00593 -1.13377,-6.54096 -0.28658,-1.53503 -5.5e-4,-3.41813 0.63563,-4.18468 0.63617,-0.76654 1.01348,-2.88561 0.83845,-4.70904 -0.25373,-2.64341 -1.02757,-3.66968 -3.81823,-5.06377 l -3.5,-1.74844 3.5316,-0.002 c 2.41729,-0.001 6.04582,1.48546 11.5,4.71128 4.38262,2.59206 8.4184,5.2133 8.9684,5.82499 0.77873,0.86606 14.11557,11.35258 15.25434,11.99421 0.57171,0.32217 -2.96358,6.46801 -3.72059,6.46801 -1.08621,0 -2.03375,-2.58864 -2.03375,-5.55611 0,-1.59681 -0.91461,-2.86798 -2.75,-3.82208 -1.5125,-0.78625 -5.06468,-3.6103 -7.89374,-6.27568 -2.82906,-2.66537 -6.76656,-5.83791 -8.75,-7.05009 -3.47797,-2.12556 -3.60626,-2.13496 -3.60626,-0.26435 0,3.51535 6.22496,26.37942 7.75732,28.49239 0.40847,0.56324 3.13713,2.24577 6.06369,3.73896 4.95693,2.52912 5.51658,2.61375 8.17933,1.23679 1.64612,-0.85125 4.06124,-1.23751 5.69477,-0.91081 2.0139,0.40278 3.62935,-0.0564 5.57067,-1.58344 3.38575,-2.66323 3.4361,-3.6126 0.23422,-4.41622 -2.18106,-0.54741 -2.49594,-1.16723 -2.4682,-4.85841 0.03,-3.98488 0.11899,-4.11463 1.53082,-2.23095 0.82446,1.1 2.88136,3.47274 4.5709,5.27275 2.53025,2.6957 2.93759,3.75361 2.31023,6 -0.41891,1.49999 -0.66518,3.49499 -0.54728,4.43335 0.30346,2.41516 -3.53007,14.50737 -6.17266,19.47057 -5.21115,9.78735 -6.825,12.32333 -7.84234,12.32333 -0.59283,0 -0.11216,-1.4625 1.06816,-3.25 4.70599,-7.12685 12.851,-29.13715 11.16739,-30.17768 -0.98173,-0.60674 -9.45521,6.18795 -10.29673,8.25671 -0.37385,0.91904 -0.71135,2.88709 -0.75,4.37346 -0.0387,1.48637 -1.8119,6.00938 -3.94053,10.05113 -3.7699,7.1581 -3.82408,7.40566 -2.08971,9.54751 0.97929,1.20938 2.2709,2.19887 2.87024,2.19887 3.97944,0 -2.51568,11.24788 -8.15703,14.12588 -2.06429,1.05312 -3.75362,2.24312 -3.75407,2.64444 -4.4e-4,0.40133 -4.39144,0.81384 -9.75777,0.9167 -7.81445,0.14978 -10.199,-0.14886 -11.97724,-1.5 z m 23.99939,-2.43702 c 3.99777,-2.23446 5.73643,-4.02421 5.73643,-5.90499 0,-1.01475 -0.45,-1.84501 -1,-1.84501 -0.55,0 -1,0.39752 -1,0.88337 0,0.48585 -0.83793,1.10249 -1.86206,1.37031 -1.02413,0.26781 -2.56464,1.8953 -3.42335,3.61663 -1.7482,3.50435 -1.62508,3.65376 1.54898,1.87969 z m 4.44357,-39.47143 c -1.60952,-1.60952 -1.70714,-1.59005 -1.70714,0.34048 0,2.62085 1.08005,3.7009 2.39048,2.39047 0.69841,-0.69841 0.48123,-1.56639 -0.68334,-2.73095 z m -84.20714,41.21942 c -2.2,-0.77782 -5.27159,-2.82833 -6.82575,-4.55667 -2.3429,-2.60547 -3.41088,-3.07413 -6.25,-2.74268 -3.95341,0.46154 -3.94048,0.48385 -1.80991,-3.12291 1.48578,-2.51522 1.48578,-2.98145 0,-5.85463 -2.03552,-3.93626 -2.07372,-10.43206 -0.084,-14.27979 1.21346,-2.34657 1.28876,-3.41078 0.36367,-5.13933 -0.78651,-1.4696 -0.96167,-5.06815 -0.53755,-11.04327 0.63743,-8.98017 1.45734,-11.65248 4.68162,-15.25871 0.9835,-1.1 2.94692,-4.19447 4.36316,-6.87659 l 2.57498,-4.8766 -5.1095,-10.1234 c -6.469,-12.81699 -6.71209,-16.66541 -1.45772,-23.07768 4.52931,-5.52743 10.50769,-8.00037 17.67591,-7.31159 4.47369,0.42986 5.63942,1.04661 9.22191,4.87896 9.13089,9.76772 10.69316,12.01339 10.69316,15.37073 0,1.81203 0.7875,4.25991 1.75,5.43972 1.6846,2.06496 1.9344,2.08937 6.68435,0.65317 6.70706,-2.02794 18.12604,-3.09704 18.94396,-1.77361 0.4036,0.65302 -1.85742,1.29221 -6.11909,1.72986 -6.26777,0.64366 -13.25922,3.50541 -13.25922,5.42727 0,0.43841 1.3687,1.36405 3.04156,2.05697 l 3.04156,1.25986 -2.79156,1.72823 c -2.77345,1.71701 -2.79969,1.70963 -4.04443,-1.13854 -1.59907,-3.65894 -3.24713,-3.68631 -3.24713,-0.0539 0,1.54706 -1.15229,5.20142 -2.56064,8.12079 -2.85905,5.92652 -2.71726,7.18294 1.09224,9.67902 3.134,2.05348 4.09317,1.13838 5.09683,-4.86266 0.34495,-2.0625 1.01967,-3.75 1.49938,-3.75 1.19861,0 1.09264,4.56872 -0.26247,11.31631 l -1.13465,5.64987 4.21754,5.46671 c 4.83999,6.27354 8.8215,8.10509 15.3225,7.04858 5.08026,-0.82561 4.10888,0.67575 -1.62344,2.50918 -3.4291,1.09676 -3.79444,1.52236 -3.32276,3.8708 1.61827,8.05719 5.66347,11.44615 12.42547,10.4097 3.96883,-0.60833 4.07743,0.0965 0.5,3.24521 -3.69798,3.25481 -7.65705,3.20738 -9.95332,-0.11921 -0.98817,-1.43157 -3.01452,-3.95274 -4.50299,-5.6026 -1.48847,-1.64985 -3.23518,-4.60225 -3.88159,-6.56089 -0.6464,-1.95863 -2.72332,-5.58918 -4.61535,-8.06788 -1.89204,-2.47871 -4.74776,-7.09724 -6.34603,-10.26341 -3.23425,-6.40701 -4.57367,-7.67942 -6.28371,-5.96938 -0.8783,0.8783 -0.63317,2.07189 1.01288,4.93196 1.19438,2.07529 2.89771,6.57538 3.78517,10.00021 0.88746,3.42483 4.07088,11.37769 7.07425,17.67302 3.00338,6.29532 5.46069,11.8792 5.46069,12.40862 0,1.48942 -5.66937,2.19146 -15,1.85747 -6.83807,-0.24478 -8.4372,-0.59044 -8.17879,-1.76791 0.47048,-2.14377 -0.78044,-8.03636 -1.70601,-8.03636 -0.96196,0 -3.1152,4.52535 -3.1152,6.54705 0,0.79912 0.7125,1.45295 1.58333,1.45295 2.18472,0 1.19649,2.41788 -1.1662,2.85333 -1.05442,0.19434 -3.96931,2.55684 -6.47754,5.25 -2.50823,2.69317 -4.98323,4.87692 -5.5,4.85278 -0.51677,-0.0241 -2.73959,-0.6803 -4.93959,-1.45812 z m 11.3577,-13.23741 c 5.86293,-9.83496 8.52219,-17.49047 10.66518,-30.703 1.80416,-11.12352 1.81774,-16.31457 0.051,-19.50469 -1.22549,-2.21284 -15.54726,-11.34385 -16.45116,-10.48864 -0.2075,0.19632 2.38,3.07175 5.75,6.38983 4.19365,4.12903 6.12728,6.80592 6.12728,8.4825 0,3.21418 -5.39059,19.33387 -9.21748,27.56342 -5.28543,11.36607 -5.88479,13.10242 -5.23233,15.15815 0.48852,1.53918 1.20312,1.8696 3.04409,1.40754 3.05173,-0.76593 3.03123,0.19792 -0.0943,4.43431 -2.76099,3.74231 -3.20352,6 -1.17607,6 0.72817,0 3.66836,-3.93274 6.53377,-8.73942 z m 11.65609,-10.1978 c -0.69528,-3.1656 -2.51379,-3.31301 -2.51379,-0.20376 0,1.76347 2.02169,4.45263 2.77849,3.69582 0.22651,-0.22651 0.10739,-1.79793 -0.2647,-3.49206 z m -30.5291,-0.8718 c 0.008,-0.71996 -0.43469,-1.0309 -0.98469,-0.69098 -0.55,0.33992 -0.99311,1.60398 -0.98468,2.80902 0.0125,1.78123 0.1966,1.91046 0.98468,0.69098 0.53316,-0.825 0.97627,-2.08906 0.98469,-2.80902 z m 4.57622,-9.56702 c 3.5415,-3.50682 6.43909,-6.88299 6.43909,-7.5026 0,-0.61961 -1.8,-2.75276 -4,-4.74033 -4.59494,-4.15125 -5.07642,-5.6893 -1.5,-4.79167 4.16078,1.04429 2.86352,-1.40017 -1.42493,-2.68501 -5.66526,-1.69736 -7.07507,-0.81474 -7.07507,4.42941 0,2.98075 0.69041,5.27424 2.14399,7.12216 1.21514,1.54479 2.18992,4.29502 2.25,6.3481 0.0881,3.01158 -0.35773,3.84864 -2.64399,4.96378 -1.5125,0.73773 -2.75,1.76678 -2.75,2.28677 0,2.16303 2.48256,0.58822 8.56091,-5.43061 z m 13.59199,-19.06019 c 1.25549,-2.7555 0.55468,-5.56377 -1.38845,-5.56377 -0.83055,0 -1.3361,1.44113 -1.4032,4 -0.11819,4.5077 1.13138,5.20766 2.79165,1.56377 z m -9.01683,-7.37268 c -1.6003,-2.24742 -2.6598,-2.81363 -4.57855,-2.44684 -3.92548,0.75041 -5.1341,2.8768 -2.45125,4.31262 1.88437,1.00849 2.45777,0.90166 3.65144,-0.68026 1.3699,-1.81546 1.46665,-1.80242 2.96898,0.40025 0.85411,1.25227 1.7641,2.06568 2.02221,1.80757 0.2581,-0.2581 -0.46767,-1.78511 -1.61283,-3.39334 z m 25.6785,-20.76223 c -0.46231,-7.26053 -1.34731,-8.77741 -3.45816,-5.92729 -1.46256,1.97479 -1.49708,1.97546 -2.91824,0.0573 -1.40997,-1.90307 -1.43817,-1.8998 -1.43817,0.16667 0,1.15928 -0.5625,2.3179 -1.25,2.5747 -1.26907,0.47403 -1.06801,0.59227 3.56895,2.0989 1.2863,0.41794 1.63261,1.17812 1.18261,2.59593 -0.39518,1.24512 -0.18224,2.00493 0.56189,2.00493 0.80593,0 1.01627,1.12135 0.64244,3.42495 l -0.55579,3.42495 2.03447,-2.03447 c 1.7243,-1.7243 1.97281,-3.0029 1.63,-8.38657 z m -14.73234,-5.67886 c 0.0452,-0.6875 0.28562,-2.4875 0.53421,-4 0.38899,-2.36673 0.11481,-2.75 -1.96722,-2.75 -1.49863,0 -3.06416,0.98433 -4.11411,2.58676 -0.9322,1.42272 -1.54646,2.68429 -1.36501,2.80349 0.9008,0.59177 5.42374,2.48286 6.0799,2.54207 0.4125,0.0372 0.787,-0.49482 0.83223,-1.18232 z m 10.91777,-6.03759 c 0,-0.70818 -2.27805,-3.52068 -5.06234,-6.25 -4.85524,-4.75939 -5.12116,-4.883 -6.5,-3.02128 -1.87485,2.53142 -1.8409,5.55887 0.0623,5.55887 0.825,0 1.5,0.3876 1.5,0.86133 0,0.47373 1.02507,0.66537 2.27793,0.42587 1.44968,-0.27712 2.96042,0.31869 4.15499,1.63867 2.13534,2.35954 3.56708,2.67523 3.56708,0.78654 z m -42.03579,89.45194 c 0.65881,-1.2846 1.47209,-2.06139 1.80729,-1.72619 0.3352,0.3352 -0.20383,1.38624 -1.19784,2.33565 -1.72775,1.65022 -1.75457,1.6234 -0.60945,-0.60946 z m 42.03579,-0.0574 c 0,-0.49116 0.65208,-1.14324 1.44907,-1.44907 0.96852,-0.37166 1.26467,-0.0755 0.89301,0.89301 -0.60696,1.58173 -2.34208,1.99368 -2.34208,0.55606 z"
           id="path1284"
           inkscape:connector-curvature="0" />
        <path
           style="fill:#75758b"
           d="m 142.16586,292.00936 c 0,-0.81608 7.10605,-13.11773 8.17668,-14.15508 0.56765,-0.55 -0.57868,2.22902 -2.5474,6.1756 -3.02439,6.06283 -5.62928,9.75525 -5.62928,7.97948 z m 165.20818,-2.90508 c -1.07521,-1.7875 -5.2029,-9.44635 -9.17264,-17.01966 -3.96975,-7.57331 -7.88387,-14.43581 -8.69806,-15.25 -1.04725,-1.04725 -3.70242,-1.48034 -9.07558,-1.48034 -4.17738,0 -7.33178,-0.26345 -7.00978,-0.58545 0.48112,-0.48112 13.29954,-0.85777 17.37313,-0.51048 0.89012,0.0759 20.37475,36.1186 20.37475,37.68927 0,1.49427 -2.15443,-0.12125 -3.79182,-2.84334 z m -153.70818,-17.75 c 0.85325,-1.65 1.77636,-3 2.05136,-3 0.275,0 -0.19811,1.35 -1.05136,3 -0.85325,1.65 -1.77636,3 -2.05136,3 -0.275,0 0.19811,-1.35 1.05136,-3 z m 52.96223,-1.5 c -0.42384,-1.1 -0.98962,-2.45 -1.25729,-3 -0.26767,-0.55 0.30395,-0.2567 1.27026,0.65179 0.96632,0.90848 1.5321,2.25848 1.2573,3 -0.35209,0.95005 -0.72723,0.75756 -1.27027,-0.65179 z m 26.7009,-4.37695 c -1.50465,-1.13496 -2.03975,-2.28101 -1.60003,-3.42688 0.36336,-0.9469 0.13022,-2.36077 -0.51809,-3.14193 -0.95046,-1.14524 -0.63322,-1.71601 1.63813,-2.94723 l 2.81686,-1.52693 -4.10803,-0.04 c -3.91906,-0.0382 -4.23072,-0.27653 -6.77541,-5.1813 -1.46705,-2.82769 -2.44319,-5.36544 -2.16919,-5.63945 0.27401,-0.274 1.97294,0.62217 3.77541,1.9915 5.23958,3.98047 12.3446,5.36652 19.60798,3.82513 3.66874,-0.77856 6.80521,-2.12241 7.9597,-3.41039 3.50067,-3.90546 6.46376,-14.03797 4.63885,-15.86289 -1.12531,-1.1253 -5.49884,2.03326 -8.44296,6.09751 -1.64939,2.27688 -3.44607,4.13981 -3.99262,4.13981 -1.38982,0 -1.27707,-0.52428 1.12561,-5.23392 1.72664,-3.38451 1.89878,-4.50742 0.92901,-6.06026 -0.73597,-1.17848 -0.93789,-3.40014 -0.529,-5.82033 0.59358,-3.51339 0.33726,-4.21701 -2.50252,-6.86977 -3.46121,-3.23325 -3.97553,-7.75769 -0.82241,-7.23465 1.50085,0.24897 1.63645,-0.55072 1.18697,-7 -0.63504,-9.1118 -1.21247,-12.00351 -2.26679,-11.3519 -0.45472,0.28104 -0.60928,2.77444 -0.34345,5.5409 0.57331,5.96657 -1.35192,7.04111 -2.29323,1.27993 -0.33699,-2.0625 -0.84718,-5.00593 -1.13377,-6.54096 -0.28658,-1.53503 -5.5e-4,-3.41813 0.63563,-4.18468 0.63617,-0.76654 1.01348,-2.88561 0.83845,-4.70904 -0.25373,-2.64341 -1.02757,-3.66968 -3.81823,-5.06377 l -3.5,-1.74844 3.5316,-0.002 c 2.41729,-0.001 6.04582,1.48546 11.5,4.71128 4.38262,2.59206 8.4184,5.2133 8.9684,5.82499 0.77873,0.86606 14.11557,11.35258 15.25434,11.99421 0.57171,0.32217 -2.96358,6.46801 -3.72059,6.46801 -1.08621,0 -2.03375,-2.58864 -2.03375,-5.55611 0,-1.59681 -0.91461,-2.86798 -2.75,-3.82208 -1.5125,-0.78625 -5.06468,-3.6103 -7.89374,-6.27568 -2.82906,-2.66537 -6.76656,-5.83791 -8.75,-7.05009 -3.47797,-2.12556 -3.60626,-2.13496 -3.60626,-0.26435 0,3.51535 6.22496,26.37942 7.75732,28.49239 0.40847,0.56324 3.13713,2.24577 6.06369,3.73896 4.95693,2.52912 5.51658,2.61375 8.17933,1.23679 1.64612,-0.85125 4.06124,-1.23751 5.69477,-0.91081 2.0139,0.40278 3.62935,-0.0564 5.57067,-1.58344 3.38575,-2.66323 3.4361,-3.6126 0.23422,-4.41622 -2.17638,-0.54624 -2.49856,-1.17514 -2.48891,-4.85841 l 0.0111,-4.23095 2.73182,3.46778 c 1.50251,1.90727 3.52252,4.14478 4.48891,4.97224 2.68413,2.29822 2.11443,4.79328 -1.49291,6.53835 -1.7875,0.86471 -5.32024,3.09139 -7.85054,4.94817 -4.05953,2.97896 -4.67791,3.94045 -5.25847,8.17609 -0.36186,2.64007 -2.20616,7.79185 -4.09843,11.44842 l -3.4405,6.64829 2.90848,2.15033 c 1.59966,1.18268 3.3767,2.15033 3.94897,2.15033 1.55938,0 1.25416,4.98078 -0.34278,5.59358 -0.76079,0.29194 -3.06575,-0.17218 -5.12212,-1.03139 -2.05637,-0.8592 -4.84927,-1.56219 -6.20644,-1.56219 -2.51192,0 -6.79368,4.06954 -5.27154,5.01027 0.45933,0.28389 -1.044,2.53521 -3.34074,5.00295 -4.72377,5.07545 -9.4614,6.16577 -13.51276,3.10983 z m 8.8907,-3.77323 c 3.49983,-3.70701 2.30395,-3.72474 -1.80383,-0.0267 -1.92605,1.73388 -2.95447,3.67688 -1.94617,3.67688 0.16711,0 1.85461,-1.64258 3.75,-3.65018 z M 261.873,223.63285 c -1.60952,-1.60952 -1.70714,-1.59005 -1.70714,0.34048 0,2.62085 1.08005,3.7009 2.39048,2.39047 0.69841,-0.69841 0.48123,-1.56639 -0.68334,-2.73095 z m -14.04962,42.04562 c -1.04361,-1.04361 3.45297,-5.32419 5.59285,-5.32419 1.77293,0 1.74419,0.19946 -0.42431,2.94467 -2.32015,2.93719 -3.88872,3.65934 -5.16854,2.37952 z m -70.06381,-1.36546 c -1.59846,-0.47815 -4.29846,-2.18422 -6,-3.79128 -3.74227,-3.53446 -5.39529,-4.13844 -8.34371,-3.04862 -2.67796,0.98985 -2.76678,0.5646 -0.63566,-3.0431 1.48578,-2.51522 1.48578,-2.98145 0,-5.85463 -2.03552,-3.93626 -2.07372,-10.43206 -0.084,-14.27979 1.21346,-2.34657 1.28876,-3.41078 0.36367,-5.13933 -1.41077,-2.63604 -0.49962,-18.78238 1.24735,-22.10428 0.63567,-1.20874 2.15874,-3.40416 3.3846,-4.87873 1.22586,-1.47457 3.19941,-4.68596 4.38566,-7.13642 l 2.15681,-4.45539 -5.18889,-9.85935 c -6.55138,-12.4482 -6.80069,-16.31734 -1.47054,-22.82208 4.52281,-5.5195 10.50952,-8.00019 17.651,-7.31398 4.824,0.46352 5.46498,0.88425 12.00355,7.87896 3.79908,4.06411 6.92009,8.28929 6.93558,9.38929 0.0155,1.1 0.2995,3.0125 0.63114,4.25 0.70836,2.64326 -1.2171,3.11017 -2.06195,0.5 -0.84397,-2.60747 -10.0401,-12.25277 -11.66241,-12.23203 -0.77326,0.01 -2.85217,2.23008 -4.61979,4.93377 -2.37193,3.62802 -4.53318,5.52106 -8.25,7.22618 -2.76988,1.27071 -5.03614,2.78551 -5.03614,3.36623 0,2.23186 2.28087,3.17852 6.50984,2.70185 6.48829,-0.73132 9.18028,0.32861 12.12115,4.77258 2.89925,4.38105 4.36901,5.04762 4.36901,1.98142 0,-1.11111 0.66667,-2 1.5,-2 1.81187,0 2.00732,2.62208 0.25,3.35384 -0.8945,0.37248 -0.71782,0.95045 0.62124,2.03223 1.3448,1.08642 1.6911,2.22941 1.23094,4.06282 -0.82602,3.29113 1.24519,3.40693 4.22398,0.23616 1.64982,-1.75616 2.20579,-3.65995 2.30324,-7.88689 0.0707,-3.06456 -0.22493,-6.14372 -0.65685,-6.84257 -0.57754,-0.93448 -0.19327,-1.11582 1.45249,-0.68545 1.23077,0.32186 4.3091,-0.0382 6.84072,-0.80009 6.447,-1.94026 17.81443,-2.95833 18.61255,-1.66694 0.4036,0.65302 -1.85742,1.29221 -6.11909,1.72986 -6.26777,0.64366 -13.25922,3.50541 -13.25922,5.42727 0,0.43841 1.3687,1.36405 3.04156,2.05697 l 3.04156,1.25986 -2.79156,1.72823 c -2.77345,1.71701 -2.79969,1.70963 -4.04443,-1.13854 -1.59907,-3.65894 -3.24713,-3.68631 -3.24713,-0.0539 0,1.54706 -1.15229,5.20142 -2.56064,8.12079 -2.85905,5.92652 -2.71726,7.18294 1.09224,9.67902 3.134,2.05348 4.09317,1.13838 5.09683,-4.86266 0.34495,-2.0625 1.01967,-3.75 1.49938,-3.75 1.19861,0 1.09264,4.56872 -0.26247,11.31631 l -1.13465,5.64987 4.21754,5.46671 c 4.83999,6.27354 8.8215,8.10509 15.3225,7.04858 5.08026,-0.82561 4.10888,0.67575 -1.62344,2.50918 -3.4291,1.09676 -3.79444,1.52236 -3.32276,3.8708 1.61827,8.05719 5.66347,11.44615 12.42547,10.4097 3.96883,-0.60833 4.07743,0.0965 0.5,3.24521 -3.69798,3.25481 -7.65705,3.20738 -9.95332,-0.11921 -0.98817,-1.43157 -3.01452,-3.95274 -4.50299,-5.6026 -1.48847,-1.64985 -3.23518,-4.60225 -3.88159,-6.56089 -0.6464,-1.95863 -2.72332,-5.58918 -4.61535,-8.06788 -1.89204,-2.47871 -4.74776,-7.09724 -6.34603,-10.26341 -3.23425,-6.40701 -4.57367,-7.67942 -6.28371,-5.96938 -0.8783,0.8783 -0.63317,2.07189 1.01288,4.93196 1.19438,2.07529 2.89771,6.57538 3.78517,10.00021 0.88746,3.42483 4.07088,11.37769 7.07425,17.67302 3.00338,6.29532 5.46069,11.8592 5.46069,12.36416 0,1.03726 -14.65145,2.45653 -20,1.93738 -2.4447,-0.23729 -3.40315,-0.78103 -3.17879,-1.80336 0.59738,-2.722 -0.90289,-8.03636 -2.2687,-8.03636 -1.49978,0 -3.49426,4.78048 -2.81619,6.75 0.23669,0.6875 1.18035,1.28671 2.09701,1.33157 0.93603,0.0458 0.27292,0.692 -1.51262,1.47402 -1.74861,0.76584 -4.44605,3.09163 -5.99431,5.16842 -4.26528,5.72132 -4.91111,5.97614 -10.73269,4.23472 z m 7.12292,-4.20873 c 5.87394,-6.39939 11.4041,-18.48751 13.73895,-30.03136 5.25916,-26.00211 4.66331,-29.22758 -6.61288,-35.79696 -4.03849,-2.35278 -8.3552,-5.17609 -9.5927,-6.27404 -1.38686,-1.23046 -2.25,-1.51993 -2.25,-0.75457 0,0.78663 -0.73298,1.00906 -2,0.60693 -1.1,-0.34913 -1.98681,-0.26695 -1.97068,0.18261 0.063,1.7578 6.04916,7.31739 7.87878,7.31739 1.06496,0 3.79385,2.1375 6.0642,4.75 3.44973,3.96962 4.04881,5.27807 3.64648,7.96423 -0.86052,5.74517 -8.48369,23.27352 -13.14022,30.21396 -4.12771,6.15225 -4.44274,7.03583 -3.44454,9.66127 0.60427,1.58935 0.81644,4.39412 0.4715,6.23283 -0.42388,2.25949 -0.11379,4.12662 0.95671,5.7604 1.97251,3.01044 3.60464,3.0541 6.2544,0.16731 z m 15.79716,-18.68722 c -0.69528,-3.1656 -2.51379,-3.31301 -2.51379,-0.20376 0,1.76347 2.02169,4.45263 2.77849,3.69582 0.22651,-0.22651 0.10739,-1.79793 -0.2647,-3.49206 z m -30.5291,-0.8718 c 0.008,-0.71996 -0.43469,-1.0309 -0.98469,-0.69098 -0.55,0.33992 -0.99311,1.60398 -0.98468,2.80902 0.0125,1.78123 0.1966,1.91046 0.98468,0.69098 0.53316,-0.825 0.97627,-2.08906 0.98469,-2.80902 z m 4.57622,-9.56702 c 3.5415,-3.50682 6.43909,-6.88299 6.43909,-7.5026 0,-0.61961 -1.8,-2.75276 -4,-4.74033 -4.59494,-4.15125 -5.07642,-5.6893 -1.5,-4.79167 4.16078,1.04429 2.86352,-1.40017 -1.42493,-2.68501 -5.66526,-1.69736 -7.07507,-0.81474 -7.07507,4.42941 0,2.98075 0.69041,5.27424 2.14399,7.12216 1.21514,1.54479 2.18992,4.29502 2.25,6.3481 0.0881,3.01158 -0.35773,3.84864 -2.64399,4.96378 -1.5125,0.73773 -2.75,1.76678 -2.75,2.28677 0,2.16303 2.48256,0.58822 8.56091,-5.43061 z m 13.59199,-19.06019 c 1.25549,-2.7555 0.55468,-5.56377 -1.38845,-5.56377 -0.83055,0 -1.3361,1.44113 -1.4032,4 -0.11819,4.5077 1.13138,5.20766 2.79165,1.56377 z m -9.01683,-7.37268 c -1.6003,-2.24742 -2.6598,-2.81363 -4.57855,-2.44684 -3.92548,0.75041 -5.1341,2.8768 -2.45125,4.31262 1.88437,1.00849 2.45777,0.90166 3.65144,-0.68026 1.3699,-1.81546 1.46665,-1.80242 2.96898,0.40025 0.85411,1.25227 1.7641,2.06568 2.02221,1.80757 0.2581,-0.2581 -0.46767,-1.78511 -1.61283,-3.39334 z m 8.86393,-17.19109 c 0,-0.55 -0.47656,-1 -1.05902,-1 -0.58246,0 -0.7809,0.45 -0.44098,1 0.33992,0.55 0.81648,1 1.05902,1 0.24254,0 0.44098,-0.45 0.44098,-1 z m -29.03579,74.16435 c 0.65881,-1.2846 1.47209,-2.06139 1.80729,-1.72619 0.3352,0.3352 -0.20383,1.38624 -1.19784,2.33565 -1.72775,1.65022 -1.75457,1.6234 -0.60945,-0.60946 z m 93.84829,-4.84746 c 0.72187,-0.28887 1.58437,-0.25335 1.91667,0.0789 0.33229,0.3323 -0.25834,0.56864 -1.3125,0.52522 -1.16495,-0.048 -1.4019,-0.28494 -0.60417,-0.60416 z m 22.1875,-19.19886 c 0,-0.55 0.45,-1.27811 1,-1.61803 0.55,-0.33992 1,-0.16803 1,0.38197 0,0.55 -0.45,1.27811 -1,1.61803 -0.55,0.33992 -1,0.16803 -1,-0.38197 z m -83.68328,-59.73504 c -0.87322,-2.27558 0.91213,-6.80338 2.82812,-7.17237 1.93636,-0.37291 3.33598,2.70856 1.88794,4.1566 -0.56803,0.56803 -1.03278,1.84278 -1.03278,2.83278 0,2.23862 -2.84031,2.37973 -3.68328,0.18299 z m -10.29666,-3.90716 c 0.69572,-0.83829 1.47088,-1.31823 1.72258,-1.06653 0.69349,0.6935 -0.71555,2.5907 -1.9241,2.5907 -0.6631,0 -0.58723,-0.57378 0.20152,-1.52417 z"
           id="path1282"
           inkscape:connector-curvature="0" />
        <path
           style="fill:#a5645b"
           d="m 296.8754,268.10428 c -5.4895,-9.9086 -6.81792,-12.75 -5.96091,-12.75 0.44,0 2.9236,4.275 5.51912,9.5 2.59551,5.225 4.5358,9.5 4.31175,9.5 -0.22405,0 -1.96553,-2.8125 -3.86996,-6.25 z m -58.70954,-1.48822 c -4.06362,-0.48547 -7.10396,-2.82728 -6.32069,-4.86847 0.29944,-0.78033 0.0117,-2.06068 -0.63941,-2.84523 -0.96587,-1.16381 -0.48014,-1.80566 2.63813,-3.48598 3.0548,-1.64612 3.28446,-1.94129 1.14414,-1.47052 -3.95635,0.87023 -6.53734,-0.31426 -8.27509,-3.79766 -0.85089,-1.70566 -1.54708,-3.20855 -1.54708,-3.33976 0,-0.13121 1.63318,0.59408 3.62929,1.61175 5.28117,2.6925 11.64373,3.36165 18.37711,1.93273 7.02445,-1.49069 8.9589,-3.38736 11.72766,-11.49864 4.20241,-12.31128 4.56316,-14.07613 3.34318,-16.35567 -1.65886,-3.09961 -3.07724,-2.63377 -3.07724,1.01066 0,3.12279 -0.021,3.13595 -2.06105,1.28976 -1.76389,-1.5963 -2.19422,-1.65469 -2.98469,-0.40499 -0.508,0.80313 -0.93053,2.16173 -0.93895,3.01911 -0.008,0.85738 -0.71361,2.43238 -1.56709,3.5 -1.51996,1.90133 -1.54,1.89789 -0.97742,-0.16769 0.33501,-1.23003 -0.0183,-2.60067 -0.84782,-3.28912 -0.9541,-0.79183 -1.26023,-2.40163 -0.93012,-4.89118 0.40624,-3.06364 0.0399,-4.13372 -2.1004,-6.13519 -2.85966,-2.67418 -3.42929,-4.61079 -1.09246,-3.71406 1.22221,0.469 1.50965,-0.48343 1.55211,-5.14302 l 0.0521,-5.71861 1.9601,5.09537 c 1.70819,4.44052 2.45736,5.24435 5.82927,6.2546 2.12804,0.63758 4.42765,1.83216 5.11024,2.65463 1.57353,1.89599 3.33549,1.88841 7.04584,-0.0303 2.6446,-1.36757 2.95034,-1.36757 2.95034,0 0,2.05914 0.60511,1.94714 5.74065,-1.06248 6.71408,-3.93471 6.16685,-2.19568 -0.8578,2.72598 -5.98166,4.19091 -6.2751,4.59775 -7.47395,10.36218 -0.68631,3.3 -2.65363,8.5612 -4.37182,11.69156 -3.07662,5.60525 -3.09301,5.70814 -1.08054,6.78518 1.1239,0.6015 2.04346,1.70465 2.04346,2.45145 0,0.74681 0.675,1.61685 1.5,1.93344 1.67783,0.64384 2.08076,4.63837 0.46788,4.63837 -0.56766,0 -2.64762,-0.675 -4.62212,-1.5 -1.97451,-0.825 -4.70042,-1.5 -6.05759,-1.5 -2.51192,0 -6.79368,4.06954 -5.27154,5.01027 0.77143,0.47678 -7.25935,10.18819 -8.12859,9.82969 -0.21342,-0.088 -1.96304,-0.3482 -3.88804,-0.57818 z m 4.05383,-4.91196 c 3.49983,-3.70701 2.30395,-3.72474 -1.80383,-0.0267 -1.92605,1.73388 -2.95447,3.67688 -1.94617,3.67688 0.16711,0 1.85461,-1.64258 3.75,-3.65018 z m 5.60369,3.97437 c -1.04361,-1.04361 3.45297,-5.32419 5.59285,-5.32419 1.77293,0 1.74419,0.19946 -0.42431,2.94467 -2.32015,2.93719 -3.88872,3.65934 -5.16854,2.37952 z m -70.38253,-1.4365 c -1.77376,-0.51256 -4.42114,-2.43097 -5.88306,-4.26314 -2.09719,-2.62833 -3.26297,-3.26079 -5.52498,-2.99741 -2.98341,0.34736 -3.8432,-1.25088 -1.78185,-3.31224 0.78013,-0.78013 0.67346,-1.89028 -0.37956,-3.95 -2.539,-4.96632 -2.76053,-8.58716 -0.85972,-14.0519 1.04654,-3.00876 1.46738,-5.78886 1.00215,-6.62018 -0.89311,-1.5959 -1.09611,-9.07077 -0.4126,-15.19282 0.24562,-2.2 0.47315,-4.51992 0.50561,-5.15539 0.0325,-0.63546 1.52725,-2.91274 3.32175,-5.06061 1.7945,-2.14787 4.12833,-5.8248 5.18629,-8.17095 1.77466,-3.93547 1.80405,-4.51142 0.37967,-7.43938 -10.87168,-22.34793 -11.00548,-23.39672 -3.9565,-31.01295 3.97219,-4.29183 7.4071,-5.66072 14.20426,-5.66072 h 6.17578 l 7.27624,7.25 c 6.15383,6.13164 7.37026,7.90559 7.88571,11.5 0.60171,4.19596 -0.71825,5.9837 -1.84584,2.5 -0.84397,-2.60747 -10.0401,-12.25277 -11.66241,-12.23203 -0.77326,0.01 -2.85217,2.23008 -4.61979,4.93377 -2.37193,3.62802 -4.53318,5.52106 -8.25,7.22618 -2.76988,1.27071 -5.03614,2.78551 -5.03614,3.36623 0,2.23186 2.28087,3.17852 6.50984,2.70185 6.48829,-0.73132 9.18028,0.32861 12.12115,4.77258 2.89925,4.38105 4.36901,5.04762 4.36901,1.98142 0,-1.11111 0.66667,-2 1.5,-2 1.81187,0 2.00732,2.62208 0.25,3.35384 -0.8945,0.37248 -0.71782,0.95045 0.62124,2.03223 1.3448,1.08642 1.6911,2.22941 1.23094,4.06282 -0.8036,3.2018 0.90816,3.35975 4.08337,0.3768 2.83764,-2.66583 2.97435,-1.03953 0.34575,4.11296 l -1.9687,3.85897 2.2187,1.51182 c 2.0972,1.42902 2.12502,1.60843 0.50812,3.27605 -1.62573,1.67673 -1.8081,1.53673 -3.67664,-2.82238 -1.67785,-3.91428 -3.03958,-5.21202 -9.28942,-8.85292 -4.02785,-2.34645 -8.33586,-5.1646 -9.57336,-6.26255 -1.38686,-1.23046 -2.25,-1.51993 -2.25,-0.75457 0,0.78663 -0.73298,1.00906 -2,0.60693 -1.1,-0.34913 -1.98681,-0.26695 -1.97068,0.18261 0.063,1.7578 6.04916,7.31739 7.87878,7.31739 1.06496,0 3.79385,2.1375 6.0642,4.75 3.44973,3.96962 4.04881,5.27807 3.64648,7.96423 -0.86052,5.74517 -8.48369,23.27352 -13.14022,30.21396 -4.1076,6.12228 -4.43913,7.04532 -3.45765,9.62681 0.59707,1.5704 0.81086,4.4813 0.47509,6.46866 -0.79368,4.69781 2.30436,9.11409 5.19135,7.40031 2.68378,-1.59315 8.88792,-11.07541 11.72747,-17.92397 1.81151,-4.36909 2.50097,-5.30998 2.53645,-3.46144 0.0268,1.39621 -0.82417,4.25069 -1.89104,6.34331 -1.43816,2.82086 -1.70316,4.42711 -1.02475,6.21144 0.69384,1.82494 0.57991,2.40669 -0.47134,2.40669 -0.76249,0 -2.58257,1.4625 -4.04462,3.25 -1.46204,1.7875 -3.29764,4.0375 -4.0791,5 -1.5563,1.91684 -3.2745,2.05102 -8.16543,0.63769 z m -7.14833,-19.63769 c 0.59243,-1.5125 1.15309,-4.01208 1.24589,-5.55462 0.11253,-1.87047 1.53582,-4.06695 4.27317,-6.59452 2.25744,-2.08445 4.9129,-5.02379 5.90104,-6.53187 1.795,-2.73952 1.7936,-2.74478 -1.55724,-5.87641 l -3.35384,-3.13444 2.43216,-0.61038 c 2.43136,-0.61018 2.43093,-0.61156 -1.31765,-4.21174 -3.48299,-3.3451 -3.6041,-3.64761 -1.70201,-4.25131 2.41744,-0.76727 4.16823,0.51135 7.0213,5.12771 2.56523,4.15062 3.44766,4.22201 5.40484,0.43724 1.93557,-3.74299 1.92478,-5.50771 -0.0458,-7.47823 -2.14645,-2.14645 -3.34453,-1.97283 -4.30512,0.62389 -0.74132,2.00397 -1.13122,1.69646 -4.4732,-3.5279 l -3.66111,-5.72323 -3.74457,3.74855 c -2.05951,2.06171 -3.76134,4.21176 -3.78184,4.77791 -0.0205,0.56614 -0.86033,2.26773 -1.86629,3.7813 -1.53177,2.30471 -1.7129,3.83616 -1.11458,9.42324 0.45086,4.21008 1.45953,7.67909 2.73406,9.40298 2.07176,2.80214 1.75317,4.92183 -0.7397,4.92183 -0.77319,0 -1.92861,0.97688 -2.5676,2.17083 -0.94121,1.75867 -0.86205,2.39002 0.41691,3.32521 0.98345,0.71912 1.36574,1.96875 1.01389,3.31423 -1.29364,4.94689 1.97939,7.05534 3.78729,2.43973 z m 17.87334,-57.25 c 0,-0.55 -0.47656,-1 -1.05902,-1 -0.58246,0 -0.7809,0.45 -0.44098,1 0.33992,0.55 0.81648,1 1.05902,1 0.24254,0 0.44098,-0.45 0.44098,-1 z m 64.8125,69.31689 c 0.72187,-0.28887 1.58437,-0.25335 1.91667,0.0789 0.33229,0.3323 -0.25834,0.56864 -1.3125,0.52522 -1.16495,-0.048 -1.4019,-0.28494 -0.60417,-0.60416 z m -48.5625,-2.0491 c -3.34014,-0.30084 -4.25,-0.78114 -4.25,-2.2435 0,-1.02339 -0.30312,-2.65064 -0.67361,-3.61611 -0.53452,-1.39294 -0.29871,-1.61154 1.14203,-1.05867 1.6502,0.63324 1.76122,0.23721 1.21836,-4.34634 -0.3285,-2.77369 -1.35887,-6.33234 -2.2897,-7.90812 -1.41375,-2.39329 -1.51393,-3.58378 -0.60836,-7.23005 0.59624,-2.40075 1.39582,-7.1775 1.77684,-10.615 0.41747,-3.76632 1.16435,-6.25 1.87947,-6.25 1.65655,0 5.05289,6.53721 6.49424,12.5 1.13277,4.68621 7.56097,20.76054 10.65117,26.63426 1.37292,2.60959 1.34439,2.64472 -3.04509,3.75 -2.43704,0.61366 -5.24422,1.03712 -6.23817,0.94103 -0.99395,-0.0961 -3.71968,-0.34696 -6.05718,-0.5575 z m 26.31798,-10.80438 c -0.95028,-1.45032 -1.53592,-2.8288 -1.30142,-3.0633 0.8877,-0.88771 7.8537,2.73981 7.47433,3.89223 -0.77929,2.36732 -4.39696,1.88151 -6.17291,-0.82893 z m 44.43202,-6.40439 c 0,-0.51754 0.44485,-1.21592 0.98855,-1.55194 0.56686,-0.35034 0.7345,0.0511 0.39301,0.94098 -0.66479,1.73242 -1.38156,2.04939 -1.38156,0.61096 z m -49.33819,-0.71931 c -0.461,-0.46184 -1.45799,-2.32005 -2.21554,-4.12936 -0.75754,-1.80931 -2.90837,-5.18431 -4.77962,-7.5 -1.87124,-2.31569 -3.92758,-5.22285 -4.56964,-6.46035 -2.03484,-3.92194 0.43039,-2.43382 4.48921,2.70989 2.15258,2.72795 4.75638,4.97795 5.78622,5 1.51102,0.0324 1.64287,0.31673 0.6831,1.47319 -0.93309,1.1243 -0.8339,1.97555 0.46035,3.95083 1.63584,2.4966 1.75574,6.56854 0.14592,4.9558 z m -15.99514,-26.00638 c -1.21793,-1.21793 -0.68908,-3.33333 0.83333,-3.33333 0.83333,0 1.5,0.88889 1.5,2 0,1.99224 -1.06554,2.60112 -2.33333,1.33333 z m 71.83333,-0.33333 c 0.33992,-0.55 0.81648,-1 1.05902,-1 0.24254,0 0.44098,0.45 0.44098,1 0,0.55 -0.47656,1 -1.05902,1 -0.58246,0 -0.7809,-0.45 -0.44098,-1 z m -12.46959,-11.45 c -0.0222,-2.15133 0.26838,-2.65121 1.07321,-1.84638 0.79095,0.79095 0.79957,1.62674 0.0304,2.95 -0.94083,1.61863 -1.07696,1.48249 -1.10362,-1.10362 z m -8.13875,-7.49173 c -1.31541,-1.09545 -1.94166,-1.99239 -1.39166,-1.9932 1.4333,-0.002 4.95631,2.81196 4.31866,3.4496 -0.29443,0.29444 -1.61158,-0.36094 -2.927,-1.4564 z m -54.69297,-6.19516 c 0.0325,-3.10028 -0.18758,-6.03612 -0.48916,-6.52408 -0.30157,-0.48795 1.32791,-0.87636 3.62108,-0.86311 2.29316,0.0132 5.23824,-0.36163 6.54462,-0.83305 3.62629,-1.3086 1.78047,0.81343 -2.77123,3.1859 -2.14829,1.11975 -4.17554,1.76636 -4.50499,1.43691 -0.32946,-0.32946 -0.63064,0.71349 -0.6693,2.31765 -0.0387,1.60417 -0.45726,3.81667 -0.93023,4.91667 -0.60864,1.4155 -0.84266,0.35263 -0.80079,-3.63689 z m 6.80131,0.0779 c 0,-0.58246 0.45,-0.7809 1,-0.44098 0.55,0.33992 1,0.81648 1,1.05902 0,0.24254 -0.45,0.44098 -1,0.44098 -0.55,0 -1,-0.47656 -1,-1.05902 z m -21.68328,-7.55799 c -0.87322,-2.27558 0.91213,-6.80338 2.82812,-7.17237 1.93636,-0.37291 3.33598,2.70856 1.88794,4.1566 -0.56803,0.56803 -1.03278,1.84278 -1.03278,2.83278 0,2.23862 -2.84031,2.37973 -3.68328,0.18299 z m -10.29666,-3.90716 c 0.69572,-0.83829 1.47088,-1.31823 1.72258,-1.06653 0.69349,0.6935 -0.71555,2.5907 -1.9241,2.5907 -0.6631,0 -0.58723,-0.57378 0.20152,-1.52417 z"
           id="path1280"
           inkscape:connector-curvature="0" />
        <path
           style="fill:#4f3e43"
           d="m 296.8754,268.10428 c -5.4895,-9.9086 -6.81792,-12.75 -5.96091,-12.75 0.44,0 2.9236,4.275 5.51912,9.5 2.59551,5.225 4.5358,9.5 4.31175,9.5 -0.22405,0 -1.96553,-2.8125 -3.86996,-6.25 z m -52.68948,-6.27417 c 0.69572,-0.83829 1.47088,-1.31823 1.72258,-1.06653 0.69349,0.6935 -0.71555,2.5907 -1.9241,2.5907 -0.6631,0 -0.58723,-0.57378 0.20152,-1.52417 z m -72.02006,-2.47583 c -1.97924,-1.66607 -4.69487,-2.95789 -6.25,-2.9731 -2.90735,-0.0284 -3.45552,-0.92137 -1.6649,-2.712 0.78013,-0.78013 0.67346,-1.89028 -0.37956,-3.95 -2.539,-4.96632 -2.76053,-8.58716 -0.85972,-14.0519 1.04654,-3.00876 1.46738,-5.78886 1.00215,-6.62018 -0.89311,-1.5959 -1.09611,-9.07077 -0.4126,-15.19282 0.24562,-2.2 0.47315,-4.54684 0.50561,-5.2152 0.0325,-0.66837 1.34846,-2.69337 2.92444,-4.5 1.57599,-1.80664 3.83513,-5.1973 5.02033,-7.5348 1.18519,-2.3375 2.64021,-4.25 3.23337,-4.25 0.59315,0 2.31665,1.32548 3.82999,2.94552 1.88462,2.01749 3.38665,2.77944 4.76737,2.41837 1.50874,-0.39454 2.95107,0.61417 5.7336,4.00989 l 3.71776,4.53703 -1.66404,5.72411 c -2.82746,9.72613 -10.08346,23.09636 -13.49051,24.85821 -4.63034,2.39444 -6.29287,5.66625 -5.70704,11.23128 0.723,6.86818 1.7398,10.52867 3.47931,12.52559 2.40701,2.7632 0.0622,1.98894 -3.78556,-1.25 z m -1.46087,-15.44121 c 0.89813,-1.89267 1.35415,-4.31969 1.01338,-5.39337 -0.45883,-1.44564 0.38178,-2.82308 3.23979,-5.30879 2.12266,-1.84614 4.93638,-4.83807 6.25272,-6.64873 l 2.39335,-3.2921 -3.40135,-3.17883 -3.40134,-3.17883 2.43216,-0.61038 c 2.43136,-0.61018 2.43093,-0.61156 -1.31765,-4.21174 -3.48299,-3.3451 -3.6041,-3.64761 -1.70201,-4.25131 2.41744,-0.76727 4.16823,0.51135 7.0213,5.12771 2.56523,4.15062 3.44766,4.22201 5.40484,0.43724 1.93557,-3.74299 1.92478,-5.50771 -0.0458,-7.47823 -2.14645,-2.14645 -3.34453,-1.97283 -4.30512,0.62389 -0.74132,2.00397 -1.13122,1.69646 -4.4732,-3.5279 l -3.66111,-5.72323 -3.74457,3.74855 c -2.05951,2.06171 -3.76134,4.21176 -3.78184,4.77791 -0.0205,0.56614 -0.86033,2.26773 -1.86629,3.7813 -1.53177,2.30471 -1.7129,3.83616 -1.11458,9.42324 0.45086,4.21008 1.45953,7.67909 2.73406,9.40298 2.07176,2.80214 1.75317,4.92183 -0.7397,4.92183 -0.77319,0 -1.92861,0.97688 -2.5676,2.17083 -0.94121,1.75867 -0.86205,2.39002 0.41691,3.32521 0.98345,0.71912 1.36574,1.96875 1.01389,3.31423 -0.65605,2.50873 0.16138,5.18973 1.58233,5.18973 0.54146,0 1.7193,-1.54855 2.61743,-3.44121 z m 66.46087,16.94121 c 0.68469,-0.825 1.69489,-1.5 2.24489,-1.5 0.55783,0 0.44954,0.66326 -0.24489,1.5 -0.68469,0.825 -1.69489,1.5 -2.24489,1.5 -0.55783,0 -0.44954,-0.66326 0.24489,-1.5 z m -4.3125,-1.14583 c -1.3041,-1.3041 -0.68149,-2.35417 1.39583,-2.35417 1.16375,0 1.90861,0.52417 1.6875,1.1875 -0.48711,1.46134 -2.15686,2.09314 -3.08333,1.16667 z m -32.6875,-7.27238 c 0,-1.05502 -0.30312,-2.70814 -0.67361,-3.67361 -0.51935,-1.35341 -0.29035,-1.60833 1,-1.11317 2.22541,0.85396 2.25904,-3.50077 0.0767,-9.92874 -1.29048,-3.80101 -1.39874,-5.77465 -0.56416,-10.28494 0.56801,-3.06973 1.32885,-7.94383 1.69075,-10.83133 0.3619,-2.8875 0.98292,-5.25 1.38003,-5.25 1.25212,0 4.77183,7.29676 6.02957,12.5 1.13194,4.68278 7.55871,20.75531 10.64752,26.62809 1.33518,2.5386 1.27636,2.64928 -1.72726,3.25 -1.71025,0.34205 -6.42829,0.62191 -10.48454,0.62191 -6.60352,0 -7.375,-0.20066 -7.375,-1.91821 z m 33.72919,1.0001 c -5.06812,-0.51103 -5.95093,-0.93067 -7.25,-3.4462 -0.81356,-1.57537 -1.47919,-2.98936 -1.47919,-3.1422 0,-0.15284 1.63318,0.55475 3.62929,1.57242 1.9961,1.01768 5.62481,2.14957 8.06378,2.51531 5.9289,0.8891 15.66945,-1.24191 18.08091,-3.95569 1.99419,-2.24418 6.22602,-12.70192 6.22602,-15.38577 0,-0.87026 0.76539,-2.42802 1.70086,-3.46171 1.57632,-1.74181 1.58211,-2.07515 0.079,-4.55241 -2.3422,-3.86013 -3.77986,-3.9187 -3.77986,-0.15399 0,3.20696 -0.02,3.22026 -2.06105,1.3731 -1.76389,-1.5963 -2.19422,-1.65469 -2.98469,-0.40499 -0.508,0.80313 -0.93053,2.16173 -0.93895,3.01911 -0.008,0.85738 -0.71361,2.43238 -1.56709,3.5 -1.51996,1.90133 -1.54,1.89789 -0.97742,-0.16769 0.33501,-1.23003 -0.0183,-2.60067 -0.84782,-3.28912 -0.9541,-0.79183 -1.26023,-2.40163 -0.93012,-4.89118 0.40624,-3.06364 0.0399,-4.13372 -2.1004,-6.13519 -2.85966,-2.67418 -3.42929,-4.61079 -1.09246,-3.71406 1.22221,0.469 1.50965,-0.48343 1.55211,-5.14302 l 0.0521,-5.71861 1.9601,5.09537 c 1.70819,4.44052 2.45736,5.24435 5.82927,6.2546 2.12804,0.63758 4.42765,1.83216 5.11024,2.65463 1.57353,1.89599 3.33549,1.88841 7.04584,-0.0303 2.8376,-1.46738 2.95034,-1.44118 2.95034,0.68555 0,1.21617 -0.95431,3.22704 -2.12068,4.46859 -1.16638,1.24155 -2.77554,5.09555 -3.57592,8.56445 -0.80038,3.4689 -2.61882,8.44684 -4.04098,11.0621 -1.42215,2.61526 -2.40049,4.88183 -2.17408,5.03684 0.22641,0.155 2.32416,1.56395 4.66166,3.13099 2.3375,1.56704 4.25,3.46296 4.25,4.21316 0,1.64319 -2.17078,1.79322 -3.70775,0.25625 -1.99602,-1.99602 -13.73288,-2.33323 -18.25351,-0.52443 -2.24357,0.8977 -4.40761,1.55653 -4.80898,1.46407 -0.40137,-0.0925 -3.32663,-0.42996 -6.50057,-0.75 z m -3.16121,-9.61848 c -0.95028,-1.45032 -1.53592,-2.8288 -1.30142,-3.0633 0.8877,-0.88771 7.8537,2.73981 7.47433,3.89223 -0.77929,2.36732 -4.39696,1.88151 -6.17291,-0.82893 z m -4.90617,-7.1237 c -0.461,-0.46184 -1.45799,-2.32005 -2.21554,-4.12936 -0.75754,-1.80931 -2.90837,-5.18431 -4.77962,-7.5 -1.87124,-2.31569 -3.92758,-5.22285 -4.56964,-6.46035 -2.03484,-3.92195 0.43039,-2.43382 4.48921,2.70989 2.15258,2.72795 4.75638,4.97795 5.78622,5 1.51102,0.0324 1.64287,0.31673 0.6831,1.47319 -0.93309,1.1243 -0.8339,1.97555 0.46035,3.95083 1.63584,2.4966 1.75574,6.56854 0.14592,4.9558 z m -15.99514,-26.00638 c -1.21793,-1.21793 -0.68908,-3.33333 0.83333,-3.33333 0.83333,0 1.5,0.88889 1.5,2 0,1.99224 -1.06554,2.60112 -2.33333,1.33333 z m 71.83333,-0.33333 c 0.33992,-0.55 0.81648,-1 1.05902,-1 0.24254,0 0.44098,0.45 0.44098,1 0,0.55 -0.47656,1 -1.05902,1 -0.58246,0 -0.7809,-0.45 -0.44098,-1 z m -79.04783,-4.26405 c -0.34172,-0.89052 -0.47076,-2.34296 -0.28674,-3.22765 0.29876,-1.43636 0.54864,-1.44916 2.33457,-0.11953 1.88936,1.40662 1.90522,1.58517 0.28674,3.22765 -1.55708,1.58018 -1.76989,1.59108 -2.33457,0.11953 z m 66.57824,-7.18595 c -0.0222,-2.15133 0.26838,-2.65121 1.07321,-1.84638 0.79095,0.79095 0.79957,1.62674 0.0304,2.95 -0.94083,1.61863 -1.07696,1.48249 -1.10362,-1.10362 z m -68.96061,0.0341 c -0.93608,-1.1279 -0.77637,-1.54246 0.78517,-2.03807 1.07815,-0.34219 2.21272,-1.28003 2.52126,-2.0841 0.30855,-0.80406 1.01784,-1.46193 1.57621,-1.46193 0.5624,0 0.27078,1.56107 -0.65383,3.5 -1.84153,3.86172 -2.48878,4.18071 -4.22881,2.0841 z m -7.37595,-5.22358 c -1.04259,-1.04259 0.27794,-2.36052 2.36517,-2.36052 1.06754,0 1.94098,0.675 1.94098,1.5 0,1.48325 -3.06994,2.09673 -4.30615,0.86052 z m 68.19781,-2.30225 c -1.31541,-1.09545 -1.94166,-1.99239 -1.39166,-1.9932 1.4333,-0.002 4.95631,2.81196 4.31866,3.4496 -0.29443,0.29444 -1.61158,-0.36094 -2.927,-1.4564 z m -70.80165,-4.30827 c -1.92169,-5.02484 -7.61635,-7.47874 -6.3795,-2.749 0.67749,2.59073 -1.19281,2.57621 -3.01365,-0.0234 -0.94952,-1.35565 -2.00226,-1.79764 -3.19315,-1.34065 -1.25705,0.48237 -1.64111,0.27525 -1.31327,-0.70827 0.67832,-2.03496 7.46951,-3.40465 10.35722,-2.08892 2.48407,1.13182 7.25885,9.16024 5.44791,9.16024 -0.57479,0 -1.43229,-1.0125 -1.90556,-2.25 z m 22.90999,-1.80902 c 0,-0.58246 0.45,-0.7809 1,-0.44098 0.55,0.33992 1,0.81648 1,1.05902 0,0.24254 -0.45,0.44098 -1,0.44098 -0.55,0 -1,-0.47656 -1,-1.05902 z m -43.33078,-4.44098 c -7.27491,-12.84962 -7.40367,-16.70099 -0.79703,-23.83928 3.96648,-4.28566 7.40553,-5.66072 14.1576,-5.66072 h 6.12911 l 6.0126,6.25 c 6.81099,7.07991 8.61073,9.75 6.57189,9.75 -0.72983,0 -3.31436,-2.025 -5.74339,-4.5 -2.42903,-2.475 -4.95327,-4.5 -5.60943,-4.5 -0.65616,0 -2.20171,1.6875 -3.43457,3.75 -1.25009,2.09134 -2.43641,3.19711 -2.6821,2.5 -0.60948,-1.72926 -2.93744,-1.56918 -3.63553,0.25 -1.00246,2.61238 -3.34967,1.62815 -5.14629,-2.15794 -1.50106,-3.16325 -1.86752,-3.42257 -2.70977,-1.91756 -0.53567,0.95721 -0.67701,3.32323 -0.31408,5.25782 0.50051,2.66798 1.06703,3.40201 2.34582,3.03947 4.11768,-1.16738 4.68595,-1.13753 4.68595,0.24617 0,0.83625 -1.57851,1.91208 -3.66815,2.5 -4.93022,1.38712 -5.2183,1.83105 -3.85969,5.94768 0.64432,1.95231 1.02667,4.56996 0.84967,5.81701 -0.27181,1.91495 -0.7618,1.49023 -3.15261,-2.73265 z m 38.58078,0.75947 c -2.61973,-0.89309 -1.11657,-3.0151 2.5,-3.52927 2.0625,-0.29322 4.61132,-0.87895 5.66404,-1.30161 1.26084,-0.50621 1.68913,-0.40455 1.255,0.2979 -1.0158,1.6436 -8.01453,5.01179 -9.41904,4.53298 z m -15.57115,-5.97008 c -0.30079,-0.48669 -0.18283,-1.47394 0.26213,-2.1939 0.61466,-0.99454 0.98628,-1.0222 1.54689,-0.11512 0.40582,0.65664 0.28787,1.64389 -0.26213,2.19389 -0.55946,0.55946 -1.24093,0.61018 -1.54689,0.11513 z"
           id="path1278"
           inkscape:connector-curvature="0" />
      </g>
    </g>
  </g>
</svg>
