<?xml version="1.0" encoding="UTF-8" standalone="no"?>
<!-- Created with Inkscape (http://www.inkscape.org/) -->

<svg
   xmlns:dc="http://purl.org/dc/elements/1.1/"
   xmlns:cc="http://creativecommons.org/ns#"
   xmlns:rdf="http://www.w3.org/1999/02/22-rdf-syntax-ns#"
   xmlns:svg="http://www.w3.org/2000/svg"
   xmlns="http://www.w3.org/2000/svg"
   xmlns:sodipodi="http://sodipodi.sourceforge.net/DTD/sodipodi-0.dtd"
   xmlns:inkscape="http://www.inkscape.org/namespaces/inkscape"
   width="210mm"
   height="297mm"
   viewBox="0 0 210 297"
   version="1.1"
   id="svg8"
   inkscape:version="0.92.5 (0.92.5+69)"
   sodipodi:docname="work.svg">
  <defs
     id="defs2" />
  <sodipodi:namedview
     id="base"
     pagecolor="#ffffff"
     bordercolor="#666666"
     borderopacity="1.0"
     inkscape:pageopacity="0.0"
     inkscape:pageshadow="2"
     inkscape:zoom="0.9983453"
     inkscape:cx="400"
     inkscape:cy="86.389849"
     inkscape:document-units="mm"
     inkscape:current-layer="layer1"
     showgrid="false"
     inkscape:window-width="1299"
     inkscape:window-height="713"
     inkscape:window-x="67"
     inkscape:window-y="27"
     inkscape:window-maximized="1" />
  <metadata
     id="metadata5">
    <rdf:RDF>
      <cc:Work
         rdf:about="">
        <dc:format>image/svg+xml</dc:format>
        <dc:type
           rdf:resource="http://purl.org/dc/dcmitype/StillImage" />
        <dc:title></dc:title>
      </cc:Work>
    </rdf:RDF>
  </metadata>
  <g
     inkscape:label="Layer 1"
     inkscape:groupmode="layer"
     id="layer1">
    <g
       id="g1196"
       transform="matrix(1.0181273,0,0,1.5293472,-125.81359,-192.21441)">
      <path
         style="fill:#f7ceb9"
         d="m 237.76091,317.24245 c -2.01224,-1.438 -3.06163,-1.54336 -6.42644,-0.64524 -4.43569,1.18395 -8.04893,0.31432 -9.00084,-2.16633 -0.63836,-1.66354 -5.66777,-2.23859 -5.66777,-0.64803 0,0.51072 -0.70714,1.63572 -1.57143,2.5 -1.37836,1.37836 -6.69827,1.57143 -43.3,1.57143 -31.12222,0 -42.03358,-0.30501 -42.92857,-1.2 -0.89204,-0.89204 -1.2,-11.14451 -1.2,-39.95031 0,-34.30042 -0.1817,-38.85199 -1.58227,-39.63579 -1.02379,-0.57294 -1.46499,-1.91408 -1.25,-3.79969 l 0.33227,-2.91421 21,-0.24645 c 11.7879,-0.13835 21.87734,-0.69452 23,-1.26786 1.1,-0.56178 5.58487,-0.90087 9.96638,-0.75355 6.91187,0.2324 8.01363,0.0362 8.32333,-1.48214 0.3282,-1.60912 -0.94228,-1.75 -15.78213,-1.75 -9.21272,0 -16.96918,-0.44427 -18.07332,-1.03518 -1.84903,-0.98957 -1.93426,-2.41285 -1.93426,-32.3 0,-22.98375 0.31784,-31.58266 1.2,-32.46482 0.89871,-0.89872 12.80405,-1.2 47.41821,-1.2 25.42002,0 46.93002,0.27315 47.8,0.60699 1.38421,0.53117 1.58226,3.74758 1.58553,25.75 0.004,23.60472 0.12948,25.34927 2.05904,28.51427 1.80598,2.96229 2.4424,3.30654 5.24626,2.83777 1.75503,-0.29342 4.50085,-1.03937 6.10183,-1.65767 l 2.91088,-1.12419 -3.04892,-3.21358 c -7.0957,-7.47893 -8.67698,-15.24251 -5.14608,-25.26559 1.30529,-3.70529 3.06717,-6.9249 3.91529,-7.15469 0.86933,-0.23554 1.63968,-1.69938 1.76588,-3.35556 0.2232,-2.92922 -1.07589,-3.93121 -2.3739,-1.83099 -1.39166,2.25175 -2.12394,-1.28091 -1.92917,-9.30665 0.14146,-5.82911 -0.31961,-9.43869 -1.65436,-12.95148 -1.87441,-4.93303 -2.35934,-13.13551 -1.1937,-20.19073 0.57646,-3.48905 0.87409,-3.79638 3.239,-3.34446 1.43231,0.27371 4.40421,1.1954 6.60421,2.04821 2.85765,1.10774 7.74107,1.5631 17.09952,1.59446 12.64925,0.0424 13.24264,0.14001 17.26323,2.84027 2.29004,1.53801 4.85827,3.78801 5.70718,5 0.84891,1.21199 1.98718,2.20362 2.52947,2.20362 1.21377,0 10.89347,7.08156 12.76946,9.34199 1.53668,1.85159 1.3451,2.91997 -2.50865,13.98998 -2.53211,7.27355 -2.64215,8.24038 -1.54336,13.56019 1.65109,7.99376 1.48762,11.06938 -0.81685,15.36902 -1.1,2.05237 -2,3.9582 -2,4.2352 0,0.27699 2.385,0.50362 5.3,0.50362 6.11571,0 7.7,1.1476 7.7,5.57755 0,4.57947 -2.24941,5.92245 -9.91972,5.92245 h -6.58028 l -0.30124,4.12192 -0.30124,4.12192 5.60201,0.46456 c 9.39718,0.77929 9.43974,0.92207 6.12707,20.55293 -1.55354,9.20627 -3.50288,17.80831 -4.33186,19.11564 -0.82897,1.30733 -2.80942,2.86849 -4.40099,3.46923 -2.72394,1.02818 -2.89375,1.42567 -2.89375,6.7737 v 5.68142 l 3.75,0.88111 c 3.23153,0.75929 3.79212,1.3099 4.05464,3.98247 0.26553,2.70316 -0.10671,3.24475 -2.89922,4.21823 -1.76213,0.61428 -4.59922,1.12182 -6.30464,1.12788 -1.70543,0.006 -4.78828,0.28993 -6.85078,0.63084 l -3.75,0.61983 v 7.25787 7.25787 l 3.69477,0.69314 c 6.26915,1.1761 12.74665,5.08697 15.62207,9.43203 3.99114,6.03102 3.1931,10.09741 -1.98166,10.09741 -2.69314,0 -4.33064,-2.63979 -4.04319,-6.51798 0.16462,-2.22094 -0.4798,-3.21472 -3.08909,-4.76377 -4.26664,-2.53295 -4.96542,-1.6881 -2.24477,2.714 2.58689,4.18568 2.00342,7.28831 -1.53777,8.17709 -3.64249,0.91421 -5.73266,-1.29744 -5.07225,-5.36704 0.75688,-4.66411 -1.66997,-6.80218 -8.72082,-7.68313 -4.84121,-0.60487 -6.23483,-0.37388 -9.88168,1.63783 -3.56353,1.96576 -4.26168,2.85568 -4.34561,5.53931 -0.18622,5.95412 -4.81059,8.37097 -7.81357,4.08362 -1.39384,-1.98999 -1.34465,-2.49131 0.56426,-5.75 3.1363,-5.35394 7.74372,-8.97247 13.59931,-10.68048 l 5.25,-1.53137 v -7.28975 -7.28975 l -5.25,-0.6306 c -7.91238,-0.95038 -13.37116,-0.77771 -16.20295,0.51254 l -2.54705,1.16051 v 15.21704 c 0,12.01418 -0.30265,15.46821 -1.43789,16.41038 -0.88968,0.73837 -4.41635,1.12575 -9.25,1.01604 -4.29666,-0.0975 -9.16211,0.11961 -10.81211,0.48251 -2.08274,0.45807 -3.73532,0.13433 -5.40495,-1.05883 z m 28.83466,-73.63817 c 0.0387,-1.5125 -0.37971,-2.75 -0.92971,-2.75 -0.55,0 -0.96837,2.1375 -0.92971,4.75 0.0529,3.57396 0.28306,4.25483 0.92971,2.75 0.47269,-1.1 0.89106,-3.2375 0.92971,-4.75 z m 3.58851,-16.83297 c 0.36966,-1.68302 0.43343,-3.29871 0.14172,-3.59042 -0.69529,-0.69529 -10.65994,2.62045 -10.65994,3.5471 0,0.88076 8.24373,4.01314 9.17306,3.4855 0.37019,-0.21018 0.97551,-1.75916 1.34516,-3.44218 z m -44.70461,0.33297 c -0.26272,-1.38044 -1.54526,-1.81333 -6.07333,-2.0499 -4.36499,-0.22805 -5.74028,0.0315 -5.74028,1.08333 0,2.28228 1.0775,2.71657 6.73999,2.71657 4.60941,0 5.35755,-0.25805 5.07362,-1.75 z m -13.09937,-24.5 c -1.90183,-3.4375 -6.95509,-13 -11.22945,-21.25 -4.27436,-8.25 -8.46805,-15.5625 -9.31931,-16.25 -1.07095,-0.86493 -5.80164,-1.25 -15.35661,-1.25 h -13.80887 v 22.5 22.5 h 26.58607 26.58606 z m 72.85829,-26.19315 c 0.0638,-3.02475 -0.14619,-3.32021 -1.75,-2.46187 -1.95161,1.04447 -2.17239,1.82971 -1.21554,4.32323 1.0787,2.81104 2.89095,1.67356 2.96554,-1.86136 z"
         id="path1210"
         inkscape:connector-curvature="0" />
      <path
         style="fill:#9fa1a2"
         d="m 270.23729,317.28285 c -2.22414,-2.22414 -1.9855,-3.55689 1.49792,-8.3656 2.7886,-3.84956 7.61917,-6.83988 15.22299,-9.42366 1.55275,-0.52762 1.75326,-1.647 1.5,-8.37417 l -0.29234,-7.76514 -8.5,-0.57934 c -8.89337,-0.60615 -13.64733,0.26867 -15.75,2.89832 -0.86819,1.08578 -1.25,5.90958 -1.25,15.79269 v 14.22942 l -2.86262,0.62874 c -1.57444,0.3458 -4.83694,0.56477 -7.25,0.48659 -2.41306,-0.0782 -6.30998,0.18525 -8.65982,0.5854 -3.37789,0.57521 -4.67695,0.36146 -6.2044,-1.02086 -1.6169,-1.46328 -2.45297,-1.56678 -5.12678,-0.63468 -5.02791,1.75274 -7.68604,1.36437 -9.48834,-1.38628 -1.62126,-2.47436 -3.7633,-3.06838 -6.82625,-1.89301 -0.86999,0.33384 -1.58179,1.18201 -1.58179,1.88481 0,0.9951 -6.9144,1.43079 -31.25,1.96915 -17.1875,0.38023 -36.425,0.54456 -42.75,0.36518 l -11.5,-0.32613 -0.26193,-38.94824 c -0.2521,-37.48718 -0.33756,-39.02876 -2.27827,-41.09455 -1.20658,-1.28435 -1.76122,-2.81113 -1.38108,-3.80175 0.56358,-1.46867 3.03033,-1.65546 21.8616,-1.65546 11.67449,0 21.57219,-0.3375 21.99488,-0.75 0.42269,-0.4125 4.88519,-0.75 9.91666,-0.75 9.09135,0 9.14814,-0.0155 9.14814,-2.5 v -2.5 l -16.9752,-0.2752 c -9.33636,-0.15136 -17.40404,-0.70404 -17.92817,-1.22817 -1.45775,-1.45775 -0.75267,-63.27648 0.73248,-64.22119 0.64399,-0.40965 21.72625,-0.75171 46.84946,-0.76013 40.20608,-0.0135 45.86684,0.17295 47.25,1.55612 1.34346,1.34345 1.57197,5.15164 1.57517,26.25 0.003,23.02 0.13989,24.90189 2.02966,28.00151 1.82085,2.98659 2.35189,3.25341 5.24626,2.63607 1.77119,-0.37778 4.71359,-1.30049 6.53867,-2.05047 2.2531,-0.92586 5.237,-1.16305 9.29518,-0.73889 4.98073,0.52059 6.18932,1.03022 7.2517,3.05786 l 1.27486,2.43316 2.78095,-3.64601 c 3.24754,-4.25774 2.74638,-5.39378 -1.64777,-3.73517 -4.22649,1.59532 -7.15971,-0.74346 -6.23168,-4.96876 0.45123,-2.05444 0.23406,-2.81073 -0.80713,-2.81073 -2.14023,0 -4.73444,-3.33786 -4.73444,-6.09161 0,-1.5625 -0.80361,-2.78761 -2.24416,-3.42126 -1.23429,-0.54292 -2.39763,-1.80239 -2.5852,-2.79881 -0.29607,-1.57278 -0.079,-1.64804 1.64606,-0.57072 2.82747,1.76578 7.58099,-1.28923 6.63647,-4.26516 -0.51012,-1.60722 -0.25721,-1.96135 1.20027,-1.68067 2.84252,0.54742 2.19428,3.0681 -1.36492,5.30756 -4.14758,2.60967 -4.09221,3.76699 0.27999,5.85195 3.41671,1.62931 3.76358,1.61541 8.15454,-0.32692 2.52231,-1.11574 4.77794,-1.8367 5.01251,-1.60214 0.62112,0.62113 -1.65189,4.73123 -4.11052,7.43273 l -2.12504,2.33495 2.41433,1.95841 c 2.94893,2.39206 7.08512,1.77957 11.77697,-1.74394 3.16971,-2.38039 3.18742,-2.44306 2.61607,-9.25806 -0.50382,-6.0095 -0.2482,-7.57581 2.0587,-12.61473 3.80641,-8.31429 3.5862,-13.9841 -0.81002,-20.85651 -3.26736,-5.1077 -3.77785,-5.46764 -9.95552,-7.01942 -8.24648,-2.07145 -16.21303,-2.08299 -22.25338,-0.0322 -4.4735,1.51879 -4.79432,1.5056 -6.07899,-0.25 -2.77364,-3.7904 -4.54494,-12.48652 -3.91576,-19.22425 0.75902,-8.12822 1.66815,-9.14584 5.90741,-6.61242 2.66215,1.59093 5.94232,2.0484 18.38685,2.56439 13.26386,0.54995 15.59467,0.9049 18.75075,2.85546 1.98224,1.2251 4.16624,3.02007 4.85334,3.98882 0.68709,0.96876 2.85557,2.5196 4.81885,3.44632 1.96329,0.92672 5.53751,3.6901 7.94274,6.14084 l 4.37312,4.45589 -1.78404,3.74117 c -0.98122,2.05765 -2.40315,6.977 -3.15985,10.9319 -1.18522,6.1946 -1.17387,7.96603 0.0819,12.78747 1.2954,4.97335 1.28435,6.06869 -0.0991,9.83387 -3.04334,8.28248 -3.23781,7.73713 2.759,7.73713 6.02727,0 7.81663,1.14662 7.81663,5.00887 0,5.1917 -2.04781,6.46824 -9.86438,6.14912 -6.79549,-0.27743 -7.08856,-0.19366 -7.68876,2.1977 -1.26818,5.05286 -0.35689,6.09757 5.90708,6.77188 9.57986,1.03126 9.5803,1.03271 6.27266,20.63376 -1.55354,9.20627 -3.49007,17.78876 -4.30339,19.0722 -0.81333,1.28343 -3.04175,2.98657 -4.95205,3.78475 -3.39458,1.41834 -3.46645,1.5676 -3.17221,6.58787 0.29733,5.07317 0.35357,5.15409 4.55105,6.54858 3.35473,1.11451 4.25,1.89522 4.25,3.70616 0,3.43914 -2.06304,4.53757 -9.63484,5.12992 -12.0874,0.94562 -11.36516,0.37945 -11.36516,8.90919 0,7.32598 0.0501,7.47299 2.75,8.07076 9.8318,2.17681 14.27309,4.90613 17.81314,10.94677 l 2.7209,4.64287 -2.15591,2.15592 c -3.02519,3.02519 -5.4755,1.29526 -6.12813,-4.32649 -0.43746,-3.76824 -0.97474,-4.55254 -4.29518,-6.2699 -2.08735,-1.0796 -4.05564,-1.70245 -4.37397,-1.38411 -0.31833,0.31833 0.377,2.19872 1.54518,4.17864 2.68081,4.54363 2.69308,7.11059 0.0408,8.53006 -3.11195,1.66547 -6.21631,-1.40441 -5.36049,-5.30095 0.77411,-3.52457 -1.74487,-6.74357 -5.27707,-6.74357 -1.32591,0 -3.28384,-0.46726 -4.35095,-1.03836 -4.67111,-2.4999 -15.12719,3.54721 -14.23187,8.23079 0.29109,1.52274 -0.16841,3.13667 -1.18147,4.14974 -2.06167,2.06167 -2.95271,2.07724 -4.94355,0.0864 z m -5.14834,-59.76839 c -0.26925,-0.70167 0.19375,-4.17476 1.0289,-7.71797 0.83515,-3.54322 1.5251,-6.95657 1.53323,-7.58522 0.0223,-1.7212 -3.20706,-2.61111 -4.13996,-1.14086 -0.95985,1.51273 -1.13782,17.15797 -0.20578,18.09002 0.9998,0.99979 2.3284,-0.22627 1.78361,-1.64597 z m -29.42309,-26.66018 c 0,-0.55 1.28026,-1 2.84501,-1 3.23344,0 7.07697,-3.47802 5.54096,-5.01403 -0.53173,-0.53173 -3.08609,-1.25726 -5.67637,-1.6123 l -4.7096,-0.64552 v 3.13593 c 0,2.6133 -0.38658,3.13592 -2.31966,3.13592 -1.27582,0 -3.29784,-1.125 -4.49339,-2.5 -1.82665,-2.10084 -3.05294,-2.5 -7.68034,-2.5 -5.45179,0 -5.50661,0.0299 -5.50661,3 0,2.96575 0.0621,3 5.44098,3 2.99254,0 5.7191,0.45 6.05902,1 0.33992,0.55 2.84148,1 5.55902,1 2.71754,0 4.94098,-0.45 4.94098,-1 z m 34.56383,-2.39829 c 0.33106,-1.31906 0.45213,-3.29118 0.26905,-4.3825 -0.3242,-1.93247 -0.47426,-1.94134 -5.7534,-0.34017 -2.98128,0.90423 -5.58399,2.1345 -5.78381,2.73394 -0.37437,1.12311 5.86223,4.11731 8.93528,4.28984 1.03769,0.0583 1.97202,-0.86335 2.33288,-2.30111 z m 31.43617,-17.16073 c 0,-0.85746 -0.45734,-1.27636 -1.01631,-0.9309 -0.55897,0.34547 -0.75742,1.04702 -0.44098,1.55902 0.85723,1.38704 1.45729,1.12841 1.45729,-0.62812 z m -66.37529,-2.73235 c 0.87897,-0.87898 -4.72972,-9.0343 -8.43443,-12.26408 -4.06101,-3.54041 -3.9686,-6.17769 0.39832,-11.36748 2.98163,-3.54346 7.99388,-4.31258 8.64842,-1.32707 0.48828,2.2272 -1.12561,6.23158 -3.44148,8.53895 -2.124,2.11621 -2.36106,4.71105 -0.4304,4.71105 0.75083,0 2.50931,-0.9 3.90773,-2 1.39842,-1.1 2.76492,-2 3.03666,-2 0.27174,0 1.43068,1.4625 2.57542,3.25 l 2.08136,3.25 0.0168,-17.58744 0.0169,-17.58743 -40.1103,-0.65341 c -22.06066,-0.35938 -40.51066,-0.40598 -41,-0.10355 -0.48934,0.30242 -0.8897,10.94031 -0.8897,23.63973 v 23.08988 l 36.55252,-0.53474 c 20.10389,-0.29411 36.78637,-0.7686 37.07219,-1.05441 z m 2.62529,-26.37091 c -1.43045,-0.5772 -1.6993,-2.33772 -0.35699,-2.33772 0.49116,0 1.15203,0.675 1.46862,1.5 0.31658,0.825 0.47722,1.46447 0.35699,1.42105 -0.12024,-0.0434 -0.78112,-0.30592 -1.46862,-0.58333 z m -7.26143,6.94004 c 2.05115,-1.75626 2.71951,-4.27776 1.13387,-4.27776 -1.06796,0 -2.59343,1.88696 -3.43582,4.25 -0.78432,2.20015 -0.24284,2.20668 2.30195,0.0278 z m 34.01143,-4.30914 c 0,-1.11727 0.675,-2.29041 1.5,-2.60699 1.89029,-0.72538 1.9742,-3.36163 0.10699,-3.36163 -1.95588,0 -2.75868,-2.67449 -2.00643,-6.68432 0.8379,-4.46643 3.34137,-4.06355 5.20689,0.83794 1.27328,3.34542 1.19567,4.05602 -0.95492,8.74386 -2.46065,5.36371 -3.85253,6.47328 -3.85253,3.07114 z m 21.38913,-6.39695 c -0.33265,-0.86688 -0.3306,-2.66875 0.005,-4.00415 0.49483,-1.97156 0.18612,-2.50156 -1.64215,-2.81924 -2.16956,-0.37699 -2.15173,-0.43313 0.48977,-1.5417 4.44876,-1.86705 5.90298,-0.64774 5.55832,4.66046 -0.22451,3.45779 -0.7392,4.69844 -2.05266,4.94787 -0.96417,0.1831 -2.0252,-0.37636 -2.35785,-1.24324 z m -6.38913,-11.95215 c 0,-1.75195 4.85918,-4.61952 7.8279,-4.61952 2.36272,0 4.85235,2.74059 3.57972,3.94056 -0.49919,0.47069 -3.27012,1.16884 -6.15762,1.55146 -4.39716,0.58265 -5.25,0.44091 -5.25,-0.8725 z m -15.67738,-3.31574 c -3.35474,-0.65304 -4.98184,-3.07378 -3.23672,-4.81547 1.21765,-1.21525 1.86561,-1.12517 4.6641,0.64839 1.7875,1.13284 3.25,2.69051 3.25,3.4615 0,1.40374 -0.61459,1.49645 -4.67738,0.70558 z"
         id="path1208"
         inkscape:connector-curvature="0" />
      <path
         style="fill:#bb9063"
         d="m 270.63757,316.32019 c -1.03495,-1.24704 -1.01108,-2.02515 0.12755,-4.15848 3.1707,-5.94056 7.80994,-9.06469 17.65074,-11.88626 0.87272,-0.25023 1.25,-2.90109 1.25,-8.7828 0,-6.75945 -0.31261,-8.54435 -1.58179,-9.03138 -2.93875,-1.12771 -19.85223,-0.61083 -22.41821,0.6851 -2.4689,1.2469 -2.50622,1.4551 -3,16.73526 l -0.5,15.47265 -11.38389,0.75803 c -10.11051,0.67323 -11.52315,0.56758 -12.62886,-0.94458 -1.08429,-1.48285 -1.75961,-1.54842 -5.23213,-0.50803 -5.82952,1.74656 -8.3574,1.51947 -8.96537,-0.80542 -0.41992,-1.60579 -1.36402,-2 -4.78975,-2 -3.42573,0 -4.36983,0.39421 -4.78975,2 -0.51256,1.96004 -1.36401,2 -42.61663,2 h -42.09362 v -38.96104 c 0,-38.82425 -0.008,-38.96823 -2.19448,-41.00552 -1.54691,-1.44116 -1.88144,-2.35752 -1.13364,-3.10532 0.72299,-0.72299 18.46059,-1.04701 55.69449,-1.01738 39.33046,0.0313 54.63363,-0.26688 54.63363,-1.06448 0,-0.70766 1.264,-0.90283 3.49859,-0.5402 2.76233,0.44826 3.70932,0.17397 4.5,-1.30342 1.84902,-3.45494 1.1066,-4.59758 -3.80517,-5.85643 -5.60559,-1.43667 -8.57146,-0.69982 -7.8767,1.95691 0.31494,1.20435 -0.19465,2.04075 -1.4948,2.4534 -2.14048,0.67936 -4.12498,-0.54352 -2.07192,-1.27676 0.6875,-0.24553 1.25,-0.88548 1.25,-1.42211 0,-0.53663 -0.46971,-0.68539 -1.0438,-0.33058 -0.5741,0.35481 -1.65981,0.13388 -2.41269,-0.49096 -0.79946,-0.66349 -3.98788,-1.01129 -7.66485,-0.83609 -5.78347,0.27556 -6.34371,0.50348 -6.8824,2.79998 -0.58128,2.47806 -0.68216,2.5 -11.49626,2.5 -10.8135,0 -10.91503,-0.0221 -11.49852,-2.5 l -0.58869,-2.5 -17.95639,-0.5 -17.9564,-0.5 0.3544,-31 c 0.19492,-17.05 0.55898,-31.3375 0.80902,-31.75 0.25004,-0.4125 21.03806,-0.75 46.1956,-0.75 34.24298,0 46.04263,0.30165 46.94098,1.2 0.86795,0.86795 1.20103,7.99325 1.20374,25.75 0.003,22.79428 0.14691,24.78483 2.00572,27.83358 2.70632,4.43881 3.9977,4.73532 10.72663,2.46292 4.10922,-1.38771 7.43048,-1.8143 11.49862,-1.47694 5.5811,0.46283 5.73586,0.55665 6.35415,3.85241 0.34855,1.85792 0.97344,3.37803 1.38866,3.37803 1.2534,0 8.02248,-9.21038 8.02248,-10.91583 0,-0.87318 2.0719,-2.68675 4.60423,-4.03014 5.93935,-3.15082 7.98065,-6.09266 6.34642,-9.14625 -1.46223,-2.73219 -0.66456,-10.62655 1.49587,-14.80436 0.93936,-1.81653 1.55348,-5.58562 1.55348,-9.53434 0,-5.73406 -0.4199,-7.18665 -3.44395,-11.91401 -3.26736,-5.1077 -3.77785,-5.46764 -9.95552,-7.01942 -8.24648,-2.07145 -16.21303,-2.08299 -22.25338,-0.0322 -4.4735,1.51879 -4.79432,1.5056 -6.07899,-0.25 -2.77364,-3.7904 -4.54494,-12.48652 -3.91576,-19.22425 0.75902,-8.12822 1.66815,-9.14584 5.90741,-6.61242 2.66215,1.59093 5.94232,2.0484 18.38685,2.56439 13.26386,0.54995 15.59467,0.9049 18.75075,2.85546 1.98224,1.2251 4.16624,2.97827 4.85334,3.89595 1.54412,2.06234 8.30092,7.16746 9.48636,7.16746 0.47881,0 2.37813,1.55542 4.22072,3.45649 l 3.35017,3.4565 -3.11291,7.2935 c -1.71209,4.01143 -3.40749,9.43101 -3.76754,12.04351 -0.53044,3.84884 -1.03068,4.75 -2.63672,4.75 -7.98922,0 -15.52278,17.31265 -9.79083,22.5 2.56956,2.32542 2.51751,2.94318 -0.35845,4.25355 -3.38022,1.54013 -4.46555,8.62565 -1.86758,12.19244 1.38526,1.90185 2.42142,7.15023 4.05785,20.55401 1.20867,9.9 2.19096,19.43594 2.18288,21.19098 -0.008,1.75504 0.4353,3.4691 0.9853,3.80902 0.55,0.33992 1,3.29148 1,6.55902 0,5.56567 -0.14814,5.94098 -2.34501,5.94098 -1.28976,0 -3.20226,0.95781 -4.25,2.12846 l -1.90499,2.12846 8.83221,-0.72508 8.83221,-0.72507 -0.33221,2.34018 c -0.37857,2.66677 -3.11719,3.54486 -11.64795,3.73474 -8.48166,0.18878 -9.18426,0.92458 -9.18426,9.61831 0,8.15498 0.32265,8.61445 6.93139,9.87043 5.4263,1.03125 11.3931,5.08294 13.8048,9.37397 1.89521,3.37208 2.02271,4.20306 0.88386,5.76054 -2.18635,2.99 -4.62005,1.19611 -4.62005,-3.40546 0,-3.23686 -0.53444,-4.34385 -2.91584,-6.03955 -2.91255,-2.07392 -9.08416,-3.88451 -9.08416,-2.66506 0,0.35468 1.125,2.42699 2.5,4.60513 2.88334,4.5675 3.09506,6.26126 1,8 -2.37401,1.97025 -4.75589,-0.55848 -3.95608,-4.19998 0.91098,-4.14766 -1.72654,-7.80002 -5.63271,-7.80002 -1.67348,0 -3.93655,-0.47838 -5.02905,-1.06306 -1.48072,-0.79247 -3.24261,-0.6458 -6.92158,0.57615 -5.51701,1.83246 -9.04029,5.4661 -8.24583,8.50412 0.50306,1.92368 -1.16363,4.98279 -2.71475,4.98279 -0.41531,0 -1.32804,-0.69034 -2.02829,-1.53409 z m -4.35789,-59.54853 c 0.0626,-1.87956 0.66165,-6.02724 1.33121,-9.21706 1.33352,-6.35293 0.5059,-8.70032 -3.06747,-8.70032 -1.71561,0 -1.87756,0.8913 -1.87756,10.33333 0,5.68334 0.30937,10.64271 0.6875,11.02084 1.44878,1.44878 2.81712,-0.15826 2.92632,-3.43679 z m 4.41004,-25.66738 c 0.0131,-0.4125 0.40542,-2.3918 0.87178,-4.39844 1.32888,-5.71786 0.42578,-6.1479 -7.74939,-3.69016 -5.0725,1.52496 -7.14165,2.60719 -6.93736,3.62847 0.51413,2.57026 13.73927,6.83997 13.81497,4.46013 z m -33.02386,-21.80305 c 0,-0.85418 -1.125,-3.20864 -2.5,-5.23214 -3.18146,-4.68193 -3.13955,-5.4058 0.43519,-7.51745 l 2.93519,-1.73386 2.6835,3.51825 c 1.47592,1.93504 3.08009,3.51825 3.56481,3.51825 0.48472,0 0.88131,-8.76643 0.88131,-19.48095 0,-19.37366 -0.0124,-19.48396 -2.25,-20.02816 -1.2375,-0.30096 -20.25,-0.42204 -42.25,-0.26905 l -40,0.27816 -0.26778,24.25 -0.26778,24.25 h 38.51778 c 34.15616,0 38.51778,-0.17586 38.51778,-1.55305 z m -9.33333,-14.11362 c -0.36667,-0.36666 -0.66667,-0.97872 -0.66667,-1.36012 0,-0.78803 6.61386,-7.97321 7.33923,-7.97321 1.06437,0 -0.76487,4.62505 -2.48733,6.28895 -1.01854,0.98393 -1.8519,2.22143 -1.8519,2.75 0,1.10525 -1.35191,1.27581 -2.33333,0.29438 z m 75.04218,22.04219 c -0.38987,-0.38987 -0.70885,-2.65885 -0.70885,-5.04219 0,-4.16542 0.11837,-4.33333 3.05479,-4.33333 3.02042,0 3.05136,0.0534 2.75,4.75 -0.25011,3.8979 -0.67095,4.80241 -2.34594,5.04218 -1.12263,0.1607 -2.36013,-0.0268 -2.75,-0.41666 z M 278.054,210.37644 c -1.56554,-1.1611 -1.68463,-1.73405 -0.697,-3.35345 1.33026,-2.18118 0.79957,-3.16871 -1.70282,-3.16871 -2.27525,0 -4.98832,-3.17017 -4.98832,-5.82874 0,-2.31438 1.43025,-2.90215 2.57092,-1.05652 0.71426,1.15571 8.40863,0.75999 11.67908,-0.60065 2.9271,-1.21779 2.03157,1.4842 -1.63939,4.94636 -3.19648,3.01467 -3.28185,3.26377 -1.5,4.37655 2.40835,1.50405 2.42082,3.80822 0.0275,5.08907 -1.33381,0.71383 -2.39736,0.59928 -3.75,-0.40391 z m 41.99954,-4.95426 c -0.33185,-0.8648 -0.32127,-2.69637 0.0235,-4.07014 0.46284,-1.84398 1.2921,-2.49776 3.16824,-2.49776 2.32514,0 2.51491,0.31899 2.23095,3.75 -0.24951,3.01465 -0.75246,3.81278 -2.56484,4.07014 -1.35339,0.19218 -2.49563,-0.30832 -2.85785,-1.25224 z m -14.16517,-8.1246 c -2.49151,-1.74512 -3.02936,-7.0043 -1.10032,-10.75904 2.02542,-3.94236 6.20822,-7.68426 8.58965,-7.68426 5.77734,0 4.63837,11.64979 -1.76502,18.05318 -2.3515,2.3515 -2.87328,2.38706 -5.72431,0.39012 z M 267.3945,193.7223 c -2.55058,-1.42738 -2.09996,-2.66166 0.77136,-2.11277 2.45605,0.4695 3.24904,1.66379 1.72864,2.60344 -0.42424,0.2622 -1.54924,0.0414 -2.5,-0.49067 z m 6.10745,-4.1605 c 0.73485,-0.89095 1.06501,-2.05853 0.73369,-2.59462 -0.84291,-1.36385 0.75368,-2.14906 2.35608,-1.15872 1.60508,0.99199 0.74061,2.62064 -2.23155,4.20416 -1.9647,1.04677 -2.0545,0.99959 -0.85822,-0.45082 z m -8.83609,-4.6485 c 0,-1.96193 1.69082,-3.70153 2.65784,-2.73452 0.78525,0.78526 -0.65022,4.6755 -1.72523,4.6755 -0.51293,0 -0.93261,-0.87344 -0.93261,-1.94098 z m 1.2,-7.25902 c -1.59994,-1.59994 -1.51532,-3.9883 0.2253,-6.35887 1.3747,-1.87222 1.46344,-1.8412 2.5,0.87397 2.11862,5.54956 0.53219,8.74239 -2.7253,5.4849 z m 20.98045,-0.97167 c 0.47108,-3.2015 2.81955,-3.54438 2.81955,-0.41166 0,1.6805 -0.54853,2.58333 -1.56955,2.58333 -1.04234,0 -1.46221,-0.72946 -1.25,-2.17167 z m -7.18045,-10.20881 c 0,-1.75195 4.85918,-4.61952 7.8279,-4.61952 2.36272,0 4.85235,2.74059 3.57972,3.94056 -0.49919,0.47069 -3.27012,1.16884 -6.15762,1.55146 -4.39716,0.58265 -5.25,0.44091 -5.25,-0.8725 z m -15.67738,-3.31574 c -3.35474,-0.65304 -4.98184,-3.07378 -3.23672,-4.81547 1.21765,-1.21525 1.86561,-1.12517 4.6641,0.64839 1.7875,1.13284 3.25,2.69051 3.25,3.4615 0,1.40374 -0.61459,1.49645 -4.67738,0.70558 z"
         id="path1206"
         inkscape:connector-curvature="0" />
      <path
         style="fill:#6e8e9d"
         d="m 270.63757,316.32019 c -1.03495,-1.24704 -1.01108,-2.02515 0.12755,-4.15848 3.1707,-5.94056 7.80994,-9.06469 17.65074,-11.88626 0.87403,-0.2506 1.25,-2.91868 1.25,-8.87073 0,-10.15726 0.3414,-9.93653 -14.53643,-9.39839 l -9.61977,0.34795 -3.4219,3.73531 -3.4219,3.73532 v 12.34167 12.34166 l -7.75,1.17963 c -10.11081,1.53896 -11.29285,1.49007 -12.76862,-0.52817 -1.07785,-1.47405 -1.75799,-1.53912 -5.22626,-0.5 -6.04826,1.8121 -8.17884,1.52541 -9.23106,-1.24214 -0.72035,-1.89465 -1.77154,-2.50642 -4.72525,-2.75 l -3.79881,-0.31328 -0.5,-7 -0.5,-7 -11.75,-0.28174 -11.75,-0.28173 v -8.43653 -8.43653 l 11.75,-0.28173 11.75,-0.28174 v -10 -10 l -11.75,-0.28174 -11.75,-0.28173 v -8.43749 -8.43748 l 12.25,-0.28078 c 18.41601,-0.42211 15.1563,-2.28078 -4,-2.28078 h -15.75 l -0.2619,38.26658 -0.2619,38.26658 -26.2381,-0.26658 -26.2381,-0.26658 -0.26206,-38.43458 c -0.23328,-34.21392 -0.44482,-38.63654 -1.92637,-40.27363 -1.01229,-1.11857 -1.30139,-2.18915 -0.73794,-2.73268 0.5095,-0.4915 11.87368,-1.03129 25.25373,-1.19954 l 24.32736,-0.30591 1.86456,2.47317 1.86455,2.47317 36.05809,0.29711 c 29.03492,0.23924 36.0561,0.0445 36.04791,-1 -0.006,-0.71341 -1.83028,-2.06173 -4.05485,-2.99627 -3.87174,-1.62651 -4.01674,-1.84809 -3.3913,-5.182 l 0.65339,-3.48284 -5.28004,-1.568 c -5.96898,-1.77259 -11.05928,-2.0253 -12.46703,-0.61893 -0.5225,0.522 -4.08126,1.0845 -7.90835,1.25 -6.49057,0.2807 -6.99779,0.46899 -7.54508,2.80093 -0.58159,2.47805 -0.68255,2.5 -11.49657,2.5 -10.8135,0 -10.91503,-0.0221 -11.49852,-2.5 l -0.58869,-2.5 -17.95639,-0.5 -17.9564,-0.5 0.3544,-31 c 0.19492,-17.05 0.55898,-31.3375 0.80902,-31.75 0.25004,-0.4125 21.03806,-0.75 46.1956,-0.75 34.24298,0 46.04263,0.30165 46.94098,1.2 0.86795,0.86795 1.20103,7.99325 1.20374,25.75 0.003,22.79428 0.14691,24.78483 2.00572,27.83358 2.70632,4.43881 3.9977,4.73532 10.72663,2.46292 4.10922,-1.38771 7.43048,-1.8143 11.49862,-1.47694 5.5811,0.46283 5.73586,0.55665 6.35415,3.85241 0.34855,1.85792 0.97344,3.37803 1.38866,3.37803 1.2534,0 8.02248,-9.21038 8.02248,-10.91583 0,-0.87318 2.0719,-2.68675 4.60423,-4.03014 5.93935,-3.15082 7.98065,-6.09266 6.34642,-9.14625 -1.61639,-3.02024 -0.54217,-11.24005 2.0411,-15.61838 1.13302,-1.92032 2.33453,-6.11773 2.67003,-9.32757 0.55208,-5.28199 0.336,-6.25879 -2.2759,-10.2885 -1.58723,-2.44883 -3.33588,-5.20765 -3.88588,-6.13071 -1.29043,-2.16571 -13.50103,-5.54606 -19.97836,-5.53075 -2.7619,0.006 -7.47571,0.66495 -10.47514,1.46317 -2.99942,0.79821 -5.53963,1.35537 -5.6449,1.23813 -0.10528,-0.11724 -0.9137,-1.95563 -1.7965,-4.08529 -1.85324,-4.47073 -2.28829,-20.62788 -0.55544,-20.62788 0.57731,0 2.48981,0.75992 4.25,1.68871 2.41315,1.27334 6.88989,1.82678 18.20034,2.25 13.58985,0.50852 15.30572,0.77935 18.25203,2.88083 1.78862,1.27575 3.68514,3.1288 4.21449,4.1179 0.52935,0.98909 2.21593,2.05398 3.74796,2.36641 1.53204,0.31243 4.7342,2.56327 7.11592,5.00188 l 4.3304,4.43382 -1.9516,6.38023 c -1.07338,3.50912 -2.26694,8.96772 -2.65236,12.13022 -0.5941,4.8749 -1.00874,5.75 -2.72443,5.75 -8.02626,0 -15.58404,17.29484 -9.83241,22.5 2.56956,2.32542 2.51751,2.94318 -0.35845,4.25355 -3.38022,1.54013 -4.46555,8.62565 -1.86758,12.19244 1.38526,1.90185 2.42142,7.15023 4.05785,20.55401 1.20867,9.9 2.19096,19.43594 2.18288,21.19098 -0.008,1.75504 0.4353,3.4691 0.9853,3.80902 0.55,0.33992 1,3.29148 1,6.55902 0,5.56567 -0.14814,5.94098 -2.34501,5.94098 -1.28976,0 -3.20226,0.95781 -4.25,2.12846 l -1.90499,2.12846 8.83221,-0.72508 8.83221,-0.72507 -0.33221,2.34018 c -0.37857,2.66677 -3.11719,3.54486 -11.64795,3.73474 -8.48166,0.18878 -9.18426,0.92458 -9.18426,9.61831 0,8.15498 0.32265,8.61445 6.93139,9.87043 5.4263,1.03125 11.3931,5.08294 13.8048,9.37397 1.89521,3.37208 2.02271,4.20306 0.88386,5.76054 -2.18635,2.99 -4.62005,1.19611 -4.62005,-3.40546 0,-3.23686 -0.53444,-4.34385 -2.91584,-6.03955 -2.91255,-2.07392 -9.08416,-3.88451 -9.08416,-2.66506 0,0.35468 1.125,2.42699 2.5,4.60513 2.88334,4.5675 3.09506,6.26126 1,8 -2.37401,1.97025 -4.75589,-0.55848 -3.95608,-4.19998 0.91098,-4.14766 -1.72654,-7.80002 -5.63271,-7.80002 -1.67348,0 -3.93655,-0.47838 -5.02905,-1.06306 -1.48072,-0.79247 -3.24261,-0.6458 -6.92158,0.57615 -5.51701,1.83246 -9.04029,5.4661 -8.24583,8.50412 0.50306,1.92368 -1.16363,4.98279 -2.71475,4.98279 -0.41531,0 -1.32804,-0.69034 -2.02829,-1.53409 z m -62.61008,-26.96591 c 0.79505,-2.07187 -0.28412,-4.5 -2,-4.5 -1.71589,0 -2.79506,2.42813 -2,4.5 0.31658,0.825 1.21658,1.5 2,1.5 0.78341,0 1.68341,-0.675 2,-1.5 z m 58.25219,-32.5 c 0.0626,-1.925 0.6681,-6.14093 1.34555,-9.36874 1.59521,-7.6006 0.76498,-8.46555 -8.87331,-9.2444 -5.89367,-0.47625 -7.23432,-0.32793 -6.8765,0.76078 0.24445,0.7438 1.87231,1.49337 3.61745,1.66572 l 3.17299,0.31336 v 9.997 9.99701 l 3.75,-0.31036 c 3.53431,-0.29252 3.75655,-0.51169 3.86382,-3.81037 z m -58.25219,-5.5 c 0.79505,-2.07187 -0.28412,-4.5 -2,-4.5 -1.71589,0 -2.79506,2.42813 -2,4.5 0.31658,0.825 1.21658,1.5 2,1.5 0.78341,0 1.68341,-0.675 2,-1.5 z m 62.66223,-20.25 c 0.0131,-0.4125 0.40542,-2.3918 0.87178,-4.39844 1.32888,-5.71786 0.42578,-6.1479 -7.74939,-3.69016 -5.0725,1.52496 -7.14165,2.60719 -6.93736,3.62847 0.51413,2.57026 13.73927,6.83997 13.81497,4.46013 z m -33.02386,-21.80305 c 0,-0.85418 -1.125,-3.20864 -2.5,-5.23214 -3.1793,-4.67876 -3.13466,-5.34649 0.4956,-7.41215 l 2.98296,-1.69733 2.62941,3.44733 c 1.44617,1.89604 3.026,3.44734 3.51072,3.44734 0.48472,0 0.88131,-8.76643 0.88131,-19.48095 0,-19.37366 -0.0124,-19.48396 -2.25,-20.02816 -1.2375,-0.30096 -20.25,-0.42204 -42.25,-0.26905 l -40,0.27816 -0.26778,24.25 -0.26778,24.25 h 38.51778 c 34.15616,0 38.51778,-0.17586 38.51778,-1.55305 z m -36,98.05305 c 0,-0.825 0.45,-1.5 1,-1.5 0.55,0 1,0.675 1,1.5 0,0.825 -0.45,1.5 -1,1.5 -0.55,0 -1,-0.675 -1,-1.5 z m 0,-39 c 0,-0.825 0.45,-1.5 1,-1.5 0.55,0 1,0.675 1,1.5 0,0.825 -0.45,1.5 -1,1.5 -0.55,0 -1,-0.675 -1,-1.5 z M 303.37471,217.2298 c -0.38987,-0.38987 -0.70885,-2.65885 -0.70885,-5.04219 0,-4.16542 0.11837,-4.33333 3.05479,-4.33333 3.02042,0 3.05136,0.0534 2.75,4.75 -0.25011,3.8979 -0.67095,4.80241 -2.34594,5.04218 -1.12263,0.1607 -2.36013,-0.0268 -2.75,-0.41666 z m -26.03861,-7.79249 c -0.32189,-0.83883 0.10187,-2.21228 0.9417,-3.05211 1.91606,-1.91606 5.67266,-0.26097 5.18984,2.28655 -0.41901,2.21086 -5.3411,2.82541 -6.13154,0.76556 z m 42.71744,-4.01513 c -0.33185,-0.8648 -0.32127,-2.69637 0.0235,-4.07014 0.46284,-1.84398 1.2921,-2.49776 3.16824,-2.49776 2.32514,0 2.51491,0.31899 2.23095,3.75 -0.24951,3.01465 -0.75246,3.81278 -2.56484,4.07014 -1.35339,0.19218 -2.49563,-0.30832 -2.85785,-1.25224 z M 273.91586,202.192 c -0.6875,-0.27741 -1.2474,-1.25439 -1.24422,-2.17105 0.005,-1.36637 1.11081,-1.67887 6.13872,-1.73437 l 6.13295,-0.0677 -2.69449,2.3177 c -2.54841,2.19205 -5.53344,2.78505 -8.33296,1.65542 z m 31.97251,-4.89442 c -2.49151,-1.74512 -3.02936,-7.0043 -1.10032,-10.75904 2.02542,-3.94236 6.20822,-7.68426 8.58965,-7.68426 5.77734,0 4.63837,11.64979 -1.76502,18.05318 -2.3515,2.3515 -2.87328,2.38706 -5.72431,0.39012 z m -19.05666,-20.50359 c 0.18378,-1.25568 0.93452,-2.48092 1.6683,-2.72276 0.9065,-0.29877 1.22704,0.29208 1,1.84334 -0.18378,1.25568 -0.93452,2.48092 -1.6683,2.72276 -0.9065,0.29877 -1.22704,-0.29208 -1,-1.84334 z m -21.77424,-0.36157 c -0.30009,-0.78202 0.0101,-2.46029 0.68938,-3.72947 l 1.235,-2.30762 0.97018,2.17426 c 1.07151,2.40135 0.36977,5.28469 -1.28617,5.28469 -0.58452,0 -1.3083,-0.63984 -1.60839,-1.42186 z m 18.15839,-11.49457 c 1.03538,-0.99878 3.09992,-1.42751 5.45,-1.13177 1.07109,0.13479 0.92812,0.43452 -0.5,1.0482 -2.75458,1.18368 -6.14984,1.24101 -4.95,0.0836 z m -21.55,-5.08357 c 0,-0.55 0.42344,-1 0.94098,-1 0.51754,0 1.2191,0.45 1.55902,1 0.33992,0.55 -0.0835,1 -0.94098,1 -0.85746,0 -1.55902,-0.45 -1.55902,-1 z"
         id="path1204"
         inkscape:connector-curvature="0" />
      <path
         style="fill:#9c7144"
         d="m 238.97881,314.94301 c -0.362,-1.38429 -1.13745,-1.98019 -2.18691,-1.68053 -0.89432,0.25535 -3.59953,1.03248 -6.01158,1.72694 -4.22701,1.21701 -4.46197,1.1677 -6.5,-1.36404 -1.40116,-1.74061 -3.29516,-2.73539 -5.61446,-2.9489 l -3.5,-0.3222 -0.5,-7 -0.5,-7 -11.75,-0.28174 -11.75,-0.28173 v -8.43653 -8.43653 l 11.75,-0.28173 11.75,-0.28174 v -10 -10 l -11.75,-0.28174 -11.75,-0.28173 v -8.43749 -8.43748 l 12.00349,-0.28078 c 18.24711,-0.42683 15.19605,-2.28078 -3.75349,-2.28078 h -15.75 l -0.2619,38.26658 -0.2619,38.26658 -26.2381,-0.26658 -26.2381,-0.26658 -0.26206,-38.43458 c -0.23328,-34.21392 -0.44482,-38.63654 -1.92637,-40.27363 -1.01229,-1.11857 -1.30139,-2.18915 -0.73794,-2.73268 0.5095,-0.4915 11.87368,-1.03129 25.25373,-1.19954 l 24.32736,-0.30591 1.86456,2.47317 1.86455,2.47317 36.05809,0.29711 c 30.83981,0.25411 36.05808,0.0889 36.05808,-1.14159 0,-0.79129 -1.0125,-1.69294 -2.25,-2.00368 -1.2375,-0.31074 -3.15,-1.22923 -4.25,-2.04109 -1.60316,-1.18322 -1.75198,-1.72757 -0.75,-2.74343 2.71981,-2.75749 1.39849,-4.56211 -4.5656,-6.23554 -6.54863,-1.83745 -11.32355,-2.09263 -12.73557,-0.68061 -0.52314,0.52314 -4.32564,1.08564 -8.45,1.25 -6.94298,0.27668 -7.52284,0.46806 -7.82272,2.58191 -0.31711,2.23537 -0.54699,2.27717 -11,2 -10.17769,-0.26986 -10.69089,-0.38706 -10.99267,-2.51028 -0.312,-2.19504 -0.57184,-2.23113 -18,-2.5 l -17.68344,-0.2728 v -31 -31 h 46.4863 c 45.693,0 46.49279,0.0341 46.86623,2 0.36401,1.91628 0.2985,1.92674 -1.56505,0.25 -1.78605,-1.60702 -5.2883,-1.74875 -42.86622,-1.73469 -22.50669,0.008 -41.49194,0.37754 -42.18945,0.82026 -0.97994,0.62199 -1.20723,6.35745 -1,25.23469 l 0.26819,24.42974 38.93808,0.26192 c 23.73473,0.15965 39.31041,-0.11041 39.89168,-0.69168 0.60478,-0.60478 -0.19557,-2.74439 -2.18809,-5.84946 -3.65246,-5.69187 -3.71835,-6.06253 -1.39167,-7.82873 2.57792,-1.95692 2.98483,-1.77237 5.75,2.60795 2.52255,3.99597 4.88575,5.10922 5.83772,2.75 0.27741,-0.6875 0.53991,0.81998 0.58333,3.34996 0.0591,3.44503 0.83375,5.64193 3.08522,8.75 1.65345,2.28252 3.383,4.15004 3.84345,4.15004 0.46045,0 3.39271,-0.87923 6.51614,-1.95385 3.59263,-1.23604 7.78316,-1.8696 11.40655,-1.72454 5.71606,0.22885 5.7286,0.23628 6.22759,3.6925 0.29451,2.03987 1.11648,3.55198 2,3.67924 1.54507,0.22255 7.45279,-7.12389 8.99886,-11.19034 1.03828,-2.7309 6.93143,-6.07279 7.40954,-4.20182 0.16849,0.65934 1.05988,3.67381 1.98088,6.69881 2.0208,6.63731 6.68562,41.99756 5.92444,44.90835 -0.35168,1.3448 0.0233,2.28374 1.07283,2.68649 2.15348,0.82637 2.32695,9.40516 0.19018,9.40516 -0.78281,0 -2.69912,1.07355 -4.25848,2.38567 -4.47171,3.76269 -9.12278,5.25075 -20.36011,6.514 -14.33957,1.61199 -17.38305,2.66297 -20.42562,7.05341 -2.37184,3.42256 -2.53252,4.42825 -2.53252,15.85067 v 12.19625 l -3,0.125 c -3.63249,0.15135 -7.23968,0.57648 -12.31308,1.45115 -3.34083,0.57597 -3.88255,0.39175 -4.37397,-1.48742 z m -30.95132,-25.58873 c 0.79505,-2.07187 -0.28412,-4.5 -2,-4.5 -1.71589,0 -2.79506,2.42813 -2,4.5 0.31658,0.825 1.21658,1.5 2,1.5 0.78341,0 1.68341,-0.675 2,-1.5 z m 59.7699,-38.25 c 1.54157,-9.26705 1.5332,-9.8288 -0.16898,-11.3408 -2.2501,-1.99869 -16.33839,-2.54826 -15.70333,-0.61256 0.21714,0.66185 1.82265,1.34437 3.56779,1.51672 l 3.17299,0.31336 v 9.93664 9.93664 h 3.7548 3.75481 z m -59.7699,0.25 c 0.79505,-2.07187 -0.28412,-4.5 -2,-4.5 -1.71589,0 -2.79506,2.42813 -2,4.5 0.31658,0.825 1.21658,1.5 2,1.5 0.78341,0 1.68341,-0.675 2,-1.5 z m 64.03749,-24.30088 c 0.56005,-3.30186 0.53881,-5.66119 -0.0563,-6.25631 -0.60723,-0.60723 -3.65463,-0.0374 -8.36192,1.56369 -8.07758,2.74736 -9.25877,3.47671 -8.18925,5.05661 1.15445,1.70537 10.50365,5.33526 13.20836,5.12824 2.2004,-0.16842 2.60775,-0.8266 3.39912,-5.49223 z m -0.99584,88.40942 c -0.87228,-2.2731 3.28823,-8.40604 6.94326,-10.23497 l 3.15346,-1.57795 -3.21588,2.85219 c -2.23273,1.98022 -3.30274,3.89866 -3.5,6.27518 -0.30188,3.63701 -2.38175,5.28914 -3.38084,2.68555 z m 31.25156,0.71297 c -0.37317,-0.37318 -0.40277,-2.14823 -0.0658,-3.94457 0.49699,-2.64918 0.13006,-3.74873 -1.94271,-5.8215 -1.54685,-1.54687 -3.68195,-2.55544 -5.40975,-2.55544 -3.42405,0 -7.1195,-2.33629 -5.38807,-3.40637 0.7215,-0.44592 1.15149,-3.86368 1.15149,-9.15265 0,-8.33705 0.0308,-8.44098 2.5,-8.44098 2.4551,0 2.5,0.1415 2.5,7.87756 0,8.60775 0.40322,9.3431 6,10.94211 2.53835,0.72521 2.88179,1.02473 1.25,1.09014 -2.94472,0.11804 -2.84095,1.14665 0.68764,6.81582 2.15547,3.46309 2.65538,5.05982 1.87755,5.99705 -1.18391,1.42653 -2.14966,1.60952 -3.16035,0.59883 z m 12.2392,-0.57151 c -0.0583,-0.6875 -0.0301,-2.43283 0.0626,-3.87851 0.12125,-1.89044 -0.76159,-3.37598 -3.14404,-5.29047 -3.02456,-2.43048 -3.07681,-2.55903 -0.60079,-1.47836 3.19291,1.39356 8.1716,8.45574 7.39248,10.4861 -0.66975,1.74534 -3.56532,1.87117 -3.71027,0.16124 z m -112.89404,-8.25 c 0,-0.825 0.45,-1.5 1,-1.5 0.55,0 1,0.675 1,1.5 0,0.825 -0.45,1.5 -1,1.5 -0.55,0 -1,-0.675 -1,-1.5 z m 0,-39 c 0,-0.825 0.45,-1.5 1,-1.5 0.55,0 1,0.675 1,1.5 0,0.825 -0.45,1.5 -1,1.5 -0.55,0 -1,-0.675 -1,-1.5 z m 102,-55.33333 c 0,-3.32793 0.67132,-4.23003 2.59777,-3.49078 0.77122,0.29595 1.40223,1.83994 1.40223,3.4311 0,2.22634 -0.46088,2.89301 -2,2.89301 -1.52941,0 -2,-0.66667 -2,-2.83333 z m -26.35052,-3.63773 c -0.71621,-1.86642 1.95865,-4.61654 3.80214,-3.90913 1.65116,0.63361 2.78783,3.18374 1.99261,4.47043 -0.90288,1.46089 -5.17766,1.04682 -5.79475,-0.5613 z m -3.39948,-7.19122 c -0.6875,-0.27741 -1.2474,-1.25439 -1.24422,-2.17105 0.005,-1.36637 1.11081,-1.67887 6.13872,-1.73437 l 6.13295,-0.0677 -2.69449,2.3177 c -2.54841,2.19205 -5.53344,2.78505 -8.33296,1.65542 z m 31.21224,-6.75501 c -1.28619,-1.96297 -1.3847,-3.15695 -0.52415,-6.3528 2.15299,-7.99559 10.18684,-12.56465 11.674,-6.63932 0.87295,3.47811 -1.04459,9.50502 -4.05901,12.75763 -3.05021,3.29124 -5.04477,3.35719 -7.09084,0.23449 z m -0.87822,-21.82676 c 0.63527,-6.2006 0.48918,-6.93633 -2.2018,-11.08815 -1.58522,-2.44579 -3.33222,-5.20212 -3.88222,-6.12518 -1.29043,-2.16571 -13.50103,-5.54606 -19.97836,-5.53075 -2.7619,0.006 -7.47571,0.66495 -10.47514,1.46317 -2.99942,0.79821 -5.53963,1.35537 -5.6449,1.23813 -0.10528,-0.11724 -0.9137,-1.95563 -1.7965,-4.08529 -1.85324,-4.47073 -2.28829,-20.62788 -0.55544,-20.62788 0.57731,0 2.48981,0.75992 4.25,1.68871 2.41315,1.27334 6.88989,1.82678 18.20034,2.25 13.58985,0.50852 15.30572,0.77935 18.25203,2.88083 1.78862,1.27575 3.68514,3.1288 4.21449,4.1179 0.52935,0.98909 2.21593,2.05398 3.74796,2.36641 1.53204,0.31243 4.71786,2.54662 7.0796,4.96487 l 4.29409,4.39682 -2.54409,8.77909 c -1.39924,4.82851 -2.54408,9.84772 -2.54408,11.15382 0,1.79473 -0.90693,2.75365 -3.7134,3.92627 -2.04237,0.85335 -4.53906,2.29877 -5.5482,3.21202 -1.76759,1.59965 -1.80987,1.41722 -1.15438,-4.98079 z m -17.41817,3.18376 c 0.18378,-1.25568 0.93452,-2.48092 1.6683,-2.72276 0.9065,-0.29877 1.22704,0.29208 1,1.84334 -0.18378,1.25568 -0.93452,2.48092 -1.6683,2.72276 -0.9065,0.29877 -1.22704,-0.29208 -1,-1.84334 z m -21.77424,-0.36157 c -0.30009,-0.78202 0.0101,-2.46029 0.68938,-3.72947 l 1.235,-2.30762 0.97018,2.17426 c 1.07151,2.40135 0.36977,5.28469 -1.28617,5.28469 -0.58452,0 -1.3083,-0.63984 -1.60839,-1.42186 z m 18.15839,-11.49457 c 1.03538,-0.99878 3.09992,-1.42751 5.45,-1.13177 1.07109,0.13479 0.92812,0.43452 -0.5,1.0482 -2.75458,1.18368 -6.14984,1.24101 -4.95,0.0836 z m -21.55,-5.08357 c 0,-0.55 0.42344,-1 0.94098,-1 0.51754,0 1.2191,0.45 1.55902,1 0.33992,0.55 -0.0835,1 -0.94098,1 -0.85746,0 -1.55902,-0.45 -1.55902,-1 z"
         id="path1202"
         inkscape:connector-curvature="0" />
      <path
         style="fill:#515c63"
         d="m 239.21942,315.94095 c -0.37546,-0.60751 -0.39913,-2.11304 -0.0526,-3.34562 0.39592,-1.40825 0.30586,-1.77782 -0.24234,-0.9945 -1.12105,1.60187 -11.01803,4.55975 -12.87389,3.84759 -0.77811,-0.29859 -1.84685,-1.67942 -2.37499,-3.06851 -0.73475,-1.93254 -1.67054,-2.52563 -3.98499,-2.52563 h -3.02475 V 275.3301 240.80592 l 16.75,0.27418 16.75,0.27418 0.5,11.5 c 0.41492,9.54307 0.75525,11.44171 2,11.15745 0.825,-0.1884 4.20836,-1.01487 7.51858,-1.83658 l 6.01858,-1.49404 1.5912,-9.66341 c 1.83626,-11.15161 1.58886,-11.77853 -5.23908,-13.27616 -4.78939,-1.0505 -17.88866,-6.9658 -17.88904,-8.07824 -1.3e-4,-0.38004 0.44976,-0.9691 0.99976,-1.30902 0.55,-0.33992 1,-1.45531 1,-2.47865 0,-1.34109 -1.3263,-2.28223 -4.75,-3.37057 -8.45341,-2.68722 -11.15718,-2.94162 -13.68194,-1.28733 -1.37887,0.90347 -5.18616,1.66348 -9.20936,1.83838 -6.27617,0.27285 -6.88621,0.49208 -7.18259,2.58125 -0.31711,2.23537 -0.54699,2.27717 -11,2 -10.17769,-0.26986 -10.69089,-0.38706 -10.99267,-2.51028 -0.312,-2.19504 -0.57184,-2.23113 -18,-2.5 l -17.68344,-0.2728 v -31 -31 h 46.4863 c 45.693,0 46.49279,0.0341 46.86623,2 0.36401,1.91628 0.2985,1.92674 -1.56505,0.25 -1.78605,-1.60702 -5.2883,-1.74875 -42.86622,-1.73469 -22.50669,0.008 -41.49194,0.37754 -42.18945,0.82026 -0.97994,0.62199 -1.20723,6.35745 -1,25.23469 l 0.26819,24.42974 38.93808,0.26192 c 23.73473,0.15965 39.31041,-0.11041 39.89168,-0.69168 0.60478,-0.60478 -0.19557,-2.74439 -2.18809,-5.84946 -3.65246,-5.69187 -3.71835,-6.06253 -1.39167,-7.82873 2.57792,-1.95692 2.98483,-1.77237 5.75,2.60795 2.52255,3.99597 4.88575,5.10922 5.83772,2.75 0.27741,-0.6875 0.53991,0.81998 0.58333,3.34996 0.0591,3.44503 0.83375,5.64193 3.08522,8.75 1.65345,2.28252 3.383,4.15004 3.84345,4.15004 0.46045,0 3.39271,-0.87923 6.51614,-1.95385 3.59263,-1.23604 7.78316,-1.8696 11.40655,-1.72454 5.71606,0.22885 5.7286,0.23628 6.22759,3.6925 0.29451,2.03987 1.11648,3.55198 2,3.67924 1.54507,0.22255 7.45279,-7.12389 8.99886,-11.19034 1.03828,-2.7309 6.93143,-6.07279 7.40954,-4.20182 0.16849,0.65934 1.05988,3.67381 1.98088,6.69881 2.0208,6.63731 6.68562,41.99756 5.92444,44.90835 -0.35168,1.3448 0.0233,2.28374 1.07283,2.68649 2.15348,0.82637 2.32695,9.40516 0.19018,9.40516 -0.78281,0 -2.69912,1.07355 -4.25848,2.38567 -4.47171,3.76269 -9.12278,5.25075 -20.36011,6.514 -19.77447,2.22296 -22.3552,4.1401 -26.40091,19.6124 -1.43988,5.50664 -2.4918,11.10124 -2.3376,12.43243 0.23375,2.01789 -0.30162,2.56953 -3.21963,3.31743 -6.57511,1.68525 -9.75925,1.93663 -10.44644,0.82474 z m 32.84556,-88.88755 c 0.56005,-3.30186 0.53881,-5.66119 -0.0563,-6.25631 -0.60723,-0.60723 -3.65463,-0.0374 -8.36192,1.56369 -8.07758,2.74736 -9.25877,3.47671 -8.18925,5.05661 1.15445,1.70537 10.50365,5.33526 13.20836,5.12824 2.2004,-0.16842 2.60775,-0.8266 3.39912,-5.49223 z m -0.99584,88.40942 c -0.87228,-2.2731 3.28823,-8.40604 6.94326,-10.23497 l 3.15346,-1.57795 -3.21588,2.85219 c -2.23273,1.98022 -3.30274,3.89866 -3.5,6.27518 -0.30188,3.63701 -2.38175,5.28914 -3.38084,2.68555 z m 31.25156,0.71297 c -0.37317,-0.37318 -0.40277,-2.14823 -0.0658,-3.94457 0.49699,-2.64918 0.13006,-3.74873 -1.94271,-5.8215 -1.54685,-1.54687 -3.68195,-2.55544 -5.40975,-2.55544 -3.42405,0 -7.1195,-2.33629 -5.38807,-3.40637 0.7215,-0.44592 1.15149,-3.86368 1.15149,-9.15265 0,-8.33705 0.0308,-8.44098 2.5,-8.44098 2.4551,0 2.5,0.1415 2.5,7.87756 0,8.60775 0.40322,9.3431 6,10.94211 2.53835,0.72521 2.88179,1.02473 1.25,1.09014 -2.94472,0.11804 -2.84095,1.14665 0.68764,6.81582 2.15547,3.46309 2.65538,5.05982 1.87755,5.99705 -1.18391,1.42653 -2.14966,1.60952 -3.16035,0.59883 z m 12.2392,-0.57151 c -0.0583,-0.6875 -0.0301,-2.43283 0.0626,-3.87851 0.12125,-1.89044 -0.76159,-3.37598 -3.14404,-5.29047 -3.02456,-2.43048 -3.07681,-2.55903 -0.60079,-1.47836 3.19291,1.39356 8.1716,8.45574 7.39248,10.4861 -0.66975,1.74534 -3.56532,1.87117 -3.71027,0.16124 z M 130.66586,237.92571 c 0,-0.51072 -0.72857,-1.65714 -1.61905,-2.54762 -0.89047,-0.89048 -1.44219,-1.79591 -1.22603,-2.01207 0.21616,-0.21616 10.99104,-0.47796 23.94418,-0.58179 l 23.55116,-0.18878 2.67487,2.67487 c 1.47118,1.47118 2.67487,2.87941 2.67487,3.12941 0,0.25 -11.25,0.45455 -25,0.45455 -14.71795,0 -25,-0.3819 -25,-0.92857 z m 173,-24.90476 c 0,-3.32793 0.67132,-4.23003 2.59777,-3.49078 0.77122,0.29595 1.40223,1.83994 1.40223,3.4311 0,2.22634 -0.46088,2.89301 -2,2.89301 -1.52941,0 -2,-0.66667 -2,-2.83333 z m -25.33333,-2.83334 c -2.38105,-2.38104 1.23751,-5.48767 3.8584,-3.31253 1.14005,0.94616 1.22752,1.57239 0.36482,2.61188 -1.21644,1.46572 -3.13917,1.78471 -4.22322,0.70065 z m -4.66348,-9.58333 c 0.002,-0.80779 1.57112,-1.25869 4.43534,-1.27456 3.47955,-0.0193 4.2048,0.24939 3.37437,1.25 -1.38316,1.66661 -7.81395,1.68683 -7.80971,0.0246 z m 31.45905,-5.16729 c -1.28619,-1.96297 -1.3847,-3.15695 -0.52415,-6.3528 2.15299,-7.99559 10.18684,-12.56465 11.674,-6.63932 0.87295,3.47811 -1.04459,9.50502 -4.05901,12.75763 -3.05021,3.29124 -5.04477,3.35719 -7.09084,0.23449 z m -0.60881,-17.26498 c 0.62945,-1.20026 2.0707,-2.47626 3.20279,-2.83557 1.13209,-0.35932 2.51078,-1.84329 3.06376,-3.29772 1.37445,-3.61508 1.40075,-22.0442 0.0363,-25.43444 -1.3096,-3.25396 -0.21036,-3.57222 2.39494,-0.6934 2.20252,2.43375 3.04504,11.55125 1.98346,21.46417 -0.67655,6.31754 -0.8115,6.56805 -4.3299,8.03813 -1.99737,0.83456 -4.50103,2.28771 -5.56369,3.22924 -1.85824,1.64641 -1.88835,1.62843 -0.78766,-0.47041 z m -17.21395,-0.0116 c -1.19516,-1.19515 -0.64571,-3.30614 0.86052,-3.30614 0.825,0 1.5,0.64844 1.5,1.44098 0,1.67065 -1.42728,2.79841 -2.36052,1.86517 z m -22.04843,-2.15882 c -0.28984,-0.46897 0.11929,-1.70647 0.90918,-2.75 1.36077,-1.79772 1.43783,-1.75296 1.46797,0.85268 0.0305,2.63938 -1.27469,3.68114 -2.37715,1.89732 z"
         id="path1200"
         inkscape:connector-curvature="0" />
      <path
         style="fill:#755a38"
         d="m 250.66586,313.87194 c 0,-1.9792 5.30756,-21.04343 5.73858,-20.61241 0.22526,0.22525 -0.54052,3.93872 -1.70172,8.25215 -1.1612,4.31343 -1.98203,8.918 -1.82407,10.23237 0.15797,1.31437 -0.27529,2.58937 -0.96279,2.83333 -0.6875,0.24396 -1.25,-0.0735 -1.25,-0.70544 z m -27.5,-3.01766 c -0.33992,-0.55 -1.94148,-1 -3.55902,-1 h -2.94098 V 275.3301 240.80592 l 16.75,0.27418 16.75,0.27418 0.26502,10.5 c 0.14575,5.775 0.46407,11.04931 0.70736,11.72068 0.34002,0.93831 1.4066,0.88048 4.61071,-0.25 7.65523,-2.70092 6.51934,-1.42573 -1.74551,1.95956 -12.12732,4.96737 -16.05604,7.45669 -17.8995,11.34149 -0.91422,1.92657 -2.26284,9.43833 -3.06068,17.0478 -1.18927,11.3427 -1.78363,13.98398 -3.57618,15.89206 -2.24417,2.38881 -5.24227,3.00183 -6.30122,1.28841 z m 13.80392,-0.65039 c -0.59048,-1.53876 4.52288,-20.11556 6.35828,-23.09961 2.21206,-3.59644 4.33903,-2.85965 4.33021,1.5 -0.0141,6.95759 -1.92129,20.45938 -3.08871,21.86604 -1.37492,1.65667 -6.93664,1.46169 -7.59978,-0.26643 z m 22.19608,-23.34961 c 0.99549,-1.1 2.03498,-2 2.30998,-2 0.275,0 -0.31449,0.9 -1.30998,2 -0.99549,1.1 -2.03498,2 -2.30998,2 -0.275,0 0.31449,-0.9 1.30998,-2 z m -128.5,-48.92857 c 0,-0.51072 -0.72857,-1.65714 -1.61905,-2.54762 -0.89047,-0.89048 -1.44219,-1.79591 -1.22603,-2.01207 0.21616,-0.21616 10.99104,-0.47796 23.94418,-0.58179 l 23.55116,-0.18878 2.67487,2.67487 c 1.47118,1.47118 2.67487,2.87941 2.67487,3.12941 0,0.25 -11.25,0.45455 -25,0.45455 -14.71795,0 -25,-0.3819 -25,-0.92857 z m 143.00319,-37.32143 c 0.002,-0.80779 1.57112,-1.25869 4.43534,-1.27456 3.47955,-0.0193 4.2048,0.24939 3.37437,1.25 -1.38316,1.66661 -7.81395,1.68683 -7.80971,0.0246 z m 13.63629,-22.44385 c -1.19516,-1.19516 -0.64571,-3.30615 0.86052,-3.30615 0.825,0 1.5,0.64844 1.5,1.44098 0,1.67065 -1.42728,2.79841 -2.36052,1.86517 z m 18.5239,-1.58795 c 0.91486,-0.67001 2.4233,-1.67526 3.3521,-2.2339 3.15856,-1.89973 3.91406,-24.7442 0.97557,-29.49878 -1.12616,-1.82216 1.18017,-1.0063 3.07542,1.08793 1.41348,1.56187 1.92842,3.84413 2.08709,9.25 0.1612,5.4923 0.0228,6.35514 -0.58982,3.67655 -0.74687,-3.26569 -0.81001,-3.13181 -0.9431,2 -0.26706,10.29682 -1.05933,12.76627 -4.80477,14.97614 -3.74013,2.20673 -5.82134,2.69662 -3.15249,0.74206 z m -40.57233,-0.57088 c -0.28984,-0.46897 0.11929,-1.70647 0.90918,-2.75 1.36077,-1.79772 1.43783,-1.75296 1.46797,0.85268 0.0305,2.63939 -1.27469,3.68114 -2.37715,1.89732 z"
         id="path1198"
         inkscape:connector-curvature="0" />
    </g>
  </g>
</svg>
